<!-- Copyright 2026 Kingston University Rocket Engineering -->

<?xml version="1.0" standalone="no"?>
 <!DOCTYPE svg PUBLIC "-//W3C//DTD SVG 1.1//EN"
 "http://www.w3.org/Graphics/SVG/1.1/DTD/svg11.dtd">
<svg
  xmlns:svg="http://www.w3.org/2000/svg"
  xmlns="http://www.w3.org/2000/svg"
  xmlns:xlink="http://www.w3.org/1999/xlink"
  xmlns:inkscape="http://www.inkscape.org/namespaces/inkscape"
  version="1.1"
  width="19.3294mm" height="19.3294mm" viewBox="0.0000 0.0000 19.3294 19.3294">
<title>SVG Image created as Coriolis Flow Meter_unit1.svg date 2026-05-31T14:26:45 </title>
  <desc>Image generated by Eeschema-SVG </desc>
<g style="fill:#000000; fill-opacity:1.0000;stroke:#000000; stroke-opacity:1.0000;
stroke-linecap:round; stroke-linejoin:round;"
 transform="translate(0 0) scale(1 1)">
</g>
<g style="fill:none;
stroke:#840000; stroke-width:0.1000; stroke-opacity:1;
stroke-linecap:round; stroke-linejoin:round;">
<rect x="7.164700" y="8.164700" width="5.000000" height="3.000000" rx="0.000000" />
<path style="fill:none;
stroke:#840000; stroke-width:0.1500; stroke-opacity:1;
stroke-linecap:round; stroke-linejoin:round;fill:none"
d="M 7.1647,9.6647
8.1647,8.4647
9.6647,8.3147
11.1647,8.4647
12.1647,9.6647
" />
<path style="fill:none;
stroke:#840000; stroke-width:0.1500; stroke-opacity:1;
stroke-linecap:round; stroke-linejoin:round;fill:none"
d="M 7.1647,9.6647
8.1647,10.8647
9.6647,11.0147
11.1647,10.8647
12.1647,9.6647
" />
</g>
<g style="fill:none;
stroke:#840000; stroke-width:0.1000; stroke-opacity:1;
stroke-linecap:round; stroke-linejoin:round;">
<circle cx="9.6647" cy="4.6647" r="2.5000" />
<path style="fill:none;
stroke:#840000; stroke-width:0.1000; stroke-opacity:1;
stroke-linecap:round; stroke-linejoin:round;fill:none"
d="M 9.6647,7.1647
9.6647,8.1647
" />
</g>
<g style="fill:none;
stroke:#840000; stroke-width:0.1524; stroke-opacity:1;
stroke-linecap:round; stroke-linejoin:round;">
<text x="9.6647" y="5.4147"
textLength="2.5858" font-size="2.0000" lengthAdjust="spacingAndGlyphs"
text-anchor="middle" opacity="0" stroke-opacity="0">FT</text>
<g class="stroked-text"><desc>FT</desc>
<path d="M9.3075 4.5649
L8.8075 4.5649
" />
<path d="M8.8075 5.3506
L8.8075 3.8506
" />
<path d="M8.8075 3.8506
L9.5218 3.8506
" />
<path d="M9.8789 3.8506
L10.7361 3.8506
" />
<path d="M10.3075 5.3506
L10.3075 3.8506
" />
</g><path d="M7.6647 9.6647
L4.6647 9.6647
" />
<path d="M11.6647 9.6647
L14.6647 9.6647
" />
</g>
<g style="fill:none;
stroke:#006464; stroke-width:0.1524; stroke-opacity:1;
stroke-linecap:round; stroke-linejoin:round;">
<text x="9.6647" y="15.2997"
textLength="12.0565" font-size="1.6933" lengthAdjust="spacingAndGlyphs"
text-anchor="middle" opacity="0" stroke-opacity="0">Coriolis_FM?</text>
<g class="stroked-text"><desc>Coriolis_FM?</desc>
<path d="M4.7661 15.1233
L4.7057 15.1838
" />
<path d="M4.7057 15.1838
L4.5242 15.2442
" />
<path d="M4.5242 15.2442
L4.4033 15.2442
" />
<path d="M4.4033 15.2442
L4.2219 15.1838
" />
<path d="M4.2219 15.1838
L4.1009 15.0628
" />
<path d="M4.1009 15.0628
L4.0404 14.9418
" />
<path d="M4.0404 14.9418
L3.9800 14.6999
" />
<path d="M3.9800 14.6999
L3.9800 14.5185
" />
<path d="M3.9800 14.5185
L4.0404 14.2766
" />
<path d="M4.0404 14.2766
L4.1009 14.1557
" />
<path d="M4.1009 14.1557
L4.2219 14.0347
" />
<path d="M4.2219 14.0347
L4.4033 13.9742
" />
<path d="M4.4033 13.9742
L4.5242 13.9742
" />
<path d="M4.5242 13.9742
L4.7057 14.0347
" />
<path d="M4.7057 14.0347
L4.7661 14.0952
" />
<path d="M5.4919 15.2442
L5.3709 15.1838
" />
<path d="M5.3709 15.1838
L5.3104 15.1233
" />
<path d="M5.3104 15.1233
L5.2500 15.0023
" />
<path d="M5.2500 15.0023
L5.2500 14.6395
" />
<path d="M5.2500 14.6395
L5.3104 14.5185
" />
<path d="M5.3104 14.5185
L5.3709 14.4580
" />
<path d="M5.3709 14.4580
L5.4919 14.3976
" />
<path d="M5.4919 14.3976
L5.6733 14.3976
" />
<path d="M5.6733 14.3976
L5.7942 14.4580
" />
<path d="M5.7942 14.4580
L5.8547 14.5185
" />
<path d="M5.8547 14.5185
L5.9152 14.6395
" />
<path d="M5.9152 14.6395
L5.9152 15.0023
" />
<path d="M5.9152 15.0023
L5.8547 15.1233
" />
<path d="M5.8547 15.1233
L5.7942 15.1838
" />
<path d="M5.7942 15.1838
L5.6733 15.2442
" />
<path d="M5.6733 15.2442
L5.4919 15.2442
" />
<path d="M6.4594 15.2442
L6.4594 14.3976
" />
<path d="M6.4594 14.6395
L6.5199 14.5185
" />
<path d="M6.5199 14.5185
L6.5804 14.4580
" />
<path d="M6.5804 14.4580
L6.7013 14.3976
" />
<path d="M6.7013 14.3976
L6.8223 14.3976
" />
<path d="M7.2456 15.2442
L7.2456 14.3976
" />
<path d="M7.2456 13.9742
L7.1852 14.0347
" />
<path d="M7.1852 14.0347
L7.2456 14.0952
" />
<path d="M7.2456 14.0952
L7.3061 14.0347
" />
<path d="M7.3061 14.0347
L7.2456 13.9742
" />
<path d="M7.2456 13.9742
L7.2456 14.0952
" />
<path d="M8.0319 15.2442
L7.9109 15.1838
" />
<path d="M7.9109 15.1838
L7.8504 15.1233
" />
<path d="M7.8504 15.1233
L7.7900 15.0023
" />
<path d="M7.7900 15.0023
L7.7900 14.6395
" />
<path d="M7.7900 14.6395
L7.8504 14.5185
" />
<path d="M7.8504 14.5185
L7.9109 14.4580
" />
<path d="M7.9109 14.4580
L8.0319 14.3976
" />
<path d="M8.0319 14.3976
L8.2133 14.3976
" />
<path d="M8.2133 14.3976
L8.3342 14.4580
" />
<path d="M8.3342 14.4580
L8.3947 14.5185
" />
<path d="M8.3947 14.5185
L8.4552 14.6395
" />
<path d="M8.4552 14.6395
L8.4552 15.0023
" />
<path d="M8.4552 15.0023
L8.3947 15.1233
" />
<path d="M8.3947 15.1233
L8.3342 15.1838
" />
<path d="M8.3342 15.1838
L8.2133 15.2442
" />
<path d="M8.2133 15.2442
L8.0319 15.2442
" />
<path d="M9.1809 15.2442
L9.0599 15.1838
" />
<path d="M9.0599 15.1838
L8.9994 15.0628
" />
<path d="M8.9994 15.0628
L8.9994 13.9742
" />
<path d="M9.6646 15.2442
L9.6646 14.3976
" />
<path d="M9.6646 13.9742
L9.6042 14.0347
" />
<path d="M9.6042 14.0347
L9.6646 14.0952
" />
<path d="M9.6646 14.0952
L9.7251 14.0347
" />
<path d="M9.7251 14.0347
L9.6646 13.9742
" />
<path d="M9.6646 13.9742
L9.6646 14.0952
" />
<path d="M10.2090 15.1838
L10.3299 15.2442
" />
<path d="M10.3299 15.2442
L10.5718 15.2442
" />
<path d="M10.5718 15.2442
L10.6928 15.1838
" />
<path d="M10.6928 15.1838
L10.7532 15.0628
" />
<path d="M10.7532 15.0628
L10.7532 15.0023
" />
<path d="M10.7532 15.0023
L10.6928 14.8814
" />
<path d="M10.6928 14.8814
L10.5718 14.8209
" />
<path d="M10.5718 14.8209
L10.3904 14.8209
" />
<path d="M10.3904 14.8209
L10.2694 14.7604
" />
<path d="M10.2694 14.7604
L10.2090 14.6395
" />
<path d="M10.2090 14.6395
L10.2090 14.5790
" />
<path d="M10.2090 14.5790
L10.2694 14.4580
" />
<path d="M10.2694 14.4580
L10.3904 14.3976
" />
<path d="M10.3904 14.3976
L10.5718 14.3976
" />
<path d="M10.5718 14.3976
L10.6928 14.4580
" />
<path d="M10.9952 15.3652
L11.9628 15.3652
" />
<path d="M12.6885 14.5790
L12.2651 14.5790
" />
<path d="M12.2651 15.2442
L12.2651 13.9742
" />
<path d="M12.2651 13.9742
L12.8699 13.9742
" />
<path d="M13.3537 15.2442
L13.3537 13.9742
" />
<path d="M13.3537 13.9742
L13.7771 14.8814
" />
<path d="M13.7771 14.8814
L14.2004 13.9742
" />
<path d="M14.2004 13.9742
L14.2004 15.2442
" />
<path d="M14.9866 15.1233
L15.0470 15.1838
" />
<path d="M15.0470 15.1838
L14.9866 15.2442
" />
<path d="M14.9866 15.2442
L14.9261 15.1838
" />
<path d="M14.9261 15.1838
L14.9866 15.1233
" />
<path d="M14.9866 15.1233
L14.9866 15.2442
" />
<path d="M14.7447 14.0347
L14.8656 13.9742
" />
<path d="M14.8656 13.9742
L15.1680 13.9742
" />
<path d="M15.1680 13.9742
L15.2889 14.0347
" />
<path d="M15.2889 14.0347
L15.3494 14.1557
" />
<path d="M15.3494 14.1557
L15.3494 14.2766
" />
<path d="M15.3494 14.2766
L15.2889 14.3976
" />
<path d="M15.2889 14.3976
L15.2285 14.4580
" />
<path d="M15.2285 14.4580
L15.1075 14.5185
" />
<path d="M15.1075 14.5185
L15.0470 14.5790
" />
<path d="M15.0470 14.5790
L14.9866 14.6999
" />
<path d="M14.9866 14.6999
L14.9866 14.7604
" />
</g></g>
</svg>
