<!-- Copyright 2026 Kingston University Rocket Engineering -->

<?xml version="1.0" standalone="no"?>
 <!DOCTYPE svg PUBLIC "-//W3C//DTD SVG 1.1//EN"
 "http://www.w3.org/Graphics/SVG/1.1/DTD/svg11.dtd">
<svg
  xmlns:svg="http://www.w3.org/2000/svg"
  xmlns="http://www.w3.org/2000/svg"
  xmlns:xlink="http://www.w3.org/1999/xlink"
  xmlns:inkscape="http://www.inkscape.org/namespaces/inkscape"
  version="1.1"
  width="19.3294mm" height="22.8854mm" viewBox="0.0000 0.0000 19.3294 22.8854">
<title>SVG Image created as Flow Indicator_unit1.svg date 2026-05-31T11:36:33 </title>
  <desc>Image generated by Eeschema-SVG </desc>
<g style="fill:#000000; fill-opacity:1.0000;stroke:#000000; stroke-opacity:1.0000;
stroke-linecap:round; stroke-linejoin:round;"
 transform="translate(0 0) scale(1 1)">
</g>
<g style="fill:none;
stroke:#840000; stroke-width:0.1000; stroke-opacity:1;
stroke-linecap:round; stroke-linejoin:round;">
<circle cx="9.6647" cy="9.9569" r="2.5000" />
<path style="fill:none;
stroke:#840000; stroke-width:0.1000; stroke-opacity:1;
stroke-linecap:round; stroke-linejoin:round;fill:none"
d="M 9.6647,12.4569
9.6647,14.9569
" />
</g>
<g style="fill:none;
stroke:#840000; stroke-width:0.1524; stroke-opacity:1;
stroke-linecap:round; stroke-linejoin:round;">
<text x="9.6647" y="10.7069"
textLength="2.1572" font-size="2.0000" lengthAdjust="spacingAndGlyphs"
text-anchor="middle" opacity="0" stroke-opacity="0">FI</text>
<g class="stroked-text"><desc>FI</desc>
<path d="M9.5218 9.8571
L9.0218 9.8571
" />
<path d="M9.0218 10.6428
L9.0218 9.1428
" />
<path d="M9.0218 9.1428
L9.7361 9.1428
" />
<path d="M10.3075 10.6428
L10.3075 9.1428
" />
</g><path d="M9.6647 11.9569
L9.6647 14.9569
" />
</g>
<g style="fill:none;
stroke:#006464; stroke-width:0.1524; stroke-opacity:1;
stroke-linecap:round; stroke-linejoin:round;">
<text x="9.6647" y="20.5919"
textLength="14.8988" font-size="1.6933" lengthAdjust="spacingAndGlyphs"
text-anchor="middle" opacity="0" stroke-opacity="0">Flow_Indicator?</text>
<g class="stroked-text"><desc>Flow_Indicator?</desc>
<path d="M3.0426 19.8712
L2.6192 19.8712
" />
<path d="M2.6192 20.5364
L2.6192 19.2664
" />
<path d="M2.6192 19.2664
L3.2240 19.2664
" />
<path d="M3.8893 20.5364
L3.7683 20.4760
" />
<path d="M3.7683 20.4760
L3.7078 20.3550
" />
<path d="M3.7078 20.3550
L3.7078 19.2664
" />
<path d="M4.5545 20.5364
L4.4335 20.4760
" />
<path d="M4.4335 20.4760
L4.3730 20.4155
" />
<path d="M4.3730 20.4155
L4.3126 20.2945
" />
<path d="M4.3126 20.2945
L4.3126 19.9317
" />
<path d="M4.3126 19.9317
L4.3730 19.8107
" />
<path d="M4.3730 19.8107
L4.4335 19.7502
" />
<path d="M4.4335 19.7502
L4.5545 19.6898
" />
<path d="M4.5545 19.6898
L4.7359 19.6898
" />
<path d="M4.7359 19.6898
L4.8568 19.7502
" />
<path d="M4.8568 19.7502
L4.9173 19.8107
" />
<path d="M4.9173 19.8107
L4.9778 19.9317
" />
<path d="M4.9778 19.9317
L4.9778 20.2945
" />
<path d="M4.9778 20.2945
L4.9173 20.4155
" />
<path d="M4.9173 20.4155
L4.8568 20.4760
" />
<path d="M4.8568 20.4760
L4.7359 20.5364
" />
<path d="M4.7359 20.5364
L4.5545 20.5364
" />
<path d="M5.4011 19.6898
L5.6430 20.5364
" />
<path d="M5.6430 20.5364
L5.8849 19.9317
" />
<path d="M5.8849 19.9317
L6.1268 20.5364
" />
<path d="M6.1268 20.5364
L6.3687 19.6898
" />
<path d="M6.5502 20.6574
L7.5178 20.6574
" />
<path d="M7.8201 20.5364
L7.8201 19.2664
" />
<path d="M8.4249 19.6898
L8.4249 20.5364
" />
<path d="M8.4249 19.8107
L8.4854 19.7502
" />
<path d="M8.4854 19.7502
L8.6064 19.6898
" />
<path d="M8.6064 19.6898
L8.7878 19.6898
" />
<path d="M8.7878 19.6898
L8.9087 19.7502
" />
<path d="M8.9087 19.7502
L8.9692 19.8712
" />
<path d="M8.9692 19.8712
L8.9692 20.5364
" />
<path d="M10.1182 20.5364
L10.1182 19.2664
" />
<path d="M10.1182 20.4760
L9.9973 20.5364
" />
<path d="M9.9973 20.5364
L9.7554 20.5364
" />
<path d="M9.7554 20.5364
L9.6344 20.4760
" />
<path d="M9.6344 20.4760
L9.5739 20.4155
" />
<path d="M9.5739 20.4155
L9.5135 20.2945
" />
<path d="M9.5135 20.2945
L9.5135 19.9317
" />
<path d="M9.5135 19.9317
L9.5739 19.8107
" />
<path d="M9.5739 19.8107
L9.6344 19.7502
" />
<path d="M9.6344 19.7502
L9.7554 19.6898
" />
<path d="M9.7554 19.6898
L9.9973 19.6898
" />
<path d="M9.9973 19.6898
L10.1182 19.7502
" />
<path d="M10.7229 20.5364
L10.7229 19.6898
" />
<path d="M10.7229 19.2664
L10.6625 19.3269
" />
<path d="M10.6625 19.3269
L10.7229 19.3874
" />
<path d="M10.7229 19.3874
L10.7834 19.3269
" />
<path d="M10.7834 19.3269
L10.7229 19.2664
" />
<path d="M10.7229 19.2664
L10.7229 19.3874
" />
<path d="M11.8720 20.4760
L11.7511 20.5364
" />
<path d="M11.7511 20.5364
L11.5092 20.5364
" />
<path d="M11.5092 20.5364
L11.3882 20.4760
" />
<path d="M11.3882 20.4760
L11.3277 20.4155
" />
<path d="M11.3277 20.4155
L11.2673 20.2945
" />
<path d="M11.2673 20.2945
L11.2673 19.9317
" />
<path d="M11.2673 19.9317
L11.3277 19.8107
" />
<path d="M11.3277 19.8107
L11.3882 19.7502
" />
<path d="M11.3882 19.7502
L11.5092 19.6898
" />
<path d="M11.5092 19.6898
L11.7511 19.6898
" />
<path d="M11.7511 19.6898
L11.8720 19.7502
" />
<path d="M12.9606 20.5364
L12.9606 19.8712
" />
<path d="M12.9606 19.8712
L12.9001 19.7502
" />
<path d="M12.9001 19.7502
L12.7792 19.6898
" />
<path d="M12.7792 19.6898
L12.5373 19.6898
" />
<path d="M12.5373 19.6898
L12.4163 19.7502
" />
<path d="M12.9606 20.4760
L12.8397 20.5364
" />
<path d="M12.8397 20.5364
L12.5373 20.5364
" />
<path d="M12.5373 20.5364
L12.4163 20.4760
" />
<path d="M12.4163 20.4760
L12.3559 20.3550
" />
<path d="M12.3559 20.3550
L12.3559 20.2340
" />
<path d="M12.3559 20.2340
L12.4163 20.1131
" />
<path d="M12.4163 20.1131
L12.5373 20.0526
" />
<path d="M12.5373 20.0526
L12.8397 20.0526
" />
<path d="M12.8397 20.0526
L12.9606 19.9921
" />
<path d="M13.3839 19.6898
L13.8677 19.6898
" />
<path d="M13.5653 19.2664
L13.5653 20.3550
" />
<path d="M13.5653 20.3550
L13.6258 20.4760
" />
<path d="M13.6258 20.4760
L13.7468 20.5364
" />
<path d="M13.7468 20.5364
L13.8677 20.5364
" />
<path d="M14.4725 20.5364
L14.3515 20.4760
" />
<path d="M14.3515 20.4760
L14.2910 20.4155
" />
<path d="M14.2910 20.4155
L14.2306 20.2945
" />
<path d="M14.2306 20.2945
L14.2306 19.9317
" />
<path d="M14.2306 19.9317
L14.2910 19.8107
" />
<path d="M14.2910 19.8107
L14.3515 19.7502
" />
<path d="M14.3515 19.7502
L14.4725 19.6898
" />
<path d="M14.4725 19.6898
L14.6539 19.6898
" />
<path d="M14.6539 19.6898
L14.7748 19.7502
" />
<path d="M14.7748 19.7502
L14.8353 19.8107
" />
<path d="M14.8353 19.8107
L14.8958 19.9317
" />
<path d="M14.8958 19.9317
L14.8958 20.2945
" />
<path d="M14.8958 20.2945
L14.8353 20.4155
" />
<path d="M14.8353 20.4155
L14.7748 20.4760
" />
<path d="M14.7748 20.4760
L14.6539 20.5364
" />
<path d="M14.6539 20.5364
L14.4725 20.5364
" />
<path d="M15.4400 20.5364
L15.4400 19.6898
" />
<path d="M15.4400 19.9317
L15.5005 19.8107
" />
<path d="M15.5005 19.8107
L15.5610 19.7502
" />
<path d="M15.5610 19.7502
L15.6819 19.6898
" />
<path d="M15.6819 19.6898
L15.8029 19.6898
" />
<path d="M16.4077 20.4155
L16.4681 20.4760
" />
<path d="M16.4681 20.4760
L16.4077 20.5364
" />
<path d="M16.4077 20.5364
L16.3472 20.4760
" />
<path d="M16.3472 20.4760
L16.4077 20.4155
" />
<path d="M16.4077 20.4155
L16.4077 20.5364
" />
<path d="M16.1658 19.3269
L16.2867 19.2664
" />
<path d="M16.2867 19.2664
L16.5891 19.2664
" />
<path d="M16.5891 19.2664
L16.7100 19.3269
" />
<path d="M16.7100 19.3269
L16.7705 19.4479
" />
<path d="M16.7705 19.4479
L16.7705 19.5688
" />
<path d="M16.7705 19.5688
L16.7100 19.6898
" />
<path d="M16.7100 19.6898
L16.6496 19.7502
" />
<path d="M16.6496 19.7502
L16.5286 19.8107
" />
<path d="M16.5286 19.8107
L16.4681 19.8712
" />
<path d="M16.4681 19.8712
L16.4077 19.9921
" />
<path d="M16.4077 19.9921
L16.4077 20.0526
" />
</g></g>
</svg>
