<?xml version="1.0" standalone="no"?>
 <!DOCTYPE svg PUBLIC "-//W3C//DTD SVG 1.1//EN"
 "http://www.w3.org/Graphics/SVG/1.1/DTD/svg11.dtd">
<svg
  xmlns:svg="http://www.w3.org/2000/svg"
  xmlns="http://www.w3.org/2000/svg"
  xmlns:xlink="http://www.w3.org/1999/xlink"
  xmlns:inkscape="http://www.inkscape.org/namespaces/inkscape"
  version="1.1"
  width="19.3548mm" height="22.8854mm" viewBox="0.0000 0.0000 19.3548 22.8854">
<title>SVG Image created as Flow Transmitter_unit1.svg date 2026-05-31T11:36:33 </title>
  <desc>Image generated by Eeschema-SVG </desc>
<g style="fill:#000000; fill-opacity:1.0000;stroke:#000000; stroke-opacity:1.0000;
stroke-linecap:round; stroke-linejoin:round;"
 transform="translate(0 0) scale(1 1)">
</g>
<g style="fill:none;
stroke:#840000; stroke-width:0.1000; stroke-opacity:1;
stroke-linecap:round; stroke-linejoin:round;">
<circle cx="9.6774" cy="9.9569" r="2.5000" />
<path style="fill:none;
stroke:#840000; stroke-width:0.1000; stroke-opacity:1;
stroke-linecap:round; stroke-linejoin:round;fill:none"
d="M 9.6774,12.4569
9.6774,14.9569
" />
</g>
<g style="fill:none;
stroke:#840000; stroke-width:0.1524; stroke-opacity:1;
stroke-linecap:round; stroke-linejoin:round;">
<text x="9.6774" y="10.7069"
textLength="2.5858" font-size="2.0000" lengthAdjust="spacingAndGlyphs"
text-anchor="middle" opacity="0" stroke-opacity="0">FT</text>
<g class="stroked-text"><desc>FT</desc>
<path d="M9.3202 9.8571
L8.8202 9.8571
" />
<path d="M8.8202 10.6428
L8.8202 9.1428
" />
<path d="M8.8202 9.1428
L9.5345 9.1428
" />
<path d="M9.8916 9.1428
L10.7488 9.1428
" />
<path d="M10.3202 10.6428
L10.3202 9.1428
" />
</g><path d="M9.6774 11.9569
L9.6774 14.9569
" />
</g>
<g style="fill:none;
stroke:#006464; stroke-width:0.1524; stroke-opacity:1;
stroke-linecap:round; stroke-linejoin:round;">
<text x="9.6774" y="20.5919"
textLength="17.1969" font-size="1.6933" lengthAdjust="spacingAndGlyphs"
text-anchor="middle" opacity="0" stroke-opacity="0">Flow_Transmitter?</text>
<g class="stroked-text"><desc>Flow_Transmitter?</desc>
<path d="M1.9063 19.8712
L1.4829 19.8712
" />
<path d="M1.4829 20.5364
L1.4829 19.2664
" />
<path d="M1.4829 19.2664
L2.0877 19.2664
" />
<path d="M2.7530 20.5364
L2.6320 20.4760
" />
<path d="M2.6320 20.4760
L2.5715 20.3550
" />
<path d="M2.5715 20.3550
L2.5715 19.2664
" />
<path d="M3.4182 20.5364
L3.2972 20.4760
" />
<path d="M3.2972 20.4760
L3.2367 20.4155
" />
<path d="M3.2367 20.4155
L3.1763 20.2945
" />
<path d="M3.1763 20.2945
L3.1763 19.9317
" />
<path d="M3.1763 19.9317
L3.2367 19.8107
" />
<path d="M3.2367 19.8107
L3.2972 19.7502
" />
<path d="M3.2972 19.7502
L3.4182 19.6898
" />
<path d="M3.4182 19.6898
L3.5996 19.6898
" />
<path d="M3.5996 19.6898
L3.7205 19.7502
" />
<path d="M3.7205 19.7502
L3.7810 19.8107
" />
<path d="M3.7810 19.8107
L3.8415 19.9317
" />
<path d="M3.8415 19.9317
L3.8415 20.2945
" />
<path d="M3.8415 20.2945
L3.7810 20.4155
" />
<path d="M3.7810 20.4155
L3.7205 20.4760
" />
<path d="M3.7205 20.4760
L3.5996 20.5364
" />
<path d="M3.5996 20.5364
L3.4182 20.5364
" />
<path d="M4.2648 19.6898
L4.5067 20.5364
" />
<path d="M4.5067 20.5364
L4.7486 19.9317
" />
<path d="M4.7486 19.9317
L4.9905 20.5364
" />
<path d="M4.9905 20.5364
L5.2324 19.6898
" />
<path d="M5.4139 20.6574
L6.3815 20.6574
" />
<path d="M6.5024 19.2664
L7.2281 19.2664
" />
<path d="M6.8653 20.5364
L6.8653 19.2664
" />
<path d="M7.6514 20.5364
L7.6514 19.6898
" />
<path d="M7.6514 19.9317
L7.7119 19.8107
" />
<path d="M7.7119 19.8107
L7.7724 19.7502
" />
<path d="M7.7724 19.7502
L7.8933 19.6898
" />
<path d="M7.8933 19.6898
L8.0143 19.6898
" />
<path d="M8.9819 20.5364
L8.9819 19.8712
" />
<path d="M8.9819 19.8712
L8.9214 19.7502
" />
<path d="M8.9214 19.7502
L8.8005 19.6898
" />
<path d="M8.8005 19.6898
L8.5586 19.6898
" />
<path d="M8.5586 19.6898
L8.4376 19.7502
" />
<path d="M8.9819 20.4760
L8.8610 20.5364
" />
<path d="M8.8610 20.5364
L8.5586 20.5364
" />
<path d="M8.5586 20.5364
L8.4376 20.4760
" />
<path d="M8.4376 20.4760
L8.3772 20.3550
" />
<path d="M8.3772 20.3550
L8.3772 20.2340
" />
<path d="M8.3772 20.2340
L8.4376 20.1131
" />
<path d="M8.4376 20.1131
L8.5586 20.0526
" />
<path d="M8.5586 20.0526
L8.8610 20.0526
" />
<path d="M8.8610 20.0526
L8.9819 19.9921
" />
<path d="M9.5866 19.6898
L9.5866 20.5364
" />
<path d="M9.5866 19.8107
L9.6471 19.7502
" />
<path d="M9.6471 19.7502
L9.7681 19.6898
" />
<path d="M9.7681 19.6898
L9.9495 19.6898
" />
<path d="M9.9495 19.6898
L10.0704 19.7502
" />
<path d="M10.0704 19.7502
L10.1309 19.8712
" />
<path d="M10.1309 19.8712
L10.1309 20.5364
" />
<path d="M10.6752 20.4760
L10.7961 20.5364
" />
<path d="M10.7961 20.5364
L11.0380 20.5364
" />
<path d="M11.0380 20.5364
L11.1590 20.4760
" />
<path d="M11.1590 20.4760
L11.2194 20.3550
" />
<path d="M11.2194 20.3550
L11.2194 20.2945
" />
<path d="M11.2194 20.2945
L11.1590 20.1736
" />
<path d="M11.1590 20.1736
L11.0380 20.1131
" />
<path d="M11.0380 20.1131
L10.8566 20.1131
" />
<path d="M10.8566 20.1131
L10.7356 20.0526
" />
<path d="M10.7356 20.0526
L10.6752 19.9317
" />
<path d="M10.6752 19.9317
L10.6752 19.8712
" />
<path d="M10.6752 19.8712
L10.7356 19.7502
" />
<path d="M10.7356 19.7502
L10.8566 19.6898
" />
<path d="M10.8566 19.6898
L11.0380 19.6898
" />
<path d="M11.0380 19.6898
L11.1590 19.7502
" />
<path d="M11.7637 20.5364
L11.7637 19.6898
" />
<path d="M11.7637 19.8107
L11.8242 19.7502
" />
<path d="M11.8242 19.7502
L11.9452 19.6898
" />
<path d="M11.9452 19.6898
L12.1266 19.6898
" />
<path d="M12.1266 19.6898
L12.2475 19.7502
" />
<path d="M12.2475 19.7502
L12.3080 19.8712
" />
<path d="M12.3080 19.8712
L12.3080 20.5364
" />
<path d="M12.3080 19.8712
L12.3685 19.7502
" />
<path d="M12.3685 19.7502
L12.4894 19.6898
" />
<path d="M12.4894 19.6898
L12.6709 19.6898
" />
<path d="M12.6709 19.6898
L12.7918 19.7502
" />
<path d="M12.7918 19.7502
L12.8523 19.8712
" />
<path d="M12.8523 19.8712
L12.8523 20.5364
" />
<path d="M13.4570 20.5364
L13.4570 19.6898
" />
<path d="M13.4570 19.2664
L13.3966 19.3269
" />
<path d="M13.3966 19.3269
L13.4570 19.3874
" />
<path d="M13.4570 19.3874
L13.5175 19.3269
" />
<path d="M13.5175 19.3269
L13.4570 19.2664
" />
<path d="M13.4570 19.2664
L13.4570 19.3874
" />
<path d="M13.8804 19.6898
L14.3642 19.6898
" />
<path d="M14.0618 19.2664
L14.0618 20.3550
" />
<path d="M14.0618 20.3550
L14.1223 20.4760
" />
<path d="M14.1223 20.4760
L14.2433 20.5364
" />
<path d="M14.2433 20.5364
L14.3642 20.5364
" />
<path d="M14.6061 19.6898
L15.0899 19.6898
" />
<path d="M14.7875 19.2664
L14.7875 20.3550
" />
<path d="M14.7875 20.3550
L14.8480 20.4760
" />
<path d="M14.8480 20.4760
L14.9690 20.5364
" />
<path d="M14.9690 20.5364
L15.0899 20.5364
" />
<path d="M15.9970 20.4760
L15.8761 20.5364
" />
<path d="M15.8761 20.5364
L15.6342 20.5364
" />
<path d="M15.6342 20.5364
L15.5132 20.4760
" />
<path d="M15.5132 20.4760
L15.4528 20.3550
" />
<path d="M15.4528 20.3550
L15.4528 19.8712
" />
<path d="M15.4528 19.8712
L15.5132 19.7502
" />
<path d="M15.5132 19.7502
L15.6342 19.6898
" />
<path d="M15.6342 19.6898
L15.8761 19.6898
" />
<path d="M15.8761 19.6898
L15.9970 19.7502
" />
<path d="M15.9970 19.7502
L16.0575 19.8712
" />
<path d="M16.0575 19.8712
L16.0575 19.9921
" />
<path d="M16.0575 19.9921
L15.4528 20.1131
" />
<path d="M16.6018 20.5364
L16.6018 19.6898
" />
<path d="M16.6018 19.9317
L16.6623 19.8107
" />
<path d="M16.6623 19.8107
L16.7228 19.7502
" />
<path d="M16.7228 19.7502
L16.8437 19.6898
" />
<path d="M16.8437 19.6898
L16.9647 19.6898
" />
<path d="M17.5695 20.4155
L17.6299 20.4760
" />
<path d="M17.6299 20.4760
L17.5695 20.5364
" />
<path d="M17.5695 20.5364
L17.5090 20.4760
" />
<path d="M17.5090 20.4760
L17.5695 20.4155
" />
<path d="M17.5695 20.4155
L17.5695 20.5364
" />
<path d="M17.3276 19.3269
L17.4485 19.2664
" />
<path d="M17.4485 19.2664
L17.7509 19.2664
" />
<path d="M17.7509 19.2664
L17.8718 19.3269
" />
<path d="M17.8718 19.3269
L17.9323 19.4479
" />
<path d="M17.9323 19.4479
L17.9323 19.5688
" />
<path d="M17.9323 19.5688
L17.8718 19.6898
" />
<path d="M17.8718 19.6898
L17.8114 19.7502
" />
<path d="M17.8114 19.7502
L17.6904 19.8107
" />
<path d="M17.6904 19.8107
L17.6299 19.8712
" />
<path d="M17.6299 19.8712
L17.5695 19.9921
" />
<path d="M17.5695 19.9921
L17.5695 20.0526
" />
</g></g>
</svg>
