<!-- Copyright 2026 Kingston University Rocket Engineering -->

<?xml version="1.0" standalone="no"?>
 <!DOCTYPE svg PUBLIC "-//W3C//DTD SVG 1.1//EN"
 "http://www.w3.org/Graphics/SVG/1.1/DTD/svg11.dtd">
<svg
  xmlns:svg="http://www.w3.org/2000/svg"
  xmlns="http://www.w3.org/2000/svg"
  xmlns:xlink="http://www.w3.org/1999/xlink"
  xmlns:inkscape="http://www.inkscape.org/namespaces/inkscape"
  version="1.1"
  width="19.3294mm" height="22.8854mm" viewBox="0.0000 0.0000 19.3294 22.8854">
<title>SVG Image created as Level Indicator_unit1.svg date 2026-05-31T11:36:35 </title>
  <desc>Image generated by Eeschema-SVG </desc>
<g style="fill:#000000; fill-opacity:1.0000;stroke:#000000; stroke-opacity:1.0000;
stroke-linecap:round; stroke-linejoin:round;"
 transform="translate(0 0) scale(1 1)">
</g>
<g style="fill:none;
stroke:#840000; stroke-width:0.1000; stroke-opacity:1;
stroke-linecap:round; stroke-linejoin:round;">
<circle cx="9.6647" cy="9.9569" r="2.5000" />
<path style="fill:none;
stroke:#840000; stroke-width:0.1000; stroke-opacity:1;
stroke-linecap:round; stroke-linejoin:round;fill:none"
d="M 9.6647,12.4569
9.6647,14.9569
" />
</g>
<g style="fill:none;
stroke:#840000; stroke-width:0.1524; stroke-opacity:1;
stroke-linecap:round; stroke-linejoin:round;">
<text x="9.6647" y="10.7069"
textLength="2.0858" font-size="2.0000" lengthAdjust="spacingAndGlyphs"
text-anchor="middle" opacity="0" stroke-opacity="0">LI</text>
<g class="stroked-text"><desc>LI</desc>
<path d="M9.7718 10.6428
L9.0575 10.6428
" />
<path d="M9.0575 10.6428
L9.0575 9.1428
" />
<path d="M10.2718 10.6428
L10.2718 9.1428
" />
</g><path d="M9.6647 11.9569
L9.6647 14.9569
" />
</g>
<g style="fill:none;
stroke:#006464; stroke-width:0.1524; stroke-opacity:1;
stroke-linecap:round; stroke-linejoin:round;">
<text x="9.6647" y="20.5919"
textLength="15.5036" font-size="1.6933" lengthAdjust="spacingAndGlyphs"
text-anchor="middle" opacity="0" stroke-opacity="0">Level_Indicator?</text>
<g class="stroked-text"><desc>Level_Indicator?</desc>
<path d="M2.9216 20.5364
L2.3168 20.5364
" />
<path d="M2.3168 20.5364
L2.3168 19.2664
" />
<path d="M3.8287 20.4760
L3.7078 20.5364
" />
<path d="M3.7078 20.5364
L3.4659 20.5364
" />
<path d="M3.4659 20.5364
L3.3449 20.4760
" />
<path d="M3.3449 20.4760
L3.2845 20.3550
" />
<path d="M3.2845 20.3550
L3.2845 19.8712
" />
<path d="M3.2845 19.8712
L3.3449 19.7502
" />
<path d="M3.3449 19.7502
L3.4659 19.6898
" />
<path d="M3.4659 19.6898
L3.7078 19.6898
" />
<path d="M3.7078 19.6898
L3.8287 19.7502
" />
<path d="M3.8287 19.7502
L3.8892 19.8712
" />
<path d="M3.8892 19.8712
L3.8892 19.9921
" />
<path d="M3.8892 19.9921
L3.2845 20.1131
" />
<path d="M4.3126 19.6898
L4.6150 20.5364
" />
<path d="M4.6150 20.5364
L4.9173 19.6898
" />
<path d="M5.8849 20.4760
L5.7640 20.5364
" />
<path d="M5.7640 20.5364
L5.5221 20.5364
" />
<path d="M5.5221 20.5364
L5.4011 20.4760
" />
<path d="M5.4011 20.4760
L5.3407 20.3550
" />
<path d="M5.3407 20.3550
L5.3407 19.8712
" />
<path d="M5.3407 19.8712
L5.4011 19.7502
" />
<path d="M5.4011 19.7502
L5.5221 19.6898
" />
<path d="M5.5221 19.6898
L5.7640 19.6898
" />
<path d="M5.7640 19.6898
L5.8849 19.7502
" />
<path d="M5.8849 19.7502
L5.9454 19.8712
" />
<path d="M5.9454 19.8712
L5.9454 19.9921
" />
<path d="M5.9454 19.9921
L5.3407 20.1131
" />
<path d="M6.6712 20.5364
L6.5502 20.4760
" />
<path d="M6.5502 20.4760
L6.4897 20.3550
" />
<path d="M6.4897 20.3550
L6.4897 19.2664
" />
<path d="M6.8526 20.6574
L7.8202 20.6574
" />
<path d="M8.1225 20.5364
L8.1225 19.2664
" />
<path d="M8.7273 19.6898
L8.7273 20.5364
" />
<path d="M8.7273 19.8107
L8.7878 19.7502
" />
<path d="M8.7878 19.7502
L8.9088 19.6898
" />
<path d="M8.9088 19.6898
L9.0902 19.6898
" />
<path d="M9.0902 19.6898
L9.2111 19.7502
" />
<path d="M9.2111 19.7502
L9.2716 19.8712
" />
<path d="M9.2716 19.8712
L9.2716 20.5364
" />
<path d="M10.4206 20.5364
L10.4206 19.2664
" />
<path d="M10.4206 20.4760
L10.2997 20.5364
" />
<path d="M10.2997 20.5364
L10.0578 20.5364
" />
<path d="M10.0578 20.5364
L9.9368 20.4760
" />
<path d="M9.9368 20.4760
L9.8763 20.4155
" />
<path d="M9.8763 20.4155
L9.8159 20.2945
" />
<path d="M9.8159 20.2945
L9.8159 19.9317
" />
<path d="M9.8159 19.9317
L9.8763 19.8107
" />
<path d="M9.8763 19.8107
L9.9368 19.7502
" />
<path d="M9.9368 19.7502
L10.0578 19.6898
" />
<path d="M10.0578 19.6898
L10.2997 19.6898
" />
<path d="M10.2997 19.6898
L10.4206 19.7502
" />
<path d="M11.0253 20.5364
L11.0253 19.6898
" />
<path d="M11.0253 19.2664
L10.9649 19.3269
" />
<path d="M10.9649 19.3269
L11.0253 19.3874
" />
<path d="M11.0253 19.3874
L11.0858 19.3269
" />
<path d="M11.0858 19.3269
L11.0253 19.2664
" />
<path d="M11.0253 19.2664
L11.0253 19.3874
" />
<path d="M12.1744 20.4760
L12.0535 20.5364
" />
<path d="M12.0535 20.5364
L11.8116 20.5364
" />
<path d="M11.8116 20.5364
L11.6906 20.4760
" />
<path d="M11.6906 20.4760
L11.6301 20.4155
" />
<path d="M11.6301 20.4155
L11.5697 20.2945
" />
<path d="M11.5697 20.2945
L11.5697 19.9317
" />
<path d="M11.5697 19.9317
L11.6301 19.8107
" />
<path d="M11.6301 19.8107
L11.6906 19.7502
" />
<path d="M11.6906 19.7502
L11.8116 19.6898
" />
<path d="M11.8116 19.6898
L12.0535 19.6898
" />
<path d="M12.0535 19.6898
L12.1744 19.7502
" />
<path d="M13.2630 20.5364
L13.2630 19.8712
" />
<path d="M13.2630 19.8712
L13.2025 19.7502
" />
<path d="M13.2025 19.7502
L13.0816 19.6898
" />
<path d="M13.0816 19.6898
L12.8397 19.6898
" />
<path d="M12.8397 19.6898
L12.7187 19.7502
" />
<path d="M13.2630 20.4760
L13.1421 20.5364
" />
<path d="M13.1421 20.5364
L12.8397 20.5364
" />
<path d="M12.8397 20.5364
L12.7187 20.4760
" />
<path d="M12.7187 20.4760
L12.6583 20.3550
" />
<path d="M12.6583 20.3550
L12.6583 20.2340
" />
<path d="M12.6583 20.2340
L12.7187 20.1131
" />
<path d="M12.7187 20.1131
L12.8397 20.0526
" />
<path d="M12.8397 20.0526
L13.1421 20.0526
" />
<path d="M13.1421 20.0526
L13.2630 19.9921
" />
<path d="M13.6863 19.6898
L14.1701 19.6898
" />
<path d="M13.8677 19.2664
L13.8677 20.3550
" />
<path d="M13.8677 20.3550
L13.9282 20.4760
" />
<path d="M13.9282 20.4760
L14.0492 20.5364
" />
<path d="M14.0492 20.5364
L14.1701 20.5364
" />
<path d="M14.7749 20.5364
L14.6539 20.4760
" />
<path d="M14.6539 20.4760
L14.5934 20.4155
" />
<path d="M14.5934 20.4155
L14.5330 20.2945
" />
<path d="M14.5330 20.2945
L14.5330 19.9317
" />
<path d="M14.5330 19.9317
L14.5934 19.8107
" />
<path d="M14.5934 19.8107
L14.6539 19.7502
" />
<path d="M14.6539 19.7502
L14.7749 19.6898
" />
<path d="M14.7749 19.6898
L14.9563 19.6898
" />
<path d="M14.9563 19.6898
L15.0772 19.7502
" />
<path d="M15.0772 19.7502
L15.1377 19.8107
" />
<path d="M15.1377 19.8107
L15.1982 19.9317
" />
<path d="M15.1982 19.9317
L15.1982 20.2945
" />
<path d="M15.1982 20.2945
L15.1377 20.4155
" />
<path d="M15.1377 20.4155
L15.0772 20.4760
" />
<path d="M15.0772 20.4760
L14.9563 20.5364
" />
<path d="M14.9563 20.5364
L14.7749 20.5364
" />
<path d="M15.7424 20.5364
L15.7424 19.6898
" />
<path d="M15.7424 19.9317
L15.8029 19.8107
" />
<path d="M15.8029 19.8107
L15.8634 19.7502
" />
<path d="M15.8634 19.7502
L15.9843 19.6898
" />
<path d="M15.9843 19.6898
L16.1053 19.6898
" />
<path d="M16.7101 20.4155
L16.7705 20.4760
" />
<path d="M16.7705 20.4760
L16.7101 20.5364
" />
<path d="M16.7101 20.5364
L16.6496 20.4760
" />
<path d="M16.6496 20.4760
L16.7101 20.4155
" />
<path d="M16.7101 20.4155
L16.7101 20.5364
" />
<path d="M16.4682 19.3269
L16.5891 19.2664
" />
<path d="M16.5891 19.2664
L16.8915 19.2664
" />
<path d="M16.8915 19.2664
L17.0124 19.3269
" />
<path d="M17.0124 19.3269
L17.0729 19.4479
" />
<path d="M17.0729 19.4479
L17.0729 19.5688
" />
<path d="M17.0729 19.5688
L17.0124 19.6898
" />
<path d="M17.0124 19.6898
L16.9520 19.7502
" />
<path d="M16.9520 19.7502
L16.8310 19.8107
" />
<path d="M16.8310 19.8107
L16.7705 19.8712
" />
<path d="M16.7705 19.8712
L16.7101 19.9921
" />
<path d="M16.7101 19.9921
L16.7101 20.0526
" />
</g></g>
</svg>
