<?xml version="1.0" standalone="no"?>
 <!DOCTYPE svg PUBLIC "-//W3C//DTD SVG 1.1//EN"
 "http://www.w3.org/Graphics/SVG/1.1/DTD/svg11.dtd">
<svg
  xmlns:svg="http://www.w3.org/2000/svg"
  xmlns="http://www.w3.org/2000/svg"
  xmlns:xlink="http://www.w3.org/1999/xlink"
  xmlns:inkscape="http://www.inkscape.org/namespaces/inkscape"
  version="1.1"
  width="20.0914mm" height="22.8854mm" viewBox="0.0000 0.0000 20.0914 22.8854">
<title>SVG Image created as Level Transmitter_unit1.svg date 2026-05-31T11:36:35 </title>
  <desc>Image generated by Eeschema-SVG </desc>
<g style="fill:#000000; fill-opacity:1.0000;stroke:#000000; stroke-opacity:1.0000;
stroke-linecap:round; stroke-linejoin:round;"
 transform="translate(0 0) scale(1 1)">
</g>
<g style="fill:none;
stroke:#840000; stroke-width:0.1000; stroke-opacity:1;
stroke-linecap:round; stroke-linejoin:round;">
<circle cx="10.0457" cy="9.9569" r="2.5000" />
<path style="fill:none;
stroke:#840000; stroke-width:0.1000; stroke-opacity:1;
stroke-linecap:round; stroke-linejoin:round;fill:none"
d="M 10.0457,12.4569
10.0457,14.9569
" />
</g>
<g style="fill:none;
stroke:#840000; stroke-width:0.1524; stroke-opacity:1;
stroke-linecap:round; stroke-linejoin:round;">
<text x="10.0457" y="10.7069"
textLength="2.5144" font-size="2.0000" lengthAdjust="spacingAndGlyphs"
text-anchor="middle" opacity="0" stroke-opacity="0">LT</text>
<g class="stroked-text"><desc>LT</desc>
<path d="M9.9385 10.6428
L9.2242 10.6428
" />
<path d="M9.2242 10.6428
L9.2242 9.1428
" />
<path d="M10.2242 9.1428
L11.0814 9.1428
" />
<path d="M10.6528 10.6428
L10.6528 9.1428
" />
</g><path d="M10.0457 11.9569
L10.0457 14.9569
" />
</g>
<g style="fill:none;
stroke:#006464; stroke-width:0.1524; stroke-opacity:1;
stroke-linecap:round; stroke-linejoin:round;">
<text x="10.0457" y="20.5919"
textLength="17.8017" font-size="1.6933" lengthAdjust="spacingAndGlyphs"
text-anchor="middle" opacity="0" stroke-opacity="0">Level_Transmitter?</text>
<g class="stroked-text"><desc>Level_Transmitter?</desc>
<path d="M2.1536 20.5364
L1.5488 20.5364
" />
<path d="M1.5488 20.5364
L1.5488 19.2664
" />
<path d="M3.0607 20.4760
L2.9398 20.5364
" />
<path d="M2.9398 20.5364
L2.6979 20.5364
" />
<path d="M2.6979 20.5364
L2.5769 20.4760
" />
<path d="M2.5769 20.4760
L2.5165 20.3550
" />
<path d="M2.5165 20.3550
L2.5165 19.8712
" />
<path d="M2.5165 19.8712
L2.5769 19.7502
" />
<path d="M2.5769 19.7502
L2.6979 19.6898
" />
<path d="M2.6979 19.6898
L2.9398 19.6898
" />
<path d="M2.9398 19.6898
L3.0607 19.7502
" />
<path d="M3.0607 19.7502
L3.1212 19.8712
" />
<path d="M3.1212 19.8712
L3.1212 19.9921
" />
<path d="M3.1212 19.9921
L2.5165 20.1131
" />
<path d="M3.5446 19.6898
L3.8470 20.5364
" />
<path d="M3.8470 20.5364
L4.1493 19.6898
" />
<path d="M5.1169 20.4760
L4.9960 20.5364
" />
<path d="M4.9960 20.5364
L4.7541 20.5364
" />
<path d="M4.7541 20.5364
L4.6331 20.4760
" />
<path d="M4.6331 20.4760
L4.5727 20.3550
" />
<path d="M4.5727 20.3550
L4.5727 19.8712
" />
<path d="M4.5727 19.8712
L4.6331 19.7502
" />
<path d="M4.6331 19.7502
L4.7541 19.6898
" />
<path d="M4.7541 19.6898
L4.9960 19.6898
" />
<path d="M4.9960 19.6898
L5.1169 19.7502
" />
<path d="M5.1169 19.7502
L5.1774 19.8712
" />
<path d="M5.1774 19.8712
L5.1774 19.9921
" />
<path d="M5.1774 19.9921
L4.5727 20.1131
" />
<path d="M5.9032 20.5364
L5.7822 20.4760
" />
<path d="M5.7822 20.4760
L5.7217 20.3550
" />
<path d="M5.7217 20.3550
L5.7217 19.2664
" />
<path d="M6.0846 20.6574
L7.0522 20.6574
" />
<path d="M7.1731 19.2664
L7.8988 19.2664
" />
<path d="M7.5360 20.5364
L7.5360 19.2664
" />
<path d="M8.3221 20.5364
L8.3221 19.6898
" />
<path d="M8.3221 19.9317
L8.3826 19.8107
" />
<path d="M8.3826 19.8107
L8.4431 19.7502
" />
<path d="M8.4431 19.7502
L8.5640 19.6898
" />
<path d="M8.5640 19.6898
L8.6850 19.6898
" />
<path d="M9.6526 20.5364
L9.6526 19.8712
" />
<path d="M9.6526 19.8712
L9.5921 19.7502
" />
<path d="M9.5921 19.7502
L9.4712 19.6898
" />
<path d="M9.4712 19.6898
L9.2293 19.6898
" />
<path d="M9.2293 19.6898
L9.1083 19.7502
" />
<path d="M9.6526 20.4760
L9.5317 20.5364
" />
<path d="M9.5317 20.5364
L9.2293 20.5364
" />
<path d="M9.2293 20.5364
L9.1083 20.4760
" />
<path d="M9.1083 20.4760
L9.0479 20.3550
" />
<path d="M9.0479 20.3550
L9.0479 20.2340
" />
<path d="M9.0479 20.2340
L9.1083 20.1131
" />
<path d="M9.1083 20.1131
L9.2293 20.0526
" />
<path d="M9.2293 20.0526
L9.5317 20.0526
" />
<path d="M9.5317 20.0526
L9.6526 19.9921
" />
<path d="M10.2573 19.6898
L10.2573 20.5364
" />
<path d="M10.2573 19.8107
L10.3178 19.7502
" />
<path d="M10.3178 19.7502
L10.4388 19.6898
" />
<path d="M10.4388 19.6898
L10.6202 19.6898
" />
<path d="M10.6202 19.6898
L10.7411 19.7502
" />
<path d="M10.7411 19.7502
L10.8016 19.8712
" />
<path d="M10.8016 19.8712
L10.8016 20.5364
" />
<path d="M11.3459 20.4760
L11.4668 20.5364
" />
<path d="M11.4668 20.5364
L11.7087 20.5364
" />
<path d="M11.7087 20.5364
L11.8297 20.4760
" />
<path d="M11.8297 20.4760
L11.8901 20.3550
" />
<path d="M11.8901 20.3550
L11.8901 20.2945
" />
<path d="M11.8901 20.2945
L11.8297 20.1736
" />
<path d="M11.8297 20.1736
L11.7087 20.1131
" />
<path d="M11.7087 20.1131
L11.5273 20.1131
" />
<path d="M11.5273 20.1131
L11.4063 20.0526
" />
<path d="M11.4063 20.0526
L11.3459 19.9317
" />
<path d="M11.3459 19.9317
L11.3459 19.8712
" />
<path d="M11.3459 19.8712
L11.4063 19.7502
" />
<path d="M11.4063 19.7502
L11.5273 19.6898
" />
<path d="M11.5273 19.6898
L11.7087 19.6898
" />
<path d="M11.7087 19.6898
L11.8297 19.7502
" />
<path d="M12.4344 20.5364
L12.4344 19.6898
" />
<path d="M12.4344 19.8107
L12.4949 19.7502
" />
<path d="M12.4949 19.7502
L12.6159 19.6898
" />
<path d="M12.6159 19.6898
L12.7973 19.6898
" />
<path d="M12.7973 19.6898
L12.9182 19.7502
" />
<path d="M12.9182 19.7502
L12.9787 19.8712
" />
<path d="M12.9787 19.8712
L12.9787 20.5364
" />
<path d="M12.9787 19.8712
L13.0392 19.7502
" />
<path d="M13.0392 19.7502
L13.1601 19.6898
" />
<path d="M13.1601 19.6898
L13.3416 19.6898
" />
<path d="M13.3416 19.6898
L13.4625 19.7502
" />
<path d="M13.4625 19.7502
L13.5230 19.8712
" />
<path d="M13.5230 19.8712
L13.5230 20.5364
" />
<path d="M14.1277 20.5364
L14.1277 19.6898
" />
<path d="M14.1277 19.2664
L14.0673 19.3269
" />
<path d="M14.0673 19.3269
L14.1277 19.3874
" />
<path d="M14.1277 19.3874
L14.1882 19.3269
" />
<path d="M14.1882 19.3269
L14.1277 19.2664
" />
<path d="M14.1277 19.2664
L14.1277 19.3874
" />
<path d="M14.5511 19.6898
L15.0349 19.6898
" />
<path d="M14.7325 19.2664
L14.7325 20.3550
" />
<path d="M14.7325 20.3550
L14.7930 20.4760
" />
<path d="M14.7930 20.4760
L14.9140 20.5364
" />
<path d="M14.9140 20.5364
L15.0349 20.5364
" />
<path d="M15.2768 19.6898
L15.7606 19.6898
" />
<path d="M15.4582 19.2664
L15.4582 20.3550
" />
<path d="M15.4582 20.3550
L15.5187 20.4760
" />
<path d="M15.5187 20.4760
L15.6397 20.5364
" />
<path d="M15.6397 20.5364
L15.7606 20.5364
" />
<path d="M16.6677 20.4760
L16.5468 20.5364
" />
<path d="M16.5468 20.5364
L16.3049 20.5364
" />
<path d="M16.3049 20.5364
L16.1839 20.4760
" />
<path d="M16.1839 20.4760
L16.1235 20.3550
" />
<path d="M16.1235 20.3550
L16.1235 19.8712
" />
<path d="M16.1235 19.8712
L16.1839 19.7502
" />
<path d="M16.1839 19.7502
L16.3049 19.6898
" />
<path d="M16.3049 19.6898
L16.5468 19.6898
" />
<path d="M16.5468 19.6898
L16.6677 19.7502
" />
<path d="M16.6677 19.7502
L16.7282 19.8712
" />
<path d="M16.7282 19.8712
L16.7282 19.9921
" />
<path d="M16.7282 19.9921
L16.1235 20.1131
" />
<path d="M17.2725 20.5364
L17.2725 19.6898
" />
<path d="M17.2725 19.9317
L17.3330 19.8107
" />
<path d="M17.3330 19.8107
L17.3935 19.7502
" />
<path d="M17.3935 19.7502
L17.5144 19.6898
" />
<path d="M17.5144 19.6898
L17.6354 19.6898
" />
<path d="M18.2402 20.4155
L18.3006 20.4760
" />
<path d="M18.3006 20.4760
L18.2402 20.5364
" />
<path d="M18.2402 20.5364
L18.1797 20.4760
" />
<path d="M18.1797 20.4760
L18.2402 20.4155
" />
<path d="M18.2402 20.4155
L18.2402 20.5364
" />
<path d="M17.9983 19.3269
L18.1192 19.2664
" />
<path d="M18.1192 19.2664
L18.4216 19.2664
" />
<path d="M18.4216 19.2664
L18.5425 19.3269
" />
<path d="M18.5425 19.3269
L18.6030 19.4479
" />
<path d="M18.6030 19.4479
L18.6030 19.5688
" />
<path d="M18.6030 19.5688
L18.5425 19.6898
" />
<path d="M18.5425 19.6898
L18.4821 19.7502
" />
<path d="M18.4821 19.7502
L18.3611 19.8107
" />
<path d="M18.3611 19.8107
L18.3006 19.8712
" />
<path d="M18.3006 19.8712
L18.2402 19.9921
" />
<path d="M18.2402 19.9921
L18.2402 20.0526
" />
</g></g>
</svg>
