<?xml version="1.0" standalone="no"?>
 <!DOCTYPE svg PUBLIC "-//W3C//DTD SVG 1.1//EN" 
 "http://www.w3.org/Graphics/SVG/1.1/DTD/svg11.dtd"> 
<svg
  xmlns:svg="http://www.w3.org/2000/svg"
  xmlns="http://www.w3.org/2000/svg"
  xmlns:xlink="http://www.w3.org/1999/xlink"
  xmlns:inkscape="http://www.inkscape.org/namespaces/inkscape"
  version="1.1"
  width="21.3868mm" height="22.8854mm" viewBox="0.0000 0.0000 21.3868 22.8854">
<title>SVG Image created as Pressure Indicator_unit1.svg date 2026-05-31T11:36:35 </title>
  <desc>Image generated by Eeschema-SVG </desc>
<g style="fill:#000000; fill-opacity:1.0000;stroke:#000000; stroke-opacity:1.0000;
stroke-linecap:round; stroke-linejoin:round;"
 transform="translate(0 0) scale(1 1)">
</g>
<g style="fill:none; 
stroke:#840000; stroke-width:0.1524; stroke-opacity:1; 
stroke-linecap:round; stroke-linejoin:round;">
<circle cx="10.6934" cy="9.9569" r="2.0000" /> 
<text x="10.6934" y="10.5919"
textLength="2.0780" font-size="1.6933" lengthAdjust="spacingAndGlyphs"
text-anchor="middle" opacity="0" stroke-opacity="0">PI</text>
<g class="stroked-text"><desc>PI</desc>
<path d="M10.0583 10.5364
L10.0583 9.2664
" />
<path d="M10.0583 9.2664
L10.5421 9.2664
" />
<path d="M10.5421 9.2664
L10.6631 9.3269
" />
<path d="M10.6631 9.3269
L10.7236 9.3874
" />
<path d="M10.7236 9.3874
L10.7840 9.5083
" />
<path d="M10.7840 9.5083
L10.7840 9.6898
" />
<path d="M10.7840 9.6898
L10.7236 9.8107
" />
<path d="M10.7236 9.8107
L10.6631 9.8712
" />
<path d="M10.6631 9.8712
L10.5421 9.9317
" />
<path d="M10.5421 9.9317
L10.0583 9.9317
" />
<path d="M11.3283 10.5364
L11.3283 9.2664
" />
</g><path d="M10.6934 11.9569
L10.6934 14.9569
" />
</g>
<g style="fill:none; 
stroke:#006464; stroke-width:0.1524; stroke-opacity:1; 
stroke-linecap:round; stroke-linejoin:round;">
<text x="10.6934" y="20.5919"
textLength="18.8903" font-size="1.6933" lengthAdjust="spacingAndGlyphs"
text-anchor="middle" opacity="0" stroke-opacity="0">Pressure_Indicator?</text>
<g class="stroked-text"><desc>Pressure_Indicator?</desc>
<path d="M1.6522 20.5364
L1.6522 19.2664
" />
<path d="M1.6522 19.2664
L2.1360 19.2664
" />
<path d="M2.1360 19.2664
L2.2570 19.3269
" />
<path d="M2.2570 19.3269
L2.3175 19.3874
" />
<path d="M2.3175 19.3874
L2.3779 19.5083
" />
<path d="M2.3779 19.5083
L2.3779 19.6898
" />
<path d="M2.3779 19.6898
L2.3175 19.8107
" />
<path d="M2.3175 19.8107
L2.2570 19.8712
" />
<path d="M2.2570 19.8712
L2.1360 19.9317
" />
<path d="M2.1360 19.9317
L1.6522 19.9317
" />
<path d="M2.9222 20.5364
L2.9222 19.6898
" />
<path d="M2.9222 19.9317
L2.9827 19.8107
" />
<path d="M2.9827 19.8107
L3.0432 19.7502
" />
<path d="M3.0432 19.7502
L3.1641 19.6898
" />
<path d="M3.1641 19.6898
L3.2851 19.6898
" />
<path d="M4.1922 20.4760
L4.0713 20.5364
" />
<path d="M4.0713 20.5364
L3.8294 20.5364
" />
<path d="M3.8294 20.5364
L3.7084 20.4760
" />
<path d="M3.7084 20.4760
L3.6480 20.3550
" />
<path d="M3.6480 20.3550
L3.6480 19.8712
" />
<path d="M3.6480 19.8712
L3.7084 19.7502
" />
<path d="M3.7084 19.7502
L3.8294 19.6898
" />
<path d="M3.8294 19.6898
L4.0713 19.6898
" />
<path d="M4.0713 19.6898
L4.1922 19.7502
" />
<path d="M4.1922 19.7502
L4.2527 19.8712
" />
<path d="M4.2527 19.8712
L4.2527 19.9921
" />
<path d="M4.2527 19.9921
L3.6480 20.1131
" />
<path d="M4.7366 20.4760
L4.8575 20.5364
" />
<path d="M4.8575 20.5364
L5.0994 20.5364
" />
<path d="M5.0994 20.5364
L5.2204 20.4760
" />
<path d="M5.2204 20.4760
L5.2808 20.3550
" />
<path d="M5.2808 20.3550
L5.2808 20.2945
" />
<path d="M5.2808 20.2945
L5.2204 20.1736
" />
<path d="M5.2204 20.1736
L5.0994 20.1131
" />
<path d="M5.0994 20.1131
L4.9180 20.1131
" />
<path d="M4.9180 20.1131
L4.7970 20.0526
" />
<path d="M4.7970 20.0526
L4.7366 19.9317
" />
<path d="M4.7366 19.9317
L4.7366 19.8712
" />
<path d="M4.7366 19.8712
L4.7970 19.7502
" />
<path d="M4.7970 19.7502
L4.9180 19.6898
" />
<path d="M4.9180 19.6898
L5.0994 19.6898
" />
<path d="M5.0994 19.6898
L5.2204 19.7502
" />
<path d="M5.7647 20.4760
L5.8856 20.5364
" />
<path d="M5.8856 20.5364
L6.1275 20.5364
" />
<path d="M6.1275 20.5364
L6.2485 20.4760
" />
<path d="M6.2485 20.4760
L6.3089 20.3550
" />
<path d="M6.3089 20.3550
L6.3089 20.2945
" />
<path d="M6.3089 20.2945
L6.2485 20.1736
" />
<path d="M6.2485 20.1736
L6.1275 20.1131
" />
<path d="M6.1275 20.1131
L5.9461 20.1131
" />
<path d="M5.9461 20.1131
L5.8251 20.0526
" />
<path d="M5.8251 20.0526
L5.7647 19.9317
" />
<path d="M5.7647 19.9317
L5.7647 19.8712
" />
<path d="M5.7647 19.8712
L5.8251 19.7502
" />
<path d="M5.8251 19.7502
L5.9461 19.6898
" />
<path d="M5.9461 19.6898
L6.1275 19.6898
" />
<path d="M6.1275 19.6898
L6.2485 19.7502
" />
<path d="M7.3975 19.6898
L7.3975 20.5364
" />
<path d="M6.8532 19.6898
L6.8532 20.3550
" />
<path d="M6.8532 20.3550
L6.9137 20.4760
" />
<path d="M6.9137 20.4760
L7.0347 20.5364
" />
<path d="M7.0347 20.5364
L7.2161 20.5364
" />
<path d="M7.2161 20.5364
L7.3370 20.4760
" />
<path d="M7.3370 20.4760
L7.3975 20.4155
" />
<path d="M8.0022 20.5364
L8.0022 19.6898
" />
<path d="M8.0022 19.9317
L8.0627 19.8107
" />
<path d="M8.0627 19.8107
L8.1232 19.7502
" />
<path d="M8.1232 19.7502
L8.2441 19.6898
" />
<path d="M8.2441 19.6898
L8.3651 19.6898
" />
<path d="M9.2722 20.4760
L9.1513 20.5364
" />
<path d="M9.1513 20.5364
L8.9094 20.5364
" />
<path d="M8.9094 20.5364
L8.7884 20.4760
" />
<path d="M8.7884 20.4760
L8.7280 20.3550
" />
<path d="M8.7280 20.3550
L8.7280 19.8712
" />
<path d="M8.7280 19.8712
L8.7884 19.7502
" />
<path d="M8.7884 19.7502
L8.9094 19.6898
" />
<path d="M8.9094 19.6898
L9.1513 19.6898
" />
<path d="M9.1513 19.6898
L9.2722 19.7502
" />
<path d="M9.2722 19.7502
L9.3327 19.8712
" />
<path d="M9.3327 19.8712
L9.3327 19.9921
" />
<path d="M9.3327 19.9921
L8.7280 20.1131
" />
<path d="M9.5747 20.6574
L10.5423 20.6574
" />
<path d="M10.8446 20.5364
L10.8446 19.2664
" />
<path d="M11.4494 19.6898
L11.4494 20.5364
" />
<path d="M11.4494 19.8107
L11.5099 19.7502
" />
<path d="M11.5099 19.7502
L11.6309 19.6898
" />
<path d="M11.6309 19.6898
L11.8123 19.6898
" />
<path d="M11.8123 19.6898
L11.9332 19.7502
" />
<path d="M11.9332 19.7502
L11.9937 19.8712
" />
<path d="M11.9937 19.8712
L11.9937 20.5364
" />
<path d="M13.1427 20.5364
L13.1427 19.2664
" />
<path d="M13.1427 20.4760
L13.0218 20.5364
" />
<path d="M13.0218 20.5364
L12.7799 20.5364
" />
<path d="M12.7799 20.5364
L12.6589 20.4760
" />
<path d="M12.6589 20.4760
L12.5984 20.4155
" />
<path d="M12.5984 20.4155
L12.5380 20.2945
" />
<path d="M12.5380 20.2945
L12.5380 19.9317
" />
<path d="M12.5380 19.9317
L12.5984 19.8107
" />
<path d="M12.5984 19.8107
L12.6589 19.7502
" />
<path d="M12.6589 19.7502
L12.7799 19.6898
" />
<path d="M12.7799 19.6898
L13.0218 19.6898
" />
<path d="M13.0218 19.6898
L13.1427 19.7502
" />
<path d="M13.7474 20.5364
L13.7474 19.6898
" />
<path d="M13.7474 19.2664
L13.6870 19.3269
" />
<path d="M13.6870 19.3269
L13.7474 19.3874
" />
<path d="M13.7474 19.3874
L13.8079 19.3269
" />
<path d="M13.8079 19.3269
L13.7474 19.2664
" />
<path d="M13.7474 19.2664
L13.7474 19.3874
" />
<path d="M14.8965 20.4760
L14.7756 20.5364
" />
<path d="M14.7756 20.5364
L14.5337 20.5364
" />
<path d="M14.5337 20.5364
L14.4127 20.4760
" />
<path d="M14.4127 20.4760
L14.3522 20.4155
" />
<path d="M14.3522 20.4155
L14.2918 20.2945
" />
<path d="M14.2918 20.2945
L14.2918 19.9317
" />
<path d="M14.2918 19.9317
L14.3522 19.8107
" />
<path d="M14.3522 19.8107
L14.4127 19.7502
" />
<path d="M14.4127 19.7502
L14.5337 19.6898
" />
<path d="M14.5337 19.6898
L14.7756 19.6898
" />
<path d="M14.7756 19.6898
L14.8965 19.7502
" />
<path d="M15.9851 20.5364
L15.9851 19.8712
" />
<path d="M15.9851 19.8712
L15.9246 19.7502
" />
<path d="M15.9246 19.7502
L15.8037 19.6898
" />
<path d="M15.8037 19.6898
L15.5618 19.6898
" />
<path d="M15.5618 19.6898
L15.4408 19.7502
" />
<path d="M15.9851 20.4760
L15.8642 20.5364
" />
<path d="M15.8642 20.5364
L15.5618 20.5364
" />
<path d="M15.5618 20.5364
L15.4408 20.4760
" />
<path d="M15.4408 20.4760
L15.3804 20.3550
" />
<path d="M15.3804 20.3550
L15.3804 20.2340
" />
<path d="M15.3804 20.2340
L15.4408 20.1131
" />
<path d="M15.4408 20.1131
L15.5618 20.0526
" />
<path d="M15.5618 20.0526
L15.8642 20.0526
" />
<path d="M15.8642 20.0526
L15.9851 19.9921
" />
<path d="M16.4084 19.6898
L16.8922 19.6898
" />
<path d="M16.5898 19.2664
L16.5898 20.3550
" />
<path d="M16.5898 20.3550
L16.6503 20.4760
" />
<path d="M16.6503 20.4760
L16.7713 20.5364
" />
<path d="M16.7713 20.5364
L16.8922 20.5364
" />
<path d="M17.4970 20.5364
L17.3760 20.4760
" />
<path d="M17.3760 20.4760
L17.3155 20.4155
" />
<path d="M17.3155 20.4155
L17.2551 20.2945
" />
<path d="M17.2551 20.2945
L17.2551 19.9317
" />
<path d="M17.2551 19.9317
L17.3155 19.8107
" />
<path d="M17.3155 19.8107
L17.3760 19.7502
" />
<path d="M17.3760 19.7502
L17.4970 19.6898
" />
<path d="M17.4970 19.6898
L17.6784 19.6898
" />
<path d="M17.6784 19.6898
L17.7993 19.7502
" />
<path d="M17.7993 19.7502
L17.8598 19.8107
" />
<path d="M17.8598 19.8107
L17.9203 19.9317
" />
<path d="M17.9203 19.9317
L17.9203 20.2945
" />
<path d="M17.9203 20.2945
L17.8598 20.4155
" />
<path d="M17.8598 20.4155
L17.7993 20.4760
" />
<path d="M17.7993 20.4760
L17.6784 20.5364
" />
<path d="M17.6784 20.5364
L17.4970 20.5364
" />
<path d="M18.4645 20.5364
L18.4645 19.6898
" />
<path d="M18.4645 19.9317
L18.5250 19.8107
" />
<path d="M18.5250 19.8107
L18.5855 19.7502
" />
<path d="M18.5855 19.7502
L18.7064 19.6898
" />
<path d="M18.7064 19.6898
L18.8274 19.6898
" />
<path d="M19.4322 20.4155
L19.4926 20.4760
" />
<path d="M19.4926 20.4760
L19.4322 20.5364
" />
<path d="M19.4322 20.5364
L19.3717 20.4760
" />
<path d="M19.3717 20.4760
L19.4322 20.4155
" />
<path d="M19.4322 20.4155
L19.4322 20.5364
" />
<path d="M19.1903 19.3269
L19.3112 19.2664
" />
<path d="M19.3112 19.2664
L19.6136 19.2664
" />
<path d="M19.6136 19.2664
L19.7345 19.3269
" />
<path d="M19.7345 19.3269
L19.7950 19.4479
" />
<path d="M19.7950 19.4479
L19.7950 19.5688
" />
<path d="M19.7950 19.5688
L19.7345 19.6898
" />
<path d="M19.7345 19.6898
L19.6741 19.7502
" />
<path d="M19.6741 19.7502
L19.5531 19.8107
" />
<path d="M19.5531 19.8107
L19.4926 19.8712
" />
<path d="M19.4926 19.8712
L19.4322 19.9921
" />
<path d="M19.4322 19.9921
L19.4322 20.0526
" />
</g></g> 
</svg>
