<?xml version="1.0" standalone="no"?>
 <!DOCTYPE svg PUBLIC "-//W3C//DTD SVG 1.1//EN" 
 "http://www.w3.org/Graphics/SVG/1.1/DTD/svg11.dtd"> 
<svg
  xmlns:svg="http://www.w3.org/2000/svg"
  xmlns="http://www.w3.org/2000/svg"
  xmlns:xlink="http://www.w3.org/1999/xlink"
  xmlns:inkscape="http://www.inkscape.org/namespaces/inkscape"
  version="1.1"
  width="19.3294mm" height="22.8854mm" viewBox="0.0000 0.0000 19.3294 22.8854">
<title>SVG Image created as Pressure Switch_unit1.svg date 2026-05-31T11:36:34 </title>
  <desc>Image generated by Eeschema-SVG </desc>
<g style="fill:#000000; fill-opacity:1.0000;stroke:#000000; stroke-opacity:1.0000;
stroke-linecap:round; stroke-linejoin:round;"
 transform="translate(0 0) scale(1 1)">
</g>
<g style="fill:none; 
stroke:#840000; stroke-width:0.1000; stroke-opacity:1; 
stroke-linecap:round; stroke-linejoin:round;">
<circle cx="9.6647" cy="9.9569" r="2.5000" /> 
<path style="fill:none; 
stroke:#840000; stroke-width:0.1000; stroke-opacity:1; 
stroke-linecap:round; stroke-linejoin:round;fill:none"
d="M 9.6647,12.4569
9.6647,14.9569
" /> 
</g>
<g style="fill:none; 
stroke:#840000; stroke-width:0.1524; stroke-opacity:1; 
stroke-linecap:round; stroke-linejoin:round;">
<text x="9.6647" y="10.7069"
textLength="3.0858" font-size="2.0000" lengthAdjust="spacingAndGlyphs"
text-anchor="middle" opacity="0" stroke-opacity="0">PS</text>
<g class="stroked-text"><desc>PS</desc>
<path d="M8.5575 10.6428
L8.5575 9.1428
" />
<path d="M8.5575 9.1428
L9.1289 9.1428
" />
<path d="M9.1289 9.1428
L9.2718 9.2142
" />
<path d="M9.2718 9.2142
L9.3432 9.2856
" />
<path d="M9.3432 9.2856
L9.4146 9.4285
" />
<path d="M9.4146 9.4285
L9.4146 9.6428
" />
<path d="M9.4146 9.6428
L9.3432 9.7856
" />
<path d="M9.3432 9.7856
L9.2718 9.8571
" />
<path d="M9.2718 9.8571
L9.1289 9.9285
" />
<path d="M9.1289 9.9285
L8.5575 9.9285
" />
<path d="M9.9861 10.5714
L10.2004 10.6428
" />
<path d="M10.2004 10.6428
L10.5575 10.6428
" />
<path d="M10.5575 10.6428
L10.7004 10.5714
" />
<path d="M10.7004 10.5714
L10.7718 10.4999
" />
<path d="M10.7718 10.4999
L10.8432 10.3571
" />
<path d="M10.8432 10.3571
L10.8432 10.2142
" />
<path d="M10.8432 10.2142
L10.7718 10.0714
" />
<path d="M10.7718 10.0714
L10.7004 9.9999
" />
<path d="M10.7004 9.9999
L10.5575 9.9285
" />
<path d="M10.5575 9.9285
L10.2718 9.8571
" />
<path d="M10.2718 9.8571
L10.1289 9.7856
" />
<path d="M10.1289 9.7856
L10.0575 9.7142
" />
<path d="M10.0575 9.7142
L9.9861 9.5714
" />
<path d="M9.9861 9.5714
L9.9861 9.4285
" />
<path d="M9.9861 9.4285
L10.0575 9.2856
" />
<path d="M10.0575 9.2856
L10.1289 9.2142
" />
<path d="M10.1289 9.2142
L10.2718 9.1428
" />
<path d="M10.2718 9.1428
L10.6289 9.1428
" />
<path d="M10.6289 9.1428
L10.8432 9.2142
" />
</g><path d="M9.6647 11.9569
L9.6647 14.9569
" />
</g>
<g style="fill:none; 
stroke:#006464; stroke-width:0.1524; stroke-opacity:1; 
stroke-linecap:round; stroke-linejoin:round;">
<text x="9.6647" y="20.5919"
textLength="16.5923" font-size="1.6933" lengthAdjust="spacingAndGlyphs"
text-anchor="middle" opacity="0" stroke-opacity="0">Pressure_Switch?</text>
<g class="stroked-text"><desc>Pressure_Switch?</desc>
<path d="M1.7725 20.5364
L1.7725 19.2664
" />
<path d="M1.7725 19.2664
L2.2563 19.2664
" />
<path d="M2.2563 19.2664
L2.3773 19.3269
" />
<path d="M2.3773 19.3269
L2.4378 19.3874
" />
<path d="M2.4378 19.3874
L2.4982 19.5083
" />
<path d="M2.4982 19.5083
L2.4982 19.6898
" />
<path d="M2.4982 19.6898
L2.4378 19.8107
" />
<path d="M2.4378 19.8107
L2.3773 19.8712
" />
<path d="M2.3773 19.8712
L2.2563 19.9317
" />
<path d="M2.2563 19.9317
L1.7725 19.9317
" />
<path d="M3.0425 20.5364
L3.0425 19.6898
" />
<path d="M3.0425 19.9317
L3.1030 19.8107
" />
<path d="M3.1030 19.8107
L3.1635 19.7502
" />
<path d="M3.1635 19.7502
L3.2844 19.6898
" />
<path d="M3.2844 19.6898
L3.4054 19.6898
" />
<path d="M4.3125 20.4760
L4.1916 20.5364
" />
<path d="M4.1916 20.5364
L3.9497 20.5364
" />
<path d="M3.9497 20.5364
L3.8287 20.4760
" />
<path d="M3.8287 20.4760
L3.7683 20.3550
" />
<path d="M3.7683 20.3550
L3.7683 19.8712
" />
<path d="M3.7683 19.8712
L3.8287 19.7502
" />
<path d="M3.8287 19.7502
L3.9497 19.6898
" />
<path d="M3.9497 19.6898
L4.1916 19.6898
" />
<path d="M4.1916 19.6898
L4.3125 19.7502
" />
<path d="M4.3125 19.7502
L4.3730 19.8712
" />
<path d="M4.3730 19.8712
L4.3730 19.9921
" />
<path d="M4.3730 19.9921
L3.7683 20.1131
" />
<path d="M4.8569 20.4760
L4.9778 20.5364
" />
<path d="M4.9778 20.5364
L5.2197 20.5364
" />
<path d="M5.2197 20.5364
L5.3407 20.4760
" />
<path d="M5.3407 20.4760
L5.4011 20.3550
" />
<path d="M5.4011 20.3550
L5.4011 20.2945
" />
<path d="M5.4011 20.2945
L5.3407 20.1736
" />
<path d="M5.3407 20.1736
L5.2197 20.1131
" />
<path d="M5.2197 20.1131
L5.0383 20.1131
" />
<path d="M5.0383 20.1131
L4.9173 20.0526
" />
<path d="M4.9173 20.0526
L4.8569 19.9317
" />
<path d="M4.8569 19.9317
L4.8569 19.8712
" />
<path d="M4.8569 19.8712
L4.9173 19.7502
" />
<path d="M4.9173 19.7502
L5.0383 19.6898
" />
<path d="M5.0383 19.6898
L5.2197 19.6898
" />
<path d="M5.2197 19.6898
L5.3407 19.7502
" />
<path d="M5.8850 20.4760
L6.0059 20.5364
" />
<path d="M6.0059 20.5364
L6.2478 20.5364
" />
<path d="M6.2478 20.5364
L6.3688 20.4760
" />
<path d="M6.3688 20.4760
L6.4292 20.3550
" />
<path d="M6.4292 20.3550
L6.4292 20.2945
" />
<path d="M6.4292 20.2945
L6.3688 20.1736
" />
<path d="M6.3688 20.1736
L6.2478 20.1131
" />
<path d="M6.2478 20.1131
L6.0664 20.1131
" />
<path d="M6.0664 20.1131
L5.9454 20.0526
" />
<path d="M5.9454 20.0526
L5.8850 19.9317
" />
<path d="M5.8850 19.9317
L5.8850 19.8712
" />
<path d="M5.8850 19.8712
L5.9454 19.7502
" />
<path d="M5.9454 19.7502
L6.0664 19.6898
" />
<path d="M6.0664 19.6898
L6.2478 19.6898
" />
<path d="M6.2478 19.6898
L6.3688 19.7502
" />
<path d="M7.5178 19.6898
L7.5178 20.5364
" />
<path d="M6.9735 19.6898
L6.9735 20.3550
" />
<path d="M6.9735 20.3550
L7.0340 20.4760
" />
<path d="M7.0340 20.4760
L7.1550 20.5364
" />
<path d="M7.1550 20.5364
L7.3364 20.5364
" />
<path d="M7.3364 20.5364
L7.4573 20.4760
" />
<path d="M7.4573 20.4760
L7.5178 20.4155
" />
<path d="M8.1225 20.5364
L8.1225 19.6898
" />
<path d="M8.1225 19.9317
L8.1830 19.8107
" />
<path d="M8.1830 19.8107
L8.2435 19.7502
" />
<path d="M8.2435 19.7502
L8.3644 19.6898
" />
<path d="M8.3644 19.6898
L8.4854 19.6898
" />
<path d="M9.3925 20.4760
L9.2716 20.5364
" />
<path d="M9.2716 20.5364
L9.0297 20.5364
" />
<path d="M9.0297 20.5364
L8.9087 20.4760
" />
<path d="M8.9087 20.4760
L8.8483 20.3550
" />
<path d="M8.8483 20.3550
L8.8483 19.8712
" />
<path d="M8.8483 19.8712
L8.9087 19.7502
" />
<path d="M8.9087 19.7502
L9.0297 19.6898
" />
<path d="M9.0297 19.6898
L9.2716 19.6898
" />
<path d="M9.2716 19.6898
L9.3925 19.7502
" />
<path d="M9.3925 19.7502
L9.4530 19.8712
" />
<path d="M9.4530 19.8712
L9.4530 19.9921
" />
<path d="M9.4530 19.9921
L8.8483 20.1131
" />
<path d="M9.6950 20.6574
L10.6626 20.6574
" />
<path d="M10.9045 20.4760
L11.0859 20.5364
" />
<path d="M11.0859 20.5364
L11.3883 20.5364
" />
<path d="M11.3883 20.5364
L11.5092 20.4760
" />
<path d="M11.5092 20.4760
L11.5697 20.4155
" />
<path d="M11.5697 20.4155
L11.6302 20.2945
" />
<path d="M11.6302 20.2945
L11.6302 20.1736
" />
<path d="M11.6302 20.1736
L11.5697 20.0526
" />
<path d="M11.5697 20.0526
L11.5092 19.9921
" />
<path d="M11.5092 19.9921
L11.3883 19.9317
" />
<path d="M11.3883 19.9317
L11.1464 19.8712
" />
<path d="M11.1464 19.8712
L11.0254 19.8107
" />
<path d="M11.0254 19.8107
L10.9649 19.7502
" />
<path d="M10.9649 19.7502
L10.9045 19.6293
" />
<path d="M10.9045 19.6293
L10.9045 19.5083
" />
<path d="M10.9045 19.5083
L10.9649 19.3874
" />
<path d="M10.9649 19.3874
L11.0254 19.3269
" />
<path d="M11.0254 19.3269
L11.1464 19.2664
" />
<path d="M11.1464 19.2664
L11.4487 19.2664
" />
<path d="M11.4487 19.2664
L11.6302 19.3269
" />
<path d="M12.0535 19.6898
L12.2954 20.5364
" />
<path d="M12.2954 20.5364
L12.5373 19.9317
" />
<path d="M12.5373 19.9317
L12.7792 20.5364
" />
<path d="M12.7792 20.5364
L13.0211 19.6898
" />
<path d="M13.5049 20.5364
L13.5049 19.6898
" />
<path d="M13.5049 19.2664
L13.4445 19.3269
" />
<path d="M13.4445 19.3269
L13.5049 19.3874
" />
<path d="M13.5049 19.3874
L13.5654 19.3269
" />
<path d="M13.5654 19.3269
L13.5049 19.2664
" />
<path d="M13.5049 19.2664
L13.5049 19.3874
" />
<path d="M13.9283 19.6898
L14.4121 19.6898
" />
<path d="M14.1097 19.2664
L14.1097 20.3550
" />
<path d="M14.1097 20.3550
L14.1702 20.4760
" />
<path d="M14.1702 20.4760
L14.2912 20.5364
" />
<path d="M14.2912 20.5364
L14.4121 20.5364
" />
<path d="M15.3797 20.4760
L15.2588 20.5364
" />
<path d="M15.2588 20.5364
L15.0169 20.5364
" />
<path d="M15.0169 20.5364
L14.8959 20.4760
" />
<path d="M14.8959 20.4760
L14.8354 20.4155
" />
<path d="M14.8354 20.4155
L14.7750 20.2945
" />
<path d="M14.7750 20.2945
L14.7750 19.9317
" />
<path d="M14.7750 19.9317
L14.8354 19.8107
" />
<path d="M14.8354 19.8107
L14.8959 19.7502
" />
<path d="M14.8959 19.7502
L15.0169 19.6898
" />
<path d="M15.0169 19.6898
L15.2588 19.6898
" />
<path d="M15.2588 19.6898
L15.3797 19.7502
" />
<path d="M15.9240 20.5364
L15.9240 19.2664
" />
<path d="M16.4683 20.5364
L16.4683 19.8712
" />
<path d="M16.4683 19.8712
L16.4078 19.7502
" />
<path d="M16.4078 19.7502
L16.2869 19.6898
" />
<path d="M16.2869 19.6898
L16.1055 19.6898
" />
<path d="M16.1055 19.6898
L15.9845 19.7502
" />
<path d="M15.9845 19.7502
L15.9240 19.8107
" />
<path d="M17.2545 20.4155
L17.3149 20.4760
" />
<path d="M17.3149 20.4760
L17.2545 20.5364
" />
<path d="M17.2545 20.5364
L17.1940 20.4760
" />
<path d="M17.1940 20.4760
L17.2545 20.4155
" />
<path d="M17.2545 20.4155
L17.2545 20.5364
" />
<path d="M17.0126 19.3269
L17.1335 19.2664
" />
<path d="M17.1335 19.2664
L17.4359 19.2664
" />
<path d="M17.4359 19.2664
L17.5568 19.3269
" />
<path d="M17.5568 19.3269
L17.6173 19.4479
" />
<path d="M17.6173 19.4479
L17.6173 19.5688
" />
<path d="M17.6173 19.5688
L17.5568 19.6898
" />
<path d="M17.5568 19.6898
L17.4964 19.7502
" />
<path d="M17.4964 19.7502
L17.3754 19.8107
" />
<path d="M17.3754 19.8107
L17.3149 19.8712
" />
<path d="M17.3149 19.8712
L17.2545 19.9921
" />
<path d="M17.2545 19.9921
L17.2545 20.0526
" />
</g></g> 
</svg>
