<?xml version="1.0" standalone="no"?>
 <!DOCTYPE svg PUBLIC "-//W3C//DTD SVG 1.1//EN" 
 "http://www.w3.org/Graphics/SVG/1.1/DTD/svg11.dtd"> 
<svg
  xmlns:svg="http://www.w3.org/2000/svg"
  xmlns="http://www.w3.org/2000/svg"
  xmlns:xlink="http://www.w3.org/1999/xlink"
  xmlns:inkscape="http://www.inkscape.org/namespaces/inkscape"
  version="1.1"
  width="19.3294mm" height="22.8854mm" viewBox="0.0000 0.0000 19.3294 22.8854">
<title>SVG Image created as Pressure Gauge_unit1.svg date 2026-05-31T11:36:34 </title>
  <desc>Image generated by Eeschema-SVG </desc>
<g style="fill:#000000; fill-opacity:1.0000;stroke:#000000; stroke-opacity:1.0000;
stroke-linecap:round; stroke-linejoin:round;"
 transform="translate(0 0) scale(1 1)">
<path style="fill:none; 
stroke:#840000; stroke-width:0.1524; stroke-opacity:1; 
stroke-linecap:round; stroke-linejoin:round;fill:none"
d="M 8.6647,8.9569
10.6647,10.9569
" /> 
</g>
<g style="fill:none; 
stroke:#840000; stroke-width:0.1524; stroke-opacity:1; 
stroke-linecap:round; stroke-linejoin:round;">
<circle cx="9.6647" cy="9.9569" r="2.0000" /> 
<path style="fill:#840000; fill-opacity:1.0000; 
stroke:#840000; stroke-width:0.1000; stroke-opacity:1; 
stroke-linecap:round; stroke-linejoin:round;fill-rule:evenodd;"
d="M 9.1647,9.4569
9.4147,9.2069
8.4147,8.7069
8.9147,9.7069
Z" /> 
</g>
<g style="fill:none; 
stroke:#840000; stroke-width:0.1524; stroke-opacity:1; 
stroke-linecap:round; stroke-linejoin:round;">
<path d="M9.6647 11.9569
L9.6647 14.9569
" />
</g>
<g style="fill:none; 
stroke:#006464; stroke-width:0.1524; stroke-opacity:1; 
stroke-linecap:round; stroke-linejoin:round;">
<text x="9.6647" y="20.5919"
textLength="16.2898" font-size="1.6933" lengthAdjust="spacingAndGlyphs"
text-anchor="middle" opacity="0" stroke-opacity="0">Pressure_Gauge?</text>
<g class="stroked-text"><desc>Pressure_Gauge?</desc>
<path d="M1.9237 20.5364
L1.9237 19.2664
" />
<path d="M1.9237 19.2664
L2.4075 19.2664
" />
<path d="M2.4075 19.2664
L2.5285 19.3269
" />
<path d="M2.5285 19.3269
L2.5890 19.3874
" />
<path d="M2.5890 19.3874
L2.6494 19.5083
" />
<path d="M2.6494 19.5083
L2.6494 19.6898
" />
<path d="M2.6494 19.6898
L2.5890 19.8107
" />
<path d="M2.5890 19.8107
L2.5285 19.8712
" />
<path d="M2.5285 19.8712
L2.4075 19.9317
" />
<path d="M2.4075 19.9317
L1.9237 19.9317
" />
<path d="M3.1937 20.5364
L3.1937 19.6898
" />
<path d="M3.1937 19.9317
L3.2542 19.8107
" />
<path d="M3.2542 19.8107
L3.3147 19.7502
" />
<path d="M3.3147 19.7502
L3.4356 19.6898
" />
<path d="M3.4356 19.6898
L3.5566 19.6898
" />
<path d="M4.4637 20.4760
L4.3428 20.5364
" />
<path d="M4.3428 20.5364
L4.1009 20.5364
" />
<path d="M4.1009 20.5364
L3.9799 20.4760
" />
<path d="M3.9799 20.4760
L3.9195 20.3550
" />
<path d="M3.9195 20.3550
L3.9195 19.8712
" />
<path d="M3.9195 19.8712
L3.9799 19.7502
" />
<path d="M3.9799 19.7502
L4.1009 19.6898
" />
<path d="M4.1009 19.6898
L4.3428 19.6898
" />
<path d="M4.3428 19.6898
L4.4637 19.7502
" />
<path d="M4.4637 19.7502
L4.5242 19.8712
" />
<path d="M4.5242 19.8712
L4.5242 19.9921
" />
<path d="M4.5242 19.9921
L3.9195 20.1131
" />
<path d="M5.0081 20.4760
L5.1290 20.5364
" />
<path d="M5.1290 20.5364
L5.3709 20.5364
" />
<path d="M5.3709 20.5364
L5.4919 20.4760
" />
<path d="M5.4919 20.4760
L5.5523 20.3550
" />
<path d="M5.5523 20.3550
L5.5523 20.2945
" />
<path d="M5.5523 20.2945
L5.4919 20.1736
" />
<path d="M5.4919 20.1736
L5.3709 20.1131
" />
<path d="M5.3709 20.1131
L5.1895 20.1131
" />
<path d="M5.1895 20.1131
L5.0685 20.0526
" />
<path d="M5.0685 20.0526
L5.0081 19.9317
" />
<path d="M5.0081 19.9317
L5.0081 19.8712
" />
<path d="M5.0081 19.8712
L5.0685 19.7502
" />
<path d="M5.0685 19.7502
L5.1895 19.6898
" />
<path d="M5.1895 19.6898
L5.3709 19.6898
" />
<path d="M5.3709 19.6898
L5.4919 19.7502
" />
<path d="M6.0362 20.4760
L6.1571 20.5364
" />
<path d="M6.1571 20.5364
L6.3990 20.5364
" />
<path d="M6.3990 20.5364
L6.5200 20.4760
" />
<path d="M6.5200 20.4760
L6.5804 20.3550
" />
<path d="M6.5804 20.3550
L6.5804 20.2945
" />
<path d="M6.5804 20.2945
L6.5200 20.1736
" />
<path d="M6.5200 20.1736
L6.3990 20.1131
" />
<path d="M6.3990 20.1131
L6.2176 20.1131
" />
<path d="M6.2176 20.1131
L6.0966 20.0526
" />
<path d="M6.0966 20.0526
L6.0362 19.9317
" />
<path d="M6.0362 19.9317
L6.0362 19.8712
" />
<path d="M6.0362 19.8712
L6.0966 19.7502
" />
<path d="M6.0966 19.7502
L6.2176 19.6898
" />
<path d="M6.2176 19.6898
L6.3990 19.6898
" />
<path d="M6.3990 19.6898
L6.5200 19.7502
" />
<path d="M7.6690 19.6898
L7.6690 20.5364
" />
<path d="M7.1247 19.6898
L7.1247 20.3550
" />
<path d="M7.1247 20.3550
L7.1852 20.4760
" />
<path d="M7.1852 20.4760
L7.3062 20.5364
" />
<path d="M7.3062 20.5364
L7.4876 20.5364
" />
<path d="M7.4876 20.5364
L7.6085 20.4760
" />
<path d="M7.6085 20.4760
L7.6690 20.4155
" />
<path d="M8.2737 20.5364
L8.2737 19.6898
" />
<path d="M8.2737 19.9317
L8.3342 19.8107
" />
<path d="M8.3342 19.8107
L8.3947 19.7502
" />
<path d="M8.3947 19.7502
L8.5156 19.6898
" />
<path d="M8.5156 19.6898
L8.6366 19.6898
" />
<path d="M9.5437 20.4760
L9.4228 20.5364
" />
<path d="M9.4228 20.5364
L9.1809 20.5364
" />
<path d="M9.1809 20.5364
L9.0599 20.4760
" />
<path d="M9.0599 20.4760
L8.9995 20.3550
" />
<path d="M8.9995 20.3550
L8.9995 19.8712
" />
<path d="M8.9995 19.8712
L9.0599 19.7502
" />
<path d="M9.0599 19.7502
L9.1809 19.6898
" />
<path d="M9.1809 19.6898
L9.4228 19.6898
" />
<path d="M9.4228 19.6898
L9.5437 19.7502
" />
<path d="M9.5437 19.7502
L9.6042 19.8712
" />
<path d="M9.6042 19.8712
L9.6042 19.9921
" />
<path d="M9.6042 19.9921
L8.9995 20.1131
" />
<path d="M9.8462 20.6574
L10.8138 20.6574
" />
<path d="M11.7814 19.3269
L11.6604 19.2664
" />
<path d="M11.6604 19.2664
L11.4790 19.2664
" />
<path d="M11.4790 19.2664
L11.2976 19.3269
" />
<path d="M11.2976 19.3269
L11.1766 19.4479
" />
<path d="M11.1766 19.4479
L11.1161 19.5688
" />
<path d="M11.1161 19.5688
L11.0557 19.8107
" />
<path d="M11.0557 19.8107
L11.0557 19.9921
" />
<path d="M11.0557 19.9921
L11.1161 20.2340
" />
<path d="M11.1161 20.2340
L11.1766 20.3550
" />
<path d="M11.1766 20.3550
L11.2976 20.4760
" />
<path d="M11.2976 20.4760
L11.4790 20.5364
" />
<path d="M11.4790 20.5364
L11.5999 20.5364
" />
<path d="M11.5999 20.5364
L11.7814 20.4760
" />
<path d="M11.7814 20.4760
L11.8418 20.4155
" />
<path d="M11.8418 20.4155
L11.8418 19.9921
" />
<path d="M11.8418 19.9921
L11.5999 19.9921
" />
<path d="M12.9304 20.5364
L12.9304 19.8712
" />
<path d="M12.9304 19.8712
L12.8699 19.7502
" />
<path d="M12.8699 19.7502
L12.7490 19.6898
" />
<path d="M12.7490 19.6898
L12.5071 19.6898
" />
<path d="M12.5071 19.6898
L12.3861 19.7502
" />
<path d="M12.9304 20.4760
L12.8095 20.5364
" />
<path d="M12.8095 20.5364
L12.5071 20.5364
" />
<path d="M12.5071 20.5364
L12.3861 20.4760
" />
<path d="M12.3861 20.4760
L12.3257 20.3550
" />
<path d="M12.3257 20.3550
L12.3257 20.2340
" />
<path d="M12.3257 20.2340
L12.3861 20.1131
" />
<path d="M12.3861 20.1131
L12.5071 20.0526
" />
<path d="M12.5071 20.0526
L12.8095 20.0526
" />
<path d="M12.8095 20.0526
L12.9304 19.9921
" />
<path d="M14.0794 19.6898
L14.0794 20.5364
" />
<path d="M13.5351 19.6898
L13.5351 20.3550
" />
<path d="M13.5351 20.3550
L13.5956 20.4760
" />
<path d="M13.5956 20.4760
L13.7166 20.5364
" />
<path d="M13.7166 20.5364
L13.8980 20.5364
" />
<path d="M13.8980 20.5364
L14.0189 20.4760
" />
<path d="M14.0189 20.4760
L14.0794 20.4155
" />
<path d="M15.2284 19.6898
L15.2284 20.7179
" />
<path d="M15.2284 20.7179
L15.1679 20.8388
" />
<path d="M15.1679 20.8388
L15.1075 20.8993
" />
<path d="M15.1075 20.8993
L14.9865 20.9598
" />
<path d="M14.9865 20.9598
L14.8051 20.9598
" />
<path d="M14.8051 20.9598
L14.6841 20.8993
" />
<path d="M15.2284 20.4760
L15.1075 20.5364
" />
<path d="M15.1075 20.5364
L14.8656 20.5364
" />
<path d="M14.8656 20.5364
L14.7446 20.4760
" />
<path d="M14.7446 20.4760
L14.6841 20.4155
" />
<path d="M14.6841 20.4155
L14.6237 20.2945
" />
<path d="M14.6237 20.2945
L14.6237 19.9317
" />
<path d="M14.6237 19.9317
L14.6841 19.8107
" />
<path d="M14.6841 19.8107
L14.7446 19.7502
" />
<path d="M14.7446 19.7502
L14.8656 19.6898
" />
<path d="M14.8656 19.6898
L15.1075 19.6898
" />
<path d="M15.1075 19.6898
L15.2284 19.7502
" />
<path d="M16.3169 20.4760
L16.1960 20.5364
" />
<path d="M16.1960 20.5364
L15.9541 20.5364
" />
<path d="M15.9541 20.5364
L15.8331 20.4760
" />
<path d="M15.8331 20.4760
L15.7727 20.3550
" />
<path d="M15.7727 20.3550
L15.7727 19.8712
" />
<path d="M15.7727 19.8712
L15.8331 19.7502
" />
<path d="M15.8331 19.7502
L15.9541 19.6898
" />
<path d="M15.9541 19.6898
L16.1960 19.6898
" />
<path d="M16.1960 19.6898
L16.3169 19.7502
" />
<path d="M16.3169 19.7502
L16.3774 19.8712
" />
<path d="M16.3774 19.8712
L16.3774 19.9921
" />
<path d="M16.3774 19.9921
L15.7727 20.1131
" />
<path d="M17.1032 20.4155
L17.1636 20.4760
" />
<path d="M17.1636 20.4760
L17.1032 20.5364
" />
<path d="M17.1032 20.5364
L17.0427 20.4760
" />
<path d="M17.0427 20.4760
L17.1032 20.4155
" />
<path d="M17.1032 20.4155
L17.1032 20.5364
" />
<path d="M16.8613 19.3269
L16.9822 19.2664
" />
<path d="M16.9822 19.2664
L17.2846 19.2664
" />
<path d="M17.2846 19.2664
L17.4055 19.3269
" />
<path d="M17.4055 19.3269
L17.4660 19.4479
" />
<path d="M17.4660 19.4479
L17.4660 19.5688
" />
<path d="M17.4660 19.5688
L17.4055 19.6898
" />
<path d="M17.4055 19.6898
L17.3451 19.7502
" />
<path d="M17.3451 19.7502
L17.2241 19.8107
" />
<path d="M17.2241 19.8107
L17.1636 19.8712
" />
<path d="M17.1636 19.8712
L17.1032 19.9921
" />
<path d="M17.1032 19.9921
L17.1032 20.0526
" />
</g></g> 
</svg>
