<?xml version="1.0" standalone="no"?>
 <!DOCTYPE svg PUBLIC "-//W3C//DTD SVG 1.1//EN" 
 "http://www.w3.org/Graphics/SVG/1.1/DTD/svg11.dtd"> 
<svg
  xmlns:svg="http://www.w3.org/2000/svg"
  xmlns="http://www.w3.org/2000/svg"
  xmlns:xlink="http://www.w3.org/1999/xlink"
  xmlns:inkscape="http://www.inkscape.org/namespaces/inkscape"
  version="1.1"
  width="23.6982mm" height="22.8854mm" viewBox="0.0000 0.0000 23.6982 22.8854">
<title>SVG Image created as Pressure Transducer_unit1.svg date 2026-05-31T11:36:33 </title>
  <desc>Image generated by Eeschema-SVG </desc>
<g style="fill:#000000; fill-opacity:1.0000;stroke:#000000; stroke-opacity:1.0000;
stroke-linecap:round; stroke-linejoin:round;"
 transform="translate(0 0) scale(1 1)">
</g>
<g style="fill:none; 
stroke:#840000; stroke-width:0.1524; stroke-opacity:1; 
stroke-linecap:round; stroke-linejoin:round;">
<circle cx="11.8491" cy="9.9569" r="2.0000" /> 
<text x="11.8491" y="10.5919"
textLength="2.4408" font-size="1.6933" lengthAdjust="spacingAndGlyphs"
text-anchor="middle" opacity="0" stroke-opacity="0">PT</text>
<g class="stroked-text"><desc>PT</desc>
<path d="M11.0326 10.5364
L11.0326 9.2664
" />
<path d="M11.0326 9.2664
L11.5164 9.2664
" />
<path d="M11.5164 9.2664
L11.6374 9.3269
" />
<path d="M11.6374 9.3269
L11.6979 9.3874
" />
<path d="M11.6979 9.3874
L11.7583 9.5083
" />
<path d="M11.7583 9.5083
L11.7583 9.6898
" />
<path d="M11.7583 9.6898
L11.6979 9.8107
" />
<path d="M11.6979 9.8107
L11.6374 9.8712
" />
<path d="M11.6374 9.8712
L11.5164 9.9317
" />
<path d="M11.5164 9.9317
L11.0326 9.9317
" />
<path d="M12.1212 9.2664
L12.8469 9.2664
" />
<path d="M12.4841 10.5364
L12.4841 9.2664
" />
</g><path d="M11.8491 11.9569
L11.8491 14.9569
" />
</g>
<g style="fill:none; 
stroke:#006464; stroke-width:0.1524; stroke-opacity:1; 
stroke-linecap:round; stroke-linejoin:round;">
<text x="11.8491" y="20.5919"
textLength="20.8255" font-size="1.6933" lengthAdjust="spacingAndGlyphs"
text-anchor="middle" opacity="0" stroke-opacity="0">Pressure_Transducer?</text>
<g class="stroked-text"><desc>Pressure_Transducer?</desc>
<path d="M1.8403 20.5364
L1.8403 19.2664
" />
<path d="M1.8403 19.2664
L2.3241 19.2664
" />
<path d="M2.3241 19.2664
L2.4451 19.3269
" />
<path d="M2.4451 19.3269
L2.5056 19.3874
" />
<path d="M2.5056 19.3874
L2.5660 19.5083
" />
<path d="M2.5660 19.5083
L2.5660 19.6898
" />
<path d="M2.5660 19.6898
L2.5056 19.8107
" />
<path d="M2.5056 19.8107
L2.4451 19.8712
" />
<path d="M2.4451 19.8712
L2.3241 19.9317
" />
<path d="M2.3241 19.9317
L1.8403 19.9317
" />
<path d="M3.1103 20.5364
L3.1103 19.6898
" />
<path d="M3.1103 19.9317
L3.1708 19.8107
" />
<path d="M3.1708 19.8107
L3.2313 19.7502
" />
<path d="M3.2313 19.7502
L3.3522 19.6898
" />
<path d="M3.3522 19.6898
L3.4732 19.6898
" />
<path d="M4.3803 20.4760
L4.2594 20.5364
" />
<path d="M4.2594 20.5364
L4.0175 20.5364
" />
<path d="M4.0175 20.5364
L3.8965 20.4760
" />
<path d="M3.8965 20.4760
L3.8361 20.3550
" />
<path d="M3.8361 20.3550
L3.8361 19.8712
" />
<path d="M3.8361 19.8712
L3.8965 19.7502
" />
<path d="M3.8965 19.7502
L4.0175 19.6898
" />
<path d="M4.0175 19.6898
L4.2594 19.6898
" />
<path d="M4.2594 19.6898
L4.3803 19.7502
" />
<path d="M4.3803 19.7502
L4.4408 19.8712
" />
<path d="M4.4408 19.8712
L4.4408 19.9921
" />
<path d="M4.4408 19.9921
L3.8361 20.1131
" />
<path d="M4.9247 20.4760
L5.0456 20.5364
" />
<path d="M5.0456 20.5364
L5.2875 20.5364
" />
<path d="M5.2875 20.5364
L5.4085 20.4760
" />
<path d="M5.4085 20.4760
L5.4689 20.3550
" />
<path d="M5.4689 20.3550
L5.4689 20.2945
" />
<path d="M5.4689 20.2945
L5.4085 20.1736
" />
<path d="M5.4085 20.1736
L5.2875 20.1131
" />
<path d="M5.2875 20.1131
L5.1061 20.1131
" />
<path d="M5.1061 20.1131
L4.9851 20.0526
" />
<path d="M4.9851 20.0526
L4.9247 19.9317
" />
<path d="M4.9247 19.9317
L4.9247 19.8712
" />
<path d="M4.9247 19.8712
L4.9851 19.7502
" />
<path d="M4.9851 19.7502
L5.1061 19.6898
" />
<path d="M5.1061 19.6898
L5.2875 19.6898
" />
<path d="M5.2875 19.6898
L5.4085 19.7502
" />
<path d="M5.9528 20.4760
L6.0737 20.5364
" />
<path d="M6.0737 20.5364
L6.3156 20.5364
" />
<path d="M6.3156 20.5364
L6.4366 20.4760
" />
<path d="M6.4366 20.4760
L6.4970 20.3550
" />
<path d="M6.4970 20.3550
L6.4970 20.2945
" />
<path d="M6.4970 20.2945
L6.4366 20.1736
" />
<path d="M6.4366 20.1736
L6.3156 20.1131
" />
<path d="M6.3156 20.1131
L6.1342 20.1131
" />
<path d="M6.1342 20.1131
L6.0132 20.0526
" />
<path d="M6.0132 20.0526
L5.9528 19.9317
" />
<path d="M5.9528 19.9317
L5.9528 19.8712
" />
<path d="M5.9528 19.8712
L6.0132 19.7502
" />
<path d="M6.0132 19.7502
L6.1342 19.6898
" />
<path d="M6.1342 19.6898
L6.3156 19.6898
" />
<path d="M6.3156 19.6898
L6.4366 19.7502
" />
<path d="M7.5856 19.6898
L7.5856 20.5364
" />
<path d="M7.0413 19.6898
L7.0413 20.3550
" />
<path d="M7.0413 20.3550
L7.1018 20.4760
" />
<path d="M7.1018 20.4760
L7.2228 20.5364
" />
<path d="M7.2228 20.5364
L7.4042 20.5364
" />
<path d="M7.4042 20.5364
L7.5251 20.4760
" />
<path d="M7.5251 20.4760
L7.5856 20.4155
" />
<path d="M8.1903 20.5364
L8.1903 19.6898
" />
<path d="M8.1903 19.9317
L8.2508 19.8107
" />
<path d="M8.2508 19.8107
L8.3113 19.7502
" />
<path d="M8.3113 19.7502
L8.4322 19.6898
" />
<path d="M8.4322 19.6898
L8.5532 19.6898
" />
<path d="M9.4603 20.4760
L9.3394 20.5364
" />
<path d="M9.3394 20.5364
L9.0975 20.5364
" />
<path d="M9.0975 20.5364
L8.9765 20.4760
" />
<path d="M8.9765 20.4760
L8.9161 20.3550
" />
<path d="M8.9161 20.3550
L8.9161 19.8712
" />
<path d="M8.9161 19.8712
L8.9765 19.7502
" />
<path d="M8.9765 19.7502
L9.0975 19.6898
" />
<path d="M9.0975 19.6898
L9.3394 19.6898
" />
<path d="M9.3394 19.6898
L9.4603 19.7502
" />
<path d="M9.4603 19.7502
L9.5208 19.8712
" />
<path d="M9.5208 19.8712
L9.5208 19.9921
" />
<path d="M9.5208 19.9921
L8.9161 20.1131
" />
<path d="M9.7628 20.6574
L10.7304 20.6574
" />
<path d="M10.8513 19.2664
L11.5770 19.2664
" />
<path d="M11.2142 20.5364
L11.2142 19.2664
" />
<path d="M12.0003 20.5364
L12.0003 19.6898
" />
<path d="M12.0003 19.9317
L12.0608 19.8107
" />
<path d="M12.0608 19.8107
L12.1213 19.7502
" />
<path d="M12.1213 19.7502
L12.2422 19.6898
" />
<path d="M12.2422 19.6898
L12.3632 19.6898
" />
<path d="M13.3308 20.5364
L13.3308 19.8712
" />
<path d="M13.3308 19.8712
L13.2703 19.7502
" />
<path d="M13.2703 19.7502
L13.1494 19.6898
" />
<path d="M13.1494 19.6898
L12.9075 19.6898
" />
<path d="M12.9075 19.6898
L12.7865 19.7502
" />
<path d="M13.3308 20.4760
L13.2099 20.5364
" />
<path d="M13.2099 20.5364
L12.9075 20.5364
" />
<path d="M12.9075 20.5364
L12.7865 20.4760
" />
<path d="M12.7865 20.4760
L12.7261 20.3550
" />
<path d="M12.7261 20.3550
L12.7261 20.2340
" />
<path d="M12.7261 20.2340
L12.7865 20.1131
" />
<path d="M12.7865 20.1131
L12.9075 20.0526
" />
<path d="M12.9075 20.0526
L13.2099 20.0526
" />
<path d="M13.2099 20.0526
L13.3308 19.9921
" />
<path d="M13.9355 19.6898
L13.9355 20.5364
" />
<path d="M13.9355 19.8107
L13.9960 19.7502
" />
<path d="M13.9960 19.7502
L14.1170 19.6898
" />
<path d="M14.1170 19.6898
L14.2984 19.6898
" />
<path d="M14.2984 19.6898
L14.4193 19.7502
" />
<path d="M14.4193 19.7502
L14.4798 19.8712
" />
<path d="M14.4798 19.8712
L14.4798 20.5364
" />
<path d="M15.0241 20.4760
L15.1450 20.5364
" />
<path d="M15.1450 20.5364
L15.3869 20.5364
" />
<path d="M15.3869 20.5364
L15.5079 20.4760
" />
<path d="M15.5079 20.4760
L15.5683 20.3550
" />
<path d="M15.5683 20.3550
L15.5683 20.2945
" />
<path d="M15.5683 20.2945
L15.5079 20.1736
" />
<path d="M15.5079 20.1736
L15.3869 20.1131
" />
<path d="M15.3869 20.1131
L15.2055 20.1131
" />
<path d="M15.2055 20.1131
L15.0845 20.0526
" />
<path d="M15.0845 20.0526
L15.0241 19.9317
" />
<path d="M15.0241 19.9317
L15.0241 19.8712
" />
<path d="M15.0241 19.8712
L15.0845 19.7502
" />
<path d="M15.0845 19.7502
L15.2055 19.6898
" />
<path d="M15.2055 19.6898
L15.3869 19.6898
" />
<path d="M15.3869 19.6898
L15.5079 19.7502
" />
<path d="M16.6569 20.5364
L16.6569 19.2664
" />
<path d="M16.6569 20.4760
L16.5360 20.5364
" />
<path d="M16.5360 20.5364
L16.2941 20.5364
" />
<path d="M16.2941 20.5364
L16.1731 20.4760
" />
<path d="M16.1731 20.4760
L16.1126 20.4155
" />
<path d="M16.1126 20.4155
L16.0522 20.2945
" />
<path d="M16.0522 20.2945
L16.0522 19.9317
" />
<path d="M16.0522 19.9317
L16.1126 19.8107
" />
<path d="M16.1126 19.8107
L16.1731 19.7502
" />
<path d="M16.1731 19.7502
L16.2941 19.6898
" />
<path d="M16.2941 19.6898
L16.5360 19.6898
" />
<path d="M16.5360 19.6898
L16.6569 19.7502
" />
<path d="M17.8059 19.6898
L17.8059 20.5364
" />
<path d="M17.2616 19.6898
L17.2616 20.3550
" />
<path d="M17.2616 20.3550
L17.3221 20.4760
" />
<path d="M17.3221 20.4760
L17.4431 20.5364
" />
<path d="M17.4431 20.5364
L17.6245 20.5364
" />
<path d="M17.6245 20.5364
L17.7454 20.4760
" />
<path d="M17.7454 20.4760
L17.8059 20.4155
" />
<path d="M18.9549 20.4760
L18.8340 20.5364
" />
<path d="M18.8340 20.5364
L18.5921 20.5364
" />
<path d="M18.5921 20.5364
L18.4711 20.4760
" />
<path d="M18.4711 20.4760
L18.4106 20.4155
" />
<path d="M18.4106 20.4155
L18.3502 20.2945
" />
<path d="M18.3502 20.2945
L18.3502 19.9317
" />
<path d="M18.3502 19.9317
L18.4106 19.8107
" />
<path d="M18.4106 19.8107
L18.4711 19.7502
" />
<path d="M18.4711 19.7502
L18.5921 19.6898
" />
<path d="M18.5921 19.6898
L18.8340 19.6898
" />
<path d="M18.8340 19.6898
L18.9549 19.7502
" />
<path d="M19.9830 20.4760
L19.8621 20.5364
" />
<path d="M19.8621 20.5364
L19.6202 20.5364
" />
<path d="M19.6202 20.5364
L19.4992 20.4760
" />
<path d="M19.4992 20.4760
L19.4388 20.3550
" />
<path d="M19.4388 20.3550
L19.4388 19.8712
" />
<path d="M19.4388 19.8712
L19.4992 19.7502
" />
<path d="M19.4992 19.7502
L19.6202 19.6898
" />
<path d="M19.6202 19.6898
L19.8621 19.6898
" />
<path d="M19.8621 19.6898
L19.9830 19.7502
" />
<path d="M19.9830 19.7502
L20.0435 19.8712
" />
<path d="M20.0435 19.8712
L20.0435 19.9921
" />
<path d="M20.0435 19.9921
L19.4388 20.1131
" />
<path d="M20.5878 20.5364
L20.5878 19.6898
" />
<path d="M20.5878 19.9317
L20.6483 19.8107
" />
<path d="M20.6483 19.8107
L20.7088 19.7502
" />
<path d="M20.7088 19.7502
L20.8297 19.6898
" />
<path d="M20.8297 19.6898
L20.9507 19.6898
" />
<path d="M21.5555 20.4155
L21.6159 20.4760
" />
<path d="M21.6159 20.4760
L21.5555 20.5364
" />
<path d="M21.5555 20.5364
L21.4950 20.4760
" />
<path d="M21.4950 20.4760
L21.5555 20.4155
" />
<path d="M21.5555 20.4155
L21.5555 20.5364
" />
<path d="M21.3136 19.3269
L21.4345 19.2664
" />
<path d="M21.4345 19.2664
L21.7369 19.2664
" />
<path d="M21.7369 19.2664
L21.8578 19.3269
" />
<path d="M21.8578 19.3269
L21.9183 19.4479
" />
<path d="M21.9183 19.4479
L21.9183 19.5688
" />
<path d="M21.9183 19.5688
L21.8578 19.6898
" />
<path d="M21.8578 19.6898
L21.7974 19.7502
" />
<path d="M21.7974 19.7502
L21.6764 19.8107
" />
<path d="M21.6764 19.8107
L21.6159 19.8712
" />
<path d="M21.6159 19.8712
L21.5555 19.9921
" />
<path d="M21.5555 19.9921
L21.5555 20.0526
" />
</g></g> 
</svg>
