<?xml version="1.0" standalone="no"?>
 <!DOCTYPE svg PUBLIC "-//W3C//DTD SVG 1.1//EN" 
 "http://www.w3.org/Graphics/SVG/1.1/DTD/svg11.dtd"> 
<svg
  xmlns:svg="http://www.w3.org/2000/svg"
  xmlns="http://www.w3.org/2000/svg"
  xmlns:xlink="http://www.w3.org/1999/xlink"
  xmlns:inkscape="http://www.inkscape.org/namespaces/inkscape"
  version="1.1"
  width="19.3294mm" height="22.8854mm" viewBox="0.0000 0.0000 19.3294 22.8854">
<title>SVG Image created as RTD_unit1.svg date 2026-05-31T11:36:34 </title>
  <desc>Image generated by Eeschema-SVG </desc>
<g style="fill:#000000; fill-opacity:1.0000;stroke:#000000; stroke-opacity:1.0000;
stroke-linecap:round; stroke-linejoin:round;"
 transform="translate(0 0) scale(1 1)">
</g>
<g style="fill:none; 
stroke:#840000; stroke-width:0.1000; stroke-opacity:1; 
stroke-linecap:round; stroke-linejoin:round;">
<circle cx="9.6647" cy="9.9569" r="2.5000" /> 
<path style="fill:none; 
stroke:#840000; stroke-width:0.1000; stroke-opacity:1; 
stroke-linecap:round; stroke-linejoin:round;fill:none"
d="M 9.6647,12.4569
9.6647,14.9569
" /> 
</g>
<g style="fill:none; 
stroke:#840000; stroke-width:0.1524; stroke-opacity:1; 
stroke-linecap:round; stroke-linejoin:round;">
<text x="9.6647" y="10.7069"
textLength="2.6572" font-size="2.0000" lengthAdjust="spacingAndGlyphs"
text-anchor="middle" opacity="0" stroke-opacity="0">TE</text>
<g class="stroked-text"><desc>TE</desc>
<path d="M8.5575 9.1428
L9.4147 9.1428
" />
<path d="M8.9861 10.6428
L8.9861 9.1428
" />
<path d="M9.9147 9.8571
L10.4147 9.8571
" />
<path d="M10.6290 10.6428
L9.9147 10.6428
" />
<path d="M9.9147 10.6428
L9.9147 9.1428
" />
<path d="M9.9147 9.1428
L10.6290 9.1428
" />
</g><path d="M9.6647 11.9569
L9.6647 14.9569
" />
</g>
<g style="fill:none; 
stroke:#006464; stroke-width:0.1524; stroke-opacity:1; 
stroke-linecap:round; stroke-linejoin:round;">
<text x="9.6647" y="20.5919"
textLength="4.7994" font-size="1.6933" lengthAdjust="spacingAndGlyphs"
text-anchor="middle" opacity="0" stroke-opacity="0">RTD?</text>
<g class="stroked-text"><desc>RTD?</desc>
<path d="M8.3946 20.5364
L7.9713 19.9317
" />
<path d="M7.6689 20.5364
L7.6689 19.2664
" />
<path d="M7.6689 19.2664
L8.1527 19.2664
" />
<path d="M8.1527 19.2664
L8.2737 19.3269
" />
<path d="M8.2737 19.3269
L8.3342 19.3874
" />
<path d="M8.3342 19.3874
L8.3946 19.5083
" />
<path d="M8.3946 19.5083
L8.3946 19.6898
" />
<path d="M8.3946 19.6898
L8.3342 19.8107
" />
<path d="M8.3342 19.8107
L8.2737 19.8712
" />
<path d="M8.2737 19.8712
L8.1527 19.9317
" />
<path d="M8.1527 19.9317
L7.6689 19.9317
" />
<path d="M8.7575 19.2664
L9.4832 19.2664
" />
<path d="M9.1204 20.5364
L9.1204 19.2664
" />
<path d="M9.9065 20.5364
L9.9065 19.2664
" />
<path d="M9.9065 19.2664
L10.2089 19.2664
" />
<path d="M10.2089 19.2664
L10.3903 19.3269
" />
<path d="M10.3903 19.3269
L10.5113 19.4479
" />
<path d="M10.5113 19.4479
L10.5718 19.5688
" />
<path d="M10.5718 19.5688
L10.6322 19.8107
" />
<path d="M10.6322 19.8107
L10.6322 19.9921
" />
<path d="M10.6322 19.9921
L10.5718 20.2340
" />
<path d="M10.5718 20.2340
L10.5113 20.3550
" />
<path d="M10.5113 20.3550
L10.3903 20.4760
" />
<path d="M10.3903 20.4760
L10.2089 20.5364
" />
<path d="M10.2089 20.5364
L9.9065 20.5364
" />
<path d="M11.3580 20.4155
L11.4184 20.4760
" />
<path d="M11.4184 20.4760
L11.3580 20.5364
" />
<path d="M11.3580 20.5364
L11.2975 20.4760
" />
<path d="M11.2975 20.4760
L11.3580 20.4155
" />
<path d="M11.3580 20.4155
L11.3580 20.5364
" />
<path d="M11.1161 19.3269
L11.2370 19.2664
" />
<path d="M11.2370 19.2664
L11.5394 19.2664
" />
<path d="M11.5394 19.2664
L11.6603 19.3269
" />
<path d="M11.6603 19.3269
L11.7208 19.4479
" />
<path d="M11.7208 19.4479
L11.7208 19.5688
" />
<path d="M11.7208 19.5688
L11.6603 19.6898
" />
<path d="M11.6603 19.6898
L11.5999 19.7502
" />
<path d="M11.5999 19.7502
L11.4789 19.8107
" />
<path d="M11.4789 19.8107
L11.4184 19.8712
" />
<path d="M11.4184 19.8712
L11.3580 19.9921
" />
<path d="M11.3580 19.9921
L11.3580 20.0526
" />
</g></g> 
</svg>
