<?xml version="1.0" standalone="no"?>
 <!DOCTYPE svg PUBLIC "-//W3C//DTD SVG 1.1//EN"
 "http://www.w3.org/Graphics/SVG/1.1/DTD/svg11.dtd">
<svg
  xmlns:svg="http://www.w3.org/2000/svg"
  xmlns="http://www.w3.org/2000/svg"
  xmlns:xlink="http://www.w3.org/1999/xlink"
  xmlns:inkscape="http://www.inkscape.org/namespaces/inkscape"
  version="1.1"
  width="19.3294mm" height="22.8854mm" viewBox="0.0000 0.0000 19.3294 22.8854">
<title>SVG Image created as Thermocouple_unit1.svg date 2026-05-31T11:36:33 </title>
  <desc>Image generated by Eeschema-SVG </desc>
<g style="fill:#000000; fill-opacity:1.0000;stroke:#000000; stroke-opacity:1.0000;
stroke-linecap:round; stroke-linejoin:round;"
 transform="translate(0 0) scale(1 1)">
</g>
<g style="fill:none;
stroke:#840000; stroke-width:0.1524; stroke-opacity:1;
stroke-linecap:round; stroke-linejoin:round;">
<circle cx="9.6647" cy="9.9569" r="2.0000" />
<text x="9.6647" y="10.5919"
textLength="2.4408" font-size="1.6933" lengthAdjust="spacingAndGlyphs"
text-anchor="middle" opacity="0" stroke-opacity="0">TC</text>
<g class="stroked-text"><desc>TC</desc>
<path d="M8.6668 9.2664
L9.3925 9.2664
" />
<path d="M9.0297 10.5364
L9.0297 9.2664
" />
<path d="M10.5415 10.4155
L10.4811 10.4760
" />
<path d="M10.4811 10.4760
L10.2996 10.5364
" />
<path d="M10.2996 10.5364
L10.1787 10.5364
" />
<path d="M10.1787 10.5364
L9.9973 10.4760
" />
<path d="M9.9973 10.4760
L9.8763 10.3550
" />
<path d="M9.8763 10.3550
L9.8158 10.2340
" />
<path d="M9.8158 10.2340
L9.7554 9.9921
" />
<path d="M9.7554 9.9921
L9.7554 9.8107
" />
<path d="M9.7554 9.8107
L9.8158 9.5688
" />
<path d="M9.8158 9.5688
L9.8763 9.4479
" />
<path d="M9.8763 9.4479
L9.9973 9.3269
" />
<path d="M9.9973 9.3269
L10.1787 9.2664
" />
<path d="M10.1787 9.2664
L10.2996 9.2664
" />
<path d="M10.2996 9.2664
L10.4811 9.3269
" />
<path d="M10.4811 9.3269
L10.5415 9.3874
" />
</g><path d="M9.6647 11.9569
L9.6647 14.9569
" />
</g>
<g style="fill:none;
stroke:#006464; stroke-width:0.1524; stroke-opacity:1;
stroke-linecap:round; stroke-linejoin:round;">
<text x="9.6647" y="20.5919"
textLength="14.4149" font-size="1.6933" lengthAdjust="spacingAndGlyphs"
text-anchor="middle" opacity="0" stroke-opacity="0">Thermocouple?</text>
<g class="stroked-text"><desc>Thermocouple?</desc>
<path d="M2.6798 19.2664
L3.4055 19.2664
" />
<path d="M3.0427 20.5364
L3.0427 19.2664
" />
<path d="M3.8288 20.5364
L3.8288 19.2664
" />
<path d="M4.3731 20.5364
L4.3731 19.8712
" />
<path d="M4.3731 19.8712
L4.3126 19.7502
" />
<path d="M4.3126 19.7502
L4.1917 19.6898
" />
<path d="M4.1917 19.6898
L4.0103 19.6898
" />
<path d="M4.0103 19.6898
L3.8893 19.7502
" />
<path d="M3.8893 19.7502
L3.8288 19.8107
" />
<path d="M5.4616 20.4760
L5.3407 20.5364
" />
<path d="M5.3407 20.5364
L5.0988 20.5364
" />
<path d="M5.0988 20.5364
L4.9778 20.4760
" />
<path d="M4.9778 20.4760
L4.9174 20.3550
" />
<path d="M4.9174 20.3550
L4.9174 19.8712
" />
<path d="M4.9174 19.8712
L4.9778 19.7502
" />
<path d="M4.9778 19.7502
L5.0988 19.6898
" />
<path d="M5.0988 19.6898
L5.3407 19.6898
" />
<path d="M5.3407 19.6898
L5.4616 19.7502
" />
<path d="M5.4616 19.7502
L5.5221 19.8712
" />
<path d="M5.5221 19.8712
L5.5221 19.9921
" />
<path d="M5.5221 19.9921
L4.9174 20.1131
" />
<path d="M6.0664 20.5364
L6.0664 19.6898
" />
<path d="M6.0664 19.9317
L6.1269 19.8107
" />
<path d="M6.1269 19.8107
L6.1874 19.7502
" />
<path d="M6.1874 19.7502
L6.3083 19.6898
" />
<path d="M6.3083 19.6898
L6.4293 19.6898
" />
<path d="M6.8526 20.5364
L6.8526 19.6898
" />
<path d="M6.8526 19.8107
L6.9131 19.7502
" />
<path d="M6.9131 19.7502
L7.0341 19.6898
" />
<path d="M7.0341 19.6898
L7.2155 19.6898
" />
<path d="M7.2155 19.6898
L7.3364 19.7502
" />
<path d="M7.3364 19.7502
L7.3969 19.8712
" />
<path d="M7.3969 19.8712
L7.3969 20.5364
" />
<path d="M7.3969 19.8712
L7.4574 19.7502
" />
<path d="M7.4574 19.7502
L7.5783 19.6898
" />
<path d="M7.5783 19.6898
L7.7598 19.6898
" />
<path d="M7.7598 19.6898
L7.8807 19.7502
" />
<path d="M7.8807 19.7502
L7.9412 19.8712
" />
<path d="M7.9412 19.8712
L7.9412 20.5364
" />
<path d="M8.7274 20.5364
L8.6064 20.4760
" />
<path d="M8.6064 20.4760
L8.5459 20.4155
" />
<path d="M8.5459 20.4155
L8.4855 20.2945
" />
<path d="M8.4855 20.2945
L8.4855 19.9317
" />
<path d="M8.4855 19.9317
L8.5459 19.8107
" />
<path d="M8.5459 19.8107
L8.6064 19.7502
" />
<path d="M8.6064 19.7502
L8.7274 19.6898
" />
<path d="M8.7274 19.6898
L8.9088 19.6898
" />
<path d="M8.9088 19.6898
L9.0297 19.7502
" />
<path d="M9.0297 19.7502
L9.0902 19.8107
" />
<path d="M9.0902 19.8107
L9.1507 19.9317
" />
<path d="M9.1507 19.9317
L9.1507 20.2945
" />
<path d="M9.1507 20.2945
L9.0902 20.4155
" />
<path d="M9.0902 20.4155
L9.0297 20.4760
" />
<path d="M9.0297 20.4760
L8.9088 20.5364
" />
<path d="M8.9088 20.5364
L8.7274 20.5364
" />
<path d="M10.2392 20.4760
L10.1183 20.5364
" />
<path d="M10.1183 20.5364
L9.8764 20.5364
" />
<path d="M9.8764 20.5364
L9.7554 20.4760
" />
<path d="M9.7554 20.4760
L9.6949 20.4155
" />
<path d="M9.6949 20.4155
L9.6345 20.2945
" />
<path d="M9.6345 20.2945
L9.6345 19.9317
" />
<path d="M9.6345 19.9317
L9.6949 19.8107
" />
<path d="M9.6949 19.8107
L9.7554 19.7502
" />
<path d="M9.7554 19.7502
L9.8764 19.6898
" />
<path d="M9.8764 19.6898
L10.1183 19.6898
" />
<path d="M10.1183 19.6898
L10.2392 19.7502
" />
<path d="M10.9650 20.5364
L10.8440 20.4760
" />
<path d="M10.8440 20.4760
L10.7835 20.4155
" />
<path d="M10.7835 20.4155
L10.7231 20.2945
" />
<path d="M10.7231 20.2945
L10.7231 19.9317
" />
<path d="M10.7231 19.9317
L10.7835 19.8107
" />
<path d="M10.7835 19.8107
L10.8440 19.7502
" />
<path d="M10.8440 19.7502
L10.9650 19.6898
" />
<path d="M10.9650 19.6898
L11.1464 19.6898
" />
<path d="M11.1464 19.6898
L11.2673 19.7502
" />
<path d="M11.2673 19.7502
L11.3278 19.8107
" />
<path d="M11.3278 19.8107
L11.3883 19.9317
" />
<path d="M11.3883 19.9317
L11.3883 20.2945
" />
<path d="M11.3883 20.2945
L11.3278 20.4155
" />
<path d="M11.3278 20.4155
L11.2673 20.4760
" />
<path d="M11.2673 20.4760
L11.1464 20.5364
" />
<path d="M11.1464 20.5364
L10.9650 20.5364
" />
<path d="M12.4768 19.6898
L12.4768 20.5364
" />
<path d="M11.9325 19.6898
L11.9325 20.3550
" />
<path d="M11.9325 20.3550
L11.9930 20.4760
" />
<path d="M11.9930 20.4760
L12.1140 20.5364
" />
<path d="M12.1140 20.5364
L12.2954 20.5364
" />
<path d="M12.2954 20.5364
L12.4163 20.4760
" />
<path d="M12.4163 20.4760
L12.4768 20.4155
" />
<path d="M13.0815 19.6898
L13.0815 20.9598
" />
<path d="M13.0815 19.7502
L13.2025 19.6898
" />
<path d="M13.2025 19.6898
L13.4444 19.6898
" />
<path d="M13.4444 19.6898
L13.5653 19.7502
" />
<path d="M13.5653 19.7502
L13.6258 19.8107
" />
<path d="M13.6258 19.8107
L13.6863 19.9317
" />
<path d="M13.6863 19.9317
L13.6863 20.2945
" />
<path d="M13.6863 20.2945
L13.6258 20.4155
" />
<path d="M13.6258 20.4155
L13.5653 20.4760
" />
<path d="M13.5653 20.4760
L13.4444 20.5364
" />
<path d="M13.4444 20.5364
L13.2025 20.5364
" />
<path d="M13.2025 20.5364
L13.0815 20.4760
" />
<path d="M14.4120 20.5364
L14.2910 20.4760
" />
<path d="M14.2910 20.4760
L14.2305 20.3550
" />
<path d="M14.2305 20.3550
L14.2305 19.2664
" />
<path d="M15.3795 20.4760
L15.2586 20.5364
" />
<path d="M15.2586 20.5364
L15.0167 20.5364
" />
<path d="M15.0167 20.5364
L14.8957 20.4760
" />
<path d="M14.8957 20.4760
L14.8353 20.3550
" />
<path d="M14.8353 20.3550
L14.8353 19.8712
" />
<path d="M14.8353 19.8712
L14.8957 19.7502
" />
<path d="M14.8957 19.7502
L15.0167 19.6898
" />
<path d="M15.0167 19.6898
L15.2586 19.6898
" />
<path d="M15.2586 19.6898
L15.3795 19.7502
" />
<path d="M15.3795 19.7502
L15.4400 19.8712
" />
<path d="M15.4400 19.8712
L15.4400 19.9921
" />
<path d="M15.4400 19.9921
L14.8353 20.1131
" />
<path d="M16.1658 20.4155
L16.2262 20.4760
" />
<path d="M16.2262 20.4760
L16.1658 20.5364
" />
<path d="M16.1658 20.5364
L16.1053 20.4760
" />
<path d="M16.1053 20.4760
L16.1658 20.4155
" />
<path d="M16.1658 20.4155
L16.1658 20.5364
" />
<path d="M15.9239 19.3269
L16.0448 19.2664
" />
<path d="M16.0448 19.2664
L16.3472 19.2664
" />
<path d="M16.3472 19.2664
L16.4681 19.3269
" />
<path d="M16.4681 19.3269
L16.5286 19.4479
" />
<path d="M16.5286 19.4479
L16.5286 19.5688
" />
<path d="M16.5286 19.5688
L16.4681 19.6898
" />
<path d="M16.4681 19.6898
L16.4077 19.7502
" />
<path d="M16.4077 19.7502
L16.2867 19.8107
" />
<path d="M16.2867 19.8107
L16.2262 19.8712
" />
<path d="M16.2262 19.8712
L16.1658 19.9921
" />
<path d="M16.1658 19.9921
L16.1658 20.0526
" />
</g></g>
</svg>
