<?xml version="1.0" standalone="no"?>
 <!DOCTYPE svg PUBLIC "-//W3C//DTD SVG 1.1//EN" 
 "http://www.w3.org/Graphics/SVG/1.1/DTD/svg11.dtd"> 
<svg
  xmlns:svg="http://www.w3.org/2000/svg"
  xmlns="http://www.w3.org/2000/svg"
  xmlns:xlink="http://www.w3.org/1999/xlink"
  xmlns:inkscape="http://www.inkscape.org/namespaces/inkscape"
  version="1.1"
  width="48.1076mm" height="48.1076mm" viewBox="0.0000 0.0000 48.1076 48.1076">
<title>SVG Image created as Engine - Bipropellant_unit1.svg date 2026-05-31T11:36:36 </title>
  <desc>Image generated by Eeschema-SVG </desc>
<g style="fill:#000000; fill-opacity:1.0000;stroke:#000000; stroke-opacity:1.0000;
stroke-linecap:round; stroke-linejoin:round;"
 transform="translate(0 0) scale(1 1)">
<path style="fill:#840000; fill-opacity:1.0000; 
stroke:#840000; stroke-width:0.1524; stroke-opacity:1; 
stroke-linecap:round; stroke-linejoin:round;fill-rule:evenodd;"
d="M 22.0538,12.0538
22.3038,11.0538
21.8038,11.0538
Z" /> 
<path style="fill:none; 
stroke:#840000; stroke-width:0.1000; stroke-opacity:1; 
stroke-linecap:round; stroke-linejoin:round;fill:none"
d="M 24.0538,12.0538
27.0538,12.0538
27.0538,20.0538
25.0538,24.0538
" /> 
<path style="fill:none; 
stroke:#840000; stroke-width:0.1000; stroke-opacity:1; 
stroke-linecap:round; stroke-linejoin:round;fill:none"
d="M 24.0538,12.0538
21.0538,12.0538
21.0538,20.0538
23.0538,24.0538
20.0538,29.0538
" /> 
<path style="fill:none; 
stroke:#840000; stroke-width:0.1000; stroke-opacity:1; 
stroke-linecap:round; stroke-linejoin:round;fill:none"
d="M 25.0538,24.0538
28.0538,29.0538
" /> 
<path style="fill:#840000; fill-opacity:1.0000; 
stroke:#840000; stroke-width:0.1524; stroke-opacity:1; 
stroke-linecap:round; stroke-linejoin:round;fill-rule:evenodd;"
d="M 26.0538,12.0538
26.3038,11.0538
25.8038,11.0538
Z" /> 
</g>
<g style="fill:none; 
stroke:#840000; stroke-width:0.1524; stroke-opacity:1; 
stroke-linecap:round; stroke-linejoin:round;">
<path d="M22.0538 12.0538
L22.0538 9.0538
" />
<path d="M26.0538 12.0538
L26.0538 9.0538
" />
</g>
<g style="fill:none; 
stroke:#006464; stroke-width:0.1524; stroke-opacity:1; 
stroke-linecap:round; stroke-linejoin:round;">
<text x="24.0538" y="34.6888"
textLength="20.0995" font-size="1.6933" lengthAdjust="spacingAndGlyphs"
text-anchor="middle" opacity="0" stroke-opacity="0">Engine_Bipropellant?</text>
<g class="stroked-text"><desc>Engine_Bipropellant?</desc>
<path d="M14.4080 33.9681
L14.8314 33.9681
" />
<path d="M15.0128 34.6333
L14.4080 34.6333
" />
<path d="M14.4080 34.6333
L14.4080 33.3633
" />
<path d="M14.4080 33.3633
L15.0128 33.3633
" />
<path d="M15.5570 33.7867
L15.5570 34.6333
" />
<path d="M15.5570 33.9076
L15.6175 33.8471
" />
<path d="M15.6175 33.8471
L15.7385 33.7867
" />
<path d="M15.7385 33.7867
L15.9199 33.7867
" />
<path d="M15.9199 33.7867
L16.0408 33.8471
" />
<path d="M16.0408 33.8471
L16.1013 33.9681
" />
<path d="M16.1013 33.9681
L16.1013 34.6333
" />
<path d="M17.2503 33.7867
L17.2503 34.8148
" />
<path d="M17.2503 34.8148
L17.1898 34.9357
" />
<path d="M17.1898 34.9357
L17.1294 34.9962
" />
<path d="M17.1294 34.9962
L17.0084 35.0567
" />
<path d="M17.0084 35.0567
L16.8270 35.0567
" />
<path d="M16.8270 35.0567
L16.7060 34.9962
" />
<path d="M17.2503 34.5729
L17.1294 34.6333
" />
<path d="M17.1294 34.6333
L16.8875 34.6333
" />
<path d="M16.8875 34.6333
L16.7665 34.5729
" />
<path d="M16.7665 34.5729
L16.7060 34.5124
" />
<path d="M16.7060 34.5124
L16.6456 34.3914
" />
<path d="M16.6456 34.3914
L16.6456 34.0286
" />
<path d="M16.6456 34.0286
L16.7060 33.9076
" />
<path d="M16.7060 33.9076
L16.7665 33.8471
" />
<path d="M16.7665 33.8471
L16.8875 33.7867
" />
<path d="M16.8875 33.7867
L17.1294 33.7867
" />
<path d="M17.1294 33.7867
L17.2503 33.8471
" />
<path d="M17.8550 34.6333
L17.8550 33.7867
" />
<path d="M17.8550 33.3633
L17.7946 33.4238
" />
<path d="M17.7946 33.4238
L17.8550 33.4843
" />
<path d="M17.8550 33.4843
L17.9155 33.4238
" />
<path d="M17.9155 33.4238
L17.8550 33.3633
" />
<path d="M17.8550 33.3633
L17.8550 33.4843
" />
<path d="M18.4598 33.7867
L18.4598 34.6333
" />
<path d="M18.4598 33.9076
L18.5203 33.8471
" />
<path d="M18.5203 33.8471
L18.6413 33.7867
" />
<path d="M18.6413 33.7867
L18.8227 33.7867
" />
<path d="M18.8227 33.7867
L18.9436 33.8471
" />
<path d="M18.9436 33.8471
L19.0041 33.9681
" />
<path d="M19.0041 33.9681
L19.0041 34.6333
" />
<path d="M20.0926 34.5729
L19.9717 34.6333
" />
<path d="M19.9717 34.6333
L19.7298 34.6333
" />
<path d="M19.7298 34.6333
L19.6088 34.5729
" />
<path d="M19.6088 34.5729
L19.5484 34.4519
" />
<path d="M19.5484 34.4519
L19.5484 33.9681
" />
<path d="M19.5484 33.9681
L19.6088 33.8471
" />
<path d="M19.6088 33.8471
L19.7298 33.7867
" />
<path d="M19.7298 33.7867
L19.9717 33.7867
" />
<path d="M19.9717 33.7867
L20.0926 33.8471
" />
<path d="M20.0926 33.8471
L20.1531 33.9681
" />
<path d="M20.1531 33.9681
L20.1531 34.0890
" />
<path d="M20.1531 34.0890
L19.5484 34.2100
" />
<path d="M20.3951 34.7543
L21.3627 34.7543
" />
<path d="M22.0884 33.9681
L22.2698 34.0286
" />
<path d="M22.2698 34.0286
L22.3303 34.0890
" />
<path d="M22.3303 34.0890
L22.3907 34.2100
" />
<path d="M22.3907 34.2100
L22.3907 34.3914
" />
<path d="M22.3907 34.3914
L22.3303 34.5124
" />
<path d="M22.3303 34.5124
L22.2698 34.5729
" />
<path d="M22.2698 34.5729
L22.1488 34.6333
" />
<path d="M22.1488 34.6333
L21.6650 34.6333
" />
<path d="M21.6650 34.6333
L21.6650 33.3633
" />
<path d="M21.6650 33.3633
L22.0884 33.3633
" />
<path d="M22.0884 33.3633
L22.2093 33.4238
" />
<path d="M22.2093 33.4238
L22.2698 33.4843
" />
<path d="M22.2698 33.4843
L22.3303 33.6052
" />
<path d="M22.3303 33.6052
L22.3303 33.7262
" />
<path d="M22.3303 33.7262
L22.2698 33.8471
" />
<path d="M22.2698 33.8471
L22.2093 33.9076
" />
<path d="M22.2093 33.9076
L22.0884 33.9681
" />
<path d="M22.0884 33.9681
L21.6650 33.9681
" />
<path d="M22.9350 34.6333
L22.9350 33.7867
" />
<path d="M22.9350 33.3633
L22.8746 33.4238
" />
<path d="M22.8746 33.4238
L22.9350 33.4843
" />
<path d="M22.9350 33.4843
L22.9955 33.4238
" />
<path d="M22.9955 33.4238
L22.9350 33.3633
" />
<path d="M22.9350 33.3633
L22.9350 33.4843
" />
<path d="M23.5398 33.7867
L23.5398 35.0567
" />
<path d="M23.5398 33.8471
L23.6608 33.7867
" />
<path d="M23.6608 33.7867
L23.9027 33.7867
" />
<path d="M23.9027 33.7867
L24.0236 33.8471
" />
<path d="M24.0236 33.8471
L24.0841 33.9076
" />
<path d="M24.0841 33.9076
L24.1446 34.0286
" />
<path d="M24.1446 34.0286
L24.1446 34.3914
" />
<path d="M24.1446 34.3914
L24.0841 34.5124
" />
<path d="M24.0841 34.5124
L24.0236 34.5729
" />
<path d="M24.0236 34.5729
L23.9027 34.6333
" />
<path d="M23.9027 34.6333
L23.6608 34.6333
" />
<path d="M23.6608 34.6333
L23.5398 34.5729
" />
<path d="M24.6888 34.6333
L24.6888 33.7867
" />
<path d="M24.6888 34.0286
L24.7493 33.9076
" />
<path d="M24.7493 33.9076
L24.8098 33.8471
" />
<path d="M24.8098 33.8471
L24.9307 33.7867
" />
<path d="M24.9307 33.7867
L25.0517 33.7867
" />
<path d="M25.6565 34.6333
L25.5355 34.5729
" />
<path d="M25.5355 34.5729
L25.4750 34.5124
" />
<path d="M25.4750 34.5124
L25.4146 34.3914
" />
<path d="M25.4146 34.3914
L25.4146 34.0286
" />
<path d="M25.4146 34.0286
L25.4750 33.9076
" />
<path d="M25.4750 33.9076
L25.5355 33.8471
" />
<path d="M25.5355 33.8471
L25.6565 33.7867
" />
<path d="M25.6565 33.7867
L25.8379 33.7867
" />
<path d="M25.8379 33.7867
L25.9588 33.8471
" />
<path d="M25.9588 33.8471
L26.0193 33.9076
" />
<path d="M26.0193 33.9076
L26.0798 34.0286
" />
<path d="M26.0798 34.0286
L26.0798 34.3914
" />
<path d="M26.0798 34.3914
L26.0193 34.5124
" />
<path d="M26.0193 34.5124
L25.9588 34.5729
" />
<path d="M25.9588 34.5729
L25.8379 34.6333
" />
<path d="M25.8379 34.6333
L25.6565 34.6333
" />
<path d="M26.6240 33.7867
L26.6240 35.0567
" />
<path d="M26.6240 33.8471
L26.7450 33.7867
" />
<path d="M26.7450 33.7867
L26.9869 33.7867
" />
<path d="M26.9869 33.7867
L27.1078 33.8471
" />
<path d="M27.1078 33.8471
L27.1683 33.9076
" />
<path d="M27.1683 33.9076
L27.2288 34.0286
" />
<path d="M27.2288 34.0286
L27.2288 34.3914
" />
<path d="M27.2288 34.3914
L27.1683 34.5124
" />
<path d="M27.1683 34.5124
L27.1078 34.5729
" />
<path d="M27.1078 34.5729
L26.9869 34.6333
" />
<path d="M26.9869 34.6333
L26.7450 34.6333
" />
<path d="M26.7450 34.6333
L26.6240 34.5729
" />
<path d="M28.2568 34.5729
L28.1359 34.6333
" />
<path d="M28.1359 34.6333
L27.8940 34.6333
" />
<path d="M27.8940 34.6333
L27.7730 34.5729
" />
<path d="M27.7730 34.5729
L27.7126 34.4519
" />
<path d="M27.7126 34.4519
L27.7126 33.9681
" />
<path d="M27.7126 33.9681
L27.7730 33.8471
" />
<path d="M27.7730 33.8471
L27.8940 33.7867
" />
<path d="M27.8940 33.7867
L28.1359 33.7867
" />
<path d="M28.1359 33.7867
L28.2568 33.8471
" />
<path d="M28.2568 33.8471
L28.3173 33.9681
" />
<path d="M28.3173 33.9681
L28.3173 34.0890
" />
<path d="M28.3173 34.0890
L27.7126 34.2100
" />
<path d="M29.0431 34.6333
L28.9221 34.5729
" />
<path d="M28.9221 34.5729
L28.8616 34.4519
" />
<path d="M28.8616 34.4519
L28.8616 33.3633
" />
<path d="M29.7083 34.6333
L29.5873 34.5729
" />
<path d="M29.5873 34.5729
L29.5268 34.4519
" />
<path d="M29.5268 34.4519
L29.5268 33.3633
" />
<path d="M30.7363 34.6333
L30.7363 33.9681
" />
<path d="M30.7363 33.9681
L30.6758 33.8471
" />
<path d="M30.6758 33.8471
L30.5549 33.7867
" />
<path d="M30.5549 33.7867
L30.3130 33.7867
" />
<path d="M30.3130 33.7867
L30.1920 33.8471
" />
<path d="M30.7363 34.5729
L30.6154 34.6333
" />
<path d="M30.6154 34.6333
L30.3130 34.6333
" />
<path d="M30.3130 34.6333
L30.1920 34.5729
" />
<path d="M30.1920 34.5729
L30.1316 34.4519
" />
<path d="M30.1316 34.4519
L30.1316 34.3309
" />
<path d="M30.1316 34.3309
L30.1920 34.2100
" />
<path d="M30.1920 34.2100
L30.3130 34.1495
" />
<path d="M30.3130 34.1495
L30.6154 34.1495
" />
<path d="M30.6154 34.1495
L30.7363 34.0890
" />
<path d="M31.3410 33.7867
L31.3410 34.6333
" />
<path d="M31.3410 33.9076
L31.4015 33.8471
" />
<path d="M31.4015 33.8471
L31.5225 33.7867
" />
<path d="M31.5225 33.7867
L31.7039 33.7867
" />
<path d="M31.7039 33.7867
L31.8248 33.8471
" />
<path d="M31.8248 33.8471
L31.8853 33.9681
" />
<path d="M31.8853 33.9681
L31.8853 34.6333
" />
<path d="M32.3086 33.7867
L32.7924 33.7867
" />
<path d="M32.4900 33.3633
L32.4900 34.4519
" />
<path d="M32.4900 34.4519
L32.5505 34.5729
" />
<path d="M32.5505 34.5729
L32.6715 34.6333
" />
<path d="M32.6715 34.6333
L32.7924 34.6333
" />
<path d="M33.3972 34.5124
L33.4576 34.5729
" />
<path d="M33.4576 34.5729
L33.3972 34.6333
" />
<path d="M33.3972 34.6333
L33.3367 34.5729
" />
<path d="M33.3367 34.5729
L33.3972 34.5124
" />
<path d="M33.3972 34.5124
L33.3972 34.6333
" />
<path d="M33.1553 33.4238
L33.2762 33.3633
" />
<path d="M33.2762 33.3633
L33.5786 33.3633
" />
<path d="M33.5786 33.3633
L33.6995 33.4238
" />
<path d="M33.6995 33.4238
L33.7600 33.5448
" />
<path d="M33.7600 33.5448
L33.7600 33.6657
" />
<path d="M33.7600 33.6657
L33.6995 33.7867
" />
<path d="M33.6995 33.7867
L33.6391 33.8471
" />
<path d="M33.6391 33.8471
L33.5181 33.9076
" />
<path d="M33.5181 33.9076
L33.4576 33.9681
" />
<path d="M33.4576 33.9681
L33.3972 34.0890
" />
<path d="M33.3972 34.0890
L33.3972 34.1495
" />
</g></g> 
</svg>
