<?xml version="1.0" standalone="no"?>
 <!DOCTYPE svg PUBLIC "-//W3C//DTD SVG 1.1//EN" 
 "http://www.w3.org/Graphics/SVG/1.1/DTD/svg11.dtd"> 
<svg
  xmlns:svg="http://www.w3.org/2000/svg"
  xmlns="http://www.w3.org/2000/svg"
  xmlns:xlink="http://www.w3.org/1999/xlink"
  xmlns:inkscape="http://www.inkscape.org/namespaces/inkscape"
  version="1.1"
  width="48.1076mm" height="48.1076mm" viewBox="0.0000 0.0000 48.1076 48.1076">
<title>SVG Image created as Engine - Solid_unit1.svg date 2026-05-31T11:36:36 </title>
  <desc>Image generated by Eeschema-SVG </desc>
<g style="fill:#000000; fill-opacity:1.0000;stroke:#000000; stroke-opacity:1.0000;
stroke-linecap:round; stroke-linejoin:round;"
 transform="translate(0 0) scale(1 1)">
</g>
<g style="fill:#840000; fill-opacity:1.0000; 
stroke:#840000; stroke-width:0.1000; stroke-opacity:1; 
stroke-linecap:round; stroke-linejoin:round;">
<rect x="21.053800" y="13.053800" width="2.000000" height="6.000000" rx="0.000000" />
<path style="fill:none; 
stroke:#840000; stroke-width:0.1000; stroke-opacity:1; 
stroke-linecap:round; stroke-linejoin:round;fill:none"
d="M 24.0538,12.0538
27.0538,12.0538
27.0538,20.0538
25.0538,24.0538
" /> 
<path style="fill:none; 
stroke:#840000; stroke-width:0.1000; stroke-opacity:1; 
stroke-linecap:round; stroke-linejoin:round;fill:none"
d="M 24.0538,12.0538
21.0538,12.0538
21.0538,20.0538
23.0538,24.0538
20.0538,29.0538
" /> 
</g>
<g style="fill:#840000; fill-opacity:1.0000; 
stroke:#840000; stroke-width:0.1000; stroke-opacity:1; 
stroke-linecap:round; stroke-linejoin:round;">
<rect x="25.053800" y="13.053800" width="2.000000" height="6.000000" rx="0.000000" />
<path style="fill:none; 
stroke:#840000; stroke-width:0.1000; stroke-opacity:1; 
stroke-linecap:round; stroke-linejoin:round;fill:none"
d="M 25.0538,24.0538
28.0538,29.0538
" /> 
</g>
<g style="fill:none; 
stroke:#006464; stroke-width:0.1524; stroke-opacity:1; 
stroke-linecap:round; stroke-linejoin:round;">
<text x="24.0538" y="34.6888"
textLength="13.3263" font-size="1.6933" lengthAdjust="spacingAndGlyphs"
text-anchor="middle" opacity="0" stroke-opacity="0">Engine_Solid?</text>
<g class="stroked-text"><desc>Engine_Solid?</desc>
<path d="M17.7946 33.9681
L18.2180 33.9681
" />
<path d="M18.3994 34.6333
L17.7946 34.6333
" />
<path d="M17.7946 34.6333
L17.7946 33.3633
" />
<path d="M17.7946 33.3633
L18.3994 33.3633
" />
<path d="M18.9436 33.7867
L18.9436 34.6333
" />
<path d="M18.9436 33.9076
L19.0041 33.8471
" />
<path d="M19.0041 33.8471
L19.1251 33.7867
" />
<path d="M19.1251 33.7867
L19.3065 33.7867
" />
<path d="M19.3065 33.7867
L19.4274 33.8471
" />
<path d="M19.4274 33.8471
L19.4879 33.9681
" />
<path d="M19.4879 33.9681
L19.4879 34.6333
" />
<path d="M20.6369 33.7867
L20.6369 34.8148
" />
<path d="M20.6369 34.8148
L20.5764 34.9357
" />
<path d="M20.5764 34.9357
L20.5160 34.9962
" />
<path d="M20.5160 34.9962
L20.3950 35.0567
" />
<path d="M20.3950 35.0567
L20.2136 35.0567
" />
<path d="M20.2136 35.0567
L20.0926 34.9962
" />
<path d="M20.6369 34.5729
L20.5160 34.6333
" />
<path d="M20.5160 34.6333
L20.2741 34.6333
" />
<path d="M20.2741 34.6333
L20.1531 34.5729
" />
<path d="M20.1531 34.5729
L20.0926 34.5124
" />
<path d="M20.0926 34.5124
L20.0322 34.3914
" />
<path d="M20.0322 34.3914
L20.0322 34.0286
" />
<path d="M20.0322 34.0286
L20.0926 33.9076
" />
<path d="M20.0926 33.9076
L20.1531 33.8471
" />
<path d="M20.1531 33.8471
L20.2741 33.7867
" />
<path d="M20.2741 33.7867
L20.5160 33.7867
" />
<path d="M20.5160 33.7867
L20.6369 33.8471
" />
<path d="M21.2416 34.6333
L21.2416 33.7867
" />
<path d="M21.2416 33.3633
L21.1812 33.4238
" />
<path d="M21.1812 33.4238
L21.2416 33.4843
" />
<path d="M21.2416 33.4843
L21.3021 33.4238
" />
<path d="M21.3021 33.4238
L21.2416 33.3633
" />
<path d="M21.2416 33.3633
L21.2416 33.4843
" />
<path d="M21.8464 33.7867
L21.8464 34.6333
" />
<path d="M21.8464 33.9076
L21.9069 33.8471
" />
<path d="M21.9069 33.8471
L22.0279 33.7867
" />
<path d="M22.0279 33.7867
L22.2093 33.7867
" />
<path d="M22.2093 33.7867
L22.3302 33.8471
" />
<path d="M22.3302 33.8471
L22.3907 33.9681
" />
<path d="M22.3907 33.9681
L22.3907 34.6333
" />
<path d="M23.4792 34.5729
L23.3583 34.6333
" />
<path d="M23.3583 34.6333
L23.1164 34.6333
" />
<path d="M23.1164 34.6333
L22.9954 34.5729
" />
<path d="M22.9954 34.5729
L22.9350 34.4519
" />
<path d="M22.9350 34.4519
L22.9350 33.9681
" />
<path d="M22.9350 33.9681
L22.9954 33.8471
" />
<path d="M22.9954 33.8471
L23.1164 33.7867
" />
<path d="M23.1164 33.7867
L23.3583 33.7867
" />
<path d="M23.3583 33.7867
L23.4792 33.8471
" />
<path d="M23.4792 33.8471
L23.5397 33.9681
" />
<path d="M23.5397 33.9681
L23.5397 34.0890
" />
<path d="M23.5397 34.0890
L22.9350 34.2100
" />
<path d="M23.7817 34.7543
L24.7493 34.7543
" />
<path d="M24.9912 34.5729
L25.1726 34.6333
" />
<path d="M25.1726 34.6333
L25.4750 34.6333
" />
<path d="M25.4750 34.6333
L25.5959 34.5729
" />
<path d="M25.5959 34.5729
L25.6564 34.5124
" />
<path d="M25.6564 34.5124
L25.7169 34.3914
" />
<path d="M25.7169 34.3914
L25.7169 34.2705
" />
<path d="M25.7169 34.2705
L25.6564 34.1495
" />
<path d="M25.6564 34.1495
L25.5959 34.0890
" />
<path d="M25.5959 34.0890
L25.4750 34.0286
" />
<path d="M25.4750 34.0286
L25.2331 33.9681
" />
<path d="M25.2331 33.9681
L25.1121 33.9076
" />
<path d="M25.1121 33.9076
L25.0516 33.8471
" />
<path d="M25.0516 33.8471
L24.9912 33.7262
" />
<path d="M24.9912 33.7262
L24.9912 33.6052
" />
<path d="M24.9912 33.6052
L25.0516 33.4843
" />
<path d="M25.0516 33.4843
L25.1121 33.4238
" />
<path d="M25.1121 33.4238
L25.2331 33.3633
" />
<path d="M25.2331 33.3633
L25.5354 33.3633
" />
<path d="M25.5354 33.3633
L25.7169 33.4238
" />
<path d="M26.4426 34.6333
L26.3216 34.5729
" />
<path d="M26.3216 34.5729
L26.2611 34.5124
" />
<path d="M26.2611 34.5124
L26.2007 34.3914
" />
<path d="M26.2007 34.3914
L26.2007 34.0286
" />
<path d="M26.2007 34.0286
L26.2611 33.9076
" />
<path d="M26.2611 33.9076
L26.3216 33.8471
" />
<path d="M26.3216 33.8471
L26.4426 33.7867
" />
<path d="M26.4426 33.7867
L26.6240 33.7867
" />
<path d="M26.6240 33.7867
L26.7449 33.8471
" />
<path d="M26.7449 33.8471
L26.8054 33.9076
" />
<path d="M26.8054 33.9076
L26.8659 34.0286
" />
<path d="M26.8659 34.0286
L26.8659 34.3914
" />
<path d="M26.8659 34.3914
L26.8054 34.5124
" />
<path d="M26.8054 34.5124
L26.7449 34.5729
" />
<path d="M26.7449 34.5729
L26.6240 34.6333
" />
<path d="M26.6240 34.6333
L26.4426 34.6333
" />
<path d="M27.5916 34.6333
L27.4706 34.5729
" />
<path d="M27.4706 34.5729
L27.4101 34.4519
" />
<path d="M27.4101 34.4519
L27.4101 33.3633
" />
<path d="M28.0753 34.6333
L28.0753 33.7867
" />
<path d="M28.0753 33.3633
L28.0149 33.4238
" />
<path d="M28.0149 33.4238
L28.0753 33.4843
" />
<path d="M28.0753 33.4843
L28.1358 33.4238
" />
<path d="M28.1358 33.4238
L28.0753 33.3633
" />
<path d="M28.0753 33.3633
L28.0753 33.4843
" />
<path d="M29.2244 34.6333
L29.2244 33.3633
" />
<path d="M29.2244 34.5729
L29.1035 34.6333
" />
<path d="M29.1035 34.6333
L28.8616 34.6333
" />
<path d="M28.8616 34.6333
L28.7406 34.5729
" />
<path d="M28.7406 34.5729
L28.6801 34.5124
" />
<path d="M28.6801 34.5124
L28.6197 34.3914
" />
<path d="M28.6197 34.3914
L28.6197 34.0286
" />
<path d="M28.6197 34.0286
L28.6801 33.9076
" />
<path d="M28.6801 33.9076
L28.7406 33.8471
" />
<path d="M28.7406 33.8471
L28.8616 33.7867
" />
<path d="M28.8616 33.7867
L29.1035 33.7867
" />
<path d="M29.1035 33.7867
L29.2244 33.8471
" />
<path d="M30.0106 34.5124
L30.0710 34.5729
" />
<path d="M30.0710 34.5729
L30.0106 34.6333
" />
<path d="M30.0106 34.6333
L29.9501 34.5729
" />
<path d="M29.9501 34.5729
L30.0106 34.5124
" />
<path d="M30.0106 34.5124
L30.0106 34.6333
" />
<path d="M29.7687 33.4238
L29.8896 33.3633
" />
<path d="M29.8896 33.3633
L30.1920 33.3633
" />
<path d="M30.1920 33.3633
L30.3129 33.4238
" />
<path d="M30.3129 33.4238
L30.3734 33.5448
" />
<path d="M30.3734 33.5448
L30.3734 33.6657
" />
<path d="M30.3734 33.6657
L30.3129 33.7867
" />
<path d="M30.3129 33.7867
L30.2525 33.8471
" />
<path d="M30.2525 33.8471
L30.1315 33.9076
" />
<path d="M30.1315 33.9076
L30.0710 33.9681
" />
<path d="M30.0710 33.9681
L30.0106 34.0890
" />
<path d="M30.0106 34.0890
L30.0106 34.1495
" />
</g></g> 
</svg>
