<!-- Copyright 2026 Kingston University Rocket Engineering -->

<?xml version="1.0" standalone="no"?>
 <!DOCTYPE svg PUBLIC "-//W3C//DTD SVG 1.1//EN"
 "http://www.w3.org/Graphics/SVG/1.1/DTD/svg11.dtd">
<svg
  xmlns:svg="http://www.w3.org/2000/svg"
  xmlns="http://www.w3.org/2000/svg"
  xmlns:xlink="http://www.w3.org/1999/xlink"
  xmlns:inkscape="http://www.inkscape.org/namespaces/inkscape"
  version="1.1"
  width="48.1076mm" height="48.1076mm" viewBox="0.0000 0.0000 48.1076 48.1076">
<title>SVG Image created as Engine - Hybrid_unit1.svg date 2026-05-31T11:36:35 </title>
  <desc>Image generated by Eeschema-SVG </desc>
<g style="fill:#000000; fill-opacity:1.0000;stroke:#000000; stroke-opacity:1.0000;
stroke-linecap:round; stroke-linejoin:round;"
 transform="translate(0 0) scale(1 1)">
</g>
<g style="fill:#840000; fill-opacity:1.0000;
stroke:#840000; stroke-width:0.1000; stroke-opacity:1;
stroke-linecap:round; stroke-linejoin:round;">
<rect x="21.053800" y="13.053800" width="2.000000" height="6.000000" rx="0.000000" />
<path style="fill:#840000; fill-opacity:1.0000;
stroke:#840000; stroke-width:0.1524; stroke-opacity:1;
stroke-linecap:round; stroke-linejoin:round;fill-rule:evenodd;"
d="M 24.0538,11.8038
24.3038,10.8038
23.8038,10.8038
Z" />
<path style="fill:none;
stroke:#840000; stroke-width:0.1000; stroke-opacity:1;
stroke-linecap:round; stroke-linejoin:round;fill:none"
d="M 24.0538,12.0538
27.0538,12.0538
27.0538,20.0538
25.0538,24.0538
" />
<path style="fill:none;
stroke:#840000; stroke-width:0.1000; stroke-opacity:1;
stroke-linecap:round; stroke-linejoin:round;fill:none"
d="M 24.0538,12.0538
21.0538,12.0538
21.0538,20.0538
23.0538,24.0538
20.0538,29.0538
" />
</g>
<g style="fill:#840000; fill-opacity:1.0000;
stroke:#840000; stroke-width:0.1000; stroke-opacity:1;
stroke-linecap:round; stroke-linejoin:round;">
<rect x="25.053800" y="13.053800" width="2.000000" height="6.000000" rx="0.000000" />
<path style="fill:none;
stroke:#840000; stroke-width:0.1000; stroke-opacity:1;
stroke-linecap:round; stroke-linejoin:round;fill:none"
d="M 25.0538,24.0538
28.0538,29.0538
" />
</g>
<g style="fill:none;
stroke:#840000; stroke-width:0.1524; stroke-opacity:1;
stroke-linecap:round; stroke-linejoin:round;">
<path d="M24.0538 12.0538
L24.0538 9.0538
" />
</g>
<g style="fill:none;
stroke:#006464; stroke-width:0.1524; stroke-opacity:1;
stroke-linecap:round; stroke-linejoin:round;">
<text x="24.0538" y="34.6888"
textLength="14.5359" font-size="1.6933" lengthAdjust="spacingAndGlyphs"
text-anchor="middle" opacity="0" stroke-opacity="0">Engine_Hybrid?</text>
<g class="stroked-text"><desc>Engine_Hybrid?</desc>
<path d="M17.1898 33.9681
L17.6132 33.9681
" />
<path d="M17.7946 34.6333
L17.1898 34.6333
" />
<path d="M17.1898 34.6333
L17.1898 33.3633
" />
<path d="M17.1898 33.3633
L17.7946 33.3633
" />
<path d="M18.3388 33.7867
L18.3388 34.6333
" />
<path d="M18.3388 33.9076
L18.3993 33.8471
" />
<path d="M18.3993 33.8471
L18.5203 33.7867
" />
<path d="M18.5203 33.7867
L18.7017 33.7867
" />
<path d="M18.7017 33.7867
L18.8226 33.8471
" />
<path d="M18.8226 33.8471
L18.8831 33.9681
" />
<path d="M18.8831 33.9681
L18.8831 34.6333
" />
<path d="M20.0321 33.7867
L20.0321 34.8148
" />
<path d="M20.0321 34.8148
L19.9716 34.9357
" />
<path d="M19.9716 34.9357
L19.9112 34.9962
" />
<path d="M19.9112 34.9962
L19.7902 35.0567
" />
<path d="M19.7902 35.0567
L19.6088 35.0567
" />
<path d="M19.6088 35.0567
L19.4878 34.9962
" />
<path d="M20.0321 34.5729
L19.9112 34.6333
" />
<path d="M19.9112 34.6333
L19.6693 34.6333
" />
<path d="M19.6693 34.6333
L19.5483 34.5729
" />
<path d="M19.5483 34.5729
L19.4878 34.5124
" />
<path d="M19.4878 34.5124
L19.4274 34.3914
" />
<path d="M19.4274 34.3914
L19.4274 34.0286
" />
<path d="M19.4274 34.0286
L19.4878 33.9076
" />
<path d="M19.4878 33.9076
L19.5483 33.8471
" />
<path d="M19.5483 33.8471
L19.6693 33.7867
" />
<path d="M19.6693 33.7867
L19.9112 33.7867
" />
<path d="M19.9112 33.7867
L20.0321 33.8471
" />
<path d="M20.6368 34.6333
L20.6368 33.7867
" />
<path d="M20.6368 33.3633
L20.5764 33.4238
" />
<path d="M20.5764 33.4238
L20.6368 33.4843
" />
<path d="M20.6368 33.4843
L20.6973 33.4238
" />
<path d="M20.6973 33.4238
L20.6368 33.3633
" />
<path d="M20.6368 33.3633
L20.6368 33.4843
" />
<path d="M21.2416 33.7867
L21.2416 34.6333
" />
<path d="M21.2416 33.9076
L21.3021 33.8471
" />
<path d="M21.3021 33.8471
L21.4231 33.7867
" />
<path d="M21.4231 33.7867
L21.6045 33.7867
" />
<path d="M21.6045 33.7867
L21.7254 33.8471
" />
<path d="M21.7254 33.8471
L21.7859 33.9681
" />
<path d="M21.7859 33.9681
L21.7859 34.6333
" />
<path d="M22.8744 34.5729
L22.7535 34.6333
" />
<path d="M22.7535 34.6333
L22.5116 34.6333
" />
<path d="M22.5116 34.6333
L22.3906 34.5729
" />
<path d="M22.3906 34.5729
L22.3302 34.4519
" />
<path d="M22.3302 34.4519
L22.3302 33.9681
" />
<path d="M22.3302 33.9681
L22.3906 33.8471
" />
<path d="M22.3906 33.8471
L22.5116 33.7867
" />
<path d="M22.5116 33.7867
L22.7535 33.7867
" />
<path d="M22.7535 33.7867
L22.8744 33.8471
" />
<path d="M22.8744 33.8471
L22.9349 33.9681
" />
<path d="M22.9349 33.9681
L22.9349 34.0890
" />
<path d="M22.9349 34.0890
L22.3302 34.2100
" />
<path d="M23.1769 34.7543
L24.1445 34.7543
" />
<path d="M24.4468 34.6333
L24.4468 33.3633
" />
<path d="M24.4468 33.9681
L25.1725 33.9681
" />
<path d="M25.1725 34.6333
L25.1725 33.3633
" />
<path d="M25.6564 33.7867
L25.9588 34.6333
" />
<path d="M26.2611 33.7867
L25.9588 34.6333
" />
<path d="M25.9588 34.6333
L25.8378 34.9357
" />
<path d="M25.8378 34.9357
L25.7773 34.9962
" />
<path d="M25.7773 34.9962
L25.6564 35.0567
" />
<path d="M26.7449 34.6333
L26.7449 33.3633
" />
<path d="M26.7449 33.8471
L26.8659 33.7867
" />
<path d="M26.8659 33.7867
L27.1078 33.7867
" />
<path d="M27.1078 33.7867
L27.2287 33.8471
" />
<path d="M27.2287 33.8471
L27.2892 33.9076
" />
<path d="M27.2892 33.9076
L27.3497 34.0286
" />
<path d="M27.3497 34.0286
L27.3497 34.3914
" />
<path d="M27.3497 34.3914
L27.2892 34.5124
" />
<path d="M27.2892 34.5124
L27.2287 34.5729
" />
<path d="M27.2287 34.5729
L27.1078 34.6333
" />
<path d="M27.1078 34.6333
L26.8659 34.6333
" />
<path d="M26.8659 34.6333
L26.7449 34.5729
" />
<path d="M27.8939 34.6333
L27.8939 33.7867
" />
<path d="M27.8939 34.0286
L27.9544 33.9076
" />
<path d="M27.9544 33.9076
L28.0149 33.8471
" />
<path d="M28.0149 33.8471
L28.1358 33.7867
" />
<path d="M28.1358 33.7867
L28.2568 33.7867
" />
<path d="M28.6801 34.6333
L28.6801 33.7867
" />
<path d="M28.6801 33.3633
L28.6197 33.4238
" />
<path d="M28.6197 33.4238
L28.6801 33.4843
" />
<path d="M28.6801 33.4843
L28.7406 33.4238
" />
<path d="M28.7406 33.4238
L28.6801 33.3633
" />
<path d="M28.6801 33.3633
L28.6801 33.4843
" />
<path d="M29.8292 34.6333
L29.8292 33.3633
" />
<path d="M29.8292 34.5729
L29.7083 34.6333
" />
<path d="M29.7083 34.6333
L29.4664 34.6333
" />
<path d="M29.4664 34.6333
L29.3454 34.5729
" />
<path d="M29.3454 34.5729
L29.2849 34.5124
" />
<path d="M29.2849 34.5124
L29.2245 34.3914
" />
<path d="M29.2245 34.3914
L29.2245 34.0286
" />
<path d="M29.2245 34.0286
L29.2849 33.9076
" />
<path d="M29.2849 33.9076
L29.3454 33.8471
" />
<path d="M29.3454 33.8471
L29.4664 33.7867
" />
<path d="M29.4664 33.7867
L29.7083 33.7867
" />
<path d="M29.7083 33.7867
L29.8292 33.8471
" />
<path d="M30.6154 34.5124
L30.6758 34.5729
" />
<path d="M30.6758 34.5729
L30.6154 34.6333
" />
<path d="M30.6154 34.6333
L30.5549 34.5729
" />
<path d="M30.5549 34.5729
L30.6154 34.5124
" />
<path d="M30.6154 34.5124
L30.6154 34.6333
" />
<path d="M30.3735 33.4238
L30.4944 33.3633
" />
<path d="M30.4944 33.3633
L30.7968 33.3633
" />
<path d="M30.7968 33.3633
L30.9177 33.4238
" />
<path d="M30.9177 33.4238
L30.9782 33.5448
" />
<path d="M30.9782 33.5448
L30.9782 33.6657
" />
<path d="M30.9782 33.6657
L30.9177 33.7867
" />
<path d="M30.9177 33.7867
L30.8573 33.8471
" />
<path d="M30.8573 33.8471
L30.7363 33.9076
" />
<path d="M30.7363 33.9076
L30.6758 33.9681
" />
<path d="M30.6758 33.9681
L30.6154 34.0890
" />
<path d="M30.6154 34.0890
L30.6154 34.1495
" />
</g></g>
</svg>
