<?xml version="1.0" standalone="no"?>
 <!DOCTYPE svg PUBLIC "-//W3C//DTD SVG 1.1//EN" 
 "http://www.w3.org/Graphics/SVG/1.1/DTD/svg11.dtd"> 
<svg
  xmlns:svg="http://www.w3.org/2000/svg"
  xmlns="http://www.w3.org/2000/svg"
  xmlns:xlink="http://www.w3.org/1999/xlink"
  xmlns:inkscape="http://www.inkscape.org/namespaces/inkscape"
  version="1.1"
  width="19.3294mm" height="22.8854mm" viewBox="0.0000 0.0000 19.3294 22.8854">
<title>SVG Image created as Vent - Uncovered_unit1.svg date 2026-05-31T11:36:36 </title>
  <desc>Image generated by Eeschema-SVG </desc>
<g style="fill:#000000; fill-opacity:1.0000;stroke:#000000; stroke-opacity:1.0000;
stroke-linecap:round; stroke-linejoin:round;"
 transform="translate(0 0) scale(1 1)">
<path style="fill:#840000; fill-opacity:1.0000; 
stroke:#840000; stroke-width:0.1000; stroke-opacity:1; 
stroke-linecap:round; stroke-linejoin:round;fill-rule:evenodd;"
d="M 12.6647,9.9569
11.6647,9.7069
11.6647,10.2069
Z" /> 
</g>
<g style="fill:none; 
stroke:#840000; stroke-width:0.1524; stroke-opacity:1; 
stroke-linecap:round; stroke-linejoin:round;">
<path d="M12.6647 9.9569
L9.6647 9.9569
" />
</g>
<g style="fill:none; 
stroke:#006464; stroke-width:0.1524; stroke-opacity:1; 
stroke-linecap:round; stroke-linejoin:round;">
<text x="9.6647" y="20.5919"
textLength="5.3437" font-size="1.6933" lengthAdjust="spacingAndGlyphs"
text-anchor="middle" opacity="0" stroke-opacity="0">Vent?</text>
<g class="stroked-text"><desc>Vent?</desc>
<path d="M7.2154 19.2664
L7.6387 20.5364
" />
<path d="M7.6387 20.5364
L8.0621 19.2664
" />
<path d="M8.9692 20.4760
L8.8483 20.5364
" />
<path d="M8.8483 20.5364
L8.6064 20.5364
" />
<path d="M8.6064 20.5364
L8.4854 20.4760
" />
<path d="M8.4854 20.4760
L8.4250 20.3550
" />
<path d="M8.4250 20.3550
L8.4250 19.8712
" />
<path d="M8.4250 19.8712
L8.4854 19.7502
" />
<path d="M8.4854 19.7502
L8.6064 19.6898
" />
<path d="M8.6064 19.6898
L8.8483 19.6898
" />
<path d="M8.8483 19.6898
L8.9692 19.7502
" />
<path d="M8.9692 19.7502
L9.0297 19.8712
" />
<path d="M9.0297 19.8712
L9.0297 19.9921
" />
<path d="M9.0297 19.9921
L8.4250 20.1131
" />
<path d="M9.5740 19.6898
L9.5740 20.5364
" />
<path d="M9.5740 19.8107
L9.6345 19.7502
" />
<path d="M9.6345 19.7502
L9.7555 19.6898
" />
<path d="M9.7555 19.6898
L9.9369 19.6898
" />
<path d="M9.9369 19.6898
L10.0578 19.7502
" />
<path d="M10.0578 19.7502
L10.1183 19.8712
" />
<path d="M10.1183 19.8712
L10.1183 20.5364
" />
<path d="M10.5416 19.6898
L11.0254 19.6898
" />
<path d="M10.7230 19.2664
L10.7230 20.3550
" />
<path d="M10.7230 20.3550
L10.7835 20.4760
" />
<path d="M10.7835 20.4760
L10.9045 20.5364
" />
<path d="M10.9045 20.5364
L11.0254 20.5364
" />
<path d="M11.6302 20.4155
L11.6906 20.4760
" />
<path d="M11.6906 20.4760
L11.6302 20.5364
" />
<path d="M11.6302 20.5364
L11.5697 20.4760
" />
<path d="M11.5697 20.4760
L11.6302 20.4155
" />
<path d="M11.6302 20.4155
L11.6302 20.5364
" />
<path d="M11.3883 19.3269
L11.5092 19.2664
" />
<path d="M11.5092 19.2664
L11.8116 19.2664
" />
<path d="M11.8116 19.2664
L11.9325 19.3269
" />
<path d="M11.9325 19.3269
L11.9930 19.4479
" />
<path d="M11.9930 19.4479
L11.9930 19.5688
" />
<path d="M11.9930 19.5688
L11.9325 19.6898
" />
<path d="M11.9325 19.6898
L11.8721 19.7502
" />
<path d="M11.8721 19.7502
L11.7511 19.8107
" />
<path d="M11.7511 19.8107
L11.6906 19.8712
" />
<path d="M11.6906 19.8712
L11.6302 19.9921
" />
<path d="M11.6302 19.9921
L11.6302 20.0526
" />
</g></g> 
</svg>
