<?xml version="1.0" standalone="no"?>
 <!DOCTYPE svg PUBLIC "-//W3C//DTD SVG 1.1//EN"
 "http://www.w3.org/Graphics/SVG/1.1/DTD/svg11.dtd">
<svg
  xmlns:svg="http://www.w3.org/2000/svg"
  xmlns="http://www.w3.org/2000/svg"
  xmlns:xlink="http://www.w3.org/1999/xlink"
  xmlns:inkscape="http://www.inkscape.org/namespaces/inkscape"
  version="1.1"
  width="48.1076mm" height="54.5084mm" viewBox="0.0000 0.0000 48.1076 54.5084">
<title>SVG Image created as Bottle - Small_unit1.svg date 2026-05-31T14:48:21 </title>
  <desc>Image generated by Eeschema-SVG </desc>
<g style="fill:#000000; fill-opacity:1.0000;stroke:#000000; stroke-opacity:1.0000;
stroke-linecap:round; stroke-linejoin:round;"
 transform="translate(0 0) scale(1 1)">
<path style="fill:none;
stroke:#840000; stroke-width:0.1524; stroke-opacity:1;
stroke-linecap:round; stroke-linejoin:round;fill:none"
d="M 19.0538,15.9198
19.0538,35.9198
" />
<path style="fill:none;
stroke:#840000; stroke-width:0.1524; stroke-opacity:1;
stroke-linecap:round; stroke-linejoin:round;fill:none"
d="M 19.0538,35.9198
28.0538,35.9198
28.0538,14.9198
" />
</g>
<g style="fill:none;
stroke:#840000; stroke-width:0.1524; stroke-opacity:1;
stroke-linecap:round; stroke-linejoin:round;">
<path d="M28.0531 14.9198 A4.0001 4.0001 0.0 0 0 24.0535 10.9195" />
<path d="M24.0536 10.9194 A8.3277 8.3277 0.0 0 0 19.0541 15.9201" />
<path style="fill:none;
stroke:#840000; stroke-width:0.1524; stroke-opacity:1;
stroke-linecap:round; stroke-linejoin:round;fill:none"
d="M 25.0538,10.9198
25.0538,7.9198
23.0538,7.9198
23.0538,10.9198
" />
<path d="M24.0538 7.9198
L24.0538 4.9198
" />
</g>
<g style="fill:none;
stroke:#006464; stroke-width:0.1524; stroke-opacity:1;
stroke-linecap:round; stroke-linejoin:round;">
<text x="24.0538" y="40.5548"
textLength="9.0931" font-size="1.6933" lengthAdjust="spacingAndGlyphs"
text-anchor="middle" opacity="0" stroke-opacity="0">Bottle_S?</text>
<g class="stroked-text"><desc>Bottle_S?</desc>
<path d="M20.3346 39.8341
L20.5160 39.8946
" />
<path d="M20.5160 39.8946
L20.5765 39.9550
" />
<path d="M20.5765 39.9550
L20.6369 40.0760
" />
<path d="M20.6369 40.0760
L20.6369 40.2574
" />
<path d="M20.6369 40.2574
L20.5765 40.3784
" />
<path d="M20.5765 40.3784
L20.5160 40.4389
" />
<path d="M20.5160 40.4389
L20.3950 40.4993
" />
<path d="M20.3950 40.4993
L19.9112 40.4993
" />
<path d="M19.9112 40.4993
L19.9112 39.2293
" />
<path d="M19.9112 39.2293
L20.3346 39.2293
" />
<path d="M20.3346 39.2293
L20.4555 39.2898
" />
<path d="M20.4555 39.2898
L20.5160 39.3503
" />
<path d="M20.5160 39.3503
L20.5765 39.4712
" />
<path d="M20.5765 39.4712
L20.5765 39.5922
" />
<path d="M20.5765 39.5922
L20.5160 39.7131
" />
<path d="M20.5160 39.7131
L20.4555 39.7736
" />
<path d="M20.4555 39.7736
L20.3346 39.8341
" />
<path d="M20.3346 39.8341
L19.9112 39.8341
" />
<path d="M21.3627 40.4993
L21.2417 40.4389
" />
<path d="M21.2417 40.4389
L21.1812 40.3784
" />
<path d="M21.1812 40.3784
L21.1208 40.2574
" />
<path d="M21.1208 40.2574
L21.1208 39.8946
" />
<path d="M21.1208 39.8946
L21.1812 39.7736
" />
<path d="M21.1812 39.7736
L21.2417 39.7131
" />
<path d="M21.2417 39.7131
L21.3627 39.6527
" />
<path d="M21.3627 39.6527
L21.5441 39.6527
" />
<path d="M21.5441 39.6527
L21.6650 39.7131
" />
<path d="M21.6650 39.7131
L21.7255 39.7736
" />
<path d="M21.7255 39.7736
L21.7860 39.8946
" />
<path d="M21.7860 39.8946
L21.7860 40.2574
" />
<path d="M21.7860 40.2574
L21.7255 40.3784
" />
<path d="M21.7255 40.3784
L21.6650 40.4389
" />
<path d="M21.6650 40.4389
L21.5441 40.4993
" />
<path d="M21.5441 40.4993
L21.3627 40.4993
" />
<path d="M22.1488 39.6527
L22.6326 39.6527
" />
<path d="M22.3302 39.2293
L22.3302 40.3179
" />
<path d="M22.3302 40.3179
L22.3907 40.4389
" />
<path d="M22.3907 40.4389
L22.5117 40.4993
" />
<path d="M22.5117 40.4993
L22.6326 40.4993
" />
<path d="M22.8745 39.6527
L23.3583 39.6527
" />
<path d="M23.0559 39.2293
L23.0559 40.3179
" />
<path d="M23.0559 40.3179
L23.1164 40.4389
" />
<path d="M23.1164 40.4389
L23.2374 40.4993
" />
<path d="M23.2374 40.4993
L23.3583 40.4993
" />
<path d="M23.9631 40.4993
L23.8421 40.4389
" />
<path d="M23.8421 40.4389
L23.7816 40.3179
" />
<path d="M23.7816 40.3179
L23.7816 39.2293
" />
<path d="M24.9306 40.4389
L24.8097 40.4993
" />
<path d="M24.8097 40.4993
L24.5678 40.4993
" />
<path d="M24.5678 40.4993
L24.4468 40.4389
" />
<path d="M24.4468 40.4389
L24.3864 40.3179
" />
<path d="M24.3864 40.3179
L24.3864 39.8341
" />
<path d="M24.3864 39.8341
L24.4468 39.7131
" />
<path d="M24.4468 39.7131
L24.5678 39.6527
" />
<path d="M24.5678 39.6527
L24.8097 39.6527
" />
<path d="M24.8097 39.6527
L24.9306 39.7131
" />
<path d="M24.9306 39.7131
L24.9911 39.8341
" />
<path d="M24.9911 39.8341
L24.9911 39.9550
" />
<path d="M24.9911 39.9550
L24.3864 40.0760
" />
<path d="M25.2331 40.6203
L26.2007 40.6203
" />
<path d="M26.4426 40.4389
L26.6240 40.4993
" />
<path d="M26.6240 40.4993
L26.9264 40.4993
" />
<path d="M26.9264 40.4993
L27.0473 40.4389
" />
<path d="M27.0473 40.4389
L27.1078 40.3784
" />
<path d="M27.1078 40.3784
L27.1683 40.2574
" />
<path d="M27.1683 40.2574
L27.1683 40.1365
" />
<path d="M27.1683 40.1365
L27.1078 40.0155
" />
<path d="M27.1078 40.0155
L27.0473 39.9550
" />
<path d="M27.0473 39.9550
L26.9264 39.8946
" />
<path d="M26.9264 39.8946
L26.6845 39.8341
" />
<path d="M26.6845 39.8341
L26.5635 39.7736
" />
<path d="M26.5635 39.7736
L26.5030 39.7131
" />
<path d="M26.5030 39.7131
L26.4426 39.5922
" />
<path d="M26.4426 39.5922
L26.4426 39.4712
" />
<path d="M26.4426 39.4712
L26.5030 39.3503
" />
<path d="M26.5030 39.3503
L26.5635 39.2898
" />
<path d="M26.5635 39.2898
L26.6845 39.2293
" />
<path d="M26.6845 39.2293
L26.9868 39.2293
" />
<path d="M26.9868 39.2293
L27.1683 39.2898
" />
<path d="M27.8940 40.3784
L27.9544 40.4389
" />
<path d="M27.9544 40.4389
L27.8940 40.4993
" />
<path d="M27.8940 40.4993
L27.8335 40.4389
" />
<path d="M27.8335 40.4389
L27.8940 40.3784
" />
<path d="M27.8940 40.3784
L27.8940 40.4993
" />
<path d="M27.6521 39.2898
L27.7730 39.2293
" />
<path d="M27.7730 39.2293
L28.0754 39.2293
" />
<path d="M28.0754 39.2293
L28.1963 39.2898
" />
<path d="M28.1963 39.2898
L28.2568 39.4108
" />
<path d="M28.2568 39.4108
L28.2568 39.5317
" />
<path d="M28.2568 39.5317
L28.1963 39.6527
" />
<path d="M28.1963 39.6527
L28.1359 39.7131
" />
<path d="M28.1359 39.7131
L28.0149 39.7736
" />
<path d="M28.0149 39.7736
L27.9544 39.8341
" />
<path d="M27.9544 39.8341
L27.8940 39.9550
" />
<path d="M27.8940 39.9550
L27.8940 40.0155
" />
</g></g>
</svg>
