<?xml version="1.0" standalone="no"?>
 <!DOCTYPE svg PUBLIC "-//W3C//DTD SVG 1.1//EN"
 "http://www.w3.org/Graphics/SVG/1.1/DTD/svg11.dtd">
<svg
  xmlns:svg="http://www.w3.org/2000/svg"
  xmlns="http://www.w3.org/2000/svg"
  xmlns:xlink="http://www.w3.org/1999/xlink"
  xmlns:inkscape="http://www.inkscape.org/namespaces/inkscape"
  version="1.1"
  width="48.1076mm" height="72.5170mm" viewBox="0.0000 0.0000 48.1076 72.5170">
<title>SVG Image created as Bottle - Dip Tube_unit1.svg date 2026-05-31T11:36:18 </title>
  <desc>Image generated by Eeschema-SVG </desc>
<g style="fill:#000000; fill-opacity:1.0000;stroke:#000000; stroke-opacity:1.0000;
stroke-linecap:round; stroke-linejoin:round;"
 transform="translate(0 0) scale(1 1)">
<path style="fill:none;
stroke:#840000; stroke-width:0.1524; stroke-opacity:1;
stroke-linecap:round; stroke-linejoin:round;fill:none"
d="M 19.0538,17.4241
19.0538,52.4241
" />
<path style="fill:none;
stroke:#840000; stroke-width:0.1524; stroke-opacity:1;
stroke-linecap:round; stroke-linejoin:round;fill:none"
d="M 19.0538,52.4241
28.0538,52.4241
28.0538,16.4241
" />
</g>
<g style="fill:none;
stroke:#840000; stroke-width:0.1524; stroke-opacity:1;
stroke-linecap:round; stroke-linejoin:round;">
<path d="M24.0538 12.4237 A4.9989 4.9989 0.0 0 0 19.0541 17.4244" />
<line x1="24.0538" y1="12.4241" x2="24.0538" y2="51.4241" />
<path d="M28.0538 16.4241 A3.9988 3.9988 0.0 0 0 24.0535 12.4238" />
<path style="fill:none;
stroke:#840000; stroke-width:0.1524; stroke-opacity:1;
stroke-linecap:round; stroke-linejoin:round;fill:none"
d="M 25.0538,12.4241
25.0538,9.4241
23.0538,9.4241
23.0538,12.4241
" />
<path d="M24.0538 9.4241
L24.0538 6.4241
" />
</g>
<g style="fill:none;
stroke:#006464; stroke-width:0.1524; stroke-opacity:1;
stroke-linecap:round; stroke-linejoin:round;">
<text x="24.0538" y="57.0591"
textLength="16.2292" font-size="1.6933" lengthAdjust="spacingAndGlyphs"
text-anchor="middle" opacity="0" stroke-opacity="0">Dip_Tube_Bottle?</text>
<g class="stroked-text"><desc>Dip_Tube_Bottle?</desc>
<path d="M16.3431 57.0036
L16.3431 55.7336
" />
<path d="M16.3431 55.7336
L16.6455 55.7336
" />
<path d="M16.6455 55.7336
L16.8269 55.7941
" />
<path d="M16.8269 55.7941
L16.9479 55.9151
" />
<path d="M16.9479 55.9151
L17.0084 56.0360
" />
<path d="M17.0084 56.0360
L17.0688 56.2779
" />
<path d="M17.0688 56.2779
L17.0688 56.4593
" />
<path d="M17.0688 56.4593
L17.0084 56.7012
" />
<path d="M17.0084 56.7012
L16.9479 56.8222
" />
<path d="M16.9479 56.8222
L16.8269 56.9432
" />
<path d="M16.8269 56.9432
L16.6455 57.0036
" />
<path d="M16.6455 57.0036
L16.3431 57.0036
" />
<path d="M17.6131 57.0036
L17.6131 56.1570
" />
<path d="M17.6131 55.7336
L17.5527 55.7941
" />
<path d="M17.5527 55.7941
L17.6131 55.8546
" />
<path d="M17.6131 55.8546
L17.6736 55.7941
" />
<path d="M17.6736 55.7941
L17.6131 55.7336
" />
<path d="M17.6131 55.7336
L17.6131 55.8546
" />
<path d="M18.2179 56.1570
L18.2179 57.4270
" />
<path d="M18.2179 56.2174
L18.3389 56.1570
" />
<path d="M18.3389 56.1570
L18.5808 56.1570
" />
<path d="M18.5808 56.1570
L18.7017 56.2174
" />
<path d="M18.7017 56.2174
L18.7622 56.2779
" />
<path d="M18.7622 56.2779
L18.8227 56.3989
" />
<path d="M18.8227 56.3989
L18.8227 56.7617
" />
<path d="M18.8227 56.7617
L18.7622 56.8827
" />
<path d="M18.7622 56.8827
L18.7017 56.9432
" />
<path d="M18.7017 56.9432
L18.5808 57.0036
" />
<path d="M18.5808 57.0036
L18.3389 57.0036
" />
<path d="M18.3389 57.0036
L18.2179 56.9432
" />
<path d="M19.0646 57.1246
L20.0322 57.1246
" />
<path d="M20.1531 55.7336
L20.8788 55.7336
" />
<path d="M20.5160 57.0036
L20.5160 55.7336
" />
<path d="M21.8464 56.1570
L21.8464 57.0036
" />
<path d="M21.3021 56.1570
L21.3021 56.8222
" />
<path d="M21.3021 56.8222
L21.3626 56.9432
" />
<path d="M21.3626 56.9432
L21.4836 57.0036
" />
<path d="M21.4836 57.0036
L21.6650 57.0036
" />
<path d="M21.6650 57.0036
L21.7859 56.9432
" />
<path d="M21.7859 56.9432
L21.8464 56.8827
" />
<path d="M22.4511 57.0036
L22.4511 55.7336
" />
<path d="M22.4511 56.2174
L22.5721 56.1570
" />
<path d="M22.5721 56.1570
L22.8140 56.1570
" />
<path d="M22.8140 56.1570
L22.9349 56.2174
" />
<path d="M22.9349 56.2174
L22.9954 56.2779
" />
<path d="M22.9954 56.2779
L23.0559 56.3989
" />
<path d="M23.0559 56.3989
L23.0559 56.7617
" />
<path d="M23.0559 56.7617
L22.9954 56.8827
" />
<path d="M22.9954 56.8827
L22.9349 56.9432
" />
<path d="M22.9349 56.9432
L22.8140 57.0036
" />
<path d="M22.8140 57.0036
L22.5721 57.0036
" />
<path d="M22.5721 57.0036
L22.4511 56.9432
" />
<path d="M24.0839 56.9432
L23.9630 57.0036
" />
<path d="M23.9630 57.0036
L23.7211 57.0036
" />
<path d="M23.7211 57.0036
L23.6001 56.9432
" />
<path d="M23.6001 56.9432
L23.5397 56.8222
" />
<path d="M23.5397 56.8222
L23.5397 56.3384
" />
<path d="M23.5397 56.3384
L23.6001 56.2174
" />
<path d="M23.6001 56.2174
L23.7211 56.1570
" />
<path d="M23.7211 56.1570
L23.9630 56.1570
" />
<path d="M23.9630 56.1570
L24.0839 56.2174
" />
<path d="M24.0839 56.2174
L24.1444 56.3384
" />
<path d="M24.1444 56.3384
L24.1444 56.4593
" />
<path d="M24.1444 56.4593
L23.5397 56.5803
" />
<path d="M24.3864 57.1246
L25.3540 57.1246
" />
<path d="M26.0797 56.3384
L26.2611 56.3989
" />
<path d="M26.2611 56.3989
L26.3216 56.4593
" />
<path d="M26.3216 56.4593
L26.3820 56.5803
" />
<path d="M26.3820 56.5803
L26.3820 56.7617
" />
<path d="M26.3820 56.7617
L26.3216 56.8827
" />
<path d="M26.3216 56.8827
L26.2611 56.9432
" />
<path d="M26.2611 56.9432
L26.1401 57.0036
" />
<path d="M26.1401 57.0036
L25.6563 57.0036
" />
<path d="M25.6563 57.0036
L25.6563 55.7336
" />
<path d="M25.6563 55.7336
L26.0797 55.7336
" />
<path d="M26.0797 55.7336
L26.2006 55.7941
" />
<path d="M26.2006 55.7941
L26.2611 55.8546
" />
<path d="M26.2611 55.8546
L26.3216 55.9755
" />
<path d="M26.3216 55.9755
L26.3216 56.0965
" />
<path d="M26.3216 56.0965
L26.2611 56.2174
" />
<path d="M26.2611 56.2174
L26.2006 56.2779
" />
<path d="M26.2006 56.2779
L26.0797 56.3384
" />
<path d="M26.0797 56.3384
L25.6563 56.3384
" />
<path d="M27.1078 57.0036
L26.9868 56.9432
" />
<path d="M26.9868 56.9432
L26.9263 56.8827
" />
<path d="M26.9263 56.8827
L26.8659 56.7617
" />
<path d="M26.8659 56.7617
L26.8659 56.3989
" />
<path d="M26.8659 56.3989
L26.9263 56.2779
" />
<path d="M26.9263 56.2779
L26.9868 56.2174
" />
<path d="M26.9868 56.2174
L27.1078 56.1570
" />
<path d="M27.1078 56.1570
L27.2892 56.1570
" />
<path d="M27.2892 56.1570
L27.4101 56.2174
" />
<path d="M27.4101 56.2174
L27.4706 56.2779
" />
<path d="M27.4706 56.2779
L27.5311 56.3989
" />
<path d="M27.5311 56.3989
L27.5311 56.7617
" />
<path d="M27.5311 56.7617
L27.4706 56.8827
" />
<path d="M27.4706 56.8827
L27.4101 56.9432
" />
<path d="M27.4101 56.9432
L27.2892 57.0036
" />
<path d="M27.2892 57.0036
L27.1078 57.0036
" />
<path d="M27.8939 56.1570
L28.3777 56.1570
" />
<path d="M28.0753 55.7336
L28.0753 56.8222
" />
<path d="M28.0753 56.8222
L28.1358 56.9432
" />
<path d="M28.1358 56.9432
L28.2568 57.0036
" />
<path d="M28.2568 57.0036
L28.3777 57.0036
" />
<path d="M28.6196 56.1570
L29.1034 56.1570
" />
<path d="M28.8010 55.7336
L28.8010 56.8222
" />
<path d="M28.8010 56.8222
L28.8615 56.9432
" />
<path d="M28.8615 56.9432
L28.9825 57.0036
" />
<path d="M28.9825 57.0036
L29.1034 57.0036
" />
<path d="M29.7082 57.0036
L29.5872 56.9432
" />
<path d="M29.5872 56.9432
L29.5267 56.8222
" />
<path d="M29.5267 56.8222
L29.5267 55.7336
" />
<path d="M30.6757 56.9432
L30.5548 57.0036
" />
<path d="M30.5548 57.0036
L30.3129 57.0036
" />
<path d="M30.3129 57.0036
L30.1919 56.9432
" />
<path d="M30.1919 56.9432
L30.1315 56.8222
" />
<path d="M30.1315 56.8222
L30.1315 56.3384
" />
<path d="M30.1315 56.3384
L30.1919 56.2174
" />
<path d="M30.1919 56.2174
L30.3129 56.1570
" />
<path d="M30.3129 56.1570
L30.5548 56.1570
" />
<path d="M30.5548 56.1570
L30.6757 56.2174
" />
<path d="M30.6757 56.2174
L30.7362 56.3384
" />
<path d="M30.7362 56.3384
L30.7362 56.4593
" />
<path d="M30.7362 56.4593
L30.1315 56.5803
" />
<path d="M31.4620 56.8827
L31.5224 56.9432
" />
<path d="M31.5224 56.9432
L31.4620 57.0036
" />
<path d="M31.4620 57.0036
L31.4015 56.9432
" />
<path d="M31.4015 56.9432
L31.4620 56.8827
" />
<path d="M31.4620 56.8827
L31.4620 57.0036
" />
<path d="M31.2201 55.7941
L31.3410 55.7336
" />
<path d="M31.3410 55.7336
L31.6434 55.7336
" />
<path d="M31.6434 55.7336
L31.7643 55.7941
" />
<path d="M31.7643 55.7941
L31.8248 55.9151
" />
<path d="M31.8248 55.9151
L31.8248 56.0360
" />
<path d="M31.8248 56.0360
L31.7643 56.1570
" />
<path d="M31.7643 56.1570
L31.7039 56.2174
" />
<path d="M31.7039 56.2174
L31.5829 56.2779
" />
<path d="M31.5829 56.2779
L31.5224 56.3384
" />
<path d="M31.5224 56.3384
L31.4620 56.4593
" />
<path d="M31.4620 56.4593
L31.4620 56.5198
" />
</g></g>
</svg>
