<?xml version="1.0" standalone="no"?>
 <!DOCTYPE svg PUBLIC "-//W3C//DTD SVG 1.1//EN"
 "http://www.w3.org/Graphics/SVG/1.1/DTD/svg11.dtd">
<svg
  xmlns:svg="http://www.w3.org/2000/svg"
  xmlns="http://www.w3.org/2000/svg"
  xmlns:xlink="http://www.w3.org/1999/xlink"
  xmlns:inkscape="http://www.inkscape.org/namespaces/inkscape"
  version="1.1"
  width="28.9306mm" height="49.7078mm" viewBox="0.0000 0.0000 28.9306 49.7078">
<title>SVG Image created as Bottle - Small_unit1.svg date 2026-05-31T14:56:31 </title>
  <desc>Image generated by Eeschema-SVG </desc>
<g style="fill:#000000; fill-opacity:1.0000;stroke:#000000; stroke-opacity:1.0000;
stroke-linecap:round; stroke-linejoin:round;"
 transform="translate(0 0) scale(1 1)">
<path style="fill:none;
stroke:#840000; stroke-width:0.1524; stroke-opacity:1;
stroke-linecap:round; stroke-linejoin:round;fill:none"
d="M 10.4653,14.5195
10.4653,38.5195
" />
<path style="fill:none;
stroke:#840000; stroke-width:0.1524; stroke-opacity:1;
stroke-linecap:round; stroke-linejoin:round;fill:none"
d="M 10.4653,38.5195
17.4653,38.5195
17.4653,13.5195
" />
</g>
<g style="fill:none;
stroke:#840000; stroke-width:0.1524; stroke-opacity:1;
stroke-linecap:round; stroke-linejoin:round;">
<path d="M17.4651 13.5195 A3.0001 3.0001 0.0 0 0 14.4653 10.5195" />
<path d="M14.4653 10.5199 A3.9997 3.9997 0.0 0 0 10.4653 14.5195" />
<path style="fill:none;
stroke:#840000; stroke-width:0.1524; stroke-opacity:1;
stroke-linecap:round; stroke-linejoin:round;fill:none"
d="M 15.2153,10.5195
15.2153,7.5195
13.7153,7.5195
13.7153,10.5195
" />
<path d="M14.4653 7.5195
L14.4653 4.5195
" />
</g>
<g style="fill:none;
stroke:#006464; stroke-width:0.1524; stroke-opacity:1;
stroke-linecap:round; stroke-linejoin:round;">
<text x="14.4653" y="42.1545"
textLength="9.0931" font-size="1.6933" lengthAdjust="spacingAndGlyphs"
text-anchor="middle" opacity="0" stroke-opacity="0">Bottle_S?</text>
<g class="stroked-text"><desc>Bottle_S?</desc>
<path d="M10.7461 41.4338
L10.9275 41.4943
" />
<path d="M10.9275 41.4943
L10.9880 41.5547
" />
<path d="M10.9880 41.5547
L11.0484 41.6757
" />
<path d="M11.0484 41.6757
L11.0484 41.8571
" />
<path d="M11.0484 41.8571
L10.9880 41.9781
" />
<path d="M10.9880 41.9781
L10.9275 42.0386
" />
<path d="M10.9275 42.0386
L10.8065 42.0990
" />
<path d="M10.8065 42.0990
L10.3227 42.0990
" />
<path d="M10.3227 42.0990
L10.3227 40.8290
" />
<path d="M10.3227 40.8290
L10.7461 40.8290
" />
<path d="M10.7461 40.8290
L10.8670 40.8895
" />
<path d="M10.8670 40.8895
L10.9275 40.9500
" />
<path d="M10.9275 40.9500
L10.9880 41.0709
" />
<path d="M10.9880 41.0709
L10.9880 41.1919
" />
<path d="M10.9880 41.1919
L10.9275 41.3128
" />
<path d="M10.9275 41.3128
L10.8670 41.3733
" />
<path d="M10.8670 41.3733
L10.7461 41.4338
" />
<path d="M10.7461 41.4338
L10.3227 41.4338
" />
<path d="M11.7742 42.0990
L11.6532 42.0386
" />
<path d="M11.6532 42.0386
L11.5927 41.9781
" />
<path d="M11.5927 41.9781
L11.5323 41.8571
" />
<path d="M11.5323 41.8571
L11.5323 41.4943
" />
<path d="M11.5323 41.4943
L11.5927 41.3733
" />
<path d="M11.5927 41.3733
L11.6532 41.3128
" />
<path d="M11.6532 41.3128
L11.7742 41.2524
" />
<path d="M11.7742 41.2524
L11.9556 41.2524
" />
<path d="M11.9556 41.2524
L12.0765 41.3128
" />
<path d="M12.0765 41.3128
L12.1370 41.3733
" />
<path d="M12.1370 41.3733
L12.1975 41.4943
" />
<path d="M12.1975 41.4943
L12.1975 41.8571
" />
<path d="M12.1975 41.8571
L12.1370 41.9781
" />
<path d="M12.1370 41.9781
L12.0765 42.0386
" />
<path d="M12.0765 42.0386
L11.9556 42.0990
" />
<path d="M11.9556 42.0990
L11.7742 42.0990
" />
<path d="M12.5603 41.2524
L13.0441 41.2524
" />
<path d="M12.7417 40.8290
L12.7417 41.9176
" />
<path d="M12.7417 41.9176
L12.8022 42.0386
" />
<path d="M12.8022 42.0386
L12.9232 42.0990
" />
<path d="M12.9232 42.0990
L13.0441 42.0990
" />
<path d="M13.2860 41.2524
L13.7698 41.2524
" />
<path d="M13.4674 40.8290
L13.4674 41.9176
" />
<path d="M13.4674 41.9176
L13.5279 42.0386
" />
<path d="M13.5279 42.0386
L13.6489 42.0990
" />
<path d="M13.6489 42.0990
L13.7698 42.0990
" />
<path d="M14.3746 42.0990
L14.2536 42.0386
" />
<path d="M14.2536 42.0386
L14.1931 41.9176
" />
<path d="M14.1931 41.9176
L14.1931 40.8290
" />
<path d="M15.3421 42.0386
L15.2212 42.0990
" />
<path d="M15.2212 42.0990
L14.9793 42.0990
" />
<path d="M14.9793 42.0990
L14.8583 42.0386
" />
<path d="M14.8583 42.0386
L14.7979 41.9176
" />
<path d="M14.7979 41.9176
L14.7979 41.4338
" />
<path d="M14.7979 41.4338
L14.8583 41.3128
" />
<path d="M14.8583 41.3128
L14.9793 41.2524
" />
<path d="M14.9793 41.2524
L15.2212 41.2524
" />
<path d="M15.2212 41.2524
L15.3421 41.3128
" />
<path d="M15.3421 41.3128
L15.4026 41.4338
" />
<path d="M15.4026 41.4338
L15.4026 41.5547
" />
<path d="M15.4026 41.5547
L14.7979 41.6757
" />
<path d="M15.6446 42.2200
L16.6122 42.2200
" />
<path d="M16.8541 42.0386
L17.0355 42.0990
" />
<path d="M17.0355 42.0990
L17.3379 42.0990
" />
<path d="M17.3379 42.0990
L17.4588 42.0386
" />
<path d="M17.4588 42.0386
L17.5193 41.9781
" />
<path d="M17.5193 41.9781
L17.5798 41.8571
" />
<path d="M17.5798 41.8571
L17.5798 41.7362
" />
<path d="M17.5798 41.7362
L17.5193 41.6152
" />
<path d="M17.5193 41.6152
L17.4588 41.5547
" />
<path d="M17.4588 41.5547
L17.3379 41.4943
" />
<path d="M17.3379 41.4943
L17.0960 41.4338
" />
<path d="M17.0960 41.4338
L16.9750 41.3733
" />
<path d="M16.9750 41.3733
L16.9145 41.3128
" />
<path d="M16.9145 41.3128
L16.8541 41.1919
" />
<path d="M16.8541 41.1919
L16.8541 41.0709
" />
<path d="M16.8541 41.0709
L16.9145 40.9500
" />
<path d="M16.9145 40.9500
L16.9750 40.8895
" />
<path d="M16.9750 40.8895
L17.0960 40.8290
" />
<path d="M17.0960 40.8290
L17.3983 40.8290
" />
<path d="M17.3983 40.8290
L17.5798 40.8895
" />
<path d="M18.3055 41.9781
L18.3659 42.0386
" />
<path d="M18.3659 42.0386
L18.3055 42.0990
" />
<path d="M18.3055 42.0990
L18.2450 42.0386
" />
<path d="M18.2450 42.0386
L18.3055 41.9781
" />
<path d="M18.3055 41.9781
L18.3055 42.0990
" />
<path d="M18.0636 40.8895
L18.1845 40.8290
" />
<path d="M18.1845 40.8290
L18.4869 40.8290
" />
<path d="M18.4869 40.8290
L18.6078 40.8895
" />
<path d="M18.6078 40.8895
L18.6683 41.0105
" />
<path d="M18.6683 41.0105
L18.6683 41.1314
" />
<path d="M18.6683 41.1314
L18.6078 41.2524
" />
<path d="M18.6078 41.2524
L18.5474 41.3128
" />
<path d="M18.5474 41.3128
L18.4264 41.3733
" />
<path d="M18.4264 41.3733
L18.3659 41.4338
" />
<path d="M18.3659 41.4338
L18.3055 41.5547
" />
<path d="M18.3055 41.5547
L18.3055 41.6152
" />
</g></g>
</svg>
