<?xml version="1.0" standalone="no"?>
 <!DOCTYPE svg PUBLIC "-//W3C//DTD SVG 1.1//EN"
 "http://www.w3.org/Graphics/SVG/1.1/DTD/svg11.dtd">
<svg
  xmlns:svg="http://www.w3.org/2000/svg"
  xmlns="http://www.w3.org/2000/svg"
  xmlns:xlink="http://www.w3.org/1999/xlink"
  xmlns:inkscape="http://www.inkscape.org/namespaces/inkscape"
  version="1.1"
  width="48.1076mm" height="70.1294mm" viewBox="0.0000 0.0000 48.1076 70.1294">
<title>SVG Image created as Bottle_unit1.svg date 2026-05-31T15:07:39 </title>
  <desc>Image generated by Eeschema-SVG </desc>
<g style="fill:#000000; fill-opacity:1.0000;stroke:#000000; stroke-opacity:1.0000;
stroke-linecap:round; stroke-linejoin:round;"
 transform="translate(0 0) scale(1 1)">
<path style="fill:none;
stroke:#840000; stroke-width:0.1524; stroke-opacity:1;
stroke-linecap:round; stroke-linejoin:round;fill:none"
d="M 20.0538,16.2303
20.0538,50.2303
" />
<path style="fill:none;
stroke:#840000; stroke-width:0.1524; stroke-opacity:1;
stroke-linecap:round; stroke-linejoin:round;fill:none"
d="M 20.0538,50.2303
28.0538,50.2303
28.0538,16.2303
" />
</g>
<g style="fill:none;
stroke:#840000; stroke-width:0.1524; stroke-opacity:1;
stroke-linecap:round; stroke-linejoin:round;">
<path d="M28.0538 16.2303 A4.0000 4.0000 0.0 0 0 20.0538 16.2303" />
<path style="fill:none;
stroke:#840000; stroke-width:0.1524; stroke-opacity:1;
stroke-linecap:round; stroke-linejoin:round;fill:none"
d="M 25.0538,12.2303
25.0538,9.2303
23.0538,9.2303
23.0538,12.2303
" />
<path d="M24.0538 9.2303
L24.0538 6.2303
" />
</g>
<g style="fill:none;
stroke:#006464; stroke-width:0.1524; stroke-opacity:1;
stroke-linecap:round; stroke-linejoin:round;">
<text x="24.0538" y="54.8653"
textLength="6.9160" font-size="1.6933" lengthAdjust="spacingAndGlyphs"
text-anchor="middle" opacity="0" stroke-opacity="0">Bottle?</text>
<g class="stroked-text"><desc>Bottle?</desc>
<path d="M21.4231 54.1446
L21.6045 54.2051
" />
<path d="M21.6045 54.2051
L21.6650 54.2655
" />
<path d="M21.6650 54.2655
L21.7254 54.3865
" />
<path d="M21.7254 54.3865
L21.7254 54.5679
" />
<path d="M21.7254 54.5679
L21.6650 54.6889
" />
<path d="M21.6650 54.6889
L21.6045 54.7494
" />
<path d="M21.6045 54.7494
L21.4835 54.8098
" />
<path d="M21.4835 54.8098
L20.9997 54.8098
" />
<path d="M20.9997 54.8098
L20.9997 53.5398
" />
<path d="M20.9997 53.5398
L21.4231 53.5398
" />
<path d="M21.4231 53.5398
L21.5440 53.6003
" />
<path d="M21.5440 53.6003
L21.6045 53.6608
" />
<path d="M21.6045 53.6608
L21.6650 53.7817
" />
<path d="M21.6650 53.7817
L21.6650 53.9027
" />
<path d="M21.6650 53.9027
L21.6045 54.0236
" />
<path d="M21.6045 54.0236
L21.5440 54.0841
" />
<path d="M21.5440 54.0841
L21.4231 54.1446
" />
<path d="M21.4231 54.1446
L20.9997 54.1446
" />
<path d="M22.4512 54.8098
L22.3302 54.7494
" />
<path d="M22.3302 54.7494
L22.2697 54.6889
" />
<path d="M22.2697 54.6889
L22.2093 54.5679
" />
<path d="M22.2093 54.5679
L22.2093 54.2051
" />
<path d="M22.2093 54.2051
L22.2697 54.0841
" />
<path d="M22.2697 54.0841
L22.3302 54.0236
" />
<path d="M22.3302 54.0236
L22.4512 53.9632
" />
<path d="M22.4512 53.9632
L22.6326 53.9632
" />
<path d="M22.6326 53.9632
L22.7535 54.0236
" />
<path d="M22.7535 54.0236
L22.8140 54.0841
" />
<path d="M22.8140 54.0841
L22.8745 54.2051
" />
<path d="M22.8745 54.2051
L22.8745 54.5679
" />
<path d="M22.8745 54.5679
L22.8140 54.6889
" />
<path d="M22.8140 54.6889
L22.7535 54.7494
" />
<path d="M22.7535 54.7494
L22.6326 54.8098
" />
<path d="M22.6326 54.8098
L22.4512 54.8098
" />
<path d="M23.2373 53.9632
L23.7211 53.9632
" />
<path d="M23.4187 53.5398
L23.4187 54.6284
" />
<path d="M23.4187 54.6284
L23.4792 54.7494
" />
<path d="M23.4792 54.7494
L23.6002 54.8098
" />
<path d="M23.6002 54.8098
L23.7211 54.8098
" />
<path d="M23.9630 53.9632
L24.4468 53.9632
" />
<path d="M24.1444 53.5398
L24.1444 54.6284
" />
<path d="M24.1444 54.6284
L24.2049 54.7494
" />
<path d="M24.2049 54.7494
L24.3259 54.8098
" />
<path d="M24.3259 54.8098
L24.4468 54.8098
" />
<path d="M25.0516 54.8098
L24.9306 54.7494
" />
<path d="M24.9306 54.7494
L24.8701 54.6284
" />
<path d="M24.8701 54.6284
L24.8701 53.5398
" />
<path d="M26.0191 54.7494
L25.8982 54.8098
" />
<path d="M25.8982 54.8098
L25.6563 54.8098
" />
<path d="M25.6563 54.8098
L25.5353 54.7494
" />
<path d="M25.5353 54.7494
L25.4749 54.6284
" />
<path d="M25.4749 54.6284
L25.4749 54.1446
" />
<path d="M25.4749 54.1446
L25.5353 54.0236
" />
<path d="M25.5353 54.0236
L25.6563 53.9632
" />
<path d="M25.6563 53.9632
L25.8982 53.9632
" />
<path d="M25.8982 53.9632
L26.0191 54.0236
" />
<path d="M26.0191 54.0236
L26.0796 54.1446
" />
<path d="M26.0796 54.1446
L26.0796 54.2655
" />
<path d="M26.0796 54.2655
L25.4749 54.3865
" />
<path d="M26.8054 54.6889
L26.8658 54.7494
" />
<path d="M26.8658 54.7494
L26.8054 54.8098
" />
<path d="M26.8054 54.8098
L26.7449 54.7494
" />
<path d="M26.7449 54.7494
L26.8054 54.6889
" />
<path d="M26.8054 54.6889
L26.8054 54.8098
" />
<path d="M26.5635 53.6003
L26.6844 53.5398
" />
<path d="M26.6844 53.5398
L26.9868 53.5398
" />
<path d="M26.9868 53.5398
L27.1077 53.6003
" />
<path d="M27.1077 53.6003
L27.1682 53.7213
" />
<path d="M27.1682 53.7213
L27.1682 53.8422
" />
<path d="M27.1682 53.8422
L27.1077 53.9632
" />
<path d="M27.1077 53.9632
L27.0473 54.0236
" />
<path d="M27.0473 54.0236
L26.9263 54.0841
" />
<path d="M26.9263 54.0841
L26.8658 54.1446
" />
<path d="M26.8658 54.1446
L26.8054 54.2655
" />
<path d="M26.8054 54.2655
L26.8054 54.3260
" />
</g></g>
</svg>
