<?xml version="1.0" standalone="no"?>
 <!DOCTYPE svg PUBLIC "-//W3C//DTD SVG 1.1//EN"
 "http://www.w3.org/Graphics/SVG/1.1/DTD/svg11.dtd">
<svg
  xmlns:svg="http://www.w3.org/2000/svg"
  xmlns="http://www.w3.org/2000/svg"
  xmlns:xlink="http://www.w3.org/1999/xlink"
  xmlns:inkscape="http://www.inkscape.org/namespaces/inkscape"
  version="1.1"
  width="48.1076mm" height="70.1294mm" viewBox="0.0000 0.0000 48.1076 70.1294">
<title>SVG Image created as Bottle - Dip Tube_unit1.svg date 2026-05-31T15:07:39 </title>
  <desc>Image generated by Eeschema-SVG </desc>
<g style="fill:#000000; fill-opacity:1.0000;stroke:#000000; stroke-opacity:1.0000;
stroke-linecap:round; stroke-linejoin:round;"
 transform="translate(0 0) scale(1 1)">
<path style="fill:none;
stroke:#840000; stroke-width:0.1524; stroke-opacity:1;
stroke-linecap:round; stroke-linejoin:round;fill:none"
d="M 20.0538,16.2303
20.0538,50.2303
" />
<path style="fill:none;
stroke:#840000; stroke-width:0.1524; stroke-opacity:1;
stroke-linecap:round; stroke-linejoin:round;fill:none"
d="M 20.0538,50.2303
28.0538,50.2303
28.0538,16.2303
" />
<path style="fill:none;
stroke:#840000; stroke-width:0.1524; stroke-opacity:1;
stroke-linecap:round; stroke-linejoin:round;fill:none"
d="M 24.0538,12.2303
24.0538,49.2303
" />
</g>
<g style="fill:none;
stroke:#840000; stroke-width:0.1524; stroke-opacity:1;
stroke-linecap:round; stroke-linejoin:round;">
<path d="M28.0538 16.2303 A4.0000 4.0000 0.0 0 0 20.0538 16.2303" />
<path style="fill:none;
stroke:#840000; stroke-width:0.1524; stroke-opacity:1;
stroke-linecap:round; stroke-linejoin:round;fill:none"
d="M 25.0538,12.2303
25.0538,9.2303
23.0538,9.2303
23.0538,12.2303
" />
<path d="M24.0538 9.2303
L24.0538 6.2303
" />
</g>
<g style="fill:none;
stroke:#006464; stroke-width:0.1524; stroke-opacity:1;
stroke-linecap:round; stroke-linejoin:round;">
<text x="24.0538" y="54.8653"
textLength="16.2292" font-size="1.6933" lengthAdjust="spacingAndGlyphs"
text-anchor="middle" opacity="0" stroke-opacity="0">Dip_Tube_Bottle?</text>
<g class="stroked-text"><desc>Dip_Tube_Bottle?</desc>
<path d="M16.3431 54.8098
L16.3431 53.5398
" />
<path d="M16.3431 53.5398
L16.6455 53.5398
" />
<path d="M16.6455 53.5398
L16.8269 53.6003
" />
<path d="M16.8269 53.6003
L16.9479 53.7213
" />
<path d="M16.9479 53.7213
L17.0084 53.8422
" />
<path d="M17.0084 53.8422
L17.0688 54.0841
" />
<path d="M17.0688 54.0841
L17.0688 54.2655
" />
<path d="M17.0688 54.2655
L17.0084 54.5074
" />
<path d="M17.0084 54.5074
L16.9479 54.6284
" />
<path d="M16.9479 54.6284
L16.8269 54.7494
" />
<path d="M16.8269 54.7494
L16.6455 54.8098
" />
<path d="M16.6455 54.8098
L16.3431 54.8098
" />
<path d="M17.6131 54.8098
L17.6131 53.9632
" />
<path d="M17.6131 53.5398
L17.5527 53.6003
" />
<path d="M17.5527 53.6003
L17.6131 53.6608
" />
<path d="M17.6131 53.6608
L17.6736 53.6003
" />
<path d="M17.6736 53.6003
L17.6131 53.5398
" />
<path d="M17.6131 53.5398
L17.6131 53.6608
" />
<path d="M18.2179 53.9632
L18.2179 55.2332
" />
<path d="M18.2179 54.0236
L18.3389 53.9632
" />
<path d="M18.3389 53.9632
L18.5808 53.9632
" />
<path d="M18.5808 53.9632
L18.7017 54.0236
" />
<path d="M18.7017 54.0236
L18.7622 54.0841
" />
<path d="M18.7622 54.0841
L18.8227 54.2051
" />
<path d="M18.8227 54.2051
L18.8227 54.5679
" />
<path d="M18.8227 54.5679
L18.7622 54.6889
" />
<path d="M18.7622 54.6889
L18.7017 54.7494
" />
<path d="M18.7017 54.7494
L18.5808 54.8098
" />
<path d="M18.5808 54.8098
L18.3389 54.8098
" />
<path d="M18.3389 54.8098
L18.2179 54.7494
" />
<path d="M19.0646 54.9308
L20.0322 54.9308
" />
<path d="M20.1531 53.5398
L20.8788 53.5398
" />
<path d="M20.5160 54.8098
L20.5160 53.5398
" />
<path d="M21.8464 53.9632
L21.8464 54.8098
" />
<path d="M21.3021 53.9632
L21.3021 54.6284
" />
<path d="M21.3021 54.6284
L21.3626 54.7494
" />
<path d="M21.3626 54.7494
L21.4836 54.8098
" />
<path d="M21.4836 54.8098
L21.6650 54.8098
" />
<path d="M21.6650 54.8098
L21.7859 54.7494
" />
<path d="M21.7859 54.7494
L21.8464 54.6889
" />
<path d="M22.4511 54.8098
L22.4511 53.5398
" />
<path d="M22.4511 54.0236
L22.5721 53.9632
" />
<path d="M22.5721 53.9632
L22.8140 53.9632
" />
<path d="M22.8140 53.9632
L22.9349 54.0236
" />
<path d="M22.9349 54.0236
L22.9954 54.0841
" />
<path d="M22.9954 54.0841
L23.0559 54.2051
" />
<path d="M23.0559 54.2051
L23.0559 54.5679
" />
<path d="M23.0559 54.5679
L22.9954 54.6889
" />
<path d="M22.9954 54.6889
L22.9349 54.7494
" />
<path d="M22.9349 54.7494
L22.8140 54.8098
" />
<path d="M22.8140 54.8098
L22.5721 54.8098
" />
<path d="M22.5721 54.8098
L22.4511 54.7494
" />
<path d="M24.0839 54.7494
L23.9630 54.8098
" />
<path d="M23.9630 54.8098
L23.7211 54.8098
" />
<path d="M23.7211 54.8098
L23.6001 54.7494
" />
<path d="M23.6001 54.7494
L23.5397 54.6284
" />
<path d="M23.5397 54.6284
L23.5397 54.1446
" />
<path d="M23.5397 54.1446
L23.6001 54.0236
" />
<path d="M23.6001 54.0236
L23.7211 53.9632
" />
<path d="M23.7211 53.9632
L23.9630 53.9632
" />
<path d="M23.9630 53.9632
L24.0839 54.0236
" />
<path d="M24.0839 54.0236
L24.1444 54.1446
" />
<path d="M24.1444 54.1446
L24.1444 54.2655
" />
<path d="M24.1444 54.2655
L23.5397 54.3865
" />
<path d="M24.3864 54.9308
L25.3540 54.9308
" />
<path d="M26.0797 54.1446
L26.2611 54.2051
" />
<path d="M26.2611 54.2051
L26.3216 54.2655
" />
<path d="M26.3216 54.2655
L26.3820 54.3865
" />
<path d="M26.3820 54.3865
L26.3820 54.5679
" />
<path d="M26.3820 54.5679
L26.3216 54.6889
" />
<path d="M26.3216 54.6889
L26.2611 54.7494
" />
<path d="M26.2611 54.7494
L26.1401 54.8098
" />
<path d="M26.1401 54.8098
L25.6563 54.8098
" />
<path d="M25.6563 54.8098
L25.6563 53.5398
" />
<path d="M25.6563 53.5398
L26.0797 53.5398
" />
<path d="M26.0797 53.5398
L26.2006 53.6003
" />
<path d="M26.2006 53.6003
L26.2611 53.6608
" />
<path d="M26.2611 53.6608
L26.3216 53.7817
" />
<path d="M26.3216 53.7817
L26.3216 53.9027
" />
<path d="M26.3216 53.9027
L26.2611 54.0236
" />
<path d="M26.2611 54.0236
L26.2006 54.0841
" />
<path d="M26.2006 54.0841
L26.0797 54.1446
" />
<path d="M26.0797 54.1446
L25.6563 54.1446
" />
<path d="M27.1078 54.8098
L26.9868 54.7494
" />
<path d="M26.9868 54.7494
L26.9263 54.6889
" />
<path d="M26.9263 54.6889
L26.8659 54.5679
" />
<path d="M26.8659 54.5679
L26.8659 54.2051
" />
<path d="M26.8659 54.2051
L26.9263 54.0841
" />
<path d="M26.9263 54.0841
L26.9868 54.0236
" />
<path d="M26.9868 54.0236
L27.1078 53.9632
" />
<path d="M27.1078 53.9632
L27.2892 53.9632
" />
<path d="M27.2892 53.9632
L27.4101 54.0236
" />
<path d="M27.4101 54.0236
L27.4706 54.0841
" />
<path d="M27.4706 54.0841
L27.5311 54.2051
" />
<path d="M27.5311 54.2051
L27.5311 54.5679
" />
<path d="M27.5311 54.5679
L27.4706 54.6889
" />
<path d="M27.4706 54.6889
L27.4101 54.7494
" />
<path d="M27.4101 54.7494
L27.2892 54.8098
" />
<path d="M27.2892 54.8098
L27.1078 54.8098
" />
<path d="M27.8939 53.9632
L28.3777 53.9632
" />
<path d="M28.0753 53.5398
L28.0753 54.6284
" />
<path d="M28.0753 54.6284
L28.1358 54.7494
" />
<path d="M28.1358 54.7494
L28.2568 54.8098
" />
<path d="M28.2568 54.8098
L28.3777 54.8098
" />
<path d="M28.6196 53.9632
L29.1034 53.9632
" />
<path d="M28.8010 53.5398
L28.8010 54.6284
" />
<path d="M28.8010 54.6284
L28.8615 54.7494
" />
<path d="M28.8615 54.7494
L28.9825 54.8098
" />
<path d="M28.9825 54.8098
L29.1034 54.8098
" />
<path d="M29.7082 54.8098
L29.5872 54.7494
" />
<path d="M29.5872 54.7494
L29.5267 54.6284
" />
<path d="M29.5267 54.6284
L29.5267 53.5398
" />
<path d="M30.6757 54.7494
L30.5548 54.8098
" />
<path d="M30.5548 54.8098
L30.3129 54.8098
" />
<path d="M30.3129 54.8098
L30.1919 54.7494
" />
<path d="M30.1919 54.7494
L30.1315 54.6284
" />
<path d="M30.1315 54.6284
L30.1315 54.1446
" />
<path d="M30.1315 54.1446
L30.1919 54.0236
" />
<path d="M30.1919 54.0236
L30.3129 53.9632
" />
<path d="M30.3129 53.9632
L30.5548 53.9632
" />
<path d="M30.5548 53.9632
L30.6757 54.0236
" />
<path d="M30.6757 54.0236
L30.7362 54.1446
" />
<path d="M30.7362 54.1446
L30.7362 54.2655
" />
<path d="M30.7362 54.2655
L30.1315 54.3865
" />
<path d="M31.4620 54.6889
L31.5224 54.7494
" />
<path d="M31.5224 54.7494
L31.4620 54.8098
" />
<path d="M31.4620 54.8098
L31.4015 54.7494
" />
<path d="M31.4015 54.7494
L31.4620 54.6889
" />
<path d="M31.4620 54.6889
L31.4620 54.8098
" />
<path d="M31.2201 53.6003
L31.3410 53.5398
" />
<path d="M31.3410 53.5398
L31.6434 53.5398
" />
<path d="M31.6434 53.5398
L31.7643 53.6003
" />
<path d="M31.7643 53.6003
L31.8248 53.7213
" />
<path d="M31.8248 53.7213
L31.8248 53.8422
" />
<path d="M31.8248 53.8422
L31.7643 53.9632
" />
<path d="M31.7643 53.9632
L31.7039 54.0236
" />
<path d="M31.7039 54.0236
L31.5829 54.0841
" />
<path d="M31.5829 54.0841
L31.5224 54.1446
" />
<path d="M31.5224 54.1446
L31.4620 54.2655
" />
<path d="M31.4620 54.2655
L31.4620 54.3260
" />
</g></g>
</svg>
