<!-- Copyright 2026 Kingston University Rocket Engineering -->

<?xml version="1.0" standalone="no"?>
 <!DOCTYPE svg PUBLIC "-//W3C//DTD SVG 1.1//EN"
 "http://www.w3.org/Graphics/SVG/1.1/DTD/svg11.dtd">
<svg
  xmlns:svg="http://www.w3.org/2000/svg"
  xmlns="http://www.w3.org/2000/svg"
  xmlns:xlink="http://www.w3.org/1999/xlink"
  xmlns:inkscape="http://www.inkscape.org/namespaces/inkscape"
  version="1.1"
  width="48.1076mm" height="72.5170mm" viewBox="0.0000 0.0000 48.1076 72.5170">
<title>SVG Image created as Bottle_unit1.svg date 2026-05-31T11:36:18 </title>
  <desc>Image generated by Eeschema-SVG </desc>
<g style="fill:#000000; fill-opacity:1.0000;stroke:#000000; stroke-opacity:1.0000;
stroke-linecap:round; stroke-linejoin:round;"
 transform="translate(0 0) scale(1 1)">
<path style="fill:none;
stroke:#840000; stroke-width:0.1524; stroke-opacity:1;
stroke-linecap:round; stroke-linejoin:round;fill:none"
d="M 19.0538,17.4241
19.0538,52.4241
" />
<path style="fill:none;
stroke:#840000; stroke-width:0.1524; stroke-opacity:1;
stroke-linecap:round; stroke-linejoin:round;fill:none"
d="M 19.0538,52.4241
28.0538,52.4241
28.0538,16.4241
" />
</g>
<g style="fill:none;
stroke:#840000; stroke-width:0.1524; stroke-opacity:1;
stroke-linecap:round; stroke-linejoin:round;">
<path d="M24.0538 12.4237 A4.9989 4.9989 0.0 0 0 19.0541 17.4244" />
<path d="M28.0538 16.4241 A3.9988 3.9988 0.0 0 0 24.0535 12.4238" />
<path style="fill:none;
stroke:#840000; stroke-width:0.1524; stroke-opacity:1;
stroke-linecap:round; stroke-linejoin:round;fill:none"
d="M 25.0538,12.4241
25.0538,9.4241
23.0538,9.4241
23.0538,12.4241
" />
<path d="M24.0538 9.4241
L24.0538 6.4241
" />
</g>
<g style="fill:none;
stroke:#006464; stroke-width:0.1524; stroke-opacity:1;
stroke-linecap:round; stroke-linejoin:round;">
<text x="24.0538" y="57.0591"
textLength="6.9160" font-size="1.6933" lengthAdjust="spacingAndGlyphs"
text-anchor="middle" opacity="0" stroke-opacity="0">Bottle?</text>
<g class="stroked-text"><desc>Bottle?</desc>
<path d="M21.4231 56.3384
L21.6045 56.3989
" />
<path d="M21.6045 56.3989
L21.6650 56.4593
" />
<path d="M21.6650 56.4593
L21.7254 56.5803
" />
<path d="M21.7254 56.5803
L21.7254 56.7617
" />
<path d="M21.7254 56.7617
L21.6650 56.8827
" />
<path d="M21.6650 56.8827
L21.6045 56.9432
" />
<path d="M21.6045 56.9432
L21.4835 57.0036
" />
<path d="M21.4835 57.0036
L20.9997 57.0036
" />
<path d="M20.9997 57.0036
L20.9997 55.7336
" />
<path d="M20.9997 55.7336
L21.4231 55.7336
" />
<path d="M21.4231 55.7336
L21.5440 55.7941
" />
<path d="M21.5440 55.7941
L21.6045 55.8546
" />
<path d="M21.6045 55.8546
L21.6650 55.9755
" />
<path d="M21.6650 55.9755
L21.6650 56.0965
" />
<path d="M21.6650 56.0965
L21.6045 56.2174
" />
<path d="M21.6045 56.2174
L21.5440 56.2779
" />
<path d="M21.5440 56.2779
L21.4231 56.3384
" />
<path d="M21.4231 56.3384
L20.9997 56.3384
" />
<path d="M22.4512 57.0036
L22.3302 56.9432
" />
<path d="M22.3302 56.9432
L22.2697 56.8827
" />
<path d="M22.2697 56.8827
L22.2093 56.7617
" />
<path d="M22.2093 56.7617
L22.2093 56.3989
" />
<path d="M22.2093 56.3989
L22.2697 56.2779
" />
<path d="M22.2697 56.2779
L22.3302 56.2174
" />
<path d="M22.3302 56.2174
L22.4512 56.1570
" />
<path d="M22.4512 56.1570
L22.6326 56.1570
" />
<path d="M22.6326 56.1570
L22.7535 56.2174
" />
<path d="M22.7535 56.2174
L22.8140 56.2779
" />
<path d="M22.8140 56.2779
L22.8745 56.3989
" />
<path d="M22.8745 56.3989
L22.8745 56.7617
" />
<path d="M22.8745 56.7617
L22.8140 56.8827
" />
<path d="M22.8140 56.8827
L22.7535 56.9432
" />
<path d="M22.7535 56.9432
L22.6326 57.0036
" />
<path d="M22.6326 57.0036
L22.4512 57.0036
" />
<path d="M23.2373 56.1570
L23.7211 56.1570
" />
<path d="M23.4187 55.7336
L23.4187 56.8222
" />
<path d="M23.4187 56.8222
L23.4792 56.9432
" />
<path d="M23.4792 56.9432
L23.6002 57.0036
" />
<path d="M23.6002 57.0036
L23.7211 57.0036
" />
<path d="M23.9630 56.1570
L24.4468 56.1570
" />
<path d="M24.1444 55.7336
L24.1444 56.8222
" />
<path d="M24.1444 56.8222
L24.2049 56.9432
" />
<path d="M24.2049 56.9432
L24.3259 57.0036
" />
<path d="M24.3259 57.0036
L24.4468 57.0036
" />
<path d="M25.0516 57.0036
L24.9306 56.9432
" />
<path d="M24.9306 56.9432
L24.8701 56.8222
" />
<path d="M24.8701 56.8222
L24.8701 55.7336
" />
<path d="M26.0191 56.9432
L25.8982 57.0036
" />
<path d="M25.8982 57.0036
L25.6563 57.0036
" />
<path d="M25.6563 57.0036
L25.5353 56.9432
" />
<path d="M25.5353 56.9432
L25.4749 56.8222
" />
<path d="M25.4749 56.8222
L25.4749 56.3384
" />
<path d="M25.4749 56.3384
L25.5353 56.2174
" />
<path d="M25.5353 56.2174
L25.6563 56.1570
" />
<path d="M25.6563 56.1570
L25.8982 56.1570
" />
<path d="M25.8982 56.1570
L26.0191 56.2174
" />
<path d="M26.0191 56.2174
L26.0796 56.3384
" />
<path d="M26.0796 56.3384
L26.0796 56.4593
" />
<path d="M26.0796 56.4593
L25.4749 56.5803
" />
<path d="M26.8054 56.8827
L26.8658 56.9432
" />
<path d="M26.8658 56.9432
L26.8054 57.0036
" />
<path d="M26.8054 57.0036
L26.7449 56.9432
" />
<path d="M26.7449 56.9432
L26.8054 56.8827
" />
<path d="M26.8054 56.8827
L26.8054 57.0036
" />
<path d="M26.5635 55.7941
L26.6844 55.7336
" />
<path d="M26.6844 55.7336
L26.9868 55.7336
" />
<path d="M26.9868 55.7336
L27.1077 55.7941
" />
<path d="M27.1077 55.7941
L27.1682 55.9151
" />
<path d="M27.1682 55.9151
L27.1682 56.0360
" />
<path d="M27.1682 56.0360
L27.1077 56.1570
" />
<path d="M27.1077 56.1570
L27.0473 56.2174
" />
<path d="M27.0473 56.2174
L26.9263 56.2779
" />
<path d="M26.9263 56.2779
L26.8658 56.3384
" />
<path d="M26.8658 56.3384
L26.8054 56.4593
" />
<path d="M26.8054 56.4593
L26.8054 56.5198
" />
</g></g>
</svg>
