<?xml version="1.0" standalone="no"?>
 <!DOCTYPE svg PUBLIC "-//W3C//DTD SVG 1.1//EN"
 "http://www.w3.org/Graphics/SVG/1.1/DTD/svg11.dtd">
<svg
  xmlns:svg="http://www.w3.org/2000/svg"
  xmlns="http://www.w3.org/2000/svg"
  xmlns:xlink="http://www.w3.org/1999/xlink"
  xmlns:inkscape="http://www.inkscape.org/namespaces/inkscape"
  version="1.1"
  width="72.1106mm" height="101.3206mm" viewBox="0.0000 0.0000 72.1106 101.3206">
<title>SVG Image created as Bottle - Large_unit1.svg date 2026-05-31T15:07:39 </title>
  <desc>Image generated by Eeschema-SVG </desc>
<g style="fill:#000000; fill-opacity:1.0000;stroke:#000000; stroke-opacity:1.0000;
stroke-linecap:round; stroke-linejoin:round;"
 transform="translate(0 0) scale(1 1)">
<path style="fill:none;
stroke:#840000; stroke-width:0.1524; stroke-opacity:1;
stroke-linecap:round; stroke-linejoin:round;fill:none"
d="M 31.0553,20.8259
31.0553,70.8259
" />
<path style="fill:none;
stroke:#840000; stroke-width:0.1524; stroke-opacity:1;
stroke-linecap:round; stroke-linejoin:round;fill:none"
d="M 31.0553,70.8259
41.0553,70.8259
41.0553,20.8259
" />
</g>
<g style="fill:none;
stroke:#840000; stroke-width:0.1524; stroke-opacity:1;
stroke-linecap:round; stroke-linejoin:round;">
<path d="M41.0553 20.8259 A5.0000 5.0000 0.0 0 0 31.0553 20.8259" />
<path style="fill:none;
stroke:#840000; stroke-width:0.1524; stroke-opacity:1;
stroke-linecap:round; stroke-linejoin:round;fill:none"
d="M 37.2553,15.8259
37.2553,11.8259
34.8553,11.8259
34.8553,15.8259
" />
<path d="M36.0553 11.8259
L36.0553 8.8259
" />
</g>
<g style="fill:none;
stroke:#006464; stroke-width:0.1524; stroke-opacity:1;
stroke-linecap:round; stroke-linejoin:round;">
<text x="36.0553" y="75.4609"
textLength="8.9117" font-size="1.6933" lengthAdjust="spacingAndGlyphs"
text-anchor="middle" opacity="0" stroke-opacity="0">Bottle_L?</text>
<g class="stroked-text"><desc>Bottle_L?</desc>
<path d="M32.4268 74.7402
L32.6082 74.8007
" />
<path d="M32.6082 74.8007
L32.6687 74.8611
" />
<path d="M32.6687 74.8611
L32.7291 74.9821
" />
<path d="M32.7291 74.9821
L32.7291 75.1635
" />
<path d="M32.7291 75.1635
L32.6687 75.2845
" />
<path d="M32.6687 75.2845
L32.6082 75.3450
" />
<path d="M32.6082 75.3450
L32.4872 75.4054
" />
<path d="M32.4872 75.4054
L32.0034 75.4054
" />
<path d="M32.0034 75.4054
L32.0034 74.1354
" />
<path d="M32.0034 74.1354
L32.4268 74.1354
" />
<path d="M32.4268 74.1354
L32.5477 74.1959
" />
<path d="M32.5477 74.1959
L32.6082 74.2564
" />
<path d="M32.6082 74.2564
L32.6687 74.3773
" />
<path d="M32.6687 74.3773
L32.6687 74.4983
" />
<path d="M32.6687 74.4983
L32.6082 74.6192
" />
<path d="M32.6082 74.6192
L32.5477 74.6797
" />
<path d="M32.5477 74.6797
L32.4268 74.7402
" />
<path d="M32.4268 74.7402
L32.0034 74.7402
" />
<path d="M33.4549 75.4054
L33.3339 75.3450
" />
<path d="M33.3339 75.3450
L33.2734 75.2845
" />
<path d="M33.2734 75.2845
L33.2130 75.1635
" />
<path d="M33.2130 75.1635
L33.2130 74.8007
" />
<path d="M33.2130 74.8007
L33.2734 74.6797
" />
<path d="M33.2734 74.6797
L33.3339 74.6192
" />
<path d="M33.3339 74.6192
L33.4549 74.5588
" />
<path d="M33.4549 74.5588
L33.6363 74.5588
" />
<path d="M33.6363 74.5588
L33.7572 74.6192
" />
<path d="M33.7572 74.6192
L33.8177 74.6797
" />
<path d="M33.8177 74.6797
L33.8782 74.8007
" />
<path d="M33.8782 74.8007
L33.8782 75.1635
" />
<path d="M33.8782 75.1635
L33.8177 75.2845
" />
<path d="M33.8177 75.2845
L33.7572 75.3450
" />
<path d="M33.7572 75.3450
L33.6363 75.4054
" />
<path d="M33.6363 75.4054
L33.4549 75.4054
" />
<path d="M34.2410 74.5588
L34.7248 74.5588
" />
<path d="M34.4224 74.1354
L34.4224 75.2240
" />
<path d="M34.4224 75.2240
L34.4829 75.3450
" />
<path d="M34.4829 75.3450
L34.6039 75.4054
" />
<path d="M34.6039 75.4054
L34.7248 75.4054
" />
<path d="M34.9667 74.5588
L35.4505 74.5588
" />
<path d="M35.1481 74.1354
L35.1481 75.2240
" />
<path d="M35.1481 75.2240
L35.2086 75.3450
" />
<path d="M35.2086 75.3450
L35.3296 75.4054
" />
<path d="M35.3296 75.4054
L35.4505 75.4054
" />
<path d="M36.0553 75.4054
L35.9343 75.3450
" />
<path d="M35.9343 75.3450
L35.8738 75.2240
" />
<path d="M35.8738 75.2240
L35.8738 74.1354
" />
<path d="M37.0228 75.3450
L36.9019 75.4054
" />
<path d="M36.9019 75.4054
L36.6600 75.4054
" />
<path d="M36.6600 75.4054
L36.5390 75.3450
" />
<path d="M36.5390 75.3450
L36.4786 75.2240
" />
<path d="M36.4786 75.2240
L36.4786 74.7402
" />
<path d="M36.4786 74.7402
L36.5390 74.6192
" />
<path d="M36.5390 74.6192
L36.6600 74.5588
" />
<path d="M36.6600 74.5588
L36.9019 74.5588
" />
<path d="M36.9019 74.5588
L37.0228 74.6192
" />
<path d="M37.0228 74.6192
L37.0833 74.7402
" />
<path d="M37.0833 74.7402
L37.0833 74.8611
" />
<path d="M37.0833 74.8611
L36.4786 74.9821
" />
<path d="M37.3253 75.5264
L38.2929 75.5264
" />
<path d="M39.2000 75.4054
L38.5952 75.4054
" />
<path d="M38.5952 75.4054
L38.5952 74.1354
" />
<path d="M39.8048 75.2845
L39.8652 75.3450
" />
<path d="M39.8652 75.3450
L39.8048 75.4054
" />
<path d="M39.8048 75.4054
L39.7443 75.3450
" />
<path d="M39.7443 75.3450
L39.8048 75.2845
" />
<path d="M39.8048 75.2845
L39.8048 75.4054
" />
<path d="M39.5629 74.1959
L39.6838 74.1354
" />
<path d="M39.6838 74.1354
L39.9862 74.1354
" />
<path d="M39.9862 74.1354
L40.1071 74.1959
" />
<path d="M40.1071 74.1959
L40.1676 74.3169
" />
<path d="M40.1676 74.3169
L40.1676 74.4378
" />
<path d="M40.1676 74.4378
L40.1071 74.5588
" />
<path d="M40.1071 74.5588
L40.0467 74.6192
" />
<path d="M40.0467 74.6192
L39.9257 74.6797
" />
<path d="M39.9257 74.6797
L39.8652 74.7402
" />
<path d="M39.8652 74.7402
L39.8048 74.8611
" />
<path d="M39.8048 74.8611
L39.8048 74.9216
" />
</g></g>
</svg>
