<?xml version="1.0" standalone="no"?>
 <!DOCTYPE svg PUBLIC "-//W3C//DTD SVG 1.1//EN"
 "http://www.w3.org/Graphics/SVG/1.1/DTD/svg11.dtd">
<svg
  xmlns:svg="http://www.w3.org/2000/svg"
  xmlns="http://www.w3.org/2000/svg"
  xmlns:xlink="http://www.w3.org/1999/xlink"
  xmlns:inkscape="http://www.inkscape.org/namespaces/inkscape"
  version="1.1"
  width="72.1106mm" height="104.9274mm" viewBox="0.0000 0.0000 72.1106 104.9274">
<title>SVG Image created as Bottle - Large_unit1.svg date 2026-05-31T14:48:23 </title>
  <desc>Image generated by Eeschema-SVG </desc>
<g style="fill:#000000; fill-opacity:1.0000;stroke:#000000; stroke-opacity:1.0000;
stroke-linecap:round; stroke-linejoin:round;"
 transform="translate(0 0) scale(1 1)">
<path style="fill:none;
stroke:#840000; stroke-width:0.1524; stroke-opacity:1;
stroke-linecap:round; stroke-linejoin:round;fill:none"
d="M 30.0553,22.1293
30.0553,74.1293
" />
<path style="fill:none;
stroke:#840000; stroke-width:0.1524; stroke-opacity:1;
stroke-linecap:round; stroke-linejoin:round;fill:none"
d="M 30.0553,74.1293
41.0553,74.1293
41.0553,21.1293
" />
</g>
<g style="fill:none;
stroke:#840000; stroke-width:0.1524; stroke-opacity:1;
stroke-linecap:round; stroke-linejoin:round;">
<path d="M41.0556 21.1293 A5.0006 5.0006 0.0 0 0 36.0550 16.1290" />
<path d="M36.0553 16.1292 A5.9994 5.9994 0.0 0 0 30.0556 22.1296" />
<path style="fill:none;
stroke:#840000; stroke-width:0.1524; stroke-opacity:1;
stroke-linecap:round; stroke-linejoin:round;fill:none"
d="M 37.2553,16.1293
37.2553,12.1293
34.8553,12.1293
34.8553,16.1293
" />
<path d="M36.0553 12.1293
L36.0553 9.1293
" />
</g>
<g style="fill:none;
stroke:#006464; stroke-width:0.1524; stroke-opacity:1;
stroke-linecap:round; stroke-linejoin:round;">
<text x="36.0553" y="81.7643"
textLength="8.9117" font-size="1.6933" lengthAdjust="spacingAndGlyphs"
text-anchor="middle" opacity="0" stroke-opacity="0">Bottle_L?</text>
<g class="stroked-text"><desc>Bottle_L?</desc>
<path d="M32.4268 81.0436
L32.6082 81.1041
" />
<path d="M32.6082 81.1041
L32.6687 81.1645
" />
<path d="M32.6687 81.1645
L32.7291 81.2855
" />
<path d="M32.7291 81.2855
L32.7291 81.4669
" />
<path d="M32.7291 81.4669
L32.6687 81.5879
" />
<path d="M32.6687 81.5879
L32.6082 81.6484
" />
<path d="M32.6082 81.6484
L32.4872 81.7088
" />
<path d="M32.4872 81.7088
L32.0034 81.7088
" />
<path d="M32.0034 81.7088
L32.0034 80.4388
" />
<path d="M32.0034 80.4388
L32.4268 80.4388
" />
<path d="M32.4268 80.4388
L32.5477 80.4993
" />
<path d="M32.5477 80.4993
L32.6082 80.5598
" />
<path d="M32.6082 80.5598
L32.6687 80.6807
" />
<path d="M32.6687 80.6807
L32.6687 80.8017
" />
<path d="M32.6687 80.8017
L32.6082 80.9226
" />
<path d="M32.6082 80.9226
L32.5477 80.9831
" />
<path d="M32.5477 80.9831
L32.4268 81.0436
" />
<path d="M32.4268 81.0436
L32.0034 81.0436
" />
<path d="M33.4549 81.7088
L33.3339 81.6484
" />
<path d="M33.3339 81.6484
L33.2734 81.5879
" />
<path d="M33.2734 81.5879
L33.2130 81.4669
" />
<path d="M33.2130 81.4669
L33.2130 81.1041
" />
<path d="M33.2130 81.1041
L33.2734 80.9831
" />
<path d="M33.2734 80.9831
L33.3339 80.9226
" />
<path d="M33.3339 80.9226
L33.4549 80.8622
" />
<path d="M33.4549 80.8622
L33.6363 80.8622
" />
<path d="M33.6363 80.8622
L33.7572 80.9226
" />
<path d="M33.7572 80.9226
L33.8177 80.9831
" />
<path d="M33.8177 80.9831
L33.8782 81.1041
" />
<path d="M33.8782 81.1041
L33.8782 81.4669
" />
<path d="M33.8782 81.4669
L33.8177 81.5879
" />
<path d="M33.8177 81.5879
L33.7572 81.6484
" />
<path d="M33.7572 81.6484
L33.6363 81.7088
" />
<path d="M33.6363 81.7088
L33.4549 81.7088
" />
<path d="M34.2410 80.8622
L34.7248 80.8622
" />
<path d="M34.4224 80.4388
L34.4224 81.5274
" />
<path d="M34.4224 81.5274
L34.4829 81.6484
" />
<path d="M34.4829 81.6484
L34.6039 81.7088
" />
<path d="M34.6039 81.7088
L34.7248 81.7088
" />
<path d="M34.9667 80.8622
L35.4505 80.8622
" />
<path d="M35.1481 80.4388
L35.1481 81.5274
" />
<path d="M35.1481 81.5274
L35.2086 81.6484
" />
<path d="M35.2086 81.6484
L35.3296 81.7088
" />
<path d="M35.3296 81.7088
L35.4505 81.7088
" />
<path d="M36.0553 81.7088
L35.9343 81.6484
" />
<path d="M35.9343 81.6484
L35.8738 81.5274
" />
<path d="M35.8738 81.5274
L35.8738 80.4388
" />
<path d="M37.0228 81.6484
L36.9019 81.7088
" />
<path d="M36.9019 81.7088
L36.6600 81.7088
" />
<path d="M36.6600 81.7088
L36.5390 81.6484
" />
<path d="M36.5390 81.6484
L36.4786 81.5274
" />
<path d="M36.4786 81.5274
L36.4786 81.0436
" />
<path d="M36.4786 81.0436
L36.5390 80.9226
" />
<path d="M36.5390 80.9226
L36.6600 80.8622
" />
<path d="M36.6600 80.8622
L36.9019 80.8622
" />
<path d="M36.9019 80.8622
L37.0228 80.9226
" />
<path d="M37.0228 80.9226
L37.0833 81.0436
" />
<path d="M37.0833 81.0436
L37.0833 81.1645
" />
<path d="M37.0833 81.1645
L36.4786 81.2855
" />
<path d="M37.3253 81.8298
L38.2929 81.8298
" />
<path d="M39.2000 81.7088
L38.5952 81.7088
" />
<path d="M38.5952 81.7088
L38.5952 80.4388
" />
<path d="M39.8048 81.5879
L39.8652 81.6484
" />
<path d="M39.8652 81.6484
L39.8048 81.7088
" />
<path d="M39.8048 81.7088
L39.7443 81.6484
" />
<path d="M39.7443 81.6484
L39.8048 81.5879
" />
<path d="M39.8048 81.5879
L39.8048 81.7088
" />
<path d="M39.5629 80.4993
L39.6838 80.4388
" />
<path d="M39.6838 80.4388
L39.9862 80.4388
" />
<path d="M39.9862 80.4388
L40.1071 80.4993
" />
<path d="M40.1071 80.4993
L40.1676 80.6203
" />
<path d="M40.1676 80.6203
L40.1676 80.7412
" />
<path d="M40.1676 80.7412
L40.1071 80.8622
" />
<path d="M40.1071 80.8622
L40.0467 80.9226
" />
<path d="M40.0467 80.9226
L39.9257 80.9831
" />
<path d="M39.9257 80.9831
L39.8652 81.0436
" />
<path d="M39.8652 81.0436
L39.8048 81.1645
" />
<path d="M39.8048 81.1645
L39.8048 81.2250
" />
</g></g>
</svg>
