<?xml version="1.0" standalone="no"?>
 <!DOCTYPE svg PUBLIC "-//W3C//DTD SVG 1.1//EN"
 "http://www.w3.org/Graphics/SVG/1.1/DTD/svg11.dtd">
<svg
  xmlns:svg="http://www.w3.org/2000/svg"
  xmlns="http://www.w3.org/2000/svg"
  xmlns:xlink="http://www.w3.org/1999/xlink"
  xmlns:inkscape="http://www.inkscape.org/namespaces/inkscape"
  version="1.1"
  width="19.3294mm" height="19.3294mm" viewBox="0.0000 0.0000 19.3294 19.3294">
<title>SVG Image created as Sample Cylinder_unit1.svg date 2026-05-31T15:17:21 </title>
  <desc>Image generated by Eeschema-SVG </desc>
<g style="fill:#000000; fill-opacity:1.0000;stroke:#000000; stroke-opacity:1.0000;
stroke-linecap:round; stroke-linejoin:round;"
 transform="translate(0 0) scale(1 1)">
</g>
<g style="fill:none;
stroke:#840000; stroke-width:0.1524; stroke-opacity:1;
stroke-linecap:round; stroke-linejoin:round;">
<rect x="7.664700" y="8.164700" width="4.000000" height="3.000000" rx="0.000000" />
<path d="M7.6647 8.1653 A1.4997 1.4997 0.0 0 0 7.6647 11.1647" />
<path d="M11.6647 11.1653 A1.5003 1.5003 0.0 1 0 11.6647 8.1647" />
<path d="M6.1647 9.6647
L3.1647 9.6647
" />
<path d="M13.1647 9.6647
L16.1647 9.6647
" />
</g>
<g style="fill:none;
stroke:#006464; stroke-width:0.1524; stroke-opacity:1;
stroke-linecap:round; stroke-linejoin:round;">
<text x="9.6647" y="15.2997"
textLength="3.7713" font-size="1.6933" lengthAdjust="spacingAndGlyphs"
text-anchor="middle" opacity="0" stroke-opacity="0">SC?</text>
<g class="stroked-text"><desc>SC?</desc>
<path d="M8.1226 15.1838
L8.3040 15.2442
" />
<path d="M8.3040 15.2442
L8.6064 15.2442
" />
<path d="M8.6064 15.2442
L8.7273 15.1838
" />
<path d="M8.7273 15.1838
L8.7878 15.1233
" />
<path d="M8.7878 15.1233
L8.8483 15.0023
" />
<path d="M8.8483 15.0023
L8.8483 14.8814
" />
<path d="M8.8483 14.8814
L8.7878 14.7604
" />
<path d="M8.7878 14.7604
L8.7273 14.6999
" />
<path d="M8.7273 14.6999
L8.6064 14.6395
" />
<path d="M8.6064 14.6395
L8.3645 14.5790
" />
<path d="M8.3645 14.5790
L8.2435 14.5185
" />
<path d="M8.2435 14.5185
L8.1830 14.4580
" />
<path d="M8.1830 14.4580
L8.1226 14.3371
" />
<path d="M8.1226 14.3371
L8.1226 14.2161
" />
<path d="M8.1226 14.2161
L8.1830 14.0952
" />
<path d="M8.1830 14.0952
L8.2435 14.0347
" />
<path d="M8.2435 14.0347
L8.3645 13.9742
" />
<path d="M8.3645 13.9742
L8.6668 13.9742
" />
<path d="M8.6668 13.9742
L8.8483 14.0347
" />
<path d="M10.1182 15.1233
L10.0578 15.1838
" />
<path d="M10.0578 15.1838
L9.8763 15.2442
" />
<path d="M9.8763 15.2442
L9.7554 15.2442
" />
<path d="M9.7554 15.2442
L9.5740 15.1838
" />
<path d="M9.5740 15.1838
L9.4530 15.0628
" />
<path d="M9.4530 15.0628
L9.3925 14.9418
" />
<path d="M9.3925 14.9418
L9.3321 14.6999
" />
<path d="M9.3321 14.6999
L9.3321 14.5185
" />
<path d="M9.3321 14.5185
L9.3925 14.2766
" />
<path d="M9.3925 14.2766
L9.4530 14.1557
" />
<path d="M9.4530 14.1557
L9.5740 14.0347
" />
<path d="M9.5740 14.0347
L9.7554 13.9742
" />
<path d="M9.7554 13.9742
L9.8763 13.9742
" />
<path d="M9.8763 13.9742
L10.0578 14.0347
" />
<path d="M10.0578 14.0347
L10.1182 14.0952
" />
<path d="M10.8440 15.1233
L10.9044 15.1838
" />
<path d="M10.9044 15.1838
L10.8440 15.2442
" />
<path d="M10.8440 15.2442
L10.7835 15.1838
" />
<path d="M10.7835 15.1838
L10.8440 15.1233
" />
<path d="M10.8440 15.1233
L10.8440 15.2442
" />
<path d="M10.6021 14.0347
L10.7230 13.9742
" />
<path d="M10.7230 13.9742
L11.0254 13.9742
" />
<path d="M11.0254 13.9742
L11.1463 14.0347
" />
<path d="M11.1463 14.0347
L11.2068 14.1557
" />
<path d="M11.2068 14.1557
L11.2068 14.2766
" />
<path d="M11.2068 14.2766
L11.1463 14.3976
" />
<path d="M11.1463 14.3976
L11.0859 14.4580
" />
<path d="M11.0859 14.4580
L10.9649 14.5185
" />
<path d="M10.9649 14.5185
L10.9044 14.5790
" />
<path d="M10.9044 14.5790
L10.8440 14.6999
" />
<path d="M10.8440 14.6999
L10.8440 14.7604
" />
</g></g>
</svg>
