<?xml version="1.0" standalone="no"?>
 <!DOCTYPE svg PUBLIC "-//W3C//DTD SVG 1.1//EN"
 "http://www.w3.org/Graphics/SVG/1.1/DTD/svg11.dtd">
<svg
  xmlns:svg="http://www.w3.org/2000/svg"
  xmlns="http://www.w3.org/2000/svg"
  xmlns:xlink="http://www.w3.org/1999/xlink"
  xmlns:inkscape="http://www.inkscape.org/namespaces/inkscape"
  version="1.1"
  width="14.1224mm" height="12.1158mm" viewBox="0.0000 0.0000 14.1224 12.1158">
<title>SVG Image created as Sample Cylinder - Small_unit1.svg date 2026-05-31T15:19:00 </title>
  <desc>Image generated by Eeschema-SVG </desc>
<g style="fill:#000000; fill-opacity:1.0000;stroke:#000000; stroke-opacity:1.0000;
stroke-linecap:round; stroke-linejoin:round;"
 transform="translate(0 0) scale(1 1)">
</g>
<g style="fill:none;
stroke:#840000; stroke-width:0.1524; stroke-opacity:1;
stroke-linecap:round; stroke-linejoin:round;">
<rect x="5.561200" y="5.057900" width="3.000000" height="2.000000" rx="0.000000" />
<path d="M5.5612 5.0581 A0.9999 0.9999 0.0 1 0 5.5612 7.0579" />
<path d="M8.5612 7.0581 A1.0001 1.0001 0.0 0 0 8.5612 5.0579" />
<path d="M4.5612 6.0579
L1.5612 6.0579
" />
<path d="M9.5612 6.0579
L12.5612 6.0579
" />
</g>
<g style="fill:none;
stroke:#006464; stroke-width:0.1524; stroke-opacity:1;
stroke-linecap:round; stroke-linejoin:round;">
<text x="7.0612" y="9.6929"
textLength="5.9484" font-size="1.6933" lengthAdjust="spacingAndGlyphs"
text-anchor="middle" opacity="0" stroke-opacity="0">SC_S?</text>
<g class="stroked-text"><desc>SC_S?</desc>
<path d="M4.4305 9.5770
L4.6119 9.6374
" />
<path d="M4.6119 9.6374
L4.9143 9.6374
" />
<path d="M4.9143 9.6374
L5.0352 9.5770
" />
<path d="M5.0352 9.5770
L5.0957 9.5165
" />
<path d="M5.0957 9.5165
L5.1562 9.3955
" />
<path d="M5.1562 9.3955
L5.1562 9.2746
" />
<path d="M5.1562 9.2746
L5.0957 9.1536
" />
<path d="M5.0957 9.1536
L5.0352 9.0931
" />
<path d="M5.0352 9.0931
L4.9143 9.0327
" />
<path d="M4.9143 9.0327
L4.6724 8.9722
" />
<path d="M4.6724 8.9722
L4.5514 8.9117
" />
<path d="M4.5514 8.9117
L4.4909 8.8512
" />
<path d="M4.4909 8.8512
L4.4305 8.7303
" />
<path d="M4.4305 8.7303
L4.4305 8.6093
" />
<path d="M4.4305 8.6093
L4.4909 8.4884
" />
<path d="M4.4909 8.4884
L4.5514 8.4279
" />
<path d="M4.5514 8.4279
L4.6724 8.3674
" />
<path d="M4.6724 8.3674
L4.9747 8.3674
" />
<path d="M4.9747 8.3674
L5.1562 8.4279
" />
<path d="M6.4261 9.5165
L6.3657 9.5770
" />
<path d="M6.3657 9.5770
L6.1842 9.6374
" />
<path d="M6.1842 9.6374
L6.0633 9.6374
" />
<path d="M6.0633 9.6374
L5.8819 9.5770
" />
<path d="M5.8819 9.5770
L5.7609 9.4560
" />
<path d="M5.7609 9.4560
L5.7004 9.3350
" />
<path d="M5.7004 9.3350
L5.6400 9.0931
" />
<path d="M5.6400 9.0931
L5.6400 8.9117
" />
<path d="M5.6400 8.9117
L5.7004 8.6698
" />
<path d="M5.7004 8.6698
L5.7609 8.5489
" />
<path d="M5.7609 8.5489
L5.8819 8.4279
" />
<path d="M5.8819 8.4279
L6.0633 8.3674
" />
<path d="M6.0633 8.3674
L6.1842 8.3674
" />
<path d="M6.1842 8.3674
L6.3657 8.4279
" />
<path d="M6.3657 8.4279
L6.4261 8.4884
" />
<path d="M6.6681 9.7584
L7.6357 9.7584
" />
<path d="M7.8776 9.5770
L8.0590 9.6374
" />
<path d="M8.0590 9.6374
L8.3614 9.6374
" />
<path d="M8.3614 9.6374
L8.4823 9.5770
" />
<path d="M8.4823 9.5770
L8.5428 9.5165
" />
<path d="M8.5428 9.5165
L8.6033 9.3955
" />
<path d="M8.6033 9.3955
L8.6033 9.2746
" />
<path d="M8.6033 9.2746
L8.5428 9.1536
" />
<path d="M8.5428 9.1536
L8.4823 9.0931
" />
<path d="M8.4823 9.0931
L8.3614 9.0327
" />
<path d="M8.3614 9.0327
L8.1195 8.9722
" />
<path d="M8.1195 8.9722
L7.9985 8.9117
" />
<path d="M7.9985 8.9117
L7.9380 8.8512
" />
<path d="M7.9380 8.8512
L7.8776 8.7303
" />
<path d="M7.8776 8.7303
L7.8776 8.6093
" />
<path d="M7.8776 8.6093
L7.9380 8.4884
" />
<path d="M7.9380 8.4884
L7.9985 8.4279
" />
<path d="M7.9985 8.4279
L8.1195 8.3674
" />
<path d="M8.1195 8.3674
L8.4218 8.3674
" />
<path d="M8.4218 8.3674
L8.6033 8.4279
" />
<path d="M9.3290 9.5165
L9.3894 9.5770
" />
<path d="M9.3894 9.5770
L9.3290 9.6374
" />
<path d="M9.3290 9.6374
L9.2685 9.5770
" />
<path d="M9.2685 9.5770
L9.3290 9.5165
" />
<path d="M9.3290 9.5165
L9.3290 9.6374
" />
<path d="M9.0871 8.4279
L9.2080 8.3674
" />
<path d="M9.2080 8.3674
L9.5104 8.3674
" />
<path d="M9.5104 8.3674
L9.6313 8.4279
" />
<path d="M9.6313 8.4279
L9.6918 8.5489
" />
<path d="M9.6918 8.5489
L9.6918 8.6698
" />
<path d="M9.6918 8.6698
L9.6313 8.7908
" />
<path d="M9.6313 8.7908
L9.5709 8.8512
" />
<path d="M9.5709 8.8512
L9.4499 8.9117
" />
<path d="M9.4499 8.9117
L9.3894 8.9722
" />
<path d="M9.3894 8.9722
L9.3290 9.0931
" />
<path d="M9.3290 9.0931
L9.3290 9.1536
" />
</g></g>
</svg>
