<?xml version="1.0" standalone="no"?>
 <!DOCTYPE svg PUBLIC "-//W3C//DTD SVG 1.1//EN"
 "http://www.w3.org/Graphics/SVG/1.1/DTD/svg11.dtd">
<svg
  xmlns:svg="http://www.w3.org/2000/svg"
  xmlns="http://www.w3.org/2000/svg"
  xmlns:xlink="http://www.w3.org/1999/xlink"
  xmlns:inkscape="http://www.inkscape.org/namespaces/inkscape"
  version="1.1"
  width="28.9306mm" height="19.3294mm" viewBox="0.0000 0.0000 28.9306 19.3294">
<title>SVG Image created as Sample Cylinder - Large_unit1.svg date 2026-05-31T15:19:00 </title>
  <desc>Image generated by Eeschema-SVG </desc>
<g style="fill:#000000; fill-opacity:1.0000;stroke:#000000; stroke-opacity:1.0000;
stroke-linecap:round; stroke-linejoin:round;"
 transform="translate(0 0) scale(1 1)">
</g>
<g style="fill:none;
stroke:#840000; stroke-width:0.1524; stroke-opacity:1;
stroke-linecap:round; stroke-linejoin:round;">
<rect x="11.465300" y="7.664700" width="6.000000" height="4.000000" rx="0.000000" />
<path d="M11.4653 7.6653 A1.9997 1.9997 0.0 1 0 11.4653 11.6647" />
<path d="M17.4653 11.6653 A2.0003 2.0003 0.0 0 0 17.4653 7.6647" />
<path d="M9.4653 9.6647
L6.4653 9.6647
" />
<path d="M19.4653 9.6647
L22.4653 9.6647
" />
</g>
<g style="fill:none;
stroke:#006464; stroke-width:0.1524; stroke-opacity:1;
stroke-linecap:round; stroke-linejoin:round;">
<text x="14.4653" y="16.2997"
textLength="5.7670" font-size="1.6933" lengthAdjust="spacingAndGlyphs"
text-anchor="middle" opacity="0" stroke-opacity="0">SC_L?</text>
<g class="stroked-text"><desc>SC_L?</desc>
<path d="M11.9253 16.1838
L12.1067 16.2442
" />
<path d="M12.1067 16.2442
L12.4091 16.2442
" />
<path d="M12.4091 16.2442
L12.5300 16.1838
" />
<path d="M12.5300 16.1838
L12.5905 16.1233
" />
<path d="M12.5905 16.1233
L12.6510 16.0023
" />
<path d="M12.6510 16.0023
L12.6510 15.8814
" />
<path d="M12.6510 15.8814
L12.5905 15.7604
" />
<path d="M12.5905 15.7604
L12.5300 15.6999
" />
<path d="M12.5300 15.6999
L12.4091 15.6395
" />
<path d="M12.4091 15.6395
L12.1672 15.5790
" />
<path d="M12.1672 15.5790
L12.0462 15.5185
" />
<path d="M12.0462 15.5185
L11.9857 15.4580
" />
<path d="M11.9857 15.4580
L11.9253 15.3371
" />
<path d="M11.9253 15.3371
L11.9253 15.2161
" />
<path d="M11.9253 15.2161
L11.9857 15.0952
" />
<path d="M11.9857 15.0952
L12.0462 15.0347
" />
<path d="M12.0462 15.0347
L12.1672 14.9742
" />
<path d="M12.1672 14.9742
L12.4695 14.9742
" />
<path d="M12.4695 14.9742
L12.6510 15.0347
" />
<path d="M13.9209 16.1233
L13.8605 16.1838
" />
<path d="M13.8605 16.1838
L13.6790 16.2442
" />
<path d="M13.6790 16.2442
L13.5581 16.2442
" />
<path d="M13.5581 16.2442
L13.3767 16.1838
" />
<path d="M13.3767 16.1838
L13.2557 16.0628
" />
<path d="M13.2557 16.0628
L13.1952 15.9418
" />
<path d="M13.1952 15.9418
L13.1348 15.6999
" />
<path d="M13.1348 15.6999
L13.1348 15.5185
" />
<path d="M13.1348 15.5185
L13.1952 15.2766
" />
<path d="M13.1952 15.2766
L13.2557 15.1557
" />
<path d="M13.2557 15.1557
L13.3767 15.0347
" />
<path d="M13.3767 15.0347
L13.5581 14.9742
" />
<path d="M13.5581 14.9742
L13.6790 14.9742
" />
<path d="M13.6790 14.9742
L13.8605 15.0347
" />
<path d="M13.8605 15.0347
L13.9209 15.0952
" />
<path d="M14.1629 16.3652
L15.1305 16.3652
" />
<path d="M16.0376 16.2442
L15.4328 16.2442
" />
<path d="M15.4328 16.2442
L15.4328 14.9742
" />
<path d="M16.6424 16.1233
L16.7028 16.1838
" />
<path d="M16.7028 16.1838
L16.6424 16.2442
" />
<path d="M16.6424 16.2442
L16.5819 16.1838
" />
<path d="M16.5819 16.1838
L16.6424 16.1233
" />
<path d="M16.6424 16.1233
L16.6424 16.2442
" />
<path d="M16.4005 15.0347
L16.5214 14.9742
" />
<path d="M16.5214 14.9742
L16.8238 14.9742
" />
<path d="M16.8238 14.9742
L16.9447 15.0347
" />
<path d="M16.9447 15.0347
L17.0052 15.1557
" />
<path d="M17.0052 15.1557
L17.0052 15.2766
" />
<path d="M17.0052 15.2766
L16.9447 15.3976
" />
<path d="M16.9447 15.3976
L16.8843 15.4580
" />
<path d="M16.8843 15.4580
L16.7633 15.5185
" />
<path d="M16.7633 15.5185
L16.7028 15.5790
" />
<path d="M16.7028 15.5790
L16.6424 15.6999
" />
<path d="M16.6424 15.6999
L16.6424 15.7604
" />
</g></g>
</svg>
