<?xml version="1.0" standalone="no"?>
 <!DOCTYPE svg PUBLIC "-//W3C//DTD SVG 1.1//EN"
 "http://www.w3.org/Graphics/SVG/1.1/DTD/svg11.dtd">
<svg
  xmlns:svg="http://www.w3.org/2000/svg"
  xmlns="http://www.w3.org/2000/svg"
  xmlns:xlink="http://www.w3.org/1999/xlink"
  xmlns:inkscape="http://www.inkscape.org/namespaces/inkscape"
  version="1.1"
  width="19.3294mm" height="20.4978mm" viewBox="0.0000 0.0000 19.3294 20.4978">
<title>SVG Image created as Tank - Small_unit1.svg date 2026-05-31T14:48:22 </title>
  <desc>Image generated by Eeschema-SVG </desc>
<g style="fill:#000000; fill-opacity:1.0000;stroke:#000000; stroke-opacity:1.0000;
stroke-linecap:round; stroke-linejoin:round;"
 transform="translate(0 0) scale(1 1)">
</g>
<g style="fill:none;
stroke:#840000; stroke-width:0.1000; stroke-opacity:1;
stroke-linecap:round; stroke-linejoin:round;">
<rect x="7.164700" y="6.263100" width="5.000000" height="7.000000" rx="0.000000" />
<path d="M12.1647 6.2631 A3.1250 3.1250 0.0 0 0 7.1647 6.2631" />
<path d="M7.1647 13.2631 A3.1250 3.1250 0.0 0 0 12.1647 13.2631" />
</g>
<g style="fill:none;
stroke:#840000; stroke-width:0.1524; stroke-opacity:1;
stroke-linecap:round; stroke-linejoin:round;">
<path d="M9.6647 8.0131
L9.6647 5.0131
" />
<path d="M9.6647 11.5131
L9.6647 14.5131
" />
</g>
<g style="fill:none;
stroke:#006464; stroke-width:0.1524; stroke-opacity:1;
stroke-linecap:round; stroke-linejoin:round;">
<text x="9.6647" y="18.3981"
textLength="7.7626" font-size="1.6933" lengthAdjust="spacingAndGlyphs"
text-anchor="middle" opacity="0" stroke-opacity="0">Tank_S?</text>
<g class="stroked-text"><desc>Tank_S?</desc>
<path d="M6.0059 17.0726
L6.7316 17.0726
" />
<path d="M6.3688 18.3426
L6.3688 17.0726
" />
<path d="M7.6992 18.3426
L7.6992 17.6774
" />
<path d="M7.6992 17.6774
L7.6387 17.5564
" />
<path d="M7.6387 17.5564
L7.5178 17.4960
" />
<path d="M7.5178 17.4960
L7.2759 17.4960
" />
<path d="M7.2759 17.4960
L7.1549 17.5564
" />
<path d="M7.6992 18.2822
L7.5783 18.3426
" />
<path d="M7.5783 18.3426
L7.2759 18.3426
" />
<path d="M7.2759 18.3426
L7.1549 18.2822
" />
<path d="M7.1549 18.2822
L7.0945 18.1612
" />
<path d="M7.0945 18.1612
L7.0945 18.0402
" />
<path d="M7.0945 18.0402
L7.1549 17.9193
" />
<path d="M7.1549 17.9193
L7.2759 17.8588
" />
<path d="M7.2759 17.8588
L7.5783 17.8588
" />
<path d="M7.5783 17.8588
L7.6992 17.7983
" />
<path d="M8.3039 17.4960
L8.3039 18.3426
" />
<path d="M8.3039 17.6169
L8.3644 17.5564
" />
<path d="M8.3644 17.5564
L8.4854 17.4960
" />
<path d="M8.4854 17.4960
L8.6668 17.4960
" />
<path d="M8.6668 17.4960
L8.7877 17.5564
" />
<path d="M8.7877 17.5564
L8.8482 17.6774
" />
<path d="M8.8482 17.6774
L8.8482 18.3426
" />
<path d="M9.4529 18.3426
L9.4529 17.0726
" />
<path d="M9.5739 17.8588
L9.9367 18.3426
" />
<path d="M9.9367 17.4960
L9.4529 17.9798
" />
<path d="M10.1787 18.4636
L11.1463 18.4636
" />
<path d="M11.3882 18.2822
L11.5696 18.3426
" />
<path d="M11.5696 18.3426
L11.8720 18.3426
" />
<path d="M11.8720 18.3426
L11.9929 18.2822
" />
<path d="M11.9929 18.2822
L12.0534 18.2217
" />
<path d="M12.0534 18.2217
L12.1139 18.1007
" />
<path d="M12.1139 18.1007
L12.1139 17.9798
" />
<path d="M12.1139 17.9798
L12.0534 17.8588
" />
<path d="M12.0534 17.8588
L11.9929 17.7983
" />
<path d="M11.9929 17.7983
L11.8720 17.7379
" />
<path d="M11.8720 17.7379
L11.6301 17.6774
" />
<path d="M11.6301 17.6774
L11.5091 17.6169
" />
<path d="M11.5091 17.6169
L11.4486 17.5564
" />
<path d="M11.4486 17.5564
L11.3882 17.4355
" />
<path d="M11.3882 17.4355
L11.3882 17.3145
" />
<path d="M11.3882 17.3145
L11.4486 17.1936
" />
<path d="M11.4486 17.1936
L11.5091 17.1331
" />
<path d="M11.5091 17.1331
L11.6301 17.0726
" />
<path d="M11.6301 17.0726
L11.9324 17.0726
" />
<path d="M11.9324 17.0726
L12.1139 17.1331
" />
<path d="M12.8396 18.2217
L12.9000 18.2822
" />
<path d="M12.9000 18.2822
L12.8396 18.3426
" />
<path d="M12.8396 18.3426
L12.7791 18.2822
" />
<path d="M12.7791 18.2822
L12.8396 18.2217
" />
<path d="M12.8396 18.2217
L12.8396 18.3426
" />
<path d="M12.5977 17.1331
L12.7186 17.0726
" />
<path d="M12.7186 17.0726
L13.0210 17.0726
" />
<path d="M13.0210 17.0726
L13.1419 17.1331
" />
<path d="M13.1419 17.1331
L13.2024 17.2541
" />
<path d="M13.2024 17.2541
L13.2024 17.3750
" />
<path d="M13.2024 17.3750
L13.1419 17.4960
" />
<path d="M13.1419 17.4960
L13.0815 17.5564
" />
<path d="M13.0815 17.5564
L12.9605 17.6169
" />
<path d="M12.9605 17.6169
L12.9000 17.6774
" />
<path d="M12.9000 17.6774
L12.8396 17.7983
" />
<path d="M12.8396 17.7983
L12.8396 17.8588
" />
</g></g>
</svg>
