<?xml version="1.0" standalone="no"?>
 <!DOCTYPE svg PUBLIC "-//W3C//DTD SVG 1.1//EN"
 "http://www.w3.org/Graphics/SVG/1.1/DTD/svg11.dtd">
<svg
  xmlns:svg="http://www.w3.org/2000/svg"
  xmlns="http://www.w3.org/2000/svg"
  xmlns:xlink="http://www.w3.org/1999/xlink"
  xmlns:inkscape="http://www.inkscape.org/namespaces/inkscape"
  version="1.1"
  width="28.9306mm" height="19.3294mm" viewBox="0.0000 0.0000 28.9306 19.3294">
<title>SVG Image created as Tank - Horizontal_unit1.svg date 2026-05-31T14:48:22 </title>
  <desc>Image generated by Eeschema-SVG </desc>
<g style="fill:#000000; fill-opacity:1.0000;stroke:#000000; stroke-opacity:1.0000;
stroke-linecap:round; stroke-linejoin:round;"
 transform="translate(0 0) scale(1 1)">
</g>
<g style="fill:none;
stroke:#840000; stroke-width:0.1000; stroke-opacity:1;
stroke-linecap:round; stroke-linejoin:round;">
<rect x="8.465300" y="5.664700" width="12.000000" height="8.000000" rx="0.000000" />
<path d="M8.4653 5.6647 A5.0000 5.0000 0.0 0 0 8.4653 13.6647" />
<path d="M20.4653 13.6647 A5.0000 5.0000 0.0 0 0 20.4653 5.6647" />
</g>
<g style="fill:none;
stroke:#840000; stroke-width:0.1524; stroke-opacity:1;
stroke-linecap:round; stroke-linejoin:round;">
<path d="M9.4653 9.6647
L6.4653 9.6647
" />
<path d="M19.4653 9.6647
L22.4653 9.6647
" />
</g>
<g style="fill:none;
stroke:#006464; stroke-width:0.1524; stroke-opacity:1;
stroke-linecap:round; stroke-linejoin:round;">
<text x="14.4653" y="17.2997"
textLength="7.8836" font-size="1.6933" lengthAdjust="spacingAndGlyphs"
text-anchor="middle" opacity="0" stroke-opacity="0">Tank_H?</text>
<g class="stroked-text"><desc>Tank_H?</desc>
<path d="M10.7460 15.9742
L11.4717 15.9742
" />
<path d="M11.1089 17.2442
L11.1089 15.9742
" />
<path d="M12.4393 17.2442
L12.4393 16.5790
" />
<path d="M12.4393 16.5790
L12.3788 16.4580
" />
<path d="M12.3788 16.4580
L12.2579 16.3976
" />
<path d="M12.2579 16.3976
L12.0160 16.3976
" />
<path d="M12.0160 16.3976
L11.8950 16.4580
" />
<path d="M12.4393 17.1838
L12.3184 17.2442
" />
<path d="M12.3184 17.2442
L12.0160 17.2442
" />
<path d="M12.0160 17.2442
L11.8950 17.1838
" />
<path d="M11.8950 17.1838
L11.8346 17.0628
" />
<path d="M11.8346 17.0628
L11.8346 16.9418
" />
<path d="M11.8346 16.9418
L11.8950 16.8209
" />
<path d="M11.8950 16.8209
L12.0160 16.7604
" />
<path d="M12.0160 16.7604
L12.3184 16.7604
" />
<path d="M12.3184 16.7604
L12.4393 16.6999
" />
<path d="M13.0440 16.3976
L13.0440 17.2442
" />
<path d="M13.0440 16.5185
L13.1045 16.4580
" />
<path d="M13.1045 16.4580
L13.2255 16.3976
" />
<path d="M13.2255 16.3976
L13.4069 16.3976
" />
<path d="M13.4069 16.3976
L13.5278 16.4580
" />
<path d="M13.5278 16.4580
L13.5883 16.5790
" />
<path d="M13.5883 16.5790
L13.5883 17.2442
" />
<path d="M14.1930 17.2442
L14.1930 15.9742
" />
<path d="M14.3140 16.7604
L14.6768 17.2442
" />
<path d="M14.6768 16.3976
L14.1930 16.8814
" />
<path d="M14.9188 17.3652
L15.8864 17.3652
" />
<path d="M16.1887 17.2442
L16.1887 15.9742
" />
<path d="M16.1887 16.5790
L16.9144 16.5790
" />
<path d="M16.9144 17.2442
L16.9144 15.9742
" />
<path d="M17.7007 17.1233
L17.7611 17.1838
" />
<path d="M17.7611 17.1838
L17.7007 17.2442
" />
<path d="M17.7007 17.2442
L17.6402 17.1838
" />
<path d="M17.6402 17.1838
L17.7007 17.1233
" />
<path d="M17.7007 17.1233
L17.7007 17.2442
" />
<path d="M17.4588 16.0347
L17.5797 15.9742
" />
<path d="M17.5797 15.9742
L17.8821 15.9742
" />
<path d="M17.8821 15.9742
L18.0030 16.0347
" />
<path d="M18.0030 16.0347
L18.0635 16.1557
" />
<path d="M18.0635 16.1557
L18.0635 16.2766
" />
<path d="M18.0635 16.2766
L18.0030 16.3976
" />
<path d="M18.0030 16.3976
L17.9426 16.4580
" />
<path d="M17.9426 16.4580
L17.8216 16.5185
" />
<path d="M17.8216 16.5185
L17.7611 16.5790
" />
<path d="M17.7611 16.5790
L17.7007 16.6999
" />
<path d="M17.7007 16.6999
L17.7007 16.7604
" />
</g></g>
</svg>
