<?xml version="1.0" standalone="no"?>
 <!DOCTYPE svg PUBLIC "-//W3C//DTD SVG 1.1//EN"
 "http://www.w3.org/Graphics/SVG/1.1/DTD/svg11.dtd">
<svg
  xmlns:svg="http://www.w3.org/2000/svg"
  xmlns="http://www.w3.org/2000/svg"
  xmlns:xlink="http://www.w3.org/1999/xlink"
  xmlns:inkscape="http://www.inkscape.org/namespaces/inkscape"
  version="1.1"
  width="48.1076mm" height="49.2760mm" viewBox="0.0000 0.0000 48.1076 49.2760">
<title>SVG Image created as Tank - Large_unit1.svg date 2026-05-31T14:48:22 </title>
  <desc>Image generated by Eeschema-SVG </desc>
<g style="fill:#000000; fill-opacity:1.0000;stroke:#000000; stroke-opacity:1.0000;
stroke-linecap:round; stroke-linejoin:round;"
 transform="translate(0 0) scale(1 1)">
</g>
<g style="fill:none;
stroke:#840000; stroke-width:0.1000; stroke-opacity:1;
stroke-linecap:round; stroke-linejoin:round;">
<rect x="17.053800" y="12.152200" width="14.000000" height="24.000000" rx="0.000000" />
<path d="M31.0538 12.1522 A8.7500 8.7500 0.0 0 0 17.0538 12.1522" />
<path d="M17.0538 36.1522 A8.7500 8.7500 0.0 0 0 31.0538 36.1522" />
</g>
<g style="fill:none;
stroke:#840000; stroke-width:0.1524; stroke-opacity:1;
stroke-linecap:round; stroke-linejoin:round;">
<path d="M24.0538 11.6522
L24.0538 8.6522
" />
<path d="M24.0538 36.6522
L24.0538 39.6522
" />
</g>
<g style="fill:none;
stroke:#006464; stroke-width:0.1524; stroke-opacity:1;
stroke-linecap:round; stroke-linejoin:round;">
<text x="24.0538" y="44.7872"
textLength="7.5812" font-size="1.6933" lengthAdjust="spacingAndGlyphs"
text-anchor="middle" opacity="0" stroke-opacity="0">Tank_L?</text>
<g class="stroked-text"><desc>Tank_L?</desc>
<path d="M20.4857 43.4617
L21.2114 43.4617
" />
<path d="M20.8486 44.7317
L20.8486 43.4617
" />
<path d="M22.1790 44.7317
L22.1790 44.0665
" />
<path d="M22.1790 44.0665
L22.1185 43.9455
" />
<path d="M22.1185 43.9455
L21.9976 43.8851
" />
<path d="M21.9976 43.8851
L21.7557 43.8851
" />
<path d="M21.7557 43.8851
L21.6347 43.9455
" />
<path d="M22.1790 44.6713
L22.0581 44.7317
" />
<path d="M22.0581 44.7317
L21.7557 44.7317
" />
<path d="M21.7557 44.7317
L21.6347 44.6713
" />
<path d="M21.6347 44.6713
L21.5743 44.5503
" />
<path d="M21.5743 44.5503
L21.5743 44.4293
" />
<path d="M21.5743 44.4293
L21.6347 44.3084
" />
<path d="M21.6347 44.3084
L21.7557 44.2479
" />
<path d="M21.7557 44.2479
L22.0581 44.2479
" />
<path d="M22.0581 44.2479
L22.1790 44.1874
" />
<path d="M22.7837 43.8851
L22.7837 44.7317
" />
<path d="M22.7837 44.0060
L22.8442 43.9455
" />
<path d="M22.8442 43.9455
L22.9652 43.8851
" />
<path d="M22.9652 43.8851
L23.1466 43.8851
" />
<path d="M23.1466 43.8851
L23.2675 43.9455
" />
<path d="M23.2675 43.9455
L23.3280 44.0665
" />
<path d="M23.3280 44.0665
L23.3280 44.7317
" />
<path d="M23.9327 44.7317
L23.9327 43.4617
" />
<path d="M24.0537 44.2479
L24.4165 44.7317
" />
<path d="M24.4165 43.8851
L23.9327 44.3689
" />
<path d="M24.6585 44.8527
L25.6261 44.8527
" />
<path d="M26.5332 44.7317
L25.9284 44.7317
" />
<path d="M25.9284 44.7317
L25.9284 43.4617
" />
<path d="M27.1380 44.6108
L27.1984 44.6713
" />
<path d="M27.1984 44.6713
L27.1380 44.7317
" />
<path d="M27.1380 44.7317
L27.0775 44.6713
" />
<path d="M27.0775 44.6713
L27.1380 44.6108
" />
<path d="M27.1380 44.6108
L27.1380 44.7317
" />
<path d="M26.8961 43.5222
L27.0170 43.4617
" />
<path d="M27.0170 43.4617
L27.3194 43.4617
" />
<path d="M27.3194 43.4617
L27.4403 43.5222
" />
<path d="M27.4403 43.5222
L27.5008 43.6432
" />
<path d="M27.5008 43.6432
L27.5008 43.7641
" />
<path d="M27.5008 43.7641
L27.4403 43.8851
" />
<path d="M27.4403 43.8851
L27.3799 43.9455
" />
<path d="M27.3799 43.9455
L27.2589 44.0060
" />
<path d="M27.2589 44.0060
L27.1984 44.0665
" />
<path d="M27.1984 44.0665
L27.1380 44.1874
" />
<path d="M27.1380 44.1874
L27.1380 44.2479
" />
</g></g>
</svg>
