<!-- Copyright 2026 Kingston University Rocket Engineering -->

<?xml version="1.0" standalone="no"?>
 <!DOCTYPE svg PUBLIC "-//W3C//DTD SVG 1.1//EN"
 "http://www.w3.org/Graphics/SVG/1.1/DTD/svg11.dtd">
<svg
  xmlns:svg="http://www.w3.org/2000/svg"
  xmlns="http://www.w3.org/2000/svg"
  xmlns:xlink="http://www.w3.org/1999/xlink"
  xmlns:inkscape="http://www.inkscape.org/namespaces/inkscape"
  version="1.1"
  width="19.3294mm" height="23.2918mm" viewBox="0.0000 0.0000 19.3294 23.2918">
<title>SVG Image created as Tank_unit1.svg date 2026-05-31T11:36:18 </title>
  <desc>Image generated by Eeschema-SVG </desc>
<g style="fill:#000000; fill-opacity:1.0000;stroke:#000000; stroke-opacity:1.0000;
stroke-linecap:round; stroke-linejoin:round;"
 transform="translate(0 0) scale(1 1)">
</g>
<g style="fill:none;
stroke:#840000; stroke-width:0.1000; stroke-opacity:1;
stroke-linecap:round; stroke-linejoin:round;">
<rect x="5.664700" y="4.325600" width="8.000000" height="12.000000" rx="0.000000" />
<path d="M13.6647 4.3256 A5.0000 5.0000 0.0 0 0 5.6647 4.3256" />
<path d="M5.6647 16.3256 A5.0000 5.0000 0.0 0 0 13.6647 16.3256" />
</g>
<g style="fill:none;
stroke:#840000; stroke-width:0.1524; stroke-opacity:1;
stroke-linecap:round; stroke-linejoin:round;">
<path d="M9.6647 5.3256
L9.6647 2.3256
" />
<path d="M9.6647 15.3256
L9.6647 18.3256
" />
</g>
<g style="fill:none;
stroke:#006464; stroke-width:0.1524; stroke-opacity:1;
stroke-linecap:round; stroke-linejoin:round;">
<text x="9.6647" y="20.9606"
textLength="5.5855" font-size="1.6933" lengthAdjust="spacingAndGlyphs"
text-anchor="middle" opacity="0" stroke-opacity="0">Tank?</text>
<g class="stroked-text"><desc>Tank?</desc>
<path d="M7.0945 19.6351
L7.8202 19.6351
" />
<path d="M7.4574 20.9051
L7.4574 19.6351
" />
<path d="M8.7878 20.9051
L8.7878 20.2399
" />
<path d="M8.7878 20.2399
L8.7273 20.1189
" />
<path d="M8.7273 20.1189
L8.6064 20.0585
" />
<path d="M8.6064 20.0585
L8.3645 20.0585
" />
<path d="M8.3645 20.0585
L8.2435 20.1189
" />
<path d="M8.7878 20.8447
L8.6669 20.9051
" />
<path d="M8.6669 20.9051
L8.3645 20.9051
" />
<path d="M8.3645 20.9051
L8.2435 20.8447
" />
<path d="M8.2435 20.8447
L8.1831 20.7237
" />
<path d="M8.1831 20.7237
L8.1831 20.6027
" />
<path d="M8.1831 20.6027
L8.2435 20.4818
" />
<path d="M8.2435 20.4818
L8.3645 20.4213
" />
<path d="M8.3645 20.4213
L8.6669 20.4213
" />
<path d="M8.6669 20.4213
L8.7878 20.3608
" />
<path d="M9.3925 20.0585
L9.3925 20.9051
" />
<path d="M9.3925 20.1794
L9.4530 20.1189
" />
<path d="M9.4530 20.1189
L9.5740 20.0585
" />
<path d="M9.5740 20.0585
L9.7554 20.0585
" />
<path d="M9.7554 20.0585
L9.8763 20.1189
" />
<path d="M9.8763 20.1189
L9.9368 20.2399
" />
<path d="M9.9368 20.2399
L9.9368 20.9051
" />
<path d="M10.5415 20.9051
L10.5415 19.6351
" />
<path d="M10.6625 20.4213
L11.0253 20.9051
" />
<path d="M11.0253 20.0585
L10.5415 20.5423
" />
<path d="M11.7511 20.7842
L11.8115 20.8447
" />
<path d="M11.8115 20.8447
L11.7511 20.9051
" />
<path d="M11.7511 20.9051
L11.6906 20.8447
" />
<path d="M11.6906 20.8447
L11.7511 20.7842
" />
<path d="M11.7511 20.7842
L11.7511 20.9051
" />
<path d="M11.5092 19.6956
L11.6301 19.6351
" />
<path d="M11.6301 19.6351
L11.9325 19.6351
" />
<path d="M11.9325 19.6351
L12.0534 19.6956
" />
<path d="M12.0534 19.6956
L12.1139 19.8166
" />
<path d="M12.1139 19.8166
L12.1139 19.9375
" />
<path d="M12.1139 19.9375
L12.0534 20.0585
" />
<path d="M12.0534 20.0585
L11.9930 20.1189
" />
<path d="M11.9930 20.1189
L11.8720 20.1794
" />
<path d="M11.8720 20.1794
L11.8115 20.2399
" />
<path d="M11.8115 20.2399
L11.7511 20.3608
" />
<path d="M11.7511 20.3608
L11.7511 20.4213
" />
</g></g>
</svg>
