<?xml version="1.0" standalone="no"?>
 <!DOCTYPE svg PUBLIC "-//W3C//DTD SVG 1.1//EN"
 "http://www.w3.org/Graphics/SVG/1.1/DTD/svg11.dtd">
<svg
  xmlns:svg="http://www.w3.org/2000/svg"
  xmlns="http://www.w3.org/2000/svg"
  xmlns:xlink="http://www.w3.org/1999/xlink"
  xmlns:inkscape="http://www.inkscape.org/namespaces/inkscape"
  version="1.1"
  width="19.3294mm" height="22.8854mm" viewBox="0.0000 0.0000 19.3294 22.8854">
<title>SVG Image created as Tank - Sphere_unit1.svg date 2026-05-31T14:48:22 </title>
  <desc>Image generated by Eeschema-SVG </desc>
<g style="fill:#000000; fill-opacity:1.0000;stroke:#000000; stroke-opacity:1.0000;
stroke-linecap:round; stroke-linejoin:round;"
 transform="translate(0 0) scale(1 1)">
</g>
<g style="fill:none;
stroke:#840000; stroke-width:0.1000; stroke-opacity:1;
stroke-linecap:round; stroke-linejoin:round;">
<circle cx="9.6647" cy="9.9569" r="6.0000" />
</g>
<g style="fill:none;
stroke:#840000; stroke-width:0.1524; stroke-opacity:1;
stroke-linecap:round; stroke-linejoin:round;">
<path d="M9.6647 6.9569
L9.6647 3.9569
" />
<path d="M9.6647 12.9569
L9.6647 15.9569
" />
</g>
<g style="fill:none;
stroke:#006464; stroke-width:0.1524; stroke-opacity:1;
stroke-linecap:round; stroke-linejoin:round;">
<text x="9.6647" y="20.5919"
textLength="10.0606" font-size="1.6933" lengthAdjust="spacingAndGlyphs"
text-anchor="middle" opacity="0" stroke-opacity="0">Tank_Sph?</text>
<g class="stroked-text"><desc>Tank_Sph?</desc>
<path d="M4.8569 19.2664
L5.5826 19.2664
" />
<path d="M5.2198 20.5364
L5.2198 19.2664
" />
<path d="M6.5502 20.5364
L6.5502 19.8712
" />
<path d="M6.5502 19.8712
L6.4897 19.7502
" />
<path d="M6.4897 19.7502
L6.3688 19.6898
" />
<path d="M6.3688 19.6898
L6.1269 19.6898
" />
<path d="M6.1269 19.6898
L6.0059 19.7502
" />
<path d="M6.5502 20.4760
L6.4293 20.5364
" />
<path d="M6.4293 20.5364
L6.1269 20.5364
" />
<path d="M6.1269 20.5364
L6.0059 20.4760
" />
<path d="M6.0059 20.4760
L5.9455 20.3550
" />
<path d="M5.9455 20.3550
L5.9455 20.2340
" />
<path d="M5.9455 20.2340
L6.0059 20.1131
" />
<path d="M6.0059 20.1131
L6.1269 20.0526
" />
<path d="M6.1269 20.0526
L6.4293 20.0526
" />
<path d="M6.4293 20.0526
L6.5502 19.9921
" />
<path d="M7.1549 19.6898
L7.1549 20.5364
" />
<path d="M7.1549 19.8107
L7.2154 19.7502
" />
<path d="M7.2154 19.7502
L7.3364 19.6898
" />
<path d="M7.3364 19.6898
L7.5178 19.6898
" />
<path d="M7.5178 19.6898
L7.6387 19.7502
" />
<path d="M7.6387 19.7502
L7.6992 19.8712
" />
<path d="M7.6992 19.8712
L7.6992 20.5364
" />
<path d="M8.3039 20.5364
L8.3039 19.2664
" />
<path d="M8.4249 20.0526
L8.7877 20.5364
" />
<path d="M8.7877 19.6898
L8.3039 20.1736
" />
<path d="M9.0297 20.6574
L9.9973 20.6574
" />
<path d="M10.2392 20.4760
L10.4206 20.5364
" />
<path d="M10.4206 20.5364
L10.7230 20.5364
" />
<path d="M10.7230 20.5364
L10.8439 20.4760
" />
<path d="M10.8439 20.4760
L10.9044 20.4155
" />
<path d="M10.9044 20.4155
L10.9649 20.2945
" />
<path d="M10.9649 20.2945
L10.9649 20.1736
" />
<path d="M10.9649 20.1736
L10.9044 20.0526
" />
<path d="M10.9044 20.0526
L10.8439 19.9921
" />
<path d="M10.8439 19.9921
L10.7230 19.9317
" />
<path d="M10.7230 19.9317
L10.4811 19.8712
" />
<path d="M10.4811 19.8712
L10.3601 19.8107
" />
<path d="M10.3601 19.8107
L10.2996 19.7502
" />
<path d="M10.2996 19.7502
L10.2392 19.6293
" />
<path d="M10.2392 19.6293
L10.2392 19.5083
" />
<path d="M10.2392 19.5083
L10.2996 19.3874
" />
<path d="M10.2996 19.3874
L10.3601 19.3269
" />
<path d="M10.3601 19.3269
L10.4811 19.2664
" />
<path d="M10.4811 19.2664
L10.7834 19.2664
" />
<path d="M10.7834 19.2664
L10.9649 19.3269
" />
<path d="M11.5091 19.6898
L11.5091 20.9598
" />
<path d="M11.5091 19.7502
L11.6301 19.6898
" />
<path d="M11.6301 19.6898
L11.8720 19.6898
" />
<path d="M11.8720 19.6898
L11.9929 19.7502
" />
<path d="M11.9929 19.7502
L12.0534 19.8107
" />
<path d="M12.0534 19.8107
L12.1139 19.9317
" />
<path d="M12.1139 19.9317
L12.1139 20.2945
" />
<path d="M12.1139 20.2945
L12.0534 20.4155
" />
<path d="M12.0534 20.4155
L11.9929 20.4760
" />
<path d="M11.9929 20.4760
L11.8720 20.5364
" />
<path d="M11.8720 20.5364
L11.6301 20.5364
" />
<path d="M11.6301 20.5364
L11.5091 20.4760
" />
<path d="M12.6581 20.5364
L12.6581 19.2664
" />
<path d="M13.2024 20.5364
L13.2024 19.8712
" />
<path d="M13.2024 19.8712
L13.1419 19.7502
" />
<path d="M13.1419 19.7502
L13.0210 19.6898
" />
<path d="M13.0210 19.6898
L12.8396 19.6898
" />
<path d="M12.8396 19.6898
L12.7186 19.7502
" />
<path d="M12.7186 19.7502
L12.6581 19.8107
" />
<path d="M13.9886 20.4155
L14.0490 20.4760
" />
<path d="M14.0490 20.4760
L13.9886 20.5364
" />
<path d="M13.9886 20.5364
L13.9281 20.4760
" />
<path d="M13.9281 20.4760
L13.9886 20.4155
" />
<path d="M13.9886 20.4155
L13.9886 20.5364
" />
<path d="M13.7467 19.3269
L13.8676 19.2664
" />
<path d="M13.8676 19.2664
L14.1700 19.2664
" />
<path d="M14.1700 19.2664
L14.2909 19.3269
" />
<path d="M14.2909 19.3269
L14.3514 19.4479
" />
<path d="M14.3514 19.4479
L14.3514 19.5688
" />
<path d="M14.3514 19.5688
L14.2909 19.6898
" />
<path d="M14.2909 19.6898
L14.2305 19.7502
" />
<path d="M14.2305 19.7502
L14.1095 19.8107
" />
<path d="M14.1095 19.8107
L14.0490 19.8712
" />
<path d="M14.0490 19.8712
L13.9886 19.9921
" />
<path d="M13.9886 19.9921
L13.9886 20.0526
" />
</g></g>
</svg>
