<?xml version="1.0" standalone="no"?>
 <!DOCTYPE svg PUBLIC "-//W3C//DTD SVG 1.1//EN"
 "http://www.w3.org/Graphics/SVG/1.1/DTD/svg11.dtd">
<svg
  xmlns:svg="http://www.w3.org/2000/svg"
  xmlns="http://www.w3.org/2000/svg"
  xmlns:xlink="http://www.w3.org/1999/xlink"
  xmlns:inkscape="http://www.inkscape.org/namespaces/inkscape"
  version="1.1"
  width="20.1168mm" height="22.8854mm" viewBox="0.0000 0.0000 20.1168 22.8854">
<title>SVG Image created as Pyro Valve NO_unit1.svg date 2026-05-31T14:38:11 </title>
  <desc>Image generated by Eeschema-SVG </desc>
<g style="fill:#000000; fill-opacity:1.0000;stroke:#000000; stroke-opacity:1.0000;
stroke-linecap:round; stroke-linejoin:round;"
 transform="translate(0 0) scale(1 1)">
<path style="fill:#840000; fill-opacity:1.0000;
stroke:#840000; stroke-width:0.1000; stroke-opacity:1;
stroke-linecap:round; stroke-linejoin:round;fill-rule:evenodd;"
d="M 4.0584,9.9569
4.0584,9.7069
5.0584,9.9569
4.0584,10.2069
Z" />
</g>
<g style="fill:none;
stroke:#840000; stroke-width:0.1000; stroke-opacity:1;
stroke-linecap:round; stroke-linejoin:round;">
<rect x="8.058400" y="4.956900" width="4.000000" height="2.000000" rx="0.000000" />
<path style="fill:none;
stroke:#840000; stroke-width:0.1000; stroke-opacity:1;
stroke-linecap:round; stroke-linejoin:round;fill:none"
d="M 8.0584,6.9569
12.0584,4.9569
" />
<path style="fill:none;
stroke:#840000; stroke-width:0.1000; stroke-opacity:1;
stroke-linecap:round; stroke-linejoin:round;fill:none"
d="M 10.0584,6.9569
10.0584,9.9569
" />
<path style="fill:none;
stroke:#840000; stroke-width:0.1000; stroke-opacity:1;
stroke-linecap:round; stroke-linejoin:round;fill:none"
d="M 10.0584,9.9569
5.0584,7.9569
5.0584,11.9569
Z" />
<path style="fill:none;
stroke:#840000; stroke-width:0.1000; stroke-opacity:1;
stroke-linecap:round; stroke-linejoin:round;fill:none"
d="M 10.0584,9.9569
15.0584,7.9569
15.0584,11.9569
Z" />
<path style="fill:#840000; fill-opacity:1.0000;
stroke:#840000; stroke-width:0.1000; stroke-opacity:1;
stroke-linecap:round; stroke-linejoin:round;fill-rule:evenodd;"
d="M 16.0584,9.9569
16.0584,9.7069
17.0584,9.9569
16.0584,10.2069
Z" />
</g>
<g style="fill:none;
stroke:#840000; stroke-width:0.1524; stroke-opacity:1;
stroke-linecap:round; stroke-linejoin:round;">
<path d="M5.0584 9.9569
L2.0584 9.9569
" />
<path d="M15.0584 9.9569
L18.0584 9.9569
" />
</g>
<g style="fill:none;
stroke:#006464; stroke-width:0.1524; stroke-opacity:1;
stroke-linecap:round; stroke-linejoin:round;">
<text x="10.0584" y="20.5919"
textLength="15.0198" font-size="1.6933" lengthAdjust="spacingAndGlyphs"
text-anchor="middle" opacity="0" stroke-opacity="0">Pyro_NO_Valve?</text>
<g class="stroked-text"><desc>Pyro_NO_Valve?</desc>
<path d="M2.9524 20.5364
L2.9524 19.2664
" />
<path d="M2.9524 19.2664
L3.4362 19.2664
" />
<path d="M3.4362 19.2664
L3.5572 19.3269
" />
<path d="M3.5572 19.3269
L3.6177 19.3874
" />
<path d="M3.6177 19.3874
L3.6781 19.5083
" />
<path d="M3.6781 19.5083
L3.6781 19.6898
" />
<path d="M3.6781 19.6898
L3.6177 19.8107
" />
<path d="M3.6177 19.8107
L3.5572 19.8712
" />
<path d="M3.5572 19.8712
L3.4362 19.9317
" />
<path d="M3.4362 19.9317
L2.9524 19.9317
" />
<path d="M4.1015 19.6898
L4.4039 20.5364
" />
<path d="M4.7062 19.6898
L4.4039 20.5364
" />
<path d="M4.4039 20.5364
L4.2829 20.8388
" />
<path d="M4.2829 20.8388
L4.2224 20.8993
" />
<path d="M4.2224 20.8993
L4.1015 20.9598
" />
<path d="M5.1900 20.5364
L5.1900 19.6898
" />
<path d="M5.1900 19.9317
L5.2505 19.8107
" />
<path d="M5.2505 19.8107
L5.3110 19.7502
" />
<path d="M5.3110 19.7502
L5.4319 19.6898
" />
<path d="M5.4319 19.6898
L5.5529 19.6898
" />
<path d="M6.1577 20.5364
L6.0367 20.4760
" />
<path d="M6.0367 20.4760
L5.9762 20.4155
" />
<path d="M5.9762 20.4155
L5.9158 20.2945
" />
<path d="M5.9158 20.2945
L5.9158 19.9317
" />
<path d="M5.9158 19.9317
L5.9762 19.8107
" />
<path d="M5.9762 19.8107
L6.0367 19.7502
" />
<path d="M6.0367 19.7502
L6.1577 19.6898
" />
<path d="M6.1577 19.6898
L6.3391 19.6898
" />
<path d="M6.3391 19.6898
L6.4600 19.7502
" />
<path d="M6.4600 19.7502
L6.5205 19.8107
" />
<path d="M6.5205 19.8107
L6.5810 19.9317
" />
<path d="M6.5810 19.9317
L6.5810 20.2945
" />
<path d="M6.5810 20.2945
L6.5205 20.4155
" />
<path d="M6.5205 20.4155
L6.4600 20.4760
" />
<path d="M6.4600 20.4760
L6.3391 20.5364
" />
<path d="M6.3391 20.5364
L6.1577 20.5364
" />
<path d="M6.8229 20.6574
L7.7905 20.6574
" />
<path d="M8.0928 20.5364
L8.0928 19.2664
" />
<path d="M8.0928 19.2664
L8.8185 20.5364
" />
<path d="M8.8185 20.5364
L8.8185 19.2664
" />
<path d="M9.6652 19.2664
L9.9071 19.2664
" />
<path d="M9.9071 19.2664
L10.0281 19.3269
" />
<path d="M10.0281 19.3269
L10.1490 19.4479
" />
<path d="M10.1490 19.4479
L10.2095 19.6898
" />
<path d="M10.2095 19.6898
L10.2095 20.1131
" />
<path d="M10.2095 20.1131
L10.1490 20.3550
" />
<path d="M10.1490 20.3550
L10.0281 20.4760
" />
<path d="M10.0281 20.4760
L9.9071 20.5364
" />
<path d="M9.9071 20.5364
L9.6652 20.5364
" />
<path d="M9.6652 20.5364
L9.5443 20.4760
" />
<path d="M9.5443 20.4760
L9.4233 20.3550
" />
<path d="M9.4233 20.3550
L9.3629 20.1131
" />
<path d="M9.3629 20.1131
L9.3629 19.6898
" />
<path d="M9.3629 19.6898
L9.4233 19.4479
" />
<path d="M9.4233 19.4479
L9.5443 19.3269
" />
<path d="M9.5443 19.3269
L9.6652 19.2664
" />
<path d="M10.4515 20.6574
L11.4191 20.6574
" />
<path d="M11.5400 19.2664
L11.9633 20.5364
" />
<path d="M11.9633 20.5364
L12.3867 19.2664
" />
<path d="M13.3543 20.5364
L13.3543 19.8712
" />
<path d="M13.3543 19.8712
L13.2938 19.7502
" />
<path d="M13.2938 19.7502
L13.1729 19.6898
" />
<path d="M13.1729 19.6898
L12.9310 19.6898
" />
<path d="M12.9310 19.6898
L12.8100 19.7502
" />
<path d="M13.3543 20.4760
L13.2334 20.5364
" />
<path d="M13.2334 20.5364
L12.9310 20.5364
" />
<path d="M12.9310 20.5364
L12.8100 20.4760
" />
<path d="M12.8100 20.4760
L12.7496 20.3550
" />
<path d="M12.7496 20.3550
L12.7496 20.2340
" />
<path d="M12.7496 20.2340
L12.8100 20.1131
" />
<path d="M12.8100 20.1131
L12.9310 20.0526
" />
<path d="M12.9310 20.0526
L13.2334 20.0526
" />
<path d="M13.2334 20.0526
L13.3543 19.9921
" />
<path d="M14.1405 20.5364
L14.0195 20.4760
" />
<path d="M14.0195 20.4760
L13.9590 20.3550
" />
<path d="M13.9590 20.3550
L13.9590 19.2664
" />
<path d="M14.5033 19.6898
L14.8057 20.5364
" />
<path d="M14.8057 20.5364
L15.1080 19.6898
" />
<path d="M16.0756 20.4760
L15.9547 20.5364
" />
<path d="M15.9547 20.5364
L15.7128 20.5364
" />
<path d="M15.7128 20.5364
L15.5918 20.4760
" />
<path d="M15.5918 20.4760
L15.5314 20.3550
" />
<path d="M15.5314 20.3550
L15.5314 19.8712
" />
<path d="M15.5314 19.8712
L15.5918 19.7502
" />
<path d="M15.5918 19.7502
L15.7128 19.6898
" />
<path d="M15.7128 19.6898
L15.9547 19.6898
" />
<path d="M15.9547 19.6898
L16.0756 19.7502
" />
<path d="M16.0756 19.7502
L16.1361 19.8712
" />
<path d="M16.1361 19.8712
L16.1361 19.9921
" />
<path d="M16.1361 19.9921
L15.5314 20.1131
" />
<path d="M16.8619 20.4155
L16.9223 20.4760
" />
<path d="M16.9223 20.4760
L16.8619 20.5364
" />
<path d="M16.8619 20.5364
L16.8014 20.4760
" />
<path d="M16.8014 20.4760
L16.8619 20.4155
" />
<path d="M16.8619 20.4155
L16.8619 20.5364
" />
<path d="M16.6200 19.3269
L16.7409 19.2664
" />
<path d="M16.7409 19.2664
L17.0433 19.2664
" />
<path d="M17.0433 19.2664
L17.1642 19.3269
" />
<path d="M17.1642 19.3269
L17.2247 19.4479
" />
<path d="M17.2247 19.4479
L17.2247 19.5688
" />
<path d="M17.2247 19.5688
L17.1642 19.6898
" />
<path d="M17.1642 19.6898
L17.1038 19.7502
" />
<path d="M17.1038 19.7502
L16.9828 19.8107
" />
<path d="M16.9828 19.8107
L16.9223 19.8712
" />
<path d="M16.9223 19.8712
L16.8619 19.9921
" />
<path d="M16.8619 19.9921
L16.8619 20.0526
" />
</g></g>
</svg>
