<?xml version="1.0" standalone="no"?>
 <!DOCTYPE svg PUBLIC "-//W3C//DTD SVG 1.1//EN" 
 "http://www.w3.org/Graphics/SVG/1.1/DTD/svg11.dtd"> 
<svg
  xmlns:svg="http://www.w3.org/2000/svg"
  xmlns="http://www.w3.org/2000/svg"
  xmlns:xlink="http://www.w3.org/1999/xlink"
  xmlns:inkscape="http://www.inkscape.org/namespaces/inkscape"
  version="1.1"
  width="20.1168mm" height="22.8854mm" viewBox="0.0000 0.0000 20.1168 22.8854">
<title>SVG Image created as Pyro Valve NC_unit1.svg date 2026-05-31T11:36:31 </title>
  <desc>Image generated by Eeschema-SVG </desc>
<g style="fill:#000000; fill-opacity:1.0000;stroke:#000000; stroke-opacity:1.0000;
stroke-linecap:round; stroke-linejoin:round;"
 transform="translate(0 0) scale(1 1)">
</g>
<g style="fill:#840000; fill-opacity:1.0000; 
stroke:#840000; stroke-width:0.1000; stroke-opacity:1; 
stroke-linecap:round; stroke-linejoin:round;">
<rect x="8.058400" y="4.956900" width="4.000000" height="2.000000" rx="0.000000" />
<path style="fill:none; 
stroke:#840000; stroke-width:0.1000; stroke-opacity:1; 
stroke-linecap:round; stroke-linejoin:round;fill:none"
d="M 8.0584,6.9569
12.0584,4.9569
" /> 
<path style="fill:none; 
stroke:#840000; stroke-width:0.1000; stroke-opacity:1; 
stroke-linecap:round; stroke-linejoin:round;fill:none"
d="M 10.0584,6.9569
10.0584,9.9569
" /> 
<path style="fill:none; 
stroke:#840000; stroke-width:0.1000; stroke-opacity:1; 
stroke-linecap:round; stroke-linejoin:round;fill:none"
d="M 10.0584,9.9569
5.0584,7.9569
5.0584,11.9569
Z" /> 
<path style="fill:none; 
stroke:#840000; stroke-width:0.1000; stroke-opacity:1; 
stroke-linecap:round; stroke-linejoin:round;fill:none"
d="M 10.0584,9.9569
15.0584,7.9569
15.0584,11.9569
Z" /> 
</g>
<g style="fill:none; 
stroke:#840000; stroke-width:0.1524; stroke-opacity:1; 
stroke-linecap:round; stroke-linejoin:round;">
<path d="M5.0584 9.9569
L2.0584 9.9569
" />
<path d="M15.0584 9.9569
L18.0584 9.9569
" />
</g>
<g style="fill:none; 
stroke:#006464; stroke-width:0.1524; stroke-opacity:1; 
stroke-linecap:round; stroke-linejoin:round;">
<text x="10.0584" y="20.5919"
textLength="14.9593" font-size="1.6933" lengthAdjust="spacingAndGlyphs"
text-anchor="middle" opacity="0" stroke-opacity="0">Pyro_NC_Valve?</text>
<g class="stroked-text"><desc>Pyro_NC_Valve?</desc>
<path d="M2.9827 20.5364
L2.9827 19.2664
" />
<path d="M2.9827 19.2664
L3.4665 19.2664
" />
<path d="M3.4665 19.2664
L3.5875 19.3269
" />
<path d="M3.5875 19.3269
L3.6480 19.3874
" />
<path d="M3.6480 19.3874
L3.7084 19.5083
" />
<path d="M3.7084 19.5083
L3.7084 19.6898
" />
<path d="M3.7084 19.6898
L3.6480 19.8107
" />
<path d="M3.6480 19.8107
L3.5875 19.8712
" />
<path d="M3.5875 19.8712
L3.4665 19.9317
" />
<path d="M3.4665 19.9317
L2.9827 19.9317
" />
<path d="M4.1318 19.6898
L4.4342 20.5364
" />
<path d="M4.7365 19.6898
L4.4342 20.5364
" />
<path d="M4.4342 20.5364
L4.3132 20.8388
" />
<path d="M4.3132 20.8388
L4.2527 20.8993
" />
<path d="M4.2527 20.8993
L4.1318 20.9598
" />
<path d="M5.2203 20.5364
L5.2203 19.6898
" />
<path d="M5.2203 19.9317
L5.2808 19.8107
" />
<path d="M5.2808 19.8107
L5.3413 19.7502
" />
<path d="M5.3413 19.7502
L5.4622 19.6898
" />
<path d="M5.4622 19.6898
L5.5832 19.6898
" />
<path d="M6.1880 20.5364
L6.0670 20.4760
" />
<path d="M6.0670 20.4760
L6.0065 20.4155
" />
<path d="M6.0065 20.4155
L5.9461 20.2945
" />
<path d="M5.9461 20.2945
L5.9461 19.9317
" />
<path d="M5.9461 19.9317
L6.0065 19.8107
" />
<path d="M6.0065 19.8107
L6.0670 19.7502
" />
<path d="M6.0670 19.7502
L6.1880 19.6898
" />
<path d="M6.1880 19.6898
L6.3694 19.6898
" />
<path d="M6.3694 19.6898
L6.4903 19.7502
" />
<path d="M6.4903 19.7502
L6.5508 19.8107
" />
<path d="M6.5508 19.8107
L6.6113 19.9317
" />
<path d="M6.6113 19.9317
L6.6113 20.2945
" />
<path d="M6.6113 20.2945
L6.5508 20.4155
" />
<path d="M6.5508 20.4155
L6.4903 20.4760
" />
<path d="M6.4903 20.4760
L6.3694 20.5364
" />
<path d="M6.3694 20.5364
L6.1880 20.5364
" />
<path d="M6.8532 20.6574
L7.8208 20.6574
" />
<path d="M8.1231 20.5364
L8.1231 19.2664
" />
<path d="M8.1231 19.2664
L8.8488 20.5364
" />
<path d="M8.8488 20.5364
L8.8488 19.2664
" />
<path d="M10.1793 20.4155
L10.1189 20.4760
" />
<path d="M10.1189 20.4760
L9.9374 20.5364
" />
<path d="M9.9374 20.5364
L9.8165 20.5364
" />
<path d="M9.8165 20.5364
L9.6351 20.4760
" />
<path d="M9.6351 20.4760
L9.5141 20.3550
" />
<path d="M9.5141 20.3550
L9.4536 20.2340
" />
<path d="M9.4536 20.2340
L9.3932 19.9921
" />
<path d="M9.3932 19.9921
L9.3932 19.8107
" />
<path d="M9.3932 19.8107
L9.4536 19.5688
" />
<path d="M9.4536 19.5688
L9.5141 19.4479
" />
<path d="M9.5141 19.4479
L9.6351 19.3269
" />
<path d="M9.6351 19.3269
L9.8165 19.2664
" />
<path d="M9.8165 19.2664
L9.9374 19.2664
" />
<path d="M9.9374 19.2664
L10.1189 19.3269
" />
<path d="M10.1189 19.3269
L10.1793 19.3874
" />
<path d="M10.4213 20.6574
L11.3889 20.6574
" />
<path d="M11.5098 19.2664
L11.9331 20.5364
" />
<path d="M11.9331 20.5364
L12.3565 19.2664
" />
<path d="M13.3241 20.5364
L13.3241 19.8712
" />
<path d="M13.3241 19.8712
L13.2636 19.7502
" />
<path d="M13.2636 19.7502
L13.1427 19.6898
" />
<path d="M13.1427 19.6898
L12.9008 19.6898
" />
<path d="M12.9008 19.6898
L12.7798 19.7502
" />
<path d="M13.3241 20.4760
L13.2032 20.5364
" />
<path d="M13.2032 20.5364
L12.9008 20.5364
" />
<path d="M12.9008 20.5364
L12.7798 20.4760
" />
<path d="M12.7798 20.4760
L12.7194 20.3550
" />
<path d="M12.7194 20.3550
L12.7194 20.2340
" />
<path d="M12.7194 20.2340
L12.7798 20.1131
" />
<path d="M12.7798 20.1131
L12.9008 20.0526
" />
<path d="M12.9008 20.0526
L13.2032 20.0526
" />
<path d="M13.2032 20.0526
L13.3241 19.9921
" />
<path d="M14.1103 20.5364
L13.9893 20.4760
" />
<path d="M13.9893 20.4760
L13.9288 20.3550
" />
<path d="M13.9288 20.3550
L13.9288 19.2664
" />
<path d="M14.4731 19.6898
L14.7755 20.5364
" />
<path d="M14.7755 20.5364
L15.0778 19.6898
" />
<path d="M16.0454 20.4760
L15.9245 20.5364
" />
<path d="M15.9245 20.5364
L15.6826 20.5364
" />
<path d="M15.6826 20.5364
L15.5616 20.4760
" />
<path d="M15.5616 20.4760
L15.5012 20.3550
" />
<path d="M15.5012 20.3550
L15.5012 19.8712
" />
<path d="M15.5012 19.8712
L15.5616 19.7502
" />
<path d="M15.5616 19.7502
L15.6826 19.6898
" />
<path d="M15.6826 19.6898
L15.9245 19.6898
" />
<path d="M15.9245 19.6898
L16.0454 19.7502
" />
<path d="M16.0454 19.7502
L16.1059 19.8712
" />
<path d="M16.1059 19.8712
L16.1059 19.9921
" />
<path d="M16.1059 19.9921
L15.5012 20.1131
" />
<path d="M16.8317 20.4155
L16.8921 20.4760
" />
<path d="M16.8921 20.4760
L16.8317 20.5364
" />
<path d="M16.8317 20.5364
L16.7712 20.4760
" />
<path d="M16.7712 20.4760
L16.8317 20.4155
" />
<path d="M16.8317 20.4155
L16.8317 20.5364
" />
<path d="M16.5898 19.3269
L16.7107 19.2664
" />
<path d="M16.7107 19.2664
L17.0131 19.2664
" />
<path d="M17.0131 19.2664
L17.1340 19.3269
" />
<path d="M17.1340 19.3269
L17.1945 19.4479
" />
<path d="M17.1945 19.4479
L17.1945 19.5688
" />
<path d="M17.1945 19.5688
L17.1340 19.6898
" />
<path d="M17.1340 19.6898
L17.0736 19.7502
" />
<path d="M17.0736 19.7502
L16.9526 19.8107
" />
<path d="M16.9526 19.8107
L16.8921 19.8712
" />
<path d="M16.8921 19.8712
L16.8317 19.9921
" />
<path d="M16.8317 19.9921
L16.8317 20.0526
" />
</g></g> 
</svg>
