<?xml version="1.0" standalone="no"?>
 <!DOCTYPE svg PUBLIC "-//W3C//DTD SVG 1.1//EN" 
 "http://www.w3.org/Graphics/SVG/1.1/DTD/svg11.dtd"> 
<svg
  xmlns:svg="http://www.w3.org/2000/svg"
  xmlns="http://www.w3.org/2000/svg"
  xmlns:xlink="http://www.w3.org/1999/xlink"
  xmlns:inkscape="http://www.inkscape.org/namespaces/inkscape"
  version="1.1"
  width="20.1168mm" height="22.8854mm" viewBox="0.0000 0.0000 20.1168 22.8854">
<title>SVG Image created as Squib_unit1.svg date 2026-05-31T11:36:31 </title>
  <desc>Image generated by Eeschema-SVG </desc>
<g style="fill:#000000; fill-opacity:1.0000;stroke:#000000; stroke-opacity:1.0000;
stroke-linecap:round; stroke-linejoin:round;"
 transform="translate(0 0) scale(1 1)">
</g>
<g style="fill:none; 
stroke:#840000; stroke-width:0.1000; stroke-opacity:1; 
stroke-linecap:round; stroke-linejoin:round;">
<rect x="8.058400" y="8.456900" width="4.000000" height="3.000000" rx="0.000000" />
<path style="fill:none; 
stroke:#840000; stroke-width:0.1000; stroke-opacity:1; 
stroke-linecap:round; stroke-linejoin:round;fill:none"
d="M 8.0584,9.9569
5.0584,9.9569
" /> 
<path style="fill:none; 
stroke:#840000; stroke-width:0.1000; stroke-opacity:1; 
stroke-linecap:round; stroke-linejoin:round;fill:none"
d="M 9.0584,8.4569
11.0584,11.4569
" /> 
<path style="fill:none; 
stroke:#840000; stroke-width:0.1000; stroke-opacity:1; 
stroke-linecap:round; stroke-linejoin:round;fill:none"
d="M 11.0584,8.4569
9.0584,11.4569
" /> 
<path style="fill:none; 
stroke:#840000; stroke-width:0.1000; stroke-opacity:1; 
stroke-linecap:round; stroke-linejoin:round;fill:none"
d="M 12.0584,9.9569
15.0584,9.9569
" /> 
</g>
<g style="fill:none; 
stroke:#840000; stroke-width:0.1524; stroke-opacity:1; 
stroke-linecap:round; stroke-linejoin:round;">
<path d="M5.0584 9.9569
L2.0584 9.9569
" />
<path d="M15.0584 9.9569
L18.0584 9.9569
" />
</g>
<g style="fill:none; 
stroke:#006464; stroke-width:0.1524; stroke-opacity:1; 
stroke-linecap:round; stroke-linejoin:round;">
<text x="10.0584" y="20.5919"
textLength="6.5531" font-size="1.6933" lengthAdjust="spacingAndGlyphs"
text-anchor="middle" opacity="0" stroke-opacity="0">Squib?</text>
<g class="stroked-text"><desc>Squib?</desc>
<path d="M7.1254 20.4760
L7.3068 20.5364
" />
<path d="M7.3068 20.5364
L7.6092 20.5364
" />
<path d="M7.6092 20.5364
L7.7301 20.4760
" />
<path d="M7.7301 20.4760
L7.7906 20.4155
" />
<path d="M7.7906 20.4155
L7.8511 20.2945
" />
<path d="M7.8511 20.2945
L7.8511 20.1736
" />
<path d="M7.8511 20.1736
L7.7906 20.0526
" />
<path d="M7.7906 20.0526
L7.7301 19.9921
" />
<path d="M7.7301 19.9921
L7.6092 19.9317
" />
<path d="M7.6092 19.9317
L7.3673 19.8712
" />
<path d="M7.3673 19.8712
L7.2463 19.8107
" />
<path d="M7.2463 19.8107
L7.1858 19.7502
" />
<path d="M7.1858 19.7502
L7.1254 19.6293
" />
<path d="M7.1254 19.6293
L7.1254 19.5083
" />
<path d="M7.1254 19.5083
L7.1858 19.3874
" />
<path d="M7.1858 19.3874
L7.2463 19.3269
" />
<path d="M7.2463 19.3269
L7.3673 19.2664
" />
<path d="M7.3673 19.2664
L7.6696 19.2664
" />
<path d="M7.6696 19.2664
L7.8511 19.3269
" />
<path d="M8.9396 19.6898
L8.9396 20.9598
" />
<path d="M8.9396 20.4760
L8.8187 20.5364
" />
<path d="M8.8187 20.5364
L8.5768 20.5364
" />
<path d="M8.5768 20.5364
L8.4558 20.4760
" />
<path d="M8.4558 20.4760
L8.3953 20.4155
" />
<path d="M8.3953 20.4155
L8.3349 20.2945
" />
<path d="M8.3349 20.2945
L8.3349 19.9317
" />
<path d="M8.3349 19.9317
L8.3953 19.8107
" />
<path d="M8.3953 19.8107
L8.4558 19.7502
" />
<path d="M8.4558 19.7502
L8.5768 19.6898
" />
<path d="M8.5768 19.6898
L8.8187 19.6898
" />
<path d="M8.8187 19.6898
L8.9396 19.7502
" />
<path d="M10.0886 19.6898
L10.0886 20.5364
" />
<path d="M9.5443 19.6898
L9.5443 20.3550
" />
<path d="M9.5443 20.3550
L9.6048 20.4760
" />
<path d="M9.6048 20.4760
L9.7258 20.5364
" />
<path d="M9.7258 20.5364
L9.9072 20.5364
" />
<path d="M9.9072 20.5364
L10.0281 20.4760
" />
<path d="M10.0281 20.4760
L10.0886 20.4155
" />
<path d="M10.6933 20.5364
L10.6933 19.6898
" />
<path d="M10.6933 19.2664
L10.6329 19.3269
" />
<path d="M10.6329 19.3269
L10.6933 19.3874
" />
<path d="M10.6933 19.3874
L10.7538 19.3269
" />
<path d="M10.7538 19.3269
L10.6933 19.2664
" />
<path d="M10.6933 19.2664
L10.6933 19.3874
" />
<path d="M11.2981 20.5364
L11.2981 19.2664
" />
<path d="M11.2981 19.7502
L11.4191 19.6898
" />
<path d="M11.4191 19.6898
L11.6610 19.6898
" />
<path d="M11.6610 19.6898
L11.7819 19.7502
" />
<path d="M11.7819 19.7502
L11.8424 19.8107
" />
<path d="M11.8424 19.8107
L11.9029 19.9317
" />
<path d="M11.9029 19.9317
L11.9029 20.2945
" />
<path d="M11.9029 20.2945
L11.8424 20.4155
" />
<path d="M11.8424 20.4155
L11.7819 20.4760
" />
<path d="M11.7819 20.4760
L11.6610 20.5364
" />
<path d="M11.6610 20.5364
L11.4191 20.5364
" />
<path d="M11.4191 20.5364
L11.2981 20.4760
" />
<path d="M12.6286 20.4155
L12.6890 20.4760
" />
<path d="M12.6890 20.4760
L12.6286 20.5364
" />
<path d="M12.6286 20.5364
L12.5681 20.4760
" />
<path d="M12.5681 20.4760
L12.6286 20.4155
" />
<path d="M12.6286 20.4155
L12.6286 20.5364
" />
<path d="M12.3867 19.3269
L12.5076 19.2664
" />
<path d="M12.5076 19.2664
L12.8100 19.2664
" />
<path d="M12.8100 19.2664
L12.9309 19.3269
" />
<path d="M12.9309 19.3269
L12.9914 19.4479
" />
<path d="M12.9914 19.4479
L12.9914 19.5688
" />
<path d="M12.9914 19.5688
L12.9309 19.6898
" />
<path d="M12.9309 19.6898
L12.8705 19.7502
" />
<path d="M12.8705 19.7502
L12.7495 19.8107
" />
<path d="M12.7495 19.8107
L12.6890 19.8712
" />
<path d="M12.6890 19.8712
L12.6286 19.9921
" />
<path d="M12.6286 19.9921
L12.6286 20.0526
" />
</g></g> 
</svg>
