<?xml version="1.0" standalone="no"?>
 <!DOCTYPE svg PUBLIC "-//W3C//DTD SVG 1.1//EN"
 "http://www.w3.org/Graphics/SVG/1.1/DTD/svg11.dtd">
<svg
  xmlns:svg="http://www.w3.org/2000/svg"
  xmlns="http://www.w3.org/2000/svg"
  xmlns:xlink="http://www.w3.org/1999/xlink"
  xmlns:inkscape="http://www.inkscape.org/namespaces/inkscape"
  version="1.1"
  width="23.6982mm" height="22.8854mm" viewBox="0.0000 0.0000 23.6982 22.8854">
<title>SVG Image created as Valve - Ball Hydraulic_unit1.svg date 2026-05-31T14:38:04 </title>
  <desc>Image generated by Eeschema-SVG </desc>
<g style="fill:#000000; fill-opacity:1.0000;stroke:#000000; stroke-opacity:1.0000;
stroke-linecap:round; stroke-linejoin:round;"
 transform="translate(0 0) scale(1 1)">
<path style="fill:#840000; fill-opacity:1.0000;
stroke:#840000; stroke-width:0.1000; stroke-opacity:1;
stroke-linecap:round; stroke-linejoin:round;fill-rule:evenodd;"
d="M 5.8491,9.9569
5.8491,9.7069
6.8491,9.9569
5.8491,10.2069
Z" />
</g>
<g style="fill:none;
stroke:#840000; stroke-width:0.1000; stroke-opacity:1;
stroke-linecap:round; stroke-linejoin:round;">
<rect x="9.849100" y="4.956900" width="4.000000" height="2.000000" rx="0.000000" />
<path style="fill:none;
stroke:#840000; stroke-width:0.1000; stroke-opacity:1;
stroke-linecap:round; stroke-linejoin:round;fill:none"
d="M 11.8491,6.9569
11.8491,9.9569
" />
<path style="fill:none;
stroke:#840000; stroke-width:0.1000; stroke-opacity:1;
stroke-linecap:round; stroke-linejoin:round;fill:none"
d="M 11.8491,9.9569
6.8491,7.9569
6.8491,11.9569
Z" />
<path style="fill:none;
stroke:#840000; stroke-width:0.1000; stroke-opacity:1;
stroke-linecap:round; stroke-linejoin:round;fill:none"
d="M 11.8491,9.9569
16.8491,7.9569
16.8491,11.9569
Z" />
<circle cx="11.8491" cy="9.9569" r="1.0000" />
<path style="fill:#840000; fill-opacity:1.0000;
stroke:#840000; stroke-width:0.1000; stroke-opacity:1;
stroke-linecap:round; stroke-linejoin:round;fill-rule:evenodd;"
d="M 17.8491,9.9569
17.8491,9.7069
18.8491,9.9569
17.8491,10.2069
Z" />
</g>
<g style="fill:none;
stroke:#840000; stroke-width:0.1524; stroke-opacity:1;
stroke-linecap:round; stroke-linejoin:round;">
<text x="11.8491" y="6.5919"
textLength="1.5337" font-size="1.6933" lengthAdjust="spacingAndGlyphs"
text-anchor="middle" opacity="0" stroke-opacity="0">H</text>
<g class="stroked-text"><desc>H</desc>
<path d="M11.4862 6.5364
L11.4862 5.2664
" />
<path d="M11.4862 5.8712
L12.2119 5.8712
" />
<path d="M12.2119 6.5364
L12.2119 5.2664
" />
</g><path d="M6.8491 9.9569
L3.8491 9.9569
" />
<path d="M16.8491 9.9569
L19.8491 9.9569
" />
</g>
<g style="fill:none;
stroke:#006464; stroke-width:0.1524; stroke-opacity:1;
stroke-linecap:round; stroke-linejoin:round;">
<text x="11.8491" y="20.5919"
textLength="20.8253" font-size="1.6933" lengthAdjust="spacingAndGlyphs"
text-anchor="middle" opacity="0" stroke-opacity="0">Ball_Hydraulic_Valve?</text>
<g class="stroked-text"><desc>Ball_Hydraulic_Valve?</desc>
<path d="M2.2638 19.8712
L2.4452 19.9317
" />
<path d="M2.4452 19.9317
L2.5057 19.9921
" />
<path d="M2.5057 19.9921
L2.5661 20.1131
" />
<path d="M2.5661 20.1131
L2.5661 20.2945
" />
<path d="M2.5661 20.2945
L2.5057 20.4155
" />
<path d="M2.5057 20.4155
L2.4452 20.4760
" />
<path d="M2.4452 20.4760
L2.3242 20.5364
" />
<path d="M2.3242 20.5364
L1.8404 20.5364
" />
<path d="M1.8404 20.5364
L1.8404 19.2664
" />
<path d="M1.8404 19.2664
L2.2638 19.2664
" />
<path d="M2.2638 19.2664
L2.3847 19.3269
" />
<path d="M2.3847 19.3269
L2.4452 19.3874
" />
<path d="M2.4452 19.3874
L2.5057 19.5083
" />
<path d="M2.5057 19.5083
L2.5057 19.6293
" />
<path d="M2.5057 19.6293
L2.4452 19.7502
" />
<path d="M2.4452 19.7502
L2.3847 19.8107
" />
<path d="M2.3847 19.8107
L2.2638 19.8712
" />
<path d="M2.2638 19.8712
L1.8404 19.8712
" />
<path d="M3.6547 20.5364
L3.6547 19.8712
" />
<path d="M3.6547 19.8712
L3.5942 19.7502
" />
<path d="M3.5942 19.7502
L3.4733 19.6898
" />
<path d="M3.4733 19.6898
L3.2314 19.6898
" />
<path d="M3.2314 19.6898
L3.1104 19.7502
" />
<path d="M3.6547 20.4760
L3.5338 20.5364
" />
<path d="M3.5338 20.5364
L3.2314 20.5364
" />
<path d="M3.2314 20.5364
L3.1104 20.4760
" />
<path d="M3.1104 20.4760
L3.0500 20.3550
" />
<path d="M3.0500 20.3550
L3.0500 20.2340
" />
<path d="M3.0500 20.2340
L3.1104 20.1131
" />
<path d="M3.1104 20.1131
L3.2314 20.0526
" />
<path d="M3.2314 20.0526
L3.5338 20.0526
" />
<path d="M3.5338 20.0526
L3.6547 19.9921
" />
<path d="M4.4409 20.5364
L4.3199 20.4760
" />
<path d="M4.3199 20.4760
L4.2594 20.3550
" />
<path d="M4.2594 20.3550
L4.2594 19.2664
" />
<path d="M5.1061 20.5364
L4.9851 20.4760
" />
<path d="M4.9851 20.4760
L4.9246 20.3550
" />
<path d="M4.9246 20.3550
L4.9246 19.2664
" />
<path d="M5.2875 20.6574
L6.2551 20.6574
" />
<path d="M6.5574 20.5364
L6.5574 19.2664
" />
<path d="M6.5574 19.8712
L7.2831 19.8712
" />
<path d="M7.2831 20.5364
L7.2831 19.2664
" />
<path d="M7.7670 19.6898
L8.0694 20.5364
" />
<path d="M8.3717 19.6898
L8.0694 20.5364
" />
<path d="M8.0694 20.5364
L7.9484 20.8388
" />
<path d="M7.9484 20.8388
L7.8879 20.8993
" />
<path d="M7.8879 20.8993
L7.7670 20.9598
" />
<path d="M9.3998 20.5364
L9.3998 19.2664
" />
<path d="M9.3998 20.4760
L9.2789 20.5364
" />
<path d="M9.2789 20.5364
L9.0370 20.5364
" />
<path d="M9.0370 20.5364
L8.9160 20.4760
" />
<path d="M8.9160 20.4760
L8.8555 20.4155
" />
<path d="M8.8555 20.4155
L8.7951 20.2945
" />
<path d="M8.7951 20.2945
L8.7951 19.9317
" />
<path d="M8.7951 19.9317
L8.8555 19.8107
" />
<path d="M8.8555 19.8107
L8.9160 19.7502
" />
<path d="M8.9160 19.7502
L9.0370 19.6898
" />
<path d="M9.0370 19.6898
L9.2789 19.6898
" />
<path d="M9.2789 19.6898
L9.3998 19.7502
" />
<path d="M10.0045 20.5364
L10.0045 19.6898
" />
<path d="M10.0045 19.9317
L10.0650 19.8107
" />
<path d="M10.0650 19.8107
L10.1255 19.7502
" />
<path d="M10.1255 19.7502
L10.2464 19.6898
" />
<path d="M10.2464 19.6898
L10.3674 19.6898
" />
<path d="M11.3350 20.5364
L11.3350 19.8712
" />
<path d="M11.3350 19.8712
L11.2745 19.7502
" />
<path d="M11.2745 19.7502
L11.1536 19.6898
" />
<path d="M11.1536 19.6898
L10.9117 19.6898
" />
<path d="M10.9117 19.6898
L10.7907 19.7502
" />
<path d="M11.3350 20.4760
L11.2141 20.5364
" />
<path d="M11.2141 20.5364
L10.9117 20.5364
" />
<path d="M10.9117 20.5364
L10.7907 20.4760
" />
<path d="M10.7907 20.4760
L10.7303 20.3550
" />
<path d="M10.7303 20.3550
L10.7303 20.2340
" />
<path d="M10.7303 20.2340
L10.7907 20.1131
" />
<path d="M10.7907 20.1131
L10.9117 20.0526
" />
<path d="M10.9117 20.0526
L11.2141 20.0526
" />
<path d="M11.2141 20.0526
L11.3350 19.9921
" />
<path d="M12.4840 19.6898
L12.4840 20.5364
" />
<path d="M11.9397 19.6898
L11.9397 20.3550
" />
<path d="M11.9397 20.3550
L12.0002 20.4760
" />
<path d="M12.0002 20.4760
L12.1212 20.5364
" />
<path d="M12.1212 20.5364
L12.3026 20.5364
" />
<path d="M12.3026 20.5364
L12.4235 20.4760
" />
<path d="M12.4235 20.4760
L12.4840 20.4155
" />
<path d="M13.2702 20.5364
L13.1492 20.4760
" />
<path d="M13.1492 20.4760
L13.0887 20.3550
" />
<path d="M13.0887 20.3550
L13.0887 19.2664
" />
<path d="M13.7539 20.5364
L13.7539 19.6898
" />
<path d="M13.7539 19.2664
L13.6935 19.3269
" />
<path d="M13.6935 19.3269
L13.7539 19.3874
" />
<path d="M13.7539 19.3874
L13.8144 19.3269
" />
<path d="M13.8144 19.3269
L13.7539 19.2664
" />
<path d="M13.7539 19.2664
L13.7539 19.3874
" />
<path d="M14.9030 20.4760
L14.7821 20.5364
" />
<path d="M14.7821 20.5364
L14.5402 20.5364
" />
<path d="M14.5402 20.5364
L14.4192 20.4760
" />
<path d="M14.4192 20.4760
L14.3587 20.4155
" />
<path d="M14.3587 20.4155
L14.2983 20.2945
" />
<path d="M14.2983 20.2945
L14.2983 19.9317
" />
<path d="M14.2983 19.9317
L14.3587 19.8107
" />
<path d="M14.3587 19.8107
L14.4192 19.7502
" />
<path d="M14.4192 19.7502
L14.5402 19.6898
" />
<path d="M14.5402 19.6898
L14.7821 19.6898
" />
<path d="M14.7821 19.6898
L14.9030 19.7502
" />
<path d="M15.1450 20.6574
L16.1126 20.6574
" />
<path d="M16.2335 19.2664
L16.6568 20.5364
" />
<path d="M16.6568 20.5364
L17.0802 19.2664
" />
<path d="M18.0478 20.5364
L18.0478 19.8712
" />
<path d="M18.0478 19.8712
L17.9873 19.7502
" />
<path d="M17.9873 19.7502
L17.8664 19.6898
" />
<path d="M17.8664 19.6898
L17.6245 19.6898
" />
<path d="M17.6245 19.6898
L17.5035 19.7502
" />
<path d="M18.0478 20.4760
L17.9269 20.5364
" />
<path d="M17.9269 20.5364
L17.6245 20.5364
" />
<path d="M17.6245 20.5364
L17.5035 20.4760
" />
<path d="M17.5035 20.4760
L17.4431 20.3550
" />
<path d="M17.4431 20.3550
L17.4431 20.2340
" />
<path d="M17.4431 20.2340
L17.5035 20.1131
" />
<path d="M17.5035 20.1131
L17.6245 20.0526
" />
<path d="M17.6245 20.0526
L17.9269 20.0526
" />
<path d="M17.9269 20.0526
L18.0478 19.9921
" />
<path d="M18.8340 20.5364
L18.7130 20.4760
" />
<path d="M18.7130 20.4760
L18.6525 20.3550
" />
<path d="M18.6525 20.3550
L18.6525 19.2664
" />
<path d="M19.1968 19.6898
L19.4992 20.5364
" />
<path d="M19.4992 20.5364
L19.8015 19.6898
" />
<path d="M20.7691 20.4760
L20.6482 20.5364
" />
<path d="M20.6482 20.5364
L20.4063 20.5364
" />
<path d="M20.4063 20.5364
L20.2853 20.4760
" />
<path d="M20.2853 20.4760
L20.2249 20.3550
" />
<path d="M20.2249 20.3550
L20.2249 19.8712
" />
<path d="M20.2249 19.8712
L20.2853 19.7502
" />
<path d="M20.2853 19.7502
L20.4063 19.6898
" />
<path d="M20.4063 19.6898
L20.6482 19.6898
" />
<path d="M20.6482 19.6898
L20.7691 19.7502
" />
<path d="M20.7691 19.7502
L20.8296 19.8712
" />
<path d="M20.8296 19.8712
L20.8296 19.9921
" />
<path d="M20.8296 19.9921
L20.2249 20.1131
" />
<path d="M21.5554 20.4155
L21.6158 20.4760
" />
<path d="M21.6158 20.4760
L21.5554 20.5364
" />
<path d="M21.5554 20.5364
L21.4949 20.4760
" />
<path d="M21.4949 20.4760
L21.5554 20.4155
" />
<path d="M21.5554 20.4155
L21.5554 20.5364
" />
<path d="M21.3135 19.3269
L21.4344 19.2664
" />
<path d="M21.4344 19.2664
L21.7368 19.2664
" />
<path d="M21.7368 19.2664
L21.8577 19.3269
" />
<path d="M21.8577 19.3269
L21.9182 19.4479
" />
<path d="M21.9182 19.4479
L21.9182 19.5688
" />
<path d="M21.9182 19.5688
L21.8577 19.6898
" />
<path d="M21.8577 19.6898
L21.7973 19.7502
" />
<path d="M21.7973 19.7502
L21.6763 19.8107
" />
<path d="M21.6763 19.8107
L21.6158 19.8712
" />
<path d="M21.6158 19.8712
L21.5554 19.9921
" />
<path d="M21.5554 19.9921
L21.5554 20.0526
" />
</g></g>
</svg>
