<?xml version="1.0" standalone="no"?>
 <!DOCTYPE svg PUBLIC "-//W3C//DTD SVG 1.1//EN" 
 "http://www.w3.org/Graphics/SVG/1.1/DTD/svg11.dtd"> 
<svg
  xmlns:svg="http://www.w3.org/2000/svg"
  xmlns="http://www.w3.org/2000/svg"
  xmlns:xlink="http://www.w3.org/1999/xlink"
  xmlns:inkscape="http://www.inkscape.org/namespaces/inkscape"
  version="1.1"
  width="21.6662mm" height="22.8854mm" viewBox="0.0000 0.0000 21.6662 22.8854">
<title>SVG Image created as Valve - Gate Manual_unit1.svg date 2026-05-31T11:36:24 </title>
  <desc>Image generated by Eeschema-SVG </desc>
<g style="fill:#000000; fill-opacity:1.0000;stroke:#000000; stroke-opacity:1.0000;
stroke-linecap:round; stroke-linejoin:round;"
 transform="translate(0 0) scale(1 1)">
</g>
<g style="fill:#840000; fill-opacity:1.0000; 
stroke:#840000; stroke-width:0.1000; stroke-opacity:1; 
stroke-linecap:round; stroke-linejoin:round;">
<rect x="10.533100" y="7.956900" width="0.600000" height="4.000000" rx="0.000000" />
<path style="fill:none; 
stroke:#840000; stroke-width:0.1000; stroke-opacity:1; 
stroke-linecap:round; stroke-linejoin:round;fill:none"
d="M 10.8331,6.9569
10.8331,9.9569
" /> 
<path style="fill:none; 
stroke:#840000; stroke-width:0.1000; stroke-opacity:1; 
stroke-linecap:round; stroke-linejoin:round;fill:none"
d="M 10.8331,9.9569
5.8331,7.9569
5.8331,11.9569
Z" /> 
<path style="fill:none; 
stroke:#840000; stroke-width:0.1000; stroke-opacity:1; 
stroke-linecap:round; stroke-linejoin:round;fill:none"
d="M 10.8331,9.9569
15.8331,7.9569
15.8331,11.9569
Z" /> 
<path style="fill:none; 
stroke:#840000; stroke-width:0.1000; stroke-opacity:1; 
stroke-linecap:round; stroke-linejoin:round;fill:none"
d="M 12.8331,6.9569
8.8331,6.9569
" /> 
</g>
<g style="fill:none; 
stroke:#840000; stroke-width:0.1524; stroke-opacity:1; 
stroke-linecap:round; stroke-linejoin:round;">
<path d="M5.8331 9.9569
L2.8331 9.9569
" />
<path d="M15.8331 9.9569
L18.8331 9.9569
" />
</g>
<g style="fill:none; 
stroke:#006464; stroke-width:0.1524; stroke-opacity:1; 
stroke-linecap:round; stroke-linejoin:round;">
<text x="10.8331" y="20.5919"
textLength="19.1319" font-size="1.6933" lengthAdjust="spacingAndGlyphs"
text-anchor="middle" opacity="0" stroke-opacity="0">Gate_Manual_Valve?</text>
<g class="stroked-text"><desc>Gate_Manual_Valve?</desc>
<path d="M2.3364 19.3269
L2.2154 19.2664
" />
<path d="M2.2154 19.2664
L2.0340 19.2664
" />
<path d="M2.0340 19.2664
L1.8526 19.3269
" />
<path d="M1.8526 19.3269
L1.7316 19.4479
" />
<path d="M1.7316 19.4479
L1.6711 19.5688
" />
<path d="M1.6711 19.5688
L1.6107 19.8107
" />
<path d="M1.6107 19.8107
L1.6107 19.9921
" />
<path d="M1.6107 19.9921
L1.6711 20.2340
" />
<path d="M1.6711 20.2340
L1.7316 20.3550
" />
<path d="M1.7316 20.3550
L1.8526 20.4760
" />
<path d="M1.8526 20.4760
L2.0340 20.5364
" />
<path d="M2.0340 20.5364
L2.1549 20.5364
" />
<path d="M2.1549 20.5364
L2.3364 20.4760
" />
<path d="M2.3364 20.4760
L2.3968 20.4155
" />
<path d="M2.3968 20.4155
L2.3968 19.9921
" />
<path d="M2.3968 19.9921
L2.1549 19.9921
" />
<path d="M3.4854 20.5364
L3.4854 19.8712
" />
<path d="M3.4854 19.8712
L3.4249 19.7502
" />
<path d="M3.4249 19.7502
L3.3040 19.6898
" />
<path d="M3.3040 19.6898
L3.0621 19.6898
" />
<path d="M3.0621 19.6898
L2.9411 19.7502
" />
<path d="M3.4854 20.4760
L3.3645 20.5364
" />
<path d="M3.3645 20.5364
L3.0621 20.5364
" />
<path d="M3.0621 20.5364
L2.9411 20.4760
" />
<path d="M2.9411 20.4760
L2.8807 20.3550
" />
<path d="M2.8807 20.3550
L2.8807 20.2340
" />
<path d="M2.8807 20.2340
L2.9411 20.1131
" />
<path d="M2.9411 20.1131
L3.0621 20.0526
" />
<path d="M3.0621 20.0526
L3.3645 20.0526
" />
<path d="M3.3645 20.0526
L3.4854 19.9921
" />
<path d="M3.9087 19.6898
L4.3925 19.6898
" />
<path d="M4.0901 19.2664
L4.0901 20.3550
" />
<path d="M4.0901 20.3550
L4.1506 20.4760
" />
<path d="M4.1506 20.4760
L4.2716 20.5364
" />
<path d="M4.2716 20.5364
L4.3925 20.5364
" />
<path d="M5.2996 20.4760
L5.1787 20.5364
" />
<path d="M5.1787 20.5364
L4.9368 20.5364
" />
<path d="M4.9368 20.5364
L4.8158 20.4760
" />
<path d="M4.8158 20.4760
L4.7554 20.3550
" />
<path d="M4.7554 20.3550
L4.7554 19.8712
" />
<path d="M4.7554 19.8712
L4.8158 19.7502
" />
<path d="M4.8158 19.7502
L4.9368 19.6898
" />
<path d="M4.9368 19.6898
L5.1787 19.6898
" />
<path d="M5.1787 19.6898
L5.2996 19.7502
" />
<path d="M5.2996 19.7502
L5.3601 19.8712
" />
<path d="M5.3601 19.8712
L5.3601 19.9921
" />
<path d="M5.3601 19.9921
L4.7554 20.1131
" />
<path d="M5.6021 20.6574
L6.5697 20.6574
" />
<path d="M6.8720 20.5364
L6.8720 19.2664
" />
<path d="M6.8720 19.2664
L7.2954 20.1736
" />
<path d="M7.2954 20.1736
L7.7187 19.2664
" />
<path d="M7.7187 19.2664
L7.7187 20.5364
" />
<path d="M8.8677 20.5364
L8.8677 19.8712
" />
<path d="M8.8677 19.8712
L8.8072 19.7502
" />
<path d="M8.8072 19.7502
L8.6863 19.6898
" />
<path d="M8.6863 19.6898
L8.4444 19.6898
" />
<path d="M8.4444 19.6898
L8.3234 19.7502
" />
<path d="M8.8677 20.4760
L8.7468 20.5364
" />
<path d="M8.7468 20.5364
L8.4444 20.5364
" />
<path d="M8.4444 20.5364
L8.3234 20.4760
" />
<path d="M8.3234 20.4760
L8.2630 20.3550
" />
<path d="M8.2630 20.3550
L8.2630 20.2340
" />
<path d="M8.2630 20.2340
L8.3234 20.1131
" />
<path d="M8.3234 20.1131
L8.4444 20.0526
" />
<path d="M8.4444 20.0526
L8.7468 20.0526
" />
<path d="M8.7468 20.0526
L8.8677 19.9921
" />
<path d="M9.4724 19.6898
L9.4724 20.5364
" />
<path d="M9.4724 19.8107
L9.5329 19.7502
" />
<path d="M9.5329 19.7502
L9.6539 19.6898
" />
<path d="M9.6539 19.6898
L9.8353 19.6898
" />
<path d="M9.8353 19.6898
L9.9562 19.7502
" />
<path d="M9.9562 19.7502
L10.0167 19.8712
" />
<path d="M10.0167 19.8712
L10.0167 20.5364
" />
<path d="M11.1657 19.6898
L11.1657 20.5364
" />
<path d="M10.6214 19.6898
L10.6214 20.3550
" />
<path d="M10.6214 20.3550
L10.6819 20.4760
" />
<path d="M10.6819 20.4760
L10.8029 20.5364
" />
<path d="M10.8029 20.5364
L10.9843 20.5364
" />
<path d="M10.9843 20.5364
L11.1052 20.4760
" />
<path d="M11.1052 20.4760
L11.1657 20.4155
" />
<path d="M12.3147 20.5364
L12.3147 19.8712
" />
<path d="M12.3147 19.8712
L12.2542 19.7502
" />
<path d="M12.2542 19.7502
L12.1333 19.6898
" />
<path d="M12.1333 19.6898
L11.8914 19.6898
" />
<path d="M11.8914 19.6898
L11.7704 19.7502
" />
<path d="M12.3147 20.4760
L12.1938 20.5364
" />
<path d="M12.1938 20.5364
L11.8914 20.5364
" />
<path d="M11.8914 20.5364
L11.7704 20.4760
" />
<path d="M11.7704 20.4760
L11.7100 20.3550
" />
<path d="M11.7100 20.3550
L11.7100 20.2340
" />
<path d="M11.7100 20.2340
L11.7704 20.1131
" />
<path d="M11.7704 20.1131
L11.8914 20.0526
" />
<path d="M11.8914 20.0526
L12.1938 20.0526
" />
<path d="M12.1938 20.0526
L12.3147 19.9921
" />
<path d="M13.1009 20.5364
L12.9799 20.4760
" />
<path d="M12.9799 20.4760
L12.9194 20.3550
" />
<path d="M12.9194 20.3550
L12.9194 19.2664
" />
<path d="M13.2823 20.6574
L14.2499 20.6574
" />
<path d="M14.3708 19.2664
L14.7941 20.5364
" />
<path d="M14.7941 20.5364
L15.2175 19.2664
" />
<path d="M16.1851 20.5364
L16.1851 19.8712
" />
<path d="M16.1851 19.8712
L16.1246 19.7502
" />
<path d="M16.1246 19.7502
L16.0037 19.6898
" />
<path d="M16.0037 19.6898
L15.7618 19.6898
" />
<path d="M15.7618 19.6898
L15.6408 19.7502
" />
<path d="M16.1851 20.4760
L16.0642 20.5364
" />
<path d="M16.0642 20.5364
L15.7618 20.5364
" />
<path d="M15.7618 20.5364
L15.6408 20.4760
" />
<path d="M15.6408 20.4760
L15.5804 20.3550
" />
<path d="M15.5804 20.3550
L15.5804 20.2340
" />
<path d="M15.5804 20.2340
L15.6408 20.1131
" />
<path d="M15.6408 20.1131
L15.7618 20.0526
" />
<path d="M15.7618 20.0526
L16.0642 20.0526
" />
<path d="M16.0642 20.0526
L16.1851 19.9921
" />
<path d="M16.9713 20.5364
L16.8503 20.4760
" />
<path d="M16.8503 20.4760
L16.7898 20.3550
" />
<path d="M16.7898 20.3550
L16.7898 19.2664
" />
<path d="M17.3341 19.6898
L17.6365 20.5364
" />
<path d="M17.6365 20.5364
L17.9388 19.6898
" />
<path d="M18.9064 20.4760
L18.7855 20.5364
" />
<path d="M18.7855 20.5364
L18.5436 20.5364
" />
<path d="M18.5436 20.5364
L18.4226 20.4760
" />
<path d="M18.4226 20.4760
L18.3622 20.3550
" />
<path d="M18.3622 20.3550
L18.3622 19.8712
" />
<path d="M18.3622 19.8712
L18.4226 19.7502
" />
<path d="M18.4226 19.7502
L18.5436 19.6898
" />
<path d="M18.5436 19.6898
L18.7855 19.6898
" />
<path d="M18.7855 19.6898
L18.9064 19.7502
" />
<path d="M18.9064 19.7502
L18.9669 19.8712
" />
<path d="M18.9669 19.8712
L18.9669 19.9921
" />
<path d="M18.9669 19.9921
L18.3622 20.1131
" />
<path d="M19.6927 20.4155
L19.7531 20.4760
" />
<path d="M19.7531 20.4760
L19.6927 20.5364
" />
<path d="M19.6927 20.5364
L19.6322 20.4760
" />
<path d="M19.6322 20.4760
L19.6927 20.4155
" />
<path d="M19.6927 20.4155
L19.6927 20.5364
" />
<path d="M19.4508 19.3269
L19.5717 19.2664
" />
<path d="M19.5717 19.2664
L19.8741 19.2664
" />
<path d="M19.8741 19.2664
L19.9950 19.3269
" />
<path d="M19.9950 19.3269
L20.0555 19.4479
" />
<path d="M20.0555 19.4479
L20.0555 19.5688
" />
<path d="M20.0555 19.5688
L19.9950 19.6898
" />
<path d="M19.9950 19.6898
L19.9346 19.7502
" />
<path d="M19.9346 19.7502
L19.8136 19.8107
" />
<path d="M19.8136 19.8107
L19.7531 19.8712
" />
<path d="M19.7531 19.8712
L19.6927 19.9921
" />
<path d="M19.6927 19.9921
L19.6927 20.0526
" />
</g></g> 
</svg>
