<?xml version="1.0" standalone="no"?>
 <!DOCTYPE svg PUBLIC "-//W3C//DTD SVG 1.1//EN"
 "http://www.w3.org/Graphics/SVG/1.1/DTD/svg11.dtd">
<svg
  xmlns:svg="http://www.w3.org/2000/svg"
  xmlns="http://www.w3.org/2000/svg"
  xmlns:xlink="http://www.w3.org/1999/xlink"
  xmlns:inkscape="http://www.inkscape.org/namespaces/inkscape"
  version="1.1"
  width="28.7020mm" height="22.8854mm" viewBox="0.0000 0.0000 28.7020 22.8854">
<title>SVG Image created as Valve - Diaphragm Manual_unit1.svg date 2026-05-31T14:38:06 </title>
  <desc>Image generated by Eeschema-SVG </desc>
<g style="fill:#000000; fill-opacity:1.0000;stroke:#000000; stroke-opacity:1.0000;
stroke-linecap:round; stroke-linejoin:round;"
 transform="translate(0 0) scale(1 1)">
<path style="fill:#840000; fill-opacity:1.0000;
stroke:#840000; stroke-width:0.1000; stroke-opacity:1;
stroke-linecap:round; stroke-linejoin:round;fill-rule:evenodd;"
d="M 8.3510,9.9569
8.3510,9.7069
9.3510,9.9569
8.3510,10.2069
Z" />
<path style="fill:none;
stroke:#840000; stroke-width:0.1000; stroke-opacity:1;
stroke-linecap:round; stroke-linejoin:round;fill:none"
d="M 14.3510,6.9569
14.3510,9.9569
" />
<path style="fill:none;
stroke:#840000; stroke-width:0.1000; stroke-opacity:1;
stroke-linecap:round; stroke-linejoin:round;fill:none"
d="M 14.3510,9.9569
9.3510,7.9569
9.3510,11.9569
Z" />
<path style="fill:none;
stroke:#840000; stroke-width:0.1000; stroke-opacity:1;
stroke-linecap:round; stroke-linejoin:round;fill:none"
d="M 14.3510,9.9569
19.3510,7.9569
19.3510,11.9569
Z" />
</g>
<g style="fill:none;
stroke:#840000; stroke-width:0.1000; stroke-opacity:1;
stroke-linecap:round; stroke-linejoin:round;">
<path d="M17.3510 9.9569 A3.2500 3.2500 0.0 0 0 11.3510 9.9569" />
<path style="fill:none;
stroke:#840000; stroke-width:0.1000; stroke-opacity:1;
stroke-linecap:round; stroke-linejoin:round;fill:none"
d="M 16.3510,6.9569
12.3510,6.9569
" />
<path style="fill:#840000; fill-opacity:1.0000;
stroke:#840000; stroke-width:0.1000; stroke-opacity:1;
stroke-linecap:round; stroke-linejoin:round;fill-rule:evenodd;"
d="M 20.3510,9.9569
20.3510,9.7069
21.3510,9.9569
20.3510,10.2069
Z" />
</g>
<g style="fill:none;
stroke:#840000; stroke-width:0.1524; stroke-opacity:1;
stroke-linecap:round; stroke-linejoin:round;">
<path d="M9.3510 9.9569
L6.3510 9.9569
" />
<path d="M19.3510 9.9569
L22.3510 9.9569
" />
</g>
<g style="fill:none;
stroke:#006464; stroke-width:0.1524; stroke-opacity:1;
stroke-linecap:round; stroke-linejoin:round;">
<text x="14.3510" y="20.5919"
textLength="24.9979" font-size="1.6933" lengthAdjust="spacingAndGlyphs"
text-anchor="middle" opacity="0" stroke-opacity="0">Diaphragm_Manual_Valve?</text>
<g class="stroked-text"><desc>Diaphragm_Manual_Valve?</desc>
<path d="M2.2560 20.5364
L2.2560 19.2664
" />
<path d="M2.2560 19.2664
L2.5584 19.2664
" />
<path d="M2.5584 19.2664
L2.7398 19.3269
" />
<path d="M2.7398 19.3269
L2.8608 19.4479
" />
<path d="M2.8608 19.4479
L2.9213 19.5688
" />
<path d="M2.9213 19.5688
L2.9817 19.8107
" />
<path d="M2.9817 19.8107
L2.9817 19.9921
" />
<path d="M2.9817 19.9921
L2.9213 20.2340
" />
<path d="M2.9213 20.2340
L2.8608 20.3550
" />
<path d="M2.8608 20.3550
L2.7398 20.4760
" />
<path d="M2.7398 20.4760
L2.5584 20.5364
" />
<path d="M2.5584 20.5364
L2.2560 20.5364
" />
<path d="M3.5260 20.5364
L3.5260 19.6898
" />
<path d="M3.5260 19.2664
L3.4656 19.3269
" />
<path d="M3.4656 19.3269
L3.5260 19.3874
" />
<path d="M3.5260 19.3874
L3.5865 19.3269
" />
<path d="M3.5865 19.3269
L3.5260 19.2664
" />
<path d="M3.5260 19.2664
L3.5260 19.3874
" />
<path d="M4.6751 20.5364
L4.6751 19.8712
" />
<path d="M4.6751 19.8712
L4.6146 19.7502
" />
<path d="M4.6146 19.7502
L4.4937 19.6898
" />
<path d="M4.4937 19.6898
L4.2518 19.6898
" />
<path d="M4.2518 19.6898
L4.1308 19.7502
" />
<path d="M4.6751 20.4760
L4.5542 20.5364
" />
<path d="M4.5542 20.5364
L4.2518 20.5364
" />
<path d="M4.2518 20.5364
L4.1308 20.4760
" />
<path d="M4.1308 20.4760
L4.0704 20.3550
" />
<path d="M4.0704 20.3550
L4.0704 20.2340
" />
<path d="M4.0704 20.2340
L4.1308 20.1131
" />
<path d="M4.1308 20.1131
L4.2518 20.0526
" />
<path d="M4.2518 20.0526
L4.5542 20.0526
" />
<path d="M4.5542 20.0526
L4.6751 19.9921
" />
<path d="M5.2798 19.6898
L5.2798 20.9598
" />
<path d="M5.2798 19.7502
L5.4008 19.6898
" />
<path d="M5.4008 19.6898
L5.6427 19.6898
" />
<path d="M5.6427 19.6898
L5.7636 19.7502
" />
<path d="M5.7636 19.7502
L5.8241 19.8107
" />
<path d="M5.8241 19.8107
L5.8846 19.9317
" />
<path d="M5.8846 19.9317
L5.8846 20.2945
" />
<path d="M5.8846 20.2945
L5.8241 20.4155
" />
<path d="M5.8241 20.4155
L5.7636 20.4760
" />
<path d="M5.7636 20.4760
L5.6427 20.5364
" />
<path d="M5.6427 20.5364
L5.4008 20.5364
" />
<path d="M5.4008 20.5364
L5.2798 20.4760
" />
<path d="M6.4288 20.5364
L6.4288 19.2664
" />
<path d="M6.9731 20.5364
L6.9731 19.8712
" />
<path d="M6.9731 19.8712
L6.9126 19.7502
" />
<path d="M6.9126 19.7502
L6.7917 19.6898
" />
<path d="M6.7917 19.6898
L6.6103 19.6898
" />
<path d="M6.6103 19.6898
L6.4893 19.7502
" />
<path d="M6.4893 19.7502
L6.4288 19.8107
" />
<path d="M7.5778 20.5364
L7.5778 19.6898
" />
<path d="M7.5778 19.9317
L7.6383 19.8107
" />
<path d="M7.6383 19.8107
L7.6988 19.7502
" />
<path d="M7.6988 19.7502
L7.8197 19.6898
" />
<path d="M7.8197 19.6898
L7.9407 19.6898
" />
<path d="M8.9083 20.5364
L8.9083 19.8712
" />
<path d="M8.9083 19.8712
L8.8478 19.7502
" />
<path d="M8.8478 19.7502
L8.7269 19.6898
" />
<path d="M8.7269 19.6898
L8.4850 19.6898
" />
<path d="M8.4850 19.6898
L8.3640 19.7502
" />
<path d="M8.9083 20.4760
L8.7874 20.5364
" />
<path d="M8.7874 20.5364
L8.4850 20.5364
" />
<path d="M8.4850 20.5364
L8.3640 20.4760
" />
<path d="M8.3640 20.4760
L8.3036 20.3550
" />
<path d="M8.3036 20.3550
L8.3036 20.2340
" />
<path d="M8.3036 20.2340
L8.3640 20.1131
" />
<path d="M8.3640 20.1131
L8.4850 20.0526
" />
<path d="M8.4850 20.0526
L8.7874 20.0526
" />
<path d="M8.7874 20.0526
L8.9083 19.9921
" />
<path d="M10.0573 19.6898
L10.0573 20.7179
" />
<path d="M10.0573 20.7179
L9.9968 20.8388
" />
<path d="M9.9968 20.8388
L9.9364 20.8993
" />
<path d="M9.9364 20.8993
L9.8154 20.9598
" />
<path d="M9.8154 20.9598
L9.6340 20.9598
" />
<path d="M9.6340 20.9598
L9.5130 20.8993
" />
<path d="M10.0573 20.4760
L9.9364 20.5364
" />
<path d="M9.9364 20.5364
L9.6945 20.5364
" />
<path d="M9.6945 20.5364
L9.5735 20.4760
" />
<path d="M9.5735 20.4760
L9.5130 20.4155
" />
<path d="M9.5130 20.4155
L9.4526 20.2945
" />
<path d="M9.4526 20.2945
L9.4526 19.9317
" />
<path d="M9.4526 19.9317
L9.5130 19.8107
" />
<path d="M9.5130 19.8107
L9.5735 19.7502
" />
<path d="M9.5735 19.7502
L9.6945 19.6898
" />
<path d="M9.6945 19.6898
L9.9364 19.6898
" />
<path d="M9.9364 19.6898
L10.0573 19.7502
" />
<path d="M10.6620 20.5364
L10.6620 19.6898
" />
<path d="M10.6620 19.8107
L10.7225 19.7502
" />
<path d="M10.7225 19.7502
L10.8435 19.6898
" />
<path d="M10.8435 19.6898
L11.0249 19.6898
" />
<path d="M11.0249 19.6898
L11.1458 19.7502
" />
<path d="M11.1458 19.7502
L11.2063 19.8712
" />
<path d="M11.2063 19.8712
L11.2063 20.5364
" />
<path d="M11.2063 19.8712
L11.2668 19.7502
" />
<path d="M11.2668 19.7502
L11.3877 19.6898
" />
<path d="M11.3877 19.6898
L11.5692 19.6898
" />
<path d="M11.5692 19.6898
L11.6901 19.7502
" />
<path d="M11.6901 19.7502
L11.7506 19.8712
" />
<path d="M11.7506 19.8712
L11.7506 20.5364
" />
<path d="M12.0530 20.6574
L13.0206 20.6574
" />
<path d="M13.3229 20.5364
L13.3229 19.2664
" />
<path d="M13.3229 19.2664
L13.7463 20.1736
" />
<path d="M13.7463 20.1736
L14.1696 19.2664
" />
<path d="M14.1696 19.2664
L14.1696 20.5364
" />
<path d="M15.3186 20.5364
L15.3186 19.8712
" />
<path d="M15.3186 19.8712
L15.2581 19.7502
" />
<path d="M15.2581 19.7502
L15.1372 19.6898
" />
<path d="M15.1372 19.6898
L14.8953 19.6898
" />
<path d="M14.8953 19.6898
L14.7743 19.7502
" />
<path d="M15.3186 20.4760
L15.1977 20.5364
" />
<path d="M15.1977 20.5364
L14.8953 20.5364
" />
<path d="M14.8953 20.5364
L14.7743 20.4760
" />
<path d="M14.7743 20.4760
L14.7139 20.3550
" />
<path d="M14.7139 20.3550
L14.7139 20.2340
" />
<path d="M14.7139 20.2340
L14.7743 20.1131
" />
<path d="M14.7743 20.1131
L14.8953 20.0526
" />
<path d="M14.8953 20.0526
L15.1977 20.0526
" />
<path d="M15.1977 20.0526
L15.3186 19.9921
" />
<path d="M15.9233 19.6898
L15.9233 20.5364
" />
<path d="M15.9233 19.8107
L15.9838 19.7502
" />
<path d="M15.9838 19.7502
L16.1048 19.6898
" />
<path d="M16.1048 19.6898
L16.2862 19.6898
" />
<path d="M16.2862 19.6898
L16.4071 19.7502
" />
<path d="M16.4071 19.7502
L16.4676 19.8712
" />
<path d="M16.4676 19.8712
L16.4676 20.5364
" />
<path d="M17.6166 19.6898
L17.6166 20.5364
" />
<path d="M17.0723 19.6898
L17.0723 20.3550
" />
<path d="M17.0723 20.3550
L17.1328 20.4760
" />
<path d="M17.1328 20.4760
L17.2538 20.5364
" />
<path d="M17.2538 20.5364
L17.4352 20.5364
" />
<path d="M17.4352 20.5364
L17.5561 20.4760
" />
<path d="M17.5561 20.4760
L17.6166 20.4155
" />
<path d="M18.7656 20.5364
L18.7656 19.8712
" />
<path d="M18.7656 19.8712
L18.7051 19.7502
" />
<path d="M18.7051 19.7502
L18.5842 19.6898
" />
<path d="M18.5842 19.6898
L18.3423 19.6898
" />
<path d="M18.3423 19.6898
L18.2213 19.7502
" />
<path d="M18.7656 20.4760
L18.6447 20.5364
" />
<path d="M18.6447 20.5364
L18.3423 20.5364
" />
<path d="M18.3423 20.5364
L18.2213 20.4760
" />
<path d="M18.2213 20.4760
L18.1609 20.3550
" />
<path d="M18.1609 20.3550
L18.1609 20.2340
" />
<path d="M18.1609 20.2340
L18.2213 20.1131
" />
<path d="M18.2213 20.1131
L18.3423 20.0526
" />
<path d="M18.3423 20.0526
L18.6447 20.0526
" />
<path d="M18.6447 20.0526
L18.7656 19.9921
" />
<path d="M19.5518 20.5364
L19.4308 20.4760
" />
<path d="M19.4308 20.4760
L19.3703 20.3550
" />
<path d="M19.3703 20.3550
L19.3703 19.2664
" />
<path d="M19.7332 20.6574
L20.7008 20.6574
" />
<path d="M20.8217 19.2664
L21.2450 20.5364
" />
<path d="M21.2450 20.5364
L21.6684 19.2664
" />
<path d="M22.6360 20.5364
L22.6360 19.8712
" />
<path d="M22.6360 19.8712
L22.5755 19.7502
" />
<path d="M22.5755 19.7502
L22.4546 19.6898
" />
<path d="M22.4546 19.6898
L22.2127 19.6898
" />
<path d="M22.2127 19.6898
L22.0917 19.7502
" />
<path d="M22.6360 20.4760
L22.5151 20.5364
" />
<path d="M22.5151 20.5364
L22.2127 20.5364
" />
<path d="M22.2127 20.5364
L22.0917 20.4760
" />
<path d="M22.0917 20.4760
L22.0313 20.3550
" />
<path d="M22.0313 20.3550
L22.0313 20.2340
" />
<path d="M22.0313 20.2340
L22.0917 20.1131
" />
<path d="M22.0917 20.1131
L22.2127 20.0526
" />
<path d="M22.2127 20.0526
L22.5151 20.0526
" />
<path d="M22.5151 20.0526
L22.6360 19.9921
" />
<path d="M23.4222 20.5364
L23.3012 20.4760
" />
<path d="M23.3012 20.4760
L23.2407 20.3550
" />
<path d="M23.2407 20.3550
L23.2407 19.2664
" />
<path d="M23.7850 19.6898
L24.0874 20.5364
" />
<path d="M24.0874 20.5364
L24.3897 19.6898
" />
<path d="M25.3573 20.4760
L25.2364 20.5364
" />
<path d="M25.2364 20.5364
L24.9945 20.5364
" />
<path d="M24.9945 20.5364
L24.8735 20.4760
" />
<path d="M24.8735 20.4760
L24.8131 20.3550
" />
<path d="M24.8131 20.3550
L24.8131 19.8712
" />
<path d="M24.8131 19.8712
L24.8735 19.7502
" />
<path d="M24.8735 19.7502
L24.9945 19.6898
" />
<path d="M24.9945 19.6898
L25.2364 19.6898
" />
<path d="M25.2364 19.6898
L25.3573 19.7502
" />
<path d="M25.3573 19.7502
L25.4178 19.8712
" />
<path d="M25.4178 19.8712
L25.4178 19.9921
" />
<path d="M25.4178 19.9921
L24.8131 20.1131
" />
<path d="M26.1436 20.4155
L26.2040 20.4760
" />
<path d="M26.2040 20.4760
L26.1436 20.5364
" />
<path d="M26.1436 20.5364
L26.0831 20.4760
" />
<path d="M26.0831 20.4760
L26.1436 20.4155
" />
<path d="M26.1436 20.4155
L26.1436 20.5364
" />
<path d="M25.9017 19.3269
L26.0226 19.2664
" />
<path d="M26.0226 19.2664
L26.3250 19.2664
" />
<path d="M26.3250 19.2664
L26.4459 19.3269
" />
<path d="M26.4459 19.3269
L26.5064 19.4479
" />
<path d="M26.5064 19.4479
L26.5064 19.5688
" />
<path d="M26.5064 19.5688
L26.4459 19.6898
" />
<path d="M26.4459 19.6898
L26.3855 19.7502
" />
<path d="M26.3855 19.7502
L26.2645 19.8107
" />
<path d="M26.2645 19.8107
L26.2040 19.8712
" />
<path d="M26.2040 19.8712
L26.1436 19.9921
" />
<path d="M26.1436 19.9921
L26.1436 20.0526
" />
</g></g>
</svg>
