<?xml version="1.0" standalone="no"?>
 <!DOCTYPE svg PUBLIC "-//W3C//DTD SVG 1.1//EN"
 "http://www.w3.org/Graphics/SVG/1.1/DTD/svg11.dtd">
<svg
  xmlns:svg="http://www.w3.org/2000/svg"
  xmlns="http://www.w3.org/2000/svg"
  xmlns:xlink="http://www.w3.org/1999/xlink"
  xmlns:inkscape="http://www.inkscape.org/namespaces/inkscape"
  version="1.1"
  width="28.9306mm" height="22.8854mm" viewBox="0.0000 0.0000 28.9306 22.8854">
<title>SVG Image created as Valve - Butterfly Hydraulic_unit1.svg date 2026-05-31T11:36:27 </title>
  <desc>Image generated by Eeschema-SVG </desc>
<g style="fill:#000000; fill-opacity:1.0000;stroke:#000000; stroke-opacity:1.0000;
stroke-linecap:round; stroke-linejoin:round;"
 transform="translate(0 0) scale(1 1)">
<path style="fill:none;
stroke:#840000; stroke-width:0.1000; stroke-opacity:1;
stroke-linecap:round; stroke-linejoin:round;fill:none"
d="M 9.4653,7.9569
9.4653,11.9569
" />
<path style="fill:none;
stroke:#840000; stroke-width:0.1000; stroke-opacity:1;
stroke-linecap:round; stroke-linejoin:round;fill:none"
d="M 9.9653,11.7069
14.4653,9.9569
" />
</g>
<g style="fill:none;
stroke:#840000; stroke-width:0.1000; stroke-opacity:1;
stroke-linecap:round; stroke-linejoin:round;">
<rect x="12.465300" y="4.956900" width="4.000000" height="2.000000" rx="0.000000" />
<path style="fill:none;
stroke:#840000; stroke-width:0.1000; stroke-opacity:1;
stroke-linecap:round; stroke-linejoin:round;fill:none"
d="M 14.4653,6.9569
14.4653,9.9569
" />
<path style="fill:none;
stroke:#840000; stroke-width:0.1000; stroke-opacity:1;
stroke-linecap:round; stroke-linejoin:round;fill:none"
d="M 14.4653,9.9569
18.9653,8.2069
" />
</g>
<g style="fill:#840000; fill-opacity:1.0000;
stroke:#840000; stroke-width:0.1524; stroke-opacity:1;
stroke-linecap:round; stroke-linejoin:round;">
<circle cx="14.4653" cy="9.9569" r="0.5000" />
<path style="fill:none;
stroke:#840000; stroke-width:0.1000; stroke-opacity:1;
stroke-linecap:round; stroke-linejoin:round;fill:none"
d="M 19.4653,7.9569
19.4653,11.9569
" />
</g>
<g style="fill:none;
stroke:#840000; stroke-width:0.1524; stroke-opacity:1;
stroke-linecap:round; stroke-linejoin:round;">
<text x="14.4653" y="6.5919"
textLength="1.5337" font-size="1.6933" lengthAdjust="spacingAndGlyphs"
text-anchor="middle" opacity="0" stroke-opacity="0">H</text>
<g class="stroked-text"><desc>H</desc>
<path d="M14.1024 6.5364
L14.1024 5.2664
" />
<path d="M14.1024 5.8712
L14.8281 5.8712
" />
<path d="M14.8281 6.5364
L14.8281 5.2664
" />
</g><path d="M9.4653 9.9569
L6.4653 9.9569
" />
<path d="M19.4653 9.9569
L22.4653 9.9569
" />
</g>
<g style="fill:none;
stroke:#006464; stroke-width:0.1524; stroke-opacity:1;
stroke-linecap:round; stroke-linejoin:round;">
<text x="14.4653" y="20.5919"
textLength="25.1796" font-size="1.6933" lengthAdjust="spacingAndGlyphs"
text-anchor="middle" opacity="0" stroke-opacity="0">Butterfly_Hydraulic_Valve?</text>
<g class="stroked-text"><desc>Butterfly_Hydraulic_Valve?</desc>
<path d="M2.7028 19.8712
L2.8842 19.9317
" />
<path d="M2.8842 19.9317
L2.9447 19.9921
" />
<path d="M2.9447 19.9921
L3.0051 20.1131
" />
<path d="M3.0051 20.1131
L3.0051 20.2945
" />
<path d="M3.0051 20.2945
L2.9447 20.4155
" />
<path d="M2.9447 20.4155
L2.8842 20.4760
" />
<path d="M2.8842 20.4760
L2.7632 20.5364
" />
<path d="M2.7632 20.5364
L2.2794 20.5364
" />
<path d="M2.2794 20.5364
L2.2794 19.2664
" />
<path d="M2.2794 19.2664
L2.7028 19.2664
" />
<path d="M2.7028 19.2664
L2.8237 19.3269
" />
<path d="M2.8237 19.3269
L2.8842 19.3874
" />
<path d="M2.8842 19.3874
L2.9447 19.5083
" />
<path d="M2.9447 19.5083
L2.9447 19.6293
" />
<path d="M2.9447 19.6293
L2.8842 19.7502
" />
<path d="M2.8842 19.7502
L2.8237 19.8107
" />
<path d="M2.8237 19.8107
L2.7028 19.8712
" />
<path d="M2.7028 19.8712
L2.2794 19.8712
" />
<path d="M4.0937 19.6898
L4.0937 20.5364
" />
<path d="M3.5494 19.6898
L3.5494 20.3550
" />
<path d="M3.5494 20.3550
L3.6099 20.4760
" />
<path d="M3.6099 20.4760
L3.7309 20.5364
" />
<path d="M3.7309 20.5364
L3.9123 20.5364
" />
<path d="M3.9123 20.5364
L4.0332 20.4760
" />
<path d="M4.0332 20.4760
L4.0937 20.4155
" />
<path d="M4.5170 19.6898
L5.0008 19.6898
" />
<path d="M4.6984 19.2664
L4.6984 20.3550
" />
<path d="M4.6984 20.3550
L4.7589 20.4760
" />
<path d="M4.7589 20.4760
L4.8799 20.5364
" />
<path d="M4.8799 20.5364
L5.0008 20.5364
" />
<path d="M5.2427 19.6898
L5.7265 19.6898
" />
<path d="M5.4241 19.2664
L5.4241 20.3550
" />
<path d="M5.4241 20.3550
L5.4846 20.4760
" />
<path d="M5.4846 20.4760
L5.6056 20.5364
" />
<path d="M5.6056 20.5364
L5.7265 20.5364
" />
<path d="M6.6336 20.4760
L6.5127 20.5364
" />
<path d="M6.5127 20.5364
L6.2708 20.5364
" />
<path d="M6.2708 20.5364
L6.1498 20.4760
" />
<path d="M6.1498 20.4760
L6.0894 20.3550
" />
<path d="M6.0894 20.3550
L6.0894 19.8712
" />
<path d="M6.0894 19.8712
L6.1498 19.7502
" />
<path d="M6.1498 19.7502
L6.2708 19.6898
" />
<path d="M6.2708 19.6898
L6.5127 19.6898
" />
<path d="M6.5127 19.6898
L6.6336 19.7502
" />
<path d="M6.6336 19.7502
L6.6941 19.8712
" />
<path d="M6.6941 19.8712
L6.6941 19.9921
" />
<path d="M6.6941 19.9921
L6.0894 20.1131
" />
<path d="M7.2384 20.5364
L7.2384 19.6898
" />
<path d="M7.2384 19.9317
L7.2989 19.8107
" />
<path d="M7.2989 19.8107
L7.3594 19.7502
" />
<path d="M7.3594 19.7502
L7.4803 19.6898
" />
<path d="M7.4803 19.6898
L7.6013 19.6898
" />
<path d="M7.8432 19.6898
L8.3270 19.6898
" />
<path d="M8.0246 20.5364
L8.0246 19.4479
" />
<path d="M8.0246 19.4479
L8.0851 19.3269
" />
<path d="M8.0851 19.3269
L8.2061 19.2664
" />
<path d="M8.2061 19.2664
L8.3270 19.2664
" />
<path d="M8.9318 20.5364
L8.8108 20.4760
" />
<path d="M8.8108 20.4760
L8.7503 20.3550
" />
<path d="M8.7503 20.3550
L8.7503 19.2664
" />
<path d="M9.2946 19.6898
L9.5970 20.5364
" />
<path d="M9.8993 19.6898
L9.5970 20.5364
" />
<path d="M9.5970 20.5364
L9.4760 20.8388
" />
<path d="M9.4760 20.8388
L9.4155 20.8993
" />
<path d="M9.4155 20.8993
L9.2946 20.9598
" />
<path d="M10.0808 20.6574
L11.0484 20.6574
" />
<path d="M11.3507 20.5364
L11.3507 19.2664
" />
<path d="M11.3507 19.8712
L12.0764 19.8712
" />
<path d="M12.0764 20.5364
L12.0764 19.2664
" />
<path d="M12.5603 19.6898
L12.8627 20.5364
" />
<path d="M13.1650 19.6898
L12.8627 20.5364
" />
<path d="M12.8627 20.5364
L12.7417 20.8388
" />
<path d="M12.7417 20.8388
L12.6812 20.8993
" />
<path d="M12.6812 20.8993
L12.5603 20.9598
" />
<path d="M14.1931 20.5364
L14.1931 19.2664
" />
<path d="M14.1931 20.4760
L14.0722 20.5364
" />
<path d="M14.0722 20.5364
L13.8303 20.5364
" />
<path d="M13.8303 20.5364
L13.7093 20.4760
" />
<path d="M13.7093 20.4760
L13.6488 20.4155
" />
<path d="M13.6488 20.4155
L13.5884 20.2945
" />
<path d="M13.5884 20.2945
L13.5884 19.9317
" />
<path d="M13.5884 19.9317
L13.6488 19.8107
" />
<path d="M13.6488 19.8107
L13.7093 19.7502
" />
<path d="M13.7093 19.7502
L13.8303 19.6898
" />
<path d="M13.8303 19.6898
L14.0722 19.6898
" />
<path d="M14.0722 19.6898
L14.1931 19.7502
" />
<path d="M14.7978 20.5364
L14.7978 19.6898
" />
<path d="M14.7978 19.9317
L14.8583 19.8107
" />
<path d="M14.8583 19.8107
L14.9188 19.7502
" />
<path d="M14.9188 19.7502
L15.0397 19.6898
" />
<path d="M15.0397 19.6898
L15.1607 19.6898
" />
<path d="M16.1283 20.5364
L16.1283 19.8712
" />
<path d="M16.1283 19.8712
L16.0678 19.7502
" />
<path d="M16.0678 19.7502
L15.9469 19.6898
" />
<path d="M15.9469 19.6898
L15.7050 19.6898
" />
<path d="M15.7050 19.6898
L15.5840 19.7502
" />
<path d="M16.1283 20.4760
L16.0074 20.5364
" />
<path d="M16.0074 20.5364
L15.7050 20.5364
" />
<path d="M15.7050 20.5364
L15.5840 20.4760
" />
<path d="M15.5840 20.4760
L15.5236 20.3550
" />
<path d="M15.5236 20.3550
L15.5236 20.2340
" />
<path d="M15.5236 20.2340
L15.5840 20.1131
" />
<path d="M15.5840 20.1131
L15.7050 20.0526
" />
<path d="M15.7050 20.0526
L16.0074 20.0526
" />
<path d="M16.0074 20.0526
L16.1283 19.9921
" />
<path d="M17.2773 19.6898
L17.2773 20.5364
" />
<path d="M16.7330 19.6898
L16.7330 20.3550
" />
<path d="M16.7330 20.3550
L16.7935 20.4760
" />
<path d="M16.7935 20.4760
L16.9145 20.5364
" />
<path d="M16.9145 20.5364
L17.0959 20.5364
" />
<path d="M17.0959 20.5364
L17.2168 20.4760
" />
<path d="M17.2168 20.4760
L17.2773 20.4155
" />
<path d="M18.0635 20.5364
L17.9425 20.4760
" />
<path d="M17.9425 20.4760
L17.8820 20.3550
" />
<path d="M17.8820 20.3550
L17.8820 19.2664
" />
<path d="M18.5472 20.5364
L18.5472 19.6898
" />
<path d="M18.5472 19.2664
L18.4868 19.3269
" />
<path d="M18.4868 19.3269
L18.5472 19.3874
" />
<path d="M18.5472 19.3874
L18.6077 19.3269
" />
<path d="M18.6077 19.3269
L18.5472 19.2664
" />
<path d="M18.5472 19.2664
L18.5472 19.3874
" />
<path d="M19.6963 20.4760
L19.5754 20.5364
" />
<path d="M19.5754 20.5364
L19.3335 20.5364
" />
<path d="M19.3335 20.5364
L19.2125 20.4760
" />
<path d="M19.2125 20.4760
L19.1520 20.4155
" />
<path d="M19.1520 20.4155
L19.0916 20.2945
" />
<path d="M19.0916 20.2945
L19.0916 19.9317
" />
<path d="M19.0916 19.9317
L19.1520 19.8107
" />
<path d="M19.1520 19.8107
L19.2125 19.7502
" />
<path d="M19.2125 19.7502
L19.3335 19.6898
" />
<path d="M19.3335 19.6898
L19.5754 19.6898
" />
<path d="M19.5754 19.6898
L19.6963 19.7502
" />
<path d="M19.9383 20.6574
L20.9059 20.6574
" />
<path d="M21.0268 19.2664
L21.4501 20.5364
" />
<path d="M21.4501 20.5364
L21.8735 19.2664
" />
<path d="M22.8411 20.5364
L22.8411 19.8712
" />
<path d="M22.8411 19.8712
L22.7806 19.7502
" />
<path d="M22.7806 19.7502
L22.6597 19.6898
" />
<path d="M22.6597 19.6898
L22.4178 19.6898
" />
<path d="M22.4178 19.6898
L22.2968 19.7502
" />
<path d="M22.8411 20.4760
L22.7202 20.5364
" />
<path d="M22.7202 20.5364
L22.4178 20.5364
" />
<path d="M22.4178 20.5364
L22.2968 20.4760
" />
<path d="M22.2968 20.4760
L22.2364 20.3550
" />
<path d="M22.2364 20.3550
L22.2364 20.2340
" />
<path d="M22.2364 20.2340
L22.2968 20.1131
" />
<path d="M22.2968 20.1131
L22.4178 20.0526
" />
<path d="M22.4178 20.0526
L22.7202 20.0526
" />
<path d="M22.7202 20.0526
L22.8411 19.9921
" />
<path d="M23.6273 20.5364
L23.5063 20.4760
" />
<path d="M23.5063 20.4760
L23.4458 20.3550
" />
<path d="M23.4458 20.3550
L23.4458 19.2664
" />
<path d="M23.9901 19.6898
L24.2925 20.5364
" />
<path d="M24.2925 20.5364
L24.5948 19.6898
" />
<path d="M25.5624 20.4760
L25.4415 20.5364
" />
<path d="M25.4415 20.5364
L25.1996 20.5364
" />
<path d="M25.1996 20.5364
L25.0786 20.4760
" />
<path d="M25.0786 20.4760
L25.0182 20.3550
" />
<path d="M25.0182 20.3550
L25.0182 19.8712
" />
<path d="M25.0182 19.8712
L25.0786 19.7502
" />
<path d="M25.0786 19.7502
L25.1996 19.6898
" />
<path d="M25.1996 19.6898
L25.4415 19.6898
" />
<path d="M25.4415 19.6898
L25.5624 19.7502
" />
<path d="M25.5624 19.7502
L25.6229 19.8712
" />
<path d="M25.6229 19.8712
L25.6229 19.9921
" />
<path d="M25.6229 19.9921
L25.0182 20.1131
" />
<path d="M26.3487 20.4155
L26.4091 20.4760
" />
<path d="M26.4091 20.4760
L26.3487 20.5364
" />
<path d="M26.3487 20.5364
L26.2882 20.4760
" />
<path d="M26.2882 20.4760
L26.3487 20.4155
" />
<path d="M26.3487 20.4155
L26.3487 20.5364
" />
<path d="M26.1068 19.3269
L26.2277 19.2664
" />
<path d="M26.2277 19.2664
L26.5301 19.2664
" />
<path d="M26.5301 19.2664
L26.6510 19.3269
" />
<path d="M26.6510 19.3269
L26.7115 19.4479
" />
<path d="M26.7115 19.4479
L26.7115 19.5688
" />
<path d="M26.7115 19.5688
L26.6510 19.6898
" />
<path d="M26.6510 19.6898
L26.5906 19.7502
" />
<path d="M26.5906 19.7502
L26.4696 19.8107
" />
<path d="M26.4696 19.8107
L26.4091 19.8712
" />
<path d="M26.4091 19.8712
L26.3487 19.9921
" />
<path d="M26.3487 19.9921
L26.3487 20.0526
" />
</g></g>
</svg>
