<?xml version="1.0" standalone="no"?>
 <!DOCTYPE svg PUBLIC "-//W3C//DTD SVG 1.1//EN"
 "http://www.w3.org/Graphics/SVG/1.1/DTD/svg11.dtd">
<svg
  xmlns:svg="http://www.w3.org/2000/svg"
  xmlns="http://www.w3.org/2000/svg"
  xmlns:xlink="http://www.w3.org/1999/xlink"
  xmlns:inkscape="http://www.inkscape.org/namespaces/inkscape"
  version="1.1"
  width="24.2824mm" height="22.8854mm" viewBox="0.0000 0.0000 24.2824 22.8854">
<title>SVG Image created as Valve - Gate Hydraulic_unit1.svg date 2026-05-31T11:36:28 </title>
  <desc>Image generated by Eeschema-SVG </desc>
<g style="fill:#000000; fill-opacity:1.0000;stroke:#000000; stroke-opacity:1.0000;
stroke-linecap:round; stroke-linejoin:round;"
 transform="translate(0 0) scale(1 1)">
</g>
<g style="fill:none;
stroke:#840000; stroke-width:0.1000; stroke-opacity:1;
stroke-linecap:round; stroke-linejoin:round;">
<rect x="10.141200" y="4.956900" width="4.000000" height="2.000000" rx="0.000000" />
</g>
<g style="fill:#840000; fill-opacity:1.0000;
stroke:#840000; stroke-width:0.1000; stroke-opacity:1;
stroke-linecap:round; stroke-linejoin:round;">
<rect x="11.841200" y="7.956900" width="0.600000" height="4.000000" rx="0.000000" />
<path style="fill:none;
stroke:#840000; stroke-width:0.1000; stroke-opacity:1;
stroke-linecap:round; stroke-linejoin:round;fill:none"
d="M 12.1412,6.9569
12.1412,9.9569
" />
<path style="fill:none;
stroke:#840000; stroke-width:0.1000; stroke-opacity:1;
stroke-linecap:round; stroke-linejoin:round;fill:none"
d="M 12.1412,9.9569
7.1412,7.9569
7.1412,11.9569
Z" />
<path style="fill:none;
stroke:#840000; stroke-width:0.1000; stroke-opacity:1;
stroke-linecap:round; stroke-linejoin:round;fill:none"
d="M 12.1412,9.9569
17.1412,7.9569
17.1412,11.9569
Z" />
</g>
<g style="fill:none;
stroke:#840000; stroke-width:0.1524; stroke-opacity:1;
stroke-linecap:round; stroke-linejoin:round;">
<text x="12.1412" y="6.5919"
textLength="1.5337" font-size="1.6933" lengthAdjust="spacingAndGlyphs"
text-anchor="middle" opacity="0" stroke-opacity="0">H</text>
<g class="stroked-text"><desc>H</desc>
<path d="M11.7783 6.5364
L11.7783 5.2664
" />
<path d="M11.7783 5.8712
L12.5040 5.8712
" />
<path d="M12.5040 6.5364
L12.5040 5.2664
" />
</g><path d="M7.1412 9.9569
L4.1412 9.9569
" />
<path d="M17.1412 9.9569
L20.1412 9.9569
" />
</g>
<g style="fill:none;
stroke:#006464; stroke-width:0.1524; stroke-opacity:1;
stroke-linecap:round; stroke-linejoin:round;">
<text x="12.1412" y="20.5919"
textLength="21.3092" font-size="1.6933" lengthAdjust="spacingAndGlyphs"
text-anchor="middle" opacity="0" stroke-opacity="0">Gate_Hydraulic_Valve?</text>
<g class="stroked-text"><desc>Gate_Hydraulic_Valve?</desc>
<path d="M2.5558 19.3269
L2.4348 19.2664
" />
<path d="M2.4348 19.2664
L2.2534 19.2664
" />
<path d="M2.2534 19.2664
L2.0720 19.3269
" />
<path d="M2.0720 19.3269
L1.9510 19.4479
" />
<path d="M1.9510 19.4479
L1.8905 19.5688
" />
<path d="M1.8905 19.5688
L1.8301 19.8107
" />
<path d="M1.8301 19.8107
L1.8301 19.9921
" />
<path d="M1.8301 19.9921
L1.8905 20.2340
" />
<path d="M1.8905 20.2340
L1.9510 20.3550
" />
<path d="M1.9510 20.3550
L2.0720 20.4760
" />
<path d="M2.0720 20.4760
L2.2534 20.5364
" />
<path d="M2.2534 20.5364
L2.3743 20.5364
" />
<path d="M2.3743 20.5364
L2.5558 20.4760
" />
<path d="M2.5558 20.4760
L2.6162 20.4155
" />
<path d="M2.6162 20.4155
L2.6162 19.9921
" />
<path d="M2.6162 19.9921
L2.3743 19.9921
" />
<path d="M3.7048 20.5364
L3.7048 19.8712
" />
<path d="M3.7048 19.8712
L3.6443 19.7502
" />
<path d="M3.6443 19.7502
L3.5234 19.6898
" />
<path d="M3.5234 19.6898
L3.2815 19.6898
" />
<path d="M3.2815 19.6898
L3.1605 19.7502
" />
<path d="M3.7048 20.4760
L3.5839 20.5364
" />
<path d="M3.5839 20.5364
L3.2815 20.5364
" />
<path d="M3.2815 20.5364
L3.1605 20.4760
" />
<path d="M3.1605 20.4760
L3.1001 20.3550
" />
<path d="M3.1001 20.3550
L3.1001 20.2340
" />
<path d="M3.1001 20.2340
L3.1605 20.1131
" />
<path d="M3.1605 20.1131
L3.2815 20.0526
" />
<path d="M3.2815 20.0526
L3.5839 20.0526
" />
<path d="M3.5839 20.0526
L3.7048 19.9921
" />
<path d="M4.1281 19.6898
L4.6119 19.6898
" />
<path d="M4.3095 19.2664
L4.3095 20.3550
" />
<path d="M4.3095 20.3550
L4.3700 20.4760
" />
<path d="M4.3700 20.4760
L4.4910 20.5364
" />
<path d="M4.4910 20.5364
L4.6119 20.5364
" />
<path d="M5.5190 20.4760
L5.3981 20.5364
" />
<path d="M5.3981 20.5364
L5.1562 20.5364
" />
<path d="M5.1562 20.5364
L5.0352 20.4760
" />
<path d="M5.0352 20.4760
L4.9748 20.3550
" />
<path d="M4.9748 20.3550
L4.9748 19.8712
" />
<path d="M4.9748 19.8712
L5.0352 19.7502
" />
<path d="M5.0352 19.7502
L5.1562 19.6898
" />
<path d="M5.1562 19.6898
L5.3981 19.6898
" />
<path d="M5.3981 19.6898
L5.5190 19.7502
" />
<path d="M5.5190 19.7502
L5.5795 19.8712
" />
<path d="M5.5795 19.8712
L5.5795 19.9921
" />
<path d="M5.5795 19.9921
L4.9748 20.1131
" />
<path d="M5.8215 20.6574
L6.7891 20.6574
" />
<path d="M7.0914 20.5364
L7.0914 19.2664
" />
<path d="M7.0914 19.8712
L7.8171 19.8712
" />
<path d="M7.8171 20.5364
L7.8171 19.2664
" />
<path d="M8.3010 19.6898
L8.6034 20.5364
" />
<path d="M8.9057 19.6898
L8.6034 20.5364
" />
<path d="M8.6034 20.5364
L8.4824 20.8388
" />
<path d="M8.4824 20.8388
L8.4219 20.8993
" />
<path d="M8.4219 20.8993
L8.3010 20.9598
" />
<path d="M9.9338 20.5364
L9.9338 19.2664
" />
<path d="M9.9338 20.4760
L9.8129 20.5364
" />
<path d="M9.8129 20.5364
L9.5710 20.5364
" />
<path d="M9.5710 20.5364
L9.4500 20.4760
" />
<path d="M9.4500 20.4760
L9.3895 20.4155
" />
<path d="M9.3895 20.4155
L9.3291 20.2945
" />
<path d="M9.3291 20.2945
L9.3291 19.9317
" />
<path d="M9.3291 19.9317
L9.3895 19.8107
" />
<path d="M9.3895 19.8107
L9.4500 19.7502
" />
<path d="M9.4500 19.7502
L9.5710 19.6898
" />
<path d="M9.5710 19.6898
L9.8129 19.6898
" />
<path d="M9.8129 19.6898
L9.9338 19.7502
" />
<path d="M10.5385 20.5364
L10.5385 19.6898
" />
<path d="M10.5385 19.9317
L10.5990 19.8107
" />
<path d="M10.5990 19.8107
L10.6595 19.7502
" />
<path d="M10.6595 19.7502
L10.7804 19.6898
" />
<path d="M10.7804 19.6898
L10.9014 19.6898
" />
<path d="M11.8690 20.5364
L11.8690 19.8712
" />
<path d="M11.8690 19.8712
L11.8085 19.7502
" />
<path d="M11.8085 19.7502
L11.6876 19.6898
" />
<path d="M11.6876 19.6898
L11.4457 19.6898
" />
<path d="M11.4457 19.6898
L11.3247 19.7502
" />
<path d="M11.8690 20.4760
L11.7481 20.5364
" />
<path d="M11.7481 20.5364
L11.4457 20.5364
" />
<path d="M11.4457 20.5364
L11.3247 20.4760
" />
<path d="M11.3247 20.4760
L11.2643 20.3550
" />
<path d="M11.2643 20.3550
L11.2643 20.2340
" />
<path d="M11.2643 20.2340
L11.3247 20.1131
" />
<path d="M11.3247 20.1131
L11.4457 20.0526
" />
<path d="M11.4457 20.0526
L11.7481 20.0526
" />
<path d="M11.7481 20.0526
L11.8690 19.9921
" />
<path d="M13.0180 19.6898
L13.0180 20.5364
" />
<path d="M12.4737 19.6898
L12.4737 20.3550
" />
<path d="M12.4737 20.3550
L12.5342 20.4760
" />
<path d="M12.5342 20.4760
L12.6552 20.5364
" />
<path d="M12.6552 20.5364
L12.8366 20.5364
" />
<path d="M12.8366 20.5364
L12.9575 20.4760
" />
<path d="M12.9575 20.4760
L13.0180 20.4155
" />
<path d="M13.8042 20.5364
L13.6832 20.4760
" />
<path d="M13.6832 20.4760
L13.6227 20.3550
" />
<path d="M13.6227 20.3550
L13.6227 19.2664
" />
<path d="M14.2879 20.5364
L14.2879 19.6898
" />
<path d="M14.2879 19.2664
L14.2275 19.3269
" />
<path d="M14.2275 19.3269
L14.2879 19.3874
" />
<path d="M14.2879 19.3874
L14.3484 19.3269
" />
<path d="M14.3484 19.3269
L14.2879 19.2664
" />
<path d="M14.2879 19.2664
L14.2879 19.3874
" />
<path d="M15.4370 20.4760
L15.3161 20.5364
" />
<path d="M15.3161 20.5364
L15.0742 20.5364
" />
<path d="M15.0742 20.5364
L14.9532 20.4760
" />
<path d="M14.9532 20.4760
L14.8927 20.4155
" />
<path d="M14.8927 20.4155
L14.8323 20.2945
" />
<path d="M14.8323 20.2945
L14.8323 19.9317
" />
<path d="M14.8323 19.9317
L14.8927 19.8107
" />
<path d="M14.8927 19.8107
L14.9532 19.7502
" />
<path d="M14.9532 19.7502
L15.0742 19.6898
" />
<path d="M15.0742 19.6898
L15.3161 19.6898
" />
<path d="M15.3161 19.6898
L15.4370 19.7502
" />
<path d="M15.6790 20.6574
L16.6466 20.6574
" />
<path d="M16.7675 19.2664
L17.1908 20.5364
" />
<path d="M17.1908 20.5364
L17.6142 19.2664
" />
<path d="M18.5818 20.5364
L18.5818 19.8712
" />
<path d="M18.5818 19.8712
L18.5213 19.7502
" />
<path d="M18.5213 19.7502
L18.4004 19.6898
" />
<path d="M18.4004 19.6898
L18.1585 19.6898
" />
<path d="M18.1585 19.6898
L18.0375 19.7502
" />
<path d="M18.5818 20.4760
L18.4609 20.5364
" />
<path d="M18.4609 20.5364
L18.1585 20.5364
" />
<path d="M18.1585 20.5364
L18.0375 20.4760
" />
<path d="M18.0375 20.4760
L17.9771 20.3550
" />
<path d="M17.9771 20.3550
L17.9771 20.2340
" />
<path d="M17.9771 20.2340
L18.0375 20.1131
" />
<path d="M18.0375 20.1131
L18.1585 20.0526
" />
<path d="M18.1585 20.0526
L18.4609 20.0526
" />
<path d="M18.4609 20.0526
L18.5818 19.9921
" />
<path d="M19.3680 20.5364
L19.2470 20.4760
" />
<path d="M19.2470 20.4760
L19.1865 20.3550
" />
<path d="M19.1865 20.3550
L19.1865 19.2664
" />
<path d="M19.7308 19.6898
L20.0332 20.5364
" />
<path d="M20.0332 20.5364
L20.3355 19.6898
" />
<path d="M21.3031 20.4760
L21.1822 20.5364
" />
<path d="M21.1822 20.5364
L20.9403 20.5364
" />
<path d="M20.9403 20.5364
L20.8193 20.4760
" />
<path d="M20.8193 20.4760
L20.7589 20.3550
" />
<path d="M20.7589 20.3550
L20.7589 19.8712
" />
<path d="M20.7589 19.8712
L20.8193 19.7502
" />
<path d="M20.8193 19.7502
L20.9403 19.6898
" />
<path d="M20.9403 19.6898
L21.1822 19.6898
" />
<path d="M21.1822 19.6898
L21.3031 19.7502
" />
<path d="M21.3031 19.7502
L21.3636 19.8712
" />
<path d="M21.3636 19.8712
L21.3636 19.9921
" />
<path d="M21.3636 19.9921
L20.7589 20.1131
" />
<path d="M22.0894 20.4155
L22.1498 20.4760
" />
<path d="M22.1498 20.4760
L22.0894 20.5364
" />
<path d="M22.0894 20.5364
L22.0289 20.4760
" />
<path d="M22.0289 20.4760
L22.0894 20.4155
" />
<path d="M22.0894 20.4155
L22.0894 20.5364
" />
<path d="M21.8475 19.3269
L21.9684 19.2664
" />
<path d="M21.9684 19.2664
L22.2708 19.2664
" />
<path d="M22.2708 19.2664
L22.3917 19.3269
" />
<path d="M22.3917 19.3269
L22.4522 19.4479
" />
<path d="M22.4522 19.4479
L22.4522 19.5688
" />
<path d="M22.4522 19.5688
L22.3917 19.6898
" />
<path d="M22.3917 19.6898
L22.3313 19.7502
" />
<path d="M22.3313 19.7502
L22.2103 19.8107
" />
<path d="M22.2103 19.8107
L22.1498 19.8712
" />
<path d="M22.1498 19.8712
L22.0894 19.9921
" />
<path d="M22.0894 19.9921
L22.0894 20.0526
" />
</g></g>
</svg>
