<!-- Copyright 2026 Kingston University Rocket Engineering -->

<?xml version="1.0" standalone="no"?>
 <!DOCTYPE svg PUBLIC "-//W3C//DTD SVG 1.1//EN"
 "http://www.w3.org/Graphics/SVG/1.1/DTD/svg11.dtd">
<svg
  xmlns:svg="http://www.w3.org/2000/svg"
  xmlns="http://www.w3.org/2000/svg"
  xmlns:xlink="http://www.w3.org/1999/xlink"
  xmlns:inkscape="http://www.inkscape.org/namespaces/inkscape"
  version="1.1"
  width="20.1168mm" height="23.2918mm" viewBox="0.0000 0.0000 20.1168 23.2918">
<title>SVG Image created as Valve - 4 Way_unit1.svg date 2026-05-31T11:36:23 </title>
  <desc>Image generated by Eeschema-SVG </desc>
<g style="fill:#000000; fill-opacity:1.0000;stroke:#000000; stroke-opacity:1.0000;
stroke-linecap:round; stroke-linejoin:round;"
 transform="translate(0 0) scale(1 1)">
<path style="fill:none;
stroke:#840000; stroke-width:0.1000; stroke-opacity:1;
stroke-linecap:round; stroke-linejoin:round;fill:none"
d="M 10.0584,10.3256
5.0584,8.3256
5.0584,12.3256
Z" />
<path style="fill:none;
stroke:#840000; stroke-width:0.1000; stroke-opacity:1;
stroke-linecap:round; stroke-linejoin:round;fill:none"
d="M 10.0584,10.3256
8.0584,5.3256
12.0584,5.3256
Z" />
<path style="fill:none;
stroke:#840000; stroke-width:0.1000; stroke-opacity:1;
stroke-linecap:round; stroke-linejoin:round;fill:none"
d="M 10.0584,10.3256
8.0584,15.3256
12.0584,15.3256
Z" />
<path style="fill:none;
stroke:#840000; stroke-width:0.1000; stroke-opacity:1;
stroke-linecap:round; stroke-linejoin:round;fill:none"
d="M 10.0584,10.3256
15.0584,8.3256
15.0584,12.3256
Z" />
</g>
<g style="fill:none;
stroke:#840000; stroke-width:0.1524; stroke-opacity:1;
stroke-linecap:round; stroke-linejoin:round;">
<path d="M5.0584 10.3256
L2.0584 10.3256
" />
<path d="M10.0584 5.3256
L10.0584 2.3256
" />
<path d="M10.0584 15.3256
L10.0584 18.3256
" />
<path d="M15.0584 10.3256
L18.0584 10.3256
" />
</g>
<g style="fill:none;
stroke:#006464; stroke-width:0.1524; stroke-opacity:1;
stroke-linecap:round; stroke-linejoin:round;">
<text x="10.0584" y="20.9606"
textLength="12.9635" font-size="1.6933" lengthAdjust="spacingAndGlyphs"
text-anchor="middle" opacity="0" stroke-opacity="0">4_Way_Valve?</text>
<g class="stroked-text"><desc>4_Way_Valve?</desc>
<path d="M4.5249 20.0585
L4.5249 20.9051
" />
<path d="M4.2225 19.5747
L3.9202 20.4818
" />
<path d="M3.9202 20.4818
L4.7063 20.4818
" />
<path d="M4.8878 21.0261
L5.8554 21.0261
" />
<path d="M6.0368 19.6351
L6.3392 20.9051
" />
<path d="M6.3392 20.9051
L6.5811 19.9980
" />
<path d="M6.5811 19.9980
L6.8230 20.9051
" />
<path d="M6.8230 20.9051
L7.1254 19.6351
" />
<path d="M8.1534 20.9051
L8.1534 20.2399
" />
<path d="M8.1534 20.2399
L8.0929 20.1189
" />
<path d="M8.0929 20.1189
L7.9720 20.0585
" />
<path d="M7.9720 20.0585
L7.7301 20.0585
" />
<path d="M7.7301 20.0585
L7.6091 20.1189
" />
<path d="M8.1534 20.8447
L8.0325 20.9051
" />
<path d="M8.0325 20.9051
L7.7301 20.9051
" />
<path d="M7.7301 20.9051
L7.6091 20.8447
" />
<path d="M7.6091 20.8447
L7.5487 20.7237
" />
<path d="M7.5487 20.7237
L7.5487 20.6027
" />
<path d="M7.5487 20.6027
L7.6091 20.4818
" />
<path d="M7.6091 20.4818
L7.7301 20.4213
" />
<path d="M7.7301 20.4213
L8.0325 20.4213
" />
<path d="M8.0325 20.4213
L8.1534 20.3608
" />
<path d="M8.6372 20.0585
L8.9396 20.9051
" />
<path d="M9.2419 20.0585
L8.9396 20.9051
" />
<path d="M8.9396 20.9051
L8.8186 21.2075
" />
<path d="M8.8186 21.2075
L8.7581 21.2680
" />
<path d="M8.7581 21.2680
L8.6372 21.3285
" />
<path d="M9.4234 21.0261
L10.3910 21.0261
" />
<path d="M10.5119 19.6351
L10.9352 20.9051
" />
<path d="M10.9352 20.9051
L11.3586 19.6351
" />
<path d="M12.3262 20.9051
L12.3262 20.2399
" />
<path d="M12.3262 20.2399
L12.2657 20.1189
" />
<path d="M12.2657 20.1189
L12.1448 20.0585
" />
<path d="M12.1448 20.0585
L11.9029 20.0585
" />
<path d="M11.9029 20.0585
L11.7819 20.1189
" />
<path d="M12.3262 20.8447
L12.2053 20.9051
" />
<path d="M12.2053 20.9051
L11.9029 20.9051
" />
<path d="M11.9029 20.9051
L11.7819 20.8447
" />
<path d="M11.7819 20.8447
L11.7215 20.7237
" />
<path d="M11.7215 20.7237
L11.7215 20.6027
" />
<path d="M11.7215 20.6027
L11.7819 20.4818
" />
<path d="M11.7819 20.4818
L11.9029 20.4213
" />
<path d="M11.9029 20.4213
L12.2053 20.4213
" />
<path d="M12.2053 20.4213
L12.3262 20.3608
" />
<path d="M13.1124 20.9051
L12.9914 20.8447
" />
<path d="M12.9914 20.8447
L12.9309 20.7237
" />
<path d="M12.9309 20.7237
L12.9309 19.6351
" />
<path d="M13.4752 20.0585
L13.7776 20.9051
" />
<path d="M13.7776 20.9051
L14.0799 20.0585
" />
<path d="M15.0475 20.8447
L14.9266 20.9051
" />
<path d="M14.9266 20.9051
L14.6847 20.9051
" />
<path d="M14.6847 20.9051
L14.5637 20.8447
" />
<path d="M14.5637 20.8447
L14.5033 20.7237
" />
<path d="M14.5033 20.7237
L14.5033 20.2399
" />
<path d="M14.5033 20.2399
L14.5637 20.1189
" />
<path d="M14.5637 20.1189
L14.6847 20.0585
" />
<path d="M14.6847 20.0585
L14.9266 20.0585
" />
<path d="M14.9266 20.0585
L15.0475 20.1189
" />
<path d="M15.0475 20.1189
L15.1080 20.2399
" />
<path d="M15.1080 20.2399
L15.1080 20.3608
" />
<path d="M15.1080 20.3608
L14.5033 20.4818
" />
<path d="M15.8338 20.7842
L15.8942 20.8447
" />
<path d="M15.8942 20.8447
L15.8338 20.9051
" />
<path d="M15.8338 20.9051
L15.7733 20.8447
" />
<path d="M15.7733 20.8447
L15.8338 20.7842
" />
<path d="M15.8338 20.7842
L15.8338 20.9051
" />
<path d="M15.5919 19.6956
L15.7128 19.6351
" />
<path d="M15.7128 19.6351
L16.0152 19.6351
" />
<path d="M16.0152 19.6351
L16.1361 19.6956
" />
<path d="M16.1361 19.6956
L16.1966 19.8166
" />
<path d="M16.1966 19.8166
L16.1966 19.9375
" />
<path d="M16.1966 19.9375
L16.1361 20.0585
" />
<path d="M16.1361 20.0585
L16.0757 20.1189
" />
<path d="M16.0757 20.1189
L15.9547 20.1794
" />
<path d="M15.9547 20.1794
L15.8942 20.2399
" />
<path d="M15.8942 20.2399
L15.8338 20.3608
" />
<path d="M15.8338 20.3608
L15.8338 20.4213
" />
</g></g>
</svg>
