<!-- Copyright 2026 Kingston University Rocket Engineering -->

<?xml version="1.0" standalone="no"?>
 <!DOCTYPE svg PUBLIC "-//W3C//DTD SVG 1.1//EN"
 "http://www.w3.org/Graphics/SVG/1.1/DTD/svg11.dtd">
<svg
  xmlns:svg="http://www.w3.org/2000/svg"
  xmlns="http://www.w3.org/2000/svg"
  xmlns:xlink="http://www.w3.org/1999/xlink"
  xmlns:inkscape="http://www.inkscape.org/namespaces/inkscape"
  version="1.1"
  width="26.8986mm" height="22.8854mm" viewBox="0.0000 0.0000 26.8986 22.8854">
<title>SVG Image created as Valve - Needle Hydraulic_unit1.svg date 2026-05-31T11:36:29 </title>
  <desc>Image generated by Eeschema-SVG </desc>
<g style="fill:#000000; fill-opacity:1.0000;stroke:#000000; stroke-opacity:1.0000;
stroke-linecap:round; stroke-linejoin:round;"
 transform="translate(0 0) scale(1 1)">
</g>
<g style="fill:none;
stroke:#840000; stroke-width:0.1000; stroke-opacity:1;
stroke-linecap:round; stroke-linejoin:round;">
<rect x="11.449300" y="4.956900" width="4.000000" height="2.000000" rx="0.000000" />
<path style="fill:none;
stroke:#840000; stroke-width:0.1000; stroke-opacity:1;
stroke-linecap:round; stroke-linejoin:round;fill:none"
d="M 13.4493,6.9569
13.4493,9.9569
" />
<path style="fill:none;
stroke:#840000; stroke-width:0.1000; stroke-opacity:1;
stroke-linecap:round; stroke-linejoin:round;fill:none"
d="M 13.4493,8.9569
13.4493,10.9569
" />
<path style="fill:none;
stroke:#840000; stroke-width:0.1000; stroke-opacity:1;
stroke-linecap:round; stroke-linejoin:round;fill:none"
d="M 13.4493,9.9569
8.4493,7.9569
8.4493,11.9569
Z" />
<path style="fill:none;
stroke:#840000; stroke-width:0.1000; stroke-opacity:1;
stroke-linecap:round; stroke-linejoin:round;fill:none"
d="M 13.4493,9.9569
18.4493,7.9569
18.4493,11.9569
Z" />
<path style="fill:#840000; fill-opacity:1.0000;
stroke:#840000; stroke-width:0.1000; stroke-opacity:1;
stroke-linecap:round; stroke-linejoin:round;fill-rule:evenodd;"
d="M 13.4493,10.9569
13.1993,10.9569
13.4493,11.9569
13.6993,10.9569
Z" />
</g>
<g style="fill:none;
stroke:#840000; stroke-width:0.1524; stroke-opacity:1;
stroke-linecap:round; stroke-linejoin:round;">
<text x="13.4493" y="6.5919"
textLength="1.5337" font-size="1.6933" lengthAdjust="spacingAndGlyphs"
text-anchor="middle" opacity="0" stroke-opacity="0">H</text>
<g class="stroked-text"><desc>H</desc>
<path d="M13.0864 6.5364
L13.0864 5.2664
" />
<path d="M13.0864 5.8712
L13.8121 5.8712
" />
<path d="M13.8121 6.5364
L13.8121 5.2664
" />
</g><path d="M8.4493 9.9569
L5.4493 9.9569
" />
<path d="M18.4493 9.9569
L21.4493 9.9569
" />
</g>
<g style="fill:none;
stroke:#006464; stroke-width:0.1524; stroke-opacity:1;
stroke-linecap:round; stroke-linejoin:round;">
<text x="13.4493" y="20.5919"
textLength="23.4864" font-size="1.6933" lengthAdjust="spacingAndGlyphs"
text-anchor="middle" opacity="0" stroke-opacity="0">Needle_Hydraulic_Valve?</text>
<g class="stroked-text"><desc>Needle_Hydraulic_Valve?</desc>
<path d="M2.1100 20.5364
L2.1100 19.2664
" />
<path d="M2.1100 19.2664
L2.8357 20.5364
" />
<path d="M2.8357 20.5364
L2.8357 19.2664
" />
<path d="M3.9243 20.4760
L3.8034 20.5364
" />
<path d="M3.8034 20.5364
L3.5615 20.5364
" />
<path d="M3.5615 20.5364
L3.4405 20.4760
" />
<path d="M3.4405 20.4760
L3.3801 20.3550
" />
<path d="M3.3801 20.3550
L3.3801 19.8712
" />
<path d="M3.3801 19.8712
L3.4405 19.7502
" />
<path d="M3.4405 19.7502
L3.5615 19.6898
" />
<path d="M3.5615 19.6898
L3.8034 19.6898
" />
<path d="M3.8034 19.6898
L3.9243 19.7502
" />
<path d="M3.9243 19.7502
L3.9848 19.8712
" />
<path d="M3.9848 19.8712
L3.9848 19.9921
" />
<path d="M3.9848 19.9921
L3.3801 20.1131
" />
<path d="M5.0129 20.4760
L4.8920 20.5364
" />
<path d="M4.8920 20.5364
L4.6501 20.5364
" />
<path d="M4.6501 20.5364
L4.5291 20.4760
" />
<path d="M4.5291 20.4760
L4.4687 20.3550
" />
<path d="M4.4687 20.3550
L4.4687 19.8712
" />
<path d="M4.4687 19.8712
L4.5291 19.7502
" />
<path d="M4.5291 19.7502
L4.6501 19.6898
" />
<path d="M4.6501 19.6898
L4.8920 19.6898
" />
<path d="M4.8920 19.6898
L5.0129 19.7502
" />
<path d="M5.0129 19.7502
L5.0734 19.8712
" />
<path d="M5.0734 19.8712
L5.0734 19.9921
" />
<path d="M5.0734 19.9921
L4.4687 20.1131
" />
<path d="M6.1620 20.5364
L6.1620 19.2664
" />
<path d="M6.1620 20.4760
L6.0411 20.5364
" />
<path d="M6.0411 20.5364
L5.7992 20.5364
" />
<path d="M5.7992 20.5364
L5.6782 20.4760
" />
<path d="M5.6782 20.4760
L5.6177 20.4155
" />
<path d="M5.6177 20.4155
L5.5573 20.2945
" />
<path d="M5.5573 20.2945
L5.5573 19.9317
" />
<path d="M5.5573 19.9317
L5.6177 19.8107
" />
<path d="M5.6177 19.8107
L5.6782 19.7502
" />
<path d="M5.6782 19.7502
L5.7992 19.6898
" />
<path d="M5.7992 19.6898
L6.0411 19.6898
" />
<path d="M6.0411 19.6898
L6.1620 19.7502
" />
<path d="M6.9482 20.5364
L6.8272 20.4760
" />
<path d="M6.8272 20.4760
L6.7667 20.3550
" />
<path d="M6.7667 20.3550
L6.7667 19.2664
" />
<path d="M7.9157 20.4760
L7.7948 20.5364
" />
<path d="M7.7948 20.5364
L7.5529 20.5364
" />
<path d="M7.5529 20.5364
L7.4319 20.4760
" />
<path d="M7.4319 20.4760
L7.3715 20.3550
" />
<path d="M7.3715 20.3550
L7.3715 19.8712
" />
<path d="M7.3715 19.8712
L7.4319 19.7502
" />
<path d="M7.4319 19.7502
L7.5529 19.6898
" />
<path d="M7.5529 19.6898
L7.7948 19.6898
" />
<path d="M7.7948 19.6898
L7.9157 19.7502
" />
<path d="M7.9157 19.7502
L7.9762 19.8712
" />
<path d="M7.9762 19.8712
L7.9762 19.9921
" />
<path d="M7.9762 19.9921
L7.3715 20.1131
" />
<path d="M8.2182 20.6574
L9.1858 20.6574
" />
<path d="M9.4881 20.5364
L9.4881 19.2664
" />
<path d="M9.4881 19.8712
L10.2138 19.8712
" />
<path d="M10.2138 20.5364
L10.2138 19.2664
" />
<path d="M10.6977 19.6898
L11.0001 20.5364
" />
<path d="M11.3024 19.6898
L11.0001 20.5364
" />
<path d="M11.0001 20.5364
L10.8791 20.8388
" />
<path d="M10.8791 20.8388
L10.8186 20.8993
" />
<path d="M10.8186 20.8993
L10.6977 20.9598
" />
<path d="M12.3305 20.5364
L12.3305 19.2664
" />
<path d="M12.3305 20.4760
L12.2096 20.5364
" />
<path d="M12.2096 20.5364
L11.9677 20.5364
" />
<path d="M11.9677 20.5364
L11.8467 20.4760
" />
<path d="M11.8467 20.4760
L11.7862 20.4155
" />
<path d="M11.7862 20.4155
L11.7258 20.2945
" />
<path d="M11.7258 20.2945
L11.7258 19.9317
" />
<path d="M11.7258 19.9317
L11.7862 19.8107
" />
<path d="M11.7862 19.8107
L11.8467 19.7502
" />
<path d="M11.8467 19.7502
L11.9677 19.6898
" />
<path d="M11.9677 19.6898
L12.2096 19.6898
" />
<path d="M12.2096 19.6898
L12.3305 19.7502
" />
<path d="M12.9352 20.5364
L12.9352 19.6898
" />
<path d="M12.9352 19.9317
L12.9957 19.8107
" />
<path d="M12.9957 19.8107
L13.0562 19.7502
" />
<path d="M13.0562 19.7502
L13.1771 19.6898
" />
<path d="M13.1771 19.6898
L13.2981 19.6898
" />
<path d="M14.2657 20.5364
L14.2657 19.8712
" />
<path d="M14.2657 19.8712
L14.2052 19.7502
" />
<path d="M14.2052 19.7502
L14.0843 19.6898
" />
<path d="M14.0843 19.6898
L13.8424 19.6898
" />
<path d="M13.8424 19.6898
L13.7214 19.7502
" />
<path d="M14.2657 20.4760
L14.1448 20.5364
" />
<path d="M14.1448 20.5364
L13.8424 20.5364
" />
<path d="M13.8424 20.5364
L13.7214 20.4760
" />
<path d="M13.7214 20.4760
L13.6610 20.3550
" />
<path d="M13.6610 20.3550
L13.6610 20.2340
" />
<path d="M13.6610 20.2340
L13.7214 20.1131
" />
<path d="M13.7214 20.1131
L13.8424 20.0526
" />
<path d="M13.8424 20.0526
L14.1448 20.0526
" />
<path d="M14.1448 20.0526
L14.2657 19.9921
" />
<path d="M15.4147 19.6898
L15.4147 20.5364
" />
<path d="M14.8704 19.6898
L14.8704 20.3550
" />
<path d="M14.8704 20.3550
L14.9309 20.4760
" />
<path d="M14.9309 20.4760
L15.0519 20.5364
" />
<path d="M15.0519 20.5364
L15.2333 20.5364
" />
<path d="M15.2333 20.5364
L15.3542 20.4760
" />
<path d="M15.3542 20.4760
L15.4147 20.4155
" />
<path d="M16.2009 20.5364
L16.0799 20.4760
" />
<path d="M16.0799 20.4760
L16.0194 20.3550
" />
<path d="M16.0194 20.3550
L16.0194 19.2664
" />
<path d="M16.6846 20.5364
L16.6846 19.6898
" />
<path d="M16.6846 19.2664
L16.6242 19.3269
" />
<path d="M16.6242 19.3269
L16.6846 19.3874
" />
<path d="M16.6846 19.3874
L16.7451 19.3269
" />
<path d="M16.7451 19.3269
L16.6846 19.2664
" />
<path d="M16.6846 19.2664
L16.6846 19.3874
" />
<path d="M17.8337 20.4760
L17.7128 20.5364
" />
<path d="M17.7128 20.5364
L17.4709 20.5364
" />
<path d="M17.4709 20.5364
L17.3499 20.4760
" />
<path d="M17.3499 20.4760
L17.2894 20.4155
" />
<path d="M17.2894 20.4155
L17.2290 20.2945
" />
<path d="M17.2290 20.2945
L17.2290 19.9317
" />
<path d="M17.2290 19.9317
L17.2894 19.8107
" />
<path d="M17.2894 19.8107
L17.3499 19.7502
" />
<path d="M17.3499 19.7502
L17.4709 19.6898
" />
<path d="M17.4709 19.6898
L17.7128 19.6898
" />
<path d="M17.7128 19.6898
L17.8337 19.7502
" />
<path d="M18.0757 20.6574
L19.0433 20.6574
" />
<path d="M19.1642 19.2664
L19.5875 20.5364
" />
<path d="M19.5875 20.5364
L20.0109 19.2664
" />
<path d="M20.9785 20.5364
L20.9785 19.8712
" />
<path d="M20.9785 19.8712
L20.9180 19.7502
" />
<path d="M20.9180 19.7502
L20.7971 19.6898
" />
<path d="M20.7971 19.6898
L20.5552 19.6898
" />
<path d="M20.5552 19.6898
L20.4342 19.7502
" />
<path d="M20.9785 20.4760
L20.8576 20.5364
" />
<path d="M20.8576 20.5364
L20.5552 20.5364
" />
<path d="M20.5552 20.5364
L20.4342 20.4760
" />
<path d="M20.4342 20.4760
L20.3738 20.3550
" />
<path d="M20.3738 20.3550
L20.3738 20.2340
" />
<path d="M20.3738 20.2340
L20.4342 20.1131
" />
<path d="M20.4342 20.1131
L20.5552 20.0526
" />
<path d="M20.5552 20.0526
L20.8576 20.0526
" />
<path d="M20.8576 20.0526
L20.9785 19.9921
" />
<path d="M21.7647 20.5364
L21.6437 20.4760
" />
<path d="M21.6437 20.4760
L21.5832 20.3550
" />
<path d="M21.5832 20.3550
L21.5832 19.2664
" />
<path d="M22.1275 19.6898
L22.4299 20.5364
" />
<path d="M22.4299 20.5364
L22.7322 19.6898
" />
<path d="M23.6998 20.4760
L23.5789 20.5364
" />
<path d="M23.5789 20.5364
L23.3370 20.5364
" />
<path d="M23.3370 20.5364
L23.2160 20.4760
" />
<path d="M23.2160 20.4760
L23.1556 20.3550
" />
<path d="M23.1556 20.3550
L23.1556 19.8712
" />
<path d="M23.1556 19.8712
L23.2160 19.7502
" />
<path d="M23.2160 19.7502
L23.3370 19.6898
" />
<path d="M23.3370 19.6898
L23.5789 19.6898
" />
<path d="M23.5789 19.6898
L23.6998 19.7502
" />
<path d="M23.6998 19.7502
L23.7603 19.8712
" />
<path d="M23.7603 19.8712
L23.7603 19.9921
" />
<path d="M23.7603 19.9921
L23.1556 20.1131
" />
<path d="M24.4861 20.4155
L24.5465 20.4760
" />
<path d="M24.5465 20.4760
L24.4861 20.5364
" />
<path d="M24.4861 20.5364
L24.4256 20.4760
" />
<path d="M24.4256 20.4760
L24.4861 20.4155
" />
<path d="M24.4861 20.4155
L24.4861 20.5364
" />
<path d="M24.2442 19.3269
L24.3651 19.2664
" />
<path d="M24.3651 19.2664
L24.6675 19.2664
" />
<path d="M24.6675 19.2664
L24.7884 19.3269
" />
<path d="M24.7884 19.3269
L24.8489 19.4479
" />
<path d="M24.8489 19.4479
L24.8489 19.5688
" />
<path d="M24.8489 19.5688
L24.7884 19.6898
" />
<path d="M24.7884 19.6898
L24.7280 19.7502
" />
<path d="M24.7280 19.7502
L24.6070 19.8107
" />
<path d="M24.6070 19.8107
L24.5465 19.8712
" />
<path d="M24.5465 19.8712
L24.4861 19.9921
" />
<path d="M24.4861 19.9921
L24.4861 20.0526
" />
</g></g>
</svg>
