<!-- Copyright 2026 Kingston University Rocket Engineering -->

<?xml version="1.0" standalone="no"?>
 <!DOCTYPE svg PUBLIC "-//W3C//DTD SVG 1.1//EN"
 "http://www.w3.org/Graphics/SVG/1.1/DTD/svg11.dtd">
<svg
  xmlns:svg="http://www.w3.org/2000/svg"
  xmlns="http://www.w3.org/2000/svg"
  xmlns:xlink="http://www.w3.org/1999/xlink"
  xmlns:inkscape="http://www.inkscape.org/namespaces/inkscape"
  version="1.1"
  width="20.1168mm" height="22.8854mm" viewBox="0.0000 0.0000 20.1168 22.8854">
<title>SVG Image created as Valve - Needle_unit1.svg date 2026-05-31T11:36:20 </title>
  <desc>Image generated by Eeschema-SVG </desc>
<g style="fill:#000000; fill-opacity:1.0000;stroke:#000000; stroke-opacity:1.0000;
stroke-linecap:round; stroke-linejoin:round;"
 transform="translate(0 0) scale(1 1)">
<path style="fill:none;
stroke:#840000; stroke-width:0.1000; stroke-opacity:1;
stroke-linecap:round; stroke-linejoin:round;fill:none"
d="M 10.0584,8.9569
10.0584,10.9569
" />
<path style="fill:none;
stroke:#840000; stroke-width:0.1000; stroke-opacity:1;
stroke-linecap:round; stroke-linejoin:round;fill:none"
d="M 10.0584,9.9569
5.0584,7.9569
5.0584,11.9569
Z" />
<path style="fill:none;
stroke:#840000; stroke-width:0.1000; stroke-opacity:1;
stroke-linecap:round; stroke-linejoin:round;fill:none"
d="M 10.0584,9.9569
15.0584,7.9569
15.0584,11.9569
Z" />
<path style="fill:#840000; fill-opacity:1.0000;
stroke:#840000; stroke-width:0.1000; stroke-opacity:1;
stroke-linecap:round; stroke-linejoin:round;fill-rule:evenodd;"
d="M 10.0584,10.9569
9.8084,10.9569
10.0584,11.9569
10.3084,10.9569
Z" />
</g>
<g style="fill:none;
stroke:#840000; stroke-width:0.1524; stroke-opacity:1;
stroke-linecap:round; stroke-linejoin:round;">
<path d="M5.0584 9.9569
L2.0584 9.9569
" />
<path d="M15.0584 9.9569
L18.0584 9.9569
" />
</g>
<g style="fill:none;
stroke:#006464; stroke-width:0.1524; stroke-opacity:1;
stroke-linecap:round; stroke-linejoin:round;">
<text x="10.0584" y="20.5919"
textLength="13.6289" font-size="1.6933" lengthAdjust="spacingAndGlyphs"
text-anchor="middle" opacity="0" stroke-opacity="0">Needle_Valve?</text>
<g class="stroked-text"><desc>Needle_Valve?</desc>
<path d="M3.6479 20.5364
L3.6479 19.2664
" />
<path d="M3.6479 19.2664
L4.3736 20.5364
" />
<path d="M4.3736 20.5364
L4.3736 19.2664
" />
<path d="M5.4622 20.4760
L5.3413 20.5364
" />
<path d="M5.3413 20.5364
L5.0994 20.5364
" />
<path d="M5.0994 20.5364
L4.9784 20.4760
" />
<path d="M4.9784 20.4760
L4.9180 20.3550
" />
<path d="M4.9180 20.3550
L4.9180 19.8712
" />
<path d="M4.9180 19.8712
L4.9784 19.7502
" />
<path d="M4.9784 19.7502
L5.0994 19.6898
" />
<path d="M5.0994 19.6898
L5.3413 19.6898
" />
<path d="M5.3413 19.6898
L5.4622 19.7502
" />
<path d="M5.4622 19.7502
L5.5227 19.8712
" />
<path d="M5.5227 19.8712
L5.5227 19.9921
" />
<path d="M5.5227 19.9921
L4.9180 20.1131
" />
<path d="M6.5508 20.4760
L6.4299 20.5364
" />
<path d="M6.4299 20.5364
L6.1880 20.5364
" />
<path d="M6.1880 20.5364
L6.0670 20.4760
" />
<path d="M6.0670 20.4760
L6.0066 20.3550
" />
<path d="M6.0066 20.3550
L6.0066 19.8712
" />
<path d="M6.0066 19.8712
L6.0670 19.7502
" />
<path d="M6.0670 19.7502
L6.1880 19.6898
" />
<path d="M6.1880 19.6898
L6.4299 19.6898
" />
<path d="M6.4299 19.6898
L6.5508 19.7502
" />
<path d="M6.5508 19.7502
L6.6113 19.8712
" />
<path d="M6.6113 19.8712
L6.6113 19.9921
" />
<path d="M6.6113 19.9921
L6.0066 20.1131
" />
<path d="M7.6999 20.5364
L7.6999 19.2664
" />
<path d="M7.6999 20.4760
L7.5790 20.5364
" />
<path d="M7.5790 20.5364
L7.3371 20.5364
" />
<path d="M7.3371 20.5364
L7.2161 20.4760
" />
<path d="M7.2161 20.4760
L7.1556 20.4155
" />
<path d="M7.1556 20.4155
L7.0952 20.2945
" />
<path d="M7.0952 20.2945
L7.0952 19.9317
" />
<path d="M7.0952 19.9317
L7.1556 19.8107
" />
<path d="M7.1556 19.8107
L7.2161 19.7502
" />
<path d="M7.2161 19.7502
L7.3371 19.6898
" />
<path d="M7.3371 19.6898
L7.5790 19.6898
" />
<path d="M7.5790 19.6898
L7.6999 19.7502
" />
<path d="M8.4861 20.5364
L8.3651 20.4760
" />
<path d="M8.3651 20.4760
L8.3046 20.3550
" />
<path d="M8.3046 20.3550
L8.3046 19.2664
" />
<path d="M9.4536 20.4760
L9.3327 20.5364
" />
<path d="M9.3327 20.5364
L9.0908 20.5364
" />
<path d="M9.0908 20.5364
L8.9698 20.4760
" />
<path d="M8.9698 20.4760
L8.9094 20.3550
" />
<path d="M8.9094 20.3550
L8.9094 19.8712
" />
<path d="M8.9094 19.8712
L8.9698 19.7502
" />
<path d="M8.9698 19.7502
L9.0908 19.6898
" />
<path d="M9.0908 19.6898
L9.3327 19.6898
" />
<path d="M9.3327 19.6898
L9.4536 19.7502
" />
<path d="M9.4536 19.7502
L9.5141 19.8712
" />
<path d="M9.5141 19.8712
L9.5141 19.9921
" />
<path d="M9.5141 19.9921
L8.9094 20.1131
" />
<path d="M9.7561 20.6574
L10.7237 20.6574
" />
<path d="M10.8446 19.2664
L11.2679 20.5364
" />
<path d="M11.2679 20.5364
L11.6913 19.2664
" />
<path d="M12.6589 20.5364
L12.6589 19.8712
" />
<path d="M12.6589 19.8712
L12.5984 19.7502
" />
<path d="M12.5984 19.7502
L12.4775 19.6898
" />
<path d="M12.4775 19.6898
L12.2356 19.6898
" />
<path d="M12.2356 19.6898
L12.1146 19.7502
" />
<path d="M12.6589 20.4760
L12.5380 20.5364
" />
<path d="M12.5380 20.5364
L12.2356 20.5364
" />
<path d="M12.2356 20.5364
L12.1146 20.4760
" />
<path d="M12.1146 20.4760
L12.0542 20.3550
" />
<path d="M12.0542 20.3550
L12.0542 20.2340
" />
<path d="M12.0542 20.2340
L12.1146 20.1131
" />
<path d="M12.1146 20.1131
L12.2356 20.0526
" />
<path d="M12.2356 20.0526
L12.5380 20.0526
" />
<path d="M12.5380 20.0526
L12.6589 19.9921
" />
<path d="M13.4451 20.5364
L13.3241 20.4760
" />
<path d="M13.3241 20.4760
L13.2636 20.3550
" />
<path d="M13.2636 20.3550
L13.2636 19.2664
" />
<path d="M13.8079 19.6898
L14.1103 20.5364
" />
<path d="M14.1103 20.5364
L14.4126 19.6898
" />
<path d="M15.3802 20.4760
L15.2593 20.5364
" />
<path d="M15.2593 20.5364
L15.0174 20.5364
" />
<path d="M15.0174 20.5364
L14.8964 20.4760
" />
<path d="M14.8964 20.4760
L14.8360 20.3550
" />
<path d="M14.8360 20.3550
L14.8360 19.8712
" />
<path d="M14.8360 19.8712
L14.8964 19.7502
" />
<path d="M14.8964 19.7502
L15.0174 19.6898
" />
<path d="M15.0174 19.6898
L15.2593 19.6898
" />
<path d="M15.2593 19.6898
L15.3802 19.7502
" />
<path d="M15.3802 19.7502
L15.4407 19.8712
" />
<path d="M15.4407 19.8712
L15.4407 19.9921
" />
<path d="M15.4407 19.9921
L14.8360 20.1131
" />
<path d="M16.1665 20.4155
L16.2269 20.4760
" />
<path d="M16.2269 20.4760
L16.1665 20.5364
" />
<path d="M16.1665 20.5364
L16.1060 20.4760
" />
<path d="M16.1060 20.4760
L16.1665 20.4155
" />
<path d="M16.1665 20.4155
L16.1665 20.5364
" />
<path d="M15.9246 19.3269
L16.0455 19.2664
" />
<path d="M16.0455 19.2664
L16.3479 19.2664
" />
<path d="M16.3479 19.2664
L16.4688 19.3269
" />
<path d="M16.4688 19.3269
L16.5293 19.4479
" />
<path d="M16.5293 19.4479
L16.5293 19.5688
" />
<path d="M16.5293 19.5688
L16.4688 19.6898
" />
<path d="M16.4688 19.6898
L16.4084 19.7502
" />
<path d="M16.4084 19.7502
L16.2874 19.8107
" />
<path d="M16.2874 19.8107
L16.2269 19.8712
" />
<path d="M16.2269 19.8712
L16.1665 19.9921
" />
<path d="M16.1665 19.9921
L16.1665 20.0526
" />
</g></g>
</svg>
