<?xml version="1.0" standalone="no"?>
 <!DOCTYPE svg PUBLIC "-//W3C//DTD SVG 1.1//EN" 
 "http://www.w3.org/Graphics/SVG/1.1/DTD/svg11.dtd"> 
<svg
  xmlns:svg="http://www.w3.org/2000/svg"
  xmlns="http://www.w3.org/2000/svg"
  xmlns:xlink="http://www.w3.org/1999/xlink"
  xmlns:inkscape="http://www.inkscape.org/namespaces/inkscape"
  version="1.1"
  width="21.0820mm" height="22.8854mm" viewBox="0.0000 0.0000 21.0820 22.8854">
<title>SVG Image created as Valve - Ball Manual_unit1.svg date 2026-05-31T11:36:22 </title>
  <desc>Image generated by Eeschema-SVG </desc>
<g style="fill:#000000; fill-opacity:1.0000;stroke:#000000; stroke-opacity:1.0000;
stroke-linecap:round; stroke-linejoin:round;"
 transform="translate(0 0) scale(1 1)">
<path style="fill:none; 
stroke:#840000; stroke-width:0.1000; stroke-opacity:1; 
stroke-linecap:round; stroke-linejoin:round;fill:none"
d="M 10.5410,6.9569
10.5410,9.9569
" /> 
<path style="fill:none; 
stroke:#840000; stroke-width:0.1000; stroke-opacity:1; 
stroke-linecap:round; stroke-linejoin:round;fill:none"
d="M 10.5410,9.9569
5.5410,7.9569
5.5410,11.9569
Z" /> 
<path style="fill:none; 
stroke:#840000; stroke-width:0.1000; stroke-opacity:1; 
stroke-linecap:round; stroke-linejoin:round;fill:none"
d="M 10.5410,9.9569
15.5410,7.9569
15.5410,11.9569
Z" /> 
</g>
<g style="fill:none; 
stroke:#840000; stroke-width:0.1000; stroke-opacity:1; 
stroke-linecap:round; stroke-linejoin:round;">
<circle cx="10.5410" cy="9.9569" r="1.0000" /> 
<path style="fill:none; 
stroke:#840000; stroke-width:0.1000; stroke-opacity:1; 
stroke-linecap:round; stroke-linejoin:round;fill:none"
d="M 12.5410,6.9569
8.5410,6.9569
" /> 
</g>
<g style="fill:none; 
stroke:#840000; stroke-width:0.1524; stroke-opacity:1; 
stroke-linecap:round; stroke-linejoin:round;">
<path d="M5.5410 9.9569
L2.5410 9.9569
" />
<path d="M15.5410 9.9569
L18.5410 9.9569
" />
</g>
<g style="fill:none; 
stroke:#006464; stroke-width:0.1524; stroke-opacity:1; 
stroke-linecap:round; stroke-linejoin:round;">
<text x="10.5410" y="20.5919"
textLength="18.6480" font-size="1.6933" lengthAdjust="spacingAndGlyphs"
text-anchor="middle" opacity="0" stroke-opacity="0">Ball_Manual_Valve?</text>
<g class="stroked-text"><desc>Ball_Manual_Valve?</desc>
<path d="M2.0443 19.8712
L2.2257 19.9317
" />
<path d="M2.2257 19.9317
L2.2862 19.9921
" />
<path d="M2.2862 19.9921
L2.3466 20.1131
" />
<path d="M2.3466 20.1131
L2.3466 20.2945
" />
<path d="M2.3466 20.2945
L2.2862 20.4155
" />
<path d="M2.2862 20.4155
L2.2257 20.4760
" />
<path d="M2.2257 20.4760
L2.1047 20.5364
" />
<path d="M2.1047 20.5364
L1.6209 20.5364
" />
<path d="M1.6209 20.5364
L1.6209 19.2664
" />
<path d="M1.6209 19.2664
L2.0443 19.2664
" />
<path d="M2.0443 19.2664
L2.1652 19.3269
" />
<path d="M2.1652 19.3269
L2.2257 19.3874
" />
<path d="M2.2257 19.3874
L2.2862 19.5083
" />
<path d="M2.2862 19.5083
L2.2862 19.6293
" />
<path d="M2.2862 19.6293
L2.2257 19.7502
" />
<path d="M2.2257 19.7502
L2.1652 19.8107
" />
<path d="M2.1652 19.8107
L2.0443 19.8712
" />
<path d="M2.0443 19.8712
L1.6209 19.8712
" />
<path d="M3.4352 20.5364
L3.4352 19.8712
" />
<path d="M3.4352 19.8712
L3.3747 19.7502
" />
<path d="M3.3747 19.7502
L3.2538 19.6898
" />
<path d="M3.2538 19.6898
L3.0119 19.6898
" />
<path d="M3.0119 19.6898
L2.8909 19.7502
" />
<path d="M3.4352 20.4760
L3.3143 20.5364
" />
<path d="M3.3143 20.5364
L3.0119 20.5364
" />
<path d="M3.0119 20.5364
L2.8909 20.4760
" />
<path d="M2.8909 20.4760
L2.8305 20.3550
" />
<path d="M2.8305 20.3550
L2.8305 20.2340
" />
<path d="M2.8305 20.2340
L2.8909 20.1131
" />
<path d="M2.8909 20.1131
L3.0119 20.0526
" />
<path d="M3.0119 20.0526
L3.3143 20.0526
" />
<path d="M3.3143 20.0526
L3.4352 19.9921
" />
<path d="M4.2214 20.5364
L4.1004 20.4760
" />
<path d="M4.1004 20.4760
L4.0399 20.3550
" />
<path d="M4.0399 20.3550
L4.0399 19.2664
" />
<path d="M4.8866 20.5364
L4.7656 20.4760
" />
<path d="M4.7656 20.4760
L4.7051 20.3550
" />
<path d="M4.7051 20.3550
L4.7051 19.2664
" />
<path d="M5.0680 20.6574
L6.0356 20.6574
" />
<path d="M6.3379 20.5364
L6.3379 19.2664
" />
<path d="M6.3379 19.2664
L6.7613 20.1736
" />
<path d="M6.7613 20.1736
L7.1846 19.2664
" />
<path d="M7.1846 19.2664
L7.1846 20.5364
" />
<path d="M8.3336 20.5364
L8.3336 19.8712
" />
<path d="M8.3336 19.8712
L8.2731 19.7502
" />
<path d="M8.2731 19.7502
L8.1522 19.6898
" />
<path d="M8.1522 19.6898
L7.9103 19.6898
" />
<path d="M7.9103 19.6898
L7.7893 19.7502
" />
<path d="M8.3336 20.4760
L8.2127 20.5364
" />
<path d="M8.2127 20.5364
L7.9103 20.5364
" />
<path d="M7.9103 20.5364
L7.7893 20.4760
" />
<path d="M7.7893 20.4760
L7.7289 20.3550
" />
<path d="M7.7289 20.3550
L7.7289 20.2340
" />
<path d="M7.7289 20.2340
L7.7893 20.1131
" />
<path d="M7.7893 20.1131
L7.9103 20.0526
" />
<path d="M7.9103 20.0526
L8.2127 20.0526
" />
<path d="M8.2127 20.0526
L8.3336 19.9921
" />
<path d="M8.9383 19.6898
L8.9383 20.5364
" />
<path d="M8.9383 19.8107
L8.9988 19.7502
" />
<path d="M8.9988 19.7502
L9.1198 19.6898
" />
<path d="M9.1198 19.6898
L9.3012 19.6898
" />
<path d="M9.3012 19.6898
L9.4221 19.7502
" />
<path d="M9.4221 19.7502
L9.4826 19.8712
" />
<path d="M9.4826 19.8712
L9.4826 20.5364
" />
<path d="M10.6316 19.6898
L10.6316 20.5364
" />
<path d="M10.0873 19.6898
L10.0873 20.3550
" />
<path d="M10.0873 20.3550
L10.1478 20.4760
" />
<path d="M10.1478 20.4760
L10.2688 20.5364
" />
<path d="M10.2688 20.5364
L10.4502 20.5364
" />
<path d="M10.4502 20.5364
L10.5711 20.4760
" />
<path d="M10.5711 20.4760
L10.6316 20.4155
" />
<path d="M11.7806 20.5364
L11.7806 19.8712
" />
<path d="M11.7806 19.8712
L11.7201 19.7502
" />
<path d="M11.7201 19.7502
L11.5992 19.6898
" />
<path d="M11.5992 19.6898
L11.3573 19.6898
" />
<path d="M11.3573 19.6898
L11.2363 19.7502
" />
<path d="M11.7806 20.4760
L11.6597 20.5364
" />
<path d="M11.6597 20.5364
L11.3573 20.5364
" />
<path d="M11.3573 20.5364
L11.2363 20.4760
" />
<path d="M11.2363 20.4760
L11.1759 20.3550
" />
<path d="M11.1759 20.3550
L11.1759 20.2340
" />
<path d="M11.1759 20.2340
L11.2363 20.1131
" />
<path d="M11.2363 20.1131
L11.3573 20.0526
" />
<path d="M11.3573 20.0526
L11.6597 20.0526
" />
<path d="M11.6597 20.0526
L11.7806 19.9921
" />
<path d="M12.5668 20.5364
L12.4458 20.4760
" />
<path d="M12.4458 20.4760
L12.3853 20.3550
" />
<path d="M12.3853 20.3550
L12.3853 19.2664
" />
<path d="M12.7482 20.6574
L13.7158 20.6574
" />
<path d="M13.8367 19.2664
L14.2600 20.5364
" />
<path d="M14.2600 20.5364
L14.6834 19.2664
" />
<path d="M15.6510 20.5364
L15.6510 19.8712
" />
<path d="M15.6510 19.8712
L15.5905 19.7502
" />
<path d="M15.5905 19.7502
L15.4696 19.6898
" />
<path d="M15.4696 19.6898
L15.2277 19.6898
" />
<path d="M15.2277 19.6898
L15.1067 19.7502
" />
<path d="M15.6510 20.4760
L15.5301 20.5364
" />
<path d="M15.5301 20.5364
L15.2277 20.5364
" />
<path d="M15.2277 20.5364
L15.1067 20.4760
" />
<path d="M15.1067 20.4760
L15.0463 20.3550
" />
<path d="M15.0463 20.3550
L15.0463 20.2340
" />
<path d="M15.0463 20.2340
L15.1067 20.1131
" />
<path d="M15.1067 20.1131
L15.2277 20.0526
" />
<path d="M15.2277 20.0526
L15.5301 20.0526
" />
<path d="M15.5301 20.0526
L15.6510 19.9921
" />
<path d="M16.4372 20.5364
L16.3162 20.4760
" />
<path d="M16.3162 20.4760
L16.2557 20.3550
" />
<path d="M16.2557 20.3550
L16.2557 19.2664
" />
<path d="M16.8000 19.6898
L17.1024 20.5364
" />
<path d="M17.1024 20.5364
L17.4047 19.6898
" />
<path d="M18.3723 20.4760
L18.2514 20.5364
" />
<path d="M18.2514 20.5364
L18.0095 20.5364
" />
<path d="M18.0095 20.5364
L17.8885 20.4760
" />
<path d="M17.8885 20.4760
L17.8281 20.3550
" />
<path d="M17.8281 20.3550
L17.8281 19.8712
" />
<path d="M17.8281 19.8712
L17.8885 19.7502
" />
<path d="M17.8885 19.7502
L18.0095 19.6898
" />
<path d="M18.0095 19.6898
L18.2514 19.6898
" />
<path d="M18.2514 19.6898
L18.3723 19.7502
" />
<path d="M18.3723 19.7502
L18.4328 19.8712
" />
<path d="M18.4328 19.8712
L18.4328 19.9921
" />
<path d="M18.4328 19.9921
L17.8281 20.1131
" />
<path d="M19.1586 20.4155
L19.2190 20.4760
" />
<path d="M19.2190 20.4760
L19.1586 20.5364
" />
<path d="M19.1586 20.5364
L19.0981 20.4760
" />
<path d="M19.0981 20.4760
L19.1586 20.4155
" />
<path d="M19.1586 20.4155
L19.1586 20.5364
" />
<path d="M18.9167 19.3269
L19.0376 19.2664
" />
<path d="M19.0376 19.2664
L19.3400 19.2664
" />
<path d="M19.3400 19.2664
L19.4609 19.3269
" />
<path d="M19.4609 19.3269
L19.5214 19.4479
" />
<path d="M19.5214 19.4479
L19.5214 19.5688
" />
<path d="M19.5214 19.5688
L19.4609 19.6898
" />
<path d="M19.4609 19.6898
L19.4005 19.7502
" />
<path d="M19.4005 19.7502
L19.2795 19.8107
" />
<path d="M19.2795 19.8107
L19.2190 19.8712
" />
<path d="M19.2190 19.8712
L19.1586 19.9921
" />
<path d="M19.1586 19.9921
L19.1586 20.0526
" />
</g></g> 
</svg>
