<?xml version="1.0" standalone="no"?>
 <!DOCTYPE svg PUBLIC "-//W3C//DTD SVG 1.1//EN"
 "http://www.w3.org/Graphics/SVG/1.1/DTD/svg11.dtd">
<svg
  xmlns:svg="http://www.w3.org/2000/svg"
  xmlns="http://www.w3.org/2000/svg"
  xmlns:xlink="http://www.w3.org/1999/xlink"
  xmlns:inkscape="http://www.inkscape.org/namespaces/inkscape"
  version="1.1"
  width="20.1168mm" height="22.8854mm" viewBox="0.0000 0.0000 20.1168 22.8854">
<title>SVG Image created as Valve - Gate_unit1.svg date 2026-05-31T11:36:23 </title>
  <desc>Image generated by Eeschema-SVG </desc>
<g style="fill:#000000; fill-opacity:1.0000;stroke:#000000; stroke-opacity:1.0000;
stroke-linecap:round; stroke-linejoin:round;"
 transform="translate(0 0) scale(1 1)">
</g>
<g style="fill:#840000; fill-opacity:1.0000;
stroke:#840000; stroke-width:0.1000; stroke-opacity:1;
stroke-linecap:round; stroke-linejoin:round;">
<rect x="9.758400" y="7.956900" width="0.600000" height="4.000000" rx="0.000000" />
<path style="fill:none;
stroke:#840000; stroke-width:0.1000; stroke-opacity:1;
stroke-linecap:round; stroke-linejoin:round;fill:none"
d="M 10.0584,9.9569
5.0584,7.9569
5.0584,11.9569
Z" />
<path style="fill:none;
stroke:#840000; stroke-width:0.1000; stroke-opacity:1;
stroke-linecap:round; stroke-linejoin:round;fill:none"
d="M 10.0584,9.9569
15.0584,7.9569
15.0584,11.9569
Z" />
</g>
<g style="fill:none;
stroke:#840000; stroke-width:0.1524; stroke-opacity:1;
stroke-linecap:round; stroke-linejoin:round;">
<path d="M5.0584 9.9569
L2.0584 9.9569
" />
<path d="M15.0584 9.9569
L18.0584 9.9569
" />
</g>
<g style="fill:none;
stroke:#006464; stroke-width:0.1524; stroke-opacity:1;
stroke-linecap:round; stroke-linejoin:round;">
<text x="10.0584" y="20.5919"
textLength="11.4517" font-size="1.6933" lengthAdjust="spacingAndGlyphs"
text-anchor="middle" opacity="0" stroke-opacity="0">Gate_Valve?</text>
<g class="stroked-text"><desc>Gate_Valve?</desc>
<path d="M5.4018 19.3269
L5.2808 19.2664
" />
<path d="M5.2808 19.2664
L5.0994 19.2664
" />
<path d="M5.0994 19.2664
L4.9180 19.3269
" />
<path d="M4.9180 19.3269
L4.7970 19.4479
" />
<path d="M4.7970 19.4479
L4.7365 19.5688
" />
<path d="M4.7365 19.5688
L4.6761 19.8107
" />
<path d="M4.6761 19.8107
L4.6761 19.9921
" />
<path d="M4.6761 19.9921
L4.7365 20.2340
" />
<path d="M4.7365 20.2340
L4.7970 20.3550
" />
<path d="M4.7970 20.3550
L4.9180 20.4760
" />
<path d="M4.9180 20.4760
L5.0994 20.5364
" />
<path d="M5.0994 20.5364
L5.2203 20.5364
" />
<path d="M5.2203 20.5364
L5.4018 20.4760
" />
<path d="M5.4018 20.4760
L5.4622 20.4155
" />
<path d="M5.4622 20.4155
L5.4622 19.9921
" />
<path d="M5.4622 19.9921
L5.2203 19.9921
" />
<path d="M6.5508 20.5364
L6.5508 19.8712
" />
<path d="M6.5508 19.8712
L6.4903 19.7502
" />
<path d="M6.4903 19.7502
L6.3694 19.6898
" />
<path d="M6.3694 19.6898
L6.1275 19.6898
" />
<path d="M6.1275 19.6898
L6.0065 19.7502
" />
<path d="M6.5508 20.4760
L6.4299 20.5364
" />
<path d="M6.4299 20.5364
L6.1275 20.5364
" />
<path d="M6.1275 20.5364
L6.0065 20.4760
" />
<path d="M6.0065 20.4760
L5.9461 20.3550
" />
<path d="M5.9461 20.3550
L5.9461 20.2340
" />
<path d="M5.9461 20.2340
L6.0065 20.1131
" />
<path d="M6.0065 20.1131
L6.1275 20.0526
" />
<path d="M6.1275 20.0526
L6.4299 20.0526
" />
<path d="M6.4299 20.0526
L6.5508 19.9921
" />
<path d="M6.9741 19.6898
L7.4579 19.6898
" />
<path d="M7.1555 19.2664
L7.1555 20.3550
" />
<path d="M7.1555 20.3550
L7.2160 20.4760
" />
<path d="M7.2160 20.4760
L7.3370 20.5364
" />
<path d="M7.3370 20.5364
L7.4579 20.5364
" />
<path d="M8.3650 20.4760
L8.2441 20.5364
" />
<path d="M8.2441 20.5364
L8.0022 20.5364
" />
<path d="M8.0022 20.5364
L7.8812 20.4760
" />
<path d="M7.8812 20.4760
L7.8208 20.3550
" />
<path d="M7.8208 20.3550
L7.8208 19.8712
" />
<path d="M7.8208 19.8712
L7.8812 19.7502
" />
<path d="M7.8812 19.7502
L8.0022 19.6898
" />
<path d="M8.0022 19.6898
L8.2441 19.6898
" />
<path d="M8.2441 19.6898
L8.3650 19.7502
" />
<path d="M8.3650 19.7502
L8.4255 19.8712
" />
<path d="M8.4255 19.8712
L8.4255 19.9921
" />
<path d="M8.4255 19.9921
L7.8208 20.1131
" />
<path d="M8.6675 20.6574
L9.6351 20.6574
" />
<path d="M9.7560 19.2664
L10.1793 20.5364
" />
<path d="M10.1793 20.5364
L10.6027 19.2664
" />
<path d="M11.5703 20.5364
L11.5703 19.8712
" />
<path d="M11.5703 19.8712
L11.5098 19.7502
" />
<path d="M11.5098 19.7502
L11.3889 19.6898
" />
<path d="M11.3889 19.6898
L11.1470 19.6898
" />
<path d="M11.1470 19.6898
L11.0260 19.7502
" />
<path d="M11.5703 20.4760
L11.4494 20.5364
" />
<path d="M11.4494 20.5364
L11.1470 20.5364
" />
<path d="M11.1470 20.5364
L11.0260 20.4760
" />
<path d="M11.0260 20.4760
L10.9656 20.3550
" />
<path d="M10.9656 20.3550
L10.9656 20.2340
" />
<path d="M10.9656 20.2340
L11.0260 20.1131
" />
<path d="M11.0260 20.1131
L11.1470 20.0526
" />
<path d="M11.1470 20.0526
L11.4494 20.0526
" />
<path d="M11.4494 20.0526
L11.5703 19.9921
" />
<path d="M12.3565 20.5364
L12.2355 20.4760
" />
<path d="M12.2355 20.4760
L12.1750 20.3550
" />
<path d="M12.1750 20.3550
L12.1750 19.2664
" />
<path d="M12.7193 19.6898
L13.0217 20.5364
" />
<path d="M13.0217 20.5364
L13.3240 19.6898
" />
<path d="M14.2916 20.4760
L14.1707 20.5364
" />
<path d="M14.1707 20.5364
L13.9288 20.5364
" />
<path d="M13.9288 20.5364
L13.8078 20.4760
" />
<path d="M13.8078 20.4760
L13.7474 20.3550
" />
<path d="M13.7474 20.3550
L13.7474 19.8712
" />
<path d="M13.7474 19.8712
L13.8078 19.7502
" />
<path d="M13.8078 19.7502
L13.9288 19.6898
" />
<path d="M13.9288 19.6898
L14.1707 19.6898
" />
<path d="M14.1707 19.6898
L14.2916 19.7502
" />
<path d="M14.2916 19.7502
L14.3521 19.8712
" />
<path d="M14.3521 19.8712
L14.3521 19.9921
" />
<path d="M14.3521 19.9921
L13.7474 20.1131
" />
<path d="M15.0779 20.4155
L15.1383 20.4760
" />
<path d="M15.1383 20.4760
L15.0779 20.5364
" />
<path d="M15.0779 20.5364
L15.0174 20.4760
" />
<path d="M15.0174 20.4760
L15.0779 20.4155
" />
<path d="M15.0779 20.4155
L15.0779 20.5364
" />
<path d="M14.8360 19.3269
L14.9569 19.2664
" />
<path d="M14.9569 19.2664
L15.2593 19.2664
" />
<path d="M15.2593 19.2664
L15.3802 19.3269
" />
<path d="M15.3802 19.3269
L15.4407 19.4479
" />
<path d="M15.4407 19.4479
L15.4407 19.5688
" />
<path d="M15.4407 19.5688
L15.3802 19.6898
" />
<path d="M15.3802 19.6898
L15.3198 19.7502
" />
<path d="M15.3198 19.7502
L15.1988 19.8107
" />
<path d="M15.1988 19.8107
L15.1383 19.8712
" />
<path d="M15.1383 19.8712
L15.0779 19.9921
" />
<path d="M15.0779 19.9921
L15.0779 20.0526
" />
</g></g>
</svg>
