<?xml version="1.0" standalone="no"?>
 <!DOCTYPE svg PUBLIC "-//W3C//DTD SVG 1.1//EN"
 "http://www.w3.org/Graphics/SVG/1.1/DTD/svg11.dtd">
<svg
  xmlns:svg="http://www.w3.org/2000/svg"
  xmlns="http://www.w3.org/2000/svg"
  xmlns:xlink="http://www.w3.org/1999/xlink"
  xmlns:inkscape="http://www.inkscape.org/namespaces/inkscape"
  version="1.1"
  width="24.9428mm" height="23.2918mm" viewBox="0.0000 0.0000 24.9428 23.2918">
<title>SVG Image created as Valve - Pressure Relief_unit1.svg date 2026-05-31T11:36:26 </title>
  <desc>Image generated by Eeschema-SVG </desc>
<g style="fill:#000000; fill-opacity:1.0000;stroke:#000000; stroke-opacity:1.0000;
stroke-linecap:round; stroke-linejoin:round;"
 transform="translate(0 0) scale(1 1)">
<path style="fill:none;
stroke:#840000; stroke-width:0.1000; stroke-opacity:1;
stroke-linecap:round; stroke-linejoin:round;fill:none"
d="M 11.4714,11.3256
13.4714,11.8256
11.4714,11.8256
13.4714,12.3256
11.4714,12.3256
13.4714,12.8256
11.4714,12.8256
13.4714,13.3256
11.4714,13.3256
13.4714,13.8256
" />
<path style="fill:#840000; fill-opacity:1.0000;
stroke:#840000; stroke-width:0.1000; stroke-opacity:1;
stroke-linecap:round; stroke-linejoin:round;fill-rule:evenodd;"
d="M 12.4714,2.3256
12.2214,3.3256
12.7214,3.3256
Z" />
<path style="fill:none;
stroke:#840000; stroke-width:0.1000; stroke-opacity:1;
stroke-linecap:round; stroke-linejoin:round;fill:none"
d="M 12.4714,10.3256
12.4714,14.3256
" />
<path style="fill:none;
stroke:#840000; stroke-width:0.1000; stroke-opacity:1;
stroke-linecap:round; stroke-linejoin:round;fill:none"
d="M 12.4714,10.3256
7.4714,8.3256
7.4714,12.3256
Z" />
<path style="fill:none;
stroke:#840000; stroke-width:0.1000; stroke-opacity:1;
stroke-linecap:round; stroke-linejoin:round;fill:none"
d="M 12.4714,10.3256
10.4714,5.3256
14.4714,5.3256
Z" />
</g>
<g style="fill:none;
stroke:#840000; stroke-width:0.1524; stroke-opacity:1;
stroke-linecap:round; stroke-linejoin:round;">
<path d="M7.4714 10.3256
L4.4714 10.3256
" />
<path d="M12.4714 5.3256
L12.4714 2.3256
" />
</g>
<g style="fill:none;
stroke:#006464; stroke-width:0.1524; stroke-opacity:1;
stroke-linecap:round; stroke-linejoin:round;">
<text x="12.4714" y="20.9606"
textLength="21.8537" font-size="1.6933" lengthAdjust="spacingAndGlyphs"
text-anchor="middle" opacity="0" stroke-opacity="0">Pressure_Relief_Valve?</text>
<g class="stroked-text"><desc>Pressure_Relief_Valve?</desc>
<path d="M1.9485 20.9051
L1.9485 19.6351
" />
<path d="M1.9485 19.6351
L2.4323 19.6351
" />
<path d="M2.4323 19.6351
L2.5533 19.6956
" />
<path d="M2.5533 19.6956
L2.6138 19.7561
" />
<path d="M2.6138 19.7561
L2.6742 19.8770
" />
<path d="M2.6742 19.8770
L2.6742 20.0585
" />
<path d="M2.6742 20.0585
L2.6138 20.1794
" />
<path d="M2.6138 20.1794
L2.5533 20.2399
" />
<path d="M2.5533 20.2399
L2.4323 20.3004
" />
<path d="M2.4323 20.3004
L1.9485 20.3004
" />
<path d="M3.2185 20.9051
L3.2185 20.0585
" />
<path d="M3.2185 20.3004
L3.2790 20.1794
" />
<path d="M3.2790 20.1794
L3.3395 20.1189
" />
<path d="M3.3395 20.1189
L3.4604 20.0585
" />
<path d="M3.4604 20.0585
L3.5814 20.0585
" />
<path d="M4.4885 20.8447
L4.3676 20.9051
" />
<path d="M4.3676 20.9051
L4.1257 20.9051
" />
<path d="M4.1257 20.9051
L4.0047 20.8447
" />
<path d="M4.0047 20.8447
L3.9443 20.7237
" />
<path d="M3.9443 20.7237
L3.9443 20.2399
" />
<path d="M3.9443 20.2399
L4.0047 20.1189
" />
<path d="M4.0047 20.1189
L4.1257 20.0585
" />
<path d="M4.1257 20.0585
L4.3676 20.0585
" />
<path d="M4.3676 20.0585
L4.4885 20.1189
" />
<path d="M4.4885 20.1189
L4.5490 20.2399
" />
<path d="M4.5490 20.2399
L4.5490 20.3608
" />
<path d="M4.5490 20.3608
L3.9443 20.4818
" />
<path d="M5.0329 20.8447
L5.1538 20.9051
" />
<path d="M5.1538 20.9051
L5.3957 20.9051
" />
<path d="M5.3957 20.9051
L5.5167 20.8447
" />
<path d="M5.5167 20.8447
L5.5771 20.7237
" />
<path d="M5.5771 20.7237
L5.5771 20.6632
" />
<path d="M5.5771 20.6632
L5.5167 20.5423
" />
<path d="M5.5167 20.5423
L5.3957 20.4818
" />
<path d="M5.3957 20.4818
L5.2143 20.4818
" />
<path d="M5.2143 20.4818
L5.0933 20.4213
" />
<path d="M5.0933 20.4213
L5.0329 20.3004
" />
<path d="M5.0329 20.3004
L5.0329 20.2399
" />
<path d="M5.0329 20.2399
L5.0933 20.1189
" />
<path d="M5.0933 20.1189
L5.2143 20.0585
" />
<path d="M5.2143 20.0585
L5.3957 20.0585
" />
<path d="M5.3957 20.0585
L5.5167 20.1189
" />
<path d="M6.0610 20.8447
L6.1819 20.9051
" />
<path d="M6.1819 20.9051
L6.4238 20.9051
" />
<path d="M6.4238 20.9051
L6.5448 20.8447
" />
<path d="M6.5448 20.8447
L6.6052 20.7237
" />
<path d="M6.6052 20.7237
L6.6052 20.6632
" />
<path d="M6.6052 20.6632
L6.5448 20.5423
" />
<path d="M6.5448 20.5423
L6.4238 20.4818
" />
<path d="M6.4238 20.4818
L6.2424 20.4818
" />
<path d="M6.2424 20.4818
L6.1214 20.4213
" />
<path d="M6.1214 20.4213
L6.0610 20.3004
" />
<path d="M6.0610 20.3004
L6.0610 20.2399
" />
<path d="M6.0610 20.2399
L6.1214 20.1189
" />
<path d="M6.1214 20.1189
L6.2424 20.0585
" />
<path d="M6.2424 20.0585
L6.4238 20.0585
" />
<path d="M6.4238 20.0585
L6.5448 20.1189
" />
<path d="M7.6938 20.0585
L7.6938 20.9051
" />
<path d="M7.1495 20.0585
L7.1495 20.7237
" />
<path d="M7.1495 20.7237
L7.2100 20.8447
" />
<path d="M7.2100 20.8447
L7.3310 20.9051
" />
<path d="M7.3310 20.9051
L7.5124 20.9051
" />
<path d="M7.5124 20.9051
L7.6333 20.8447
" />
<path d="M7.6333 20.8447
L7.6938 20.7842
" />
<path d="M8.2985 20.9051
L8.2985 20.0585
" />
<path d="M8.2985 20.3004
L8.3590 20.1794
" />
<path d="M8.3590 20.1794
L8.4195 20.1189
" />
<path d="M8.4195 20.1189
L8.5404 20.0585
" />
<path d="M8.5404 20.0585
L8.6614 20.0585
" />
<path d="M9.5685 20.8447
L9.4476 20.9051
" />
<path d="M9.4476 20.9051
L9.2057 20.9051
" />
<path d="M9.2057 20.9051
L9.0847 20.8447
" />
<path d="M9.0847 20.8447
L9.0243 20.7237
" />
<path d="M9.0243 20.7237
L9.0243 20.2399
" />
<path d="M9.0243 20.2399
L9.0847 20.1189
" />
<path d="M9.0847 20.1189
L9.2057 20.0585
" />
<path d="M9.2057 20.0585
L9.4476 20.0585
" />
<path d="M9.4476 20.0585
L9.5685 20.1189
" />
<path d="M9.5685 20.1189
L9.6290 20.2399
" />
<path d="M9.6290 20.2399
L9.6290 20.3608
" />
<path d="M9.6290 20.3608
L9.0243 20.4818
" />
<path d="M9.8710 21.0261
L10.8386 21.0261
" />
<path d="M11.8666 20.9051
L11.4433 20.3004
" />
<path d="M11.1409 20.9051
L11.1409 19.6351
" />
<path d="M11.1409 19.6351
L11.6247 19.6351
" />
<path d="M11.6247 19.6351
L11.7457 19.6956
" />
<path d="M11.7457 19.6956
L11.8062 19.7561
" />
<path d="M11.8062 19.7561
L11.8666 19.8770
" />
<path d="M11.8666 19.8770
L11.8666 20.0585
" />
<path d="M11.8666 20.0585
L11.8062 20.1794
" />
<path d="M11.8062 20.1794
L11.7457 20.2399
" />
<path d="M11.7457 20.2399
L11.6247 20.3004
" />
<path d="M11.6247 20.3004
L11.1409 20.3004
" />
<path d="M12.8947 20.8447
L12.7738 20.9051
" />
<path d="M12.7738 20.9051
L12.5319 20.9051
" />
<path d="M12.5319 20.9051
L12.4109 20.8447
" />
<path d="M12.4109 20.8447
L12.3505 20.7237
" />
<path d="M12.3505 20.7237
L12.3505 20.2399
" />
<path d="M12.3505 20.2399
L12.4109 20.1189
" />
<path d="M12.4109 20.1189
L12.5319 20.0585
" />
<path d="M12.5319 20.0585
L12.7738 20.0585
" />
<path d="M12.7738 20.0585
L12.8947 20.1189
" />
<path d="M12.8947 20.1189
L12.9552 20.2399
" />
<path d="M12.9552 20.2399
L12.9552 20.3608
" />
<path d="M12.9552 20.3608
L12.3505 20.4818
" />
<path d="M13.6810 20.9051
L13.5600 20.8447
" />
<path d="M13.5600 20.8447
L13.4995 20.7237
" />
<path d="M13.4995 20.7237
L13.4995 19.6351
" />
<path d="M14.1647 20.9051
L14.1647 20.0585
" />
<path d="M14.1647 19.6351
L14.1043 19.6956
" />
<path d="M14.1043 19.6956
L14.1647 19.7561
" />
<path d="M14.1647 19.7561
L14.2252 19.6956
" />
<path d="M14.2252 19.6956
L14.1647 19.6351
" />
<path d="M14.1647 19.6351
L14.1647 19.7561
" />
<path d="M15.2533 20.8447
L15.1324 20.9051
" />
<path d="M15.1324 20.9051
L14.8905 20.9051
" />
<path d="M14.8905 20.9051
L14.7695 20.8447
" />
<path d="M14.7695 20.8447
L14.7091 20.7237
" />
<path d="M14.7091 20.7237
L14.7091 20.2399
" />
<path d="M14.7091 20.2399
L14.7695 20.1189
" />
<path d="M14.7695 20.1189
L14.8905 20.0585
" />
<path d="M14.8905 20.0585
L15.1324 20.0585
" />
<path d="M15.1324 20.0585
L15.2533 20.1189
" />
<path d="M15.2533 20.1189
L15.3138 20.2399
" />
<path d="M15.3138 20.2399
L15.3138 20.3608
" />
<path d="M15.3138 20.3608
L14.7091 20.4818
" />
<path d="M15.6767 20.0585
L16.1605 20.0585
" />
<path d="M15.8581 20.9051
L15.8581 19.8166
" />
<path d="M15.8581 19.8166
L15.9186 19.6956
" />
<path d="M15.9186 19.6956
L16.0396 19.6351
" />
<path d="M16.0396 19.6351
L16.1605 19.6351
" />
<path d="M16.2815 21.0261
L17.2491 21.0261
" />
<path d="M17.3700 19.6351
L17.7933 20.9051
" />
<path d="M17.7933 20.9051
L18.2167 19.6351
" />
<path d="M19.1843 20.9051
L19.1843 20.2399
" />
<path d="M19.1843 20.2399
L19.1238 20.1189
" />
<path d="M19.1238 20.1189
L19.0029 20.0585
" />
<path d="M19.0029 20.0585
L18.7610 20.0585
" />
<path d="M18.7610 20.0585
L18.6400 20.1189
" />
<path d="M19.1843 20.8447
L19.0634 20.9051
" />
<path d="M19.0634 20.9051
L18.7610 20.9051
" />
<path d="M18.7610 20.9051
L18.6400 20.8447
" />
<path d="M18.6400 20.8447
L18.5796 20.7237
" />
<path d="M18.5796 20.7237
L18.5796 20.6027
" />
<path d="M18.5796 20.6027
L18.6400 20.4818
" />
<path d="M18.6400 20.4818
L18.7610 20.4213
" />
<path d="M18.7610 20.4213
L19.0634 20.4213
" />
<path d="M19.0634 20.4213
L19.1843 20.3608
" />
<path d="M19.9705 20.9051
L19.8495 20.8447
" />
<path d="M19.8495 20.8447
L19.7890 20.7237
" />
<path d="M19.7890 20.7237
L19.7890 19.6351
" />
<path d="M20.3333 20.0585
L20.6357 20.9051
" />
<path d="M20.6357 20.9051
L20.9380 20.0585
" />
<path d="M21.9056 20.8447
L21.7847 20.9051
" />
<path d="M21.7847 20.9051
L21.5428 20.9051
" />
<path d="M21.5428 20.9051
L21.4218 20.8447
" />
<path d="M21.4218 20.8447
L21.3614 20.7237
" />
<path d="M21.3614 20.7237
L21.3614 20.2399
" />
<path d="M21.3614 20.2399
L21.4218 20.1189
" />
<path d="M21.4218 20.1189
L21.5428 20.0585
" />
<path d="M21.5428 20.0585
L21.7847 20.0585
" />
<path d="M21.7847 20.0585
L21.9056 20.1189
" />
<path d="M21.9056 20.1189
L21.9661 20.2399
" />
<path d="M21.9661 20.2399
L21.9661 20.3608
" />
<path d="M21.9661 20.3608
L21.3614 20.4818
" />
<path d="M22.6919 20.7842
L22.7523 20.8447
" />
<path d="M22.7523 20.8447
L22.6919 20.9051
" />
<path d="M22.6919 20.9051
L22.6314 20.8447
" />
<path d="M22.6314 20.8447
L22.6919 20.7842
" />
<path d="M22.6919 20.7842
L22.6919 20.9051
" />
<path d="M22.4500 19.6956
L22.5709 19.6351
" />
<path d="M22.5709 19.6351
L22.8733 19.6351
" />
<path d="M22.8733 19.6351
L22.9942 19.6956
" />
<path d="M22.9942 19.6956
L23.0547 19.8166
" />
<path d="M23.0547 19.8166
L23.0547 19.9375
" />
<path d="M23.0547 19.9375
L22.9942 20.0585
" />
<path d="M22.9942 20.0585
L22.9338 20.1189
" />
<path d="M22.9338 20.1189
L22.8128 20.1794
" />
<path d="M22.8128 20.1794
L22.7523 20.2399
" />
<path d="M22.7523 20.2399
L22.6919 20.3608
" />
<path d="M22.6919 20.3608
L22.6919 20.4213
" />
</g></g>
</svg>
