<!-- Copyright 2026 Kingston University Rocket Engineering -->

<?xml version="1.0" standalone="no"?>
 <!DOCTYPE svg PUBLIC "-//W3C//DTD SVG 1.1//EN"
 "http://www.w3.org/Graphics/SVG/1.1/DTD/svg11.dtd">
<svg
  xmlns:svg="http://www.w3.org/2000/svg"
  xmlns="http://www.w3.org/2000/svg"
  xmlns:xlink="http://www.w3.org/1999/xlink"
  xmlns:inkscape="http://www.inkscape.org/namespaces/inkscape"
  version="1.1"
  width="25.5270mm" height="22.8854mm" viewBox="0.0000 0.0000 25.5270 22.8854">
<title>SVG Image created as Valve - Gate Pneumatic_unit1.svg date 2026-05-31T11:36:21 </title>
  <desc>Image generated by Eeschema-SVG </desc>
<g style="fill:#000000; fill-opacity:1.0000;stroke:#000000; stroke-opacity:1.0000;
stroke-linecap:round; stroke-linejoin:round;"
 transform="translate(0 0) scale(1 1)">
</g>
<g style="fill:#840000; fill-opacity:1.0000;
stroke:#840000; stroke-width:0.1000; stroke-opacity:1;
stroke-linecap:round; stroke-linejoin:round;">
<rect x="12.463500" y="7.956900" width="0.600000" height="4.000000" rx="0.000000" />
</g>
<g style="fill:none;
stroke:#840000; stroke-width:0.1000; stroke-opacity:1;
stroke-linecap:round; stroke-linejoin:round;">
<path d="M12.7635 4.9567 A2.0005 2.0005 0.0 0 0 10.7635 6.9569" />
<path d="M14.7633 6.9569 A2.0003 2.0003 0.0 0 0 12.7635 4.9569" />
<path style="fill:none;
stroke:#840000; stroke-width:0.1000; stroke-opacity:1;
stroke-linecap:round; stroke-linejoin:round;fill:none"
d="M 12.7635,6.9569
12.7635,9.9569
" />
<path style="fill:none;
stroke:#840000; stroke-width:0.1000; stroke-opacity:1;
stroke-linecap:round; stroke-linejoin:round;fill:none"
d="M 12.7635,9.9569
7.7635,7.9569
7.7635,11.9569
Z" />
<path style="fill:none;
stroke:#840000; stroke-width:0.1000; stroke-opacity:1;
stroke-linecap:round; stroke-linejoin:round;fill:none"
d="M 12.7635,9.9569
17.7635,7.9569
17.7635,11.9569
Z" />
<path style="fill:none;
stroke:#840000; stroke-width:0.1000; stroke-opacity:1;
stroke-linecap:round; stroke-linejoin:round;fill:none"
d="M 14.7635,6.9569
10.7635,6.9569
" />
</g>
<g style="fill:none;
stroke:#840000; stroke-width:0.1524; stroke-opacity:1;
stroke-linecap:round; stroke-linejoin:round;">
<path d="M7.7635 9.9569
L4.7635 9.9569
" />
<path d="M17.7635 9.9569
L20.7635 9.9569
" />
</g>
<g style="fill:none;
stroke:#006464; stroke-width:0.1524; stroke-opacity:1;
stroke-linecap:round; stroke-linejoin:round;">
<text x="12.7635" y="20.5919"
textLength="22.3373" font-size="1.6933" lengthAdjust="spacingAndGlyphs"
text-anchor="middle" opacity="0" stroke-opacity="0">Gate_Pneumatic_Valve?</text>
<g class="stroked-text"><desc>Gate_Pneumatic_Valve?</desc>
<path d="M2.6641 19.3269
L2.5431 19.2664
" />
<path d="M2.5431 19.2664
L2.3617 19.2664
" />
<path d="M2.3617 19.2664
L2.1803 19.3269
" />
<path d="M2.1803 19.3269
L2.0593 19.4479
" />
<path d="M2.0593 19.4479
L1.9988 19.5688
" />
<path d="M1.9988 19.5688
L1.9384 19.8107
" />
<path d="M1.9384 19.8107
L1.9384 19.9921
" />
<path d="M1.9384 19.9921
L1.9988 20.2340
" />
<path d="M1.9988 20.2340
L2.0593 20.3550
" />
<path d="M2.0593 20.3550
L2.1803 20.4760
" />
<path d="M2.1803 20.4760
L2.3617 20.5364
" />
<path d="M2.3617 20.5364
L2.4826 20.5364
" />
<path d="M2.4826 20.5364
L2.6641 20.4760
" />
<path d="M2.6641 20.4760
L2.7245 20.4155
" />
<path d="M2.7245 20.4155
L2.7245 19.9921
" />
<path d="M2.7245 19.9921
L2.4826 19.9921
" />
<path d="M3.8131 20.5364
L3.8131 19.8712
" />
<path d="M3.8131 19.8712
L3.7526 19.7502
" />
<path d="M3.7526 19.7502
L3.6317 19.6898
" />
<path d="M3.6317 19.6898
L3.3898 19.6898
" />
<path d="M3.3898 19.6898
L3.2688 19.7502
" />
<path d="M3.8131 20.4760
L3.6922 20.5364
" />
<path d="M3.6922 20.5364
L3.3898 20.5364
" />
<path d="M3.3898 20.5364
L3.2688 20.4760
" />
<path d="M3.2688 20.4760
L3.2084 20.3550
" />
<path d="M3.2084 20.3550
L3.2084 20.2340
" />
<path d="M3.2084 20.2340
L3.2688 20.1131
" />
<path d="M3.2688 20.1131
L3.3898 20.0526
" />
<path d="M3.3898 20.0526
L3.6922 20.0526
" />
<path d="M3.6922 20.0526
L3.8131 19.9921
" />
<path d="M4.2364 19.6898
L4.7202 19.6898
" />
<path d="M4.4178 19.2664
L4.4178 20.3550
" />
<path d="M4.4178 20.3550
L4.4783 20.4760
" />
<path d="M4.4783 20.4760
L4.5993 20.5364
" />
<path d="M4.5993 20.5364
L4.7202 20.5364
" />
<path d="M5.6273 20.4760
L5.5064 20.5364
" />
<path d="M5.5064 20.5364
L5.2645 20.5364
" />
<path d="M5.2645 20.5364
L5.1435 20.4760
" />
<path d="M5.1435 20.4760
L5.0831 20.3550
" />
<path d="M5.0831 20.3550
L5.0831 19.8712
" />
<path d="M5.0831 19.8712
L5.1435 19.7502
" />
<path d="M5.1435 19.7502
L5.2645 19.6898
" />
<path d="M5.2645 19.6898
L5.5064 19.6898
" />
<path d="M5.5064 19.6898
L5.6273 19.7502
" />
<path d="M5.6273 19.7502
L5.6878 19.8712
" />
<path d="M5.6878 19.8712
L5.6878 19.9921
" />
<path d="M5.6878 19.9921
L5.0831 20.1131
" />
<path d="M5.9298 20.6574
L6.8974 20.6574
" />
<path d="M7.1997 20.5364
L7.1997 19.2664
" />
<path d="M7.1997 19.2664
L7.6835 19.2664
" />
<path d="M7.6835 19.2664
L7.8045 19.3269
" />
<path d="M7.8045 19.3269
L7.8650 19.3874
" />
<path d="M7.8650 19.3874
L7.9254 19.5083
" />
<path d="M7.9254 19.5083
L7.9254 19.6898
" />
<path d="M7.9254 19.6898
L7.8650 19.8107
" />
<path d="M7.8650 19.8107
L7.8045 19.8712
" />
<path d="M7.8045 19.8712
L7.6835 19.9317
" />
<path d="M7.6835 19.9317
L7.1997 19.9317
" />
<path d="M8.4697 19.6898
L8.4697 20.5364
" />
<path d="M8.4697 19.8107
L8.5302 19.7502
" />
<path d="M8.5302 19.7502
L8.6512 19.6898
" />
<path d="M8.6512 19.6898
L8.8326 19.6898
" />
<path d="M8.8326 19.6898
L8.9535 19.7502
" />
<path d="M8.9535 19.7502
L9.0140 19.8712
" />
<path d="M9.0140 19.8712
L9.0140 20.5364
" />
<path d="M10.1025 20.4760
L9.9816 20.5364
" />
<path d="M9.9816 20.5364
L9.7397 20.5364
" />
<path d="M9.7397 20.5364
L9.6187 20.4760
" />
<path d="M9.6187 20.4760
L9.5583 20.3550
" />
<path d="M9.5583 20.3550
L9.5583 19.8712
" />
<path d="M9.5583 19.8712
L9.6187 19.7502
" />
<path d="M9.6187 19.7502
L9.7397 19.6898
" />
<path d="M9.7397 19.6898
L9.9816 19.6898
" />
<path d="M9.9816 19.6898
L10.1025 19.7502
" />
<path d="M10.1025 19.7502
L10.1630 19.8712
" />
<path d="M10.1630 19.8712
L10.1630 19.9921
" />
<path d="M10.1630 19.9921
L9.5583 20.1131
" />
<path d="M11.2516 19.6898
L11.2516 20.5364
" />
<path d="M10.7073 19.6898
L10.7073 20.3550
" />
<path d="M10.7073 20.3550
L10.7678 20.4760
" />
<path d="M10.7678 20.4760
L10.8888 20.5364
" />
<path d="M10.8888 20.5364
L11.0702 20.5364
" />
<path d="M11.0702 20.5364
L11.1911 20.4760
" />
<path d="M11.1911 20.4760
L11.2516 20.4155
" />
<path d="M11.8563 20.5364
L11.8563 19.6898
" />
<path d="M11.8563 19.8107
L11.9168 19.7502
" />
<path d="M11.9168 19.7502
L12.0378 19.6898
" />
<path d="M12.0378 19.6898
L12.2192 19.6898
" />
<path d="M12.2192 19.6898
L12.3401 19.7502
" />
<path d="M12.3401 19.7502
L12.4006 19.8712
" />
<path d="M12.4006 19.8712
L12.4006 20.5364
" />
<path d="M12.4006 19.8712
L12.4611 19.7502
" />
<path d="M12.4611 19.7502
L12.5820 19.6898
" />
<path d="M12.5820 19.6898
L12.7635 19.6898
" />
<path d="M12.7635 19.6898
L12.8844 19.7502
" />
<path d="M12.8844 19.7502
L12.9449 19.8712
" />
<path d="M12.9449 19.8712
L12.9449 20.5364
" />
<path d="M14.0939 20.5364
L14.0939 19.8712
" />
<path d="M14.0939 19.8712
L14.0334 19.7502
" />
<path d="M14.0334 19.7502
L13.9125 19.6898
" />
<path d="M13.9125 19.6898
L13.6706 19.6898
" />
<path d="M13.6706 19.6898
L13.5496 19.7502
" />
<path d="M14.0939 20.4760
L13.9730 20.5364
" />
<path d="M13.9730 20.5364
L13.6706 20.5364
" />
<path d="M13.6706 20.5364
L13.5496 20.4760
" />
<path d="M13.5496 20.4760
L13.4892 20.3550
" />
<path d="M13.4892 20.3550
L13.4892 20.2340
" />
<path d="M13.4892 20.2340
L13.5496 20.1131
" />
<path d="M13.5496 20.1131
L13.6706 20.0526
" />
<path d="M13.6706 20.0526
L13.9730 20.0526
" />
<path d="M13.9730 20.0526
L14.0939 19.9921
" />
<path d="M14.5172 19.6898
L15.0010 19.6898
" />
<path d="M14.6986 19.2664
L14.6986 20.3550
" />
<path d="M14.6986 20.3550
L14.7591 20.4760
" />
<path d="M14.7591 20.4760
L14.8801 20.5364
" />
<path d="M14.8801 20.5364
L15.0010 20.5364
" />
<path d="M15.4243 20.5364
L15.4243 19.6898
" />
<path d="M15.4243 19.2664
L15.3639 19.3269
" />
<path d="M15.3639 19.3269
L15.4243 19.3874
" />
<path d="M15.4243 19.3874
L15.4848 19.3269
" />
<path d="M15.4848 19.3269
L15.4243 19.2664
" />
<path d="M15.4243 19.2664
L15.4243 19.3874
" />
<path d="M16.5734 20.4760
L16.4525 20.5364
" />
<path d="M16.4525 20.5364
L16.2106 20.5364
" />
<path d="M16.2106 20.5364
L16.0896 20.4760
" />
<path d="M16.0896 20.4760
L16.0291 20.4155
" />
<path d="M16.0291 20.4155
L15.9687 20.2945
" />
<path d="M15.9687 20.2945
L15.9687 19.9317
" />
<path d="M15.9687 19.9317
L16.0291 19.8107
" />
<path d="M16.0291 19.8107
L16.0896 19.7502
" />
<path d="M16.0896 19.7502
L16.2106 19.6898
" />
<path d="M16.2106 19.6898
L16.4525 19.6898
" />
<path d="M16.4525 19.6898
L16.5734 19.7502
" />
<path d="M16.8154 20.6574
L17.7830 20.6574
" />
<path d="M17.9039 19.2664
L18.3272 20.5364
" />
<path d="M18.3272 20.5364
L18.7506 19.2664
" />
<path d="M19.7182 20.5364
L19.7182 19.8712
" />
<path d="M19.7182 19.8712
L19.6577 19.7502
" />
<path d="M19.6577 19.7502
L19.5368 19.6898
" />
<path d="M19.5368 19.6898
L19.2949 19.6898
" />
<path d="M19.2949 19.6898
L19.1739 19.7502
" />
<path d="M19.7182 20.4760
L19.5973 20.5364
" />
<path d="M19.5973 20.5364
L19.2949 20.5364
" />
<path d="M19.2949 20.5364
L19.1739 20.4760
" />
<path d="M19.1739 20.4760
L19.1135 20.3550
" />
<path d="M19.1135 20.3550
L19.1135 20.2340
" />
<path d="M19.1135 20.2340
L19.1739 20.1131
" />
<path d="M19.1739 20.1131
L19.2949 20.0526
" />
<path d="M19.2949 20.0526
L19.5973 20.0526
" />
<path d="M19.5973 20.0526
L19.7182 19.9921
" />
<path d="M20.5044 20.5364
L20.3834 20.4760
" />
<path d="M20.3834 20.4760
L20.3229 20.3550
" />
<path d="M20.3229 20.3550
L20.3229 19.2664
" />
<path d="M20.8672 19.6898
L21.1696 20.5364
" />
<path d="M21.1696 20.5364
L21.4719 19.6898
" />
<path d="M22.4395 20.4760
L22.3186 20.5364
" />
<path d="M22.3186 20.5364
L22.0767 20.5364
" />
<path d="M22.0767 20.5364
L21.9557 20.4760
" />
<path d="M21.9557 20.4760
L21.8953 20.3550
" />
<path d="M21.8953 20.3550
L21.8953 19.8712
" />
<path d="M21.8953 19.8712
L21.9557 19.7502
" />
<path d="M21.9557 19.7502
L22.0767 19.6898
" />
<path d="M22.0767 19.6898
L22.3186 19.6898
" />
<path d="M22.3186 19.6898
L22.4395 19.7502
" />
<path d="M22.4395 19.7502
L22.5000 19.8712
" />
<path d="M22.5000 19.8712
L22.5000 19.9921
" />
<path d="M22.5000 19.9921
L21.8953 20.1131
" />
<path d="M23.2258 20.4155
L23.2862 20.4760
" />
<path d="M23.2862 20.4760
L23.2258 20.5364
" />
<path d="M23.2258 20.5364
L23.1653 20.4760
" />
<path d="M23.1653 20.4760
L23.2258 20.4155
" />
<path d="M23.2258 20.4155
L23.2258 20.5364
" />
<path d="M22.9839 19.3269
L23.1048 19.2664
" />
<path d="M23.1048 19.2664
L23.4072 19.2664
" />
<path d="M23.4072 19.2664
L23.5281 19.3269
" />
<path d="M23.5281 19.3269
L23.5886 19.4479
" />
<path d="M23.5886 19.4479
L23.5886 19.5688
" />
<path d="M23.5886 19.5688
L23.5281 19.6898
" />
<path d="M23.5281 19.6898
L23.4677 19.7502
" />
<path d="M23.4677 19.7502
L23.3467 19.8107
" />
<path d="M23.3467 19.8107
L23.2862 19.8712
" />
<path d="M23.2862 19.8712
L23.2258 19.9921
" />
<path d="M23.2258 19.9921
L23.2258 20.0526
" />
</g></g>
</svg>
