<!-- Copyright 2026 Kingston University Rocket Engineering -->

<?xml version="1.0" standalone="no"?>
 <!DOCTYPE svg PUBLIC "-//W3C//DTD SVG 1.1//EN"
 "http://www.w3.org/Graphics/SVG/1.1/DTD/svg11.dtd">
<svg
  xmlns:svg="http://www.w3.org/2000/svg"
  xmlns="http://www.w3.org/2000/svg"
  xmlns:xlink="http://www.w3.org/1999/xlink"
  xmlns:inkscape="http://www.inkscape.org/namespaces/inkscape"
  version="1.1"
  width="26.8986mm" height="22.8854mm" viewBox="0.0000 0.0000 26.8986 22.8854">
<title>SVG Image created as Valve - Diaphragm Servo_unit1.svg date 2026-05-31T11:36:23 </title>
  <desc>Image generated by Eeschema-SVG </desc>
<g style="fill:#000000; fill-opacity:1.0000;stroke:#000000; stroke-opacity:1.0000;
stroke-linecap:round; stroke-linejoin:round;"
 transform="translate(0 0) scale(1 1)">
</g>
<g style="fill:none;
stroke:#840000; stroke-width:0.1000; stroke-opacity:1;
stroke-linecap:round; stroke-linejoin:round;">
<rect x="11.449300" y="4.956900" width="4.000000" height="2.000000" rx="0.000000" />
<path style="fill:none;
stroke:#840000; stroke-width:0.1000; stroke-opacity:1;
stroke-linecap:round; stroke-linejoin:round;fill:none"
d="M 13.4493,6.9569
13.4493,9.9569
" />
<path style="fill:none;
stroke:#840000; stroke-width:0.1000; stroke-opacity:1;
stroke-linecap:round; stroke-linejoin:round;fill:none"
d="M 13.4493,9.9569
8.4493,7.9569
8.4493,11.9569
Z" />
<path style="fill:none;
stroke:#840000; stroke-width:0.1000; stroke-opacity:1;
stroke-linecap:round; stroke-linejoin:round;fill:none"
d="M 13.4493,9.9569
18.4493,7.9569
18.4493,11.9569
Z" />
<path d="M16.4493 9.9569 A3.2500 3.2500 0.0 0 0 10.4493 9.9569" />
</g>
<g style="fill:none;
stroke:#840000; stroke-width:0.1524; stroke-opacity:1;
stroke-linecap:round; stroke-linejoin:round;">
<text x="13.4493" y="6.5919"
textLength="1.4127" font-size="1.6933" lengthAdjust="spacingAndGlyphs"
text-anchor="middle" opacity="0" stroke-opacity="0">S</text>
<g class="stroked-text"><desc>S</desc>
<path d="M13.0865 6.4760
L13.2679 6.5364
" />
<path d="M13.2679 6.5364
L13.5703 6.5364
" />
<path d="M13.5703 6.5364
L13.6912 6.4760
" />
<path d="M13.6912 6.4760
L13.7517 6.4155
" />
<path d="M13.7517 6.4155
L13.8122 6.2945
" />
<path d="M13.8122 6.2945
L13.8122 6.1736
" />
<path d="M13.8122 6.1736
L13.7517 6.0526
" />
<path d="M13.7517 6.0526
L13.6912 5.9921
" />
<path d="M13.6912 5.9921
L13.5703 5.9317
" />
<path d="M13.5703 5.9317
L13.3284 5.8712
" />
<path d="M13.3284 5.8712
L13.2074 5.8107
" />
<path d="M13.2074 5.8107
L13.1469 5.7502
" />
<path d="M13.1469 5.7502
L13.0865 5.6293
" />
<path d="M13.0865 5.6293
L13.0865 5.5083
" />
<path d="M13.0865 5.5083
L13.1469 5.3874
" />
<path d="M13.1469 5.3874
L13.2074 5.3269
" />
<path d="M13.2074 5.3269
L13.3284 5.2664
" />
<path d="M13.3284 5.2664
L13.6307 5.2664
" />
<path d="M13.6307 5.2664
L13.8122 5.3269
" />
</g><path d="M8.4493 9.9569
L5.4493 9.9569
" />
<path d="M18.4493 9.9569
L21.4493 9.9569
" />
</g>
<g style="fill:none;
stroke:#006464; stroke-width:0.1524; stroke-opacity:1;
stroke-linecap:round; stroke-linejoin:round;">
<text x="13.4493" y="20.5919"
textLength="23.4862" font-size="1.6933" lengthAdjust="spacingAndGlyphs"
text-anchor="middle" opacity="0" stroke-opacity="0">Diaphragm_Servo_Valve?</text>
<g class="stroked-text"><desc>Diaphragm_Servo_Valve?</desc>
<path d="M2.1101 20.5364
L2.1101 19.2664
" />
<path d="M2.1101 19.2664
L2.4125 19.2664
" />
<path d="M2.4125 19.2664
L2.5939 19.3269
" />
<path d="M2.5939 19.3269
L2.7149 19.4479
" />
<path d="M2.7149 19.4479
L2.7754 19.5688
" />
<path d="M2.7754 19.5688
L2.8358 19.8107
" />
<path d="M2.8358 19.8107
L2.8358 19.9921
" />
<path d="M2.8358 19.9921
L2.7754 20.2340
" />
<path d="M2.7754 20.2340
L2.7149 20.3550
" />
<path d="M2.7149 20.3550
L2.5939 20.4760
" />
<path d="M2.5939 20.4760
L2.4125 20.5364
" />
<path d="M2.4125 20.5364
L2.1101 20.5364
" />
<path d="M3.3801 20.5364
L3.3801 19.6898
" />
<path d="M3.3801 19.2664
L3.3197 19.3269
" />
<path d="M3.3197 19.3269
L3.3801 19.3874
" />
<path d="M3.3801 19.3874
L3.4406 19.3269
" />
<path d="M3.4406 19.3269
L3.3801 19.2664
" />
<path d="M3.3801 19.2664
L3.3801 19.3874
" />
<path d="M4.5292 20.5364
L4.5292 19.8712
" />
<path d="M4.5292 19.8712
L4.4687 19.7502
" />
<path d="M4.4687 19.7502
L4.3478 19.6898
" />
<path d="M4.3478 19.6898
L4.1059 19.6898
" />
<path d="M4.1059 19.6898
L3.9849 19.7502
" />
<path d="M4.5292 20.4760
L4.4083 20.5364
" />
<path d="M4.4083 20.5364
L4.1059 20.5364
" />
<path d="M4.1059 20.5364
L3.9849 20.4760
" />
<path d="M3.9849 20.4760
L3.9245 20.3550
" />
<path d="M3.9245 20.3550
L3.9245 20.2340
" />
<path d="M3.9245 20.2340
L3.9849 20.1131
" />
<path d="M3.9849 20.1131
L4.1059 20.0526
" />
<path d="M4.1059 20.0526
L4.4083 20.0526
" />
<path d="M4.4083 20.0526
L4.5292 19.9921
" />
<path d="M5.1339 19.6898
L5.1339 20.9598
" />
<path d="M5.1339 19.7502
L5.2549 19.6898
" />
<path d="M5.2549 19.6898
L5.4968 19.6898
" />
<path d="M5.4968 19.6898
L5.6177 19.7502
" />
<path d="M5.6177 19.7502
L5.6782 19.8107
" />
<path d="M5.6782 19.8107
L5.7387 19.9317
" />
<path d="M5.7387 19.9317
L5.7387 20.2945
" />
<path d="M5.7387 20.2945
L5.6782 20.4155
" />
<path d="M5.6782 20.4155
L5.6177 20.4760
" />
<path d="M5.6177 20.4760
L5.4968 20.5364
" />
<path d="M5.4968 20.5364
L5.2549 20.5364
" />
<path d="M5.2549 20.5364
L5.1339 20.4760
" />
<path d="M6.2829 20.5364
L6.2829 19.2664
" />
<path d="M6.8272 20.5364
L6.8272 19.8712
" />
<path d="M6.8272 19.8712
L6.7667 19.7502
" />
<path d="M6.7667 19.7502
L6.6458 19.6898
" />
<path d="M6.6458 19.6898
L6.4644 19.6898
" />
<path d="M6.4644 19.6898
L6.3434 19.7502
" />
<path d="M6.3434 19.7502
L6.2829 19.8107
" />
<path d="M7.4319 20.5364
L7.4319 19.6898
" />
<path d="M7.4319 19.9317
L7.4924 19.8107
" />
<path d="M7.4924 19.8107
L7.5529 19.7502
" />
<path d="M7.5529 19.7502
L7.6738 19.6898
" />
<path d="M7.6738 19.6898
L7.7948 19.6898
" />
<path d="M8.7624 20.5364
L8.7624 19.8712
" />
<path d="M8.7624 19.8712
L8.7019 19.7502
" />
<path d="M8.7019 19.7502
L8.5810 19.6898
" />
<path d="M8.5810 19.6898
L8.3391 19.6898
" />
<path d="M8.3391 19.6898
L8.2181 19.7502
" />
<path d="M8.7624 20.4760
L8.6415 20.5364
" />
<path d="M8.6415 20.5364
L8.3391 20.5364
" />
<path d="M8.3391 20.5364
L8.2181 20.4760
" />
<path d="M8.2181 20.4760
L8.1577 20.3550
" />
<path d="M8.1577 20.3550
L8.1577 20.2340
" />
<path d="M8.1577 20.2340
L8.2181 20.1131
" />
<path d="M8.2181 20.1131
L8.3391 20.0526
" />
<path d="M8.3391 20.0526
L8.6415 20.0526
" />
<path d="M8.6415 20.0526
L8.7624 19.9921
" />
<path d="M9.9114 19.6898
L9.9114 20.7179
" />
<path d="M9.9114 20.7179
L9.8509 20.8388
" />
<path d="M9.8509 20.8388
L9.7905 20.8993
" />
<path d="M9.7905 20.8993
L9.6695 20.9598
" />
<path d="M9.6695 20.9598
L9.4881 20.9598
" />
<path d="M9.4881 20.9598
L9.3671 20.8993
" />
<path d="M9.9114 20.4760
L9.7905 20.5364
" />
<path d="M9.7905 20.5364
L9.5486 20.5364
" />
<path d="M9.5486 20.5364
L9.4276 20.4760
" />
<path d="M9.4276 20.4760
L9.3671 20.4155
" />
<path d="M9.3671 20.4155
L9.3067 20.2945
" />
<path d="M9.3067 20.2945
L9.3067 19.9317
" />
<path d="M9.3067 19.9317
L9.3671 19.8107
" />
<path d="M9.3671 19.8107
L9.4276 19.7502
" />
<path d="M9.4276 19.7502
L9.5486 19.6898
" />
<path d="M9.5486 19.6898
L9.7905 19.6898
" />
<path d="M9.7905 19.6898
L9.9114 19.7502
" />
<path d="M10.5161 20.5364
L10.5161 19.6898
" />
<path d="M10.5161 19.8107
L10.5766 19.7502
" />
<path d="M10.5766 19.7502
L10.6976 19.6898
" />
<path d="M10.6976 19.6898
L10.8790 19.6898
" />
<path d="M10.8790 19.6898
L10.9999 19.7502
" />
<path d="M10.9999 19.7502
L11.0604 19.8712
" />
<path d="M11.0604 19.8712
L11.0604 20.5364
" />
<path d="M11.0604 19.8712
L11.1209 19.7502
" />
<path d="M11.1209 19.7502
L11.2418 19.6898
" />
<path d="M11.2418 19.6898
L11.4233 19.6898
" />
<path d="M11.4233 19.6898
L11.5442 19.7502
" />
<path d="M11.5442 19.7502
L11.6047 19.8712
" />
<path d="M11.6047 19.8712
L11.6047 20.5364
" />
<path d="M11.9071 20.6574
L12.8747 20.6574
" />
<path d="M13.1166 20.4760
L13.2980 20.5364
" />
<path d="M13.2980 20.5364
L13.6004 20.5364
" />
<path d="M13.6004 20.5364
L13.7213 20.4760
" />
<path d="M13.7213 20.4760
L13.7818 20.4155
" />
<path d="M13.7818 20.4155
L13.8423 20.2945
" />
<path d="M13.8423 20.2945
L13.8423 20.1736
" />
<path d="M13.8423 20.1736
L13.7818 20.0526
" />
<path d="M13.7818 20.0526
L13.7213 19.9921
" />
<path d="M13.7213 19.9921
L13.6004 19.9317
" />
<path d="M13.6004 19.9317
L13.3585 19.8712
" />
<path d="M13.3585 19.8712
L13.2375 19.8107
" />
<path d="M13.2375 19.8107
L13.1770 19.7502
" />
<path d="M13.1770 19.7502
L13.1166 19.6293
" />
<path d="M13.1166 19.6293
L13.1166 19.5083
" />
<path d="M13.1166 19.5083
L13.1770 19.3874
" />
<path d="M13.1770 19.3874
L13.2375 19.3269
" />
<path d="M13.2375 19.3269
L13.3585 19.2664
" />
<path d="M13.3585 19.2664
L13.6608 19.2664
" />
<path d="M13.6608 19.2664
L13.8423 19.3269
" />
<path d="M14.8703 20.4760
L14.7494 20.5364
" />
<path d="M14.7494 20.5364
L14.5075 20.5364
" />
<path d="M14.5075 20.5364
L14.3865 20.4760
" />
<path d="M14.3865 20.4760
L14.3261 20.3550
" />
<path d="M14.3261 20.3550
L14.3261 19.8712
" />
<path d="M14.3261 19.8712
L14.3865 19.7502
" />
<path d="M14.3865 19.7502
L14.5075 19.6898
" />
<path d="M14.5075 19.6898
L14.7494 19.6898
" />
<path d="M14.7494 19.6898
L14.8703 19.7502
" />
<path d="M14.8703 19.7502
L14.9308 19.8712
" />
<path d="M14.9308 19.8712
L14.9308 19.9921
" />
<path d="M14.9308 19.9921
L14.3261 20.1131
" />
<path d="M15.4751 20.5364
L15.4751 19.6898
" />
<path d="M15.4751 19.9317
L15.5356 19.8107
" />
<path d="M15.5356 19.8107
L15.5961 19.7502
" />
<path d="M15.5961 19.7502
L15.7170 19.6898
" />
<path d="M15.7170 19.6898
L15.8380 19.6898
" />
<path d="M16.1404 19.6898
L16.4428 20.5364
" />
<path d="M16.4428 20.5364
L16.7451 19.6898
" />
<path d="M17.4104 20.5364
L17.2894 20.4760
" />
<path d="M17.2894 20.4760
L17.2289 20.4155
" />
<path d="M17.2289 20.4155
L17.1685 20.2945
" />
<path d="M17.1685 20.2945
L17.1685 19.9317
" />
<path d="M17.1685 19.9317
L17.2289 19.8107
" />
<path d="M17.2289 19.8107
L17.2894 19.7502
" />
<path d="M17.2894 19.7502
L17.4104 19.6898
" />
<path d="M17.4104 19.6898
L17.5918 19.6898
" />
<path d="M17.5918 19.6898
L17.7127 19.7502
" />
<path d="M17.7127 19.7502
L17.7732 19.8107
" />
<path d="M17.7732 19.8107
L17.8337 19.9317
" />
<path d="M17.8337 19.9317
L17.8337 20.2945
" />
<path d="M17.8337 20.2945
L17.7732 20.4155
" />
<path d="M17.7732 20.4155
L17.7127 20.4760
" />
<path d="M17.7127 20.4760
L17.5918 20.5364
" />
<path d="M17.5918 20.5364
L17.4104 20.5364
" />
<path d="M18.0756 20.6574
L19.0432 20.6574
" />
<path d="M19.1641 19.2664
L19.5874 20.5364
" />
<path d="M19.5874 20.5364
L20.0108 19.2664
" />
<path d="M20.9784 20.5364
L20.9784 19.8712
" />
<path d="M20.9784 19.8712
L20.9179 19.7502
" />
<path d="M20.9179 19.7502
L20.7970 19.6898
" />
<path d="M20.7970 19.6898
L20.5551 19.6898
" />
<path d="M20.5551 19.6898
L20.4341 19.7502
" />
<path d="M20.9784 20.4760
L20.8575 20.5364
" />
<path d="M20.8575 20.5364
L20.5551 20.5364
" />
<path d="M20.5551 20.5364
L20.4341 20.4760
" />
<path d="M20.4341 20.4760
L20.3737 20.3550
" />
<path d="M20.3737 20.3550
L20.3737 20.2340
" />
<path d="M20.3737 20.2340
L20.4341 20.1131
" />
<path d="M20.4341 20.1131
L20.5551 20.0526
" />
<path d="M20.5551 20.0526
L20.8575 20.0526
" />
<path d="M20.8575 20.0526
L20.9784 19.9921
" />
<path d="M21.7646 20.5364
L21.6436 20.4760
" />
<path d="M21.6436 20.4760
L21.5831 20.3550
" />
<path d="M21.5831 20.3550
L21.5831 19.2664
" />
<path d="M22.1274 19.6898
L22.4298 20.5364
" />
<path d="M22.4298 20.5364
L22.7321 19.6898
" />
<path d="M23.6997 20.4760
L23.5788 20.5364
" />
<path d="M23.5788 20.5364
L23.3369 20.5364
" />
<path d="M23.3369 20.5364
L23.2159 20.4760
" />
<path d="M23.2159 20.4760
L23.1555 20.3550
" />
<path d="M23.1555 20.3550
L23.1555 19.8712
" />
<path d="M23.1555 19.8712
L23.2159 19.7502
" />
<path d="M23.2159 19.7502
L23.3369 19.6898
" />
<path d="M23.3369 19.6898
L23.5788 19.6898
" />
<path d="M23.5788 19.6898
L23.6997 19.7502
" />
<path d="M23.6997 19.7502
L23.7602 19.8712
" />
<path d="M23.7602 19.8712
L23.7602 19.9921
" />
<path d="M23.7602 19.9921
L23.1555 20.1131
" />
<path d="M24.4860 20.4155
L24.5464 20.4760
" />
<path d="M24.5464 20.4760
L24.4860 20.5364
" />
<path d="M24.4860 20.5364
L24.4255 20.4760
" />
<path d="M24.4255 20.4760
L24.4860 20.4155
" />
<path d="M24.4860 20.4155
L24.4860 20.5364
" />
<path d="M24.2441 19.3269
L24.3650 19.2664
" />
<path d="M24.3650 19.2664
L24.6674 19.2664
" />
<path d="M24.6674 19.2664
L24.7883 19.3269
" />
<path d="M24.7883 19.3269
L24.8488 19.4479
" />
<path d="M24.8488 19.4479
L24.8488 19.5688
" />
<path d="M24.8488 19.5688
L24.7883 19.6898
" />
<path d="M24.7883 19.6898
L24.7279 19.7502
" />
<path d="M24.7279 19.7502
L24.6069 19.8107
" />
<path d="M24.6069 19.8107
L24.5464 19.8712
" />
<path d="M24.5464 19.8712
L24.4860 19.9921
" />
<path d="M24.4860 19.9921
L24.4860 20.0526
" />
</g></g>
</svg>
