<?xml version="1.0" standalone="no"?>
 <!DOCTYPE svg PUBLIC "-//W3C//DTD SVG 1.1//EN"
 "http://www.w3.org/Graphics/SVG/1.1/DTD/svg11.dtd">
<svg
  xmlns:svg="http://www.w3.org/2000/svg"
  xmlns="http://www.w3.org/2000/svg"
  xmlns:xlink="http://www.w3.org/1999/xlink"
  xmlns:inkscape="http://www.inkscape.org/namespaces/inkscape"
  version="1.1"
  width="28.1432mm" height="22.8854mm" viewBox="0.0000 0.0000 28.1432 22.8854">
<title>SVG Image created as Valve - Needle Pneumatic_unit1.svg date 2026-05-31T11:36:21 </title>
  <desc>Image generated by Eeschema-SVG </desc>
<g style="fill:#000000; fill-opacity:1.0000;stroke:#000000; stroke-opacity:1.0000;
stroke-linecap:round; stroke-linejoin:round;"
 transform="translate(0 0) scale(1 1)">
</g>
<g style="fill:none;
stroke:#840000; stroke-width:0.1000; stroke-opacity:1;
stroke-linecap:round; stroke-linejoin:round;">
<path d="M14.0716 4.9568 A2.0004 2.0004 0.0 0 0 12.0716 6.9569" />
<path d="M16.0673 6.9569 A1.9973 1.9973 0.0 0 0 14.0716 4.9569" />
<path style="fill:none;
stroke:#840000; stroke-width:0.1000; stroke-opacity:1;
stroke-linecap:round; stroke-linejoin:round;fill:none"
d="M 14.0716,6.9569
14.0716,9.9569
" />
<path style="fill:none;
stroke:#840000; stroke-width:0.1000; stroke-opacity:1;
stroke-linecap:round; stroke-linejoin:round;fill:none"
d="M 14.0716,8.9569
14.0716,10.9569
" />
<path style="fill:none;
stroke:#840000; stroke-width:0.1000; stroke-opacity:1;
stroke-linecap:round; stroke-linejoin:round;fill:none"
d="M 14.0716,9.9569
9.0716,7.9569
9.0716,11.9569
Z" />
<path style="fill:none;
stroke:#840000; stroke-width:0.1000; stroke-opacity:1;
stroke-linecap:round; stroke-linejoin:round;fill:none"
d="M 14.0716,9.9569
19.0716,7.9569
19.0716,11.9569
Z" />
<path style="fill:#840000; fill-opacity:1.0000;
stroke:#840000; stroke-width:0.1000; stroke-opacity:1;
stroke-linecap:round; stroke-linejoin:round;fill-rule:evenodd;"
d="M 14.0716,10.9569
13.8216,10.9569
14.0716,11.9569
14.3216,10.9569
Z" />
<path style="fill:none;
stroke:#840000; stroke-width:0.1000; stroke-opacity:1;
stroke-linecap:round; stroke-linejoin:round;fill:none"
d="M 16.0716,6.9569
12.0716,6.9569
" />
</g>
<g style="fill:none;
stroke:#840000; stroke-width:0.1524; stroke-opacity:1;
stroke-linecap:round; stroke-linejoin:round;">
<path d="M9.0716 9.9569
L6.0716 9.9569
" />
<path d="M19.0716 9.9569
L22.0716 9.9569
" />
</g>
<g style="fill:none;
stroke:#006464; stroke-width:0.1524; stroke-opacity:1;
stroke-linecap:round; stroke-linejoin:round;">
<text x="14.0716" y="20.5919"
textLength="24.5145" font-size="1.6933" lengthAdjust="spacingAndGlyphs"
text-anchor="middle" opacity="0" stroke-opacity="0">Needle_Pneumatic_Valve?</text>
<g class="stroked-text"><desc>Needle_Pneumatic_Valve?</desc>
<path d="M2.2183 20.5364
L2.2183 19.2664
" />
<path d="M2.2183 19.2664
L2.9440 20.5364
" />
<path d="M2.9440 20.5364
L2.9440 19.2664
" />
<path d="M4.0326 20.4760
L3.9117 20.5364
" />
<path d="M3.9117 20.5364
L3.6698 20.5364
" />
<path d="M3.6698 20.5364
L3.5488 20.4760
" />
<path d="M3.5488 20.4760
L3.4884 20.3550
" />
<path d="M3.4884 20.3550
L3.4884 19.8712
" />
<path d="M3.4884 19.8712
L3.5488 19.7502
" />
<path d="M3.5488 19.7502
L3.6698 19.6898
" />
<path d="M3.6698 19.6898
L3.9117 19.6898
" />
<path d="M3.9117 19.6898
L4.0326 19.7502
" />
<path d="M4.0326 19.7502
L4.0931 19.8712
" />
<path d="M4.0931 19.8712
L4.0931 19.9921
" />
<path d="M4.0931 19.9921
L3.4884 20.1131
" />
<path d="M5.1212 20.4760
L5.0003 20.5364
" />
<path d="M5.0003 20.5364
L4.7584 20.5364
" />
<path d="M4.7584 20.5364
L4.6374 20.4760
" />
<path d="M4.6374 20.4760
L4.5770 20.3550
" />
<path d="M4.5770 20.3550
L4.5770 19.8712
" />
<path d="M4.5770 19.8712
L4.6374 19.7502
" />
<path d="M4.6374 19.7502
L4.7584 19.6898
" />
<path d="M4.7584 19.6898
L5.0003 19.6898
" />
<path d="M5.0003 19.6898
L5.1212 19.7502
" />
<path d="M5.1212 19.7502
L5.1817 19.8712
" />
<path d="M5.1817 19.8712
L5.1817 19.9921
" />
<path d="M5.1817 19.9921
L4.5770 20.1131
" />
<path d="M6.2703 20.5364
L6.2703 19.2664
" />
<path d="M6.2703 20.4760
L6.1494 20.5364
" />
<path d="M6.1494 20.5364
L5.9075 20.5364
" />
<path d="M5.9075 20.5364
L5.7865 20.4760
" />
<path d="M5.7865 20.4760
L5.7260 20.4155
" />
<path d="M5.7260 20.4155
L5.6656 20.2945
" />
<path d="M5.6656 20.2945
L5.6656 19.9317
" />
<path d="M5.6656 19.9317
L5.7260 19.8107
" />
<path d="M5.7260 19.8107
L5.7865 19.7502
" />
<path d="M5.7865 19.7502
L5.9075 19.6898
" />
<path d="M5.9075 19.6898
L6.1494 19.6898
" />
<path d="M6.1494 19.6898
L6.2703 19.7502
" />
<path d="M7.0565 20.5364
L6.9355 20.4760
" />
<path d="M6.9355 20.4760
L6.8750 20.3550
" />
<path d="M6.8750 20.3550
L6.8750 19.2664
" />
<path d="M8.0240 20.4760
L7.9031 20.5364
" />
<path d="M7.9031 20.5364
L7.6612 20.5364
" />
<path d="M7.6612 20.5364
L7.5402 20.4760
" />
<path d="M7.5402 20.4760
L7.4798 20.3550
" />
<path d="M7.4798 20.3550
L7.4798 19.8712
" />
<path d="M7.4798 19.8712
L7.5402 19.7502
" />
<path d="M7.5402 19.7502
L7.6612 19.6898
" />
<path d="M7.6612 19.6898
L7.9031 19.6898
" />
<path d="M7.9031 19.6898
L8.0240 19.7502
" />
<path d="M8.0240 19.7502
L8.0845 19.8712
" />
<path d="M8.0845 19.8712
L8.0845 19.9921
" />
<path d="M8.0845 19.9921
L7.4798 20.1131
" />
<path d="M8.3265 20.6574
L9.2941 20.6574
" />
<path d="M9.5964 20.5364
L9.5964 19.2664
" />
<path d="M9.5964 19.2664
L10.0802 19.2664
" />
<path d="M10.0802 19.2664
L10.2012 19.3269
" />
<path d="M10.2012 19.3269
L10.2617 19.3874
" />
<path d="M10.2617 19.3874
L10.3221 19.5083
" />
<path d="M10.3221 19.5083
L10.3221 19.6898
" />
<path d="M10.3221 19.6898
L10.2617 19.8107
" />
<path d="M10.2617 19.8107
L10.2012 19.8712
" />
<path d="M10.2012 19.8712
L10.0802 19.9317
" />
<path d="M10.0802 19.9317
L9.5964 19.9317
" />
<path d="M10.8664 19.6898
L10.8664 20.5364
" />
<path d="M10.8664 19.8107
L10.9269 19.7502
" />
<path d="M10.9269 19.7502
L11.0479 19.6898
" />
<path d="M11.0479 19.6898
L11.2293 19.6898
" />
<path d="M11.2293 19.6898
L11.3502 19.7502
" />
<path d="M11.3502 19.7502
L11.4107 19.8712
" />
<path d="M11.4107 19.8712
L11.4107 20.5364
" />
<path d="M12.4992 20.4760
L12.3783 20.5364
" />
<path d="M12.3783 20.5364
L12.1364 20.5364
" />
<path d="M12.1364 20.5364
L12.0154 20.4760
" />
<path d="M12.0154 20.4760
L11.9550 20.3550
" />
<path d="M11.9550 20.3550
L11.9550 19.8712
" />
<path d="M11.9550 19.8712
L12.0154 19.7502
" />
<path d="M12.0154 19.7502
L12.1364 19.6898
" />
<path d="M12.1364 19.6898
L12.3783 19.6898
" />
<path d="M12.3783 19.6898
L12.4992 19.7502
" />
<path d="M12.4992 19.7502
L12.5597 19.8712
" />
<path d="M12.5597 19.8712
L12.5597 19.9921
" />
<path d="M12.5597 19.9921
L11.9550 20.1131
" />
<path d="M13.6483 19.6898
L13.6483 20.5364
" />
<path d="M13.1040 19.6898
L13.1040 20.3550
" />
<path d="M13.1040 20.3550
L13.1645 20.4760
" />
<path d="M13.1645 20.4760
L13.2855 20.5364
" />
<path d="M13.2855 20.5364
L13.4669 20.5364
" />
<path d="M13.4669 20.5364
L13.5878 20.4760
" />
<path d="M13.5878 20.4760
L13.6483 20.4155
" />
<path d="M14.2530 20.5364
L14.2530 19.6898
" />
<path d="M14.2530 19.8107
L14.3135 19.7502
" />
<path d="M14.3135 19.7502
L14.4345 19.6898
" />
<path d="M14.4345 19.6898
L14.6159 19.6898
" />
<path d="M14.6159 19.6898
L14.7368 19.7502
" />
<path d="M14.7368 19.7502
L14.7973 19.8712
" />
<path d="M14.7973 19.8712
L14.7973 20.5364
" />
<path d="M14.7973 19.8712
L14.8578 19.7502
" />
<path d="M14.8578 19.7502
L14.9787 19.6898
" />
<path d="M14.9787 19.6898
L15.1602 19.6898
" />
<path d="M15.1602 19.6898
L15.2811 19.7502
" />
<path d="M15.2811 19.7502
L15.3416 19.8712
" />
<path d="M15.3416 19.8712
L15.3416 20.5364
" />
<path d="M16.4906 20.5364
L16.4906 19.8712
" />
<path d="M16.4906 19.8712
L16.4301 19.7502
" />
<path d="M16.4301 19.7502
L16.3092 19.6898
" />
<path d="M16.3092 19.6898
L16.0673 19.6898
" />
<path d="M16.0673 19.6898
L15.9463 19.7502
" />
<path d="M16.4906 20.4760
L16.3697 20.5364
" />
<path d="M16.3697 20.5364
L16.0673 20.5364
" />
<path d="M16.0673 20.5364
L15.9463 20.4760
" />
<path d="M15.9463 20.4760
L15.8859 20.3550
" />
<path d="M15.8859 20.3550
L15.8859 20.2340
" />
<path d="M15.8859 20.2340
L15.9463 20.1131
" />
<path d="M15.9463 20.1131
L16.0673 20.0526
" />
<path d="M16.0673 20.0526
L16.3697 20.0526
" />
<path d="M16.3697 20.0526
L16.4906 19.9921
" />
<path d="M16.9139 19.6898
L17.3977 19.6898
" />
<path d="M17.0953 19.2664
L17.0953 20.3550
" />
<path d="M17.0953 20.3550
L17.1558 20.4760
" />
<path d="M17.1558 20.4760
L17.2768 20.5364
" />
<path d="M17.2768 20.5364
L17.3977 20.5364
" />
<path d="M17.8210 20.5364
L17.8210 19.6898
" />
<path d="M17.8210 19.2664
L17.7606 19.3269
" />
<path d="M17.7606 19.3269
L17.8210 19.3874
" />
<path d="M17.8210 19.3874
L17.8815 19.3269
" />
<path d="M17.8815 19.3269
L17.8210 19.2664
" />
<path d="M17.8210 19.2664
L17.8210 19.3874
" />
<path d="M18.9701 20.4760
L18.8492 20.5364
" />
<path d="M18.8492 20.5364
L18.6073 20.5364
" />
<path d="M18.6073 20.5364
L18.4863 20.4760
" />
<path d="M18.4863 20.4760
L18.4258 20.4155
" />
<path d="M18.4258 20.4155
L18.3654 20.2945
" />
<path d="M18.3654 20.2945
L18.3654 19.9317
" />
<path d="M18.3654 19.9317
L18.4258 19.8107
" />
<path d="M18.4258 19.8107
L18.4863 19.7502
" />
<path d="M18.4863 19.7502
L18.6073 19.6898
" />
<path d="M18.6073 19.6898
L18.8492 19.6898
" />
<path d="M18.8492 19.6898
L18.9701 19.7502
" />
<path d="M19.2121 20.6574
L20.1797 20.6574
" />
<path d="M20.3006 19.2664
L20.7239 20.5364
" />
<path d="M20.7239 20.5364
L21.1473 19.2664
" />
<path d="M22.1149 20.5364
L22.1149 19.8712
" />
<path d="M22.1149 19.8712
L22.0544 19.7502
" />
<path d="M22.0544 19.7502
L21.9335 19.6898
" />
<path d="M21.9335 19.6898
L21.6916 19.6898
" />
<path d="M21.6916 19.6898
L21.5706 19.7502
" />
<path d="M22.1149 20.4760
L21.9940 20.5364
" />
<path d="M21.9940 20.5364
L21.6916 20.5364
" />
<path d="M21.6916 20.5364
L21.5706 20.4760
" />
<path d="M21.5706 20.4760
L21.5102 20.3550
" />
<path d="M21.5102 20.3550
L21.5102 20.2340
" />
<path d="M21.5102 20.2340
L21.5706 20.1131
" />
<path d="M21.5706 20.1131
L21.6916 20.0526
" />
<path d="M21.6916 20.0526
L21.9940 20.0526
" />
<path d="M21.9940 20.0526
L22.1149 19.9921
" />
<path d="M22.9011 20.5364
L22.7801 20.4760
" />
<path d="M22.7801 20.4760
L22.7196 20.3550
" />
<path d="M22.7196 20.3550
L22.7196 19.2664
" />
<path d="M23.2639 19.6898
L23.5663 20.5364
" />
<path d="M23.5663 20.5364
L23.8686 19.6898
" />
<path d="M24.8362 20.4760
L24.7153 20.5364
" />
<path d="M24.7153 20.5364
L24.4734 20.5364
" />
<path d="M24.4734 20.5364
L24.3524 20.4760
" />
<path d="M24.3524 20.4760
L24.2920 20.3550
" />
<path d="M24.2920 20.3550
L24.2920 19.8712
" />
<path d="M24.2920 19.8712
L24.3524 19.7502
" />
<path d="M24.3524 19.7502
L24.4734 19.6898
" />
<path d="M24.4734 19.6898
L24.7153 19.6898
" />
<path d="M24.7153 19.6898
L24.8362 19.7502
" />
<path d="M24.8362 19.7502
L24.8967 19.8712
" />
<path d="M24.8967 19.8712
L24.8967 19.9921
" />
<path d="M24.8967 19.9921
L24.2920 20.1131
" />
<path d="M25.6225 20.4155
L25.6829 20.4760
" />
<path d="M25.6829 20.4760
L25.6225 20.5364
" />
<path d="M25.6225 20.5364
L25.5620 20.4760
" />
<path d="M25.5620 20.4760
L25.6225 20.4155
" />
<path d="M25.6225 20.4155
L25.6225 20.5364
" />
<path d="M25.3806 19.3269
L25.5015 19.2664
" />
<path d="M25.5015 19.2664
L25.8039 19.2664
" />
<path d="M25.8039 19.2664
L25.9248 19.3269
" />
<path d="M25.9248 19.3269
L25.9853 19.4479
" />
<path d="M25.9853 19.4479
L25.9853 19.5688
" />
<path d="M25.9853 19.5688
L25.9248 19.6898
" />
<path d="M25.9248 19.6898
L25.8644 19.7502
" />
<path d="M25.8644 19.7502
L25.7434 19.8107
" />
<path d="M25.7434 19.8107
L25.6829 19.8712
" />
<path d="M25.6829 19.8712
L25.6225 19.9921
" />
<path d="M25.6225 19.9921
L25.6225 20.0526
" />
</g></g>
</svg>
