<?xml version="1.0" standalone="no"?>
 <!DOCTYPE svg PUBLIC "-//W3C//DTD SVG 1.1//EN"
 "http://www.w3.org/Graphics/SVG/1.1/DTD/svg11.dtd">
<svg
  xmlns:svg="http://www.w3.org/2000/svg"
  xmlns="http://www.w3.org/2000/svg"
  xmlns:xlink="http://www.w3.org/1999/xlink"
  xmlns:inkscape="http://www.inkscape.org/namespaces/inkscape"
  version="1.1"
  width="21.1582mm" height="22.8854mm" viewBox="0.0000 0.0000 21.1582 22.8854">
<title>SVG Image created as Valve - Globe Servo_unit1.svg date 2026-05-31T11:36:19 </title>
  <desc>Image generated by Eeschema-SVG </desc>
<g style="fill:#000000; fill-opacity:1.0000;stroke:#000000; stroke-opacity:1.0000;
stroke-linecap:round; stroke-linejoin:round;"
 transform="translate(0 0) scale(1 1)">
</g>
<g style="fill:none;
stroke:#840000; stroke-width:0.1000; stroke-opacity:1;
stroke-linecap:round; stroke-linejoin:round;">
<rect x="8.579100" y="4.956900" width="4.000000" height="2.000000" rx="0.000000" />
<path style="fill:none;
stroke:#840000; stroke-width:0.1000; stroke-opacity:1;
stroke-linecap:round; stroke-linejoin:round;fill:none"
d="M 10.5791,6.9569
10.5791,9.9569
" />
<path style="fill:none;
stroke:#840000; stroke-width:0.1000; stroke-opacity:1;
stroke-linecap:round; stroke-linejoin:round;fill:none"
d="M 10.5791,9.9569
5.5791,7.9569
5.5791,11.9569
Z" />
<path style="fill:none;
stroke:#840000; stroke-width:0.1000; stroke-opacity:1;
stroke-linecap:round; stroke-linejoin:round;fill:none"
d="M 10.5791,9.9569
15.5791,7.9569
15.5791,11.9569
Z" />
</g>
<g style="fill:none;
stroke:#840000; stroke-width:0.1524; stroke-opacity:1;
stroke-linecap:round; stroke-linejoin:round;">
<text x="10.5791" y="6.5919"
textLength="1.4127" font-size="1.6933" lengthAdjust="spacingAndGlyphs"
text-anchor="middle" opacity="0" stroke-opacity="0">S</text>
<g class="stroked-text"><desc>S</desc>
<path d="M10.2163 6.4760
L10.3977 6.5364
" />
<path d="M10.3977 6.5364
L10.7001 6.5364
" />
<path d="M10.7001 6.5364
L10.8210 6.4760
" />
<path d="M10.8210 6.4760
L10.8815 6.4155
" />
<path d="M10.8815 6.4155
L10.9420 6.2945
" />
<path d="M10.9420 6.2945
L10.9420 6.1736
" />
<path d="M10.9420 6.1736
L10.8815 6.0526
" />
<path d="M10.8815 6.0526
L10.8210 5.9921
" />
<path d="M10.8210 5.9921
L10.7001 5.9317
" />
<path d="M10.7001 5.9317
L10.4582 5.8712
" />
<path d="M10.4582 5.8712
L10.3372 5.8107
" />
<path d="M10.3372 5.8107
L10.2767 5.7502
" />
<path d="M10.2767 5.7502
L10.2163 5.6293
" />
<path d="M10.2163 5.6293
L10.2163 5.5083
" />
<path d="M10.2163 5.5083
L10.2767 5.3874
" />
<path d="M10.2767 5.3874
L10.3372 5.3269
" />
<path d="M10.3372 5.3269
L10.4582 5.2664
" />
<path d="M10.4582 5.2664
L10.7605 5.2664
" />
<path d="M10.7605 5.2664
L10.9420 5.3269
" />
</g><path d="M5.5791 9.9569
L2.5791 9.9569
" />
<path d="M15.5791 9.9569
L18.5791 9.9569
" />
</g>
<g style="fill:none;
stroke:#006464; stroke-width:0.1524; stroke-opacity:1;
stroke-linecap:round; stroke-linejoin:round;">
<text x="10.5791" y="20.5919"
textLength="18.7087" font-size="1.6933" lengthAdjust="spacingAndGlyphs"
text-anchor="middle" opacity="0" stroke-opacity="0">Globe_Servo_Valve?</text>
<g class="stroked-text"><desc>Globe_Servo_Valve?</desc>
<path d="M2.2940 19.3269
L2.1730 19.2664
" />
<path d="M2.1730 19.2664
L1.9916 19.2664
" />
<path d="M1.9916 19.2664
L1.8102 19.3269
" />
<path d="M1.8102 19.3269
L1.6892 19.4479
" />
<path d="M1.6892 19.4479
L1.6287 19.5688
" />
<path d="M1.6287 19.5688
L1.5683 19.8107
" />
<path d="M1.5683 19.8107
L1.5683 19.9921
" />
<path d="M1.5683 19.9921
L1.6287 20.2340
" />
<path d="M1.6287 20.2340
L1.6892 20.3550
" />
<path d="M1.6892 20.3550
L1.8102 20.4760
" />
<path d="M1.8102 20.4760
L1.9916 20.5364
" />
<path d="M1.9916 20.5364
L2.1125 20.5364
" />
<path d="M2.1125 20.5364
L2.2940 20.4760
" />
<path d="M2.2940 20.4760
L2.3544 20.4155
" />
<path d="M2.3544 20.4155
L2.3544 19.9921
" />
<path d="M2.3544 19.9921
L2.1125 19.9921
" />
<path d="M3.0802 20.5364
L2.9592 20.4760
" />
<path d="M2.9592 20.4760
L2.8987 20.3550
" />
<path d="M2.8987 20.3550
L2.8987 19.2664
" />
<path d="M3.7454 20.5364
L3.6244 20.4760
" />
<path d="M3.6244 20.4760
L3.5639 20.4155
" />
<path d="M3.5639 20.4155
L3.5035 20.2945
" />
<path d="M3.5035 20.2945
L3.5035 19.9317
" />
<path d="M3.5035 19.9317
L3.5639 19.8107
" />
<path d="M3.5639 19.8107
L3.6244 19.7502
" />
<path d="M3.6244 19.7502
L3.7454 19.6898
" />
<path d="M3.7454 19.6898
L3.9268 19.6898
" />
<path d="M3.9268 19.6898
L4.0477 19.7502
" />
<path d="M4.0477 19.7502
L4.1082 19.8107
" />
<path d="M4.1082 19.8107
L4.1687 19.9317
" />
<path d="M4.1687 19.9317
L4.1687 20.2945
" />
<path d="M4.1687 20.2945
L4.1082 20.4155
" />
<path d="M4.1082 20.4155
L4.0477 20.4760
" />
<path d="M4.0477 20.4760
L3.9268 20.5364
" />
<path d="M3.9268 20.5364
L3.7454 20.5364
" />
<path d="M4.7129 20.5364
L4.7129 19.2664
" />
<path d="M4.7129 19.7502
L4.8339 19.6898
" />
<path d="M4.8339 19.6898
L5.0758 19.6898
" />
<path d="M5.0758 19.6898
L5.1967 19.7502
" />
<path d="M5.1967 19.7502
L5.2572 19.8107
" />
<path d="M5.2572 19.8107
L5.3177 19.9317
" />
<path d="M5.3177 19.9317
L5.3177 20.2945
" />
<path d="M5.3177 20.2945
L5.2572 20.4155
" />
<path d="M5.2572 20.4155
L5.1967 20.4760
" />
<path d="M5.1967 20.4760
L5.0758 20.5364
" />
<path d="M5.0758 20.5364
L4.8339 20.5364
" />
<path d="M4.8339 20.5364
L4.7129 20.4760
" />
<path d="M6.3457 20.4760
L6.2248 20.5364
" />
<path d="M6.2248 20.5364
L5.9829 20.5364
" />
<path d="M5.9829 20.5364
L5.8619 20.4760
" />
<path d="M5.8619 20.4760
L5.8015 20.3550
" />
<path d="M5.8015 20.3550
L5.8015 19.8712
" />
<path d="M5.8015 19.8712
L5.8619 19.7502
" />
<path d="M5.8619 19.7502
L5.9829 19.6898
" />
<path d="M5.9829 19.6898
L6.2248 19.6898
" />
<path d="M6.2248 19.6898
L6.3457 19.7502
" />
<path d="M6.3457 19.7502
L6.4062 19.8712
" />
<path d="M6.4062 19.8712
L6.4062 19.9921
" />
<path d="M6.4062 19.9921
L5.8015 20.1131
" />
<path d="M6.6482 20.6574
L7.6158 20.6574
" />
<path d="M7.8577 20.4760
L8.0391 20.5364
" />
<path d="M8.0391 20.5364
L8.3415 20.5364
" />
<path d="M8.3415 20.5364
L8.4624 20.4760
" />
<path d="M8.4624 20.4760
L8.5229 20.4155
" />
<path d="M8.5229 20.4155
L8.5834 20.2945
" />
<path d="M8.5834 20.2945
L8.5834 20.1736
" />
<path d="M8.5834 20.1736
L8.5229 20.0526
" />
<path d="M8.5229 20.0526
L8.4624 19.9921
" />
<path d="M8.4624 19.9921
L8.3415 19.9317
" />
<path d="M8.3415 19.9317
L8.0996 19.8712
" />
<path d="M8.0996 19.8712
L7.9786 19.8107
" />
<path d="M7.9786 19.8107
L7.9181 19.7502
" />
<path d="M7.9181 19.7502
L7.8577 19.6293
" />
<path d="M7.8577 19.6293
L7.8577 19.5083
" />
<path d="M7.8577 19.5083
L7.9181 19.3874
" />
<path d="M7.9181 19.3874
L7.9786 19.3269
" />
<path d="M7.9786 19.3269
L8.0996 19.2664
" />
<path d="M8.0996 19.2664
L8.4019 19.2664
" />
<path d="M8.4019 19.2664
L8.5834 19.3269
" />
<path d="M9.6114 20.4760
L9.4905 20.5364
" />
<path d="M9.4905 20.5364
L9.2486 20.5364
" />
<path d="M9.2486 20.5364
L9.1276 20.4760
" />
<path d="M9.1276 20.4760
L9.0672 20.3550
" />
<path d="M9.0672 20.3550
L9.0672 19.8712
" />
<path d="M9.0672 19.8712
L9.1276 19.7502
" />
<path d="M9.1276 19.7502
L9.2486 19.6898
" />
<path d="M9.2486 19.6898
L9.4905 19.6898
" />
<path d="M9.4905 19.6898
L9.6114 19.7502
" />
<path d="M9.6114 19.7502
L9.6719 19.8712
" />
<path d="M9.6719 19.8712
L9.6719 19.9921
" />
<path d="M9.6719 19.9921
L9.0672 20.1131
" />
<path d="M10.2162 20.5364
L10.2162 19.6898
" />
<path d="M10.2162 19.9317
L10.2767 19.8107
" />
<path d="M10.2767 19.8107
L10.3372 19.7502
" />
<path d="M10.3372 19.7502
L10.4581 19.6898
" />
<path d="M10.4581 19.6898
L10.5791 19.6898
" />
<path d="M10.8815 19.6898
L11.1839 20.5364
" />
<path d="M11.1839 20.5364
L11.4862 19.6898
" />
<path d="M12.1515 20.5364
L12.0305 20.4760
" />
<path d="M12.0305 20.4760
L11.9700 20.4155
" />
<path d="M11.9700 20.4155
L11.9096 20.2945
" />
<path d="M11.9096 20.2945
L11.9096 19.9317
" />
<path d="M11.9096 19.9317
L11.9700 19.8107
" />
<path d="M11.9700 19.8107
L12.0305 19.7502
" />
<path d="M12.0305 19.7502
L12.1515 19.6898
" />
<path d="M12.1515 19.6898
L12.3329 19.6898
" />
<path d="M12.3329 19.6898
L12.4538 19.7502
" />
<path d="M12.4538 19.7502
L12.5143 19.8107
" />
<path d="M12.5143 19.8107
L12.5748 19.9317
" />
<path d="M12.5748 19.9317
L12.5748 20.2945
" />
<path d="M12.5748 20.2945
L12.5143 20.4155
" />
<path d="M12.5143 20.4155
L12.4538 20.4760
" />
<path d="M12.4538 20.4760
L12.3329 20.5364
" />
<path d="M12.3329 20.5364
L12.1515 20.5364
" />
<path d="M12.8167 20.6574
L13.7843 20.6574
" />
<path d="M13.9052 19.2664
L14.3285 20.5364
" />
<path d="M14.3285 20.5364
L14.7519 19.2664
" />
<path d="M15.7195 20.5364
L15.7195 19.8712
" />
<path d="M15.7195 19.8712
L15.6590 19.7502
" />
<path d="M15.6590 19.7502
L15.5381 19.6898
" />
<path d="M15.5381 19.6898
L15.2962 19.6898
" />
<path d="M15.2962 19.6898
L15.1752 19.7502
" />
<path d="M15.7195 20.4760
L15.5986 20.5364
" />
<path d="M15.5986 20.5364
L15.2962 20.5364
" />
<path d="M15.2962 20.5364
L15.1752 20.4760
" />
<path d="M15.1752 20.4760
L15.1148 20.3550
" />
<path d="M15.1148 20.3550
L15.1148 20.2340
" />
<path d="M15.1148 20.2340
L15.1752 20.1131
" />
<path d="M15.1752 20.1131
L15.2962 20.0526
" />
<path d="M15.2962 20.0526
L15.5986 20.0526
" />
<path d="M15.5986 20.0526
L15.7195 19.9921
" />
<path d="M16.5057 20.5364
L16.3847 20.4760
" />
<path d="M16.3847 20.4760
L16.3242 20.3550
" />
<path d="M16.3242 20.3550
L16.3242 19.2664
" />
<path d="M16.8685 19.6898
L17.1709 20.5364
" />
<path d="M17.1709 20.5364
L17.4732 19.6898
" />
<path d="M18.4408 20.4760
L18.3199 20.5364
" />
<path d="M18.3199 20.5364
L18.0780 20.5364
" />
<path d="M18.0780 20.5364
L17.9570 20.4760
" />
<path d="M17.9570 20.4760
L17.8966 20.3550
" />
<path d="M17.8966 20.3550
L17.8966 19.8712
" />
<path d="M17.8966 19.8712
L17.9570 19.7502
" />
<path d="M17.9570 19.7502
L18.0780 19.6898
" />
<path d="M18.0780 19.6898
L18.3199 19.6898
" />
<path d="M18.3199 19.6898
L18.4408 19.7502
" />
<path d="M18.4408 19.7502
L18.5013 19.8712
" />
<path d="M18.5013 19.8712
L18.5013 19.9921
" />
<path d="M18.5013 19.9921
L17.8966 20.1131
" />
<path d="M19.2271 20.4155
L19.2875 20.4760
" />
<path d="M19.2875 20.4760
L19.2271 20.5364
" />
<path d="M19.2271 20.5364
L19.1666 20.4760
" />
<path d="M19.1666 20.4760
L19.2271 20.4155
" />
<path d="M19.2271 20.4155
L19.2271 20.5364
" />
<path d="M18.9852 19.3269
L19.1061 19.2664
" />
<path d="M19.1061 19.2664
L19.4085 19.2664
" />
<path d="M19.4085 19.2664
L19.5294 19.3269
" />
<path d="M19.5294 19.3269
L19.5899 19.4479
" />
<path d="M19.5899 19.4479
L19.5899 19.5688
" />
<path d="M19.5899 19.5688
L19.5294 19.6898
" />
<path d="M19.5294 19.6898
L19.4690 19.7502
" />
<path d="M19.4690 19.7502
L19.3480 19.8107
" />
<path d="M19.3480 19.8107
L19.2875 19.8712
" />
<path d="M19.2875 19.8712
L19.2271 19.9921
" />
<path d="M19.2271 19.9921
L19.2271 20.0526
" />
</g></g>
</svg>
