<!-- Copyright 2026 Kingston University Rocket Engineering -->

<?xml version="1.0" standalone="no"?>
 <!DOCTYPE svg PUBLIC "-//W3C//DTD SVG 1.1//EN"
 "http://www.w3.org/Graphics/SVG/1.1/DTD/svg11.dtd">
<svg
  xmlns:svg="http://www.w3.org/2000/svg"
  xmlns="http://www.w3.org/2000/svg"
  xmlns:xlink="http://www.w3.org/1999/xlink"
  xmlns:inkscape="http://www.inkscape.org/namespaces/inkscape"
  version="1.1"
  width="24.5110mm" height="22.8854mm" viewBox="0.0000 0.0000 24.5110 22.8854">
<title>SVG Image created as Valve - Butterfly Servo_unit1.svg date 2026-05-31T11:36:21 </title>
  <desc>Image generated by Eeschema-SVG </desc>
<g style="fill:#000000; fill-opacity:1.0000;stroke:#000000; stroke-opacity:1.0000;
stroke-linecap:round; stroke-linejoin:round;"
 transform="translate(0 0) scale(1 1)">
<path style="fill:none;
stroke:#840000; stroke-width:0.1000; stroke-opacity:1;
stroke-linecap:round; stroke-linejoin:round;fill:none"
d="M 7.2555,7.9569
7.2555,11.9569
" />
<path style="fill:none;
stroke:#840000; stroke-width:0.1000; stroke-opacity:1;
stroke-linecap:round; stroke-linejoin:round;fill:none"
d="M 7.7555,11.7069
12.2555,9.9569
" />
</g>
<g style="fill:none;
stroke:#840000; stroke-width:0.1000; stroke-opacity:1;
stroke-linecap:round; stroke-linejoin:round;">
<rect x="10.255500" y="4.956900" width="4.000000" height="2.000000" rx="0.000000" />
<path style="fill:none;
stroke:#840000; stroke-width:0.1000; stroke-opacity:1;
stroke-linecap:round; stroke-linejoin:round;fill:none"
d="M 12.2555,6.9569
12.2555,9.9569
" />
<path style="fill:none;
stroke:#840000; stroke-width:0.1000; stroke-opacity:1;
stroke-linecap:round; stroke-linejoin:round;fill:none"
d="M 12.2555,9.9569
16.7555,8.2069
" />
</g>
<g style="fill:#840000; fill-opacity:1.0000;
stroke:#840000; stroke-width:0.1524; stroke-opacity:1;
stroke-linecap:round; stroke-linejoin:round;">
<circle cx="12.2555" cy="9.9569" r="0.5000" />
<path style="fill:none;
stroke:#840000; stroke-width:0.1000; stroke-opacity:1;
stroke-linecap:round; stroke-linejoin:round;fill:none"
d="M 17.2555,7.9569
17.2555,11.9569
" />
</g>
<g style="fill:none;
stroke:#840000; stroke-width:0.1524; stroke-opacity:1;
stroke-linecap:round; stroke-linejoin:round;">
<text x="12.2555" y="6.5919"
textLength="1.4127" font-size="1.6933" lengthAdjust="spacingAndGlyphs"
text-anchor="middle" opacity="0" stroke-opacity="0">S</text>
<g class="stroked-text"><desc>S</desc>
<path d="M11.8927 6.4760
L12.0741 6.5364
" />
<path d="M12.0741 6.5364
L12.3765 6.5364
" />
<path d="M12.3765 6.5364
L12.4974 6.4760
" />
<path d="M12.4974 6.4760
L12.5579 6.4155
" />
<path d="M12.5579 6.4155
L12.6184 6.2945
" />
<path d="M12.6184 6.2945
L12.6184 6.1736
" />
<path d="M12.6184 6.1736
L12.5579 6.0526
" />
<path d="M12.5579 6.0526
L12.4974 5.9921
" />
<path d="M12.4974 5.9921
L12.3765 5.9317
" />
<path d="M12.3765 5.9317
L12.1346 5.8712
" />
<path d="M12.1346 5.8712
L12.0136 5.8107
" />
<path d="M12.0136 5.8107
L11.9531 5.7502
" />
<path d="M11.9531 5.7502
L11.8927 5.6293
" />
<path d="M11.8927 5.6293
L11.8927 5.5083
" />
<path d="M11.8927 5.5083
L11.9531 5.3874
" />
<path d="M11.9531 5.3874
L12.0136 5.3269
" />
<path d="M12.0136 5.3269
L12.1346 5.2664
" />
<path d="M12.1346 5.2664
L12.4369 5.2664
" />
<path d="M12.4369 5.2664
L12.6184 5.3269
" />
</g><path d="M7.2555 9.9569
L4.2555 9.9569
" />
<path d="M17.2555 9.9569
L20.2555 9.9569
" />
</g>
<g style="fill:none;
stroke:#006464; stroke-width:0.1524; stroke-opacity:1;
stroke-linecap:round; stroke-linejoin:round;">
<text x="12.2555" y="20.5919"
textLength="21.4906" font-size="1.6933" lengthAdjust="spacingAndGlyphs"
text-anchor="middle" opacity="0" stroke-opacity="0">Butterfly_Servo_Valve?</text>
<g class="stroked-text"><desc>Butterfly_Servo_Valve?</desc>
<path d="M2.3375 19.8712
L2.5189 19.9317
" />
<path d="M2.5189 19.9317
L2.5794 19.9921
" />
<path d="M2.5794 19.9921
L2.6398 20.1131
" />
<path d="M2.6398 20.1131
L2.6398 20.2945
" />
<path d="M2.6398 20.2945
L2.5794 20.4155
" />
<path d="M2.5794 20.4155
L2.5189 20.4760
" />
<path d="M2.5189 20.4760
L2.3979 20.5364
" />
<path d="M2.3979 20.5364
L1.9141 20.5364
" />
<path d="M1.9141 20.5364
L1.9141 19.2664
" />
<path d="M1.9141 19.2664
L2.3375 19.2664
" />
<path d="M2.3375 19.2664
L2.4584 19.3269
" />
<path d="M2.4584 19.3269
L2.5189 19.3874
" />
<path d="M2.5189 19.3874
L2.5794 19.5083
" />
<path d="M2.5794 19.5083
L2.5794 19.6293
" />
<path d="M2.5794 19.6293
L2.5189 19.7502
" />
<path d="M2.5189 19.7502
L2.4584 19.8107
" />
<path d="M2.4584 19.8107
L2.3375 19.8712
" />
<path d="M2.3375 19.8712
L1.9141 19.8712
" />
<path d="M3.7284 19.6898
L3.7284 20.5364
" />
<path d="M3.1841 19.6898
L3.1841 20.3550
" />
<path d="M3.1841 20.3550
L3.2446 20.4760
" />
<path d="M3.2446 20.4760
L3.3656 20.5364
" />
<path d="M3.3656 20.5364
L3.5470 20.5364
" />
<path d="M3.5470 20.5364
L3.6679 20.4760
" />
<path d="M3.6679 20.4760
L3.7284 20.4155
" />
<path d="M4.1517 19.6898
L4.6355 19.6898
" />
<path d="M4.3331 19.2664
L4.3331 20.3550
" />
<path d="M4.3331 20.3550
L4.3936 20.4760
" />
<path d="M4.3936 20.4760
L4.5146 20.5364
" />
<path d="M4.5146 20.5364
L4.6355 20.5364
" />
<path d="M4.8774 19.6898
L5.3612 19.6898
" />
<path d="M5.0588 19.2664
L5.0588 20.3550
" />
<path d="M5.0588 20.3550
L5.1193 20.4760
" />
<path d="M5.1193 20.4760
L5.2403 20.5364
" />
<path d="M5.2403 20.5364
L5.3612 20.5364
" />
<path d="M6.2683 20.4760
L6.1474 20.5364
" />
<path d="M6.1474 20.5364
L5.9055 20.5364
" />
<path d="M5.9055 20.5364
L5.7845 20.4760
" />
<path d="M5.7845 20.4760
L5.7241 20.3550
" />
<path d="M5.7241 20.3550
L5.7241 19.8712
" />
<path d="M5.7241 19.8712
L5.7845 19.7502
" />
<path d="M5.7845 19.7502
L5.9055 19.6898
" />
<path d="M5.9055 19.6898
L6.1474 19.6898
" />
<path d="M6.1474 19.6898
L6.2683 19.7502
" />
<path d="M6.2683 19.7502
L6.3288 19.8712
" />
<path d="M6.3288 19.8712
L6.3288 19.9921
" />
<path d="M6.3288 19.9921
L5.7241 20.1131
" />
<path d="M6.8731 20.5364
L6.8731 19.6898
" />
<path d="M6.8731 19.9317
L6.9336 19.8107
" />
<path d="M6.9336 19.8107
L6.9941 19.7502
" />
<path d="M6.9941 19.7502
L7.1150 19.6898
" />
<path d="M7.1150 19.6898
L7.2360 19.6898
" />
<path d="M7.4779 19.6898
L7.9617 19.6898
" />
<path d="M7.6593 20.5364
L7.6593 19.4479
" />
<path d="M7.6593 19.4479
L7.7198 19.3269
" />
<path d="M7.7198 19.3269
L7.8408 19.2664
" />
<path d="M7.8408 19.2664
L7.9617 19.2664
" />
<path d="M8.5665 20.5364
L8.4455 20.4760
" />
<path d="M8.4455 20.4760
L8.3850 20.3550
" />
<path d="M8.3850 20.3550
L8.3850 19.2664
" />
<path d="M8.9293 19.6898
L9.2317 20.5364
" />
<path d="M9.5340 19.6898
L9.2317 20.5364
" />
<path d="M9.2317 20.5364
L9.1107 20.8388
" />
<path d="M9.1107 20.8388
L9.0502 20.8993
" />
<path d="M9.0502 20.8993
L8.9293 20.9598
" />
<path d="M9.7155 20.6574
L10.6831 20.6574
" />
<path d="M10.9250 20.4760
L11.1064 20.5364
" />
<path d="M11.1064 20.5364
L11.4088 20.5364
" />
<path d="M11.4088 20.5364
L11.5297 20.4760
" />
<path d="M11.5297 20.4760
L11.5902 20.4155
" />
<path d="M11.5902 20.4155
L11.6507 20.2945
" />
<path d="M11.6507 20.2945
L11.6507 20.1736
" />
<path d="M11.6507 20.1736
L11.5902 20.0526
" />
<path d="M11.5902 20.0526
L11.5297 19.9921
" />
<path d="M11.5297 19.9921
L11.4088 19.9317
" />
<path d="M11.4088 19.9317
L11.1669 19.8712
" />
<path d="M11.1669 19.8712
L11.0459 19.8107
" />
<path d="M11.0459 19.8107
L10.9854 19.7502
" />
<path d="M10.9854 19.7502
L10.9250 19.6293
" />
<path d="M10.9250 19.6293
L10.9250 19.5083
" />
<path d="M10.9250 19.5083
L10.9854 19.3874
" />
<path d="M10.9854 19.3874
L11.0459 19.3269
" />
<path d="M11.0459 19.3269
L11.1669 19.2664
" />
<path d="M11.1669 19.2664
L11.4692 19.2664
" />
<path d="M11.4692 19.2664
L11.6507 19.3269
" />
<path d="M12.6787 20.4760
L12.5578 20.5364
" />
<path d="M12.5578 20.5364
L12.3159 20.5364
" />
<path d="M12.3159 20.5364
L12.1949 20.4760
" />
<path d="M12.1949 20.4760
L12.1345 20.3550
" />
<path d="M12.1345 20.3550
L12.1345 19.8712
" />
<path d="M12.1345 19.8712
L12.1949 19.7502
" />
<path d="M12.1949 19.7502
L12.3159 19.6898
" />
<path d="M12.3159 19.6898
L12.5578 19.6898
" />
<path d="M12.5578 19.6898
L12.6787 19.7502
" />
<path d="M12.6787 19.7502
L12.7392 19.8712
" />
<path d="M12.7392 19.8712
L12.7392 19.9921
" />
<path d="M12.7392 19.9921
L12.1345 20.1131
" />
<path d="M13.2835 20.5364
L13.2835 19.6898
" />
<path d="M13.2835 19.9317
L13.3440 19.8107
" />
<path d="M13.3440 19.8107
L13.4045 19.7502
" />
<path d="M13.4045 19.7502
L13.5254 19.6898
" />
<path d="M13.5254 19.6898
L13.6464 19.6898
" />
<path d="M13.9488 19.6898
L14.2512 20.5364
" />
<path d="M14.2512 20.5364
L14.5535 19.6898
" />
<path d="M15.2188 20.5364
L15.0978 20.4760
" />
<path d="M15.0978 20.4760
L15.0373 20.4155
" />
<path d="M15.0373 20.4155
L14.9769 20.2945
" />
<path d="M14.9769 20.2945
L14.9769 19.9317
" />
<path d="M14.9769 19.9317
L15.0373 19.8107
" />
<path d="M15.0373 19.8107
L15.0978 19.7502
" />
<path d="M15.0978 19.7502
L15.2188 19.6898
" />
<path d="M15.2188 19.6898
L15.4002 19.6898
" />
<path d="M15.4002 19.6898
L15.5211 19.7502
" />
<path d="M15.5211 19.7502
L15.5816 19.8107
" />
<path d="M15.5816 19.8107
L15.6421 19.9317
" />
<path d="M15.6421 19.9317
L15.6421 20.2945
" />
<path d="M15.6421 20.2945
L15.5816 20.4155
" />
<path d="M15.5816 20.4155
L15.5211 20.4760
" />
<path d="M15.5211 20.4760
L15.4002 20.5364
" />
<path d="M15.4002 20.5364
L15.2188 20.5364
" />
<path d="M15.8840 20.6574
L16.8516 20.6574
" />
<path d="M16.9725 19.2664
L17.3958 20.5364
" />
<path d="M17.3958 20.5364
L17.8192 19.2664
" />
<path d="M18.7868 20.5364
L18.7868 19.8712
" />
<path d="M18.7868 19.8712
L18.7263 19.7502
" />
<path d="M18.7263 19.7502
L18.6054 19.6898
" />
<path d="M18.6054 19.6898
L18.3635 19.6898
" />
<path d="M18.3635 19.6898
L18.2425 19.7502
" />
<path d="M18.7868 20.4760
L18.6659 20.5364
" />
<path d="M18.6659 20.5364
L18.3635 20.5364
" />
<path d="M18.3635 20.5364
L18.2425 20.4760
" />
<path d="M18.2425 20.4760
L18.1821 20.3550
" />
<path d="M18.1821 20.3550
L18.1821 20.2340
" />
<path d="M18.1821 20.2340
L18.2425 20.1131
" />
<path d="M18.2425 20.1131
L18.3635 20.0526
" />
<path d="M18.3635 20.0526
L18.6659 20.0526
" />
<path d="M18.6659 20.0526
L18.7868 19.9921
" />
<path d="M19.5730 20.5364
L19.4520 20.4760
" />
<path d="M19.4520 20.4760
L19.3915 20.3550
" />
<path d="M19.3915 20.3550
L19.3915 19.2664
" />
<path d="M19.9358 19.6898
L20.2382 20.5364
" />
<path d="M20.2382 20.5364
L20.5405 19.6898
" />
<path d="M21.5081 20.4760
L21.3872 20.5364
" />
<path d="M21.3872 20.5364
L21.1453 20.5364
" />
<path d="M21.1453 20.5364
L21.0243 20.4760
" />
<path d="M21.0243 20.4760
L20.9639 20.3550
" />
<path d="M20.9639 20.3550
L20.9639 19.8712
" />
<path d="M20.9639 19.8712
L21.0243 19.7502
" />
<path d="M21.0243 19.7502
L21.1453 19.6898
" />
<path d="M21.1453 19.6898
L21.3872 19.6898
" />
<path d="M21.3872 19.6898
L21.5081 19.7502
" />
<path d="M21.5081 19.7502
L21.5686 19.8712
" />
<path d="M21.5686 19.8712
L21.5686 19.9921
" />
<path d="M21.5686 19.9921
L20.9639 20.1131
" />
<path d="M22.2944 20.4155
L22.3548 20.4760
" />
<path d="M22.3548 20.4760
L22.2944 20.5364
" />
<path d="M22.2944 20.5364
L22.2339 20.4760
" />
<path d="M22.2339 20.4760
L22.2944 20.4155
" />
<path d="M22.2944 20.4155
L22.2944 20.5364
" />
<path d="M22.0525 19.3269
L22.1734 19.2664
" />
<path d="M22.1734 19.2664
L22.4758 19.2664
" />
<path d="M22.4758 19.2664
L22.5967 19.3269
" />
<path d="M22.5967 19.3269
L22.6572 19.4479
" />
<path d="M22.6572 19.4479
L22.6572 19.5688
" />
<path d="M22.6572 19.5688
L22.5967 19.6898
" />
<path d="M22.5967 19.6898
L22.5363 19.7502
" />
<path d="M22.5363 19.7502
L22.4153 19.8107
" />
<path d="M22.4153 19.8107
L22.3548 19.8712
" />
<path d="M22.3548 19.8712
L22.2944 19.9921
" />
<path d="M22.2944 19.9921
L22.2944 20.0526
" />
</g></g>
</svg>
