<?xml version="1.0" standalone="no"?>
 <!DOCTYPE svg PUBLIC "-//W3C//DTD SVG 1.1//EN"
 "http://www.w3.org/Graphics/SVG/1.1/DTD/svg11.dtd">
<svg
  xmlns:svg="http://www.w3.org/2000/svg"
  xmlns="http://www.w3.org/2000/svg"
  xmlns:xlink="http://www.w3.org/1999/xlink"
  xmlns:inkscape="http://www.inkscape.org/namespaces/inkscape"
  version="1.1"
  width="20.1168mm" height="22.8854mm" viewBox="0.0000 0.0000 20.1168 22.8854">
<title>SVG Image created as Valve - Gate Servo_unit1.svg date 2026-05-31T11:36:28 </title>
  <desc>Image generated by Eeschema-SVG </desc>
<g style="fill:#000000; fill-opacity:1.0000;stroke:#000000; stroke-opacity:1.0000;
stroke-linecap:round; stroke-linejoin:round;"
 transform="translate(0 0) scale(1 1)">
</g>
<g style="fill:none;
stroke:#840000; stroke-width:0.1000; stroke-opacity:1;
stroke-linecap:round; stroke-linejoin:round;">
<rect x="8.058400" y="4.956900" width="4.000000" height="2.000000" rx="0.000000" />
</g>
<g style="fill:#840000; fill-opacity:1.0000;
stroke:#840000; stroke-width:0.1000; stroke-opacity:1;
stroke-linecap:round; stroke-linejoin:round;">
<rect x="9.758400" y="7.956900" width="0.600000" height="4.000000" rx="0.000000" />
<path style="fill:none;
stroke:#840000; stroke-width:0.1000; stroke-opacity:1;
stroke-linecap:round; stroke-linejoin:round;fill:none"
d="M 10.0584,6.9569
10.0584,9.9569
" />
<path style="fill:none;
stroke:#840000; stroke-width:0.1000; stroke-opacity:1;
stroke-linecap:round; stroke-linejoin:round;fill:none"
d="M 10.0584,9.9569
5.0584,7.9569
5.0584,11.9569
Z" />
<path style="fill:none;
stroke:#840000; stroke-width:0.1000; stroke-opacity:1;
stroke-linecap:round; stroke-linejoin:round;fill:none"
d="M 10.0584,9.9569
15.0584,7.9569
15.0584,11.9569
Z" />
</g>
<g style="fill:none;
stroke:#840000; stroke-width:0.1524; stroke-opacity:1;
stroke-linecap:round; stroke-linejoin:round;">
<text x="10.0584" y="6.5919"
textLength="1.4127" font-size="1.6933" lengthAdjust="spacingAndGlyphs"
text-anchor="middle" opacity="0" stroke-opacity="0">S</text>
<g class="stroked-text"><desc>S</desc>
<path d="M9.6956 6.4760
L9.8770 6.5364
" />
<path d="M9.8770 6.5364
L10.1794 6.5364
" />
<path d="M10.1794 6.5364
L10.3003 6.4760
" />
<path d="M10.3003 6.4760
L10.3608 6.4155
" />
<path d="M10.3608 6.4155
L10.4213 6.2945
" />
<path d="M10.4213 6.2945
L10.4213 6.1736
" />
<path d="M10.4213 6.1736
L10.3608 6.0526
" />
<path d="M10.3608 6.0526
L10.3003 5.9921
" />
<path d="M10.3003 5.9921
L10.1794 5.9317
" />
<path d="M10.1794 5.9317
L9.9375 5.8712
" />
<path d="M9.9375 5.8712
L9.8165 5.8107
" />
<path d="M9.8165 5.8107
L9.7560 5.7502
" />
<path d="M9.7560 5.7502
L9.6956 5.6293
" />
<path d="M9.6956 5.6293
L9.6956 5.5083
" />
<path d="M9.6956 5.5083
L9.7560 5.3874
" />
<path d="M9.7560 5.3874
L9.8165 5.3269
" />
<path d="M9.8165 5.3269
L9.9375 5.2664
" />
<path d="M9.9375 5.2664
L10.2398 5.2664
" />
<path d="M10.2398 5.2664
L10.4213 5.3269
" />
</g><path d="M5.0584 9.9569
L2.0584 9.9569
" />
<path d="M15.0584 9.9569
L18.0584 9.9569
" />
</g>
<g style="fill:none;
stroke:#006464; stroke-width:0.1524; stroke-opacity:1;
stroke-linecap:round; stroke-linejoin:round;">
<text x="10.0584" y="20.5919"
textLength="17.6202" font-size="1.6933" lengthAdjust="spacingAndGlyphs"
text-anchor="middle" opacity="0" stroke-opacity="0">Gate_Servo_Valve?</text>
<g class="stroked-text"><desc>Gate_Servo_Valve?</desc>
<path d="M2.3175 19.3269
L2.1965 19.2664
" />
<path d="M2.1965 19.2664
L2.0151 19.2664
" />
<path d="M2.0151 19.2664
L1.8337 19.3269
" />
<path d="M1.8337 19.3269
L1.7127 19.4479
" />
<path d="M1.7127 19.4479
L1.6522 19.5688
" />
<path d="M1.6522 19.5688
L1.5918 19.8107
" />
<path d="M1.5918 19.8107
L1.5918 19.9921
" />
<path d="M1.5918 19.9921
L1.6522 20.2340
" />
<path d="M1.6522 20.2340
L1.7127 20.3550
" />
<path d="M1.7127 20.3550
L1.8337 20.4760
" />
<path d="M1.8337 20.4760
L2.0151 20.5364
" />
<path d="M2.0151 20.5364
L2.1360 20.5364
" />
<path d="M2.1360 20.5364
L2.3175 20.4760
" />
<path d="M2.3175 20.4760
L2.3779 20.4155
" />
<path d="M2.3779 20.4155
L2.3779 19.9921
" />
<path d="M2.3779 19.9921
L2.1360 19.9921
" />
<path d="M3.4665 20.5364
L3.4665 19.8712
" />
<path d="M3.4665 19.8712
L3.4060 19.7502
" />
<path d="M3.4060 19.7502
L3.2851 19.6898
" />
<path d="M3.2851 19.6898
L3.0432 19.6898
" />
<path d="M3.0432 19.6898
L2.9222 19.7502
" />
<path d="M3.4665 20.4760
L3.3456 20.5364
" />
<path d="M3.3456 20.5364
L3.0432 20.5364
" />
<path d="M3.0432 20.5364
L2.9222 20.4760
" />
<path d="M2.9222 20.4760
L2.8618 20.3550
" />
<path d="M2.8618 20.3550
L2.8618 20.2340
" />
<path d="M2.8618 20.2340
L2.9222 20.1131
" />
<path d="M2.9222 20.1131
L3.0432 20.0526
" />
<path d="M3.0432 20.0526
L3.3456 20.0526
" />
<path d="M3.3456 20.0526
L3.4665 19.9921
" />
<path d="M3.8898 19.6898
L4.3736 19.6898
" />
<path d="M4.0712 19.2664
L4.0712 20.3550
" />
<path d="M4.0712 20.3550
L4.1317 20.4760
" />
<path d="M4.1317 20.4760
L4.2527 20.5364
" />
<path d="M4.2527 20.5364
L4.3736 20.5364
" />
<path d="M5.2807 20.4760
L5.1598 20.5364
" />
<path d="M5.1598 20.5364
L4.9179 20.5364
" />
<path d="M4.9179 20.5364
L4.7969 20.4760
" />
<path d="M4.7969 20.4760
L4.7365 20.3550
" />
<path d="M4.7365 20.3550
L4.7365 19.8712
" />
<path d="M4.7365 19.8712
L4.7969 19.7502
" />
<path d="M4.7969 19.7502
L4.9179 19.6898
" />
<path d="M4.9179 19.6898
L5.1598 19.6898
" />
<path d="M5.1598 19.6898
L5.2807 19.7502
" />
<path d="M5.2807 19.7502
L5.3412 19.8712
" />
<path d="M5.3412 19.8712
L5.3412 19.9921
" />
<path d="M5.3412 19.9921
L4.7365 20.1131
" />
<path d="M5.5832 20.6574
L6.5508 20.6574
" />
<path d="M6.7927 20.4760
L6.9741 20.5364
" />
<path d="M6.9741 20.5364
L7.2765 20.5364
" />
<path d="M7.2765 20.5364
L7.3974 20.4760
" />
<path d="M7.3974 20.4760
L7.4579 20.4155
" />
<path d="M7.4579 20.4155
L7.5184 20.2945
" />
<path d="M7.5184 20.2945
L7.5184 20.1736
" />
<path d="M7.5184 20.1736
L7.4579 20.0526
" />
<path d="M7.4579 20.0526
L7.3974 19.9921
" />
<path d="M7.3974 19.9921
L7.2765 19.9317
" />
<path d="M7.2765 19.9317
L7.0346 19.8712
" />
<path d="M7.0346 19.8712
L6.9136 19.8107
" />
<path d="M6.9136 19.8107
L6.8531 19.7502
" />
<path d="M6.8531 19.7502
L6.7927 19.6293
" />
<path d="M6.7927 19.6293
L6.7927 19.5083
" />
<path d="M6.7927 19.5083
L6.8531 19.3874
" />
<path d="M6.8531 19.3874
L6.9136 19.3269
" />
<path d="M6.9136 19.3269
L7.0346 19.2664
" />
<path d="M7.0346 19.2664
L7.3369 19.2664
" />
<path d="M7.3369 19.2664
L7.5184 19.3269
" />
<path d="M8.5464 20.4760
L8.4255 20.5364
" />
<path d="M8.4255 20.5364
L8.1836 20.5364
" />
<path d="M8.1836 20.5364
L8.0626 20.4760
" />
<path d="M8.0626 20.4760
L8.0022 20.3550
" />
<path d="M8.0022 20.3550
L8.0022 19.8712
" />
<path d="M8.0022 19.8712
L8.0626 19.7502
" />
<path d="M8.0626 19.7502
L8.1836 19.6898
" />
<path d="M8.1836 19.6898
L8.4255 19.6898
" />
<path d="M8.4255 19.6898
L8.5464 19.7502
" />
<path d="M8.5464 19.7502
L8.6069 19.8712
" />
<path d="M8.6069 19.8712
L8.6069 19.9921
" />
<path d="M8.6069 19.9921
L8.0022 20.1131
" />
<path d="M9.1512 20.5364
L9.1512 19.6898
" />
<path d="M9.1512 19.9317
L9.2117 19.8107
" />
<path d="M9.2117 19.8107
L9.2722 19.7502
" />
<path d="M9.2722 19.7502
L9.3931 19.6898
" />
<path d="M9.3931 19.6898
L9.5141 19.6898
" />
<path d="M9.8165 19.6898
L10.1189 20.5364
" />
<path d="M10.1189 20.5364
L10.4212 19.6898
" />
<path d="M11.0865 20.5364
L10.9655 20.4760
" />
<path d="M10.9655 20.4760
L10.9050 20.4155
" />
<path d="M10.9050 20.4155
L10.8446 20.2945
" />
<path d="M10.8446 20.2945
L10.8446 19.9317
" />
<path d="M10.8446 19.9317
L10.9050 19.8107
" />
<path d="M10.9050 19.8107
L10.9655 19.7502
" />
<path d="M10.9655 19.7502
L11.0865 19.6898
" />
<path d="M11.0865 19.6898
L11.2679 19.6898
" />
<path d="M11.2679 19.6898
L11.3888 19.7502
" />
<path d="M11.3888 19.7502
L11.4493 19.8107
" />
<path d="M11.4493 19.8107
L11.5098 19.9317
" />
<path d="M11.5098 19.9317
L11.5098 20.2945
" />
<path d="M11.5098 20.2945
L11.4493 20.4155
" />
<path d="M11.4493 20.4155
L11.3888 20.4760
" />
<path d="M11.3888 20.4760
L11.2679 20.5364
" />
<path d="M11.2679 20.5364
L11.0865 20.5364
" />
<path d="M11.7517 20.6574
L12.7193 20.6574
" />
<path d="M12.8402 19.2664
L13.2635 20.5364
" />
<path d="M13.2635 20.5364
L13.6869 19.2664
" />
<path d="M14.6545 20.5364
L14.6545 19.8712
" />
<path d="M14.6545 19.8712
L14.5940 19.7502
" />
<path d="M14.5940 19.7502
L14.4731 19.6898
" />
<path d="M14.4731 19.6898
L14.2312 19.6898
" />
<path d="M14.2312 19.6898
L14.1102 19.7502
" />
<path d="M14.6545 20.4760
L14.5336 20.5364
" />
<path d="M14.5336 20.5364
L14.2312 20.5364
" />
<path d="M14.2312 20.5364
L14.1102 20.4760
" />
<path d="M14.1102 20.4760
L14.0498 20.3550
" />
<path d="M14.0498 20.3550
L14.0498 20.2340
" />
<path d="M14.0498 20.2340
L14.1102 20.1131
" />
<path d="M14.1102 20.1131
L14.2312 20.0526
" />
<path d="M14.2312 20.0526
L14.5336 20.0526
" />
<path d="M14.5336 20.0526
L14.6545 19.9921
" />
<path d="M15.4407 20.5364
L15.3197 20.4760
" />
<path d="M15.3197 20.4760
L15.2592 20.3550
" />
<path d="M15.2592 20.3550
L15.2592 19.2664
" />
<path d="M15.8035 19.6898
L16.1059 20.5364
" />
<path d="M16.1059 20.5364
L16.4082 19.6898
" />
<path d="M17.3758 20.4760
L17.2549 20.5364
" />
<path d="M17.2549 20.5364
L17.0130 20.5364
" />
<path d="M17.0130 20.5364
L16.8920 20.4760
" />
<path d="M16.8920 20.4760
L16.8316 20.3550
" />
<path d="M16.8316 20.3550
L16.8316 19.8712
" />
<path d="M16.8316 19.8712
L16.8920 19.7502
" />
<path d="M16.8920 19.7502
L17.0130 19.6898
" />
<path d="M17.0130 19.6898
L17.2549 19.6898
" />
<path d="M17.2549 19.6898
L17.3758 19.7502
" />
<path d="M17.3758 19.7502
L17.4363 19.8712
" />
<path d="M17.4363 19.8712
L17.4363 19.9921
" />
<path d="M17.4363 19.9921
L16.8316 20.1131
" />
<path d="M18.1621 20.4155
L18.2225 20.4760
" />
<path d="M18.2225 20.4760
L18.1621 20.5364
" />
<path d="M18.1621 20.5364
L18.1016 20.4760
" />
<path d="M18.1016 20.4760
L18.1621 20.4155
" />
<path d="M18.1621 20.4155
L18.1621 20.5364
" />
<path d="M17.9202 19.3269
L18.0411 19.2664
" />
<path d="M18.0411 19.2664
L18.3435 19.2664
" />
<path d="M18.3435 19.2664
L18.4644 19.3269
" />
<path d="M18.4644 19.3269
L18.5249 19.4479
" />
<path d="M18.5249 19.4479
L18.5249 19.5688
" />
<path d="M18.5249 19.5688
L18.4644 19.6898
" />
<path d="M18.4644 19.6898
L18.4040 19.7502
" />
<path d="M18.4040 19.7502
L18.2830 19.8107
" />
<path d="M18.2830 19.8107
L18.2225 19.8712
" />
<path d="M18.2225 19.8712
L18.1621 19.9921
" />
<path d="M18.1621 19.9921
L18.1621 20.0526
" />
</g></g>
</svg>
