<?xml version="1.0" standalone="no"?>
 <!DOCTYPE svg PUBLIC "-//W3C//DTD SVG 1.1//EN"
 "http://www.w3.org/Graphics/SVG/1.1/DTD/svg11.dtd">
<svg
  xmlns:svg="http://www.w3.org/2000/svg"
  xmlns="http://www.w3.org/2000/svg"
  xmlns:xlink="http://www.w3.org/1999/xlink"
  xmlns:inkscape="http://www.inkscape.org/namespaces/inkscape"
  version="1.1"
  width="24.2824mm" height="22.8854mm" viewBox="0.0000 0.0000 24.2824 22.8854">
<title>SVG Image created as Valve - Needle Manual_unit1.svg date 2026-05-31T11:36:27 </title>
  <desc>Image generated by Eeschema-SVG </desc>
<g style="fill:#000000; fill-opacity:1.0000;stroke:#000000; stroke-opacity:1.0000;
stroke-linecap:round; stroke-linejoin:round;"
 transform="translate(0 0) scale(1 1)">
<path style="fill:none;
stroke:#840000; stroke-width:0.1000; stroke-opacity:1;
stroke-linecap:round; stroke-linejoin:round;fill:none"
d="M 12.1412,6.9569
12.1412,9.9569
" />
<path style="fill:none;
stroke:#840000; stroke-width:0.1000; stroke-opacity:1;
stroke-linecap:round; stroke-linejoin:round;fill:none"
d="M 12.1412,8.9569
12.1412,10.9569
" />
<path style="fill:none;
stroke:#840000; stroke-width:0.1000; stroke-opacity:1;
stroke-linecap:round; stroke-linejoin:round;fill:none"
d="M 12.1412,9.9569
7.1412,7.9569
7.1412,11.9569
Z" />
<path style="fill:none;
stroke:#840000; stroke-width:0.1000; stroke-opacity:1;
stroke-linecap:round; stroke-linejoin:round;fill:none"
d="M 12.1412,9.9569
17.1412,7.9569
17.1412,11.9569
Z" />
<path style="fill:#840000; fill-opacity:1.0000;
stroke:#840000; stroke-width:0.1000; stroke-opacity:1;
stroke-linecap:round; stroke-linejoin:round;fill-rule:evenodd;"
d="M 12.1412,10.9569
11.8912,10.9569
12.1412,11.9569
12.3912,10.9569
Z" />
<path style="fill:none;
stroke:#840000; stroke-width:0.1000; stroke-opacity:1;
stroke-linecap:round; stroke-linejoin:round;fill:none"
d="M 14.1412,6.9569
10.1412,6.9569
" />
</g>
<g style="fill:none;
stroke:#840000; stroke-width:0.1524; stroke-opacity:1;
stroke-linecap:round; stroke-linejoin:round;">
<path d="M7.1412 9.9569
L4.1412 9.9569
" />
<path d="M17.1412 9.9569
L20.1412 9.9569
" />
</g>
<g style="fill:none;
stroke:#006464; stroke-width:0.1524; stroke-opacity:1;
stroke-linecap:round; stroke-linejoin:round;">
<text x="12.1412" y="20.5919"
textLength="21.3091" font-size="1.6933" lengthAdjust="spacingAndGlyphs"
text-anchor="middle" opacity="0" stroke-opacity="0">Needle_Manual_Valve?</text>
<g class="stroked-text"><desc>Needle_Manual_Valve?</desc>
<path d="M1.8906 20.5364
L1.8906 19.2664
" />
<path d="M1.8906 19.2664
L2.6163 20.5364
" />
<path d="M2.6163 20.5364
L2.6163 19.2664
" />
<path d="M3.7049 20.4760
L3.5840 20.5364
" />
<path d="M3.5840 20.5364
L3.3421 20.5364
" />
<path d="M3.3421 20.5364
L3.2211 20.4760
" />
<path d="M3.2211 20.4760
L3.1607 20.3550
" />
<path d="M3.1607 20.3550
L3.1607 19.8712
" />
<path d="M3.1607 19.8712
L3.2211 19.7502
" />
<path d="M3.2211 19.7502
L3.3421 19.6898
" />
<path d="M3.3421 19.6898
L3.5840 19.6898
" />
<path d="M3.5840 19.6898
L3.7049 19.7502
" />
<path d="M3.7049 19.7502
L3.7654 19.8712
" />
<path d="M3.7654 19.8712
L3.7654 19.9921
" />
<path d="M3.7654 19.9921
L3.1607 20.1131
" />
<path d="M4.7935 20.4760
L4.6726 20.5364
" />
<path d="M4.6726 20.5364
L4.4307 20.5364
" />
<path d="M4.4307 20.5364
L4.3097 20.4760
" />
<path d="M4.3097 20.4760
L4.2493 20.3550
" />
<path d="M4.2493 20.3550
L4.2493 19.8712
" />
<path d="M4.2493 19.8712
L4.3097 19.7502
" />
<path d="M4.3097 19.7502
L4.4307 19.6898
" />
<path d="M4.4307 19.6898
L4.6726 19.6898
" />
<path d="M4.6726 19.6898
L4.7935 19.7502
" />
<path d="M4.7935 19.7502
L4.8540 19.8712
" />
<path d="M4.8540 19.8712
L4.8540 19.9921
" />
<path d="M4.8540 19.9921
L4.2493 20.1131
" />
<path d="M5.9426 20.5364
L5.9426 19.2664
" />
<path d="M5.9426 20.4760
L5.8217 20.5364
" />
<path d="M5.8217 20.5364
L5.5798 20.5364
" />
<path d="M5.5798 20.5364
L5.4588 20.4760
" />
<path d="M5.4588 20.4760
L5.3983 20.4155
" />
<path d="M5.3983 20.4155
L5.3379 20.2945
" />
<path d="M5.3379 20.2945
L5.3379 19.9317
" />
<path d="M5.3379 19.9317
L5.3983 19.8107
" />
<path d="M5.3983 19.8107
L5.4588 19.7502
" />
<path d="M5.4588 19.7502
L5.5798 19.6898
" />
<path d="M5.5798 19.6898
L5.8217 19.6898
" />
<path d="M5.8217 19.6898
L5.9426 19.7502
" />
<path d="M6.7288 20.5364
L6.6078 20.4760
" />
<path d="M6.6078 20.4760
L6.5473 20.3550
" />
<path d="M6.5473 20.3550
L6.5473 19.2664
" />
<path d="M7.6963 20.4760
L7.5754 20.5364
" />
<path d="M7.5754 20.5364
L7.3335 20.5364
" />
<path d="M7.3335 20.5364
L7.2125 20.4760
" />
<path d="M7.2125 20.4760
L7.1521 20.3550
" />
<path d="M7.1521 20.3550
L7.1521 19.8712
" />
<path d="M7.1521 19.8712
L7.2125 19.7502
" />
<path d="M7.2125 19.7502
L7.3335 19.6898
" />
<path d="M7.3335 19.6898
L7.5754 19.6898
" />
<path d="M7.5754 19.6898
L7.6963 19.7502
" />
<path d="M7.6963 19.7502
L7.7568 19.8712
" />
<path d="M7.7568 19.8712
L7.7568 19.9921
" />
<path d="M7.7568 19.9921
L7.1521 20.1131
" />
<path d="M7.9988 20.6574
L8.9664 20.6574
" />
<path d="M9.2687 20.5364
L9.2687 19.2664
" />
<path d="M9.2687 19.2664
L9.6921 20.1736
" />
<path d="M9.6921 20.1736
L10.1154 19.2664
" />
<path d="M10.1154 19.2664
L10.1154 20.5364
" />
<path d="M11.2644 20.5364
L11.2644 19.8712
" />
<path d="M11.2644 19.8712
L11.2039 19.7502
" />
<path d="M11.2039 19.7502
L11.0830 19.6898
" />
<path d="M11.0830 19.6898
L10.8411 19.6898
" />
<path d="M10.8411 19.6898
L10.7201 19.7502
" />
<path d="M11.2644 20.4760
L11.1435 20.5364
" />
<path d="M11.1435 20.5364
L10.8411 20.5364
" />
<path d="M10.8411 20.5364
L10.7201 20.4760
" />
<path d="M10.7201 20.4760
L10.6597 20.3550
" />
<path d="M10.6597 20.3550
L10.6597 20.2340
" />
<path d="M10.6597 20.2340
L10.7201 20.1131
" />
<path d="M10.7201 20.1131
L10.8411 20.0526
" />
<path d="M10.8411 20.0526
L11.1435 20.0526
" />
<path d="M11.1435 20.0526
L11.2644 19.9921
" />
<path d="M11.8691 19.6898
L11.8691 20.5364
" />
<path d="M11.8691 19.8107
L11.9296 19.7502
" />
<path d="M11.9296 19.7502
L12.0506 19.6898
" />
<path d="M12.0506 19.6898
L12.2320 19.6898
" />
<path d="M12.2320 19.6898
L12.3529 19.7502
" />
<path d="M12.3529 19.7502
L12.4134 19.8712
" />
<path d="M12.4134 19.8712
L12.4134 20.5364
" />
<path d="M13.5624 19.6898
L13.5624 20.5364
" />
<path d="M13.0181 19.6898
L13.0181 20.3550
" />
<path d="M13.0181 20.3550
L13.0786 20.4760
" />
<path d="M13.0786 20.4760
L13.1996 20.5364
" />
<path d="M13.1996 20.5364
L13.3810 20.5364
" />
<path d="M13.3810 20.5364
L13.5019 20.4760
" />
<path d="M13.5019 20.4760
L13.5624 20.4155
" />
<path d="M14.7114 20.5364
L14.7114 19.8712
" />
<path d="M14.7114 19.8712
L14.6509 19.7502
" />
<path d="M14.6509 19.7502
L14.5300 19.6898
" />
<path d="M14.5300 19.6898
L14.2881 19.6898
" />
<path d="M14.2881 19.6898
L14.1671 19.7502
" />
<path d="M14.7114 20.4760
L14.5905 20.5364
" />
<path d="M14.5905 20.5364
L14.2881 20.5364
" />
<path d="M14.2881 20.5364
L14.1671 20.4760
" />
<path d="M14.1671 20.4760
L14.1067 20.3550
" />
<path d="M14.1067 20.3550
L14.1067 20.2340
" />
<path d="M14.1067 20.2340
L14.1671 20.1131
" />
<path d="M14.1671 20.1131
L14.2881 20.0526
" />
<path d="M14.2881 20.0526
L14.5905 20.0526
" />
<path d="M14.5905 20.0526
L14.7114 19.9921
" />
<path d="M15.4976 20.5364
L15.3766 20.4760
" />
<path d="M15.3766 20.4760
L15.3161 20.3550
" />
<path d="M15.3161 20.3550
L15.3161 19.2664
" />
<path d="M15.6790 20.6574
L16.6466 20.6574
" />
<path d="M16.7675 19.2664
L17.1908 20.5364
" />
<path d="M17.1908 20.5364
L17.6142 19.2664
" />
<path d="M18.5818 20.5364
L18.5818 19.8712
" />
<path d="M18.5818 19.8712
L18.5213 19.7502
" />
<path d="M18.5213 19.7502
L18.4004 19.6898
" />
<path d="M18.4004 19.6898
L18.1585 19.6898
" />
<path d="M18.1585 19.6898
L18.0375 19.7502
" />
<path d="M18.5818 20.4760
L18.4609 20.5364
" />
<path d="M18.4609 20.5364
L18.1585 20.5364
" />
<path d="M18.1585 20.5364
L18.0375 20.4760
" />
<path d="M18.0375 20.4760
L17.9771 20.3550
" />
<path d="M17.9771 20.3550
L17.9771 20.2340
" />
<path d="M17.9771 20.2340
L18.0375 20.1131
" />
<path d="M18.0375 20.1131
L18.1585 20.0526
" />
<path d="M18.1585 20.0526
L18.4609 20.0526
" />
<path d="M18.4609 20.0526
L18.5818 19.9921
" />
<path d="M19.3680 20.5364
L19.2470 20.4760
" />
<path d="M19.2470 20.4760
L19.1865 20.3550
" />
<path d="M19.1865 20.3550
L19.1865 19.2664
" />
<path d="M19.7308 19.6898
L20.0332 20.5364
" />
<path d="M20.0332 20.5364
L20.3355 19.6898
" />
<path d="M21.3031 20.4760
L21.1822 20.5364
" />
<path d="M21.1822 20.5364
L20.9403 20.5364
" />
<path d="M20.9403 20.5364
L20.8193 20.4760
" />
<path d="M20.8193 20.4760
L20.7589 20.3550
" />
<path d="M20.7589 20.3550
L20.7589 19.8712
" />
<path d="M20.7589 19.8712
L20.8193 19.7502
" />
<path d="M20.8193 19.7502
L20.9403 19.6898
" />
<path d="M20.9403 19.6898
L21.1822 19.6898
" />
<path d="M21.1822 19.6898
L21.3031 19.7502
" />
<path d="M21.3031 19.7502
L21.3636 19.8712
" />
<path d="M21.3636 19.8712
L21.3636 19.9921
" />
<path d="M21.3636 19.9921
L20.7589 20.1131
" />
<path d="M22.0894 20.4155
L22.1498 20.4760
" />
<path d="M22.1498 20.4760
L22.0894 20.5364
" />
<path d="M22.0894 20.5364
L22.0289 20.4760
" />
<path d="M22.0289 20.4760
L22.0894 20.4155
" />
<path d="M22.0894 20.4155
L22.0894 20.5364
" />
<path d="M21.8475 19.3269
L21.9684 19.2664
" />
<path d="M21.9684 19.2664
L22.2708 19.2664
" />
<path d="M22.2708 19.2664
L22.3917 19.3269
" />
<path d="M22.3917 19.3269
L22.4522 19.4479
" />
<path d="M22.4522 19.4479
L22.4522 19.5688
" />
<path d="M22.4522 19.5688
L22.3917 19.6898
" />
<path d="M22.3917 19.6898
L22.3313 19.7502
" />
<path d="M22.3313 19.7502
L22.2103 19.8107
" />
<path d="M22.2103 19.8107
L22.1498 19.8712
" />
<path d="M22.1498 19.8712
L22.0894 19.9921
" />
<path d="M22.0894 19.9921
L22.0894 20.0526
" />
</g></g>
</svg>
