<!-- Copyright 2026 Kingston University Rocket Engineering -->

<?xml version="1.0" standalone="no"?>
 <!DOCTYPE svg PUBLIC "-//W3C//DTD SVG 1.1//EN"
 "http://www.w3.org/Graphics/SVG/1.1/DTD/svg11.dtd">
<svg
  xmlns:svg="http://www.w3.org/2000/svg"
  xmlns="http://www.w3.org/2000/svg"
  xmlns:xlink="http://www.w3.org/1999/xlink"
  xmlns:inkscape="http://www.inkscape.org/namespaces/inkscape"
  version="1.1"
  width="30.1752mm" height="22.8854mm" viewBox="0.0000 0.0000 30.1752 22.8854">
<title>SVG Image created as Valve - Butterfly Pneumatic_unit1.svg date 2026-05-31T11:36:19 </title>
  <desc>Image generated by Eeschema-SVG </desc>
<g style="fill:#000000; fill-opacity:1.0000;stroke:#000000; stroke-opacity:1.0000;
stroke-linecap:round; stroke-linejoin:round;"
 transform="translate(0 0) scale(1 1)">
<path style="fill:none;
stroke:#840000; stroke-width:0.1000; stroke-opacity:1;
stroke-linecap:round; stroke-linejoin:round;fill:none"
d="M 10.0876,7.9569
10.0876,11.9569
" />
<path style="fill:none;
stroke:#840000; stroke-width:0.1000; stroke-opacity:1;
stroke-linecap:round; stroke-linejoin:round;fill:none"
d="M 10.5876,11.7069
15.0876,9.9569
" />
</g>
<g style="fill:none;
stroke:#840000; stroke-width:0.1000; stroke-opacity:1;
stroke-linecap:round; stroke-linejoin:round;">
<path d="M15.0876 4.9568 A2.0004 2.0004 0.0 0 0 13.0876 6.9569" />
<path d="M17.0873 6.9569 A1.9973 1.9973 0.0 0 0 15.0876 4.9569" />
<path style="fill:none;
stroke:#840000; stroke-width:0.1000; stroke-opacity:1;
stroke-linecap:round; stroke-linejoin:round;fill:none"
d="M 15.0876,6.9569
15.0876,9.9569
" />
<path style="fill:none;
stroke:#840000; stroke-width:0.1000; stroke-opacity:1;
stroke-linecap:round; stroke-linejoin:round;fill:none"
d="M 15.0876,9.9569
19.5876,8.2069
" />
</g>
<g style="fill:#840000; fill-opacity:1.0000;
stroke:#840000; stroke-width:0.1524; stroke-opacity:1;
stroke-linecap:round; stroke-linejoin:round;">
<circle cx="15.0876" cy="9.9569" r="0.5000" />
<path style="fill:none;
stroke:#840000; stroke-width:0.1000; stroke-opacity:1;
stroke-linecap:round; stroke-linejoin:round;fill:none"
d="M 17.0876,6.9569
13.0876,6.9569
" />
<path style="fill:none;
stroke:#840000; stroke-width:0.1000; stroke-opacity:1;
stroke-linecap:round; stroke-linejoin:round;fill:none"
d="M 20.0876,7.9569
20.0876,11.9569
" />
</g>
<g style="fill:none;
stroke:#840000; stroke-width:0.1524; stroke-opacity:1;
stroke-linecap:round; stroke-linejoin:round;">
<path d="M10.0876 9.9569
L7.0876 9.9569
" />
<path d="M20.0876 9.9569
L23.0876 9.9569
" />
</g>
<g style="fill:none;
stroke:#006464; stroke-width:0.1524; stroke-opacity:1;
stroke-linecap:round; stroke-linejoin:round;">
<text x="15.0876" y="20.5919"
textLength="26.2077" font-size="1.6933" lengthAdjust="spacingAndGlyphs"
text-anchor="middle" opacity="0" stroke-opacity="0">Butterfly_Pneumatic_Valve?</text>
<g class="stroked-text"><desc>Butterfly_Pneumatic_Valve?</desc>
<path d="M2.8111 19.8712
L2.9925 19.9317
" />
<path d="M2.9925 19.9317
L3.0530 19.9921
" />
<path d="M3.0530 19.9921
L3.1134 20.1131
" />
<path d="M3.1134 20.1131
L3.1134 20.2945
" />
<path d="M3.1134 20.2945
L3.0530 20.4155
" />
<path d="M3.0530 20.4155
L2.9925 20.4760
" />
<path d="M2.9925 20.4760
L2.8715 20.5364
" />
<path d="M2.8715 20.5364
L2.3877 20.5364
" />
<path d="M2.3877 20.5364
L2.3877 19.2664
" />
<path d="M2.3877 19.2664
L2.8111 19.2664
" />
<path d="M2.8111 19.2664
L2.9320 19.3269
" />
<path d="M2.9320 19.3269
L2.9925 19.3874
" />
<path d="M2.9925 19.3874
L3.0530 19.5083
" />
<path d="M3.0530 19.5083
L3.0530 19.6293
" />
<path d="M3.0530 19.6293
L2.9925 19.7502
" />
<path d="M2.9925 19.7502
L2.9320 19.8107
" />
<path d="M2.9320 19.8107
L2.8111 19.8712
" />
<path d="M2.8111 19.8712
L2.3877 19.8712
" />
<path d="M4.2020 19.6898
L4.2020 20.5364
" />
<path d="M3.6577 19.6898
L3.6577 20.3550
" />
<path d="M3.6577 20.3550
L3.7182 20.4760
" />
<path d="M3.7182 20.4760
L3.8392 20.5364
" />
<path d="M3.8392 20.5364
L4.0206 20.5364
" />
<path d="M4.0206 20.5364
L4.1415 20.4760
" />
<path d="M4.1415 20.4760
L4.2020 20.4155
" />
<path d="M4.6253 19.6898
L5.1091 19.6898
" />
<path d="M4.8067 19.2664
L4.8067 20.3550
" />
<path d="M4.8067 20.3550
L4.8672 20.4760
" />
<path d="M4.8672 20.4760
L4.9882 20.5364
" />
<path d="M4.9882 20.5364
L5.1091 20.5364
" />
<path d="M5.3510 19.6898
L5.8348 19.6898
" />
<path d="M5.5324 19.2664
L5.5324 20.3550
" />
<path d="M5.5324 20.3550
L5.5929 20.4760
" />
<path d="M5.5929 20.4760
L5.7139 20.5364
" />
<path d="M5.7139 20.5364
L5.8348 20.5364
" />
<path d="M6.7419 20.4760
L6.6210 20.5364
" />
<path d="M6.6210 20.5364
L6.3791 20.5364
" />
<path d="M6.3791 20.5364
L6.2581 20.4760
" />
<path d="M6.2581 20.4760
L6.1977 20.3550
" />
<path d="M6.1977 20.3550
L6.1977 19.8712
" />
<path d="M6.1977 19.8712
L6.2581 19.7502
" />
<path d="M6.2581 19.7502
L6.3791 19.6898
" />
<path d="M6.3791 19.6898
L6.6210 19.6898
" />
<path d="M6.6210 19.6898
L6.7419 19.7502
" />
<path d="M6.7419 19.7502
L6.8024 19.8712
" />
<path d="M6.8024 19.8712
L6.8024 19.9921
" />
<path d="M6.8024 19.9921
L6.1977 20.1131
" />
<path d="M7.3467 20.5364
L7.3467 19.6898
" />
<path d="M7.3467 19.9317
L7.4072 19.8107
" />
<path d="M7.4072 19.8107
L7.4677 19.7502
" />
<path d="M7.4677 19.7502
L7.5886 19.6898
" />
<path d="M7.5886 19.6898
L7.7096 19.6898
" />
<path d="M7.9515 19.6898
L8.4353 19.6898
" />
<path d="M8.1329 20.5364
L8.1329 19.4479
" />
<path d="M8.1329 19.4479
L8.1934 19.3269
" />
<path d="M8.1934 19.3269
L8.3144 19.2664
" />
<path d="M8.3144 19.2664
L8.4353 19.2664
" />
<path d="M9.0401 20.5364
L8.9191 20.4760
" />
<path d="M8.9191 20.4760
L8.8586 20.3550
" />
<path d="M8.8586 20.3550
L8.8586 19.2664
" />
<path d="M9.4029 19.6898
L9.7053 20.5364
" />
<path d="M10.0076 19.6898
L9.7053 20.5364
" />
<path d="M9.7053 20.5364
L9.5843 20.8388
" />
<path d="M9.5843 20.8388
L9.5238 20.8993
" />
<path d="M9.5238 20.8993
L9.4029 20.9598
" />
<path d="M10.1891 20.6574
L11.1567 20.6574
" />
<path d="M11.4590 20.5364
L11.4590 19.2664
" />
<path d="M11.4590 19.2664
L11.9428 19.2664
" />
<path d="M11.9428 19.2664
L12.0638 19.3269
" />
<path d="M12.0638 19.3269
L12.1243 19.3874
" />
<path d="M12.1243 19.3874
L12.1847 19.5083
" />
<path d="M12.1847 19.5083
L12.1847 19.6898
" />
<path d="M12.1847 19.6898
L12.1243 19.8107
" />
<path d="M12.1243 19.8107
L12.0638 19.8712
" />
<path d="M12.0638 19.8712
L11.9428 19.9317
" />
<path d="M11.9428 19.9317
L11.4590 19.9317
" />
<path d="M12.7290 19.6898
L12.7290 20.5364
" />
<path d="M12.7290 19.8107
L12.7895 19.7502
" />
<path d="M12.7895 19.7502
L12.9105 19.6898
" />
<path d="M12.9105 19.6898
L13.0919 19.6898
" />
<path d="M13.0919 19.6898
L13.2128 19.7502
" />
<path d="M13.2128 19.7502
L13.2733 19.8712
" />
<path d="M13.2733 19.8712
L13.2733 20.5364
" />
<path d="M14.3618 20.4760
L14.2409 20.5364
" />
<path d="M14.2409 20.5364
L13.9990 20.5364
" />
<path d="M13.9990 20.5364
L13.8780 20.4760
" />
<path d="M13.8780 20.4760
L13.8176 20.3550
" />
<path d="M13.8176 20.3550
L13.8176 19.8712
" />
<path d="M13.8176 19.8712
L13.8780 19.7502
" />
<path d="M13.8780 19.7502
L13.9990 19.6898
" />
<path d="M13.9990 19.6898
L14.2409 19.6898
" />
<path d="M14.2409 19.6898
L14.3618 19.7502
" />
<path d="M14.3618 19.7502
L14.4223 19.8712
" />
<path d="M14.4223 19.8712
L14.4223 19.9921
" />
<path d="M14.4223 19.9921
L13.8176 20.1131
" />
<path d="M15.5109 19.6898
L15.5109 20.5364
" />
<path d="M14.9666 19.6898
L14.9666 20.3550
" />
<path d="M14.9666 20.3550
L15.0271 20.4760
" />
<path d="M15.0271 20.4760
L15.1481 20.5364
" />
<path d="M15.1481 20.5364
L15.3295 20.5364
" />
<path d="M15.3295 20.5364
L15.4504 20.4760
" />
<path d="M15.4504 20.4760
L15.5109 20.4155
" />
<path d="M16.1156 20.5364
L16.1156 19.6898
" />
<path d="M16.1156 19.8107
L16.1761 19.7502
" />
<path d="M16.1761 19.7502
L16.2971 19.6898
" />
<path d="M16.2971 19.6898
L16.4785 19.6898
" />
<path d="M16.4785 19.6898
L16.5994 19.7502
" />
<path d="M16.5994 19.7502
L16.6599 19.8712
" />
<path d="M16.6599 19.8712
L16.6599 20.5364
" />
<path d="M16.6599 19.8712
L16.7204 19.7502
" />
<path d="M16.7204 19.7502
L16.8413 19.6898
" />
<path d="M16.8413 19.6898
L17.0228 19.6898
" />
<path d="M17.0228 19.6898
L17.1437 19.7502
" />
<path d="M17.1437 19.7502
L17.2042 19.8712
" />
<path d="M17.2042 19.8712
L17.2042 20.5364
" />
<path d="M18.3532 20.5364
L18.3532 19.8712
" />
<path d="M18.3532 19.8712
L18.2927 19.7502
" />
<path d="M18.2927 19.7502
L18.1718 19.6898
" />
<path d="M18.1718 19.6898
L17.9299 19.6898
" />
<path d="M17.9299 19.6898
L17.8089 19.7502
" />
<path d="M18.3532 20.4760
L18.2323 20.5364
" />
<path d="M18.2323 20.5364
L17.9299 20.5364
" />
<path d="M17.9299 20.5364
L17.8089 20.4760
" />
<path d="M17.8089 20.4760
L17.7485 20.3550
" />
<path d="M17.7485 20.3550
L17.7485 20.2340
" />
<path d="M17.7485 20.2340
L17.8089 20.1131
" />
<path d="M17.8089 20.1131
L17.9299 20.0526
" />
<path d="M17.9299 20.0526
L18.2323 20.0526
" />
<path d="M18.2323 20.0526
L18.3532 19.9921
" />
<path d="M18.7765 19.6898
L19.2603 19.6898
" />
<path d="M18.9579 19.2664
L18.9579 20.3550
" />
<path d="M18.9579 20.3550
L19.0184 20.4760
" />
<path d="M19.0184 20.4760
L19.1394 20.5364
" />
<path d="M19.1394 20.5364
L19.2603 20.5364
" />
<path d="M19.6836 20.5364
L19.6836 19.6898
" />
<path d="M19.6836 19.2664
L19.6232 19.3269
" />
<path d="M19.6232 19.3269
L19.6836 19.3874
" />
<path d="M19.6836 19.3874
L19.7441 19.3269
" />
<path d="M19.7441 19.3269
L19.6836 19.2664
" />
<path d="M19.6836 19.2664
L19.6836 19.3874
" />
<path d="M20.8327 20.4760
L20.7118 20.5364
" />
<path d="M20.7118 20.5364
L20.4699 20.5364
" />
<path d="M20.4699 20.5364
L20.3489 20.4760
" />
<path d="M20.3489 20.4760
L20.2884 20.4155
" />
<path d="M20.2884 20.4155
L20.2280 20.2945
" />
<path d="M20.2280 20.2945
L20.2280 19.9317
" />
<path d="M20.2280 19.9317
L20.2884 19.8107
" />
<path d="M20.2884 19.8107
L20.3489 19.7502
" />
<path d="M20.3489 19.7502
L20.4699 19.6898
" />
<path d="M20.4699 19.6898
L20.7118 19.6898
" />
<path d="M20.7118 19.6898
L20.8327 19.7502
" />
<path d="M21.0747 20.6574
L22.0423 20.6574
" />
<path d="M22.1632 19.2664
L22.5865 20.5364
" />
<path d="M22.5865 20.5364
L23.0099 19.2664
" />
<path d="M23.9775 20.5364
L23.9775 19.8712
" />
<path d="M23.9775 19.8712
L23.9170 19.7502
" />
<path d="M23.9170 19.7502
L23.7961 19.6898
" />
<path d="M23.7961 19.6898
L23.5542 19.6898
" />
<path d="M23.5542 19.6898
L23.4332 19.7502
" />
<path d="M23.9775 20.4760
L23.8566 20.5364
" />
<path d="M23.8566 20.5364
L23.5542 20.5364
" />
<path d="M23.5542 20.5364
L23.4332 20.4760
" />
<path d="M23.4332 20.4760
L23.3728 20.3550
" />
<path d="M23.3728 20.3550
L23.3728 20.2340
" />
<path d="M23.3728 20.2340
L23.4332 20.1131
" />
<path d="M23.4332 20.1131
L23.5542 20.0526
" />
<path d="M23.5542 20.0526
L23.8566 20.0526
" />
<path d="M23.8566 20.0526
L23.9775 19.9921
" />
<path d="M24.7637 20.5364
L24.6427 20.4760
" />
<path d="M24.6427 20.4760
L24.5822 20.3550
" />
<path d="M24.5822 20.3550
L24.5822 19.2664
" />
<path d="M25.1265 19.6898
L25.4289 20.5364
" />
<path d="M25.4289 20.5364
L25.7312 19.6898
" />
<path d="M26.6988 20.4760
L26.5779 20.5364
" />
<path d="M26.5779 20.5364
L26.3360 20.5364
" />
<path d="M26.3360 20.5364
L26.2150 20.4760
" />
<path d="M26.2150 20.4760
L26.1546 20.3550
" />
<path d="M26.1546 20.3550
L26.1546 19.8712
" />
<path d="M26.1546 19.8712
L26.2150 19.7502
" />
<path d="M26.2150 19.7502
L26.3360 19.6898
" />
<path d="M26.3360 19.6898
L26.5779 19.6898
" />
<path d="M26.5779 19.6898
L26.6988 19.7502
" />
<path d="M26.6988 19.7502
L26.7593 19.8712
" />
<path d="M26.7593 19.8712
L26.7593 19.9921
" />
<path d="M26.7593 19.9921
L26.1546 20.1131
" />
<path d="M27.4851 20.4155
L27.5455 20.4760
" />
<path d="M27.5455 20.4760
L27.4851 20.5364
" />
<path d="M27.4851 20.5364
L27.4246 20.4760
" />
<path d="M27.4246 20.4760
L27.4851 20.4155
" />
<path d="M27.4851 20.4155
L27.4851 20.5364
" />
<path d="M27.2432 19.3269
L27.3641 19.2664
" />
<path d="M27.3641 19.2664
L27.6665 19.2664
" />
<path d="M27.6665 19.2664
L27.7874 19.3269
" />
<path d="M27.7874 19.3269
L27.8479 19.4479
" />
<path d="M27.8479 19.4479
L27.8479 19.5688
" />
<path d="M27.8479 19.5688
L27.7874 19.6898
" />
<path d="M27.7874 19.6898
L27.7270 19.7502
" />
<path d="M27.7270 19.7502
L27.6060 19.8107
" />
<path d="M27.6060 19.8107
L27.5455 19.8712
" />
<path d="M27.5455 19.8712
L27.4851 19.9921
" />
<path d="M27.4851 19.9921
L27.4851 20.0526
" />
</g></g>
</svg>
