<?xml version="1.0" standalone="no"?>
 <!DOCTYPE svg PUBLIC "-//W3C//DTD SVG 1.1//EN"
 "http://www.w3.org/Graphics/SVG/1.1/DTD/svg11.dtd">
<svg
  xmlns:svg="http://www.w3.org/2000/svg"
  xmlns="http://www.w3.org/2000/svg"
  xmlns:xlink="http://www.w3.org/1999/xlink"
  xmlns:inkscape="http://www.inkscape.org/namespaces/inkscape"
  version="1.1"
  width="26.3144mm" height="22.8854mm" viewBox="0.0000 0.0000 26.3144 22.8854">
<title>SVG Image created as Valve - Butterfly Manual_unit1.svg date 2026-05-31T14:38:06 </title>
  <desc>Image generated by Eeschema-SVG </desc>
<g style="fill:#000000; fill-opacity:1.0000;stroke:#000000; stroke-opacity:1.0000;
stroke-linecap:round; stroke-linejoin:round;"
 transform="translate(0 0) scale(1 1)">
<path style="fill:#840000; fill-opacity:1.0000;
stroke:#840000; stroke-width:0.1000; stroke-opacity:1;
stroke-linecap:round; stroke-linejoin:round;fill-rule:evenodd;"
d="M 7.1572,9.9569
7.1572,9.7069
8.1572,9.9569
7.1572,10.2069
Z" />
<path style="fill:none;
stroke:#840000; stroke-width:0.1000; stroke-opacity:1;
stroke-linecap:round; stroke-linejoin:round;fill:none"
d="M 8.1572,7.9569
8.1572,11.9569
" />
<path style="fill:none;
stroke:#840000; stroke-width:0.1000; stroke-opacity:1;
stroke-linecap:round; stroke-linejoin:round;fill:none"
d="M 8.6572,11.7069
13.1572,9.9569
" />
<path style="fill:none;
stroke:#840000; stroke-width:0.1000; stroke-opacity:1;
stroke-linecap:round; stroke-linejoin:round;fill:none"
d="M 13.1572,6.9569
13.1572,9.9569
" />
<path style="fill:none;
stroke:#840000; stroke-width:0.1000; stroke-opacity:1;
stroke-linecap:round; stroke-linejoin:round;fill:none"
d="M 13.1572,9.9569
17.6572,8.2069
" />
</g>
<g style="fill:#840000; fill-opacity:1.0000;
stroke:#840000; stroke-width:0.1524; stroke-opacity:1;
stroke-linecap:round; stroke-linejoin:round;">
<circle cx="13.1572" cy="9.9569" r="0.5000" />
<path style="fill:none;
stroke:#840000; stroke-width:0.1000; stroke-opacity:1;
stroke-linecap:round; stroke-linejoin:round;fill:none"
d="M 15.1572,6.9569
11.1572,6.9569
" />
<path style="fill:none;
stroke:#840000; stroke-width:0.1000; stroke-opacity:1;
stroke-linecap:round; stroke-linejoin:round;fill:none"
d="M 18.1572,7.9569
18.1572,11.9569
" />
<path style="fill:#840000; fill-opacity:1.0000;
stroke:#840000; stroke-width:0.1000; stroke-opacity:1;
stroke-linecap:round; stroke-linejoin:round;fill-rule:evenodd;"
d="M 19.1572,9.9569
19.1572,9.7069
20.1572,9.9569
19.1572,10.2069
Z" />
</g>
<g style="fill:none;
stroke:#840000; stroke-width:0.1524; stroke-opacity:1;
stroke-linecap:round; stroke-linejoin:round;">
<path d="M8.1572 9.9569
L5.1572 9.9569
" />
<path d="M18.1572 9.9569
L21.1572 9.9569
" />
</g>
<g style="fill:none;
stroke:#006464; stroke-width:0.1524; stroke-opacity:1;
stroke-linecap:round; stroke-linejoin:round;">
<text x="13.1572" y="20.5919"
textLength="23.0023" font-size="1.6933" lengthAdjust="spacingAndGlyphs"
text-anchor="middle" opacity="0" stroke-opacity="0">Butterfly_Manual_Valve?</text>
<g class="stroked-text"><desc>Butterfly_Manual_Valve?</desc>
<path d="M2.4834 19.8712
L2.6648 19.9317
" />
<path d="M2.6648 19.9317
L2.7253 19.9921
" />
<path d="M2.7253 19.9921
L2.7857 20.1131
" />
<path d="M2.7857 20.1131
L2.7857 20.2945
" />
<path d="M2.7857 20.2945
L2.7253 20.4155
" />
<path d="M2.7253 20.4155
L2.6648 20.4760
" />
<path d="M2.6648 20.4760
L2.5438 20.5364
" />
<path d="M2.5438 20.5364
L2.0600 20.5364
" />
<path d="M2.0600 20.5364
L2.0600 19.2664
" />
<path d="M2.0600 19.2664
L2.4834 19.2664
" />
<path d="M2.4834 19.2664
L2.6043 19.3269
" />
<path d="M2.6043 19.3269
L2.6648 19.3874
" />
<path d="M2.6648 19.3874
L2.7253 19.5083
" />
<path d="M2.7253 19.5083
L2.7253 19.6293
" />
<path d="M2.7253 19.6293
L2.6648 19.7502
" />
<path d="M2.6648 19.7502
L2.6043 19.8107
" />
<path d="M2.6043 19.8107
L2.4834 19.8712
" />
<path d="M2.4834 19.8712
L2.0600 19.8712
" />
<path d="M3.8743 19.6898
L3.8743 20.5364
" />
<path d="M3.3300 19.6898
L3.3300 20.3550
" />
<path d="M3.3300 20.3550
L3.3905 20.4760
" />
<path d="M3.3905 20.4760
L3.5115 20.5364
" />
<path d="M3.5115 20.5364
L3.6929 20.5364
" />
<path d="M3.6929 20.5364
L3.8138 20.4760
" />
<path d="M3.8138 20.4760
L3.8743 20.4155
" />
<path d="M4.2976 19.6898
L4.7814 19.6898
" />
<path d="M4.4790 19.2664
L4.4790 20.3550
" />
<path d="M4.4790 20.3550
L4.5395 20.4760
" />
<path d="M4.5395 20.4760
L4.6605 20.5364
" />
<path d="M4.6605 20.5364
L4.7814 20.5364
" />
<path d="M5.0233 19.6898
L5.5071 19.6898
" />
<path d="M5.2047 19.2664
L5.2047 20.3550
" />
<path d="M5.2047 20.3550
L5.2652 20.4760
" />
<path d="M5.2652 20.4760
L5.3862 20.5364
" />
<path d="M5.3862 20.5364
L5.5071 20.5364
" />
<path d="M6.4142 20.4760
L6.2933 20.5364
" />
<path d="M6.2933 20.5364
L6.0514 20.5364
" />
<path d="M6.0514 20.5364
L5.9304 20.4760
" />
<path d="M5.9304 20.4760
L5.8700 20.3550
" />
<path d="M5.8700 20.3550
L5.8700 19.8712
" />
<path d="M5.8700 19.8712
L5.9304 19.7502
" />
<path d="M5.9304 19.7502
L6.0514 19.6898
" />
<path d="M6.0514 19.6898
L6.2933 19.6898
" />
<path d="M6.2933 19.6898
L6.4142 19.7502
" />
<path d="M6.4142 19.7502
L6.4747 19.8712
" />
<path d="M6.4747 19.8712
L6.4747 19.9921
" />
<path d="M6.4747 19.9921
L5.8700 20.1131
" />
<path d="M7.0190 20.5364
L7.0190 19.6898
" />
<path d="M7.0190 19.9317
L7.0795 19.8107
" />
<path d="M7.0795 19.8107
L7.1400 19.7502
" />
<path d="M7.1400 19.7502
L7.2609 19.6898
" />
<path d="M7.2609 19.6898
L7.3819 19.6898
" />
<path d="M7.6238 19.6898
L8.1076 19.6898
" />
<path d="M7.8052 20.5364
L7.8052 19.4479
" />
<path d="M7.8052 19.4479
L7.8657 19.3269
" />
<path d="M7.8657 19.3269
L7.9867 19.2664
" />
<path d="M7.9867 19.2664
L8.1076 19.2664
" />
<path d="M8.7124 20.5364
L8.5914 20.4760
" />
<path d="M8.5914 20.4760
L8.5309 20.3550
" />
<path d="M8.5309 20.3550
L8.5309 19.2664
" />
<path d="M9.0752 19.6898
L9.3776 20.5364
" />
<path d="M9.6799 19.6898
L9.3776 20.5364
" />
<path d="M9.3776 20.5364
L9.2566 20.8388
" />
<path d="M9.2566 20.8388
L9.1961 20.8993
" />
<path d="M9.1961 20.8993
L9.0752 20.9598
" />
<path d="M9.8614 20.6574
L10.8290 20.6574
" />
<path d="M11.1313 20.5364
L11.1313 19.2664
" />
<path d="M11.1313 19.2664
L11.5547 20.1736
" />
<path d="M11.5547 20.1736
L11.9780 19.2664
" />
<path d="M11.9780 19.2664
L11.9780 20.5364
" />
<path d="M13.1270 20.5364
L13.1270 19.8712
" />
<path d="M13.1270 19.8712
L13.0665 19.7502
" />
<path d="M13.0665 19.7502
L12.9456 19.6898
" />
<path d="M12.9456 19.6898
L12.7037 19.6898
" />
<path d="M12.7037 19.6898
L12.5827 19.7502
" />
<path d="M13.1270 20.4760
L13.0061 20.5364
" />
<path d="M13.0061 20.5364
L12.7037 20.5364
" />
<path d="M12.7037 20.5364
L12.5827 20.4760
" />
<path d="M12.5827 20.4760
L12.5223 20.3550
" />
<path d="M12.5223 20.3550
L12.5223 20.2340
" />
<path d="M12.5223 20.2340
L12.5827 20.1131
" />
<path d="M12.5827 20.1131
L12.7037 20.0526
" />
<path d="M12.7037 20.0526
L13.0061 20.0526
" />
<path d="M13.0061 20.0526
L13.1270 19.9921
" />
<path d="M13.7317 19.6898
L13.7317 20.5364
" />
<path d="M13.7317 19.8107
L13.7922 19.7502
" />
<path d="M13.7922 19.7502
L13.9132 19.6898
" />
<path d="M13.9132 19.6898
L14.0946 19.6898
" />
<path d="M14.0946 19.6898
L14.2155 19.7502
" />
<path d="M14.2155 19.7502
L14.2760 19.8712
" />
<path d="M14.2760 19.8712
L14.2760 20.5364
" />
<path d="M15.4250 19.6898
L15.4250 20.5364
" />
<path d="M14.8807 19.6898
L14.8807 20.3550
" />
<path d="M14.8807 20.3550
L14.9412 20.4760
" />
<path d="M14.9412 20.4760
L15.0622 20.5364
" />
<path d="M15.0622 20.5364
L15.2436 20.5364
" />
<path d="M15.2436 20.5364
L15.3645 20.4760
" />
<path d="M15.3645 20.4760
L15.4250 20.4155
" />
<path d="M16.5740 20.5364
L16.5740 19.8712
" />
<path d="M16.5740 19.8712
L16.5135 19.7502
" />
<path d="M16.5135 19.7502
L16.3926 19.6898
" />
<path d="M16.3926 19.6898
L16.1507 19.6898
" />
<path d="M16.1507 19.6898
L16.0297 19.7502
" />
<path d="M16.5740 20.4760
L16.4531 20.5364
" />
<path d="M16.4531 20.5364
L16.1507 20.5364
" />
<path d="M16.1507 20.5364
L16.0297 20.4760
" />
<path d="M16.0297 20.4760
L15.9693 20.3550
" />
<path d="M15.9693 20.3550
L15.9693 20.2340
" />
<path d="M15.9693 20.2340
L16.0297 20.1131
" />
<path d="M16.0297 20.1131
L16.1507 20.0526
" />
<path d="M16.1507 20.0526
L16.4531 20.0526
" />
<path d="M16.4531 20.0526
L16.5740 19.9921
" />
<path d="M17.3602 20.5364
L17.2392 20.4760
" />
<path d="M17.2392 20.4760
L17.1787 20.3550
" />
<path d="M17.1787 20.3550
L17.1787 19.2664
" />
<path d="M17.5416 20.6574
L18.5092 20.6574
" />
<path d="M18.6301 19.2664
L19.0534 20.5364
" />
<path d="M19.0534 20.5364
L19.4768 19.2664
" />
<path d="M20.4444 20.5364
L20.4444 19.8712
" />
<path d="M20.4444 19.8712
L20.3839 19.7502
" />
<path d="M20.3839 19.7502
L20.2630 19.6898
" />
<path d="M20.2630 19.6898
L20.0211 19.6898
" />
<path d="M20.0211 19.6898
L19.9001 19.7502
" />
<path d="M20.4444 20.4760
L20.3235 20.5364
" />
<path d="M20.3235 20.5364
L20.0211 20.5364
" />
<path d="M20.0211 20.5364
L19.9001 20.4760
" />
<path d="M19.9001 20.4760
L19.8397 20.3550
" />
<path d="M19.8397 20.3550
L19.8397 20.2340
" />
<path d="M19.8397 20.2340
L19.9001 20.1131
" />
<path d="M19.9001 20.1131
L20.0211 20.0526
" />
<path d="M20.0211 20.0526
L20.3235 20.0526
" />
<path d="M20.3235 20.0526
L20.4444 19.9921
" />
<path d="M21.2306 20.5364
L21.1096 20.4760
" />
<path d="M21.1096 20.4760
L21.0491 20.3550
" />
<path d="M21.0491 20.3550
L21.0491 19.2664
" />
<path d="M21.5934 19.6898
L21.8958 20.5364
" />
<path d="M21.8958 20.5364
L22.1981 19.6898
" />
<path d="M23.1657 20.4760
L23.0448 20.5364
" />
<path d="M23.0448 20.5364
L22.8029 20.5364
" />
<path d="M22.8029 20.5364
L22.6819 20.4760
" />
<path d="M22.6819 20.4760
L22.6215 20.3550
" />
<path d="M22.6215 20.3550
L22.6215 19.8712
" />
<path d="M22.6215 19.8712
L22.6819 19.7502
" />
<path d="M22.6819 19.7502
L22.8029 19.6898
" />
<path d="M22.8029 19.6898
L23.0448 19.6898
" />
<path d="M23.0448 19.6898
L23.1657 19.7502
" />
<path d="M23.1657 19.7502
L23.2262 19.8712
" />
<path d="M23.2262 19.8712
L23.2262 19.9921
" />
<path d="M23.2262 19.9921
L22.6215 20.1131
" />
<path d="M23.9520 20.4155
L24.0124 20.4760
" />
<path d="M24.0124 20.4760
L23.9520 20.5364
" />
<path d="M23.9520 20.5364
L23.8915 20.4760
" />
<path d="M23.8915 20.4760
L23.9520 20.4155
" />
<path d="M23.9520 20.4155
L23.9520 20.5364
" />
<path d="M23.7101 19.3269
L23.8310 19.2664
" />
<path d="M23.8310 19.2664
L24.1334 19.2664
" />
<path d="M24.1334 19.2664
L24.2543 19.3269
" />
<path d="M24.2543 19.3269
L24.3148 19.4479
" />
<path d="M24.3148 19.4479
L24.3148 19.5688
" />
<path d="M24.3148 19.5688
L24.2543 19.6898
" />
<path d="M24.2543 19.6898
L24.1939 19.7502
" />
<path d="M24.1939 19.7502
L24.0729 19.8107
" />
<path d="M24.0729 19.8107
L24.0124 19.8712
" />
<path d="M24.0124 19.8712
L23.9520 19.9921
" />
<path d="M23.9520 19.9921
L23.9520 20.0526
" />
</g></g>
</svg>
