<?xml version="1.0" standalone="no"?>
 <!DOCTYPE svg PUBLIC "-//W3C//DTD SVG 1.1//EN"
 "http://www.w3.org/Graphics/SVG/1.1/DTD/svg11.dtd">
<svg
  xmlns:svg="http://www.w3.org/2000/svg"
  xmlns="http://www.w3.org/2000/svg"
  xmlns:xlink="http://www.w3.org/1999/xlink"
  xmlns:inkscape="http://www.inkscape.org/namespaces/inkscape"
  version="1.1"
  width="20.1168mm" height="22.8854mm" viewBox="0.0000 0.0000 20.1168 22.8854">
<title>SVG Image created as Valve - Diaphragm_unit1.svg date 2026-05-31T11:36:22 </title>
  <desc>Image generated by Eeschema-SVG </desc>
<g style="fill:#000000; fill-opacity:1.0000;stroke:#000000; stroke-opacity:1.0000;
stroke-linecap:round; stroke-linejoin:round;"
 transform="translate(0 0) scale(1 1)">
<path style="fill:none;
stroke:#840000; stroke-width:0.1000; stroke-opacity:1;
stroke-linecap:round; stroke-linejoin:round;fill:none"
d="M 10.0584,9.9569
5.0584,7.9569
5.0584,11.9569
Z" />
<path style="fill:none;
stroke:#840000; stroke-width:0.1000; stroke-opacity:1;
stroke-linecap:round; stroke-linejoin:round;fill:none"
d="M 10.0584,9.9569
15.0584,7.9569
15.0584,11.9569
Z" />
</g>
<g style="fill:none;
stroke:#840000; stroke-width:0.1000; stroke-opacity:1;
stroke-linecap:round; stroke-linejoin:round;">
<path d="M13.0584 9.9569 A3.2500 3.2500 0.0 0 0 7.0584 9.9569" />
</g>
<g style="fill:none;
stroke:#840000; stroke-width:0.1524; stroke-opacity:1;
stroke-linecap:round; stroke-linejoin:round;">
<path d="M5.0584 9.9569
L2.0584 9.9569
" />
<path d="M15.0584 9.9569
L18.0584 9.9569
" />
</g>
<g style="fill:none;
stroke:#006464; stroke-width:0.1524; stroke-opacity:1;
stroke-linecap:round; stroke-linejoin:round;">
<text x="10.0584" y="20.5919"
textLength="17.3177" font-size="1.6933" lengthAdjust="spacingAndGlyphs"
text-anchor="middle" opacity="0" stroke-opacity="0">Diaphragm_Valve?</text>
<g class="stroked-text"><desc>Diaphragm_Valve?</desc>
<path d="M1.8035 20.5364
L1.8035 19.2664
" />
<path d="M1.8035 19.2664
L2.1059 19.2664
" />
<path d="M2.1059 19.2664
L2.2873 19.3269
" />
<path d="M2.2873 19.3269
L2.4083 19.4479
" />
<path d="M2.4083 19.4479
L2.4688 19.5688
" />
<path d="M2.4688 19.5688
L2.5292 19.8107
" />
<path d="M2.5292 19.8107
L2.5292 19.9921
" />
<path d="M2.5292 19.9921
L2.4688 20.2340
" />
<path d="M2.4688 20.2340
L2.4083 20.3550
" />
<path d="M2.4083 20.3550
L2.2873 20.4760
" />
<path d="M2.2873 20.4760
L2.1059 20.5364
" />
<path d="M2.1059 20.5364
L1.8035 20.5364
" />
<path d="M3.0735 20.5364
L3.0735 19.6898
" />
<path d="M3.0735 19.2664
L3.0131 19.3269
" />
<path d="M3.0131 19.3269
L3.0735 19.3874
" />
<path d="M3.0735 19.3874
L3.1340 19.3269
" />
<path d="M3.1340 19.3269
L3.0735 19.2664
" />
<path d="M3.0735 19.2664
L3.0735 19.3874
" />
<path d="M4.2226 20.5364
L4.2226 19.8712
" />
<path d="M4.2226 19.8712
L4.1621 19.7502
" />
<path d="M4.1621 19.7502
L4.0412 19.6898
" />
<path d="M4.0412 19.6898
L3.7993 19.6898
" />
<path d="M3.7993 19.6898
L3.6783 19.7502
" />
<path d="M4.2226 20.4760
L4.1017 20.5364
" />
<path d="M4.1017 20.5364
L3.7993 20.5364
" />
<path d="M3.7993 20.5364
L3.6783 20.4760
" />
<path d="M3.6783 20.4760
L3.6179 20.3550
" />
<path d="M3.6179 20.3550
L3.6179 20.2340
" />
<path d="M3.6179 20.2340
L3.6783 20.1131
" />
<path d="M3.6783 20.1131
L3.7993 20.0526
" />
<path d="M3.7993 20.0526
L4.1017 20.0526
" />
<path d="M4.1017 20.0526
L4.2226 19.9921
" />
<path d="M4.8273 19.6898
L4.8273 20.9598
" />
<path d="M4.8273 19.7502
L4.9483 19.6898
" />
<path d="M4.9483 19.6898
L5.1902 19.6898
" />
<path d="M5.1902 19.6898
L5.3111 19.7502
" />
<path d="M5.3111 19.7502
L5.3716 19.8107
" />
<path d="M5.3716 19.8107
L5.4321 19.9317
" />
<path d="M5.4321 19.9317
L5.4321 20.2945
" />
<path d="M5.4321 20.2945
L5.3716 20.4155
" />
<path d="M5.3716 20.4155
L5.3111 20.4760
" />
<path d="M5.3111 20.4760
L5.1902 20.5364
" />
<path d="M5.1902 20.5364
L4.9483 20.5364
" />
<path d="M4.9483 20.5364
L4.8273 20.4760
" />
<path d="M5.9763 20.5364
L5.9763 19.2664
" />
<path d="M6.5206 20.5364
L6.5206 19.8712
" />
<path d="M6.5206 19.8712
L6.4601 19.7502
" />
<path d="M6.4601 19.7502
L6.3392 19.6898
" />
<path d="M6.3392 19.6898
L6.1578 19.6898
" />
<path d="M6.1578 19.6898
L6.0368 19.7502
" />
<path d="M6.0368 19.7502
L5.9763 19.8107
" />
<path d="M7.1253 20.5364
L7.1253 19.6898
" />
<path d="M7.1253 19.9317
L7.1858 19.8107
" />
<path d="M7.1858 19.8107
L7.2463 19.7502
" />
<path d="M7.2463 19.7502
L7.3672 19.6898
" />
<path d="M7.3672 19.6898
L7.4882 19.6898
" />
<path d="M8.4558 20.5364
L8.4558 19.8712
" />
<path d="M8.4558 19.8712
L8.3953 19.7502
" />
<path d="M8.3953 19.7502
L8.2744 19.6898
" />
<path d="M8.2744 19.6898
L8.0325 19.6898
" />
<path d="M8.0325 19.6898
L7.9115 19.7502
" />
<path d="M8.4558 20.4760
L8.3349 20.5364
" />
<path d="M8.3349 20.5364
L8.0325 20.5364
" />
<path d="M8.0325 20.5364
L7.9115 20.4760
" />
<path d="M7.9115 20.4760
L7.8511 20.3550
" />
<path d="M7.8511 20.3550
L7.8511 20.2340
" />
<path d="M7.8511 20.2340
L7.9115 20.1131
" />
<path d="M7.9115 20.1131
L8.0325 20.0526
" />
<path d="M8.0325 20.0526
L8.3349 20.0526
" />
<path d="M8.3349 20.0526
L8.4558 19.9921
" />
<path d="M9.6048 19.6898
L9.6048 20.7179
" />
<path d="M9.6048 20.7179
L9.5443 20.8388
" />
<path d="M9.5443 20.8388
L9.4839 20.8993
" />
<path d="M9.4839 20.8993
L9.3629 20.9598
" />
<path d="M9.3629 20.9598
L9.1815 20.9598
" />
<path d="M9.1815 20.9598
L9.0605 20.8993
" />
<path d="M9.6048 20.4760
L9.4839 20.5364
" />
<path d="M9.4839 20.5364
L9.2420 20.5364
" />
<path d="M9.2420 20.5364
L9.1210 20.4760
" />
<path d="M9.1210 20.4760
L9.0605 20.4155
" />
<path d="M9.0605 20.4155
L9.0001 20.2945
" />
<path d="M9.0001 20.2945
L9.0001 19.9317
" />
<path d="M9.0001 19.9317
L9.0605 19.8107
" />
<path d="M9.0605 19.8107
L9.1210 19.7502
" />
<path d="M9.1210 19.7502
L9.2420 19.6898
" />
<path d="M9.2420 19.6898
L9.4839 19.6898
" />
<path d="M9.4839 19.6898
L9.6048 19.7502
" />
<path d="M10.2095 20.5364
L10.2095 19.6898
" />
<path d="M10.2095 19.8107
L10.2700 19.7502
" />
<path d="M10.2700 19.7502
L10.3910 19.6898
" />
<path d="M10.3910 19.6898
L10.5724 19.6898
" />
<path d="M10.5724 19.6898
L10.6933 19.7502
" />
<path d="M10.6933 19.7502
L10.7538 19.8712
" />
<path d="M10.7538 19.8712
L10.7538 20.5364
" />
<path d="M10.7538 19.8712
L10.8143 19.7502
" />
<path d="M10.8143 19.7502
L10.9352 19.6898
" />
<path d="M10.9352 19.6898
L11.1167 19.6898
" />
<path d="M11.1167 19.6898
L11.2376 19.7502
" />
<path d="M11.2376 19.7502
L11.2981 19.8712
" />
<path d="M11.2981 19.8712
L11.2981 20.5364
" />
<path d="M11.6005 20.6574
L12.5681 20.6574
" />
<path d="M12.6890 19.2664
L13.1123 20.5364
" />
<path d="M13.1123 20.5364
L13.5357 19.2664
" />
<path d="M14.5033 20.5364
L14.5033 19.8712
" />
<path d="M14.5033 19.8712
L14.4428 19.7502
" />
<path d="M14.4428 19.7502
L14.3219 19.6898
" />
<path d="M14.3219 19.6898
L14.0800 19.6898
" />
<path d="M14.0800 19.6898
L13.9590 19.7502
" />
<path d="M14.5033 20.4760
L14.3824 20.5364
" />
<path d="M14.3824 20.5364
L14.0800 20.5364
" />
<path d="M14.0800 20.5364
L13.9590 20.4760
" />
<path d="M13.9590 20.4760
L13.8986 20.3550
" />
<path d="M13.8986 20.3550
L13.8986 20.2340
" />
<path d="M13.8986 20.2340
L13.9590 20.1131
" />
<path d="M13.9590 20.1131
L14.0800 20.0526
" />
<path d="M14.0800 20.0526
L14.3824 20.0526
" />
<path d="M14.3824 20.0526
L14.5033 19.9921
" />
<path d="M15.2895 20.5364
L15.1685 20.4760
" />
<path d="M15.1685 20.4760
L15.1080 20.3550
" />
<path d="M15.1080 20.3550
L15.1080 19.2664
" />
<path d="M15.6523 19.6898
L15.9547 20.5364
" />
<path d="M15.9547 20.5364
L16.2570 19.6898
" />
<path d="M17.2246 20.4760
L17.1037 20.5364
" />
<path d="M17.1037 20.5364
L16.8618 20.5364
" />
<path d="M16.8618 20.5364
L16.7408 20.4760
" />
<path d="M16.7408 20.4760
L16.6804 20.3550
" />
<path d="M16.6804 20.3550
L16.6804 19.8712
" />
<path d="M16.6804 19.8712
L16.7408 19.7502
" />
<path d="M16.7408 19.7502
L16.8618 19.6898
" />
<path d="M16.8618 19.6898
L17.1037 19.6898
" />
<path d="M17.1037 19.6898
L17.2246 19.7502
" />
<path d="M17.2246 19.7502
L17.2851 19.8712
" />
<path d="M17.2851 19.8712
L17.2851 19.9921
" />
<path d="M17.2851 19.9921
L16.6804 20.1131
" />
<path d="M18.0109 20.4155
L18.0713 20.4760
" />
<path d="M18.0713 20.4760
L18.0109 20.5364
" />
<path d="M18.0109 20.5364
L17.9504 20.4760
" />
<path d="M17.9504 20.4760
L18.0109 20.4155
" />
<path d="M18.0109 20.4155
L18.0109 20.5364
" />
<path d="M17.7690 19.3269
L17.8899 19.2664
" />
<path d="M17.8899 19.2664
L18.1923 19.2664
" />
<path d="M18.1923 19.2664
L18.3132 19.3269
" />
<path d="M18.3132 19.3269
L18.3737 19.4479
" />
<path d="M18.3737 19.4479
L18.3737 19.5688
" />
<path d="M18.3737 19.5688
L18.3132 19.6898
" />
<path d="M18.3132 19.6898
L18.2528 19.7502
" />
<path d="M18.2528 19.7502
L18.1318 19.8107
" />
<path d="M18.1318 19.8107
L18.0713 19.8712
" />
<path d="M18.0713 19.8712
L18.0109 19.9921
" />
<path d="M18.0109 19.9921
L18.0109 20.0526
" />
</g></g>
</svg>
