<?xml version="1.0" standalone="no"?>
 <!DOCTYPE svg PUBLIC "-//W3C//DTD SVG 1.1//EN"
 "http://www.w3.org/Graphics/SVG/1.1/DTD/svg11.dtd">
<svg
  xmlns:svg="http://www.w3.org/2000/svg"
  xmlns="http://www.w3.org/2000/svg"
  xmlns:xlink="http://www.w3.org/1999/xlink"
  xmlns:inkscape="http://www.inkscape.org/namespaces/inkscape"
  version="1.1"
  width="26.8224mm" height="22.8854mm" viewBox="0.0000 0.0000 26.8224 22.8854">
<title>SVG Image created as Valve - Globe Pneumatic_unit1.svg date 2026-05-31T14:38:07 </title>
  <desc>Image generated by Eeschema-SVG </desc>
<g style="fill:#000000; fill-opacity:1.0000;stroke:#000000; stroke-opacity:1.0000;
stroke-linecap:round; stroke-linejoin:round;"
 transform="translate(0 0) scale(1 1)">
<path style="fill:#840000; fill-opacity:1.0000;
stroke:#840000; stroke-width:0.1000; stroke-opacity:1;
stroke-linecap:round; stroke-linejoin:round;fill-rule:evenodd;"
d="M 7.4112,9.9569
7.4112,9.7069
8.4112,9.9569
7.4112,10.2069
Z" />
</g>
<g style="fill:none;
stroke:#840000; stroke-width:0.1000; stroke-opacity:1;
stroke-linecap:round; stroke-linejoin:round;">
<path d="M13.4112 4.9574 A1.9998 1.9998 0.0 0 0 11.4112 6.9569" />
<path d="M15.4073 6.9569 A1.9973 1.9973 0.0 0 0 13.4112 4.9569" />
<path style="fill:none;
stroke:#840000; stroke-width:0.1000; stroke-opacity:1;
stroke-linecap:round; stroke-linejoin:round;fill:none"
d="M 13.4112,6.9569
13.4112,9.9569
" />
<path style="fill:none;
stroke:#840000; stroke-width:0.1000; stroke-opacity:1;
stroke-linecap:round; stroke-linejoin:round;fill:none"
d="M 13.4112,9.9569
8.4112,7.9569
8.4112,11.9569
Z" />
<path style="fill:none;
stroke:#840000; stroke-width:0.1000; stroke-opacity:1;
stroke-linecap:round; stroke-linejoin:round;fill:none"
d="M 13.4112,9.9569
18.4112,7.9569
18.4112,11.9569
Z" />
<path style="fill:none;
stroke:#840000; stroke-width:0.1000; stroke-opacity:1;
stroke-linecap:round; stroke-linejoin:round;fill:none"
d="M 15.4112,6.9569
11.4112,6.9569
" />
<path style="fill:#840000; fill-opacity:1.0000;
stroke:#840000; stroke-width:0.1000; stroke-opacity:1;
stroke-linecap:round; stroke-linejoin:round;fill-rule:evenodd;"
d="M 19.4112,9.9569
19.4112,9.7069
20.4112,9.9569
19.4112,10.2069
Z" />
</g>
<g style="fill:none;
stroke:#840000; stroke-width:0.1524; stroke-opacity:1;
stroke-linecap:round; stroke-linejoin:round;">
<path d="M8.4112 9.9569
L5.4112 9.9569
" />
<path d="M18.4112 9.9569
L21.4112 9.9569
" />
</g>
<g style="fill:none;
stroke:#006464; stroke-width:0.1524; stroke-opacity:1;
stroke-linecap:round; stroke-linejoin:round;">
<text x="13.4112" y="20.5919"
textLength="23.4258" font-size="1.6933" lengthAdjust="spacingAndGlyphs"
text-anchor="middle" opacity="0" stroke-opacity="0">Globe_Pneumatic_Valve?</text>
<g class="stroked-text"><desc>Globe_Pneumatic_Valve?</desc>
<path d="M2.7675 19.3269
L2.6465 19.2664
" />
<path d="M2.6465 19.2664
L2.4651 19.2664
" />
<path d="M2.4651 19.2664
L2.2837 19.3269
" />
<path d="M2.2837 19.3269
L2.1627 19.4479
" />
<path d="M2.1627 19.4479
L2.1022 19.5688
" />
<path d="M2.1022 19.5688
L2.0418 19.8107
" />
<path d="M2.0418 19.8107
L2.0418 19.9921
" />
<path d="M2.0418 19.9921
L2.1022 20.2340
" />
<path d="M2.1022 20.2340
L2.1627 20.3550
" />
<path d="M2.1627 20.3550
L2.2837 20.4760
" />
<path d="M2.2837 20.4760
L2.4651 20.5364
" />
<path d="M2.4651 20.5364
L2.5860 20.5364
" />
<path d="M2.5860 20.5364
L2.7675 20.4760
" />
<path d="M2.7675 20.4760
L2.8279 20.4155
" />
<path d="M2.8279 20.4155
L2.8279 19.9921
" />
<path d="M2.8279 19.9921
L2.5860 19.9921
" />
<path d="M3.5537 20.5364
L3.4327 20.4760
" />
<path d="M3.4327 20.4760
L3.3722 20.3550
" />
<path d="M3.3722 20.3550
L3.3722 19.2664
" />
<path d="M4.2189 20.5364
L4.0979 20.4760
" />
<path d="M4.0979 20.4760
L4.0374 20.4155
" />
<path d="M4.0374 20.4155
L3.9770 20.2945
" />
<path d="M3.9770 20.2945
L3.9770 19.9317
" />
<path d="M3.9770 19.9317
L4.0374 19.8107
" />
<path d="M4.0374 19.8107
L4.0979 19.7502
" />
<path d="M4.0979 19.7502
L4.2189 19.6898
" />
<path d="M4.2189 19.6898
L4.4003 19.6898
" />
<path d="M4.4003 19.6898
L4.5212 19.7502
" />
<path d="M4.5212 19.7502
L4.5817 19.8107
" />
<path d="M4.5817 19.8107
L4.6422 19.9317
" />
<path d="M4.6422 19.9317
L4.6422 20.2945
" />
<path d="M4.6422 20.2945
L4.5817 20.4155
" />
<path d="M4.5817 20.4155
L4.5212 20.4760
" />
<path d="M4.5212 20.4760
L4.4003 20.5364
" />
<path d="M4.4003 20.5364
L4.2189 20.5364
" />
<path d="M5.1864 20.5364
L5.1864 19.2664
" />
<path d="M5.1864 19.7502
L5.3074 19.6898
" />
<path d="M5.3074 19.6898
L5.5493 19.6898
" />
<path d="M5.5493 19.6898
L5.6702 19.7502
" />
<path d="M5.6702 19.7502
L5.7307 19.8107
" />
<path d="M5.7307 19.8107
L5.7912 19.9317
" />
<path d="M5.7912 19.9317
L5.7912 20.2945
" />
<path d="M5.7912 20.2945
L5.7307 20.4155
" />
<path d="M5.7307 20.4155
L5.6702 20.4760
" />
<path d="M5.6702 20.4760
L5.5493 20.5364
" />
<path d="M5.5493 20.5364
L5.3074 20.5364
" />
<path d="M5.3074 20.5364
L5.1864 20.4760
" />
<path d="M6.8192 20.4760
L6.6983 20.5364
" />
<path d="M6.6983 20.5364
L6.4564 20.5364
" />
<path d="M6.4564 20.5364
L6.3354 20.4760
" />
<path d="M6.3354 20.4760
L6.2750 20.3550
" />
<path d="M6.2750 20.3550
L6.2750 19.8712
" />
<path d="M6.2750 19.8712
L6.3354 19.7502
" />
<path d="M6.3354 19.7502
L6.4564 19.6898
" />
<path d="M6.4564 19.6898
L6.6983 19.6898
" />
<path d="M6.6983 19.6898
L6.8192 19.7502
" />
<path d="M6.8192 19.7502
L6.8797 19.8712
" />
<path d="M6.8797 19.8712
L6.8797 19.9921
" />
<path d="M6.8797 19.9921
L6.2750 20.1131
" />
<path d="M7.1217 20.6574
L8.0893 20.6574
" />
<path d="M8.3916 20.5364
L8.3916 19.2664
" />
<path d="M8.3916 19.2664
L8.8754 19.2664
" />
<path d="M8.8754 19.2664
L8.9964 19.3269
" />
<path d="M8.9964 19.3269
L9.0569 19.3874
" />
<path d="M9.0569 19.3874
L9.1173 19.5083
" />
<path d="M9.1173 19.5083
L9.1173 19.6898
" />
<path d="M9.1173 19.6898
L9.0569 19.8107
" />
<path d="M9.0569 19.8107
L8.9964 19.8712
" />
<path d="M8.9964 19.8712
L8.8754 19.9317
" />
<path d="M8.8754 19.9317
L8.3916 19.9317
" />
<path d="M9.6616 19.6898
L9.6616 20.5364
" />
<path d="M9.6616 19.8107
L9.7221 19.7502
" />
<path d="M9.7221 19.7502
L9.8431 19.6898
" />
<path d="M9.8431 19.6898
L10.0245 19.6898
" />
<path d="M10.0245 19.6898
L10.1454 19.7502
" />
<path d="M10.1454 19.7502
L10.2059 19.8712
" />
<path d="M10.2059 19.8712
L10.2059 20.5364
" />
<path d="M11.2944 20.4760
L11.1735 20.5364
" />
<path d="M11.1735 20.5364
L10.9316 20.5364
" />
<path d="M10.9316 20.5364
L10.8106 20.4760
" />
<path d="M10.8106 20.4760
L10.7502 20.3550
" />
<path d="M10.7502 20.3550
L10.7502 19.8712
" />
<path d="M10.7502 19.8712
L10.8106 19.7502
" />
<path d="M10.8106 19.7502
L10.9316 19.6898
" />
<path d="M10.9316 19.6898
L11.1735 19.6898
" />
<path d="M11.1735 19.6898
L11.2944 19.7502
" />
<path d="M11.2944 19.7502
L11.3549 19.8712
" />
<path d="M11.3549 19.8712
L11.3549 19.9921
" />
<path d="M11.3549 19.9921
L10.7502 20.1131
" />
<path d="M12.4435 19.6898
L12.4435 20.5364
" />
<path d="M11.8992 19.6898
L11.8992 20.3550
" />
<path d="M11.8992 20.3550
L11.9597 20.4760
" />
<path d="M11.9597 20.4760
L12.0807 20.5364
" />
<path d="M12.0807 20.5364
L12.2621 20.5364
" />
<path d="M12.2621 20.5364
L12.3830 20.4760
" />
<path d="M12.3830 20.4760
L12.4435 20.4155
" />
<path d="M13.0482 20.5364
L13.0482 19.6898
" />
<path d="M13.0482 19.8107
L13.1087 19.7502
" />
<path d="M13.1087 19.7502
L13.2297 19.6898
" />
<path d="M13.2297 19.6898
L13.4111 19.6898
" />
<path d="M13.4111 19.6898
L13.5320 19.7502
" />
<path d="M13.5320 19.7502
L13.5925 19.8712
" />
<path d="M13.5925 19.8712
L13.5925 20.5364
" />
<path d="M13.5925 19.8712
L13.6530 19.7502
" />
<path d="M13.6530 19.7502
L13.7739 19.6898
" />
<path d="M13.7739 19.6898
L13.9554 19.6898
" />
<path d="M13.9554 19.6898
L14.0763 19.7502
" />
<path d="M14.0763 19.7502
L14.1368 19.8712
" />
<path d="M14.1368 19.8712
L14.1368 20.5364
" />
<path d="M15.2858 20.5364
L15.2858 19.8712
" />
<path d="M15.2858 19.8712
L15.2253 19.7502
" />
<path d="M15.2253 19.7502
L15.1044 19.6898
" />
<path d="M15.1044 19.6898
L14.8625 19.6898
" />
<path d="M14.8625 19.6898
L14.7415 19.7502
" />
<path d="M15.2858 20.4760
L15.1649 20.5364
" />
<path d="M15.1649 20.5364
L14.8625 20.5364
" />
<path d="M14.8625 20.5364
L14.7415 20.4760
" />
<path d="M14.7415 20.4760
L14.6811 20.3550
" />
<path d="M14.6811 20.3550
L14.6811 20.2340
" />
<path d="M14.6811 20.2340
L14.7415 20.1131
" />
<path d="M14.7415 20.1131
L14.8625 20.0526
" />
<path d="M14.8625 20.0526
L15.1649 20.0526
" />
<path d="M15.1649 20.0526
L15.2858 19.9921
" />
<path d="M15.7091 19.6898
L16.1929 19.6898
" />
<path d="M15.8905 19.2664
L15.8905 20.3550
" />
<path d="M15.8905 20.3550
L15.9510 20.4760
" />
<path d="M15.9510 20.4760
L16.0720 20.5364
" />
<path d="M16.0720 20.5364
L16.1929 20.5364
" />
<path d="M16.6162 20.5364
L16.6162 19.6898
" />
<path d="M16.6162 19.2664
L16.5558 19.3269
" />
<path d="M16.5558 19.3269
L16.6162 19.3874
" />
<path d="M16.6162 19.3874
L16.6767 19.3269
" />
<path d="M16.6767 19.3269
L16.6162 19.2664
" />
<path d="M16.6162 19.2664
L16.6162 19.3874
" />
<path d="M17.7653 20.4760
L17.6444 20.5364
" />
<path d="M17.6444 20.5364
L17.4025 20.5364
" />
<path d="M17.4025 20.5364
L17.2815 20.4760
" />
<path d="M17.2815 20.4760
L17.2210 20.4155
" />
<path d="M17.2210 20.4155
L17.1606 20.2945
" />
<path d="M17.1606 20.2945
L17.1606 19.9317
" />
<path d="M17.1606 19.9317
L17.2210 19.8107
" />
<path d="M17.2210 19.8107
L17.2815 19.7502
" />
<path d="M17.2815 19.7502
L17.4025 19.6898
" />
<path d="M17.4025 19.6898
L17.6444 19.6898
" />
<path d="M17.6444 19.6898
L17.7653 19.7502
" />
<path d="M18.0073 20.6574
L18.9749 20.6574
" />
<path d="M19.0958 19.2664
L19.5191 20.5364
" />
<path d="M19.5191 20.5364
L19.9425 19.2664
" />
<path d="M20.9101 20.5364
L20.9101 19.8712
" />
<path d="M20.9101 19.8712
L20.8496 19.7502
" />
<path d="M20.8496 19.7502
L20.7287 19.6898
" />
<path d="M20.7287 19.6898
L20.4868 19.6898
" />
<path d="M20.4868 19.6898
L20.3658 19.7502
" />
<path d="M20.9101 20.4760
L20.7892 20.5364
" />
<path d="M20.7892 20.5364
L20.4868 20.5364
" />
<path d="M20.4868 20.5364
L20.3658 20.4760
" />
<path d="M20.3658 20.4760
L20.3054 20.3550
" />
<path d="M20.3054 20.3550
L20.3054 20.2340
" />
<path d="M20.3054 20.2340
L20.3658 20.1131
" />
<path d="M20.3658 20.1131
L20.4868 20.0526
" />
<path d="M20.4868 20.0526
L20.7892 20.0526
" />
<path d="M20.7892 20.0526
L20.9101 19.9921
" />
<path d="M21.6963 20.5364
L21.5753 20.4760
" />
<path d="M21.5753 20.4760
L21.5148 20.3550
" />
<path d="M21.5148 20.3550
L21.5148 19.2664
" />
<path d="M22.0591 19.6898
L22.3615 20.5364
" />
<path d="M22.3615 20.5364
L22.6638 19.6898
" />
<path d="M23.6314 20.4760
L23.5105 20.5364
" />
<path d="M23.5105 20.5364
L23.2686 20.5364
" />
<path d="M23.2686 20.5364
L23.1476 20.4760
" />
<path d="M23.1476 20.4760
L23.0872 20.3550
" />
<path d="M23.0872 20.3550
L23.0872 19.8712
" />
<path d="M23.0872 19.8712
L23.1476 19.7502
" />
<path d="M23.1476 19.7502
L23.2686 19.6898
" />
<path d="M23.2686 19.6898
L23.5105 19.6898
" />
<path d="M23.5105 19.6898
L23.6314 19.7502
" />
<path d="M23.6314 19.7502
L23.6919 19.8712
" />
<path d="M23.6919 19.8712
L23.6919 19.9921
" />
<path d="M23.6919 19.9921
L23.0872 20.1131
" />
<path d="M24.4177 20.4155
L24.4781 20.4760
" />
<path d="M24.4781 20.4760
L24.4177 20.5364
" />
<path d="M24.4177 20.5364
L24.3572 20.4760
" />
<path d="M24.3572 20.4760
L24.4177 20.4155
" />
<path d="M24.4177 20.4155
L24.4177 20.5364
" />
<path d="M24.1758 19.3269
L24.2967 19.2664
" />
<path d="M24.2967 19.2664
L24.5991 19.2664
" />
<path d="M24.5991 19.2664
L24.7200 19.3269
" />
<path d="M24.7200 19.3269
L24.7805 19.4479
" />
<path d="M24.7805 19.4479
L24.7805 19.5688
" />
<path d="M24.7805 19.5688
L24.7200 19.6898
" />
<path d="M24.7200 19.6898
L24.6596 19.7502
" />
<path d="M24.6596 19.7502
L24.5386 19.8107
" />
<path d="M24.5386 19.8107
L24.4781 19.8712
" />
<path d="M24.4781 19.8712
L24.4177 19.9921
" />
<path d="M24.4177 19.9921
L24.4177 20.0526
" />
</g></g>
</svg>
