<?xml version="1.0" standalone="no"?>
 <!DOCTYPE svg PUBLIC "-//W3C//DTD SVG 1.1//EN" 
 "http://www.w3.org/Graphics/SVG/1.1/DTD/svg11.dtd"> 
<svg
  xmlns:svg="http://www.w3.org/2000/svg"
  xmlns="http://www.w3.org/2000/svg"
  xmlns:xlink="http://www.w3.org/1999/xlink"
  xmlns:inkscape="http://www.inkscape.org/namespaces/inkscape"
  version="1.1"
  width="32.5628mm" height="22.8854mm" viewBox="0.0000 0.0000 32.5628 22.8854">
<title>SVG Image created as Valve - Diaphragm Pneumatic_unit1.svg date 2026-05-31T11:36:22 </title>
  <desc>Image generated by Eeschema-SVG </desc>
<g style="fill:#000000; fill-opacity:1.0000;stroke:#000000; stroke-opacity:1.0000;
stroke-linecap:round; stroke-linejoin:round;"
 transform="translate(0 0) scale(1 1)">
</g>
<g style="fill:none; 
stroke:#840000; stroke-width:0.1000; stroke-opacity:1; 
stroke-linecap:round; stroke-linejoin:round;">
<path d="M16.2814 4.9576 A1.9996 1.9996 0.0 0 0 14.2814 6.9569" />
<path d="M18.2773 6.9569 A1.9973 1.9973 0.0 0 0 16.2814 4.9569" />
<path style="fill:none; 
stroke:#840000; stroke-width:0.1000; stroke-opacity:1; 
stroke-linecap:round; stroke-linejoin:round;fill:none"
d="M 16.2814,6.9569
16.2814,9.9569
" /> 
<path style="fill:none; 
stroke:#840000; stroke-width:0.1000; stroke-opacity:1; 
stroke-linecap:round; stroke-linejoin:round;fill:none"
d="M 16.2814,9.9569
11.2814,7.9569
11.2814,11.9569
Z" /> 
<path style="fill:none; 
stroke:#840000; stroke-width:0.1000; stroke-opacity:1; 
stroke-linecap:round; stroke-linejoin:round;fill:none"
d="M 16.2814,9.9569
21.2814,7.9569
21.2814,11.9569
Z" /> 
<path d="M19.2814 9.9569 A3.2500 3.2500 0.0 0 0 13.2814 9.9569" />
<path style="fill:none; 
stroke:#840000; stroke-width:0.1000; stroke-opacity:1; 
stroke-linecap:round; stroke-linejoin:round;fill:none"
d="M 18.2814,6.9569
14.2814,6.9569
" /> 
</g>
<g style="fill:none; 
stroke:#840000; stroke-width:0.1524; stroke-opacity:1; 
stroke-linecap:round; stroke-linejoin:round;">
<path d="M11.2814 9.9569
L8.2814 9.9569
" />
<path d="M21.2814 9.9569
L24.2814 9.9569
" />
</g>
<g style="fill:none; 
stroke:#006464; stroke-width:0.1524; stroke-opacity:1; 
stroke-linecap:round; stroke-linejoin:round;">
<text x="16.2814" y="20.5919"
textLength="28.2033" font-size="1.6933" lengthAdjust="spacingAndGlyphs"
text-anchor="middle" opacity="0" stroke-opacity="0">Diaphragm_Pneumatic_Valve?</text>
<g class="stroked-text"><desc>Diaphragm_Pneumatic_Valve?</desc>
<path d="M2.5837 20.5364
L2.5837 19.2664
" />
<path d="M2.5837 19.2664
L2.8861 19.2664
" />
<path d="M2.8861 19.2664
L3.0675 19.3269
" />
<path d="M3.0675 19.3269
L3.1885 19.4479
" />
<path d="M3.1885 19.4479
L3.2490 19.5688
" />
<path d="M3.2490 19.5688
L3.3094 19.8107
" />
<path d="M3.3094 19.8107
L3.3094 19.9921
" />
<path d="M3.3094 19.9921
L3.2490 20.2340
" />
<path d="M3.2490 20.2340
L3.1885 20.3550
" />
<path d="M3.1885 20.3550
L3.0675 20.4760
" />
<path d="M3.0675 20.4760
L2.8861 20.5364
" />
<path d="M2.8861 20.5364
L2.5837 20.5364
" />
<path d="M3.8537 20.5364
L3.8537 19.6898
" />
<path d="M3.8537 19.2664
L3.7933 19.3269
" />
<path d="M3.7933 19.3269
L3.8537 19.3874
" />
<path d="M3.8537 19.3874
L3.9142 19.3269
" />
<path d="M3.9142 19.3269
L3.8537 19.2664
" />
<path d="M3.8537 19.2664
L3.8537 19.3874
" />
<path d="M5.0028 20.5364
L5.0028 19.8712
" />
<path d="M5.0028 19.8712
L4.9423 19.7502
" />
<path d="M4.9423 19.7502
L4.8214 19.6898
" />
<path d="M4.8214 19.6898
L4.5795 19.6898
" />
<path d="M4.5795 19.6898
L4.4585 19.7502
" />
<path d="M5.0028 20.4760
L4.8819 20.5364
" />
<path d="M4.8819 20.5364
L4.5795 20.5364
" />
<path d="M4.5795 20.5364
L4.4585 20.4760
" />
<path d="M4.4585 20.4760
L4.3981 20.3550
" />
<path d="M4.3981 20.3550
L4.3981 20.2340
" />
<path d="M4.3981 20.2340
L4.4585 20.1131
" />
<path d="M4.4585 20.1131
L4.5795 20.0526
" />
<path d="M4.5795 20.0526
L4.8819 20.0526
" />
<path d="M4.8819 20.0526
L5.0028 19.9921
" />
<path d="M5.6075 19.6898
L5.6075 20.9598
" />
<path d="M5.6075 19.7502
L5.7285 19.6898
" />
<path d="M5.7285 19.6898
L5.9704 19.6898
" />
<path d="M5.9704 19.6898
L6.0913 19.7502
" />
<path d="M6.0913 19.7502
L6.1518 19.8107
" />
<path d="M6.1518 19.8107
L6.2123 19.9317
" />
<path d="M6.2123 19.9317
L6.2123 20.2945
" />
<path d="M6.2123 20.2945
L6.1518 20.4155
" />
<path d="M6.1518 20.4155
L6.0913 20.4760
" />
<path d="M6.0913 20.4760
L5.9704 20.5364
" />
<path d="M5.9704 20.5364
L5.7285 20.5364
" />
<path d="M5.7285 20.5364
L5.6075 20.4760
" />
<path d="M6.7565 20.5364
L6.7565 19.2664
" />
<path d="M7.3008 20.5364
L7.3008 19.8712
" />
<path d="M7.3008 19.8712
L7.2403 19.7502
" />
<path d="M7.2403 19.7502
L7.1194 19.6898
" />
<path d="M7.1194 19.6898
L6.9380 19.6898
" />
<path d="M6.9380 19.6898
L6.8170 19.7502
" />
<path d="M6.8170 19.7502
L6.7565 19.8107
" />
<path d="M7.9055 20.5364
L7.9055 19.6898
" />
<path d="M7.9055 19.9317
L7.9660 19.8107
" />
<path d="M7.9660 19.8107
L8.0265 19.7502
" />
<path d="M8.0265 19.7502
L8.1474 19.6898
" />
<path d="M8.1474 19.6898
L8.2684 19.6898
" />
<path d="M9.2360 20.5364
L9.2360 19.8712
" />
<path d="M9.2360 19.8712
L9.1755 19.7502
" />
<path d="M9.1755 19.7502
L9.0546 19.6898
" />
<path d="M9.0546 19.6898
L8.8127 19.6898
" />
<path d="M8.8127 19.6898
L8.6917 19.7502
" />
<path d="M9.2360 20.4760
L9.1151 20.5364
" />
<path d="M9.1151 20.5364
L8.8127 20.5364
" />
<path d="M8.8127 20.5364
L8.6917 20.4760
" />
<path d="M8.6917 20.4760
L8.6313 20.3550
" />
<path d="M8.6313 20.3550
L8.6313 20.2340
" />
<path d="M8.6313 20.2340
L8.6917 20.1131
" />
<path d="M8.6917 20.1131
L8.8127 20.0526
" />
<path d="M8.8127 20.0526
L9.1151 20.0526
" />
<path d="M9.1151 20.0526
L9.2360 19.9921
" />
<path d="M10.3850 19.6898
L10.3850 20.7179
" />
<path d="M10.3850 20.7179
L10.3245 20.8388
" />
<path d="M10.3245 20.8388
L10.2641 20.8993
" />
<path d="M10.2641 20.8993
L10.1431 20.9598
" />
<path d="M10.1431 20.9598
L9.9617 20.9598
" />
<path d="M9.9617 20.9598
L9.8407 20.8993
" />
<path d="M10.3850 20.4760
L10.2641 20.5364
" />
<path d="M10.2641 20.5364
L10.0222 20.5364
" />
<path d="M10.0222 20.5364
L9.9012 20.4760
" />
<path d="M9.9012 20.4760
L9.8407 20.4155
" />
<path d="M9.8407 20.4155
L9.7803 20.2945
" />
<path d="M9.7803 20.2945
L9.7803 19.9317
" />
<path d="M9.7803 19.9317
L9.8407 19.8107
" />
<path d="M9.8407 19.8107
L9.9012 19.7502
" />
<path d="M9.9012 19.7502
L10.0222 19.6898
" />
<path d="M10.0222 19.6898
L10.2641 19.6898
" />
<path d="M10.2641 19.6898
L10.3850 19.7502
" />
<path d="M10.9897 20.5364
L10.9897 19.6898
" />
<path d="M10.9897 19.8107
L11.0502 19.7502
" />
<path d="M11.0502 19.7502
L11.1712 19.6898
" />
<path d="M11.1712 19.6898
L11.3526 19.6898
" />
<path d="M11.3526 19.6898
L11.4735 19.7502
" />
<path d="M11.4735 19.7502
L11.5340 19.8712
" />
<path d="M11.5340 19.8712
L11.5340 20.5364
" />
<path d="M11.5340 19.8712
L11.5945 19.7502
" />
<path d="M11.5945 19.7502
L11.7154 19.6898
" />
<path d="M11.7154 19.6898
L11.8969 19.6898
" />
<path d="M11.8969 19.6898
L12.0178 19.7502
" />
<path d="M12.0178 19.7502
L12.0783 19.8712
" />
<path d="M12.0783 19.8712
L12.0783 20.5364
" />
<path d="M12.3807 20.6574
L13.3483 20.6574
" />
<path d="M13.6506 20.5364
L13.6506 19.2664
" />
<path d="M13.6506 19.2664
L14.1344 19.2664
" />
<path d="M14.1344 19.2664
L14.2554 19.3269
" />
<path d="M14.2554 19.3269
L14.3159 19.3874
" />
<path d="M14.3159 19.3874
L14.3763 19.5083
" />
<path d="M14.3763 19.5083
L14.3763 19.6898
" />
<path d="M14.3763 19.6898
L14.3159 19.8107
" />
<path d="M14.3159 19.8107
L14.2554 19.8712
" />
<path d="M14.2554 19.8712
L14.1344 19.9317
" />
<path d="M14.1344 19.9317
L13.6506 19.9317
" />
<path d="M14.9206 19.6898
L14.9206 20.5364
" />
<path d="M14.9206 19.8107
L14.9811 19.7502
" />
<path d="M14.9811 19.7502
L15.1021 19.6898
" />
<path d="M15.1021 19.6898
L15.2835 19.6898
" />
<path d="M15.2835 19.6898
L15.4044 19.7502
" />
<path d="M15.4044 19.7502
L15.4649 19.8712
" />
<path d="M15.4649 19.8712
L15.4649 20.5364
" />
<path d="M16.5534 20.4760
L16.4325 20.5364
" />
<path d="M16.4325 20.5364
L16.1906 20.5364
" />
<path d="M16.1906 20.5364
L16.0696 20.4760
" />
<path d="M16.0696 20.4760
L16.0092 20.3550
" />
<path d="M16.0092 20.3550
L16.0092 19.8712
" />
<path d="M16.0092 19.8712
L16.0696 19.7502
" />
<path d="M16.0696 19.7502
L16.1906 19.6898
" />
<path d="M16.1906 19.6898
L16.4325 19.6898
" />
<path d="M16.4325 19.6898
L16.5534 19.7502
" />
<path d="M16.5534 19.7502
L16.6139 19.8712
" />
<path d="M16.6139 19.8712
L16.6139 19.9921
" />
<path d="M16.6139 19.9921
L16.0092 20.1131
" />
<path d="M17.7025 19.6898
L17.7025 20.5364
" />
<path d="M17.1582 19.6898
L17.1582 20.3550
" />
<path d="M17.1582 20.3550
L17.2187 20.4760
" />
<path d="M17.2187 20.4760
L17.3397 20.5364
" />
<path d="M17.3397 20.5364
L17.5211 20.5364
" />
<path d="M17.5211 20.5364
L17.6420 20.4760
" />
<path d="M17.6420 20.4760
L17.7025 20.4155
" />
<path d="M18.3072 20.5364
L18.3072 19.6898
" />
<path d="M18.3072 19.8107
L18.3677 19.7502
" />
<path d="M18.3677 19.7502
L18.4887 19.6898
" />
<path d="M18.4887 19.6898
L18.6701 19.6898
" />
<path d="M18.6701 19.6898
L18.7910 19.7502
" />
<path d="M18.7910 19.7502
L18.8515 19.8712
" />
<path d="M18.8515 19.8712
L18.8515 20.5364
" />
<path d="M18.8515 19.8712
L18.9120 19.7502
" />
<path d="M18.9120 19.7502
L19.0329 19.6898
" />
<path d="M19.0329 19.6898
L19.2144 19.6898
" />
<path d="M19.2144 19.6898
L19.3353 19.7502
" />
<path d="M19.3353 19.7502
L19.3958 19.8712
" />
<path d="M19.3958 19.8712
L19.3958 20.5364
" />
<path d="M20.5448 20.5364
L20.5448 19.8712
" />
<path d="M20.5448 19.8712
L20.4843 19.7502
" />
<path d="M20.4843 19.7502
L20.3634 19.6898
" />
<path d="M20.3634 19.6898
L20.1215 19.6898
" />
<path d="M20.1215 19.6898
L20.0005 19.7502
" />
<path d="M20.5448 20.4760
L20.4239 20.5364
" />
<path d="M20.4239 20.5364
L20.1215 20.5364
" />
<path d="M20.1215 20.5364
L20.0005 20.4760
" />
<path d="M20.0005 20.4760
L19.9401 20.3550
" />
<path d="M19.9401 20.3550
L19.9401 20.2340
" />
<path d="M19.9401 20.2340
L20.0005 20.1131
" />
<path d="M20.0005 20.1131
L20.1215 20.0526
" />
<path d="M20.1215 20.0526
L20.4239 20.0526
" />
<path d="M20.4239 20.0526
L20.5448 19.9921
" />
<path d="M20.9681 19.6898
L21.4519 19.6898
" />
<path d="M21.1495 19.2664
L21.1495 20.3550
" />
<path d="M21.1495 20.3550
L21.2100 20.4760
" />
<path d="M21.2100 20.4760
L21.3310 20.5364
" />
<path d="M21.3310 20.5364
L21.4519 20.5364
" />
<path d="M21.8752 20.5364
L21.8752 19.6898
" />
<path d="M21.8752 19.2664
L21.8148 19.3269
" />
<path d="M21.8148 19.3269
L21.8752 19.3874
" />
<path d="M21.8752 19.3874
L21.9357 19.3269
" />
<path d="M21.9357 19.3269
L21.8752 19.2664
" />
<path d="M21.8752 19.2664
L21.8752 19.3874
" />
<path d="M23.0243 20.4760
L22.9034 20.5364
" />
<path d="M22.9034 20.5364
L22.6615 20.5364
" />
<path d="M22.6615 20.5364
L22.5405 20.4760
" />
<path d="M22.5405 20.4760
L22.4800 20.4155
" />
<path d="M22.4800 20.4155
L22.4196 20.2945
" />
<path d="M22.4196 20.2945
L22.4196 19.9317
" />
<path d="M22.4196 19.9317
L22.4800 19.8107
" />
<path d="M22.4800 19.8107
L22.5405 19.7502
" />
<path d="M22.5405 19.7502
L22.6615 19.6898
" />
<path d="M22.6615 19.6898
L22.9034 19.6898
" />
<path d="M22.9034 19.6898
L23.0243 19.7502
" />
<path d="M23.2663 20.6574
L24.2339 20.6574
" />
<path d="M24.3548 19.2664
L24.7781 20.5364
" />
<path d="M24.7781 20.5364
L25.2015 19.2664
" />
<path d="M26.1691 20.5364
L26.1691 19.8712
" />
<path d="M26.1691 19.8712
L26.1086 19.7502
" />
<path d="M26.1086 19.7502
L25.9877 19.6898
" />
<path d="M25.9877 19.6898
L25.7458 19.6898
" />
<path d="M25.7458 19.6898
L25.6248 19.7502
" />
<path d="M26.1691 20.4760
L26.0482 20.5364
" />
<path d="M26.0482 20.5364
L25.7458 20.5364
" />
<path d="M25.7458 20.5364
L25.6248 20.4760
" />
<path d="M25.6248 20.4760
L25.5644 20.3550
" />
<path d="M25.5644 20.3550
L25.5644 20.2340
" />
<path d="M25.5644 20.2340
L25.6248 20.1131
" />
<path d="M25.6248 20.1131
L25.7458 20.0526
" />
<path d="M25.7458 20.0526
L26.0482 20.0526
" />
<path d="M26.0482 20.0526
L26.1691 19.9921
" />
<path d="M26.9553 20.5364
L26.8343 20.4760
" />
<path d="M26.8343 20.4760
L26.7738 20.3550
" />
<path d="M26.7738 20.3550
L26.7738 19.2664
" />
<path d="M27.3181 19.6898
L27.6205 20.5364
" />
<path d="M27.6205 20.5364
L27.9228 19.6898
" />
<path d="M28.8904 20.4760
L28.7695 20.5364
" />
<path d="M28.7695 20.5364
L28.5276 20.5364
" />
<path d="M28.5276 20.5364
L28.4066 20.4760
" />
<path d="M28.4066 20.4760
L28.3462 20.3550
" />
<path d="M28.3462 20.3550
L28.3462 19.8712
" />
<path d="M28.3462 19.8712
L28.4066 19.7502
" />
<path d="M28.4066 19.7502
L28.5276 19.6898
" />
<path d="M28.5276 19.6898
L28.7695 19.6898
" />
<path d="M28.7695 19.6898
L28.8904 19.7502
" />
<path d="M28.8904 19.7502
L28.9509 19.8712
" />
<path d="M28.9509 19.8712
L28.9509 19.9921
" />
<path d="M28.9509 19.9921
L28.3462 20.1131
" />
<path d="M29.6767 20.4155
L29.7371 20.4760
" />
<path d="M29.7371 20.4760
L29.6767 20.5364
" />
<path d="M29.6767 20.5364
L29.6162 20.4760
" />
<path d="M29.6162 20.4760
L29.6767 20.4155
" />
<path d="M29.6767 20.4155
L29.6767 20.5364
" />
<path d="M29.4348 19.3269
L29.5557 19.2664
" />
<path d="M29.5557 19.2664
L29.8581 19.2664
" />
<path d="M29.8581 19.2664
L29.9790 19.3269
" />
<path d="M29.9790 19.3269
L30.0395 19.4479
" />
<path d="M30.0395 19.4479
L30.0395 19.5688
" />
<path d="M30.0395 19.5688
L29.9790 19.6898
" />
<path d="M29.9790 19.6898
L29.9186 19.7502
" />
<path d="M29.9186 19.7502
L29.7976 19.8107
" />
<path d="M29.7976 19.8107
L29.7371 19.8712
" />
<path d="M29.7371 19.8712
L29.6767 19.9921
" />
<path d="M29.6767 19.9921
L29.6767 20.0526
" />
</g></g> 
</svg>
