<?xml version="1.0" standalone="no"?>
 <!DOCTYPE svg PUBLIC "-//W3C//DTD SVG 1.1//EN" 
 "http://www.w3.org/Graphics/SVG/1.1/DTD/svg11.dtd"> 
<svg
  xmlns:svg="http://www.w3.org/2000/svg"
  xmlns="http://www.w3.org/2000/svg"
  xmlns:xlink="http://www.w3.org/1999/xlink"
  xmlns:inkscape="http://www.inkscape.org/namespaces/inkscape"
  version="1.1"
  width="20.1168mm" height="22.8854mm" viewBox="0.0000 0.0000 20.1168 22.8854">
<title>SVG Image created as Valve - Ball Servo_unit1.svg date 2026-05-31T11:36:20 </title>
  <desc>Image generated by Eeschema-SVG </desc>
<g style="fill:#000000; fill-opacity:1.0000;stroke:#000000; stroke-opacity:1.0000;
stroke-linecap:round; stroke-linejoin:round;"
 transform="translate(0 0) scale(1 1)">
</g>
<g style="fill:none; 
stroke:#840000; stroke-width:0.1000; stroke-opacity:1; 
stroke-linecap:round; stroke-linejoin:round;">
<rect x="8.058400" y="4.956900" width="4.000000" height="2.000000" rx="0.000000" />
<path style="fill:none; 
stroke:#840000; stroke-width:0.1000; stroke-opacity:1; 
stroke-linecap:round; stroke-linejoin:round;fill:none"
d="M 10.0584,6.9569
10.0584,9.9569
" /> 
<path style="fill:none; 
stroke:#840000; stroke-width:0.1000; stroke-opacity:1; 
stroke-linecap:round; stroke-linejoin:round;fill:none"
d="M 10.0584,9.9569
5.0584,7.9569
5.0584,11.9569
Z" /> 
<path style="fill:none; 
stroke:#840000; stroke-width:0.1000; stroke-opacity:1; 
stroke-linecap:round; stroke-linejoin:round;fill:none"
d="M 10.0584,9.9569
15.0584,7.9569
15.0584,11.9569
Z" /> 
<circle cx="10.0584" cy="9.9569" r="1.0000" /> 
</g>
<g style="fill:none; 
stroke:#840000; stroke-width:0.1524; stroke-opacity:1; 
stroke-linecap:round; stroke-linejoin:round;">
<text x="10.0584" y="6.5919"
textLength="1.4127" font-size="1.6933" lengthAdjust="spacingAndGlyphs"
text-anchor="middle" opacity="0" stroke-opacity="0">S</text>
<g class="stroked-text"><desc>S</desc>
<path d="M9.6956 6.4760
L9.8770 6.5364
" />
<path d="M9.8770 6.5364
L10.1794 6.5364
" />
<path d="M10.1794 6.5364
L10.3003 6.4760
" />
<path d="M10.3003 6.4760
L10.3608 6.4155
" />
<path d="M10.3608 6.4155
L10.4213 6.2945
" />
<path d="M10.4213 6.2945
L10.4213 6.1736
" />
<path d="M10.4213 6.1736
L10.3608 6.0526
" />
<path d="M10.3608 6.0526
L10.3003 5.9921
" />
<path d="M10.3003 5.9921
L10.1794 5.9317
" />
<path d="M10.1794 5.9317
L9.9375 5.8712
" />
<path d="M9.9375 5.8712
L9.8165 5.8107
" />
<path d="M9.8165 5.8107
L9.7560 5.7502
" />
<path d="M9.7560 5.7502
L9.6956 5.6293
" />
<path d="M9.6956 5.6293
L9.6956 5.5083
" />
<path d="M9.6956 5.5083
L9.7560 5.3874
" />
<path d="M9.7560 5.3874
L9.8165 5.3269
" />
<path d="M9.8165 5.3269
L9.9375 5.2664
" />
<path d="M9.9375 5.2664
L10.2398 5.2664
" />
<path d="M10.2398 5.2664
L10.4213 5.3269
" />
</g><path d="M5.0584 9.9569
L2.0584 9.9569
" />
<path d="M15.0584 9.9569
L18.0584 9.9569
" />
</g>
<g style="fill:none; 
stroke:#006464; stroke-width:0.1524; stroke-opacity:1; 
stroke-linecap:round; stroke-linejoin:round;">
<text x="10.0584" y="20.5919"
textLength="17.1363" font-size="1.6933" lengthAdjust="spacingAndGlyphs"
text-anchor="middle" opacity="0" stroke-opacity="0">Ball_Servo_Valve?</text>
<g class="stroked-text"><desc>Ball_Servo_Valve?</desc>
<path d="M2.3176 19.8712
L2.4990 19.9317
" />
<path d="M2.4990 19.9317
L2.5595 19.9921
" />
<path d="M2.5595 19.9921
L2.6199 20.1131
" />
<path d="M2.6199 20.1131
L2.6199 20.2945
" />
<path d="M2.6199 20.2945
L2.5595 20.4155
" />
<path d="M2.5595 20.4155
L2.4990 20.4760
" />
<path d="M2.4990 20.4760
L2.3780 20.5364
" />
<path d="M2.3780 20.5364
L1.8942 20.5364
" />
<path d="M1.8942 20.5364
L1.8942 19.2664
" />
<path d="M1.8942 19.2664
L2.3176 19.2664
" />
<path d="M2.3176 19.2664
L2.4385 19.3269
" />
<path d="M2.4385 19.3269
L2.4990 19.3874
" />
<path d="M2.4990 19.3874
L2.5595 19.5083
" />
<path d="M2.5595 19.5083
L2.5595 19.6293
" />
<path d="M2.5595 19.6293
L2.4990 19.7502
" />
<path d="M2.4990 19.7502
L2.4385 19.8107
" />
<path d="M2.4385 19.8107
L2.3176 19.8712
" />
<path d="M2.3176 19.8712
L1.8942 19.8712
" />
<path d="M3.7085 20.5364
L3.7085 19.8712
" />
<path d="M3.7085 19.8712
L3.6480 19.7502
" />
<path d="M3.6480 19.7502
L3.5271 19.6898
" />
<path d="M3.5271 19.6898
L3.2852 19.6898
" />
<path d="M3.2852 19.6898
L3.1642 19.7502
" />
<path d="M3.7085 20.4760
L3.5876 20.5364
" />
<path d="M3.5876 20.5364
L3.2852 20.5364
" />
<path d="M3.2852 20.5364
L3.1642 20.4760
" />
<path d="M3.1642 20.4760
L3.1038 20.3550
" />
<path d="M3.1038 20.3550
L3.1038 20.2340
" />
<path d="M3.1038 20.2340
L3.1642 20.1131
" />
<path d="M3.1642 20.1131
L3.2852 20.0526
" />
<path d="M3.2852 20.0526
L3.5876 20.0526
" />
<path d="M3.5876 20.0526
L3.7085 19.9921
" />
<path d="M4.4947 20.5364
L4.3737 20.4760
" />
<path d="M4.3737 20.4760
L4.3132 20.3550
" />
<path d="M4.3132 20.3550
L4.3132 19.2664
" />
<path d="M5.1599 20.5364
L5.0389 20.4760
" />
<path d="M5.0389 20.4760
L4.9784 20.3550
" />
<path d="M4.9784 20.3550
L4.9784 19.2664
" />
<path d="M5.3413 20.6574
L6.3089 20.6574
" />
<path d="M6.5508 20.4760
L6.7322 20.5364
" />
<path d="M6.7322 20.5364
L7.0346 20.5364
" />
<path d="M7.0346 20.5364
L7.1555 20.4760
" />
<path d="M7.1555 20.4760
L7.2160 20.4155
" />
<path d="M7.2160 20.4155
L7.2765 20.2945
" />
<path d="M7.2765 20.2945
L7.2765 20.1736
" />
<path d="M7.2765 20.1736
L7.2160 20.0526
" />
<path d="M7.2160 20.0526
L7.1555 19.9921
" />
<path d="M7.1555 19.9921
L7.0346 19.9317
" />
<path d="M7.0346 19.9317
L6.7927 19.8712
" />
<path d="M6.7927 19.8712
L6.6717 19.8107
" />
<path d="M6.6717 19.8107
L6.6112 19.7502
" />
<path d="M6.6112 19.7502
L6.5508 19.6293
" />
<path d="M6.5508 19.6293
L6.5508 19.5083
" />
<path d="M6.5508 19.5083
L6.6112 19.3874
" />
<path d="M6.6112 19.3874
L6.6717 19.3269
" />
<path d="M6.6717 19.3269
L6.7927 19.2664
" />
<path d="M6.7927 19.2664
L7.0950 19.2664
" />
<path d="M7.0950 19.2664
L7.2765 19.3269
" />
<path d="M8.3045 20.4760
L8.1836 20.5364
" />
<path d="M8.1836 20.5364
L7.9417 20.5364
" />
<path d="M7.9417 20.5364
L7.8207 20.4760
" />
<path d="M7.8207 20.4760
L7.7603 20.3550
" />
<path d="M7.7603 20.3550
L7.7603 19.8712
" />
<path d="M7.7603 19.8712
L7.8207 19.7502
" />
<path d="M7.8207 19.7502
L7.9417 19.6898
" />
<path d="M7.9417 19.6898
L8.1836 19.6898
" />
<path d="M8.1836 19.6898
L8.3045 19.7502
" />
<path d="M8.3045 19.7502
L8.3650 19.8712
" />
<path d="M8.3650 19.8712
L8.3650 19.9921
" />
<path d="M8.3650 19.9921
L7.7603 20.1131
" />
<path d="M8.9093 20.5364
L8.9093 19.6898
" />
<path d="M8.9093 19.9317
L8.9698 19.8107
" />
<path d="M8.9698 19.8107
L9.0303 19.7502
" />
<path d="M9.0303 19.7502
L9.1512 19.6898
" />
<path d="M9.1512 19.6898
L9.2722 19.6898
" />
<path d="M9.5746 19.6898
L9.8770 20.5364
" />
<path d="M9.8770 20.5364
L10.1793 19.6898
" />
<path d="M10.8446 20.5364
L10.7236 20.4760
" />
<path d="M10.7236 20.4760
L10.6631 20.4155
" />
<path d="M10.6631 20.4155
L10.6027 20.2945
" />
<path d="M10.6027 20.2945
L10.6027 19.9317
" />
<path d="M10.6027 19.9317
L10.6631 19.8107
" />
<path d="M10.6631 19.8107
L10.7236 19.7502
" />
<path d="M10.7236 19.7502
L10.8446 19.6898
" />
<path d="M10.8446 19.6898
L11.0260 19.6898
" />
<path d="M11.0260 19.6898
L11.1469 19.7502
" />
<path d="M11.1469 19.7502
L11.2074 19.8107
" />
<path d="M11.2074 19.8107
L11.2679 19.9317
" />
<path d="M11.2679 19.9317
L11.2679 20.2945
" />
<path d="M11.2679 20.2945
L11.2074 20.4155
" />
<path d="M11.2074 20.4155
L11.1469 20.4760
" />
<path d="M11.1469 20.4760
L11.0260 20.5364
" />
<path d="M11.0260 20.5364
L10.8446 20.5364
" />
<path d="M11.5098 20.6574
L12.4774 20.6574
" />
<path d="M12.5983 19.2664
L13.0216 20.5364
" />
<path d="M13.0216 20.5364
L13.4450 19.2664
" />
<path d="M14.4126 20.5364
L14.4126 19.8712
" />
<path d="M14.4126 19.8712
L14.3521 19.7502
" />
<path d="M14.3521 19.7502
L14.2312 19.6898
" />
<path d="M14.2312 19.6898
L13.9893 19.6898
" />
<path d="M13.9893 19.6898
L13.8683 19.7502
" />
<path d="M14.4126 20.4760
L14.2917 20.5364
" />
<path d="M14.2917 20.5364
L13.9893 20.5364
" />
<path d="M13.9893 20.5364
L13.8683 20.4760
" />
<path d="M13.8683 20.4760
L13.8079 20.3550
" />
<path d="M13.8079 20.3550
L13.8079 20.2340
" />
<path d="M13.8079 20.2340
L13.8683 20.1131
" />
<path d="M13.8683 20.1131
L13.9893 20.0526
" />
<path d="M13.9893 20.0526
L14.2917 20.0526
" />
<path d="M14.2917 20.0526
L14.4126 19.9921
" />
<path d="M15.1988 20.5364
L15.0778 20.4760
" />
<path d="M15.0778 20.4760
L15.0173 20.3550
" />
<path d="M15.0173 20.3550
L15.0173 19.2664
" />
<path d="M15.5616 19.6898
L15.8640 20.5364
" />
<path d="M15.8640 20.5364
L16.1663 19.6898
" />
<path d="M17.1339 20.4760
L17.0130 20.5364
" />
<path d="M17.0130 20.5364
L16.7711 20.5364
" />
<path d="M16.7711 20.5364
L16.6501 20.4760
" />
<path d="M16.6501 20.4760
L16.5897 20.3550
" />
<path d="M16.5897 20.3550
L16.5897 19.8712
" />
<path d="M16.5897 19.8712
L16.6501 19.7502
" />
<path d="M16.6501 19.7502
L16.7711 19.6898
" />
<path d="M16.7711 19.6898
L17.0130 19.6898
" />
<path d="M17.0130 19.6898
L17.1339 19.7502
" />
<path d="M17.1339 19.7502
L17.1944 19.8712
" />
<path d="M17.1944 19.8712
L17.1944 19.9921
" />
<path d="M17.1944 19.9921
L16.5897 20.1131
" />
<path d="M17.9202 20.4155
L17.9806 20.4760
" />
<path d="M17.9806 20.4760
L17.9202 20.5364
" />
<path d="M17.9202 20.5364
L17.8597 20.4760
" />
<path d="M17.8597 20.4760
L17.9202 20.4155
" />
<path d="M17.9202 20.4155
L17.9202 20.5364
" />
<path d="M17.6783 19.3269
L17.7992 19.2664
" />
<path d="M17.7992 19.2664
L18.1016 19.2664
" />
<path d="M18.1016 19.2664
L18.2225 19.3269
" />
<path d="M18.2225 19.3269
L18.2830 19.4479
" />
<path d="M18.2830 19.4479
L18.2830 19.5688
" />
<path d="M18.2830 19.5688
L18.2225 19.6898
" />
<path d="M18.2225 19.6898
L18.1621 19.7502
" />
<path d="M18.1621 19.7502
L18.0411 19.8107
" />
<path d="M18.0411 19.8107
L17.9806 19.8712
" />
<path d="M17.9806 19.8712
L17.9202 19.9921
" />
<path d="M17.9202 19.9921
L17.9202 20.0526
" />
</g></g> 
</svg>
