<?xml version="1.0" standalone="no"?>
 <!DOCTYPE svg PUBLIC "-//W3C//DTD SVG 1.1//EN"
 "http://www.w3.org/Graphics/SVG/1.1/DTD/svg11.dtd">
<svg
  xmlns:svg="http://www.w3.org/2000/svg"
  xmlns="http://www.w3.org/2000/svg"
  xmlns:xlink="http://www.w3.org/1999/xlink"
  xmlns:inkscape="http://www.inkscape.org/namespaces/inkscape"
  version="1.1"
  width="20.1168mm" height="23.2918mm" viewBox="0.0000 0.0000 20.1168 23.2918">
<title>SVG Image created as Valve - 3 Way Ball_unit1.svg date 2026-05-31T14:38:07 </title>
  <desc>Image generated by Eeschema-SVG </desc>
<g style="fill:#000000; fill-opacity:1.0000;stroke:#000000; stroke-opacity:1.0000;
stroke-linecap:round; stroke-linejoin:round;"
 transform="translate(0 0) scale(1 1)">
<path style="fill:#840000; fill-opacity:1.0000;
stroke:#840000; stroke-width:0.1000; stroke-opacity:1;
stroke-linecap:round; stroke-linejoin:round;fill-rule:evenodd;"
d="M 4.0584,10.3256
4.0584,10.0756
5.0584,10.3256
4.0584,10.5756
Z" />
<path style="fill:none;
stroke:#840000; stroke-width:0.1000; stroke-opacity:1;
stroke-linecap:round; stroke-linejoin:round;fill:none"
d="M 10.0584,10.3256
5.0584,8.3256
5.0584,12.3256
Z" />
<path style="fill:none;
stroke:#840000; stroke-width:0.1000; stroke-opacity:1;
stroke-linecap:round; stroke-linejoin:round;fill:none"
d="M 10.0584,10.3256
8.0584,5.3256
12.0584,5.3256
Z" />
<path style="fill:none;
stroke:#840000; stroke-width:0.1000; stroke-opacity:1;
stroke-linecap:round; stroke-linejoin:round;fill:none"
d="M 10.0584,10.3256
15.0584,8.3256
15.0584,12.3256
Z" />
</g>
<g style="fill:#840000; fill-opacity:1.0000;
stroke:#840000; stroke-width:0.1524; stroke-opacity:1;
stroke-linecap:round; stroke-linejoin:round;">
<circle cx="10.0584" cy="10.3256" r="1.5000" />
<path style="fill:#840000; fill-opacity:1.0000;
stroke:#840000; stroke-width:0.1000; stroke-opacity:1;
stroke-linecap:round; stroke-linejoin:round;fill-rule:evenodd;"
d="M 16.0584,10.3256
16.0584,10.0756
17.0584,10.3256
16.0584,10.5756
Z" />
</g>
<g style="fill:none;
stroke:#840000; stroke-width:0.1524; stroke-opacity:1;
stroke-linecap:round; stroke-linejoin:round;">
<path d="M5.0584 10.3256
L2.0584 10.3256
" />
<path d="M10.0584 5.3256
L10.0584 2.3256
" />
<path d="M15.0584 10.3256
L18.0584 10.3256
" />
</g>
<g style="fill:none;
stroke:#006464; stroke-width:0.1524; stroke-opacity:1;
stroke-linecap:round; stroke-linejoin:round;">
<text x="10.0584" y="20.9606"
textLength="17.6805" font-size="1.6933" lengthAdjust="spacingAndGlyphs"
text-anchor="middle" opacity="0" stroke-opacity="0">3_Way_Ball_Valve?</text>
<g class="stroked-text"><desc>3_Way_Ball_Valve?</desc>
<path d="M1.5012 19.6351
L2.2874 19.6351
" />
<path d="M2.2874 19.6351
L1.8640 20.1189
" />
<path d="M1.8640 20.1189
L2.0455 20.1189
" />
<path d="M2.0455 20.1189
L2.1664 20.1794
" />
<path d="M2.1664 20.1794
L2.2269 20.2399
" />
<path d="M2.2269 20.2399
L2.2874 20.3608
" />
<path d="M2.2874 20.3608
L2.2874 20.6632
" />
<path d="M2.2874 20.6632
L2.2269 20.7842
" />
<path d="M2.2269 20.7842
L2.1664 20.8447
" />
<path d="M2.1664 20.8447
L2.0455 20.9051
" />
<path d="M2.0455 20.9051
L1.6826 20.9051
" />
<path d="M1.6826 20.9051
L1.5617 20.8447
" />
<path d="M1.5617 20.8447
L1.5012 20.7842
" />
<path d="M2.5293 21.0261
L3.4969 21.0261
" />
<path d="M3.6783 19.6351
L3.9807 20.9051
" />
<path d="M3.9807 20.9051
L4.2226 19.9980
" />
<path d="M4.2226 19.9980
L4.4645 20.9051
" />
<path d="M4.4645 20.9051
L4.7669 19.6351
" />
<path d="M5.7949 20.9051
L5.7949 20.2399
" />
<path d="M5.7949 20.2399
L5.7344 20.1189
" />
<path d="M5.7344 20.1189
L5.6135 20.0585
" />
<path d="M5.6135 20.0585
L5.3716 20.0585
" />
<path d="M5.3716 20.0585
L5.2506 20.1189
" />
<path d="M5.7949 20.8447
L5.6740 20.9051
" />
<path d="M5.6740 20.9051
L5.3716 20.9051
" />
<path d="M5.3716 20.9051
L5.2506 20.8447
" />
<path d="M5.2506 20.8447
L5.1902 20.7237
" />
<path d="M5.1902 20.7237
L5.1902 20.6027
" />
<path d="M5.1902 20.6027
L5.2506 20.4818
" />
<path d="M5.2506 20.4818
L5.3716 20.4213
" />
<path d="M5.3716 20.4213
L5.6740 20.4213
" />
<path d="M5.6740 20.4213
L5.7949 20.3608
" />
<path d="M6.2787 20.0585
L6.5811 20.9051
" />
<path d="M6.8834 20.0585
L6.5811 20.9051
" />
<path d="M6.5811 20.9051
L6.4601 21.2075
" />
<path d="M6.4601 21.2075
L6.3996 21.2680
" />
<path d="M6.3996 21.2680
L6.2787 21.3285
" />
<path d="M7.0649 21.0261
L8.0325 21.0261
" />
<path d="M8.7582 20.2399
L8.9396 20.3004
" />
<path d="M8.9396 20.3004
L9.0001 20.3608
" />
<path d="M9.0001 20.3608
L9.0605 20.4818
" />
<path d="M9.0605 20.4818
L9.0605 20.6632
" />
<path d="M9.0605 20.6632
L9.0001 20.7842
" />
<path d="M9.0001 20.7842
L8.9396 20.8447
" />
<path d="M8.9396 20.8447
L8.8186 20.9051
" />
<path d="M8.8186 20.9051
L8.3348 20.9051
" />
<path d="M8.3348 20.9051
L8.3348 19.6351
" />
<path d="M8.3348 19.6351
L8.7582 19.6351
" />
<path d="M8.7582 19.6351
L8.8791 19.6956
" />
<path d="M8.8791 19.6956
L8.9396 19.7561
" />
<path d="M8.9396 19.7561
L9.0001 19.8770
" />
<path d="M9.0001 19.8770
L9.0001 19.9980
" />
<path d="M9.0001 19.9980
L8.9396 20.1189
" />
<path d="M8.9396 20.1189
L8.8791 20.1794
" />
<path d="M8.8791 20.1794
L8.7582 20.2399
" />
<path d="M8.7582 20.2399
L8.3348 20.2399
" />
<path d="M10.1491 20.9051
L10.1491 20.2399
" />
<path d="M10.1491 20.2399
L10.0886 20.1189
" />
<path d="M10.0886 20.1189
L9.9677 20.0585
" />
<path d="M9.9677 20.0585
L9.7258 20.0585
" />
<path d="M9.7258 20.0585
L9.6048 20.1189
" />
<path d="M10.1491 20.8447
L10.0282 20.9051
" />
<path d="M10.0282 20.9051
L9.7258 20.9051
" />
<path d="M9.7258 20.9051
L9.6048 20.8447
" />
<path d="M9.6048 20.8447
L9.5444 20.7237
" />
<path d="M9.5444 20.7237
L9.5444 20.6027
" />
<path d="M9.5444 20.6027
L9.6048 20.4818
" />
<path d="M9.6048 20.4818
L9.7258 20.4213
" />
<path d="M9.7258 20.4213
L10.0282 20.4213
" />
<path d="M10.0282 20.4213
L10.1491 20.3608
" />
<path d="M10.9353 20.9051
L10.8143 20.8447
" />
<path d="M10.8143 20.8447
L10.7538 20.7237
" />
<path d="M10.7538 20.7237
L10.7538 19.6351
" />
<path d="M11.6005 20.9051
L11.4795 20.8447
" />
<path d="M11.4795 20.8447
L11.4190 20.7237
" />
<path d="M11.4190 20.7237
L11.4190 19.6351
" />
<path d="M11.7819 21.0261
L12.7495 21.0261
" />
<path d="M12.8704 19.6351
L13.2937 20.9051
" />
<path d="M13.2937 20.9051
L13.7171 19.6351
" />
<path d="M14.6847 20.9051
L14.6847 20.2399
" />
<path d="M14.6847 20.2399
L14.6242 20.1189
" />
<path d="M14.6242 20.1189
L14.5033 20.0585
" />
<path d="M14.5033 20.0585
L14.2614 20.0585
" />
<path d="M14.2614 20.0585
L14.1404 20.1189
" />
<path d="M14.6847 20.8447
L14.5638 20.9051
" />
<path d="M14.5638 20.9051
L14.2614 20.9051
" />
<path d="M14.2614 20.9051
L14.1404 20.8447
" />
<path d="M14.1404 20.8447
L14.0800 20.7237
" />
<path d="M14.0800 20.7237
L14.0800 20.6027
" />
<path d="M14.0800 20.6027
L14.1404 20.4818
" />
<path d="M14.1404 20.4818
L14.2614 20.4213
" />
<path d="M14.2614 20.4213
L14.5638 20.4213
" />
<path d="M14.5638 20.4213
L14.6847 20.3608
" />
<path d="M15.4709 20.9051
L15.3499 20.8447
" />
<path d="M15.3499 20.8447
L15.2894 20.7237
" />
<path d="M15.2894 20.7237
L15.2894 19.6351
" />
<path d="M15.8337 20.0585
L16.1361 20.9051
" />
<path d="M16.1361 20.9051
L16.4384 20.0585
" />
<path d="M17.4060 20.8447
L17.2851 20.9051
" />
<path d="M17.2851 20.9051
L17.0432 20.9051
" />
<path d="M17.0432 20.9051
L16.9222 20.8447
" />
<path d="M16.9222 20.8447
L16.8618 20.7237
" />
<path d="M16.8618 20.7237
L16.8618 20.2399
" />
<path d="M16.8618 20.2399
L16.9222 20.1189
" />
<path d="M16.9222 20.1189
L17.0432 20.0585
" />
<path d="M17.0432 20.0585
L17.2851 20.0585
" />
<path d="M17.2851 20.0585
L17.4060 20.1189
" />
<path d="M17.4060 20.1189
L17.4665 20.2399
" />
<path d="M17.4665 20.2399
L17.4665 20.3608
" />
<path d="M17.4665 20.3608
L16.8618 20.4818
" />
<path d="M18.1923 20.7842
L18.2527 20.8447
" />
<path d="M18.2527 20.8447
L18.1923 20.9051
" />
<path d="M18.1923 20.9051
L18.1318 20.8447
" />
<path d="M18.1318 20.8447
L18.1923 20.7842
" />
<path d="M18.1923 20.7842
L18.1923 20.9051
" />
<path d="M17.9504 19.6956
L18.0713 19.6351
" />
<path d="M18.0713 19.6351
L18.3737 19.6351
" />
<path d="M18.3737 19.6351
L18.4946 19.6956
" />
<path d="M18.4946 19.6956
L18.5551 19.8166
" />
<path d="M18.5551 19.8166
L18.5551 19.9375
" />
<path d="M18.5551 19.9375
L18.4946 20.0585
" />
<path d="M18.4946 20.0585
L18.4342 20.1189
" />
<path d="M18.4342 20.1189
L18.3132 20.1794
" />
<path d="M18.3132 20.1794
L18.2527 20.2399
" />
<path d="M18.2527 20.2399
L18.1923 20.3608
" />
<path d="M18.1923 20.3608
L18.1923 20.4213
" />
</g></g>
</svg>
