<!-- Copyright 2026 Kingston University Rocket Engineering -->

<?xml version="1.0" standalone="no"?>
 <!DOCTYPE svg PUBLIC "-//W3C//DTD SVG 1.1//EN"
 "http://www.w3.org/Graphics/SVG/1.1/DTD/svg11.dtd">
<svg
  xmlns:svg="http://www.w3.org/2000/svg"
  xmlns="http://www.w3.org/2000/svg"
  xmlns:xlink="http://www.w3.org/1999/xlink"
  xmlns:inkscape="http://www.inkscape.org/namespaces/inkscape"
  version="1.1"
  width="19.7104mm" height="23.2918mm" viewBox="0.0000 0.0000 19.7104 23.2918">
<title>SVG Image created as Valve - Angle Ball_unit1.svg date 2026-05-31T11:36:20 </title>
  <desc>Image generated by Eeschema-SVG </desc>
<g style="fill:#000000; fill-opacity:1.0000;stroke:#000000; stroke-opacity:1.0000;
stroke-linecap:round; stroke-linejoin:round;"
 transform="translate(0 0) scale(1 1)">
<path style="fill:none;
stroke:#840000; stroke-width:0.1000; stroke-opacity:1;
stroke-linecap:round; stroke-linejoin:round;fill:none"
d="M 10.0208,10.3256
5.0208,8.3256
5.0208,12.3256
Z" />
<path style="fill:none;
stroke:#840000; stroke-width:0.1000; stroke-opacity:1;
stroke-linecap:round; stroke-linejoin:round;fill:none"
d="M 10.0208,10.3256
8.0208,5.3256
12.0208,5.3256
Z" />
</g>
<g style="fill:#840000; fill-opacity:1.0000;
stroke:#840000; stroke-width:0.1524; stroke-opacity:1;
stroke-linecap:round; stroke-linejoin:round;">
<circle cx="10.0208" cy="10.3256" r="1.5000" />
</g>
<g style="fill:none;
stroke:#840000; stroke-width:0.1524; stroke-opacity:1;
stroke-linecap:round; stroke-linejoin:round;">
<path d="M5.0208 10.3256
L2.0208 10.3256
" />
<path d="M10.0208 5.3256
L10.0208 2.3256
" />
</g>
<g style="fill:none;
stroke:#006464; stroke-width:0.1524; stroke-opacity:1;
stroke-linecap:round; stroke-linejoin:round;">
<text x="10.0208" y="20.9606"
textLength="17.0758" font-size="1.6933" lengthAdjust="spacingAndGlyphs"
text-anchor="middle" opacity="0" stroke-opacity="0">Angle_Ball_Valve?</text>
<g class="stroked-text"><desc>Angle_Ball_Valve?</desc>
<path d="M1.8264 20.5423
L2.4311 20.5423
" />
<path d="M1.7054 20.9051
L2.1287 19.6351
" />
<path d="M2.1287 19.6351
L2.5521 20.9051
" />
<path d="M2.9754 20.0585
L2.9754 20.9051
" />
<path d="M2.9754 20.1794
L3.0359 20.1189
" />
<path d="M3.0359 20.1189
L3.1569 20.0585
" />
<path d="M3.1569 20.0585
L3.3383 20.0585
" />
<path d="M3.3383 20.0585
L3.4592 20.1189
" />
<path d="M3.4592 20.1189
L3.5197 20.2399
" />
<path d="M3.5197 20.2399
L3.5197 20.9051
" />
<path d="M4.6687 20.0585
L4.6687 21.0866
" />
<path d="M4.6687 21.0866
L4.6082 21.2075
" />
<path d="M4.6082 21.2075
L4.5478 21.2680
" />
<path d="M4.5478 21.2680
L4.4268 21.3285
" />
<path d="M4.4268 21.3285
L4.2454 21.3285
" />
<path d="M4.2454 21.3285
L4.1244 21.2680
" />
<path d="M4.6687 20.8447
L4.5478 20.9051
" />
<path d="M4.5478 20.9051
L4.3059 20.9051
" />
<path d="M4.3059 20.9051
L4.1849 20.8447
" />
<path d="M4.1849 20.8447
L4.1244 20.7842
" />
<path d="M4.1244 20.7842
L4.0640 20.6632
" />
<path d="M4.0640 20.6632
L4.0640 20.3004
" />
<path d="M4.0640 20.3004
L4.1244 20.1794
" />
<path d="M4.1244 20.1794
L4.1849 20.1189
" />
<path d="M4.1849 20.1189
L4.3059 20.0585
" />
<path d="M4.3059 20.0585
L4.5478 20.0585
" />
<path d="M4.5478 20.0585
L4.6687 20.1189
" />
<path d="M5.4549 20.9051
L5.3339 20.8447
" />
<path d="M5.3339 20.8447
L5.2734 20.7237
" />
<path d="M5.2734 20.7237
L5.2734 19.6351
" />
<path d="M6.4224 20.8447
L6.3015 20.9051
" />
<path d="M6.3015 20.9051
L6.0596 20.9051
" />
<path d="M6.0596 20.9051
L5.9386 20.8447
" />
<path d="M5.9386 20.8447
L5.8782 20.7237
" />
<path d="M5.8782 20.7237
L5.8782 20.2399
" />
<path d="M5.8782 20.2399
L5.9386 20.1189
" />
<path d="M5.9386 20.1189
L6.0596 20.0585
" />
<path d="M6.0596 20.0585
L6.3015 20.0585
" />
<path d="M6.3015 20.0585
L6.4224 20.1189
" />
<path d="M6.4224 20.1189
L6.4829 20.2399
" />
<path d="M6.4829 20.2399
L6.4829 20.3608
" />
<path d="M6.4829 20.3608
L5.8782 20.4818
" />
<path d="M6.7249 21.0261
L7.6925 21.0261
" />
<path d="M8.4182 20.2399
L8.5996 20.3004
" />
<path d="M8.5996 20.3004
L8.6601 20.3608
" />
<path d="M8.6601 20.3608
L8.7205 20.4818
" />
<path d="M8.7205 20.4818
L8.7205 20.6632
" />
<path d="M8.7205 20.6632
L8.6601 20.7842
" />
<path d="M8.6601 20.7842
L8.5996 20.8447
" />
<path d="M8.5996 20.8447
L8.4786 20.9051
" />
<path d="M8.4786 20.9051
L7.9948 20.9051
" />
<path d="M7.9948 20.9051
L7.9948 19.6351
" />
<path d="M7.9948 19.6351
L8.4182 19.6351
" />
<path d="M8.4182 19.6351
L8.5391 19.6956
" />
<path d="M8.5391 19.6956
L8.5996 19.7561
" />
<path d="M8.5996 19.7561
L8.6601 19.8770
" />
<path d="M8.6601 19.8770
L8.6601 19.9980
" />
<path d="M8.6601 19.9980
L8.5996 20.1189
" />
<path d="M8.5996 20.1189
L8.5391 20.1794
" />
<path d="M8.5391 20.1794
L8.4182 20.2399
" />
<path d="M8.4182 20.2399
L7.9948 20.2399
" />
<path d="M9.8091 20.9051
L9.8091 20.2399
" />
<path d="M9.8091 20.2399
L9.7486 20.1189
" />
<path d="M9.7486 20.1189
L9.6277 20.0585
" />
<path d="M9.6277 20.0585
L9.3858 20.0585
" />
<path d="M9.3858 20.0585
L9.2648 20.1189
" />
<path d="M9.8091 20.8447
L9.6882 20.9051
" />
<path d="M9.6882 20.9051
L9.3858 20.9051
" />
<path d="M9.3858 20.9051
L9.2648 20.8447
" />
<path d="M9.2648 20.8447
L9.2044 20.7237
" />
<path d="M9.2044 20.7237
L9.2044 20.6027
" />
<path d="M9.2044 20.6027
L9.2648 20.4818
" />
<path d="M9.2648 20.4818
L9.3858 20.4213
" />
<path d="M9.3858 20.4213
L9.6882 20.4213
" />
<path d="M9.6882 20.4213
L9.8091 20.3608
" />
<path d="M10.5953 20.9051
L10.4743 20.8447
" />
<path d="M10.4743 20.8447
L10.4138 20.7237
" />
<path d="M10.4138 20.7237
L10.4138 19.6351
" />
<path d="M11.2605 20.9051
L11.1395 20.8447
" />
<path d="M11.1395 20.8447
L11.0790 20.7237
" />
<path d="M11.0790 20.7237
L11.0790 19.6351
" />
<path d="M11.4419 21.0261
L12.4095 21.0261
" />
<path d="M12.5304 19.6351
L12.9537 20.9051
" />
<path d="M12.9537 20.9051
L13.3771 19.6351
" />
<path d="M14.3447 20.9051
L14.3447 20.2399
" />
<path d="M14.3447 20.2399
L14.2842 20.1189
" />
<path d="M14.2842 20.1189
L14.1633 20.0585
" />
<path d="M14.1633 20.0585
L13.9214 20.0585
" />
<path d="M13.9214 20.0585
L13.8004 20.1189
" />
<path d="M14.3447 20.8447
L14.2238 20.9051
" />
<path d="M14.2238 20.9051
L13.9214 20.9051
" />
<path d="M13.9214 20.9051
L13.8004 20.8447
" />
<path d="M13.8004 20.8447
L13.7400 20.7237
" />
<path d="M13.7400 20.7237
L13.7400 20.6027
" />
<path d="M13.7400 20.6027
L13.8004 20.4818
" />
<path d="M13.8004 20.4818
L13.9214 20.4213
" />
<path d="M13.9214 20.4213
L14.2238 20.4213
" />
<path d="M14.2238 20.4213
L14.3447 20.3608
" />
<path d="M15.1309 20.9051
L15.0099 20.8447
" />
<path d="M15.0099 20.8447
L14.9494 20.7237
" />
<path d="M14.9494 20.7237
L14.9494 19.6351
" />
<path d="M15.4937 20.0585
L15.7961 20.9051
" />
<path d="M15.7961 20.9051
L16.0984 20.0585
" />
<path d="M17.0660 20.8447
L16.9451 20.9051
" />
<path d="M16.9451 20.9051
L16.7032 20.9051
" />
<path d="M16.7032 20.9051
L16.5822 20.8447
" />
<path d="M16.5822 20.8447
L16.5218 20.7237
" />
<path d="M16.5218 20.7237
L16.5218 20.2399
" />
<path d="M16.5218 20.2399
L16.5822 20.1189
" />
<path d="M16.5822 20.1189
L16.7032 20.0585
" />
<path d="M16.7032 20.0585
L16.9451 20.0585
" />
<path d="M16.9451 20.0585
L17.0660 20.1189
" />
<path d="M17.0660 20.1189
L17.1265 20.2399
" />
<path d="M17.1265 20.2399
L17.1265 20.3608
" />
<path d="M17.1265 20.3608
L16.5218 20.4818
" />
<path d="M17.8523 20.7842
L17.9127 20.8447
" />
<path d="M17.9127 20.8447
L17.8523 20.9051
" />
<path d="M17.8523 20.9051
L17.7918 20.8447
" />
<path d="M17.7918 20.8447
L17.8523 20.7842
" />
<path d="M17.8523 20.7842
L17.8523 20.9051
" />
<path d="M17.6104 19.6956
L17.7313 19.6351
" />
<path d="M17.7313 19.6351
L18.0337 19.6351
" />
<path d="M18.0337 19.6351
L18.1546 19.6956
" />
<path d="M18.1546 19.6956
L18.2151 19.8166
" />
<path d="M18.2151 19.8166
L18.2151 19.9375
" />
<path d="M18.2151 19.9375
L18.1546 20.0585
" />
<path d="M18.1546 20.0585
L18.0942 20.1189
" />
<path d="M18.0942 20.1189
L17.9732 20.1794
" />
<path d="M17.9732 20.1794
L17.9127 20.2399
" />
<path d="M17.9127 20.2399
L17.8523 20.3608
" />
<path d="M17.8523 20.3608
L17.8523 20.4213
" />
</g></g>
</svg>
