<!-- Copyright 2026 Kingston University Rocket Engineering -->

<?xml version="1.0" standalone="no"?>
 <!DOCTYPE svg PUBLIC "-//W3C//DTD SVG 1.1//EN"
 "http://www.w3.org/Graphics/SVG/1.1/DTD/svg11.dtd">
<svg
  xmlns:svg="http://www.w3.org/2000/svg"
  xmlns="http://www.w3.org/2000/svg"
  xmlns:xlink="http://www.w3.org/1999/xlink"
  xmlns:inkscape="http://www.inkscape.org/namespaces/inkscape"
  version="1.1"
  width="21.0820mm" height="23.2918mm" viewBox="0.0000 0.0000 21.0820 23.2918">
<title>SVG Image created as Valve - Angle Globe_unit1.svg date 2026-05-31T11:36:27 </title>
  <desc>Image generated by Eeschema-SVG </desc>
<g style="fill:#000000; fill-opacity:1.0000;stroke:#000000; stroke-opacity:1.0000;
stroke-linecap:round; stroke-linejoin:round;"
 transform="translate(0 0) scale(1 1)">
<path style="fill:none;
stroke:#840000; stroke-width:0.1000; stroke-opacity:1;
stroke-linecap:round; stroke-linejoin:round;fill:none"
d="M 10.5410,10.3256
5.5410,8.3256
5.5410,12.3256
Z" />
<path style="fill:none;
stroke:#840000; stroke-width:0.1000; stroke-opacity:1;
stroke-linecap:round; stroke-linejoin:round;fill:none"
d="M 10.5410,10.3256
8.5410,5.3256
12.5410,5.3256
Z" />
</g>
<g style="fill:#840000; fill-opacity:1.0000;
stroke:#840000; stroke-width:0.1524; stroke-opacity:1;
stroke-linecap:round; stroke-linejoin:round;">
<circle cx="10.5410" cy="10.3256" r="0.5000" />
</g>
<g style="fill:none;
stroke:#840000; stroke-width:0.1524; stroke-opacity:1;
stroke-linecap:round; stroke-linejoin:round;">
<path d="M5.5410 10.3256
L2.5410 10.3256
" />
<path d="M10.5410 5.3256
L10.5410 2.3256
" />
</g>
<g style="fill:none;
stroke:#006464; stroke-width:0.1524; stroke-opacity:1;
stroke-linecap:round; stroke-linejoin:round;">
<text x="10.5410" y="20.9606"
textLength="18.6482" font-size="1.6933" lengthAdjust="spacingAndGlyphs"
text-anchor="middle" opacity="0" stroke-opacity="0">Angle_Globe_Valve?</text>
<g class="stroked-text"><desc>Angle_Globe_Valve?</desc>
<path d="M1.5604 20.5423
L2.1651 20.5423
" />
<path d="M1.4394 20.9051
L1.8627 19.6351
" />
<path d="M1.8627 19.6351
L2.2861 20.9051
" />
<path d="M2.7094 20.0585
L2.7094 20.9051
" />
<path d="M2.7094 20.1794
L2.7699 20.1189
" />
<path d="M2.7699 20.1189
L2.8909 20.0585
" />
<path d="M2.8909 20.0585
L3.0723 20.0585
" />
<path d="M3.0723 20.0585
L3.1932 20.1189
" />
<path d="M3.1932 20.1189
L3.2537 20.2399
" />
<path d="M3.2537 20.2399
L3.2537 20.9051
" />
<path d="M4.4027 20.0585
L4.4027 21.0866
" />
<path d="M4.4027 21.0866
L4.3422 21.2075
" />
<path d="M4.3422 21.2075
L4.2818 21.2680
" />
<path d="M4.2818 21.2680
L4.1608 21.3285
" />
<path d="M4.1608 21.3285
L3.9794 21.3285
" />
<path d="M3.9794 21.3285
L3.8584 21.2680
" />
<path d="M4.4027 20.8447
L4.2818 20.9051
" />
<path d="M4.2818 20.9051
L4.0399 20.9051
" />
<path d="M4.0399 20.9051
L3.9189 20.8447
" />
<path d="M3.9189 20.8447
L3.8584 20.7842
" />
<path d="M3.8584 20.7842
L3.7980 20.6632
" />
<path d="M3.7980 20.6632
L3.7980 20.3004
" />
<path d="M3.7980 20.3004
L3.8584 20.1794
" />
<path d="M3.8584 20.1794
L3.9189 20.1189
" />
<path d="M3.9189 20.1189
L4.0399 20.0585
" />
<path d="M4.0399 20.0585
L4.2818 20.0585
" />
<path d="M4.2818 20.0585
L4.4027 20.1189
" />
<path d="M5.1889 20.9051
L5.0679 20.8447
" />
<path d="M5.0679 20.8447
L5.0074 20.7237
" />
<path d="M5.0074 20.7237
L5.0074 19.6351
" />
<path d="M6.1564 20.8447
L6.0355 20.9051
" />
<path d="M6.0355 20.9051
L5.7936 20.9051
" />
<path d="M5.7936 20.9051
L5.6726 20.8447
" />
<path d="M5.6726 20.8447
L5.6122 20.7237
" />
<path d="M5.6122 20.7237
L5.6122 20.2399
" />
<path d="M5.6122 20.2399
L5.6726 20.1189
" />
<path d="M5.6726 20.1189
L5.7936 20.0585
" />
<path d="M5.7936 20.0585
L6.0355 20.0585
" />
<path d="M6.0355 20.0585
L6.1564 20.1189
" />
<path d="M6.1564 20.1189
L6.2169 20.2399
" />
<path d="M6.2169 20.2399
L6.2169 20.3608
" />
<path d="M6.2169 20.3608
L5.6122 20.4818
" />
<path d="M6.4589 21.0261
L7.4265 21.0261
" />
<path d="M8.3941 19.6956
L8.2731 19.6351
" />
<path d="M8.2731 19.6351
L8.0917 19.6351
" />
<path d="M8.0917 19.6351
L7.9103 19.6956
" />
<path d="M7.9103 19.6956
L7.7893 19.8166
" />
<path d="M7.7893 19.8166
L7.7288 19.9375
" />
<path d="M7.7288 19.9375
L7.6684 20.1794
" />
<path d="M7.6684 20.1794
L7.6684 20.3608
" />
<path d="M7.6684 20.3608
L7.7288 20.6027
" />
<path d="M7.7288 20.6027
L7.7893 20.7237
" />
<path d="M7.7893 20.7237
L7.9103 20.8447
" />
<path d="M7.9103 20.8447
L8.0917 20.9051
" />
<path d="M8.0917 20.9051
L8.2126 20.9051
" />
<path d="M8.2126 20.9051
L8.3941 20.8447
" />
<path d="M8.3941 20.8447
L8.4545 20.7842
" />
<path d="M8.4545 20.7842
L8.4545 20.3608
" />
<path d="M8.4545 20.3608
L8.2126 20.3608
" />
<path d="M9.1803 20.9051
L9.0593 20.8447
" />
<path d="M9.0593 20.8447
L8.9988 20.7237
" />
<path d="M8.9988 20.7237
L8.9988 19.6351
" />
<path d="M9.8455 20.9051
L9.7245 20.8447
" />
<path d="M9.7245 20.8447
L9.6640 20.7842
" />
<path d="M9.6640 20.7842
L9.6036 20.6632
" />
<path d="M9.6036 20.6632
L9.6036 20.3004
" />
<path d="M9.6036 20.3004
L9.6640 20.1794
" />
<path d="M9.6640 20.1794
L9.7245 20.1189
" />
<path d="M9.7245 20.1189
L9.8455 20.0585
" />
<path d="M9.8455 20.0585
L10.0269 20.0585
" />
<path d="M10.0269 20.0585
L10.1478 20.1189
" />
<path d="M10.1478 20.1189
L10.2083 20.1794
" />
<path d="M10.2083 20.1794
L10.2688 20.3004
" />
<path d="M10.2688 20.3004
L10.2688 20.6632
" />
<path d="M10.2688 20.6632
L10.2083 20.7842
" />
<path d="M10.2083 20.7842
L10.1478 20.8447
" />
<path d="M10.1478 20.8447
L10.0269 20.9051
" />
<path d="M10.0269 20.9051
L9.8455 20.9051
" />
<path d="M10.8130 20.9051
L10.8130 19.6351
" />
<path d="M10.8130 20.1189
L10.9340 20.0585
" />
<path d="M10.9340 20.0585
L11.1759 20.0585
" />
<path d="M11.1759 20.0585
L11.2968 20.1189
" />
<path d="M11.2968 20.1189
L11.3573 20.1794
" />
<path d="M11.3573 20.1794
L11.4178 20.3004
" />
<path d="M11.4178 20.3004
L11.4178 20.6632
" />
<path d="M11.4178 20.6632
L11.3573 20.7842
" />
<path d="M11.3573 20.7842
L11.2968 20.8447
" />
<path d="M11.2968 20.8447
L11.1759 20.9051
" />
<path d="M11.1759 20.9051
L10.9340 20.9051
" />
<path d="M10.9340 20.9051
L10.8130 20.8447
" />
<path d="M12.4458 20.8447
L12.3249 20.9051
" />
<path d="M12.3249 20.9051
L12.0830 20.9051
" />
<path d="M12.0830 20.9051
L11.9620 20.8447
" />
<path d="M11.9620 20.8447
L11.9016 20.7237
" />
<path d="M11.9016 20.7237
L11.9016 20.2399
" />
<path d="M11.9016 20.2399
L11.9620 20.1189
" />
<path d="M11.9620 20.1189
L12.0830 20.0585
" />
<path d="M12.0830 20.0585
L12.3249 20.0585
" />
<path d="M12.3249 20.0585
L12.4458 20.1189
" />
<path d="M12.4458 20.1189
L12.5063 20.2399
" />
<path d="M12.5063 20.2399
L12.5063 20.3608
" />
<path d="M12.5063 20.3608
L11.9016 20.4818
" />
<path d="M12.7483 21.0261
L13.7159 21.0261
" />
<path d="M13.8368 19.6351
L14.2601 20.9051
" />
<path d="M14.2601 20.9051
L14.6835 19.6351
" />
<path d="M15.6511 20.9051
L15.6511 20.2399
" />
<path d="M15.6511 20.2399
L15.5906 20.1189
" />
<path d="M15.5906 20.1189
L15.4697 20.0585
" />
<path d="M15.4697 20.0585
L15.2278 20.0585
" />
<path d="M15.2278 20.0585
L15.1068 20.1189
" />
<path d="M15.6511 20.8447
L15.5302 20.9051
" />
<path d="M15.5302 20.9051
L15.2278 20.9051
" />
<path d="M15.2278 20.9051
L15.1068 20.8447
" />
<path d="M15.1068 20.8447
L15.0464 20.7237
" />
<path d="M15.0464 20.7237
L15.0464 20.6027
" />
<path d="M15.0464 20.6027
L15.1068 20.4818
" />
<path d="M15.1068 20.4818
L15.2278 20.4213
" />
<path d="M15.2278 20.4213
L15.5302 20.4213
" />
<path d="M15.5302 20.4213
L15.6511 20.3608
" />
<path d="M16.4373 20.9051
L16.3163 20.8447
" />
<path d="M16.3163 20.8447
L16.2558 20.7237
" />
<path d="M16.2558 20.7237
L16.2558 19.6351
" />
<path d="M16.8001 20.0585
L17.1025 20.9051
" />
<path d="M17.1025 20.9051
L17.4048 20.0585
" />
<path d="M18.3724 20.8447
L18.2515 20.9051
" />
<path d="M18.2515 20.9051
L18.0096 20.9051
" />
<path d="M18.0096 20.9051
L17.8886 20.8447
" />
<path d="M17.8886 20.8447
L17.8282 20.7237
" />
<path d="M17.8282 20.7237
L17.8282 20.2399
" />
<path d="M17.8282 20.2399
L17.8886 20.1189
" />
<path d="M17.8886 20.1189
L18.0096 20.0585
" />
<path d="M18.0096 20.0585
L18.2515 20.0585
" />
<path d="M18.2515 20.0585
L18.3724 20.1189
" />
<path d="M18.3724 20.1189
L18.4329 20.2399
" />
<path d="M18.4329 20.2399
L18.4329 20.3608
" />
<path d="M18.4329 20.3608
L17.8282 20.4818
" />
<path d="M19.1587 20.7842
L19.2191 20.8447
" />
<path d="M19.2191 20.8447
L19.1587 20.9051
" />
<path d="M19.1587 20.9051
L19.0982 20.8447
" />
<path d="M19.0982 20.8447
L19.1587 20.7842
" />
<path d="M19.1587 20.7842
L19.1587 20.9051
" />
<path d="M18.9168 19.6956
L19.0377 19.6351
" />
<path d="M19.0377 19.6351
L19.3401 19.6351
" />
<path d="M19.3401 19.6351
L19.4610 19.6956
" />
<path d="M19.4610 19.6956
L19.5215 19.8166
" />
<path d="M19.5215 19.8166
L19.5215 19.9375
" />
<path d="M19.5215 19.9375
L19.4610 20.0585
" />
<path d="M19.4610 20.0585
L19.4006 20.1189
" />
<path d="M19.4006 20.1189
L19.2796 20.1794
" />
<path d="M19.2796 20.1794
L19.2191 20.2399
" />
<path d="M19.2191 20.2399
L19.1587 20.3608
" />
<path d="M19.1587 20.3608
L19.1587 20.4213
" />
</g></g>
</svg>
