<?xml version="1.0" standalone="no"?>
 <!DOCTYPE svg PUBLIC "-//W3C//DTD SVG 1.1//EN"
 "http://www.w3.org/Graphics/SVG/1.1/DTD/svg11.dtd">
<svg
  xmlns:svg="http://www.w3.org/2000/svg"
  xmlns="http://www.w3.org/2000/svg"
  xmlns:xlink="http://www.w3.org/1999/xlink"
  xmlns:inkscape="http://www.inkscape.org/namespaces/inkscape"
  version="1.1"
  width="20.1168mm" height="22.8854mm" viewBox="0.0000 0.0000 20.1168 22.8854">
<title>SVG Image created as Valve - Globe_unit1.svg date 2026-05-31T11:36:19 </title>
  <desc>Image generated by Eeschema-SVG </desc>
<g style="fill:#000000; fill-opacity:1.0000;stroke:#000000; stroke-opacity:1.0000;
stroke-linecap:round; stroke-linejoin:round;"
 transform="translate(0 0) scale(1 1)">
<path style="fill:none;
stroke:#840000; stroke-width:0.1000; stroke-opacity:1;
stroke-linecap:round; stroke-linejoin:round;fill:none"
d="M 10.0584,9.9569
5.0584,7.9569
5.0584,11.9569
Z" />
<path style="fill:none;
stroke:#840000; stroke-width:0.1000; stroke-opacity:1;
stroke-linecap:round; stroke-linejoin:round;fill:none"
d="M 10.0584,9.9569
15.0584,7.9569
15.0584,11.9569
Z" />
</g>
<g style="fill:none;
stroke:#840000; stroke-width:0.1524; stroke-opacity:1;
stroke-linecap:round; stroke-linejoin:round;">
<path d="M5.0584 9.9569
L2.0584 9.9569
" />
<path d="M15.0584 9.9569
L18.0584 9.9569
" />
</g>
<g style="fill:none;
stroke:#006464; stroke-width:0.1524; stroke-opacity:1;
stroke-linecap:round; stroke-linejoin:round;">
<text x="10.0584" y="20.5919"
textLength="12.5402" font-size="1.6933" lengthAdjust="spacingAndGlyphs"
text-anchor="middle" opacity="0" stroke-opacity="0">Globe_Valve?</text>
<g class="stroked-text"><desc>Globe_Valve?</desc>
<path d="M4.8575 19.3269
L4.7365 19.2664
" />
<path d="M4.7365 19.2664
L4.5551 19.2664
" />
<path d="M4.5551 19.2664
L4.3737 19.3269
" />
<path d="M4.3737 19.3269
L4.2527 19.4479
" />
<path d="M4.2527 19.4479
L4.1922 19.5688
" />
<path d="M4.1922 19.5688
L4.1318 19.8107
" />
<path d="M4.1318 19.8107
L4.1318 19.9921
" />
<path d="M4.1318 19.9921
L4.1922 20.2340
" />
<path d="M4.1922 20.2340
L4.2527 20.3550
" />
<path d="M4.2527 20.3550
L4.3737 20.4760
" />
<path d="M4.3737 20.4760
L4.5551 20.5364
" />
<path d="M4.5551 20.5364
L4.6760 20.5364
" />
<path d="M4.6760 20.5364
L4.8575 20.4760
" />
<path d="M4.8575 20.4760
L4.9179 20.4155
" />
<path d="M4.9179 20.4155
L4.9179 19.9921
" />
<path d="M4.9179 19.9921
L4.6760 19.9921
" />
<path d="M5.6437 20.5364
L5.5227 20.4760
" />
<path d="M5.5227 20.4760
L5.4622 20.3550
" />
<path d="M5.4622 20.3550
L5.4622 19.2664
" />
<path d="M6.3089 20.5364
L6.1879 20.4760
" />
<path d="M6.1879 20.4760
L6.1274 20.4155
" />
<path d="M6.1274 20.4155
L6.0670 20.2945
" />
<path d="M6.0670 20.2945
L6.0670 19.9317
" />
<path d="M6.0670 19.9317
L6.1274 19.8107
" />
<path d="M6.1274 19.8107
L6.1879 19.7502
" />
<path d="M6.1879 19.7502
L6.3089 19.6898
" />
<path d="M6.3089 19.6898
L6.4903 19.6898
" />
<path d="M6.4903 19.6898
L6.6112 19.7502
" />
<path d="M6.6112 19.7502
L6.6717 19.8107
" />
<path d="M6.6717 19.8107
L6.7322 19.9317
" />
<path d="M6.7322 19.9317
L6.7322 20.2945
" />
<path d="M6.7322 20.2945
L6.6717 20.4155
" />
<path d="M6.6717 20.4155
L6.6112 20.4760
" />
<path d="M6.6112 20.4760
L6.4903 20.5364
" />
<path d="M6.4903 20.5364
L6.3089 20.5364
" />
<path d="M7.2764 20.5364
L7.2764 19.2664
" />
<path d="M7.2764 19.7502
L7.3974 19.6898
" />
<path d="M7.3974 19.6898
L7.6393 19.6898
" />
<path d="M7.6393 19.6898
L7.7602 19.7502
" />
<path d="M7.7602 19.7502
L7.8207 19.8107
" />
<path d="M7.8207 19.8107
L7.8812 19.9317
" />
<path d="M7.8812 19.9317
L7.8812 20.2945
" />
<path d="M7.8812 20.2945
L7.8207 20.4155
" />
<path d="M7.8207 20.4155
L7.7602 20.4760
" />
<path d="M7.7602 20.4760
L7.6393 20.5364
" />
<path d="M7.6393 20.5364
L7.3974 20.5364
" />
<path d="M7.3974 20.5364
L7.2764 20.4760
" />
<path d="M8.9092 20.4760
L8.7883 20.5364
" />
<path d="M8.7883 20.5364
L8.5464 20.5364
" />
<path d="M8.5464 20.5364
L8.4254 20.4760
" />
<path d="M8.4254 20.4760
L8.3650 20.3550
" />
<path d="M8.3650 20.3550
L8.3650 19.8712
" />
<path d="M8.3650 19.8712
L8.4254 19.7502
" />
<path d="M8.4254 19.7502
L8.5464 19.6898
" />
<path d="M8.5464 19.6898
L8.7883 19.6898
" />
<path d="M8.7883 19.6898
L8.9092 19.7502
" />
<path d="M8.9092 19.7502
L8.9697 19.8712
" />
<path d="M8.9697 19.8712
L8.9697 19.9921
" />
<path d="M8.9697 19.9921
L8.3650 20.1131
" />
<path d="M9.2117 20.6574
L10.1793 20.6574
" />
<path d="M10.3002 19.2664
L10.7235 20.5364
" />
<path d="M10.7235 20.5364
L11.1469 19.2664
" />
<path d="M12.1145 20.5364
L12.1145 19.8712
" />
<path d="M12.1145 19.8712
L12.0540 19.7502
" />
<path d="M12.0540 19.7502
L11.9331 19.6898
" />
<path d="M11.9331 19.6898
L11.6912 19.6898
" />
<path d="M11.6912 19.6898
L11.5702 19.7502
" />
<path d="M12.1145 20.4760
L11.9936 20.5364
" />
<path d="M11.9936 20.5364
L11.6912 20.5364
" />
<path d="M11.6912 20.5364
L11.5702 20.4760
" />
<path d="M11.5702 20.4760
L11.5098 20.3550
" />
<path d="M11.5098 20.3550
L11.5098 20.2340
" />
<path d="M11.5098 20.2340
L11.5702 20.1131
" />
<path d="M11.5702 20.1131
L11.6912 20.0526
" />
<path d="M11.6912 20.0526
L11.9936 20.0526
" />
<path d="M11.9936 20.0526
L12.1145 19.9921
" />
<path d="M12.9007 20.5364
L12.7797 20.4760
" />
<path d="M12.7797 20.4760
L12.7192 20.3550
" />
<path d="M12.7192 20.3550
L12.7192 19.2664
" />
<path d="M13.2635 19.6898
L13.5659 20.5364
" />
<path d="M13.5659 20.5364
L13.8682 19.6898
" />
<path d="M14.8358 20.4760
L14.7149 20.5364
" />
<path d="M14.7149 20.5364
L14.4730 20.5364
" />
<path d="M14.4730 20.5364
L14.3520 20.4760
" />
<path d="M14.3520 20.4760
L14.2916 20.3550
" />
<path d="M14.2916 20.3550
L14.2916 19.8712
" />
<path d="M14.2916 19.8712
L14.3520 19.7502
" />
<path d="M14.3520 19.7502
L14.4730 19.6898
" />
<path d="M14.4730 19.6898
L14.7149 19.6898
" />
<path d="M14.7149 19.6898
L14.8358 19.7502
" />
<path d="M14.8358 19.7502
L14.8963 19.8712
" />
<path d="M14.8963 19.8712
L14.8963 19.9921
" />
<path d="M14.8963 19.9921
L14.2916 20.1131
" />
<path d="M15.6221 20.4155
L15.6825 20.4760
" />
<path d="M15.6825 20.4760
L15.6221 20.5364
" />
<path d="M15.6221 20.5364
L15.5616 20.4760
" />
<path d="M15.5616 20.4760
L15.6221 20.4155
" />
<path d="M15.6221 20.4155
L15.6221 20.5364
" />
<path d="M15.3802 19.3269
L15.5011 19.2664
" />
<path d="M15.5011 19.2664
L15.8035 19.2664
" />
<path d="M15.8035 19.2664
L15.9244 19.3269
" />
<path d="M15.9244 19.3269
L15.9849 19.4479
" />
<path d="M15.9849 19.4479
L15.9849 19.5688
" />
<path d="M15.9849 19.5688
L15.9244 19.6898
" />
<path d="M15.9244 19.6898
L15.8640 19.7502
" />
<path d="M15.8640 19.7502
L15.7430 19.8107
" />
<path d="M15.7430 19.8107
L15.6825 19.8712
" />
<path d="M15.6825 19.8712
L15.6221 19.9921
" />
<path d="M15.6221 19.9921
L15.6221 20.0526
" />
</g></g>
</svg>
