<?xml version="1.0" standalone="no"?>
 <!DOCTYPE svg PUBLIC "-//W3C//DTD SVG 1.1//EN"
 "http://www.w3.org/Graphics/SVG/1.1/DTD/svg11.dtd">
<svg
  xmlns:svg="http://www.w3.org/2000/svg"
  xmlns="http://www.w3.org/2000/svg"
  xmlns:xlink="http://www.w3.org/1999/xlink"
  xmlns:inkscape="http://www.inkscape.org/namespaces/inkscape"
  version="1.1"
  width="20.1168mm" height="22.8854mm" viewBox="0.0000 0.0000 20.1168 22.8854">
<title>SVG Image created as Valve - Check_unit1.svg date 2026-05-31T11:36:27 </title>
  <desc>Image generated by Eeschema-SVG </desc>
<g style="fill:#000000; fill-opacity:1.0000;stroke:#000000; stroke-opacity:1.0000;
stroke-linecap:round; stroke-linejoin:round;"
 transform="translate(0 0) scale(1 1)">
<path style="fill:none;
stroke:#840000; stroke-width:0.1000; stroke-opacity:1;
stroke-linecap:round; stroke-linejoin:round;fill:none"
d="M 5.0584,11.9569
5.0584,7.9569
" />
<path style="fill:none;
stroke:#840000; stroke-width:0.1000; stroke-opacity:1;
stroke-linecap:round; stroke-linejoin:round;fill:none"
d="M 5.5584,11.7069
10.0584,9.9569
" />
<path style="fill:none;
stroke:#840000; stroke-width:0.1000; stroke-opacity:1;
stroke-linecap:round; stroke-linejoin:round;fill:none"
d="M 10.0584,9.9569
14.5584,8.2069
" />
<path style="fill:#840000; fill-opacity:1.0000;
stroke:#840000; stroke-width:0.1524; stroke-opacity:1;
stroke-linecap:round; stroke-linejoin:round;fill-rule:evenodd;"
d="M 14.5584,8.2069
13.8084,8.2069
14.0584,8.7069
Z" />
<path style="fill:none;
stroke:#840000; stroke-width:0.1000; stroke-opacity:1;
stroke-linecap:round; stroke-linejoin:round;fill:none"
d="M 15.0584,7.9569
15.0584,11.9569
" />
</g>
<g style="fill:none;
stroke:#840000; stroke-width:0.1524; stroke-opacity:1;
stroke-linecap:round; stroke-linejoin:round;">
<path d="M5.0584 9.9569
L2.0584 9.9569
" />
<path d="M15.0584 9.9569
L18.0584 9.9569
" />
</g>
<g style="fill:none;
stroke:#006464; stroke-width:0.1524; stroke-opacity:1;
stroke-linecap:round; stroke-linejoin:round;">
<text x="10.0584" y="20.5919"
textLength="12.8427" font-size="1.6933" lengthAdjust="spacingAndGlyphs"
text-anchor="middle" opacity="0" stroke-opacity="0">Check_Valve?</text>
<g class="stroked-text"><desc>Check_Valve?</desc>
<path d="M4.7667 20.4155
L4.7063 20.4760
" />
<path d="M4.7063 20.4760
L4.5248 20.5364
" />
<path d="M4.5248 20.5364
L4.4039 20.5364
" />
<path d="M4.4039 20.5364
L4.2225 20.4760
" />
<path d="M4.2225 20.4760
L4.1015 20.3550
" />
<path d="M4.1015 20.3550
L4.0410 20.2340
" />
<path d="M4.0410 20.2340
L3.9806 19.9921
" />
<path d="M3.9806 19.9921
L3.9806 19.8107
" />
<path d="M3.9806 19.8107
L4.0410 19.5688
" />
<path d="M4.0410 19.5688
L4.1015 19.4479
" />
<path d="M4.1015 19.4479
L4.2225 19.3269
" />
<path d="M4.2225 19.3269
L4.4039 19.2664
" />
<path d="M4.4039 19.2664
L4.5248 19.2664
" />
<path d="M4.5248 19.2664
L4.7063 19.3269
" />
<path d="M4.7063 19.3269
L4.7667 19.3874
" />
<path d="M5.3110 20.5364
L5.3110 19.2664
" />
<path d="M5.8553 20.5364
L5.8553 19.8712
" />
<path d="M5.8553 19.8712
L5.7948 19.7502
" />
<path d="M5.7948 19.7502
L5.6739 19.6898
" />
<path d="M5.6739 19.6898
L5.4925 19.6898
" />
<path d="M5.4925 19.6898
L5.3715 19.7502
" />
<path d="M5.3715 19.7502
L5.3110 19.8107
" />
<path d="M6.9438 20.4760
L6.8229 20.5364
" />
<path d="M6.8229 20.5364
L6.5810 20.5364
" />
<path d="M6.5810 20.5364
L6.4600 20.4760
" />
<path d="M6.4600 20.4760
L6.3996 20.3550
" />
<path d="M6.3996 20.3550
L6.3996 19.8712
" />
<path d="M6.3996 19.8712
L6.4600 19.7502
" />
<path d="M6.4600 19.7502
L6.5810 19.6898
" />
<path d="M6.5810 19.6898
L6.8229 19.6898
" />
<path d="M6.8229 19.6898
L6.9438 19.7502
" />
<path d="M6.9438 19.7502
L7.0043 19.8712
" />
<path d="M7.0043 19.8712
L7.0043 19.9921
" />
<path d="M7.0043 19.9921
L6.3996 20.1131
" />
<path d="M8.0929 20.4760
L7.9720 20.5364
" />
<path d="M7.9720 20.5364
L7.7301 20.5364
" />
<path d="M7.7301 20.5364
L7.6091 20.4760
" />
<path d="M7.6091 20.4760
L7.5486 20.4155
" />
<path d="M7.5486 20.4155
L7.4882 20.2945
" />
<path d="M7.4882 20.2945
L7.4882 19.9317
" />
<path d="M7.4882 19.9317
L7.5486 19.8107
" />
<path d="M7.5486 19.8107
L7.6091 19.7502
" />
<path d="M7.6091 19.7502
L7.7301 19.6898
" />
<path d="M7.7301 19.6898
L7.9720 19.6898
" />
<path d="M7.9720 19.6898
L8.0929 19.7502
" />
<path d="M8.6372 20.5364
L8.6372 19.2664
" />
<path d="M8.7582 20.0526
L9.1210 20.5364
" />
<path d="M9.1210 19.6898
L8.6372 20.1736
" />
<path d="M9.3630 20.6574
L10.3306 20.6574
" />
<path d="M10.4515 19.2664
L10.8748 20.5364
" />
<path d="M10.8748 20.5364
L11.2982 19.2664
" />
<path d="M12.2658 20.5364
L12.2658 19.8712
" />
<path d="M12.2658 19.8712
L12.2053 19.7502
" />
<path d="M12.2053 19.7502
L12.0844 19.6898
" />
<path d="M12.0844 19.6898
L11.8425 19.6898
" />
<path d="M11.8425 19.6898
L11.7215 19.7502
" />
<path d="M12.2658 20.4760
L12.1449 20.5364
" />
<path d="M12.1449 20.5364
L11.8425 20.5364
" />
<path d="M11.8425 20.5364
L11.7215 20.4760
" />
<path d="M11.7215 20.4760
L11.6611 20.3550
" />
<path d="M11.6611 20.3550
L11.6611 20.2340
" />
<path d="M11.6611 20.2340
L11.7215 20.1131
" />
<path d="M11.7215 20.1131
L11.8425 20.0526
" />
<path d="M11.8425 20.0526
L12.1449 20.0526
" />
<path d="M12.1449 20.0526
L12.2658 19.9921
" />
<path d="M13.0520 20.5364
L12.9310 20.4760
" />
<path d="M12.9310 20.4760
L12.8705 20.3550
" />
<path d="M12.8705 20.3550
L12.8705 19.2664
" />
<path d="M13.4148 19.6898
L13.7172 20.5364
" />
<path d="M13.7172 20.5364
L14.0195 19.6898
" />
<path d="M14.9871 20.4760
L14.8662 20.5364
" />
<path d="M14.8662 20.5364
L14.6243 20.5364
" />
<path d="M14.6243 20.5364
L14.5033 20.4760
" />
<path d="M14.5033 20.4760
L14.4429 20.3550
" />
<path d="M14.4429 20.3550
L14.4429 19.8712
" />
<path d="M14.4429 19.8712
L14.5033 19.7502
" />
<path d="M14.5033 19.7502
L14.6243 19.6898
" />
<path d="M14.6243 19.6898
L14.8662 19.6898
" />
<path d="M14.8662 19.6898
L14.9871 19.7502
" />
<path d="M14.9871 19.7502
L15.0476 19.8712
" />
<path d="M15.0476 19.8712
L15.0476 19.9921
" />
<path d="M15.0476 19.9921
L14.4429 20.1131
" />
<path d="M15.7734 20.4155
L15.8338 20.4760
" />
<path d="M15.8338 20.4760
L15.7734 20.5364
" />
<path d="M15.7734 20.5364
L15.7129 20.4760
" />
<path d="M15.7129 20.4760
L15.7734 20.4155
" />
<path d="M15.7734 20.4155
L15.7734 20.5364
" />
<path d="M15.5315 19.3269
L15.6524 19.2664
" />
<path d="M15.6524 19.2664
L15.9548 19.2664
" />
<path d="M15.9548 19.2664
L16.0757 19.3269
" />
<path d="M16.0757 19.3269
L16.1362 19.4479
" />
<path d="M16.1362 19.4479
L16.1362 19.5688
" />
<path d="M16.1362 19.5688
L16.0757 19.6898
" />
<path d="M16.0757 19.6898
L16.0153 19.7502
" />
<path d="M16.0153 19.7502
L15.8943 19.8107
" />
<path d="M15.8943 19.8107
L15.8338 19.8712
" />
<path d="M15.8338 19.8712
L15.7734 19.9921
" />
<path d="M15.7734 19.9921
L15.7734 20.0526
" />
</g></g>
</svg>
