<?xml version="1.0" standalone="no"?>
 <!DOCTYPE svg PUBLIC "-//W3C//DTD SVG 1.1//EN" 
 "http://www.w3.org/Graphics/SVG/1.1/DTD/svg11.dtd"> 
<svg
  xmlns:svg="http://www.w3.org/2000/svg"
  xmlns="http://www.w3.org/2000/svg"
  xmlns:xlink="http://www.w3.org/1999/xlink"
  xmlns:inkscape="http://www.inkscape.org/namespaces/inkscape"
  version="1.1"
  width="24.9428mm" height="22.8854mm" viewBox="0.0000 0.0000 24.9428 22.8854">
<title>SVG Image created as Valve - Ball Pneumatic_unit1.svg date 2026-05-31T11:36:28 </title>
  <desc>Image generated by Eeschema-SVG </desc>
<g style="fill:#000000; fill-opacity:1.0000;stroke:#000000; stroke-opacity:1.0000;
stroke-linecap:round; stroke-linejoin:round;"
 transform="translate(0 0) scale(1 1)">
</g>
<g style="fill:none; 
stroke:#840000; stroke-width:0.1000; stroke-opacity:1; 
stroke-linecap:round; stroke-linejoin:round;">
<path d="M12.4714 4.9576 A1.9996 1.9996 0.0 0 0 10.4714 6.9569" />
<path d="M14.4673 6.9569 A1.9973 1.9973 0.0 0 0 12.4714 4.9569" />
<path style="fill:none; 
stroke:#840000; stroke-width:0.1000; stroke-opacity:1; 
stroke-linecap:round; stroke-linejoin:round;fill:none"
d="M 12.4714,6.9569
12.4714,9.9569
" /> 
<path style="fill:none; 
stroke:#840000; stroke-width:0.1000; stroke-opacity:1; 
stroke-linecap:round; stroke-linejoin:round;fill:none"
d="M 12.4714,9.9569
7.4714,7.9569
7.4714,11.9569
Z" /> 
<path style="fill:none; 
stroke:#840000; stroke-width:0.1000; stroke-opacity:1; 
stroke-linecap:round; stroke-linejoin:round;fill:none"
d="M 12.4714,9.9569
17.4714,7.9569
17.4714,11.9569
Z" /> 
<circle cx="12.4714" cy="9.9569" r="1.0000" /> 
<path style="fill:none; 
stroke:#840000; stroke-width:0.1000; stroke-opacity:1; 
stroke-linecap:round; stroke-linejoin:round;fill:none"
d="M 14.4714,6.9569
10.4714,6.9569
" /> 
</g>
<g style="fill:none; 
stroke:#840000; stroke-width:0.1524; stroke-opacity:1; 
stroke-linecap:round; stroke-linejoin:round;">
<path d="M7.4714 9.9569
L4.4714 9.9569
" />
<path d="M17.4714 9.9569
L20.4714 9.9569
" />
</g>
<g style="fill:none; 
stroke:#006464; stroke-width:0.1524; stroke-opacity:1; 
stroke-linecap:round; stroke-linejoin:round;">
<text x="12.4714" y="20.5919"
textLength="21.8534" font-size="1.6933" lengthAdjust="spacingAndGlyphs"
text-anchor="middle" opacity="0" stroke-opacity="0">Ball_Pneumatic_Valve?</text>
<g class="stroked-text"><desc>Ball_Pneumatic_Valve?</desc>
<path d="M2.3720 19.8712
L2.5534 19.9317
" />
<path d="M2.5534 19.9317
L2.6139 19.9921
" />
<path d="M2.6139 19.9921
L2.6743 20.1131
" />
<path d="M2.6743 20.1131
L2.6743 20.2945
" />
<path d="M2.6743 20.2945
L2.6139 20.4155
" />
<path d="M2.6139 20.4155
L2.5534 20.4760
" />
<path d="M2.5534 20.4760
L2.4324 20.5364
" />
<path d="M2.4324 20.5364
L1.9486 20.5364
" />
<path d="M1.9486 20.5364
L1.9486 19.2664
" />
<path d="M1.9486 19.2664
L2.3720 19.2664
" />
<path d="M2.3720 19.2664
L2.4929 19.3269
" />
<path d="M2.4929 19.3269
L2.5534 19.3874
" />
<path d="M2.5534 19.3874
L2.6139 19.5083
" />
<path d="M2.6139 19.5083
L2.6139 19.6293
" />
<path d="M2.6139 19.6293
L2.5534 19.7502
" />
<path d="M2.5534 19.7502
L2.4929 19.8107
" />
<path d="M2.4929 19.8107
L2.3720 19.8712
" />
<path d="M2.3720 19.8712
L1.9486 19.8712
" />
<path d="M3.7629 20.5364
L3.7629 19.8712
" />
<path d="M3.7629 19.8712
L3.7024 19.7502
" />
<path d="M3.7024 19.7502
L3.5815 19.6898
" />
<path d="M3.5815 19.6898
L3.3396 19.6898
" />
<path d="M3.3396 19.6898
L3.2186 19.7502
" />
<path d="M3.7629 20.4760
L3.6420 20.5364
" />
<path d="M3.6420 20.5364
L3.3396 20.5364
" />
<path d="M3.3396 20.5364
L3.2186 20.4760
" />
<path d="M3.2186 20.4760
L3.1582 20.3550
" />
<path d="M3.1582 20.3550
L3.1582 20.2340
" />
<path d="M3.1582 20.2340
L3.2186 20.1131
" />
<path d="M3.2186 20.1131
L3.3396 20.0526
" />
<path d="M3.3396 20.0526
L3.6420 20.0526
" />
<path d="M3.6420 20.0526
L3.7629 19.9921
" />
<path d="M4.5491 20.5364
L4.4281 20.4760
" />
<path d="M4.4281 20.4760
L4.3676 20.3550
" />
<path d="M4.3676 20.3550
L4.3676 19.2664
" />
<path d="M5.2143 20.5364
L5.0933 20.4760
" />
<path d="M5.0933 20.4760
L5.0328 20.3550
" />
<path d="M5.0328 20.3550
L5.0328 19.2664
" />
<path d="M5.3957 20.6574
L6.3633 20.6574
" />
<path d="M6.6656 20.5364
L6.6656 19.2664
" />
<path d="M6.6656 19.2664
L7.1494 19.2664
" />
<path d="M7.1494 19.2664
L7.2704 19.3269
" />
<path d="M7.2704 19.3269
L7.3309 19.3874
" />
<path d="M7.3309 19.3874
L7.3913 19.5083
" />
<path d="M7.3913 19.5083
L7.3913 19.6898
" />
<path d="M7.3913 19.6898
L7.3309 19.8107
" />
<path d="M7.3309 19.8107
L7.2704 19.8712
" />
<path d="M7.2704 19.8712
L7.1494 19.9317
" />
<path d="M7.1494 19.9317
L6.6656 19.9317
" />
<path d="M7.9356 19.6898
L7.9356 20.5364
" />
<path d="M7.9356 19.8107
L7.9961 19.7502
" />
<path d="M7.9961 19.7502
L8.1171 19.6898
" />
<path d="M8.1171 19.6898
L8.2985 19.6898
" />
<path d="M8.2985 19.6898
L8.4194 19.7502
" />
<path d="M8.4194 19.7502
L8.4799 19.8712
" />
<path d="M8.4799 19.8712
L8.4799 20.5364
" />
<path d="M9.5684 20.4760
L9.4475 20.5364
" />
<path d="M9.4475 20.5364
L9.2056 20.5364
" />
<path d="M9.2056 20.5364
L9.0846 20.4760
" />
<path d="M9.0846 20.4760
L9.0242 20.3550
" />
<path d="M9.0242 20.3550
L9.0242 19.8712
" />
<path d="M9.0242 19.8712
L9.0846 19.7502
" />
<path d="M9.0846 19.7502
L9.2056 19.6898
" />
<path d="M9.2056 19.6898
L9.4475 19.6898
" />
<path d="M9.4475 19.6898
L9.5684 19.7502
" />
<path d="M9.5684 19.7502
L9.6289 19.8712
" />
<path d="M9.6289 19.8712
L9.6289 19.9921
" />
<path d="M9.6289 19.9921
L9.0242 20.1131
" />
<path d="M10.7175 19.6898
L10.7175 20.5364
" />
<path d="M10.1732 19.6898
L10.1732 20.3550
" />
<path d="M10.1732 20.3550
L10.2337 20.4760
" />
<path d="M10.2337 20.4760
L10.3547 20.5364
" />
<path d="M10.3547 20.5364
L10.5361 20.5364
" />
<path d="M10.5361 20.5364
L10.6570 20.4760
" />
<path d="M10.6570 20.4760
L10.7175 20.4155
" />
<path d="M11.3222 20.5364
L11.3222 19.6898
" />
<path d="M11.3222 19.8107
L11.3827 19.7502
" />
<path d="M11.3827 19.7502
L11.5037 19.6898
" />
<path d="M11.5037 19.6898
L11.6851 19.6898
" />
<path d="M11.6851 19.6898
L11.8060 19.7502
" />
<path d="M11.8060 19.7502
L11.8665 19.8712
" />
<path d="M11.8665 19.8712
L11.8665 20.5364
" />
<path d="M11.8665 19.8712
L11.9270 19.7502
" />
<path d="M11.9270 19.7502
L12.0479 19.6898
" />
<path d="M12.0479 19.6898
L12.2294 19.6898
" />
<path d="M12.2294 19.6898
L12.3503 19.7502
" />
<path d="M12.3503 19.7502
L12.4108 19.8712
" />
<path d="M12.4108 19.8712
L12.4108 20.5364
" />
<path d="M13.5598 20.5364
L13.5598 19.8712
" />
<path d="M13.5598 19.8712
L13.4993 19.7502
" />
<path d="M13.4993 19.7502
L13.3784 19.6898
" />
<path d="M13.3784 19.6898
L13.1365 19.6898
" />
<path d="M13.1365 19.6898
L13.0155 19.7502
" />
<path d="M13.5598 20.4760
L13.4389 20.5364
" />
<path d="M13.4389 20.5364
L13.1365 20.5364
" />
<path d="M13.1365 20.5364
L13.0155 20.4760
" />
<path d="M13.0155 20.4760
L12.9551 20.3550
" />
<path d="M12.9551 20.3550
L12.9551 20.2340
" />
<path d="M12.9551 20.2340
L13.0155 20.1131
" />
<path d="M13.0155 20.1131
L13.1365 20.0526
" />
<path d="M13.1365 20.0526
L13.4389 20.0526
" />
<path d="M13.4389 20.0526
L13.5598 19.9921
" />
<path d="M13.9831 19.6898
L14.4669 19.6898
" />
<path d="M14.1645 19.2664
L14.1645 20.3550
" />
<path d="M14.1645 20.3550
L14.2250 20.4760
" />
<path d="M14.2250 20.4760
L14.3460 20.5364
" />
<path d="M14.3460 20.5364
L14.4669 20.5364
" />
<path d="M14.8902 20.5364
L14.8902 19.6898
" />
<path d="M14.8902 19.2664
L14.8298 19.3269
" />
<path d="M14.8298 19.3269
L14.8902 19.3874
" />
<path d="M14.8902 19.3874
L14.9507 19.3269
" />
<path d="M14.9507 19.3269
L14.8902 19.2664
" />
<path d="M14.8902 19.2664
L14.8902 19.3874
" />
<path d="M16.0393 20.4760
L15.9184 20.5364
" />
<path d="M15.9184 20.5364
L15.6765 20.5364
" />
<path d="M15.6765 20.5364
L15.5555 20.4760
" />
<path d="M15.5555 20.4760
L15.4950 20.4155
" />
<path d="M15.4950 20.4155
L15.4346 20.2945
" />
<path d="M15.4346 20.2945
L15.4346 19.9317
" />
<path d="M15.4346 19.9317
L15.4950 19.8107
" />
<path d="M15.4950 19.8107
L15.5555 19.7502
" />
<path d="M15.5555 19.7502
L15.6765 19.6898
" />
<path d="M15.6765 19.6898
L15.9184 19.6898
" />
<path d="M15.9184 19.6898
L16.0393 19.7502
" />
<path d="M16.2813 20.6574
L17.2489 20.6574
" />
<path d="M17.3698 19.2664
L17.7931 20.5364
" />
<path d="M17.7931 20.5364
L18.2165 19.2664
" />
<path d="M19.1841 20.5364
L19.1841 19.8712
" />
<path d="M19.1841 19.8712
L19.1236 19.7502
" />
<path d="M19.1236 19.7502
L19.0027 19.6898
" />
<path d="M19.0027 19.6898
L18.7608 19.6898
" />
<path d="M18.7608 19.6898
L18.6398 19.7502
" />
<path d="M19.1841 20.4760
L19.0632 20.5364
" />
<path d="M19.0632 20.5364
L18.7608 20.5364
" />
<path d="M18.7608 20.5364
L18.6398 20.4760
" />
<path d="M18.6398 20.4760
L18.5794 20.3550
" />
<path d="M18.5794 20.3550
L18.5794 20.2340
" />
<path d="M18.5794 20.2340
L18.6398 20.1131
" />
<path d="M18.6398 20.1131
L18.7608 20.0526
" />
<path d="M18.7608 20.0526
L19.0632 20.0526
" />
<path d="M19.0632 20.0526
L19.1841 19.9921
" />
<path d="M19.9703 20.5364
L19.8493 20.4760
" />
<path d="M19.8493 20.4760
L19.7888 20.3550
" />
<path d="M19.7888 20.3550
L19.7888 19.2664
" />
<path d="M20.3331 19.6898
L20.6355 20.5364
" />
<path d="M20.6355 20.5364
L20.9378 19.6898
" />
<path d="M21.9054 20.4760
L21.7845 20.5364
" />
<path d="M21.7845 20.5364
L21.5426 20.5364
" />
<path d="M21.5426 20.5364
L21.4216 20.4760
" />
<path d="M21.4216 20.4760
L21.3612 20.3550
" />
<path d="M21.3612 20.3550
L21.3612 19.8712
" />
<path d="M21.3612 19.8712
L21.4216 19.7502
" />
<path d="M21.4216 19.7502
L21.5426 19.6898
" />
<path d="M21.5426 19.6898
L21.7845 19.6898
" />
<path d="M21.7845 19.6898
L21.9054 19.7502
" />
<path d="M21.9054 19.7502
L21.9659 19.8712
" />
<path d="M21.9659 19.8712
L21.9659 19.9921
" />
<path d="M21.9659 19.9921
L21.3612 20.1131
" />
<path d="M22.6917 20.4155
L22.7521 20.4760
" />
<path d="M22.7521 20.4760
L22.6917 20.5364
" />
<path d="M22.6917 20.5364
L22.6312 20.4760
" />
<path d="M22.6312 20.4760
L22.6917 20.4155
" />
<path d="M22.6917 20.4155
L22.6917 20.5364
" />
<path d="M22.4498 19.3269
L22.5707 19.2664
" />
<path d="M22.5707 19.2664
L22.8731 19.2664
" />
<path d="M22.8731 19.2664
L22.9940 19.3269
" />
<path d="M22.9940 19.3269
L23.0545 19.4479
" />
<path d="M23.0545 19.4479
L23.0545 19.5688
" />
<path d="M23.0545 19.5688
L22.9940 19.6898
" />
<path d="M22.9940 19.6898
L22.9336 19.7502
" />
<path d="M22.9336 19.7502
L22.8126 19.8107
" />
<path d="M22.8126 19.8107
L22.7521 19.8712
" />
<path d="M22.7521 19.8712
L22.6917 19.9921
" />
<path d="M22.6917 19.9921
L22.6917 20.0526
" />
</g></g> 
</svg>
