<?xml version="1.0" standalone="no"?>
 <!DOCTYPE svg PUBLIC "-//W3C//DTD SVG 1.1//EN"
 "http://www.w3.org/Graphics/SVG/1.1/DTD/svg11.dtd">
<svg
  xmlns:svg="http://www.w3.org/2000/svg"
  xmlns="http://www.w3.org/2000/svg"
  xmlns:xlink="http://www.w3.org/1999/xlink"
  xmlns:inkscape="http://www.inkscape.org/namespaces/inkscape"
  version="1.1"
  width="40.1828mm" height="23.2918mm" viewBox="0.0000 0.0000 40.1828 23.2918">
<title>SVG Image created as Valve - Pressure and Vacuum Relief_unit1.svg date 2026-05-31T11:36:24 </title>
  <desc>Image generated by Eeschema-SVG </desc>
<g style="fill:#000000; fill-opacity:1.0000;stroke:#000000; stroke-opacity:1.0000;
stroke-linecap:round; stroke-linejoin:round;"
 transform="translate(0 0) scale(1 1)">
<path style="fill:none;
stroke:#840000; stroke-width:0.1000; stroke-opacity:1;
stroke-linecap:round; stroke-linejoin:round;fill:none"
d="M 19.0914,12.3256
21.0914,11.3256
" />
<path style="fill:none;
stroke:#840000; stroke-width:0.1000; stroke-opacity:1;
stroke-linecap:round; stroke-linejoin:round;fill:none"
d="M 19.0914,13.3256
21.0914,12.3256
" />
<path style="fill:none;
stroke:#840000; stroke-width:0.1000; stroke-opacity:1;
stroke-linecap:round; stroke-linejoin:round;fill:none"
d="M 19.0914,14.3256
21.0914,13.3256
" />
<path style="fill:#840000; fill-opacity:1.0000;
stroke:#840000; stroke-width:0.1000; stroke-opacity:1;
stroke-linecap:round; stroke-linejoin:round;fill-rule:evenodd;"
d="M 20.0914,2.3256
19.8414,3.3256
20.3414,3.3256
Z" />
<path style="fill:none;
stroke:#840000; stroke-width:0.1000; stroke-opacity:1;
stroke-linecap:round; stroke-linejoin:round;fill:none"
d="M 20.0914,10.3256
20.0914,14.3256
" />
<path style="fill:none;
stroke:#840000; stroke-width:0.1000; stroke-opacity:1;
stroke-linecap:round; stroke-linejoin:round;fill:none"
d="M 20.0914,10.3256
15.0914,8.3256
15.0914,12.3256
Z" />
<path style="fill:none;
stroke:#840000; stroke-width:0.1000; stroke-opacity:1;
stroke-linecap:round; stroke-linejoin:round;fill:none"
d="M 20.0914,10.3256
18.0914,5.3256
22.0914,5.3256
Z" />
<path style="fill:none;
stroke:#840000; stroke-width:0.1000; stroke-opacity:1;
stroke-linecap:round; stroke-linejoin:round;fill:none"
d="M 20.0914,10.3256
25.0914,8.3256
25.0914,12.3256
Z" />
</g>
<g style="fill:none;
stroke:#840000; stroke-width:0.1524; stroke-opacity:1;
stroke-linecap:round; stroke-linejoin:round;">
<path d="M15.0914 10.3256
L12.0914 10.3256
" />
<path d="M20.0914 5.3256
L20.0914 2.3256
" />
<path d="M25.0914 10.3256
L28.0914 10.3256
" />
</g>
<g style="fill:none;
stroke:#006464; stroke-width:0.1524; stroke-opacity:1;
stroke-linecap:round; stroke-linejoin:round;">
<text x="20.0914" y="20.9606"
textLength="34.5534" font-size="1.6933" lengthAdjust="spacingAndGlyphs"
text-anchor="middle" opacity="0" stroke-opacity="0">Pressure_and_Vacuum_Relief_Valve?</text>
<g class="stroked-text"><desc>Pressure_and_Vacuum_Relief_Valve?</desc>
<path d="M3.2186 20.9051
L3.2186 19.6351
" />
<path d="M3.2186 19.6351
L3.7024 19.6351
" />
<path d="M3.7024 19.6351
L3.8234 19.6956
" />
<path d="M3.8234 19.6956
L3.8839 19.7561
" />
<path d="M3.8839 19.7561
L3.9443 19.8770
" />
<path d="M3.9443 19.8770
L3.9443 20.0585
" />
<path d="M3.9443 20.0585
L3.8839 20.1794
" />
<path d="M3.8839 20.1794
L3.8234 20.2399
" />
<path d="M3.8234 20.2399
L3.7024 20.3004
" />
<path d="M3.7024 20.3004
L3.2186 20.3004
" />
<path d="M4.4886 20.9051
L4.4886 20.0585
" />
<path d="M4.4886 20.3004
L4.5491 20.1794
" />
<path d="M4.5491 20.1794
L4.6096 20.1189
" />
<path d="M4.6096 20.1189
L4.7305 20.0585
" />
<path d="M4.7305 20.0585
L4.8515 20.0585
" />
<path d="M5.7586 20.8447
L5.6377 20.9051
" />
<path d="M5.6377 20.9051
L5.3958 20.9051
" />
<path d="M5.3958 20.9051
L5.2748 20.8447
" />
<path d="M5.2748 20.8447
L5.2144 20.7237
" />
<path d="M5.2144 20.7237
L5.2144 20.2399
" />
<path d="M5.2144 20.2399
L5.2748 20.1189
" />
<path d="M5.2748 20.1189
L5.3958 20.0585
" />
<path d="M5.3958 20.0585
L5.6377 20.0585
" />
<path d="M5.6377 20.0585
L5.7586 20.1189
" />
<path d="M5.7586 20.1189
L5.8191 20.2399
" />
<path d="M5.8191 20.2399
L5.8191 20.3608
" />
<path d="M5.8191 20.3608
L5.2144 20.4818
" />
<path d="M6.3030 20.8447
L6.4239 20.9051
" />
<path d="M6.4239 20.9051
L6.6658 20.9051
" />
<path d="M6.6658 20.9051
L6.7868 20.8447
" />
<path d="M6.7868 20.8447
L6.8472 20.7237
" />
<path d="M6.8472 20.7237
L6.8472 20.6632
" />
<path d="M6.8472 20.6632
L6.7868 20.5423
" />
<path d="M6.7868 20.5423
L6.6658 20.4818
" />
<path d="M6.6658 20.4818
L6.4844 20.4818
" />
<path d="M6.4844 20.4818
L6.3634 20.4213
" />
<path d="M6.3634 20.4213
L6.3030 20.3004
" />
<path d="M6.3030 20.3004
L6.3030 20.2399
" />
<path d="M6.3030 20.2399
L6.3634 20.1189
" />
<path d="M6.3634 20.1189
L6.4844 20.0585
" />
<path d="M6.4844 20.0585
L6.6658 20.0585
" />
<path d="M6.6658 20.0585
L6.7868 20.1189
" />
<path d="M7.3311 20.8447
L7.4520 20.9051
" />
<path d="M7.4520 20.9051
L7.6939 20.9051
" />
<path d="M7.6939 20.9051
L7.8149 20.8447
" />
<path d="M7.8149 20.8447
L7.8753 20.7237
" />
<path d="M7.8753 20.7237
L7.8753 20.6632
" />
<path d="M7.8753 20.6632
L7.8149 20.5423
" />
<path d="M7.8149 20.5423
L7.6939 20.4818
" />
<path d="M7.6939 20.4818
L7.5125 20.4818
" />
<path d="M7.5125 20.4818
L7.3915 20.4213
" />
<path d="M7.3915 20.4213
L7.3311 20.3004
" />
<path d="M7.3311 20.3004
L7.3311 20.2399
" />
<path d="M7.3311 20.2399
L7.3915 20.1189
" />
<path d="M7.3915 20.1189
L7.5125 20.0585
" />
<path d="M7.5125 20.0585
L7.6939 20.0585
" />
<path d="M7.6939 20.0585
L7.8149 20.1189
" />
<path d="M8.9639 20.0585
L8.9639 20.9051
" />
<path d="M8.4196 20.0585
L8.4196 20.7237
" />
<path d="M8.4196 20.7237
L8.4801 20.8447
" />
<path d="M8.4801 20.8447
L8.6011 20.9051
" />
<path d="M8.6011 20.9051
L8.7825 20.9051
" />
<path d="M8.7825 20.9051
L8.9034 20.8447
" />
<path d="M8.9034 20.8447
L8.9639 20.7842
" />
<path d="M9.5686 20.9051
L9.5686 20.0585
" />
<path d="M9.5686 20.3004
L9.6291 20.1794
" />
<path d="M9.6291 20.1794
L9.6896 20.1189
" />
<path d="M9.6896 20.1189
L9.8105 20.0585
" />
<path d="M9.8105 20.0585
L9.9315 20.0585
" />
<path d="M10.8386 20.8447
L10.7177 20.9051
" />
<path d="M10.7177 20.9051
L10.4758 20.9051
" />
<path d="M10.4758 20.9051
L10.3548 20.8447
" />
<path d="M10.3548 20.8447
L10.2944 20.7237
" />
<path d="M10.2944 20.7237
L10.2944 20.2399
" />
<path d="M10.2944 20.2399
L10.3548 20.1189
" />
<path d="M10.3548 20.1189
L10.4758 20.0585
" />
<path d="M10.4758 20.0585
L10.7177 20.0585
" />
<path d="M10.7177 20.0585
L10.8386 20.1189
" />
<path d="M10.8386 20.1189
L10.8991 20.2399
" />
<path d="M10.8991 20.2399
L10.8991 20.3608
" />
<path d="M10.8991 20.3608
L10.2944 20.4818
" />
<path d="M11.1411 21.0261
L12.1087 21.0261
" />
<path d="M12.9553 20.9051
L12.9553 20.2399
" />
<path d="M12.9553 20.2399
L12.8948 20.1189
" />
<path d="M12.8948 20.1189
L12.7739 20.0585
" />
<path d="M12.7739 20.0585
L12.5320 20.0585
" />
<path d="M12.5320 20.0585
L12.4110 20.1189
" />
<path d="M12.9553 20.8447
L12.8344 20.9051
" />
<path d="M12.8344 20.9051
L12.5320 20.9051
" />
<path d="M12.5320 20.9051
L12.4110 20.8447
" />
<path d="M12.4110 20.8447
L12.3506 20.7237
" />
<path d="M12.3506 20.7237
L12.3506 20.6027
" />
<path d="M12.3506 20.6027
L12.4110 20.4818
" />
<path d="M12.4110 20.4818
L12.5320 20.4213
" />
<path d="M12.5320 20.4213
L12.8344 20.4213
" />
<path d="M12.8344 20.4213
L12.9553 20.3608
" />
<path d="M13.5600 20.0585
L13.5600 20.9051
" />
<path d="M13.5600 20.1794
L13.6205 20.1189
" />
<path d="M13.6205 20.1189
L13.7415 20.0585
" />
<path d="M13.7415 20.0585
L13.9229 20.0585
" />
<path d="M13.9229 20.0585
L14.0438 20.1189
" />
<path d="M14.0438 20.1189
L14.1043 20.2399
" />
<path d="M14.1043 20.2399
L14.1043 20.9051
" />
<path d="M15.2533 20.9051
L15.2533 19.6351
" />
<path d="M15.2533 20.8447
L15.1324 20.9051
" />
<path d="M15.1324 20.9051
L14.8905 20.9051
" />
<path d="M14.8905 20.9051
L14.7695 20.8447
" />
<path d="M14.7695 20.8447
L14.7090 20.7842
" />
<path d="M14.7090 20.7842
L14.6486 20.6632
" />
<path d="M14.6486 20.6632
L14.6486 20.3004
" />
<path d="M14.6486 20.3004
L14.7090 20.1794
" />
<path d="M14.7090 20.1794
L14.7695 20.1189
" />
<path d="M14.7695 20.1189
L14.8905 20.0585
" />
<path d="M14.8905 20.0585
L15.1324 20.0585
" />
<path d="M15.1324 20.0585
L15.2533 20.1189
" />
<path d="M15.5557 21.0261
L16.5233 21.0261
" />
<path d="M16.6442 19.6351
L17.0675 20.9051
" />
<path d="M17.0675 20.9051
L17.4909 19.6351
" />
<path d="M18.4585 20.9051
L18.4585 20.2399
" />
<path d="M18.4585 20.2399
L18.3980 20.1189
" />
<path d="M18.3980 20.1189
L18.2771 20.0585
" />
<path d="M18.2771 20.0585
L18.0352 20.0585
" />
<path d="M18.0352 20.0585
L17.9142 20.1189
" />
<path d="M18.4585 20.8447
L18.3376 20.9051
" />
<path d="M18.3376 20.9051
L18.0352 20.9051
" />
<path d="M18.0352 20.9051
L17.9142 20.8447
" />
<path d="M17.9142 20.8447
L17.8538 20.7237
" />
<path d="M17.8538 20.7237
L17.8538 20.6027
" />
<path d="M17.8538 20.6027
L17.9142 20.4818
" />
<path d="M17.9142 20.4818
L18.0352 20.4213
" />
<path d="M18.0352 20.4213
L18.3376 20.4213
" />
<path d="M18.3376 20.4213
L18.4585 20.3608
" />
<path d="M19.6075 20.8447
L19.4866 20.9051
" />
<path d="M19.4866 20.9051
L19.2447 20.9051
" />
<path d="M19.2447 20.9051
L19.1237 20.8447
" />
<path d="M19.1237 20.8447
L19.0632 20.7842
" />
<path d="M19.0632 20.7842
L19.0028 20.6632
" />
<path d="M19.0028 20.6632
L19.0028 20.3004
" />
<path d="M19.0028 20.3004
L19.0632 20.1794
" />
<path d="M19.0632 20.1794
L19.1237 20.1189
" />
<path d="M19.1237 20.1189
L19.2447 20.0585
" />
<path d="M19.2447 20.0585
L19.4866 20.0585
" />
<path d="M19.4866 20.0585
L19.6075 20.1189
" />
<path d="M20.6961 20.0585
L20.6961 20.9051
" />
<path d="M20.1518 20.0585
L20.1518 20.7237
" />
<path d="M20.1518 20.7237
L20.2123 20.8447
" />
<path d="M20.2123 20.8447
L20.3333 20.9051
" />
<path d="M20.3333 20.9051
L20.5147 20.9051
" />
<path d="M20.5147 20.9051
L20.6356 20.8447
" />
<path d="M20.6356 20.8447
L20.6961 20.7842
" />
<path d="M21.8451 20.0585
L21.8451 20.9051
" />
<path d="M21.3008 20.0585
L21.3008 20.7237
" />
<path d="M21.3008 20.7237
L21.3613 20.8447
" />
<path d="M21.3613 20.8447
L21.4823 20.9051
" />
<path d="M21.4823 20.9051
L21.6637 20.9051
" />
<path d="M21.6637 20.9051
L21.7846 20.8447
" />
<path d="M21.7846 20.8447
L21.8451 20.7842
" />
<path d="M22.4498 20.9051
L22.4498 20.0585
" />
<path d="M22.4498 20.1794
L22.5103 20.1189
" />
<path d="M22.5103 20.1189
L22.6313 20.0585
" />
<path d="M22.6313 20.0585
L22.8127 20.0585
" />
<path d="M22.8127 20.0585
L22.9336 20.1189
" />
<path d="M22.9336 20.1189
L22.9941 20.2399
" />
<path d="M22.9941 20.2399
L22.9941 20.9051
" />
<path d="M22.9941 20.2399
L23.0546 20.1189
" />
<path d="M23.0546 20.1189
L23.1755 20.0585
" />
<path d="M23.1755 20.0585
L23.3570 20.0585
" />
<path d="M23.3570 20.0585
L23.4779 20.1189
" />
<path d="M23.4779 20.1189
L23.5384 20.2399
" />
<path d="M23.5384 20.2399
L23.5384 20.9051
" />
<path d="M23.8408 21.0261
L24.8084 21.0261
" />
<path d="M25.8364 20.9051
L25.4131 20.3004
" />
<path d="M25.1107 20.9051
L25.1107 19.6351
" />
<path d="M25.1107 19.6351
L25.5945 19.6351
" />
<path d="M25.5945 19.6351
L25.7155 19.6956
" />
<path d="M25.7155 19.6956
L25.7760 19.7561
" />
<path d="M25.7760 19.7561
L25.8364 19.8770
" />
<path d="M25.8364 19.8770
L25.8364 20.0585
" />
<path d="M25.8364 20.0585
L25.7760 20.1794
" />
<path d="M25.7760 20.1794
L25.7155 20.2399
" />
<path d="M25.7155 20.2399
L25.5945 20.3004
" />
<path d="M25.5945 20.3004
L25.1107 20.3004
" />
<path d="M26.8645 20.8447
L26.7436 20.9051
" />
<path d="M26.7436 20.9051
L26.5017 20.9051
" />
<path d="M26.5017 20.9051
L26.3807 20.8447
" />
<path d="M26.3807 20.8447
L26.3203 20.7237
" />
<path d="M26.3203 20.7237
L26.3203 20.2399
" />
<path d="M26.3203 20.2399
L26.3807 20.1189
" />
<path d="M26.3807 20.1189
L26.5017 20.0585
" />
<path d="M26.5017 20.0585
L26.7436 20.0585
" />
<path d="M26.7436 20.0585
L26.8645 20.1189
" />
<path d="M26.8645 20.1189
L26.9250 20.2399
" />
<path d="M26.9250 20.2399
L26.9250 20.3608
" />
<path d="M26.9250 20.3608
L26.3203 20.4818
" />
<path d="M27.6508 20.9051
L27.5298 20.8447
" />
<path d="M27.5298 20.8447
L27.4693 20.7237
" />
<path d="M27.4693 20.7237
L27.4693 19.6351
" />
<path d="M28.1345 20.9051
L28.1345 20.0585
" />
<path d="M28.1345 19.6351
L28.0741 19.6956
" />
<path d="M28.0741 19.6956
L28.1345 19.7561
" />
<path d="M28.1345 19.7561
L28.1950 19.6956
" />
<path d="M28.1950 19.6956
L28.1345 19.6351
" />
<path d="M28.1345 19.6351
L28.1345 19.7561
" />
<path d="M29.2231 20.8447
L29.1022 20.9051
" />
<path d="M29.1022 20.9051
L28.8603 20.9051
" />
<path d="M28.8603 20.9051
L28.7393 20.8447
" />
<path d="M28.7393 20.8447
L28.6789 20.7237
" />
<path d="M28.6789 20.7237
L28.6789 20.2399
" />
<path d="M28.6789 20.2399
L28.7393 20.1189
" />
<path d="M28.7393 20.1189
L28.8603 20.0585
" />
<path d="M28.8603 20.0585
L29.1022 20.0585
" />
<path d="M29.1022 20.0585
L29.2231 20.1189
" />
<path d="M29.2231 20.1189
L29.2836 20.2399
" />
<path d="M29.2836 20.2399
L29.2836 20.3608
" />
<path d="M29.2836 20.3608
L28.6789 20.4818
" />
<path d="M29.6465 20.0585
L30.1303 20.0585
" />
<path d="M29.8279 20.9051
L29.8279 19.8166
" />
<path d="M29.8279 19.8166
L29.8884 19.6956
" />
<path d="M29.8884 19.6956
L30.0094 19.6351
" />
<path d="M30.0094 19.6351
L30.1303 19.6351
" />
<path d="M30.2513 21.0261
L31.2189 21.0261
" />
<path d="M31.3398 19.6351
L31.7631 20.9051
" />
<path d="M31.7631 20.9051
L32.1865 19.6351
" />
<path d="M33.1541 20.9051
L33.1541 20.2399
" />
<path d="M33.1541 20.2399
L33.0936 20.1189
" />
<path d="M33.0936 20.1189
L32.9727 20.0585
" />
<path d="M32.9727 20.0585
L32.7308 20.0585
" />
<path d="M32.7308 20.0585
L32.6098 20.1189
" />
<path d="M33.1541 20.8447
L33.0332 20.9051
" />
<path d="M33.0332 20.9051
L32.7308 20.9051
" />
<path d="M32.7308 20.9051
L32.6098 20.8447
" />
<path d="M32.6098 20.8447
L32.5494 20.7237
" />
<path d="M32.5494 20.7237
L32.5494 20.6027
" />
<path d="M32.5494 20.6027
L32.6098 20.4818
" />
<path d="M32.6098 20.4818
L32.7308 20.4213
" />
<path d="M32.7308 20.4213
L33.0332 20.4213
" />
<path d="M33.0332 20.4213
L33.1541 20.3608
" />
<path d="M33.9403 20.9051
L33.8193 20.8447
" />
<path d="M33.8193 20.8447
L33.7588 20.7237
" />
<path d="M33.7588 20.7237
L33.7588 19.6351
" />
<path d="M34.3031 20.0585
L34.6055 20.9051
" />
<path d="M34.6055 20.9051
L34.9078 20.0585
" />
<path d="M35.8754 20.8447
L35.7545 20.9051
" />
<path d="M35.7545 20.9051
L35.5126 20.9051
" />
<path d="M35.5126 20.9051
L35.3916 20.8447
" />
<path d="M35.3916 20.8447
L35.3312 20.7237
" />
<path d="M35.3312 20.7237
L35.3312 20.2399
" />
<path d="M35.3312 20.2399
L35.3916 20.1189
" />
<path d="M35.3916 20.1189
L35.5126 20.0585
" />
<path d="M35.5126 20.0585
L35.7545 20.0585
" />
<path d="M35.7545 20.0585
L35.8754 20.1189
" />
<path d="M35.8754 20.1189
L35.9359 20.2399
" />
<path d="M35.9359 20.2399
L35.9359 20.3608
" />
<path d="M35.9359 20.3608
L35.3312 20.4818
" />
<path d="M36.6617 20.7842
L36.7221 20.8447
" />
<path d="M36.7221 20.8447
L36.6617 20.9051
" />
<path d="M36.6617 20.9051
L36.6012 20.8447
" />
<path d="M36.6012 20.8447
L36.6617 20.7842
" />
<path d="M36.6617 20.7842
L36.6617 20.9051
" />
<path d="M36.4198 19.6956
L36.5407 19.6351
" />
<path d="M36.5407 19.6351
L36.8431 19.6351
" />
<path d="M36.8431 19.6351
L36.9640 19.6956
" />
<path d="M36.9640 19.6956
L37.0245 19.8166
" />
<path d="M37.0245 19.8166
L37.0245 19.9375
" />
<path d="M37.0245 19.9375
L36.9640 20.0585
" />
<path d="M36.9640 20.0585
L36.9036 20.1189
" />
<path d="M36.9036 20.1189
L36.7826 20.1794
" />
<path d="M36.7826 20.1794
L36.7221 20.2399
" />
<path d="M36.7221 20.2399
L36.6617 20.3608
" />
<path d="M36.6617 20.3608
L36.6617 20.4213
" />
</g></g>
</svg>
