<?xml version="1.0" standalone="no"?>
 <!DOCTYPE svg PUBLIC "-//W3C//DTD SVG 1.1//EN"
 "http://www.w3.org/Graphics/SVG/1.1/DTD/svg11.dtd">
<svg
  xmlns:svg="http://www.w3.org/2000/svg"
  xmlns="http://www.w3.org/2000/svg"
  xmlns:xlink="http://www.w3.org/1999/xlink"
  xmlns:inkscape="http://www.inkscape.org/namespaces/inkscape"
  version="1.1"
  width="20.1168mm" height="22.8854mm" viewBox="0.0000 0.0000 20.1168 22.8854">
<title>SVG Image created as Valve - Ball_unit1.svg date 2026-05-31T11:36:28 </title>
  <desc>Image generated by Eeschema-SVG </desc>
<g style="fill:#000000; fill-opacity:1.0000;stroke:#000000; stroke-opacity:1.0000;
stroke-linecap:round; stroke-linejoin:round;"
 transform="translate(0 0) scale(1 1)">
<path style="fill:none;
stroke:#840000; stroke-width:0.1000; stroke-opacity:1;
stroke-linecap:round; stroke-linejoin:round;fill:none"
d="M 10.0584,9.9569
5.0584,7.9569
5.0584,11.9569
Z" />
<path style="fill:none;
stroke:#840000; stroke-width:0.1000; stroke-opacity:1;
stroke-linecap:round; stroke-linejoin:round;fill:none"
d="M 10.0584,9.9569
15.0584,7.9569
15.0584,11.9569
Z" />
</g>
<g style="fill:none;
stroke:#840000; stroke-width:0.1000; stroke-opacity:1;
stroke-linecap:round; stroke-linejoin:round;">
<circle cx="10.0584" cy="9.9569" r="1.0000" />
</g>
<g style="fill:none;
stroke:#840000; stroke-width:0.1524; stroke-opacity:1;
stroke-linecap:round; stroke-linejoin:round;">
<path d="M5.0584 9.9569
L2.0584 9.9569
" />
<path d="M15.0584 9.9569
L18.0584 9.9569
" />
</g>
<g style="fill:none;
stroke:#006464; stroke-width:0.1524; stroke-opacity:1;
stroke-linecap:round; stroke-linejoin:round;">
<text x="10.0584" y="20.5919"
textLength="10.9678" font-size="1.6933" lengthAdjust="spacingAndGlyphs"
text-anchor="middle" opacity="0" stroke-opacity="0">Ball_Valve?</text>
<g class="stroked-text"><desc>Ball_Valve?</desc>
<path d="M5.4018 19.8712
L5.5832 19.9317
" />
<path d="M5.5832 19.9317
L5.6437 19.9921
" />
<path d="M5.6437 19.9921
L5.7041 20.1131
" />
<path d="M5.7041 20.1131
L5.7041 20.2945
" />
<path d="M5.7041 20.2945
L5.6437 20.4155
" />
<path d="M5.6437 20.4155
L5.5832 20.4760
" />
<path d="M5.5832 20.4760
L5.4622 20.5364
" />
<path d="M5.4622 20.5364
L4.9784 20.5364
" />
<path d="M4.9784 20.5364
L4.9784 19.2664
" />
<path d="M4.9784 19.2664
L5.4018 19.2664
" />
<path d="M5.4018 19.2664
L5.5227 19.3269
" />
<path d="M5.5227 19.3269
L5.5832 19.3874
" />
<path d="M5.5832 19.3874
L5.6437 19.5083
" />
<path d="M5.6437 19.5083
L5.6437 19.6293
" />
<path d="M5.6437 19.6293
L5.5832 19.7502
" />
<path d="M5.5832 19.7502
L5.5227 19.8107
" />
<path d="M5.5227 19.8107
L5.4018 19.8712
" />
<path d="M5.4018 19.8712
L4.9784 19.8712
" />
<path d="M6.7927 20.5364
L6.7927 19.8712
" />
<path d="M6.7927 19.8712
L6.7322 19.7502
" />
<path d="M6.7322 19.7502
L6.6113 19.6898
" />
<path d="M6.6113 19.6898
L6.3694 19.6898
" />
<path d="M6.3694 19.6898
L6.2484 19.7502
" />
<path d="M6.7927 20.4760
L6.6718 20.5364
" />
<path d="M6.6718 20.5364
L6.3694 20.5364
" />
<path d="M6.3694 20.5364
L6.2484 20.4760
" />
<path d="M6.2484 20.4760
L6.1880 20.3550
" />
<path d="M6.1880 20.3550
L6.1880 20.2340
" />
<path d="M6.1880 20.2340
L6.2484 20.1131
" />
<path d="M6.2484 20.1131
L6.3694 20.0526
" />
<path d="M6.3694 20.0526
L6.6718 20.0526
" />
<path d="M6.6718 20.0526
L6.7927 19.9921
" />
<path d="M7.5789 20.5364
L7.4579 20.4760
" />
<path d="M7.4579 20.4760
L7.3974 20.3550
" />
<path d="M7.3974 20.3550
L7.3974 19.2664
" />
<path d="M8.2441 20.5364
L8.1231 20.4760
" />
<path d="M8.1231 20.4760
L8.0626 20.3550
" />
<path d="M8.0626 20.3550
L8.0626 19.2664
" />
<path d="M8.4255 20.6574
L9.3931 20.6574
" />
<path d="M9.5140 19.2664
L9.9373 20.5364
" />
<path d="M9.9373 20.5364
L10.3607 19.2664
" />
<path d="M11.3283 20.5364
L11.3283 19.8712
" />
<path d="M11.3283 19.8712
L11.2678 19.7502
" />
<path d="M11.2678 19.7502
L11.1469 19.6898
" />
<path d="M11.1469 19.6898
L10.9050 19.6898
" />
<path d="M10.9050 19.6898
L10.7840 19.7502
" />
<path d="M11.3283 20.4760
L11.2074 20.5364
" />
<path d="M11.2074 20.5364
L10.9050 20.5364
" />
<path d="M10.9050 20.5364
L10.7840 20.4760
" />
<path d="M10.7840 20.4760
L10.7236 20.3550
" />
<path d="M10.7236 20.3550
L10.7236 20.2340
" />
<path d="M10.7236 20.2340
L10.7840 20.1131
" />
<path d="M10.7840 20.1131
L10.9050 20.0526
" />
<path d="M10.9050 20.0526
L11.2074 20.0526
" />
<path d="M11.2074 20.0526
L11.3283 19.9921
" />
<path d="M12.1145 20.5364
L11.9935 20.4760
" />
<path d="M11.9935 20.4760
L11.9330 20.3550
" />
<path d="M11.9330 20.3550
L11.9330 19.2664
" />
<path d="M12.4773 19.6898
L12.7797 20.5364
" />
<path d="M12.7797 20.5364
L13.0820 19.6898
" />
<path d="M14.0496 20.4760
L13.9287 20.5364
" />
<path d="M13.9287 20.5364
L13.6868 20.5364
" />
<path d="M13.6868 20.5364
L13.5658 20.4760
" />
<path d="M13.5658 20.4760
L13.5054 20.3550
" />
<path d="M13.5054 20.3550
L13.5054 19.8712
" />
<path d="M13.5054 19.8712
L13.5658 19.7502
" />
<path d="M13.5658 19.7502
L13.6868 19.6898
" />
<path d="M13.6868 19.6898
L13.9287 19.6898
" />
<path d="M13.9287 19.6898
L14.0496 19.7502
" />
<path d="M14.0496 19.7502
L14.1101 19.8712
" />
<path d="M14.1101 19.8712
L14.1101 19.9921
" />
<path d="M14.1101 19.9921
L13.5054 20.1131
" />
<path d="M14.8359 20.4155
L14.8963 20.4760
" />
<path d="M14.8963 20.4760
L14.8359 20.5364
" />
<path d="M14.8359 20.5364
L14.7754 20.4760
" />
<path d="M14.7754 20.4760
L14.8359 20.4155
" />
<path d="M14.8359 20.4155
L14.8359 20.5364
" />
<path d="M14.5940 19.3269
L14.7149 19.2664
" />
<path d="M14.7149 19.2664
L15.0173 19.2664
" />
<path d="M15.0173 19.2664
L15.1382 19.3269
" />
<path d="M15.1382 19.3269
L15.1987 19.4479
" />
<path d="M15.1987 19.4479
L15.1987 19.5688
" />
<path d="M15.1987 19.5688
L15.1382 19.6898
" />
<path d="M15.1382 19.6898
L15.0778 19.7502
" />
<path d="M15.0778 19.7502
L14.9568 19.8107
" />
<path d="M14.9568 19.8107
L14.8963 19.8712
" />
<path d="M14.8963 19.8712
L14.8359 19.9921
" />
<path d="M14.8359 19.9921
L14.8359 20.0526
" />
</g></g>
</svg>
