<?xml version="1.0" standalone="no"?>
 <!DOCTYPE svg PUBLIC "-//W3C//DTD SVG 1.1//EN" 
 "http://www.w3.org/Graphics/SVG/1.1/DTD/svg11.dtd"> 
<svg
  xmlns:svg="http://www.w3.org/2000/svg"
  xmlns="http://www.w3.org/2000/svg"
  xmlns:xlink="http://www.w3.org/1999/xlink"
  xmlns:inkscape="http://www.inkscape.org/namespaces/inkscape"
  version="1.1"
  width="25.6032mm" height="22.8854mm" viewBox="0.0000 0.0000 25.6032 22.8854">
<title>SVG Image created as Valve - Globe Hydraulic_unit1.svg date 2026-05-31T11:36:19 </title>
  <desc>Image generated by Eeschema-SVG </desc>
<g style="fill:#000000; fill-opacity:1.0000;stroke:#000000; stroke-opacity:1.0000;
stroke-linecap:round; stroke-linejoin:round;"
 transform="translate(0 0) scale(1 1)">
</g>
<g style="fill:none; 
stroke:#840000; stroke-width:0.1000; stroke-opacity:1; 
stroke-linecap:round; stroke-linejoin:round;">
<rect x="10.801600" y="4.956900" width="4.000000" height="2.000000" rx="0.000000" />
<path style="fill:none; 
stroke:#840000; stroke-width:0.1000; stroke-opacity:1; 
stroke-linecap:round; stroke-linejoin:round;fill:none"
d="M 12.8016,6.9569
12.8016,9.9569
" /> 
<path style="fill:none; 
stroke:#840000; stroke-width:0.1000; stroke-opacity:1; 
stroke-linecap:round; stroke-linejoin:round;fill:none"
d="M 12.8016,9.9569
7.8016,7.9569
7.8016,11.9569
Z" /> 
<path style="fill:none; 
stroke:#840000; stroke-width:0.1000; stroke-opacity:1; 
stroke-linecap:round; stroke-linejoin:round;fill:none"
d="M 12.8016,9.9569
17.8016,7.9569
17.8016,11.9569
Z" /> 
</g>
<g style="fill:none; 
stroke:#840000; stroke-width:0.1524; stroke-opacity:1; 
stroke-linecap:round; stroke-linejoin:round;">
<text x="12.8016" y="6.5919"
textLength="1.5337" font-size="1.6933" lengthAdjust="spacingAndGlyphs"
text-anchor="middle" opacity="0" stroke-opacity="0">H</text>
<g class="stroked-text"><desc>H</desc>
<path d="M12.4387 6.5364
L12.4387 5.2664
" />
<path d="M12.4387 5.8712
L13.1644 5.8712
" />
<path d="M13.1644 6.5364
L13.1644 5.2664
" />
</g><path d="M7.8016 9.9569
L4.8016 9.9569
" />
<path d="M17.8016 9.9569
L20.8016 9.9569
" />
</g>
<g style="fill:none; 
stroke:#006464; stroke-width:0.1524; stroke-opacity:1; 
stroke-linecap:round; stroke-linejoin:round;">
<text x="12.8016" y="20.5919"
textLength="22.3977" font-size="1.6933" lengthAdjust="spacingAndGlyphs"
text-anchor="middle" opacity="0" stroke-opacity="0">Globe_Hydraulic_Valve?</text>
<g class="stroked-text"><desc>Globe_Hydraulic_Valve?</desc>
<path d="M2.6720 19.3269
L2.5510 19.2664
" />
<path d="M2.5510 19.2664
L2.3696 19.2664
" />
<path d="M2.3696 19.2664
L2.1882 19.3269
" />
<path d="M2.1882 19.3269
L2.0672 19.4479
" />
<path d="M2.0672 19.4479
L2.0067 19.5688
" />
<path d="M2.0067 19.5688
L1.9463 19.8107
" />
<path d="M1.9463 19.8107
L1.9463 19.9921
" />
<path d="M1.9463 19.9921
L2.0067 20.2340
" />
<path d="M2.0067 20.2340
L2.0672 20.3550
" />
<path d="M2.0672 20.3550
L2.1882 20.4760
" />
<path d="M2.1882 20.4760
L2.3696 20.5364
" />
<path d="M2.3696 20.5364
L2.4905 20.5364
" />
<path d="M2.4905 20.5364
L2.6720 20.4760
" />
<path d="M2.6720 20.4760
L2.7324 20.4155
" />
<path d="M2.7324 20.4155
L2.7324 19.9921
" />
<path d="M2.7324 19.9921
L2.4905 19.9921
" />
<path d="M3.4582 20.5364
L3.3372 20.4760
" />
<path d="M3.3372 20.4760
L3.2767 20.3550
" />
<path d="M3.2767 20.3550
L3.2767 19.2664
" />
<path d="M4.1234 20.5364
L4.0024 20.4760
" />
<path d="M4.0024 20.4760
L3.9419 20.4155
" />
<path d="M3.9419 20.4155
L3.8815 20.2945
" />
<path d="M3.8815 20.2945
L3.8815 19.9317
" />
<path d="M3.8815 19.9317
L3.9419 19.8107
" />
<path d="M3.9419 19.8107
L4.0024 19.7502
" />
<path d="M4.0024 19.7502
L4.1234 19.6898
" />
<path d="M4.1234 19.6898
L4.3048 19.6898
" />
<path d="M4.3048 19.6898
L4.4257 19.7502
" />
<path d="M4.4257 19.7502
L4.4862 19.8107
" />
<path d="M4.4862 19.8107
L4.5467 19.9317
" />
<path d="M4.5467 19.9317
L4.5467 20.2945
" />
<path d="M4.5467 20.2945
L4.4862 20.4155
" />
<path d="M4.4862 20.4155
L4.4257 20.4760
" />
<path d="M4.4257 20.4760
L4.3048 20.5364
" />
<path d="M4.3048 20.5364
L4.1234 20.5364
" />
<path d="M5.0909 20.5364
L5.0909 19.2664
" />
<path d="M5.0909 19.7502
L5.2119 19.6898
" />
<path d="M5.2119 19.6898
L5.4538 19.6898
" />
<path d="M5.4538 19.6898
L5.5747 19.7502
" />
<path d="M5.5747 19.7502
L5.6352 19.8107
" />
<path d="M5.6352 19.8107
L5.6957 19.9317
" />
<path d="M5.6957 19.9317
L5.6957 20.2945
" />
<path d="M5.6957 20.2945
L5.6352 20.4155
" />
<path d="M5.6352 20.4155
L5.5747 20.4760
" />
<path d="M5.5747 20.4760
L5.4538 20.5364
" />
<path d="M5.4538 20.5364
L5.2119 20.5364
" />
<path d="M5.2119 20.5364
L5.0909 20.4760
" />
<path d="M6.7237 20.4760
L6.6028 20.5364
" />
<path d="M6.6028 20.5364
L6.3609 20.5364
" />
<path d="M6.3609 20.5364
L6.2399 20.4760
" />
<path d="M6.2399 20.4760
L6.1795 20.3550
" />
<path d="M6.1795 20.3550
L6.1795 19.8712
" />
<path d="M6.1795 19.8712
L6.2399 19.7502
" />
<path d="M6.2399 19.7502
L6.3609 19.6898
" />
<path d="M6.3609 19.6898
L6.6028 19.6898
" />
<path d="M6.6028 19.6898
L6.7237 19.7502
" />
<path d="M6.7237 19.7502
L6.7842 19.8712
" />
<path d="M6.7842 19.8712
L6.7842 19.9921
" />
<path d="M6.7842 19.9921
L6.1795 20.1131
" />
<path d="M7.0262 20.6574
L7.9938 20.6574
" />
<path d="M8.2961 20.5364
L8.2961 19.2664
" />
<path d="M8.2961 19.8712
L9.0218 19.8712
" />
<path d="M9.0218 20.5364
L9.0218 19.2664
" />
<path d="M9.5057 19.6898
L9.8081 20.5364
" />
<path d="M10.1104 19.6898
L9.8081 20.5364
" />
<path d="M9.8081 20.5364
L9.6871 20.8388
" />
<path d="M9.6871 20.8388
L9.6266 20.8993
" />
<path d="M9.6266 20.8993
L9.5057 20.9598
" />
<path d="M11.1385 20.5364
L11.1385 19.2664
" />
<path d="M11.1385 20.4760
L11.0176 20.5364
" />
<path d="M11.0176 20.5364
L10.7757 20.5364
" />
<path d="M10.7757 20.5364
L10.6547 20.4760
" />
<path d="M10.6547 20.4760
L10.5942 20.4155
" />
<path d="M10.5942 20.4155
L10.5338 20.2945
" />
<path d="M10.5338 20.2945
L10.5338 19.9317
" />
<path d="M10.5338 19.9317
L10.5942 19.8107
" />
<path d="M10.5942 19.8107
L10.6547 19.7502
" />
<path d="M10.6547 19.7502
L10.7757 19.6898
" />
<path d="M10.7757 19.6898
L11.0176 19.6898
" />
<path d="M11.0176 19.6898
L11.1385 19.7502
" />
<path d="M11.7432 20.5364
L11.7432 19.6898
" />
<path d="M11.7432 19.9317
L11.8037 19.8107
" />
<path d="M11.8037 19.8107
L11.8642 19.7502
" />
<path d="M11.8642 19.7502
L11.9851 19.6898
" />
<path d="M11.9851 19.6898
L12.1061 19.6898
" />
<path d="M13.0737 20.5364
L13.0737 19.8712
" />
<path d="M13.0737 19.8712
L13.0132 19.7502
" />
<path d="M13.0132 19.7502
L12.8923 19.6898
" />
<path d="M12.8923 19.6898
L12.6504 19.6898
" />
<path d="M12.6504 19.6898
L12.5294 19.7502
" />
<path d="M13.0737 20.4760
L12.9528 20.5364
" />
<path d="M12.9528 20.5364
L12.6504 20.5364
" />
<path d="M12.6504 20.5364
L12.5294 20.4760
" />
<path d="M12.5294 20.4760
L12.4690 20.3550
" />
<path d="M12.4690 20.3550
L12.4690 20.2340
" />
<path d="M12.4690 20.2340
L12.5294 20.1131
" />
<path d="M12.5294 20.1131
L12.6504 20.0526
" />
<path d="M12.6504 20.0526
L12.9528 20.0526
" />
<path d="M12.9528 20.0526
L13.0737 19.9921
" />
<path d="M14.2227 19.6898
L14.2227 20.5364
" />
<path d="M13.6784 19.6898
L13.6784 20.3550
" />
<path d="M13.6784 20.3550
L13.7389 20.4760
" />
<path d="M13.7389 20.4760
L13.8599 20.5364
" />
<path d="M13.8599 20.5364
L14.0413 20.5364
" />
<path d="M14.0413 20.5364
L14.1622 20.4760
" />
<path d="M14.1622 20.4760
L14.2227 20.4155
" />
<path d="M15.0089 20.5364
L14.8879 20.4760
" />
<path d="M14.8879 20.4760
L14.8274 20.3550
" />
<path d="M14.8274 20.3550
L14.8274 19.2664
" />
<path d="M15.4926 20.5364
L15.4926 19.6898
" />
<path d="M15.4926 19.2664
L15.4322 19.3269
" />
<path d="M15.4322 19.3269
L15.4926 19.3874
" />
<path d="M15.4926 19.3874
L15.5531 19.3269
" />
<path d="M15.5531 19.3269
L15.4926 19.2664
" />
<path d="M15.4926 19.2664
L15.4926 19.3874
" />
<path d="M16.6417 20.4760
L16.5208 20.5364
" />
<path d="M16.5208 20.5364
L16.2789 20.5364
" />
<path d="M16.2789 20.5364
L16.1579 20.4760
" />
<path d="M16.1579 20.4760
L16.0974 20.4155
" />
<path d="M16.0974 20.4155
L16.0370 20.2945
" />
<path d="M16.0370 20.2945
L16.0370 19.9317
" />
<path d="M16.0370 19.9317
L16.0974 19.8107
" />
<path d="M16.0974 19.8107
L16.1579 19.7502
" />
<path d="M16.1579 19.7502
L16.2789 19.6898
" />
<path d="M16.2789 19.6898
L16.5208 19.6898
" />
<path d="M16.5208 19.6898
L16.6417 19.7502
" />
<path d="M16.8837 20.6574
L17.8513 20.6574
" />
<path d="M17.9722 19.2664
L18.3955 20.5364
" />
<path d="M18.3955 20.5364
L18.8189 19.2664
" />
<path d="M19.7865 20.5364
L19.7865 19.8712
" />
<path d="M19.7865 19.8712
L19.7260 19.7502
" />
<path d="M19.7260 19.7502
L19.6051 19.6898
" />
<path d="M19.6051 19.6898
L19.3632 19.6898
" />
<path d="M19.3632 19.6898
L19.2422 19.7502
" />
<path d="M19.7865 20.4760
L19.6656 20.5364
" />
<path d="M19.6656 20.5364
L19.3632 20.5364
" />
<path d="M19.3632 20.5364
L19.2422 20.4760
" />
<path d="M19.2422 20.4760
L19.1818 20.3550
" />
<path d="M19.1818 20.3550
L19.1818 20.2340
" />
<path d="M19.1818 20.2340
L19.2422 20.1131
" />
<path d="M19.2422 20.1131
L19.3632 20.0526
" />
<path d="M19.3632 20.0526
L19.6656 20.0526
" />
<path d="M19.6656 20.0526
L19.7865 19.9921
" />
<path d="M20.5727 20.5364
L20.4517 20.4760
" />
<path d="M20.4517 20.4760
L20.3912 20.3550
" />
<path d="M20.3912 20.3550
L20.3912 19.2664
" />
<path d="M20.9355 19.6898
L21.2379 20.5364
" />
<path d="M21.2379 20.5364
L21.5402 19.6898
" />
<path d="M22.5078 20.4760
L22.3869 20.5364
" />
<path d="M22.3869 20.5364
L22.1450 20.5364
" />
<path d="M22.1450 20.5364
L22.0240 20.4760
" />
<path d="M22.0240 20.4760
L21.9636 20.3550
" />
<path d="M21.9636 20.3550
L21.9636 19.8712
" />
<path d="M21.9636 19.8712
L22.0240 19.7502
" />
<path d="M22.0240 19.7502
L22.1450 19.6898
" />
<path d="M22.1450 19.6898
L22.3869 19.6898
" />
<path d="M22.3869 19.6898
L22.5078 19.7502
" />
<path d="M22.5078 19.7502
L22.5683 19.8712
" />
<path d="M22.5683 19.8712
L22.5683 19.9921
" />
<path d="M22.5683 19.9921
L21.9636 20.1131
" />
<path d="M23.2941 20.4155
L23.3545 20.4760
" />
<path d="M23.3545 20.4760
L23.2941 20.5364
" />
<path d="M23.2941 20.5364
L23.2336 20.4760
" />
<path d="M23.2336 20.4760
L23.2941 20.4155
" />
<path d="M23.2941 20.4155
L23.2941 20.5364
" />
<path d="M23.0522 19.3269
L23.1731 19.2664
" />
<path d="M23.1731 19.2664
L23.4755 19.2664
" />
<path d="M23.4755 19.2664
L23.5964 19.3269
" />
<path d="M23.5964 19.3269
L23.6569 19.4479
" />
<path d="M23.6569 19.4479
L23.6569 19.5688
" />
<path d="M23.6569 19.5688
L23.5964 19.6898
" />
<path d="M23.5964 19.6898
L23.5360 19.7502
" />
<path d="M23.5360 19.7502
L23.4150 19.8107
" />
<path d="M23.4150 19.8107
L23.3545 19.8712
" />
<path d="M23.3545 19.8712
L23.2941 19.9921
" />
<path d="M23.2941 19.9921
L23.2941 20.0526
" />
</g></g> 
</svg>
