<?xml version="1.0" standalone="no"?>
 <!DOCTYPE svg PUBLIC "-//W3C//DTD SVG 1.1//EN"
 "http://www.w3.org/Graphics/SVG/1.1/DTD/svg11.dtd">
<svg
  xmlns:svg="http://www.w3.org/2000/svg"
  xmlns="http://www.w3.org/2000/svg"
  xmlns:xlink="http://www.w3.org/1999/xlink"
  xmlns:inkscape="http://www.inkscape.org/namespaces/inkscape"
  version="1.1"
  width="20.1168mm" height="22.8854mm" viewBox="0.0000 0.0000 20.1168 22.8854">
<title>SVG Image created as Valve - Butterfly_unit1.svg date 2026-05-31T14:38:07 </title>
  <desc>Image generated by Eeschema-SVG </desc>
<g style="fill:#000000; fill-opacity:1.0000;stroke:#000000; stroke-opacity:1.0000;
stroke-linecap:round; stroke-linejoin:round;"
 transform="translate(0 0) scale(1 1)">
<path style="fill:#840000; fill-opacity:1.0000;
stroke:#840000; stroke-width:0.1000; stroke-opacity:1;
stroke-linecap:round; stroke-linejoin:round;fill-rule:evenodd;"
d="M 4.0584,9.9569
4.0584,9.7069
5.0584,9.9569
4.0584,10.2069
Z" />
<path style="fill:none;
stroke:#840000; stroke-width:0.1000; stroke-opacity:1;
stroke-linecap:round; stroke-linejoin:round;fill:none"
d="M 5.0584,7.9569
5.0584,11.9569
" />
<path style="fill:none;
stroke:#840000; stroke-width:0.1000; stroke-opacity:1;
stroke-linecap:round; stroke-linejoin:round;fill:none"
d="M 5.5584,11.7069
10.0584,9.9569
" />
<path style="fill:none;
stroke:#840000; stroke-width:0.1000; stroke-opacity:1;
stroke-linecap:round; stroke-linejoin:round;fill:none"
d="M 10.0584,9.9569
14.5584,8.2069
" />
</g>
<g style="fill:#840000; fill-opacity:1.0000;
stroke:#840000; stroke-width:0.1524; stroke-opacity:1;
stroke-linecap:round; stroke-linejoin:round;">
<circle cx="10.0584" cy="9.9569" r="0.5000" />
<path style="fill:none;
stroke:#840000; stroke-width:0.1000; stroke-opacity:1;
stroke-linecap:round; stroke-linejoin:round;fill:none"
d="M 15.0584,7.9569
15.0584,11.9569
" />
<path style="fill:#840000; fill-opacity:1.0000;
stroke:#840000; stroke-width:0.1000; stroke-opacity:1;
stroke-linecap:round; stroke-linejoin:round;fill-rule:evenodd;"
d="M 16.0584,9.9569
16.0584,9.7069
17.0584,9.9569
16.0584,10.2069
Z" />
</g>
<g style="fill:none;
stroke:#840000; stroke-width:0.1524; stroke-opacity:1;
stroke-linecap:round; stroke-linejoin:round;">
<path d="M5.0584 9.9569
L2.0584 9.9569
" />
<path d="M15.0584 9.9569
L18.0584 9.9569
" />
</g>
<g style="fill:none;
stroke:#006464; stroke-width:0.1524; stroke-opacity:1;
stroke-linecap:round; stroke-linejoin:round;">
<text x="10.0584" y="20.5919"
textLength="15.3221" font-size="1.6933" lengthAdjust="spacingAndGlyphs"
text-anchor="middle" opacity="0" stroke-opacity="0">Butterfly_Valve?</text>
<g class="stroked-text"><desc>Butterfly_Valve?</desc>
<path d="M3.2247 19.8712
L3.4061 19.9317
" />
<path d="M3.4061 19.9317
L3.4666 19.9921
" />
<path d="M3.4666 19.9921
L3.5270 20.1131
" />
<path d="M3.5270 20.1131
L3.5270 20.2945
" />
<path d="M3.5270 20.2945
L3.4666 20.4155
" />
<path d="M3.4666 20.4155
L3.4061 20.4760
" />
<path d="M3.4061 20.4760
L3.2851 20.5364
" />
<path d="M3.2851 20.5364
L2.8013 20.5364
" />
<path d="M2.8013 20.5364
L2.8013 19.2664
" />
<path d="M2.8013 19.2664
L3.2247 19.2664
" />
<path d="M3.2247 19.2664
L3.3456 19.3269
" />
<path d="M3.3456 19.3269
L3.4061 19.3874
" />
<path d="M3.4061 19.3874
L3.4666 19.5083
" />
<path d="M3.4666 19.5083
L3.4666 19.6293
" />
<path d="M3.4666 19.6293
L3.4061 19.7502
" />
<path d="M3.4061 19.7502
L3.3456 19.8107
" />
<path d="M3.3456 19.8107
L3.2247 19.8712
" />
<path d="M3.2247 19.8712
L2.8013 19.8712
" />
<path d="M4.6156 19.6898
L4.6156 20.5364
" />
<path d="M4.0713 19.6898
L4.0713 20.3550
" />
<path d="M4.0713 20.3550
L4.1318 20.4760
" />
<path d="M4.1318 20.4760
L4.2528 20.5364
" />
<path d="M4.2528 20.5364
L4.4342 20.5364
" />
<path d="M4.4342 20.5364
L4.5551 20.4760
" />
<path d="M4.5551 20.4760
L4.6156 20.4155
" />
<path d="M5.0389 19.6898
L5.5227 19.6898
" />
<path d="M5.2203 19.2664
L5.2203 20.3550
" />
<path d="M5.2203 20.3550
L5.2808 20.4760
" />
<path d="M5.2808 20.4760
L5.4018 20.5364
" />
<path d="M5.4018 20.5364
L5.5227 20.5364
" />
<path d="M5.7646 19.6898
L6.2484 19.6898
" />
<path d="M5.9460 19.2664
L5.9460 20.3550
" />
<path d="M5.9460 20.3550
L6.0065 20.4760
" />
<path d="M6.0065 20.4760
L6.1275 20.5364
" />
<path d="M6.1275 20.5364
L6.2484 20.5364
" />
<path d="M7.1555 20.4760
L7.0346 20.5364
" />
<path d="M7.0346 20.5364
L6.7927 20.5364
" />
<path d="M6.7927 20.5364
L6.6717 20.4760
" />
<path d="M6.6717 20.4760
L6.6113 20.3550
" />
<path d="M6.6113 20.3550
L6.6113 19.8712
" />
<path d="M6.6113 19.8712
L6.6717 19.7502
" />
<path d="M6.6717 19.7502
L6.7927 19.6898
" />
<path d="M6.7927 19.6898
L7.0346 19.6898
" />
<path d="M7.0346 19.6898
L7.1555 19.7502
" />
<path d="M7.1555 19.7502
L7.2160 19.8712
" />
<path d="M7.2160 19.8712
L7.2160 19.9921
" />
<path d="M7.2160 19.9921
L6.6113 20.1131
" />
<path d="M7.7603 20.5364
L7.7603 19.6898
" />
<path d="M7.7603 19.9317
L7.8208 19.8107
" />
<path d="M7.8208 19.8107
L7.8813 19.7502
" />
<path d="M7.8813 19.7502
L8.0022 19.6898
" />
<path d="M8.0022 19.6898
L8.1232 19.6898
" />
<path d="M8.3651 19.6898
L8.8489 19.6898
" />
<path d="M8.5465 20.5364
L8.5465 19.4479
" />
<path d="M8.5465 19.4479
L8.6070 19.3269
" />
<path d="M8.6070 19.3269
L8.7280 19.2664
" />
<path d="M8.7280 19.2664
L8.8489 19.2664
" />
<path d="M9.4537 20.5364
L9.3327 20.4760
" />
<path d="M9.3327 20.4760
L9.2722 20.3550
" />
<path d="M9.2722 20.3550
L9.2722 19.2664
" />
<path d="M9.8165 19.6898
L10.1189 20.5364
" />
<path d="M10.4212 19.6898
L10.1189 20.5364
" />
<path d="M10.1189 20.5364
L9.9979 20.8388
" />
<path d="M9.9979 20.8388
L9.9374 20.8993
" />
<path d="M9.9374 20.8993
L9.8165 20.9598
" />
<path d="M10.6027 20.6574
L11.5703 20.6574
" />
<path d="M11.6912 19.2664
L12.1145 20.5364
" />
<path d="M12.1145 20.5364
L12.5379 19.2664
" />
<path d="M13.5055 20.5364
L13.5055 19.8712
" />
<path d="M13.5055 19.8712
L13.4450 19.7502
" />
<path d="M13.4450 19.7502
L13.3241 19.6898
" />
<path d="M13.3241 19.6898
L13.0822 19.6898
" />
<path d="M13.0822 19.6898
L12.9612 19.7502
" />
<path d="M13.5055 20.4760
L13.3846 20.5364
" />
<path d="M13.3846 20.5364
L13.0822 20.5364
" />
<path d="M13.0822 20.5364
L12.9612 20.4760
" />
<path d="M12.9612 20.4760
L12.9008 20.3550
" />
<path d="M12.9008 20.3550
L12.9008 20.2340
" />
<path d="M12.9008 20.2340
L12.9612 20.1131
" />
<path d="M12.9612 20.1131
L13.0822 20.0526
" />
<path d="M13.0822 20.0526
L13.3846 20.0526
" />
<path d="M13.3846 20.0526
L13.5055 19.9921
" />
<path d="M14.2917 20.5364
L14.1707 20.4760
" />
<path d="M14.1707 20.4760
L14.1102 20.3550
" />
<path d="M14.1102 20.3550
L14.1102 19.2664
" />
<path d="M14.6545 19.6898
L14.9569 20.5364
" />
<path d="M14.9569 20.5364
L15.2592 19.6898
" />
<path d="M16.2268 20.4760
L16.1059 20.5364
" />
<path d="M16.1059 20.5364
L15.8640 20.5364
" />
<path d="M15.8640 20.5364
L15.7430 20.4760
" />
<path d="M15.7430 20.4760
L15.6826 20.3550
" />
<path d="M15.6826 20.3550
L15.6826 19.8712
" />
<path d="M15.6826 19.8712
L15.7430 19.7502
" />
<path d="M15.7430 19.7502
L15.8640 19.6898
" />
<path d="M15.8640 19.6898
L16.1059 19.6898
" />
<path d="M16.1059 19.6898
L16.2268 19.7502
" />
<path d="M16.2268 19.7502
L16.2873 19.8712
" />
<path d="M16.2873 19.8712
L16.2873 19.9921
" />
<path d="M16.2873 19.9921
L15.6826 20.1131
" />
<path d="M17.0131 20.4155
L17.0735 20.4760
" />
<path d="M17.0735 20.4760
L17.0131 20.5364
" />
<path d="M17.0131 20.5364
L16.9526 20.4760
" />
<path d="M16.9526 20.4760
L17.0131 20.4155
" />
<path d="M17.0131 20.4155
L17.0131 20.5364
" />
<path d="M16.7712 19.3269
L16.8921 19.2664
" />
<path d="M16.8921 19.2664
L17.1945 19.2664
" />
<path d="M17.1945 19.2664
L17.3154 19.3269
" />
<path d="M17.3154 19.3269
L17.3759 19.4479
" />
<path d="M17.3759 19.4479
L17.3759 19.5688
" />
<path d="M17.3759 19.5688
L17.3154 19.6898
" />
<path d="M17.3154 19.6898
L17.2550 19.7502
" />
<path d="M17.2550 19.7502
L17.1340 19.8107
" />
<path d="M17.1340 19.8107
L17.0735 19.8712
" />
<path d="M17.0735 19.8712
L17.0131 19.9921
" />
<path d="M17.0131 19.9921
L17.0131 20.0526
" />
</g></g>
</svg>
