<?xml version="1.0" standalone="no"?>
 <!DOCTYPE svg PUBLIC "-//W3C//DTD SVG 1.1//EN" 
 "http://www.w3.org/Graphics/SVG/1.1/DTD/svg11.dtd"> 
<svg
  xmlns:svg="http://www.w3.org/2000/svg"
  xmlns="http://www.w3.org/2000/svg"
  xmlns:xlink="http://www.w3.org/1999/xlink"
  xmlns:inkscape="http://www.inkscape.org/namespaces/inkscape"
  version="1.1"
  width="22.4790mm" height="22.8854mm" viewBox="0.0000 0.0000 22.4790 22.8854">
<title>SVG Image created as Valve - Needle Servo_unit1.svg date 2026-05-31T11:36:25 </title>
  <desc>Image generated by Eeschema-SVG </desc>
<g style="fill:#000000; fill-opacity:1.0000;stroke:#000000; stroke-opacity:1.0000;
stroke-linecap:round; stroke-linejoin:round;"
 transform="translate(0 0) scale(1 1)">
</g>
<g style="fill:none; 
stroke:#840000; stroke-width:0.1000; stroke-opacity:1; 
stroke-linecap:round; stroke-linejoin:round;">
<rect x="9.239500" y="4.956900" width="4.000000" height="2.000000" rx="0.000000" />
<path style="fill:none; 
stroke:#840000; stroke-width:0.1000; stroke-opacity:1; 
stroke-linecap:round; stroke-linejoin:round;fill:none"
d="M 11.2395,6.9569
11.2395,9.9569
" /> 
<path style="fill:none; 
stroke:#840000; stroke-width:0.1000; stroke-opacity:1; 
stroke-linecap:round; stroke-linejoin:round;fill:none"
d="M 11.2395,8.9569
11.2395,10.9569
" /> 
<path style="fill:none; 
stroke:#840000; stroke-width:0.1000; stroke-opacity:1; 
stroke-linecap:round; stroke-linejoin:round;fill:none"
d="M 11.2395,9.9569
6.2395,7.9569
6.2395,11.9569
Z" /> 
<path style="fill:none; 
stroke:#840000; stroke-width:0.1000; stroke-opacity:1; 
stroke-linecap:round; stroke-linejoin:round;fill:none"
d="M 11.2395,9.9569
16.2395,7.9569
16.2395,11.9569
Z" /> 
<path style="fill:#840000; fill-opacity:1.0000; 
stroke:#840000; stroke-width:0.1000; stroke-opacity:1; 
stroke-linecap:round; stroke-linejoin:round;fill-rule:evenodd;"
d="M 11.2395,10.9569
10.9895,10.9569
11.2395,11.9569
11.4895,10.9569
Z" /> 
</g>
<g style="fill:none; 
stroke:#840000; stroke-width:0.1524; stroke-opacity:1; 
stroke-linecap:round; stroke-linejoin:round;">
<text x="11.2395" y="6.5919"
textLength="1.4127" font-size="1.6933" lengthAdjust="spacingAndGlyphs"
text-anchor="middle" opacity="0" stroke-opacity="0">S</text>
<g class="stroked-text"><desc>S</desc>
<path d="M10.8767 6.4760
L11.0581 6.5364
" />
<path d="M11.0581 6.5364
L11.3605 6.5364
" />
<path d="M11.3605 6.5364
L11.4814 6.4760
" />
<path d="M11.4814 6.4760
L11.5419 6.4155
" />
<path d="M11.5419 6.4155
L11.6024 6.2945
" />
<path d="M11.6024 6.2945
L11.6024 6.1736
" />
<path d="M11.6024 6.1736
L11.5419 6.0526
" />
<path d="M11.5419 6.0526
L11.4814 5.9921
" />
<path d="M11.4814 5.9921
L11.3605 5.9317
" />
<path d="M11.3605 5.9317
L11.1186 5.8712
" />
<path d="M11.1186 5.8712
L10.9976 5.8107
" />
<path d="M10.9976 5.8107
L10.9371 5.7502
" />
<path d="M10.9371 5.7502
L10.8767 5.6293
" />
<path d="M10.8767 5.6293
L10.8767 5.5083
" />
<path d="M10.8767 5.5083
L10.9371 5.3874
" />
<path d="M10.9371 5.3874
L10.9976 5.3269
" />
<path d="M10.9976 5.3269
L11.1186 5.2664
" />
<path d="M11.1186 5.2664
L11.4209 5.2664
" />
<path d="M11.4209 5.2664
L11.6024 5.3269
" />
</g><path d="M6.2395 9.9569
L3.2395 9.9569
" />
<path d="M16.2395 9.9569
L19.2395 9.9569
" />
</g>
<g style="fill:none; 
stroke:#006464; stroke-width:0.1524; stroke-opacity:1; 
stroke-linecap:round; stroke-linejoin:round;">
<text x="11.2395" y="20.5919"
textLength="19.7974" font-size="1.6933" lengthAdjust="spacingAndGlyphs"
text-anchor="middle" opacity="0" stroke-opacity="0">Needle_Servo_Valve?</text>
<g class="stroked-text"><desc>Needle_Servo_Valve?</desc>
<path d="M1.7447 20.5364
L1.7447 19.2664
" />
<path d="M1.7447 19.2664
L2.4704 20.5364
" />
<path d="M2.4704 20.5364
L2.4704 19.2664
" />
<path d="M3.5590 20.4760
L3.4381 20.5364
" />
<path d="M3.4381 20.5364
L3.1962 20.5364
" />
<path d="M3.1962 20.5364
L3.0752 20.4760
" />
<path d="M3.0752 20.4760
L3.0148 20.3550
" />
<path d="M3.0148 20.3550
L3.0148 19.8712
" />
<path d="M3.0148 19.8712
L3.0752 19.7502
" />
<path d="M3.0752 19.7502
L3.1962 19.6898
" />
<path d="M3.1962 19.6898
L3.4381 19.6898
" />
<path d="M3.4381 19.6898
L3.5590 19.7502
" />
<path d="M3.5590 19.7502
L3.6195 19.8712
" />
<path d="M3.6195 19.8712
L3.6195 19.9921
" />
<path d="M3.6195 19.9921
L3.0148 20.1131
" />
<path d="M4.6476 20.4760
L4.5267 20.5364
" />
<path d="M4.5267 20.5364
L4.2848 20.5364
" />
<path d="M4.2848 20.5364
L4.1638 20.4760
" />
<path d="M4.1638 20.4760
L4.1034 20.3550
" />
<path d="M4.1034 20.3550
L4.1034 19.8712
" />
<path d="M4.1034 19.8712
L4.1638 19.7502
" />
<path d="M4.1638 19.7502
L4.2848 19.6898
" />
<path d="M4.2848 19.6898
L4.5267 19.6898
" />
<path d="M4.5267 19.6898
L4.6476 19.7502
" />
<path d="M4.6476 19.7502
L4.7081 19.8712
" />
<path d="M4.7081 19.8712
L4.7081 19.9921
" />
<path d="M4.7081 19.9921
L4.1034 20.1131
" />
<path d="M5.7967 20.5364
L5.7967 19.2664
" />
<path d="M5.7967 20.4760
L5.6758 20.5364
" />
<path d="M5.6758 20.5364
L5.4339 20.5364
" />
<path d="M5.4339 20.5364
L5.3129 20.4760
" />
<path d="M5.3129 20.4760
L5.2524 20.4155
" />
<path d="M5.2524 20.4155
L5.1920 20.2945
" />
<path d="M5.1920 20.2945
L5.1920 19.9317
" />
<path d="M5.1920 19.9317
L5.2524 19.8107
" />
<path d="M5.2524 19.8107
L5.3129 19.7502
" />
<path d="M5.3129 19.7502
L5.4339 19.6898
" />
<path d="M5.4339 19.6898
L5.6758 19.6898
" />
<path d="M5.6758 19.6898
L5.7967 19.7502
" />
<path d="M6.5829 20.5364
L6.4619 20.4760
" />
<path d="M6.4619 20.4760
L6.4014 20.3550
" />
<path d="M6.4014 20.3550
L6.4014 19.2664
" />
<path d="M7.5504 20.4760
L7.4295 20.5364
" />
<path d="M7.4295 20.5364
L7.1876 20.5364
" />
<path d="M7.1876 20.5364
L7.0666 20.4760
" />
<path d="M7.0666 20.4760
L7.0062 20.3550
" />
<path d="M7.0062 20.3550
L7.0062 19.8712
" />
<path d="M7.0062 19.8712
L7.0666 19.7502
" />
<path d="M7.0666 19.7502
L7.1876 19.6898
" />
<path d="M7.1876 19.6898
L7.4295 19.6898
" />
<path d="M7.4295 19.6898
L7.5504 19.7502
" />
<path d="M7.5504 19.7502
L7.6109 19.8712
" />
<path d="M7.6109 19.8712
L7.6109 19.9921
" />
<path d="M7.6109 19.9921
L7.0062 20.1131
" />
<path d="M7.8529 20.6574
L8.8205 20.6574
" />
<path d="M9.0624 20.4760
L9.2438 20.5364
" />
<path d="M9.2438 20.5364
L9.5462 20.5364
" />
<path d="M9.5462 20.5364
L9.6671 20.4760
" />
<path d="M9.6671 20.4760
L9.7276 20.4155
" />
<path d="M9.7276 20.4155
L9.7881 20.2945
" />
<path d="M9.7881 20.2945
L9.7881 20.1736
" />
<path d="M9.7881 20.1736
L9.7276 20.0526
" />
<path d="M9.7276 20.0526
L9.6671 19.9921
" />
<path d="M9.6671 19.9921
L9.5462 19.9317
" />
<path d="M9.5462 19.9317
L9.3043 19.8712
" />
<path d="M9.3043 19.8712
L9.1833 19.8107
" />
<path d="M9.1833 19.8107
L9.1228 19.7502
" />
<path d="M9.1228 19.7502
L9.0624 19.6293
" />
<path d="M9.0624 19.6293
L9.0624 19.5083
" />
<path d="M9.0624 19.5083
L9.1228 19.3874
" />
<path d="M9.1228 19.3874
L9.1833 19.3269
" />
<path d="M9.1833 19.3269
L9.3043 19.2664
" />
<path d="M9.3043 19.2664
L9.6066 19.2664
" />
<path d="M9.6066 19.2664
L9.7881 19.3269
" />
<path d="M10.8161 20.4760
L10.6952 20.5364
" />
<path d="M10.6952 20.5364
L10.4533 20.5364
" />
<path d="M10.4533 20.5364
L10.3323 20.4760
" />
<path d="M10.3323 20.4760
L10.2719 20.3550
" />
<path d="M10.2719 20.3550
L10.2719 19.8712
" />
<path d="M10.2719 19.8712
L10.3323 19.7502
" />
<path d="M10.3323 19.7502
L10.4533 19.6898
" />
<path d="M10.4533 19.6898
L10.6952 19.6898
" />
<path d="M10.6952 19.6898
L10.8161 19.7502
" />
<path d="M10.8161 19.7502
L10.8766 19.8712
" />
<path d="M10.8766 19.8712
L10.8766 19.9921
" />
<path d="M10.8766 19.9921
L10.2719 20.1131
" />
<path d="M11.4209 20.5364
L11.4209 19.6898
" />
<path d="M11.4209 19.9317
L11.4814 19.8107
" />
<path d="M11.4814 19.8107
L11.5419 19.7502
" />
<path d="M11.5419 19.7502
L11.6628 19.6898
" />
<path d="M11.6628 19.6898
L11.7838 19.6898
" />
<path d="M12.0862 19.6898
L12.3886 20.5364
" />
<path d="M12.3886 20.5364
L12.6909 19.6898
" />
<path d="M13.3562 20.5364
L13.2352 20.4760
" />
<path d="M13.2352 20.4760
L13.1747 20.4155
" />
<path d="M13.1747 20.4155
L13.1143 20.2945
" />
<path d="M13.1143 20.2945
L13.1143 19.9317
" />
<path d="M13.1143 19.9317
L13.1747 19.8107
" />
<path d="M13.1747 19.8107
L13.2352 19.7502
" />
<path d="M13.2352 19.7502
L13.3562 19.6898
" />
<path d="M13.3562 19.6898
L13.5376 19.6898
" />
<path d="M13.5376 19.6898
L13.6585 19.7502
" />
<path d="M13.6585 19.7502
L13.7190 19.8107
" />
<path d="M13.7190 19.8107
L13.7795 19.9317
" />
<path d="M13.7795 19.9317
L13.7795 20.2945
" />
<path d="M13.7795 20.2945
L13.7190 20.4155
" />
<path d="M13.7190 20.4155
L13.6585 20.4760
" />
<path d="M13.6585 20.4760
L13.5376 20.5364
" />
<path d="M13.5376 20.5364
L13.3562 20.5364
" />
<path d="M14.0214 20.6574
L14.9890 20.6574
" />
<path d="M15.1099 19.2664
L15.5332 20.5364
" />
<path d="M15.5332 20.5364
L15.9566 19.2664
" />
<path d="M16.9242 20.5364
L16.9242 19.8712
" />
<path d="M16.9242 19.8712
L16.8637 19.7502
" />
<path d="M16.8637 19.7502
L16.7428 19.6898
" />
<path d="M16.7428 19.6898
L16.5009 19.6898
" />
<path d="M16.5009 19.6898
L16.3799 19.7502
" />
<path d="M16.9242 20.4760
L16.8033 20.5364
" />
<path d="M16.8033 20.5364
L16.5009 20.5364
" />
<path d="M16.5009 20.5364
L16.3799 20.4760
" />
<path d="M16.3799 20.4760
L16.3195 20.3550
" />
<path d="M16.3195 20.3550
L16.3195 20.2340
" />
<path d="M16.3195 20.2340
L16.3799 20.1131
" />
<path d="M16.3799 20.1131
L16.5009 20.0526
" />
<path d="M16.5009 20.0526
L16.8033 20.0526
" />
<path d="M16.8033 20.0526
L16.9242 19.9921
" />
<path d="M17.7104 20.5364
L17.5894 20.4760
" />
<path d="M17.5894 20.4760
L17.5289 20.3550
" />
<path d="M17.5289 20.3550
L17.5289 19.2664
" />
<path d="M18.0732 19.6898
L18.3756 20.5364
" />
<path d="M18.3756 20.5364
L18.6779 19.6898
" />
<path d="M19.6455 20.4760
L19.5246 20.5364
" />
<path d="M19.5246 20.5364
L19.2827 20.5364
" />
<path d="M19.2827 20.5364
L19.1617 20.4760
" />
<path d="M19.1617 20.4760
L19.1013 20.3550
" />
<path d="M19.1013 20.3550
L19.1013 19.8712
" />
<path d="M19.1013 19.8712
L19.1617 19.7502
" />
<path d="M19.1617 19.7502
L19.2827 19.6898
" />
<path d="M19.2827 19.6898
L19.5246 19.6898
" />
<path d="M19.5246 19.6898
L19.6455 19.7502
" />
<path d="M19.6455 19.7502
L19.7060 19.8712
" />
<path d="M19.7060 19.8712
L19.7060 19.9921
" />
<path d="M19.7060 19.9921
L19.1013 20.1131
" />
<path d="M20.4318 20.4155
L20.4922 20.4760
" />
<path d="M20.4922 20.4760
L20.4318 20.5364
" />
<path d="M20.4318 20.5364
L20.3713 20.4760
" />
<path d="M20.3713 20.4760
L20.4318 20.4155
" />
<path d="M20.4318 20.4155
L20.4318 20.5364
" />
<path d="M20.1899 19.3269
L20.3108 19.2664
" />
<path d="M20.3108 19.2664
L20.6132 19.2664
" />
<path d="M20.6132 19.2664
L20.7341 19.3269
" />
<path d="M20.7341 19.3269
L20.7946 19.4479
" />
<path d="M20.7946 19.4479
L20.7946 19.5688
" />
<path d="M20.7946 19.5688
L20.7341 19.6898
" />
<path d="M20.7341 19.6898
L20.6737 19.7502
" />
<path d="M20.6737 19.7502
L20.5527 19.8107
" />
<path d="M20.5527 19.8107
L20.4922 19.8712
" />
<path d="M20.4922 19.8712
L20.4318 19.9921
" />
<path d="M20.4318 19.9921
L20.4318 20.0526
" />
</g></g> 
</svg>
