<!-- Copyright 2026 Kingston University Rocket Engineering -->

<?xml version="1.0" standalone="no"?>
 <!DOCTYPE svg PUBLIC "-//W3C//DTD SVG 1.1//EN"
 "http://www.w3.org/Graphics/SVG/1.1/DTD/svg11.dtd">
<svg
  xmlns:svg="http://www.w3.org/2000/svg"
  xmlns="http://www.w3.org/2000/svg"
  xmlns:xlink="http://www.w3.org/1999/xlink"
  xmlns:inkscape="http://www.inkscape.org/namespaces/inkscape"
  version="1.1"
  width="31.3182mm" height="22.8854mm" viewBox="0.0000 0.0000 31.3182 22.8854">
<title>SVG Image created as Valve - Diaphragm Hydraulic_unit1.svg date 2026-05-31T11:36:24 </title>
  <desc>Image generated by Eeschema-SVG </desc>
<g style="fill:#000000; fill-opacity:1.0000;stroke:#000000; stroke-opacity:1.0000;
stroke-linecap:round; stroke-linejoin:round;"
 transform="translate(0 0) scale(1 1)">
</g>
<g style="fill:none;
stroke:#840000; stroke-width:0.1000; stroke-opacity:1;
stroke-linecap:round; stroke-linejoin:round;">
<rect x="13.659100" y="4.956900" width="4.000000" height="2.000000" rx="0.000000" />
<path style="fill:none;
stroke:#840000; stroke-width:0.1000; stroke-opacity:1;
stroke-linecap:round; stroke-linejoin:round;fill:none"
d="M 15.6591,6.9569
15.6591,9.9569
" />
<path style="fill:none;
stroke:#840000; stroke-width:0.1000; stroke-opacity:1;
stroke-linecap:round; stroke-linejoin:round;fill:none"
d="M 15.6591,9.9569
10.6591,7.9569
10.6591,11.9569
Z" />
<path style="fill:none;
stroke:#840000; stroke-width:0.1000; stroke-opacity:1;
stroke-linecap:round; stroke-linejoin:round;fill:none"
d="M 15.6591,9.9569
20.6591,7.9569
20.6591,11.9569
Z" />
<path d="M18.6591 9.9569 A3.2500 3.2500 0.0 0 0 12.6591 9.9569" />
</g>
<g style="fill:none;
stroke:#840000; stroke-width:0.1524; stroke-opacity:1;
stroke-linecap:round; stroke-linejoin:round;">
<text x="15.6591" y="6.5919"
textLength="1.5337" font-size="1.6933" lengthAdjust="spacingAndGlyphs"
text-anchor="middle" opacity="0" stroke-opacity="0">H</text>
<g class="stroked-text"><desc>H</desc>
<path d="M15.2962 6.5364
L15.2962 5.2664
" />
<path d="M15.2962 5.8712
L16.0219 5.8712
" />
<path d="M16.0219 6.5364
L16.0219 5.2664
" />
</g><path d="M10.6591 9.9569
L7.6591 9.9569
" />
<path d="M20.6591 9.9569
L23.6591 9.9569
" />
</g>
<g style="fill:none;
stroke:#006464; stroke-width:0.1524; stroke-opacity:1;
stroke-linecap:round; stroke-linejoin:round;">
<text x="15.6591" y="20.5919"
textLength="27.1752" font-size="1.6933" lengthAdjust="spacingAndGlyphs"
text-anchor="middle" opacity="0" stroke-opacity="0">Diaphragm_Hydraulic_Valve?</text>
<g class="stroked-text"><desc>Diaphragm_Hydraulic_Valve?</desc>
<path d="M2.4754 20.5364
L2.4754 19.2664
" />
<path d="M2.4754 19.2664
L2.7778 19.2664
" />
<path d="M2.7778 19.2664
L2.9592 19.3269
" />
<path d="M2.9592 19.3269
L3.0802 19.4479
" />
<path d="M3.0802 19.4479
L3.1407 19.5688
" />
<path d="M3.1407 19.5688
L3.2011 19.8107
" />
<path d="M3.2011 19.8107
L3.2011 19.9921
" />
<path d="M3.2011 19.9921
L3.1407 20.2340
" />
<path d="M3.1407 20.2340
L3.0802 20.3550
" />
<path d="M3.0802 20.3550
L2.9592 20.4760
" />
<path d="M2.9592 20.4760
L2.7778 20.5364
" />
<path d="M2.7778 20.5364
L2.4754 20.5364
" />
<path d="M3.7454 20.5364
L3.7454 19.6898
" />
<path d="M3.7454 19.2664
L3.6850 19.3269
" />
<path d="M3.6850 19.3269
L3.7454 19.3874
" />
<path d="M3.7454 19.3874
L3.8059 19.3269
" />
<path d="M3.8059 19.3269
L3.7454 19.2664
" />
<path d="M3.7454 19.2664
L3.7454 19.3874
" />
<path d="M4.8945 20.5364
L4.8945 19.8712
" />
<path d="M4.8945 19.8712
L4.8340 19.7502
" />
<path d="M4.8340 19.7502
L4.7131 19.6898
" />
<path d="M4.7131 19.6898
L4.4712 19.6898
" />
<path d="M4.4712 19.6898
L4.3502 19.7502
" />
<path d="M4.8945 20.4760
L4.7736 20.5364
" />
<path d="M4.7736 20.5364
L4.4712 20.5364
" />
<path d="M4.4712 20.5364
L4.3502 20.4760
" />
<path d="M4.3502 20.4760
L4.2898 20.3550
" />
<path d="M4.2898 20.3550
L4.2898 20.2340
" />
<path d="M4.2898 20.2340
L4.3502 20.1131
" />
<path d="M4.3502 20.1131
L4.4712 20.0526
" />
<path d="M4.4712 20.0526
L4.7736 20.0526
" />
<path d="M4.7736 20.0526
L4.8945 19.9921
" />
<path d="M5.4992 19.6898
L5.4992 20.9598
" />
<path d="M5.4992 19.7502
L5.6202 19.6898
" />
<path d="M5.6202 19.6898
L5.8621 19.6898
" />
<path d="M5.8621 19.6898
L5.9830 19.7502
" />
<path d="M5.9830 19.7502
L6.0435 19.8107
" />
<path d="M6.0435 19.8107
L6.1040 19.9317
" />
<path d="M6.1040 19.9317
L6.1040 20.2945
" />
<path d="M6.1040 20.2945
L6.0435 20.4155
" />
<path d="M6.0435 20.4155
L5.9830 20.4760
" />
<path d="M5.9830 20.4760
L5.8621 20.5364
" />
<path d="M5.8621 20.5364
L5.6202 20.5364
" />
<path d="M5.6202 20.5364
L5.4992 20.4760
" />
<path d="M6.6482 20.5364
L6.6482 19.2664
" />
<path d="M7.1925 20.5364
L7.1925 19.8712
" />
<path d="M7.1925 19.8712
L7.1320 19.7502
" />
<path d="M7.1320 19.7502
L7.0111 19.6898
" />
<path d="M7.0111 19.6898
L6.8297 19.6898
" />
<path d="M6.8297 19.6898
L6.7087 19.7502
" />
<path d="M6.7087 19.7502
L6.6482 19.8107
" />
<path d="M7.7972 20.5364
L7.7972 19.6898
" />
<path d="M7.7972 19.9317
L7.8577 19.8107
" />
<path d="M7.8577 19.8107
L7.9182 19.7502
" />
<path d="M7.9182 19.7502
L8.0391 19.6898
" />
<path d="M8.0391 19.6898
L8.1601 19.6898
" />
<path d="M9.1277 20.5364
L9.1277 19.8712
" />
<path d="M9.1277 19.8712
L9.0672 19.7502
" />
<path d="M9.0672 19.7502
L8.9463 19.6898
" />
<path d="M8.9463 19.6898
L8.7044 19.6898
" />
<path d="M8.7044 19.6898
L8.5834 19.7502
" />
<path d="M9.1277 20.4760
L9.0068 20.5364
" />
<path d="M9.0068 20.5364
L8.7044 20.5364
" />
<path d="M8.7044 20.5364
L8.5834 20.4760
" />
<path d="M8.5834 20.4760
L8.5230 20.3550
" />
<path d="M8.5230 20.3550
L8.5230 20.2340
" />
<path d="M8.5230 20.2340
L8.5834 20.1131
" />
<path d="M8.5834 20.1131
L8.7044 20.0526
" />
<path d="M8.7044 20.0526
L9.0068 20.0526
" />
<path d="M9.0068 20.0526
L9.1277 19.9921
" />
<path d="M10.2767 19.6898
L10.2767 20.7179
" />
<path d="M10.2767 20.7179
L10.2162 20.8388
" />
<path d="M10.2162 20.8388
L10.1558 20.8993
" />
<path d="M10.1558 20.8993
L10.0348 20.9598
" />
<path d="M10.0348 20.9598
L9.8534 20.9598
" />
<path d="M9.8534 20.9598
L9.7324 20.8993
" />
<path d="M10.2767 20.4760
L10.1558 20.5364
" />
<path d="M10.1558 20.5364
L9.9139 20.5364
" />
<path d="M9.9139 20.5364
L9.7929 20.4760
" />
<path d="M9.7929 20.4760
L9.7324 20.4155
" />
<path d="M9.7324 20.4155
L9.6720 20.2945
" />
<path d="M9.6720 20.2945
L9.6720 19.9317
" />
<path d="M9.6720 19.9317
L9.7324 19.8107
" />
<path d="M9.7324 19.8107
L9.7929 19.7502
" />
<path d="M9.7929 19.7502
L9.9139 19.6898
" />
<path d="M9.9139 19.6898
L10.1558 19.6898
" />
<path d="M10.1558 19.6898
L10.2767 19.7502
" />
<path d="M10.8814 20.5364
L10.8814 19.6898
" />
<path d="M10.8814 19.8107
L10.9419 19.7502
" />
<path d="M10.9419 19.7502
L11.0629 19.6898
" />
<path d="M11.0629 19.6898
L11.2443 19.6898
" />
<path d="M11.2443 19.6898
L11.3652 19.7502
" />
<path d="M11.3652 19.7502
L11.4257 19.8712
" />
<path d="M11.4257 19.8712
L11.4257 20.5364
" />
<path d="M11.4257 19.8712
L11.4862 19.7502
" />
<path d="M11.4862 19.7502
L11.6071 19.6898
" />
<path d="M11.6071 19.6898
L11.7886 19.6898
" />
<path d="M11.7886 19.6898
L11.9095 19.7502
" />
<path d="M11.9095 19.7502
L11.9700 19.8712
" />
<path d="M11.9700 19.8712
L11.9700 20.5364
" />
<path d="M12.2724 20.6574
L13.2400 20.6574
" />
<path d="M13.5423 20.5364
L13.5423 19.2664
" />
<path d="M13.5423 19.8712
L14.2680 19.8712
" />
<path d="M14.2680 20.5364
L14.2680 19.2664
" />
<path d="M14.7519 19.6898
L15.0543 20.5364
" />
<path d="M15.3566 19.6898
L15.0543 20.5364
" />
<path d="M15.0543 20.5364
L14.9333 20.8388
" />
<path d="M14.9333 20.8388
L14.8728 20.8993
" />
<path d="M14.8728 20.8993
L14.7519 20.9598
" />
<path d="M16.3847 20.5364
L16.3847 19.2664
" />
<path d="M16.3847 20.4760
L16.2638 20.5364
" />
<path d="M16.2638 20.5364
L16.0219 20.5364
" />
<path d="M16.0219 20.5364
L15.9009 20.4760
" />
<path d="M15.9009 20.4760
L15.8404 20.4155
" />
<path d="M15.8404 20.4155
L15.7800 20.2945
" />
<path d="M15.7800 20.2945
L15.7800 19.9317
" />
<path d="M15.7800 19.9317
L15.8404 19.8107
" />
<path d="M15.8404 19.8107
L15.9009 19.7502
" />
<path d="M15.9009 19.7502
L16.0219 19.6898
" />
<path d="M16.0219 19.6898
L16.2638 19.6898
" />
<path d="M16.2638 19.6898
L16.3847 19.7502
" />
<path d="M16.9894 20.5364
L16.9894 19.6898
" />
<path d="M16.9894 19.9317
L17.0499 19.8107
" />
<path d="M17.0499 19.8107
L17.1104 19.7502
" />
<path d="M17.1104 19.7502
L17.2313 19.6898
" />
<path d="M17.2313 19.6898
L17.3523 19.6898
" />
<path d="M18.3199 20.5364
L18.3199 19.8712
" />
<path d="M18.3199 19.8712
L18.2594 19.7502
" />
<path d="M18.2594 19.7502
L18.1385 19.6898
" />
<path d="M18.1385 19.6898
L17.8966 19.6898
" />
<path d="M17.8966 19.6898
L17.7756 19.7502
" />
<path d="M18.3199 20.4760
L18.1990 20.5364
" />
<path d="M18.1990 20.5364
L17.8966 20.5364
" />
<path d="M17.8966 20.5364
L17.7756 20.4760
" />
<path d="M17.7756 20.4760
L17.7152 20.3550
" />
<path d="M17.7152 20.3550
L17.7152 20.2340
" />
<path d="M17.7152 20.2340
L17.7756 20.1131
" />
<path d="M17.7756 20.1131
L17.8966 20.0526
" />
<path d="M17.8966 20.0526
L18.1990 20.0526
" />
<path d="M18.1990 20.0526
L18.3199 19.9921
" />
<path d="M19.4689 19.6898
L19.4689 20.5364
" />
<path d="M18.9246 19.6898
L18.9246 20.3550
" />
<path d="M18.9246 20.3550
L18.9851 20.4760
" />
<path d="M18.9851 20.4760
L19.1061 20.5364
" />
<path d="M19.1061 20.5364
L19.2875 20.5364
" />
<path d="M19.2875 20.5364
L19.4084 20.4760
" />
<path d="M19.4084 20.4760
L19.4689 20.4155
" />
<path d="M20.2551 20.5364
L20.1341 20.4760
" />
<path d="M20.1341 20.4760
L20.0736 20.3550
" />
<path d="M20.0736 20.3550
L20.0736 19.2664
" />
<path d="M20.7388 20.5364
L20.7388 19.6898
" />
<path d="M20.7388 19.2664
L20.6784 19.3269
" />
<path d="M20.6784 19.3269
L20.7388 19.3874
" />
<path d="M20.7388 19.3874
L20.7993 19.3269
" />
<path d="M20.7993 19.3269
L20.7388 19.2664
" />
<path d="M20.7388 19.2664
L20.7388 19.3874
" />
<path d="M21.8879 20.4760
L21.7670 20.5364
" />
<path d="M21.7670 20.5364
L21.5251 20.5364
" />
<path d="M21.5251 20.5364
L21.4041 20.4760
" />
<path d="M21.4041 20.4760
L21.3436 20.4155
" />
<path d="M21.3436 20.4155
L21.2832 20.2945
" />
<path d="M21.2832 20.2945
L21.2832 19.9317
" />
<path d="M21.2832 19.9317
L21.3436 19.8107
" />
<path d="M21.3436 19.8107
L21.4041 19.7502
" />
<path d="M21.4041 19.7502
L21.5251 19.6898
" />
<path d="M21.5251 19.6898
L21.7670 19.6898
" />
<path d="M21.7670 19.6898
L21.8879 19.7502
" />
<path d="M22.1299 20.6574
L23.0975 20.6574
" />
<path d="M23.2184 19.2664
L23.6417 20.5364
" />
<path d="M23.6417 20.5364
L24.0651 19.2664
" />
<path d="M25.0327 20.5364
L25.0327 19.8712
" />
<path d="M25.0327 19.8712
L24.9722 19.7502
" />
<path d="M24.9722 19.7502
L24.8513 19.6898
" />
<path d="M24.8513 19.6898
L24.6094 19.6898
" />
<path d="M24.6094 19.6898
L24.4884 19.7502
" />
<path d="M25.0327 20.4760
L24.9118 20.5364
" />
<path d="M24.9118 20.5364
L24.6094 20.5364
" />
<path d="M24.6094 20.5364
L24.4884 20.4760
" />
<path d="M24.4884 20.4760
L24.4280 20.3550
" />
<path d="M24.4280 20.3550
L24.4280 20.2340
" />
<path d="M24.4280 20.2340
L24.4884 20.1131
" />
<path d="M24.4884 20.1131
L24.6094 20.0526
" />
<path d="M24.6094 20.0526
L24.9118 20.0526
" />
<path d="M24.9118 20.0526
L25.0327 19.9921
" />
<path d="M25.8189 20.5364
L25.6979 20.4760
" />
<path d="M25.6979 20.4760
L25.6374 20.3550
" />
<path d="M25.6374 20.3550
L25.6374 19.2664
" />
<path d="M26.1817 19.6898
L26.4841 20.5364
" />
<path d="M26.4841 20.5364
L26.7864 19.6898
" />
<path d="M27.7540 20.4760
L27.6331 20.5364
" />
<path d="M27.6331 20.5364
L27.3912 20.5364
" />
<path d="M27.3912 20.5364
L27.2702 20.4760
" />
<path d="M27.2702 20.4760
L27.2098 20.3550
" />
<path d="M27.2098 20.3550
L27.2098 19.8712
" />
<path d="M27.2098 19.8712
L27.2702 19.7502
" />
<path d="M27.2702 19.7502
L27.3912 19.6898
" />
<path d="M27.3912 19.6898
L27.6331 19.6898
" />
<path d="M27.6331 19.6898
L27.7540 19.7502
" />
<path d="M27.7540 19.7502
L27.8145 19.8712
" />
<path d="M27.8145 19.8712
L27.8145 19.9921
" />
<path d="M27.8145 19.9921
L27.2098 20.1131
" />
<path d="M28.5403 20.4155
L28.6007 20.4760
" />
<path d="M28.6007 20.4760
L28.5403 20.5364
" />
<path d="M28.5403 20.5364
L28.4798 20.4760
" />
<path d="M28.4798 20.4760
L28.5403 20.4155
" />
<path d="M28.5403 20.4155
L28.5403 20.5364
" />
<path d="M28.2984 19.3269
L28.4193 19.2664
" />
<path d="M28.4193 19.2664
L28.7217 19.2664
" />
<path d="M28.7217 19.2664
L28.8426 19.3269
" />
<path d="M28.8426 19.3269
L28.9031 19.4479
" />
<path d="M28.9031 19.4479
L28.9031 19.5688
" />
<path d="M28.9031 19.5688
L28.8426 19.6898
" />
<path d="M28.8426 19.6898
L28.7822 19.7502
" />
<path d="M28.7822 19.7502
L28.6612 19.8107
" />
<path d="M28.6612 19.8107
L28.6007 19.8712
" />
<path d="M28.6007 19.8712
L28.5403 19.9921
" />
<path d="M28.5403 19.9921
L28.5403 20.0526
" />
</g></g>
</svg>
