<?xml version="1.0" standalone="no"?>
 <!DOCTYPE svg PUBLIC "-//W3C//DTD SVG 1.1//EN" 
 "http://www.w3.org/Graphics/SVG/1.1/DTD/svg11.dtd"> 
<svg
  xmlns:svg="http://www.w3.org/2000/svg"
  xmlns="http://www.w3.org/2000/svg"
  xmlns:xlink="http://www.w3.org/1999/xlink"
  xmlns:inkscape="http://www.inkscape.org/namespaces/inkscape"
  version="1.1"
  width="22.9870mm" height="22.8854mm" viewBox="0.0000 0.0000 22.9870 22.8854">
<title>SVG Image created as Valve - Globe Manual_unit1.svg date 2026-05-31T11:36:20 </title>
  <desc>Image generated by Eeschema-SVG </desc>
<g style="fill:#000000; fill-opacity:1.0000;stroke:#000000; stroke-opacity:1.0000;
stroke-linecap:round; stroke-linejoin:round;"
 transform="translate(0 0) scale(1 1)">
<path style="fill:none; 
stroke:#840000; stroke-width:0.1000; stroke-opacity:1; 
stroke-linecap:round; stroke-linejoin:round;fill:none"
d="M 11.4935,6.9569
11.4935,9.9569
" /> 
<path style="fill:none; 
stroke:#840000; stroke-width:0.1000; stroke-opacity:1; 
stroke-linecap:round; stroke-linejoin:round;fill:none"
d="M 11.4935,9.9569
6.4935,7.9569
6.4935,11.9569
Z" /> 
<path style="fill:none; 
stroke:#840000; stroke-width:0.1000; stroke-opacity:1; 
stroke-linecap:round; stroke-linejoin:round;fill:none"
d="M 11.4935,9.9569
16.4935,7.9569
16.4935,11.9569
Z" /> 
<path style="fill:none; 
stroke:#840000; stroke-width:0.1000; stroke-opacity:1; 
stroke-linecap:round; stroke-linejoin:round;fill:none"
d="M 13.4935,6.9569
9.4935,6.9569
" /> 
</g>
<g style="fill:none; 
stroke:#840000; stroke-width:0.1524; stroke-opacity:1; 
stroke-linecap:round; stroke-linejoin:round;">
<path d="M6.4935 9.9569
L3.4935 9.9569
" />
<path d="M16.4935 9.9569
L19.4935 9.9569
" />
</g>
<g style="fill:none; 
stroke:#006464; stroke-width:0.1524; stroke-opacity:1; 
stroke-linecap:round; stroke-linejoin:round;">
<text x="11.4935" y="20.5919"
textLength="20.2204" font-size="1.6933" lengthAdjust="spacingAndGlyphs"
text-anchor="middle" opacity="0" stroke-opacity="0">Globe_Manual_Valve?</text>
<g class="stroked-text"><desc>Globe_Manual_Valve?</desc>
<path d="M2.4525 19.3269
L2.3315 19.2664
" />
<path d="M2.3315 19.2664
L2.1501 19.2664
" />
<path d="M2.1501 19.2664
L1.9687 19.3269
" />
<path d="M1.9687 19.3269
L1.8477 19.4479
" />
<path d="M1.8477 19.4479
L1.7872 19.5688
" />
<path d="M1.7872 19.5688
L1.7268 19.8107
" />
<path d="M1.7268 19.8107
L1.7268 19.9921
" />
<path d="M1.7268 19.9921
L1.7872 20.2340
" />
<path d="M1.7872 20.2340
L1.8477 20.3550
" />
<path d="M1.8477 20.3550
L1.9687 20.4760
" />
<path d="M1.9687 20.4760
L2.1501 20.5364
" />
<path d="M2.1501 20.5364
L2.2710 20.5364
" />
<path d="M2.2710 20.5364
L2.4525 20.4760
" />
<path d="M2.4525 20.4760
L2.5129 20.4155
" />
<path d="M2.5129 20.4155
L2.5129 19.9921
" />
<path d="M2.5129 19.9921
L2.2710 19.9921
" />
<path d="M3.2387 20.5364
L3.1177 20.4760
" />
<path d="M3.1177 20.4760
L3.0572 20.3550
" />
<path d="M3.0572 20.3550
L3.0572 19.2664
" />
<path d="M3.9039 20.5364
L3.7829 20.4760
" />
<path d="M3.7829 20.4760
L3.7224 20.4155
" />
<path d="M3.7224 20.4155
L3.6620 20.2945
" />
<path d="M3.6620 20.2945
L3.6620 19.9317
" />
<path d="M3.6620 19.9317
L3.7224 19.8107
" />
<path d="M3.7224 19.8107
L3.7829 19.7502
" />
<path d="M3.7829 19.7502
L3.9039 19.6898
" />
<path d="M3.9039 19.6898
L4.0853 19.6898
" />
<path d="M4.0853 19.6898
L4.2062 19.7502
" />
<path d="M4.2062 19.7502
L4.2667 19.8107
" />
<path d="M4.2667 19.8107
L4.3272 19.9317
" />
<path d="M4.3272 19.9317
L4.3272 20.2945
" />
<path d="M4.3272 20.2945
L4.2667 20.4155
" />
<path d="M4.2667 20.4155
L4.2062 20.4760
" />
<path d="M4.2062 20.4760
L4.0853 20.5364
" />
<path d="M4.0853 20.5364
L3.9039 20.5364
" />
<path d="M4.8714 20.5364
L4.8714 19.2664
" />
<path d="M4.8714 19.7502
L4.9924 19.6898
" />
<path d="M4.9924 19.6898
L5.2343 19.6898
" />
<path d="M5.2343 19.6898
L5.3552 19.7502
" />
<path d="M5.3552 19.7502
L5.4157 19.8107
" />
<path d="M5.4157 19.8107
L5.4762 19.9317
" />
<path d="M5.4762 19.9317
L5.4762 20.2945
" />
<path d="M5.4762 20.2945
L5.4157 20.4155
" />
<path d="M5.4157 20.4155
L5.3552 20.4760
" />
<path d="M5.3552 20.4760
L5.2343 20.5364
" />
<path d="M5.2343 20.5364
L4.9924 20.5364
" />
<path d="M4.9924 20.5364
L4.8714 20.4760
" />
<path d="M6.5042 20.4760
L6.3833 20.5364
" />
<path d="M6.3833 20.5364
L6.1414 20.5364
" />
<path d="M6.1414 20.5364
L6.0204 20.4760
" />
<path d="M6.0204 20.4760
L5.9600 20.3550
" />
<path d="M5.9600 20.3550
L5.9600 19.8712
" />
<path d="M5.9600 19.8712
L6.0204 19.7502
" />
<path d="M6.0204 19.7502
L6.1414 19.6898
" />
<path d="M6.1414 19.6898
L6.3833 19.6898
" />
<path d="M6.3833 19.6898
L6.5042 19.7502
" />
<path d="M6.5042 19.7502
L6.5647 19.8712
" />
<path d="M6.5647 19.8712
L6.5647 19.9921
" />
<path d="M6.5647 19.9921
L5.9600 20.1131
" />
<path d="M6.8067 20.6574
L7.7743 20.6574
" />
<path d="M8.0766 20.5364
L8.0766 19.2664
" />
<path d="M8.0766 19.2664
L8.5000 20.1736
" />
<path d="M8.5000 20.1736
L8.9233 19.2664
" />
<path d="M8.9233 19.2664
L8.9233 20.5364
" />
<path d="M10.0723 20.5364
L10.0723 19.8712
" />
<path d="M10.0723 19.8712
L10.0118 19.7502
" />
<path d="M10.0118 19.7502
L9.8909 19.6898
" />
<path d="M9.8909 19.6898
L9.6490 19.6898
" />
<path d="M9.6490 19.6898
L9.5280 19.7502
" />
<path d="M10.0723 20.4760
L9.9514 20.5364
" />
<path d="M9.9514 20.5364
L9.6490 20.5364
" />
<path d="M9.6490 20.5364
L9.5280 20.4760
" />
<path d="M9.5280 20.4760
L9.4676 20.3550
" />
<path d="M9.4676 20.3550
L9.4676 20.2340
" />
<path d="M9.4676 20.2340
L9.5280 20.1131
" />
<path d="M9.5280 20.1131
L9.6490 20.0526
" />
<path d="M9.6490 20.0526
L9.9514 20.0526
" />
<path d="M9.9514 20.0526
L10.0723 19.9921
" />
<path d="M10.6770 19.6898
L10.6770 20.5364
" />
<path d="M10.6770 19.8107
L10.7375 19.7502
" />
<path d="M10.7375 19.7502
L10.8585 19.6898
" />
<path d="M10.8585 19.6898
L11.0399 19.6898
" />
<path d="M11.0399 19.6898
L11.1608 19.7502
" />
<path d="M11.1608 19.7502
L11.2213 19.8712
" />
<path d="M11.2213 19.8712
L11.2213 20.5364
" />
<path d="M12.3703 19.6898
L12.3703 20.5364
" />
<path d="M11.8260 19.6898
L11.8260 20.3550
" />
<path d="M11.8260 20.3550
L11.8865 20.4760
" />
<path d="M11.8865 20.4760
L12.0075 20.5364
" />
<path d="M12.0075 20.5364
L12.1889 20.5364
" />
<path d="M12.1889 20.5364
L12.3098 20.4760
" />
<path d="M12.3098 20.4760
L12.3703 20.4155
" />
<path d="M13.5193 20.5364
L13.5193 19.8712
" />
<path d="M13.5193 19.8712
L13.4588 19.7502
" />
<path d="M13.4588 19.7502
L13.3379 19.6898
" />
<path d="M13.3379 19.6898
L13.0960 19.6898
" />
<path d="M13.0960 19.6898
L12.9750 19.7502
" />
<path d="M13.5193 20.4760
L13.3984 20.5364
" />
<path d="M13.3984 20.5364
L13.0960 20.5364
" />
<path d="M13.0960 20.5364
L12.9750 20.4760
" />
<path d="M12.9750 20.4760
L12.9146 20.3550
" />
<path d="M12.9146 20.3550
L12.9146 20.2340
" />
<path d="M12.9146 20.2340
L12.9750 20.1131
" />
<path d="M12.9750 20.1131
L13.0960 20.0526
" />
<path d="M13.0960 20.0526
L13.3984 20.0526
" />
<path d="M13.3984 20.0526
L13.5193 19.9921
" />
<path d="M14.3055 20.5364
L14.1845 20.4760
" />
<path d="M14.1845 20.4760
L14.1240 20.3550
" />
<path d="M14.1240 20.3550
L14.1240 19.2664
" />
<path d="M14.4869 20.6574
L15.4545 20.6574
" />
<path d="M15.5754 19.2664
L15.9987 20.5364
" />
<path d="M15.9987 20.5364
L16.4221 19.2664
" />
<path d="M17.3897 20.5364
L17.3897 19.8712
" />
<path d="M17.3897 19.8712
L17.3292 19.7502
" />
<path d="M17.3292 19.7502
L17.2083 19.6898
" />
<path d="M17.2083 19.6898
L16.9664 19.6898
" />
<path d="M16.9664 19.6898
L16.8454 19.7502
" />
<path d="M17.3897 20.4760
L17.2688 20.5364
" />
<path d="M17.2688 20.5364
L16.9664 20.5364
" />
<path d="M16.9664 20.5364
L16.8454 20.4760
" />
<path d="M16.8454 20.4760
L16.7850 20.3550
" />
<path d="M16.7850 20.3550
L16.7850 20.2340
" />
<path d="M16.7850 20.2340
L16.8454 20.1131
" />
<path d="M16.8454 20.1131
L16.9664 20.0526
" />
<path d="M16.9664 20.0526
L17.2688 20.0526
" />
<path d="M17.2688 20.0526
L17.3897 19.9921
" />
<path d="M18.1759 20.5364
L18.0549 20.4760
" />
<path d="M18.0549 20.4760
L17.9944 20.3550
" />
<path d="M17.9944 20.3550
L17.9944 19.2664
" />
<path d="M18.5387 19.6898
L18.8411 20.5364
" />
<path d="M18.8411 20.5364
L19.1434 19.6898
" />
<path d="M20.1110 20.4760
L19.9901 20.5364
" />
<path d="M19.9901 20.5364
L19.7482 20.5364
" />
<path d="M19.7482 20.5364
L19.6272 20.4760
" />
<path d="M19.6272 20.4760
L19.5668 20.3550
" />
<path d="M19.5668 20.3550
L19.5668 19.8712
" />
<path d="M19.5668 19.8712
L19.6272 19.7502
" />
<path d="M19.6272 19.7502
L19.7482 19.6898
" />
<path d="M19.7482 19.6898
L19.9901 19.6898
" />
<path d="M19.9901 19.6898
L20.1110 19.7502
" />
<path d="M20.1110 19.7502
L20.1715 19.8712
" />
<path d="M20.1715 19.8712
L20.1715 19.9921
" />
<path d="M20.1715 19.9921
L19.5668 20.1131
" />
<path d="M20.8973 20.4155
L20.9577 20.4760
" />
<path d="M20.9577 20.4760
L20.8973 20.5364
" />
<path d="M20.8973 20.5364
L20.8368 20.4760
" />
<path d="M20.8368 20.4760
L20.8973 20.4155
" />
<path d="M20.8973 20.4155
L20.8973 20.5364
" />
<path d="M20.6554 19.3269
L20.7763 19.2664
" />
<path d="M20.7763 19.2664
L21.0787 19.2664
" />
<path d="M21.0787 19.2664
L21.1996 19.3269
" />
<path d="M21.1996 19.3269
L21.2601 19.4479
" />
<path d="M21.2601 19.4479
L21.2601 19.5688
" />
<path d="M21.2601 19.5688
L21.1996 19.6898
" />
<path d="M21.1996 19.6898
L21.1392 19.7502
" />
<path d="M21.1392 19.7502
L21.0182 19.8107
" />
<path d="M21.0182 19.8107
L20.9577 19.8712
" />
<path d="M20.9577 19.8712
L20.8973 19.9921
" />
<path d="M20.8973 19.9921
L20.8973 20.0526
" />
</g></g> 
</svg>
