<?xml version="1.0" standalone="no"?>
 <!DOCTYPE svg PUBLIC "-//W3C//DTD SVG 1.1//EN" 
 "http://www.w3.org/Graphics/SVG/1.1/DTD/svg11.dtd"> 
<svg
  xmlns:svg="http://www.w3.org/2000/svg"
  xmlns="http://www.w3.org/2000/svg"
  xmlns:xlink="http://www.w3.org/1999/xlink"
  xmlns:inkscape="http://www.inkscape.org/namespaces/inkscape"
  version="1.1"
  width="28.8544mm" height="22.8854mm" viewBox="0.0000 0.0000 28.8544 22.8854">
<title>SVG Image created as Back Pressure Regulator_unit1.svg date 2026-05-31T11:36:38 </title>
  <desc>Image generated by Eeschema-SVG </desc>
<g style="fill:#000000; fill-opacity:1.0000;stroke:#000000; stroke-opacity:1.0000;
stroke-linecap:round; stroke-linejoin:round;"
 transform="translate(0 0) scale(1 1)">
<path style="fill:none; 
stroke:#840000; stroke-width:0.1524; stroke-opacity:1; 
stroke-linecap:round; stroke-linejoin:round;fill:none"
d="M 9.3472,13.7669
Z" /> 
<path style="fill:none; 
stroke:#840000; stroke-width:0.1524; stroke-opacity:1; 
stroke-linecap:round; stroke-linejoin:round;fill:none"
d="M 9.3472,13.7669
Z" /> 
<path style="fill:none; 
stroke:#840000; stroke-width:0.1524; stroke-opacity:1; 
stroke-linecap:round; stroke-linejoin:round;fill:none"
d="M 10.4272,12.9569
17.4272,12.9569
" /> 
<path style="fill:none; 
stroke:#840000; stroke-width:0.1524; stroke-opacity:1; 
stroke-linecap:round; stroke-linejoin:round;fill:none"
d="M 14.4272,4.2069
Z" /> 
</g>
<g style="fill:none; 
stroke:#840000; stroke-width:0.1000; stroke-opacity:1; 
stroke-linecap:round; stroke-linejoin:round;">
<path d="M14.4272 4.9574 A1.9998 1.9998 0.0 0 0 12.4272 6.9569" />
<path d="M16.4273 6.9569 A2.0003 2.0003 0.0 0 0 14.4272 4.9569" />
<path style="fill:none; 
stroke:#840000; stroke-width:0.1000; stroke-opacity:1; 
stroke-linecap:round; stroke-linejoin:round;fill:none"
d="M 14.4272,6.9569
14.4272,9.9569
" /> 
<path style="fill:none; 
stroke:#840000; stroke-width:0.1000; stroke-opacity:1; 
stroke-linecap:round; stroke-linejoin:round;fill:none"
d="M 14.4272,8.9569
11.4272,6.9569
11.4272,3.9569
14.4272,3.9569
14.4272,4.9569
" /> 
<path style="fill:none; 
stroke:#840000; stroke-width:0.1000; stroke-opacity:1; 
stroke-linecap:round; stroke-linejoin:round;fill:none"
d="M 14.4272,9.9569
9.4272,7.9569
9.4272,11.9569
Z" /> 
<path style="fill:none; 
stroke:#840000; stroke-width:0.1000; stroke-opacity:1; 
stroke-linecap:round; stroke-linejoin:round;fill:none"
d="M 14.4272,9.9569
19.4272,7.9569
19.4272,11.9569
Z" /> 
<path style="fill:none; 
stroke:#840000; stroke-width:0.1000; stroke-opacity:1; 
stroke-linecap:round; stroke-linejoin:round;fill:none"
d="M 16.4272,6.9569
12.4272,6.9569
" /> 
<path style="fill:#840000; fill-opacity:1.0000; 
stroke:#840000; stroke-width:0.1000; stroke-opacity:1; 
stroke-linecap:round; stroke-linejoin:round;fill-rule:evenodd;"
d="M 17.4272,12.9569
17.4272,12.7069
18.4272,12.9569
17.4272,13.2069
Z" /> 
</g>
<g style="fill:none; 
stroke:#840000; stroke-width:0.1524; stroke-opacity:1; 
stroke-linecap:round; stroke-linejoin:round;">
<path d="M9.4272 9.9569
L6.4272 9.9569
" />
<path d="M19.4272 9.9569
L22.4272 9.9569
" />
</g>
<g style="fill:none; 
stroke:#006464; stroke-width:0.1524; stroke-opacity:1; 
stroke-linecap:round; stroke-linejoin:round;">
<text x="14.4272" y="20.5919"
textLength="25.1192" font-size="1.6933" lengthAdjust="spacingAndGlyphs"
text-anchor="middle" opacity="0" stroke-opacity="0">Back_Pressure_Regulator?</text>
<g class="stroked-text"><desc>Back_Pressure_Regulator?</desc>
<path d="M2.6949 19.8712
L2.8763 19.9317
" />
<path d="M2.8763 19.9317
L2.9368 19.9921
" />
<path d="M2.9368 19.9921
L2.9972 20.1131
" />
<path d="M2.9972 20.1131
L2.9972 20.2945
" />
<path d="M2.9972 20.2945
L2.9368 20.4155
" />
<path d="M2.9368 20.4155
L2.8763 20.4760
" />
<path d="M2.8763 20.4760
L2.7553 20.5364
" />
<path d="M2.7553 20.5364
L2.2715 20.5364
" />
<path d="M2.2715 20.5364
L2.2715 19.2664
" />
<path d="M2.2715 19.2664
L2.6949 19.2664
" />
<path d="M2.6949 19.2664
L2.8158 19.3269
" />
<path d="M2.8158 19.3269
L2.8763 19.3874
" />
<path d="M2.8763 19.3874
L2.9368 19.5083
" />
<path d="M2.9368 19.5083
L2.9368 19.6293
" />
<path d="M2.9368 19.6293
L2.8763 19.7502
" />
<path d="M2.8763 19.7502
L2.8158 19.8107
" />
<path d="M2.8158 19.8107
L2.6949 19.8712
" />
<path d="M2.6949 19.8712
L2.2715 19.8712
" />
<path d="M4.0858 20.5364
L4.0858 19.8712
" />
<path d="M4.0858 19.8712
L4.0253 19.7502
" />
<path d="M4.0253 19.7502
L3.9044 19.6898
" />
<path d="M3.9044 19.6898
L3.6625 19.6898
" />
<path d="M3.6625 19.6898
L3.5415 19.7502
" />
<path d="M4.0858 20.4760
L3.9649 20.5364
" />
<path d="M3.9649 20.5364
L3.6625 20.5364
" />
<path d="M3.6625 20.5364
L3.5415 20.4760
" />
<path d="M3.5415 20.4760
L3.4811 20.3550
" />
<path d="M3.4811 20.3550
L3.4811 20.2340
" />
<path d="M3.4811 20.2340
L3.5415 20.1131
" />
<path d="M3.5415 20.1131
L3.6625 20.0526
" />
<path d="M3.6625 20.0526
L3.9649 20.0526
" />
<path d="M3.9649 20.0526
L4.0858 19.9921
" />
<path d="M5.2348 20.4760
L5.1139 20.5364
" />
<path d="M5.1139 20.5364
L4.8720 20.5364
" />
<path d="M4.8720 20.5364
L4.7510 20.4760
" />
<path d="M4.7510 20.4760
L4.6905 20.4155
" />
<path d="M4.6905 20.4155
L4.6301 20.2945
" />
<path d="M4.6301 20.2945
L4.6301 19.9317
" />
<path d="M4.6301 19.9317
L4.6905 19.8107
" />
<path d="M4.6905 19.8107
L4.7510 19.7502
" />
<path d="M4.7510 19.7502
L4.8720 19.6898
" />
<path d="M4.8720 19.6898
L5.1139 19.6898
" />
<path d="M5.1139 19.6898
L5.2348 19.7502
" />
<path d="M5.7791 20.5364
L5.7791 19.2664
" />
<path d="M5.9001 20.0526
L6.2629 20.5364
" />
<path d="M6.2629 19.6898
L5.7791 20.1736
" />
<path d="M6.5049 20.6574
L7.4725 20.6574
" />
<path d="M7.7748 20.5364
L7.7748 19.2664
" />
<path d="M7.7748 19.2664
L8.2586 19.2664
" />
<path d="M8.2586 19.2664
L8.3796 19.3269
" />
<path d="M8.3796 19.3269
L8.4401 19.3874
" />
<path d="M8.4401 19.3874
L8.5005 19.5083
" />
<path d="M8.5005 19.5083
L8.5005 19.6898
" />
<path d="M8.5005 19.6898
L8.4401 19.8107
" />
<path d="M8.4401 19.8107
L8.3796 19.8712
" />
<path d="M8.3796 19.8712
L8.2586 19.9317
" />
<path d="M8.2586 19.9317
L7.7748 19.9317
" />
<path d="M9.0448 20.5364
L9.0448 19.6898
" />
<path d="M9.0448 19.9317
L9.1053 19.8107
" />
<path d="M9.1053 19.8107
L9.1658 19.7502
" />
<path d="M9.1658 19.7502
L9.2867 19.6898
" />
<path d="M9.2867 19.6898
L9.4077 19.6898
" />
<path d="M10.3148 20.4760
L10.1939 20.5364
" />
<path d="M10.1939 20.5364
L9.9520 20.5364
" />
<path d="M9.9520 20.5364
L9.8310 20.4760
" />
<path d="M9.8310 20.4760
L9.7706 20.3550
" />
<path d="M9.7706 20.3550
L9.7706 19.8712
" />
<path d="M9.7706 19.8712
L9.8310 19.7502
" />
<path d="M9.8310 19.7502
L9.9520 19.6898
" />
<path d="M9.9520 19.6898
L10.1939 19.6898
" />
<path d="M10.1939 19.6898
L10.3148 19.7502
" />
<path d="M10.3148 19.7502
L10.3753 19.8712
" />
<path d="M10.3753 19.8712
L10.3753 19.9921
" />
<path d="M10.3753 19.9921
L9.7706 20.1131
" />
<path d="M10.8592 20.4760
L10.9801 20.5364
" />
<path d="M10.9801 20.5364
L11.2220 20.5364
" />
<path d="M11.2220 20.5364
L11.3430 20.4760
" />
<path d="M11.3430 20.4760
L11.4034 20.3550
" />
<path d="M11.4034 20.3550
L11.4034 20.2945
" />
<path d="M11.4034 20.2945
L11.3430 20.1736
" />
<path d="M11.3430 20.1736
L11.2220 20.1131
" />
<path d="M11.2220 20.1131
L11.0406 20.1131
" />
<path d="M11.0406 20.1131
L10.9196 20.0526
" />
<path d="M10.9196 20.0526
L10.8592 19.9317
" />
<path d="M10.8592 19.9317
L10.8592 19.8712
" />
<path d="M10.8592 19.8712
L10.9196 19.7502
" />
<path d="M10.9196 19.7502
L11.0406 19.6898
" />
<path d="M11.0406 19.6898
L11.2220 19.6898
" />
<path d="M11.2220 19.6898
L11.3430 19.7502
" />
<path d="M11.8873 20.4760
L12.0082 20.5364
" />
<path d="M12.0082 20.5364
L12.2501 20.5364
" />
<path d="M12.2501 20.5364
L12.3711 20.4760
" />
<path d="M12.3711 20.4760
L12.4315 20.3550
" />
<path d="M12.4315 20.3550
L12.4315 20.2945
" />
<path d="M12.4315 20.2945
L12.3711 20.1736
" />
<path d="M12.3711 20.1736
L12.2501 20.1131
" />
<path d="M12.2501 20.1131
L12.0687 20.1131
" />
<path d="M12.0687 20.1131
L11.9477 20.0526
" />
<path d="M11.9477 20.0526
L11.8873 19.9317
" />
<path d="M11.8873 19.9317
L11.8873 19.8712
" />
<path d="M11.8873 19.8712
L11.9477 19.7502
" />
<path d="M11.9477 19.7502
L12.0687 19.6898
" />
<path d="M12.0687 19.6898
L12.2501 19.6898
" />
<path d="M12.2501 19.6898
L12.3711 19.7502
" />
<path d="M13.5201 19.6898
L13.5201 20.5364
" />
<path d="M12.9758 19.6898
L12.9758 20.3550
" />
<path d="M12.9758 20.3550
L13.0363 20.4760
" />
<path d="M13.0363 20.4760
L13.1573 20.5364
" />
<path d="M13.1573 20.5364
L13.3387 20.5364
" />
<path d="M13.3387 20.5364
L13.4596 20.4760
" />
<path d="M13.4596 20.4760
L13.5201 20.4155
" />
<path d="M14.1248 20.5364
L14.1248 19.6898
" />
<path d="M14.1248 19.9317
L14.1853 19.8107
" />
<path d="M14.1853 19.8107
L14.2458 19.7502
" />
<path d="M14.2458 19.7502
L14.3667 19.6898
" />
<path d="M14.3667 19.6898
L14.4877 19.6898
" />
<path d="M15.3948 20.4760
L15.2739 20.5364
" />
<path d="M15.2739 20.5364
L15.0320 20.5364
" />
<path d="M15.0320 20.5364
L14.9110 20.4760
" />
<path d="M14.9110 20.4760
L14.8506 20.3550
" />
<path d="M14.8506 20.3550
L14.8506 19.8712
" />
<path d="M14.8506 19.8712
L14.9110 19.7502
" />
<path d="M14.9110 19.7502
L15.0320 19.6898
" />
<path d="M15.0320 19.6898
L15.2739 19.6898
" />
<path d="M15.2739 19.6898
L15.3948 19.7502
" />
<path d="M15.3948 19.7502
L15.4553 19.8712
" />
<path d="M15.4553 19.8712
L15.4553 19.9921
" />
<path d="M15.4553 19.9921
L14.8506 20.1131
" />
<path d="M15.6973 20.6574
L16.6649 20.6574
" />
<path d="M17.6929 20.5364
L17.2696 19.9317
" />
<path d="M16.9672 20.5364
L16.9672 19.2664
" />
<path d="M16.9672 19.2664
L17.4510 19.2664
" />
<path d="M17.4510 19.2664
L17.5720 19.3269
" />
<path d="M17.5720 19.3269
L17.6325 19.3874
" />
<path d="M17.6325 19.3874
L17.6929 19.5083
" />
<path d="M17.6929 19.5083
L17.6929 19.6898
" />
<path d="M17.6929 19.6898
L17.6325 19.8107
" />
<path d="M17.6325 19.8107
L17.5720 19.8712
" />
<path d="M17.5720 19.8712
L17.4510 19.9317
" />
<path d="M17.4510 19.9317
L16.9672 19.9317
" />
<path d="M18.7210 20.4760
L18.6001 20.5364
" />
<path d="M18.6001 20.5364
L18.3582 20.5364
" />
<path d="M18.3582 20.5364
L18.2372 20.4760
" />
<path d="M18.2372 20.4760
L18.1768 20.3550
" />
<path d="M18.1768 20.3550
L18.1768 19.8712
" />
<path d="M18.1768 19.8712
L18.2372 19.7502
" />
<path d="M18.2372 19.7502
L18.3582 19.6898
" />
<path d="M18.3582 19.6898
L18.6001 19.6898
" />
<path d="M18.6001 19.6898
L18.7210 19.7502
" />
<path d="M18.7210 19.7502
L18.7815 19.8712
" />
<path d="M18.7815 19.8712
L18.7815 19.9921
" />
<path d="M18.7815 19.9921
L18.1768 20.1131
" />
<path d="M19.8701 19.6898
L19.8701 20.7179
" />
<path d="M19.8701 20.7179
L19.8096 20.8388
" />
<path d="M19.8096 20.8388
L19.7492 20.8993
" />
<path d="M19.7492 20.8993
L19.6282 20.9598
" />
<path d="M19.6282 20.9598
L19.4468 20.9598
" />
<path d="M19.4468 20.9598
L19.3258 20.8993
" />
<path d="M19.8701 20.4760
L19.7492 20.5364
" />
<path d="M19.7492 20.5364
L19.5073 20.5364
" />
<path d="M19.5073 20.5364
L19.3863 20.4760
" />
<path d="M19.3863 20.4760
L19.3258 20.4155
" />
<path d="M19.3258 20.4155
L19.2654 20.2945
" />
<path d="M19.2654 20.2945
L19.2654 19.9317
" />
<path d="M19.2654 19.9317
L19.3258 19.8107
" />
<path d="M19.3258 19.8107
L19.3863 19.7502
" />
<path d="M19.3863 19.7502
L19.5073 19.6898
" />
<path d="M19.5073 19.6898
L19.7492 19.6898
" />
<path d="M19.7492 19.6898
L19.8701 19.7502
" />
<path d="M21.0191 19.6898
L21.0191 20.5364
" />
<path d="M20.4748 19.6898
L20.4748 20.3550
" />
<path d="M20.4748 20.3550
L20.5353 20.4760
" />
<path d="M20.5353 20.4760
L20.6563 20.5364
" />
<path d="M20.6563 20.5364
L20.8377 20.5364
" />
<path d="M20.8377 20.5364
L20.9586 20.4760
" />
<path d="M20.9586 20.4760
L21.0191 20.4155
" />
<path d="M21.8053 20.5364
L21.6843 20.4760
" />
<path d="M21.6843 20.4760
L21.6238 20.3550
" />
<path d="M21.6238 20.3550
L21.6238 19.2664
" />
<path d="M22.8333 20.5364
L22.8333 19.8712
" />
<path d="M22.8333 19.8712
L22.7728 19.7502
" />
<path d="M22.7728 19.7502
L22.6519 19.6898
" />
<path d="M22.6519 19.6898
L22.4100 19.6898
" />
<path d="M22.4100 19.6898
L22.2890 19.7502
" />
<path d="M22.8333 20.4760
L22.7124 20.5364
" />
<path d="M22.7124 20.5364
L22.4100 20.5364
" />
<path d="M22.4100 20.5364
L22.2890 20.4760
" />
<path d="M22.2890 20.4760
L22.2286 20.3550
" />
<path d="M22.2286 20.3550
L22.2286 20.2340
" />
<path d="M22.2286 20.2340
L22.2890 20.1131
" />
<path d="M22.2890 20.1131
L22.4100 20.0526
" />
<path d="M22.4100 20.0526
L22.7124 20.0526
" />
<path d="M22.7124 20.0526
L22.8333 19.9921
" />
<path d="M23.2566 19.6898
L23.7404 19.6898
" />
<path d="M23.4380 19.2664
L23.4380 20.3550
" />
<path d="M23.4380 20.3550
L23.4985 20.4760
" />
<path d="M23.4985 20.4760
L23.6195 20.5364
" />
<path d="M23.6195 20.5364
L23.7404 20.5364
" />
<path d="M24.3452 20.5364
L24.2242 20.4760
" />
<path d="M24.2242 20.4760
L24.1637 20.4155
" />
<path d="M24.1637 20.4155
L24.1033 20.2945
" />
<path d="M24.1033 20.2945
L24.1033 19.9317
" />
<path d="M24.1033 19.9317
L24.1637 19.8107
" />
<path d="M24.1637 19.8107
L24.2242 19.7502
" />
<path d="M24.2242 19.7502
L24.3452 19.6898
" />
<path d="M24.3452 19.6898
L24.5266 19.6898
" />
<path d="M24.5266 19.6898
L24.6475 19.7502
" />
<path d="M24.6475 19.7502
L24.7080 19.8107
" />
<path d="M24.7080 19.8107
L24.7685 19.9317
" />
<path d="M24.7685 19.9317
L24.7685 20.2945
" />
<path d="M24.7685 20.2945
L24.7080 20.4155
" />
<path d="M24.7080 20.4155
L24.6475 20.4760
" />
<path d="M24.6475 20.4760
L24.5266 20.5364
" />
<path d="M24.5266 20.5364
L24.3452 20.5364
" />
<path d="M25.3127 20.5364
L25.3127 19.6898
" />
<path d="M25.3127 19.9317
L25.3732 19.8107
" />
<path d="M25.3732 19.8107
L25.4337 19.7502
" />
<path d="M25.4337 19.7502
L25.5546 19.6898
" />
<path d="M25.5546 19.6898
L25.6756 19.6898
" />
<path d="M26.2804 20.4155
L26.3408 20.4760
" />
<path d="M26.3408 20.4760
L26.2804 20.5364
" />
<path d="M26.2804 20.5364
L26.2199 20.4760
" />
<path d="M26.2199 20.4760
L26.2804 20.4155
" />
<path d="M26.2804 20.4155
L26.2804 20.5364
" />
<path d="M26.0385 19.3269
L26.1594 19.2664
" />
<path d="M26.1594 19.2664
L26.4618 19.2664
" />
<path d="M26.4618 19.2664
L26.5827 19.3269
" />
<path d="M26.5827 19.3269
L26.6432 19.4479
" />
<path d="M26.6432 19.4479
L26.6432 19.5688
" />
<path d="M26.6432 19.5688
L26.5827 19.6898
" />
<path d="M26.5827 19.6898
L26.5223 19.7502
" />
<path d="M26.5223 19.7502
L26.4013 19.8107
" />
<path d="M26.4013 19.8107
L26.3408 19.8712
" />
<path d="M26.3408 19.8712
L26.2804 19.9921
" />
<path d="M26.2804 19.9921
L26.2804 20.0526
" />
</g></g> 
</svg>
