<?xml version="1.0" standalone="no"?>
 <!DOCTYPE svg PUBLIC "-//W3C//DTD SVG 1.1//EN"
 "http://www.w3.org/Graphics/SVG/1.1/DTD/svg11.dtd">
<svg
  xmlns:svg="http://www.w3.org/2000/svg"
  xmlns="http://www.w3.org/2000/svg"
  xmlns:xlink="http://www.w3.org/1999/xlink"
  xmlns:inkscape="http://www.inkscape.org/namespaces/inkscape"
  version="1.1"
  width="22.2504mm" height="22.8854mm" viewBox="0.0000 0.0000 22.2504 22.8854">
<title>SVG Image created as Pressure Regulator_unit1.svg date 2026-05-31T14:38:14 </title>
  <desc>Image generated by Eeschema-SVG </desc>
<g style="fill:#000000; fill-opacity:1.0000;stroke:#000000; stroke-opacity:1.0000;
stroke-linecap:round; stroke-linejoin:round;"
 transform="translate(0 0) scale(1 1)">
<path style="fill:none;
stroke:#840000; stroke-width:0.1524; stroke-opacity:1;
stroke-linecap:round; stroke-linejoin:round;fill:none"
d="M 6.0452,13.7669
Z" />
<path style="fill:none;
stroke:#840000; stroke-width:0.1524; stroke-opacity:1;
stroke-linecap:round; stroke-linejoin:round;fill:none"
d="M 6.0452,13.7669
Z" />
<path style="fill:none;
stroke:#840000; stroke-width:0.1524; stroke-opacity:1;
stroke-linecap:round; stroke-linejoin:round;fill:none"
d="M 7.1252,12.9569
14.1252,12.9569
" />
<path style="fill:none;
stroke:#840000; stroke-width:0.1524; stroke-opacity:1;
stroke-linecap:round; stroke-linejoin:round;fill:none"
d="M 11.1252,4.2069
Z" />
<path style="fill:#840000; fill-opacity:1.0000;
stroke:#840000; stroke-width:0.1000; stroke-opacity:1;
stroke-linecap:round; stroke-linejoin:round;fill-rule:evenodd;"
d="M 5.1252,9.9569
5.1252,9.7069
6.1252,9.9569
5.1252,10.2069
Z" />
</g>
<g style="fill:none;
stroke:#840000; stroke-width:0.1000; stroke-opacity:1;
stroke-linecap:round; stroke-linejoin:round;">
<path d="M11.1252 4.9574 A1.9998 1.9998 0.0 0 0 9.1252 6.9569" />
<path d="M13.1253 6.9569 A2.0003 2.0003 0.0 0 0 11.1252 4.9569" />
<path style="fill:none;
stroke:#840000; stroke-width:0.1000; stroke-opacity:1;
stroke-linecap:round; stroke-linejoin:round;fill:none"
d="M 11.1252,6.9569
11.1252,9.9569
" />
<path style="fill:none;
stroke:#840000; stroke-width:0.1000; stroke-opacity:1;
stroke-linecap:round; stroke-linejoin:round;fill:none"
d="M 11.1252,8.9569
14.1252,6.9569
14.1252,3.9569
11.1252,3.9569
11.1252,4.9569
" />
<path style="fill:none;
stroke:#840000; stroke-width:0.1000; stroke-opacity:1;
stroke-linecap:round; stroke-linejoin:round;fill:none"
d="M 11.1252,9.9569
6.1252,7.9569
6.1252,11.9569
Z" />
<path style="fill:none;
stroke:#840000; stroke-width:0.1000; stroke-opacity:1;
stroke-linecap:round; stroke-linejoin:round;fill:none"
d="M 11.1252,9.9569
16.1252,7.9569
16.1252,11.9569
Z" />
<path style="fill:none;
stroke:#840000; stroke-width:0.1000; stroke-opacity:1;
stroke-linecap:round; stroke-linejoin:round;fill:none"
d="M 13.1252,6.9569
9.1252,6.9569
" />
<path style="fill:#840000; fill-opacity:1.0000;
stroke:#840000; stroke-width:0.1000; stroke-opacity:1;
stroke-linecap:round; stroke-linejoin:round;fill-rule:evenodd;"
d="M 14.1252,12.9569
14.1252,12.7069
15.1252,12.9569
14.1252,13.2069
Z" />
<path style="fill:#840000; fill-opacity:1.0000;
stroke:#840000; stroke-width:0.1000; stroke-opacity:1;
stroke-linecap:round; stroke-linejoin:round;fill-rule:evenodd;"
d="M 17.1252,9.9569
17.1252,9.7069
18.1252,9.9569
17.1252,10.2069
Z" />
</g>
<g style="fill:none;
stroke:#840000; stroke-width:0.1524; stroke-opacity:1;
stroke-linecap:round; stroke-linejoin:round;">
<path d="M6.1252 9.9569
L3.1252 9.9569
" />
<path d="M16.1252 9.9569
L19.1252 9.9569
" />
</g>
<g style="fill:none;
stroke:#006464; stroke-width:0.1524; stroke-opacity:1;
stroke-linecap:round; stroke-linejoin:round;">
<text x="11.1252" y="20.5919"
textLength="19.6159" font-size="1.6933" lengthAdjust="spacingAndGlyphs"
text-anchor="middle" opacity="0" stroke-opacity="0">Pressure_Regulator?</text>
<g class="stroked-text"><desc>Pressure_Regulator?</desc>
<path d="M1.7212 20.5364
L1.7212 19.2664
" />
<path d="M1.7212 19.2664
L2.2050 19.2664
" />
<path d="M2.2050 19.2664
L2.3260 19.3269
" />
<path d="M2.3260 19.3269
L2.3865 19.3874
" />
<path d="M2.3865 19.3874
L2.4469 19.5083
" />
<path d="M2.4469 19.5083
L2.4469 19.6898
" />
<path d="M2.4469 19.6898
L2.3865 19.8107
" />
<path d="M2.3865 19.8107
L2.3260 19.8712
" />
<path d="M2.3260 19.8712
L2.2050 19.9317
" />
<path d="M2.2050 19.9317
L1.7212 19.9317
" />
<path d="M2.9912 20.5364
L2.9912 19.6898
" />
<path d="M2.9912 19.9317
L3.0517 19.8107
" />
<path d="M3.0517 19.8107
L3.1122 19.7502
" />
<path d="M3.1122 19.7502
L3.2331 19.6898
" />
<path d="M3.2331 19.6898
L3.3541 19.6898
" />
<path d="M4.2612 20.4760
L4.1403 20.5364
" />
<path d="M4.1403 20.5364
L3.8984 20.5364
" />
<path d="M3.8984 20.5364
L3.7774 20.4760
" />
<path d="M3.7774 20.4760
L3.7170 20.3550
" />
<path d="M3.7170 20.3550
L3.7170 19.8712
" />
<path d="M3.7170 19.8712
L3.7774 19.7502
" />
<path d="M3.7774 19.7502
L3.8984 19.6898
" />
<path d="M3.8984 19.6898
L4.1403 19.6898
" />
<path d="M4.1403 19.6898
L4.2612 19.7502
" />
<path d="M4.2612 19.7502
L4.3217 19.8712
" />
<path d="M4.3217 19.8712
L4.3217 19.9921
" />
<path d="M4.3217 19.9921
L3.7170 20.1131
" />
<path d="M4.8056 20.4760
L4.9265 20.5364
" />
<path d="M4.9265 20.5364
L5.1684 20.5364
" />
<path d="M5.1684 20.5364
L5.2894 20.4760
" />
<path d="M5.2894 20.4760
L5.3498 20.3550
" />
<path d="M5.3498 20.3550
L5.3498 20.2945
" />
<path d="M5.3498 20.2945
L5.2894 20.1736
" />
<path d="M5.2894 20.1736
L5.1684 20.1131
" />
<path d="M5.1684 20.1131
L4.9870 20.1131
" />
<path d="M4.9870 20.1131
L4.8660 20.0526
" />
<path d="M4.8660 20.0526
L4.8056 19.9317
" />
<path d="M4.8056 19.9317
L4.8056 19.8712
" />
<path d="M4.8056 19.8712
L4.8660 19.7502
" />
<path d="M4.8660 19.7502
L4.9870 19.6898
" />
<path d="M4.9870 19.6898
L5.1684 19.6898
" />
<path d="M5.1684 19.6898
L5.2894 19.7502
" />
<path d="M5.8337 20.4760
L5.9546 20.5364
" />
<path d="M5.9546 20.5364
L6.1965 20.5364
" />
<path d="M6.1965 20.5364
L6.3175 20.4760
" />
<path d="M6.3175 20.4760
L6.3779 20.3550
" />
<path d="M6.3779 20.3550
L6.3779 20.2945
" />
<path d="M6.3779 20.2945
L6.3175 20.1736
" />
<path d="M6.3175 20.1736
L6.1965 20.1131
" />
<path d="M6.1965 20.1131
L6.0151 20.1131
" />
<path d="M6.0151 20.1131
L5.8941 20.0526
" />
<path d="M5.8941 20.0526
L5.8337 19.9317
" />
<path d="M5.8337 19.9317
L5.8337 19.8712
" />
<path d="M5.8337 19.8712
L5.8941 19.7502
" />
<path d="M5.8941 19.7502
L6.0151 19.6898
" />
<path d="M6.0151 19.6898
L6.1965 19.6898
" />
<path d="M6.1965 19.6898
L6.3175 19.7502
" />
<path d="M7.4665 19.6898
L7.4665 20.5364
" />
<path d="M6.9222 19.6898
L6.9222 20.3550
" />
<path d="M6.9222 20.3550
L6.9827 20.4760
" />
<path d="M6.9827 20.4760
L7.1037 20.5364
" />
<path d="M7.1037 20.5364
L7.2851 20.5364
" />
<path d="M7.2851 20.5364
L7.4060 20.4760
" />
<path d="M7.4060 20.4760
L7.4665 20.4155
" />
<path d="M8.0712 20.5364
L8.0712 19.6898
" />
<path d="M8.0712 19.9317
L8.1317 19.8107
" />
<path d="M8.1317 19.8107
L8.1922 19.7502
" />
<path d="M8.1922 19.7502
L8.3131 19.6898
" />
<path d="M8.3131 19.6898
L8.4341 19.6898
" />
<path d="M9.3412 20.4760
L9.2203 20.5364
" />
<path d="M9.2203 20.5364
L8.9784 20.5364
" />
<path d="M8.9784 20.5364
L8.8574 20.4760
" />
<path d="M8.8574 20.4760
L8.7970 20.3550
" />
<path d="M8.7970 20.3550
L8.7970 19.8712
" />
<path d="M8.7970 19.8712
L8.8574 19.7502
" />
<path d="M8.8574 19.7502
L8.9784 19.6898
" />
<path d="M8.9784 19.6898
L9.2203 19.6898
" />
<path d="M9.2203 19.6898
L9.3412 19.7502
" />
<path d="M9.3412 19.7502
L9.4017 19.8712
" />
<path d="M9.4017 19.8712
L9.4017 19.9921
" />
<path d="M9.4017 19.9921
L8.7970 20.1131
" />
<path d="M9.6437 20.6574
L10.6113 20.6574
" />
<path d="M11.6393 20.5364
L11.2160 19.9317
" />
<path d="M10.9136 20.5364
L10.9136 19.2664
" />
<path d="M10.9136 19.2664
L11.3974 19.2664
" />
<path d="M11.3974 19.2664
L11.5184 19.3269
" />
<path d="M11.5184 19.3269
L11.5789 19.3874
" />
<path d="M11.5789 19.3874
L11.6393 19.5083
" />
<path d="M11.6393 19.5083
L11.6393 19.6898
" />
<path d="M11.6393 19.6898
L11.5789 19.8107
" />
<path d="M11.5789 19.8107
L11.5184 19.8712
" />
<path d="M11.5184 19.8712
L11.3974 19.9317
" />
<path d="M11.3974 19.9317
L10.9136 19.9317
" />
<path d="M12.6674 20.4760
L12.5465 20.5364
" />
<path d="M12.5465 20.5364
L12.3046 20.5364
" />
<path d="M12.3046 20.5364
L12.1836 20.4760
" />
<path d="M12.1836 20.4760
L12.1232 20.3550
" />
<path d="M12.1232 20.3550
L12.1232 19.8712
" />
<path d="M12.1232 19.8712
L12.1836 19.7502
" />
<path d="M12.1836 19.7502
L12.3046 19.6898
" />
<path d="M12.3046 19.6898
L12.5465 19.6898
" />
<path d="M12.5465 19.6898
L12.6674 19.7502
" />
<path d="M12.6674 19.7502
L12.7279 19.8712
" />
<path d="M12.7279 19.8712
L12.7279 19.9921
" />
<path d="M12.7279 19.9921
L12.1232 20.1131
" />
<path d="M13.8165 19.6898
L13.8165 20.7179
" />
<path d="M13.8165 20.7179
L13.7560 20.8388
" />
<path d="M13.7560 20.8388
L13.6956 20.8993
" />
<path d="M13.6956 20.8993
L13.5746 20.9598
" />
<path d="M13.5746 20.9598
L13.3932 20.9598
" />
<path d="M13.3932 20.9598
L13.2722 20.8993
" />
<path d="M13.8165 20.4760
L13.6956 20.5364
" />
<path d="M13.6956 20.5364
L13.4537 20.5364
" />
<path d="M13.4537 20.5364
L13.3327 20.4760
" />
<path d="M13.3327 20.4760
L13.2722 20.4155
" />
<path d="M13.2722 20.4155
L13.2118 20.2945
" />
<path d="M13.2118 20.2945
L13.2118 19.9317
" />
<path d="M13.2118 19.9317
L13.2722 19.8107
" />
<path d="M13.2722 19.8107
L13.3327 19.7502
" />
<path d="M13.3327 19.7502
L13.4537 19.6898
" />
<path d="M13.4537 19.6898
L13.6956 19.6898
" />
<path d="M13.6956 19.6898
L13.8165 19.7502
" />
<path d="M14.9655 19.6898
L14.9655 20.5364
" />
<path d="M14.4212 19.6898
L14.4212 20.3550
" />
<path d="M14.4212 20.3550
L14.4817 20.4760
" />
<path d="M14.4817 20.4760
L14.6027 20.5364
" />
<path d="M14.6027 20.5364
L14.7841 20.5364
" />
<path d="M14.7841 20.5364
L14.9050 20.4760
" />
<path d="M14.9050 20.4760
L14.9655 20.4155
" />
<path d="M15.7517 20.5364
L15.6307 20.4760
" />
<path d="M15.6307 20.4760
L15.5702 20.3550
" />
<path d="M15.5702 20.3550
L15.5702 19.2664
" />
<path d="M16.7797 20.5364
L16.7797 19.8712
" />
<path d="M16.7797 19.8712
L16.7192 19.7502
" />
<path d="M16.7192 19.7502
L16.5983 19.6898
" />
<path d="M16.5983 19.6898
L16.3564 19.6898
" />
<path d="M16.3564 19.6898
L16.2354 19.7502
" />
<path d="M16.7797 20.4760
L16.6588 20.5364
" />
<path d="M16.6588 20.5364
L16.3564 20.5364
" />
<path d="M16.3564 20.5364
L16.2354 20.4760
" />
<path d="M16.2354 20.4760
L16.1750 20.3550
" />
<path d="M16.1750 20.3550
L16.1750 20.2340
" />
<path d="M16.1750 20.2340
L16.2354 20.1131
" />
<path d="M16.2354 20.1131
L16.3564 20.0526
" />
<path d="M16.3564 20.0526
L16.6588 20.0526
" />
<path d="M16.6588 20.0526
L16.7797 19.9921
" />
<path d="M17.2030 19.6898
L17.6868 19.6898
" />
<path d="M17.3844 19.2664
L17.3844 20.3550
" />
<path d="M17.3844 20.3550
L17.4449 20.4760
" />
<path d="M17.4449 20.4760
L17.5659 20.5364
" />
<path d="M17.5659 20.5364
L17.6868 20.5364
" />
<path d="M18.2916 20.5364
L18.1706 20.4760
" />
<path d="M18.1706 20.4760
L18.1101 20.4155
" />
<path d="M18.1101 20.4155
L18.0497 20.2945
" />
<path d="M18.0497 20.2945
L18.0497 19.9317
" />
<path d="M18.0497 19.9317
L18.1101 19.8107
" />
<path d="M18.1101 19.8107
L18.1706 19.7502
" />
<path d="M18.1706 19.7502
L18.2916 19.6898
" />
<path d="M18.2916 19.6898
L18.4730 19.6898
" />
<path d="M18.4730 19.6898
L18.5939 19.7502
" />
<path d="M18.5939 19.7502
L18.6544 19.8107
" />
<path d="M18.6544 19.8107
L18.7149 19.9317
" />
<path d="M18.7149 19.9317
L18.7149 20.2945
" />
<path d="M18.7149 20.2945
L18.6544 20.4155
" />
<path d="M18.6544 20.4155
L18.5939 20.4760
" />
<path d="M18.5939 20.4760
L18.4730 20.5364
" />
<path d="M18.4730 20.5364
L18.2916 20.5364
" />
<path d="M19.2591 20.5364
L19.2591 19.6898
" />
<path d="M19.2591 19.9317
L19.3196 19.8107
" />
<path d="M19.3196 19.8107
L19.3801 19.7502
" />
<path d="M19.3801 19.7502
L19.5010 19.6898
" />
<path d="M19.5010 19.6898
L19.6220 19.6898
" />
<path d="M20.2268 20.4155
L20.2872 20.4760
" />
<path d="M20.2872 20.4760
L20.2268 20.5364
" />
<path d="M20.2268 20.5364
L20.1663 20.4760
" />
<path d="M20.1663 20.4760
L20.2268 20.4155
" />
<path d="M20.2268 20.4155
L20.2268 20.5364
" />
<path d="M19.9849 19.3269
L20.1058 19.2664
" />
<path d="M20.1058 19.2664
L20.4082 19.2664
" />
<path d="M20.4082 19.2664
L20.5291 19.3269
" />
<path d="M20.5291 19.3269
L20.5896 19.4479
" />
<path d="M20.5896 19.4479
L20.5896 19.5688
" />
<path d="M20.5896 19.5688
L20.5291 19.6898
" />
<path d="M20.5291 19.6898
L20.4687 19.7502
" />
<path d="M20.4687 19.7502
L20.3477 19.8107
" />
<path d="M20.3477 19.8107
L20.2872 19.8712
" />
<path d="M20.2872 19.8712
L20.2268 19.9921
" />
<path d="M20.2268 19.9921
L20.2268 20.0526
" />
</g></g>
</svg>
