<!-- Copyright 2026 Kingston University Rocket Engineering -->

<?xml version="1.0" standalone="no"?>
 <!DOCTYPE svg PUBLIC "-//W3C//DTD SVG 1.1//EN"
 "http://www.w3.org/Graphics/SVG/1.1/DTD/svg11.dtd">
<svg
  xmlns:svg="http://www.w3.org/2000/svg"
  xmlns="http://www.w3.org/2000/svg"
  xmlns:xlink="http://www.w3.org/1999/xlink"
  xmlns:inkscape="http://www.inkscape.org/namespaces/inkscape"
  version="1.1"
  width="42.7990mm" height="22.8854mm" viewBox="0.0000 0.0000 42.7990 22.8854">
<title>SVG Image created as Quick Disconnect - Destination Sealed_unit1.svg date 2026-05-31T11:36:37 </title>
  <desc>Image generated by Eeschema-SVG </desc>
<g style="fill:#000000; fill-opacity:1.0000;stroke:#000000; stroke-opacity:1.0000;
stroke-linecap:round; stroke-linejoin:round;"
 transform="translate(0 0) scale(1 1)">
</g>
<g style="fill:none;
stroke:#840000; stroke-width:0.1524; stroke-opacity:1;
stroke-linecap:round; stroke-linejoin:round;">
<rect x="16.399500" y="7.956900" width="10.000000" height="4.000000" rx="0.000000" />
<path style="fill:none;
stroke:#840000; stroke-width:0.1524; stroke-opacity:1;
stroke-linecap:round; stroke-linejoin:round;fill:none"
d="M 16.3995,9.9569
26.3995,9.9569
" />
<path style="fill:none;
stroke:#840000; stroke-width:0.1524; stroke-opacity:1;
stroke-linecap:round; stroke-linejoin:round;fill:none"
d="M 19.3995,9.9569
17.3995,7.9569
" />
<path style="fill:none;
stroke:#840000; stroke-width:0.1524; stroke-opacity:1;
stroke-linecap:round; stroke-linejoin:round;fill:none"
d="M 19.3995,9.9569
17.3995,11.9569
" />
<path style="fill:none;
stroke:#840000; stroke-width:0.1524; stroke-opacity:1;
stroke-linecap:round; stroke-linejoin:round;fill:none"
d="M 21.3995,8.9569
21.3995,10.9569
" />
<path style="fill:none;
stroke:#840000; stroke-width:0.1524; stroke-opacity:1;
stroke-linecap:round; stroke-linejoin:round;fill:none"
d="M 23.3995,9.9569
25.3995,7.9569
" />
<path style="fill:none;
stroke:#840000; stroke-width:0.1524; stroke-opacity:1;
stroke-linecap:round; stroke-linejoin:round;fill:none"
d="M 23.3995,9.9569
25.3995,11.9569
" />
<circle cx="24.8995" cy="9.9569" r="1.0000" />
<path d="M16.3995 9.9569
L13.3995 9.9569
" />
<path d="M26.3995 9.9569
L29.3995 9.9569
" />
</g>
<g style="fill:none;
stroke:#006464; stroke-width:0.1524; stroke-opacity:1;
stroke-linecap:round; stroke-linejoin:round;">
<text x="21.3995" y="20.5919"
textLength="36.7306" font-size="1.6933" lengthAdjust="spacingAndGlyphs"
text-anchor="middle" opacity="0" stroke-opacity="0">Quick_Disconnect_Destination_Sealed?</text>
<g class="stroked-text"><desc>Quick_Disconnect_Destination_Sealed?</desc>
<path d="M4.2848 20.6574
L4.1638 20.5969
" />
<path d="M4.1638 20.5969
L4.0429 20.4760
" />
<path d="M4.0429 20.4760
L3.8615 20.2945
" />
<path d="M3.8615 20.2945
L3.7405 20.2340
" />
<path d="M3.7405 20.2340
L3.6196 20.2340
" />
<path d="M3.6800 20.5364
L3.5591 20.4760
" />
<path d="M3.5591 20.4760
L3.4381 20.3550
" />
<path d="M3.4381 20.3550
L3.3777 20.1131
" />
<path d="M3.3777 20.1131
L3.3777 19.6898
" />
<path d="M3.3777 19.6898
L3.4381 19.4479
" />
<path d="M3.4381 19.4479
L3.5591 19.3269
" />
<path d="M3.5591 19.3269
L3.6800 19.2664
" />
<path d="M3.6800 19.2664
L3.9219 19.2664
" />
<path d="M3.9219 19.2664
L4.0429 19.3269
" />
<path d="M4.0429 19.3269
L4.1638 19.4479
" />
<path d="M4.1638 19.4479
L4.2243 19.6898
" />
<path d="M4.2243 19.6898
L4.2243 20.1131
" />
<path d="M4.2243 20.1131
L4.1638 20.3550
" />
<path d="M4.1638 20.3550
L4.0429 20.4760
" />
<path d="M4.0429 20.4760
L3.9219 20.5364
" />
<path d="M3.9219 20.5364
L3.6800 20.5364
" />
<path d="M5.3129 19.6898
L5.3129 20.5364
" />
<path d="M4.7686 19.6898
L4.7686 20.3550
" />
<path d="M4.7686 20.3550
L4.8291 20.4760
" />
<path d="M4.8291 20.4760
L4.9501 20.5364
" />
<path d="M4.9501 20.5364
L5.1315 20.5364
" />
<path d="M5.1315 20.5364
L5.2524 20.4760
" />
<path d="M5.2524 20.4760
L5.3129 20.4155
" />
<path d="M5.9176 20.5364
L5.9176 19.6898
" />
<path d="M5.9176 19.2664
L5.8572 19.3269
" />
<path d="M5.8572 19.3269
L5.9176 19.3874
" />
<path d="M5.9176 19.3874
L5.9781 19.3269
" />
<path d="M5.9781 19.3269
L5.9176 19.2664
" />
<path d="M5.9176 19.2664
L5.9176 19.3874
" />
<path d="M7.0667 20.4760
L6.9458 20.5364
" />
<path d="M6.9458 20.5364
L6.7039 20.5364
" />
<path d="M6.7039 20.5364
L6.5829 20.4760
" />
<path d="M6.5829 20.4760
L6.5224 20.4155
" />
<path d="M6.5224 20.4155
L6.4620 20.2945
" />
<path d="M6.4620 20.2945
L6.4620 19.9317
" />
<path d="M6.4620 19.9317
L6.5224 19.8107
" />
<path d="M6.5224 19.8107
L6.5829 19.7502
" />
<path d="M6.5829 19.7502
L6.7039 19.6898
" />
<path d="M6.7039 19.6898
L6.9458 19.6898
" />
<path d="M6.9458 19.6898
L7.0667 19.7502
" />
<path d="M7.6110 20.5364
L7.6110 19.2664
" />
<path d="M7.7320 20.0526
L8.0948 20.5364
" />
<path d="M8.0948 19.6898
L7.6110 20.1736
" />
<path d="M8.3368 20.6574
L9.3044 20.6574
" />
<path d="M9.6067 20.5364
L9.6067 19.2664
" />
<path d="M9.6067 19.2664
L9.9091 19.2664
" />
<path d="M9.9091 19.2664
L10.0905 19.3269
" />
<path d="M10.0905 19.3269
L10.2115 19.4479
" />
<path d="M10.2115 19.4479
L10.2720 19.5688
" />
<path d="M10.2720 19.5688
L10.3324 19.8107
" />
<path d="M10.3324 19.8107
L10.3324 19.9921
" />
<path d="M10.3324 19.9921
L10.2720 20.2340
" />
<path d="M10.2720 20.2340
L10.2115 20.3550
" />
<path d="M10.2115 20.3550
L10.0905 20.4760
" />
<path d="M10.0905 20.4760
L9.9091 20.5364
" />
<path d="M9.9091 20.5364
L9.6067 20.5364
" />
<path d="M10.8767 20.5364
L10.8767 19.6898
" />
<path d="M10.8767 19.2664
L10.8163 19.3269
" />
<path d="M10.8163 19.3269
L10.8767 19.3874
" />
<path d="M10.8767 19.3874
L10.9372 19.3269
" />
<path d="M10.9372 19.3269
L10.8767 19.2664
" />
<path d="M10.8767 19.2664
L10.8767 19.3874
" />
<path d="M11.4211 20.4760
L11.5420 20.5364
" />
<path d="M11.5420 20.5364
L11.7839 20.5364
" />
<path d="M11.7839 20.5364
L11.9049 20.4760
" />
<path d="M11.9049 20.4760
L11.9653 20.3550
" />
<path d="M11.9653 20.3550
L11.9653 20.2945
" />
<path d="M11.9653 20.2945
L11.9049 20.1736
" />
<path d="M11.9049 20.1736
L11.7839 20.1131
" />
<path d="M11.7839 20.1131
L11.6025 20.1131
" />
<path d="M11.6025 20.1131
L11.4815 20.0526
" />
<path d="M11.4815 20.0526
L11.4211 19.9317
" />
<path d="M11.4211 19.9317
L11.4211 19.8712
" />
<path d="M11.4211 19.8712
L11.4815 19.7502
" />
<path d="M11.4815 19.7502
L11.6025 19.6898
" />
<path d="M11.6025 19.6898
L11.7839 19.6898
" />
<path d="M11.7839 19.6898
L11.9049 19.7502
" />
<path d="M13.0539 20.4760
L12.9330 20.5364
" />
<path d="M12.9330 20.5364
L12.6911 20.5364
" />
<path d="M12.6911 20.5364
L12.5701 20.4760
" />
<path d="M12.5701 20.4760
L12.5096 20.4155
" />
<path d="M12.5096 20.4155
L12.4492 20.2945
" />
<path d="M12.4492 20.2945
L12.4492 19.9317
" />
<path d="M12.4492 19.9317
L12.5096 19.8107
" />
<path d="M12.5096 19.8107
L12.5701 19.7502
" />
<path d="M12.5701 19.7502
L12.6911 19.6898
" />
<path d="M12.6911 19.6898
L12.9330 19.6898
" />
<path d="M12.9330 19.6898
L13.0539 19.7502
" />
<path d="M13.7797 20.5364
L13.6587 20.4760
" />
<path d="M13.6587 20.4760
L13.5982 20.4155
" />
<path d="M13.5982 20.4155
L13.5378 20.2945
" />
<path d="M13.5378 20.2945
L13.5378 19.9317
" />
<path d="M13.5378 19.9317
L13.5982 19.8107
" />
<path d="M13.5982 19.8107
L13.6587 19.7502
" />
<path d="M13.6587 19.7502
L13.7797 19.6898
" />
<path d="M13.7797 19.6898
L13.9611 19.6898
" />
<path d="M13.9611 19.6898
L14.0820 19.7502
" />
<path d="M14.0820 19.7502
L14.1425 19.8107
" />
<path d="M14.1425 19.8107
L14.2030 19.9317
" />
<path d="M14.2030 19.9317
L14.2030 20.2945
" />
<path d="M14.2030 20.2945
L14.1425 20.4155
" />
<path d="M14.1425 20.4155
L14.0820 20.4760
" />
<path d="M14.0820 20.4760
L13.9611 20.5364
" />
<path d="M13.9611 20.5364
L13.7797 20.5364
" />
<path d="M14.7472 19.6898
L14.7472 20.5364
" />
<path d="M14.7472 19.8107
L14.8077 19.7502
" />
<path d="M14.8077 19.7502
L14.9287 19.6898
" />
<path d="M14.9287 19.6898
L15.1101 19.6898
" />
<path d="M15.1101 19.6898
L15.2310 19.7502
" />
<path d="M15.2310 19.7502
L15.2915 19.8712
" />
<path d="M15.2915 19.8712
L15.2915 20.5364
" />
<path d="M15.8962 19.6898
L15.8962 20.5364
" />
<path d="M15.8962 19.8107
L15.9567 19.7502
" />
<path d="M15.9567 19.7502
L16.0777 19.6898
" />
<path d="M16.0777 19.6898
L16.2591 19.6898
" />
<path d="M16.2591 19.6898
L16.3800 19.7502
" />
<path d="M16.3800 19.7502
L16.4405 19.8712
" />
<path d="M16.4405 19.8712
L16.4405 20.5364
" />
<path d="M17.5290 20.4760
L17.4081 20.5364
" />
<path d="M17.4081 20.5364
L17.1662 20.5364
" />
<path d="M17.1662 20.5364
L17.0452 20.4760
" />
<path d="M17.0452 20.4760
L16.9848 20.3550
" />
<path d="M16.9848 20.3550
L16.9848 19.8712
" />
<path d="M16.9848 19.8712
L17.0452 19.7502
" />
<path d="M17.0452 19.7502
L17.1662 19.6898
" />
<path d="M17.1662 19.6898
L17.4081 19.6898
" />
<path d="M17.4081 19.6898
L17.5290 19.7502
" />
<path d="M17.5290 19.7502
L17.5895 19.8712
" />
<path d="M17.5895 19.8712
L17.5895 19.9921
" />
<path d="M17.5895 19.9921
L16.9848 20.1131
" />
<path d="M18.6781 20.4760
L18.5572 20.5364
" />
<path d="M18.5572 20.5364
L18.3153 20.5364
" />
<path d="M18.3153 20.5364
L18.1943 20.4760
" />
<path d="M18.1943 20.4760
L18.1338 20.4155
" />
<path d="M18.1338 20.4155
L18.0734 20.2945
" />
<path d="M18.0734 20.2945
L18.0734 19.9317
" />
<path d="M18.0734 19.9317
L18.1338 19.8107
" />
<path d="M18.1338 19.8107
L18.1943 19.7502
" />
<path d="M18.1943 19.7502
L18.3153 19.6898
" />
<path d="M18.3153 19.6898
L18.5572 19.6898
" />
<path d="M18.5572 19.6898
L18.6781 19.7502
" />
<path d="M19.0410 19.6898
L19.5248 19.6898
" />
<path d="M19.2224 19.2664
L19.2224 20.3550
" />
<path d="M19.2224 20.3550
L19.2829 20.4760
" />
<path d="M19.2829 20.4760
L19.4039 20.5364
" />
<path d="M19.4039 20.5364
L19.5248 20.5364
" />
<path d="M19.6458 20.6574
L20.6134 20.6574
" />
<path d="M20.9157 20.5364
L20.9157 19.2664
" />
<path d="M20.9157 19.2664
L21.2181 19.2664
" />
<path d="M21.2181 19.2664
L21.3995 19.3269
" />
<path d="M21.3995 19.3269
L21.5205 19.4479
" />
<path d="M21.5205 19.4479
L21.5810 19.5688
" />
<path d="M21.5810 19.5688
L21.6414 19.8107
" />
<path d="M21.6414 19.8107
L21.6414 19.9921
" />
<path d="M21.6414 19.9921
L21.5810 20.2340
" />
<path d="M21.5810 20.2340
L21.5205 20.3550
" />
<path d="M21.5205 20.3550
L21.3995 20.4760
" />
<path d="M21.3995 20.4760
L21.2181 20.5364
" />
<path d="M21.2181 20.5364
L20.9157 20.5364
" />
<path d="M22.6695 20.4760
L22.5486 20.5364
" />
<path d="M22.5486 20.5364
L22.3067 20.5364
" />
<path d="M22.3067 20.5364
L22.1857 20.4760
" />
<path d="M22.1857 20.4760
L22.1253 20.3550
" />
<path d="M22.1253 20.3550
L22.1253 19.8712
" />
<path d="M22.1253 19.8712
L22.1857 19.7502
" />
<path d="M22.1857 19.7502
L22.3067 19.6898
" />
<path d="M22.3067 19.6898
L22.5486 19.6898
" />
<path d="M22.5486 19.6898
L22.6695 19.7502
" />
<path d="M22.6695 19.7502
L22.7300 19.8712
" />
<path d="M22.7300 19.8712
L22.7300 19.9921
" />
<path d="M22.7300 19.9921
L22.1253 20.1131
" />
<path d="M23.2139 20.4760
L23.3348 20.5364
" />
<path d="M23.3348 20.5364
L23.5767 20.5364
" />
<path d="M23.5767 20.5364
L23.6977 20.4760
" />
<path d="M23.6977 20.4760
L23.7581 20.3550
" />
<path d="M23.7581 20.3550
L23.7581 20.2945
" />
<path d="M23.7581 20.2945
L23.6977 20.1736
" />
<path d="M23.6977 20.1736
L23.5767 20.1131
" />
<path d="M23.5767 20.1131
L23.3953 20.1131
" />
<path d="M23.3953 20.1131
L23.2743 20.0526
" />
<path d="M23.2743 20.0526
L23.2139 19.9317
" />
<path d="M23.2139 19.9317
L23.2139 19.8712
" />
<path d="M23.2139 19.8712
L23.2743 19.7502
" />
<path d="M23.2743 19.7502
L23.3953 19.6898
" />
<path d="M23.3953 19.6898
L23.5767 19.6898
" />
<path d="M23.5767 19.6898
L23.6977 19.7502
" />
<path d="M24.1210 19.6898
L24.6048 19.6898
" />
<path d="M24.3024 19.2664
L24.3024 20.3550
" />
<path d="M24.3024 20.3550
L24.3629 20.4760
" />
<path d="M24.3629 20.4760
L24.4839 20.5364
" />
<path d="M24.4839 20.5364
L24.6048 20.5364
" />
<path d="M25.0281 20.5364
L25.0281 19.6898
" />
<path d="M25.0281 19.2664
L24.9677 19.3269
" />
<path d="M24.9677 19.3269
L25.0281 19.3874
" />
<path d="M25.0281 19.3874
L25.0886 19.3269
" />
<path d="M25.0886 19.3269
L25.0281 19.2664
" />
<path d="M25.0281 19.2664
L25.0281 19.3874
" />
<path d="M25.6329 19.6898
L25.6329 20.5364
" />
<path d="M25.6329 19.8107
L25.6934 19.7502
" />
<path d="M25.6934 19.7502
L25.8144 19.6898
" />
<path d="M25.8144 19.6898
L25.9958 19.6898
" />
<path d="M25.9958 19.6898
L26.1167 19.7502
" />
<path d="M26.1167 19.7502
L26.1772 19.8712
" />
<path d="M26.1772 19.8712
L26.1772 20.5364
" />
<path d="M27.3262 20.5364
L27.3262 19.8712
" />
<path d="M27.3262 19.8712
L27.2657 19.7502
" />
<path d="M27.2657 19.7502
L27.1448 19.6898
" />
<path d="M27.1448 19.6898
L26.9029 19.6898
" />
<path d="M26.9029 19.6898
L26.7819 19.7502
" />
<path d="M27.3262 20.4760
L27.2053 20.5364
" />
<path d="M27.2053 20.5364
L26.9029 20.5364
" />
<path d="M26.9029 20.5364
L26.7819 20.4760
" />
<path d="M26.7819 20.4760
L26.7215 20.3550
" />
<path d="M26.7215 20.3550
L26.7215 20.2340
" />
<path d="M26.7215 20.2340
L26.7819 20.1131
" />
<path d="M26.7819 20.1131
L26.9029 20.0526
" />
<path d="M26.9029 20.0526
L27.2053 20.0526
" />
<path d="M27.2053 20.0526
L27.3262 19.9921
" />
<path d="M27.7495 19.6898
L28.2333 19.6898
" />
<path d="M27.9309 19.2664
L27.9309 20.3550
" />
<path d="M27.9309 20.3550
L27.9914 20.4760
" />
<path d="M27.9914 20.4760
L28.1124 20.5364
" />
<path d="M28.1124 20.5364
L28.2333 20.5364
" />
<path d="M28.6566 20.5364
L28.6566 19.6898
" />
<path d="M28.6566 19.2664
L28.5962 19.3269
" />
<path d="M28.5962 19.3269
L28.6566 19.3874
" />
<path d="M28.6566 19.3874
L28.7171 19.3269
" />
<path d="M28.7171 19.3269
L28.6566 19.2664
" />
<path d="M28.6566 19.2664
L28.6566 19.3874
" />
<path d="M29.4429 20.5364
L29.3219 20.4760
" />
<path d="M29.3219 20.4760
L29.2614 20.4155
" />
<path d="M29.2614 20.4155
L29.2010 20.2945
" />
<path d="M29.2010 20.2945
L29.2010 19.9317
" />
<path d="M29.2010 19.9317
L29.2614 19.8107
" />
<path d="M29.2614 19.8107
L29.3219 19.7502
" />
<path d="M29.3219 19.7502
L29.4429 19.6898
" />
<path d="M29.4429 19.6898
L29.6243 19.6898
" />
<path d="M29.6243 19.6898
L29.7452 19.7502
" />
<path d="M29.7452 19.7502
L29.8057 19.8107
" />
<path d="M29.8057 19.8107
L29.8662 19.9317
" />
<path d="M29.8662 19.9317
L29.8662 20.2945
" />
<path d="M29.8662 20.2945
L29.8057 20.4155
" />
<path d="M29.8057 20.4155
L29.7452 20.4760
" />
<path d="M29.7452 20.4760
L29.6243 20.5364
" />
<path d="M29.6243 20.5364
L29.4429 20.5364
" />
<path d="M30.4104 19.6898
L30.4104 20.5364
" />
<path d="M30.4104 19.8107
L30.4709 19.7502
" />
<path d="M30.4709 19.7502
L30.5919 19.6898
" />
<path d="M30.5919 19.6898
L30.7733 19.6898
" />
<path d="M30.7733 19.6898
L30.8942 19.7502
" />
<path d="M30.8942 19.7502
L30.9547 19.8712
" />
<path d="M30.9547 19.8712
L30.9547 20.5364
" />
<path d="M31.2571 20.6574
L32.2247 20.6574
" />
<path d="M32.4666 20.4760
L32.6480 20.5364
" />
<path d="M32.6480 20.5364
L32.9504 20.5364
" />
<path d="M32.9504 20.5364
L33.0713 20.4760
" />
<path d="M33.0713 20.4760
L33.1318 20.4155
" />
<path d="M33.1318 20.4155
L33.1923 20.2945
" />
<path d="M33.1923 20.2945
L33.1923 20.1736
" />
<path d="M33.1923 20.1736
L33.1318 20.0526
" />
<path d="M33.1318 20.0526
L33.0713 19.9921
" />
<path d="M33.0713 19.9921
L32.9504 19.9317
" />
<path d="M32.9504 19.9317
L32.7085 19.8712
" />
<path d="M32.7085 19.8712
L32.5875 19.8107
" />
<path d="M32.5875 19.8107
L32.5270 19.7502
" />
<path d="M32.5270 19.7502
L32.4666 19.6293
" />
<path d="M32.4666 19.6293
L32.4666 19.5083
" />
<path d="M32.4666 19.5083
L32.5270 19.3874
" />
<path d="M32.5270 19.3874
L32.5875 19.3269
" />
<path d="M32.5875 19.3269
L32.7085 19.2664
" />
<path d="M32.7085 19.2664
L33.0108 19.2664
" />
<path d="M33.0108 19.2664
L33.1923 19.3269
" />
<path d="M34.2203 20.4760
L34.0994 20.5364
" />
<path d="M34.0994 20.5364
L33.8575 20.5364
" />
<path d="M33.8575 20.5364
L33.7365 20.4760
" />
<path d="M33.7365 20.4760
L33.6761 20.3550
" />
<path d="M33.6761 20.3550
L33.6761 19.8712
" />
<path d="M33.6761 19.8712
L33.7365 19.7502
" />
<path d="M33.7365 19.7502
L33.8575 19.6898
" />
<path d="M33.8575 19.6898
L34.0994 19.6898
" />
<path d="M34.0994 19.6898
L34.2203 19.7502
" />
<path d="M34.2203 19.7502
L34.2808 19.8712
" />
<path d="M34.2808 19.8712
L34.2808 19.9921
" />
<path d="M34.2808 19.9921
L33.6761 20.1131
" />
<path d="M35.3694 20.5364
L35.3694 19.8712
" />
<path d="M35.3694 19.8712
L35.3089 19.7502
" />
<path d="M35.3089 19.7502
L35.1880 19.6898
" />
<path d="M35.1880 19.6898
L34.9461 19.6898
" />
<path d="M34.9461 19.6898
L34.8251 19.7502
" />
<path d="M35.3694 20.4760
L35.2485 20.5364
" />
<path d="M35.2485 20.5364
L34.9461 20.5364
" />
<path d="M34.9461 20.5364
L34.8251 20.4760
" />
<path d="M34.8251 20.4760
L34.7647 20.3550
" />
<path d="M34.7647 20.3550
L34.7647 20.2340
" />
<path d="M34.7647 20.2340
L34.8251 20.1131
" />
<path d="M34.8251 20.1131
L34.9461 20.0526
" />
<path d="M34.9461 20.0526
L35.2485 20.0526
" />
<path d="M35.2485 20.0526
L35.3694 19.9921
" />
<path d="M36.1556 20.5364
L36.0346 20.4760
" />
<path d="M36.0346 20.4760
L35.9741 20.3550
" />
<path d="M35.9741 20.3550
L35.9741 19.2664
" />
<path d="M37.1231 20.4760
L37.0022 20.5364
" />
<path d="M37.0022 20.5364
L36.7603 20.5364
" />
<path d="M36.7603 20.5364
L36.6393 20.4760
" />
<path d="M36.6393 20.4760
L36.5789 20.3550
" />
<path d="M36.5789 20.3550
L36.5789 19.8712
" />
<path d="M36.5789 19.8712
L36.6393 19.7502
" />
<path d="M36.6393 19.7502
L36.7603 19.6898
" />
<path d="M36.7603 19.6898
L37.0022 19.6898
" />
<path d="M37.0022 19.6898
L37.1231 19.7502
" />
<path d="M37.1231 19.7502
L37.1836 19.8712
" />
<path d="M37.1836 19.8712
L37.1836 19.9921
" />
<path d="M37.1836 19.9921
L36.5789 20.1131
" />
<path d="M38.2722 20.5364
L38.2722 19.2664
" />
<path d="M38.2722 20.4760
L38.1513 20.5364
" />
<path d="M38.1513 20.5364
L37.9094 20.5364
" />
<path d="M37.9094 20.5364
L37.7884 20.4760
" />
<path d="M37.7884 20.4760
L37.7279 20.4155
" />
<path d="M37.7279 20.4155
L37.6675 20.2945
" />
<path d="M37.6675 20.2945
L37.6675 19.9317
" />
<path d="M37.6675 19.9317
L37.7279 19.8107
" />
<path d="M37.7279 19.8107
L37.7884 19.7502
" />
<path d="M37.7884 19.7502
L37.9094 19.6898
" />
<path d="M37.9094 19.6898
L38.1513 19.6898
" />
<path d="M38.1513 19.6898
L38.2722 19.7502
" />
<path d="M39.0584 20.4155
L39.1188 20.4760
" />
<path d="M39.1188 20.4760
L39.0584 20.5364
" />
<path d="M39.0584 20.5364
L38.9979 20.4760
" />
<path d="M38.9979 20.4760
L39.0584 20.4155
" />
<path d="M39.0584 20.4155
L39.0584 20.5364
" />
<path d="M38.8165 19.3269
L38.9374 19.2664
" />
<path d="M38.9374 19.2664
L39.2398 19.2664
" />
<path d="M39.2398 19.2664
L39.3607 19.3269
" />
<path d="M39.3607 19.3269
L39.4212 19.4479
" />
<path d="M39.4212 19.4479
L39.4212 19.5688
" />
<path d="M39.4212 19.5688
L39.3607 19.6898
" />
<path d="M39.3607 19.6898
L39.3003 19.7502
" />
<path d="M39.3003 19.7502
L39.1793 19.8107
" />
<path d="M39.1793 19.8107
L39.1188 19.8712
" />
<path d="M39.1188 19.8712
L39.0584 19.9921
" />
<path d="M39.0584 19.9921
L39.0584 20.0526
" />
</g></g>
</svg>
