<?xml version="1.0" standalone="no"?>
 <!DOCTYPE svg PUBLIC "-//W3C//DTD SVG 1.1//EN" 
 "http://www.w3.org/Graphics/SVG/1.1/DTD/svg11.dtd"> 
<svg
  xmlns:svg="http://www.w3.org/2000/svg"
  xmlns="http://www.w3.org/2000/svg"
  xmlns:xlink="http://www.w3.org/1999/xlink"
  xmlns:inkscape="http://www.inkscape.org/namespaces/inkscape"
  version="1.1"
  width="33.7820mm" height="22.8854mm" viewBox="0.0000 0.0000 33.7820 22.8854">
<title>SVG Image created as Quick Disconnect - No Sealing_unit1.svg date 2026-05-31T11:36:37 </title>
  <desc>Image generated by Eeschema-SVG </desc>
<g style="fill:#000000; fill-opacity:1.0000;stroke:#000000; stroke-opacity:1.0000;
stroke-linecap:round; stroke-linejoin:round;"
 transform="translate(0 0) scale(1 1)">
</g>
<g style="fill:none; 
stroke:#840000; stroke-width:0.1524; stroke-opacity:1; 
stroke-linecap:round; stroke-linejoin:round;">
<rect x="11.891000" y="7.956900" width="10.000000" height="4.000000" rx="0.000000" />
<path style="fill:none; 
stroke:#840000; stroke-width:0.1524; stroke-opacity:1; 
stroke-linecap:round; stroke-linejoin:round;fill:none"
d="M 11.8910,9.9569
21.8910,9.9569
" /> 
<path style="fill:none; 
stroke:#840000; stroke-width:0.1524; stroke-opacity:1; 
stroke-linecap:round; stroke-linejoin:round;fill:none"
d="M 14.8910,9.9569
12.8910,7.9569
" /> 
<path style="fill:none; 
stroke:#840000; stroke-width:0.1524; stroke-opacity:1; 
stroke-linecap:round; stroke-linejoin:round;fill:none"
d="M 14.8910,9.9569
12.8910,11.9569
" /> 
<path style="fill:none; 
stroke:#840000; stroke-width:0.1524; stroke-opacity:1; 
stroke-linecap:round; stroke-linejoin:round;fill:none"
d="M 16.8910,8.9569
16.8910,10.9569
" /> 
<path style="fill:none; 
stroke:#840000; stroke-width:0.1524; stroke-opacity:1; 
stroke-linecap:round; stroke-linejoin:round;fill:none"
d="M 18.8910,9.9569
20.8910,7.9569
" /> 
<path style="fill:none; 
stroke:#840000; stroke-width:0.1524; stroke-opacity:1; 
stroke-linecap:round; stroke-linejoin:round;fill:none"
d="M 18.8910,9.9569
20.8910,11.9569
" /> 
<path d="M11.8910 9.9569
L8.8910 9.9569
" />
<path d="M21.8910 9.9569
L24.8910 9.9569
" />
</g>
<g style="fill:none; 
stroke:#006464; stroke-width:0.1524; stroke-opacity:1; 
stroke-linecap:round; stroke-linejoin:round;">
<text x="16.8910" y="20.5919"
textLength="29.2316" font-size="1.6933" lengthAdjust="spacingAndGlyphs"
text-anchor="middle" opacity="0" stroke-opacity="0">Quick_Disconnect_No_Sealing?</text>
<g class="stroked-text"><desc>Quick_Disconnect_No_Sealing?</desc>
<path d="M3.5258 20.6574
L3.4048 20.5969
" />
<path d="M3.4048 20.5969
L3.2839 20.4760
" />
<path d="M3.2839 20.4760
L3.1025 20.2945
" />
<path d="M3.1025 20.2945
L2.9815 20.2340
" />
<path d="M2.9815 20.2340
L2.8606 20.2340
" />
<path d="M2.9210 20.5364
L2.8001 20.4760
" />
<path d="M2.8001 20.4760
L2.6791 20.3550
" />
<path d="M2.6791 20.3550
L2.6187 20.1131
" />
<path d="M2.6187 20.1131
L2.6187 19.6898
" />
<path d="M2.6187 19.6898
L2.6791 19.4479
" />
<path d="M2.6791 19.4479
L2.8001 19.3269
" />
<path d="M2.8001 19.3269
L2.9210 19.2664
" />
<path d="M2.9210 19.2664
L3.1629 19.2664
" />
<path d="M3.1629 19.2664
L3.2839 19.3269
" />
<path d="M3.2839 19.3269
L3.4048 19.4479
" />
<path d="M3.4048 19.4479
L3.4653 19.6898
" />
<path d="M3.4653 19.6898
L3.4653 20.1131
" />
<path d="M3.4653 20.1131
L3.4048 20.3550
" />
<path d="M3.4048 20.3550
L3.2839 20.4760
" />
<path d="M3.2839 20.4760
L3.1629 20.5364
" />
<path d="M3.1629 20.5364
L2.9210 20.5364
" />
<path d="M4.5539 19.6898
L4.5539 20.5364
" />
<path d="M4.0096 19.6898
L4.0096 20.3550
" />
<path d="M4.0096 20.3550
L4.0701 20.4760
" />
<path d="M4.0701 20.4760
L4.1911 20.5364
" />
<path d="M4.1911 20.5364
L4.3725 20.5364
" />
<path d="M4.3725 20.5364
L4.4934 20.4760
" />
<path d="M4.4934 20.4760
L4.5539 20.4155
" />
<path d="M5.1586 20.5364
L5.1586 19.6898
" />
<path d="M5.1586 19.2664
L5.0982 19.3269
" />
<path d="M5.0982 19.3269
L5.1586 19.3874
" />
<path d="M5.1586 19.3874
L5.2191 19.3269
" />
<path d="M5.2191 19.3269
L5.1586 19.2664
" />
<path d="M5.1586 19.2664
L5.1586 19.3874
" />
<path d="M6.3077 20.4760
L6.1868 20.5364
" />
<path d="M6.1868 20.5364
L5.9449 20.5364
" />
<path d="M5.9449 20.5364
L5.8239 20.4760
" />
<path d="M5.8239 20.4760
L5.7634 20.4155
" />
<path d="M5.7634 20.4155
L5.7030 20.2945
" />
<path d="M5.7030 20.2945
L5.7030 19.9317
" />
<path d="M5.7030 19.9317
L5.7634 19.8107
" />
<path d="M5.7634 19.8107
L5.8239 19.7502
" />
<path d="M5.8239 19.7502
L5.9449 19.6898
" />
<path d="M5.9449 19.6898
L6.1868 19.6898
" />
<path d="M6.1868 19.6898
L6.3077 19.7502
" />
<path d="M6.8520 20.5364
L6.8520 19.2664
" />
<path d="M6.9730 20.0526
L7.3358 20.5364
" />
<path d="M7.3358 19.6898
L6.8520 20.1736
" />
<path d="M7.5778 20.6574
L8.5454 20.6574
" />
<path d="M8.8477 20.5364
L8.8477 19.2664
" />
<path d="M8.8477 19.2664
L9.1501 19.2664
" />
<path d="M9.1501 19.2664
L9.3315 19.3269
" />
<path d="M9.3315 19.3269
L9.4525 19.4479
" />
<path d="M9.4525 19.4479
L9.5130 19.5688
" />
<path d="M9.5130 19.5688
L9.5734 19.8107
" />
<path d="M9.5734 19.8107
L9.5734 19.9921
" />
<path d="M9.5734 19.9921
L9.5130 20.2340
" />
<path d="M9.5130 20.2340
L9.4525 20.3550
" />
<path d="M9.4525 20.3550
L9.3315 20.4760
" />
<path d="M9.3315 20.4760
L9.1501 20.5364
" />
<path d="M9.1501 20.5364
L8.8477 20.5364
" />
<path d="M10.1177 20.5364
L10.1177 19.6898
" />
<path d="M10.1177 19.2664
L10.0573 19.3269
" />
<path d="M10.0573 19.3269
L10.1177 19.3874
" />
<path d="M10.1177 19.3874
L10.1782 19.3269
" />
<path d="M10.1782 19.3269
L10.1177 19.2664
" />
<path d="M10.1177 19.2664
L10.1177 19.3874
" />
<path d="M10.6621 20.4760
L10.7830 20.5364
" />
<path d="M10.7830 20.5364
L11.0249 20.5364
" />
<path d="M11.0249 20.5364
L11.1459 20.4760
" />
<path d="M11.1459 20.4760
L11.2063 20.3550
" />
<path d="M11.2063 20.3550
L11.2063 20.2945
" />
<path d="M11.2063 20.2945
L11.1459 20.1736
" />
<path d="M11.1459 20.1736
L11.0249 20.1131
" />
<path d="M11.0249 20.1131
L10.8435 20.1131
" />
<path d="M10.8435 20.1131
L10.7225 20.0526
" />
<path d="M10.7225 20.0526
L10.6621 19.9317
" />
<path d="M10.6621 19.9317
L10.6621 19.8712
" />
<path d="M10.6621 19.8712
L10.7225 19.7502
" />
<path d="M10.7225 19.7502
L10.8435 19.6898
" />
<path d="M10.8435 19.6898
L11.0249 19.6898
" />
<path d="M11.0249 19.6898
L11.1459 19.7502
" />
<path d="M12.2949 20.4760
L12.1740 20.5364
" />
<path d="M12.1740 20.5364
L11.9321 20.5364
" />
<path d="M11.9321 20.5364
L11.8111 20.4760
" />
<path d="M11.8111 20.4760
L11.7506 20.4155
" />
<path d="M11.7506 20.4155
L11.6902 20.2945
" />
<path d="M11.6902 20.2945
L11.6902 19.9317
" />
<path d="M11.6902 19.9317
L11.7506 19.8107
" />
<path d="M11.7506 19.8107
L11.8111 19.7502
" />
<path d="M11.8111 19.7502
L11.9321 19.6898
" />
<path d="M11.9321 19.6898
L12.1740 19.6898
" />
<path d="M12.1740 19.6898
L12.2949 19.7502
" />
<path d="M13.0207 20.5364
L12.8997 20.4760
" />
<path d="M12.8997 20.4760
L12.8392 20.4155
" />
<path d="M12.8392 20.4155
L12.7788 20.2945
" />
<path d="M12.7788 20.2945
L12.7788 19.9317
" />
<path d="M12.7788 19.9317
L12.8392 19.8107
" />
<path d="M12.8392 19.8107
L12.8997 19.7502
" />
<path d="M12.8997 19.7502
L13.0207 19.6898
" />
<path d="M13.0207 19.6898
L13.2021 19.6898
" />
<path d="M13.2021 19.6898
L13.3230 19.7502
" />
<path d="M13.3230 19.7502
L13.3835 19.8107
" />
<path d="M13.3835 19.8107
L13.4440 19.9317
" />
<path d="M13.4440 19.9317
L13.4440 20.2945
" />
<path d="M13.4440 20.2945
L13.3835 20.4155
" />
<path d="M13.3835 20.4155
L13.3230 20.4760
" />
<path d="M13.3230 20.4760
L13.2021 20.5364
" />
<path d="M13.2021 20.5364
L13.0207 20.5364
" />
<path d="M13.9882 19.6898
L13.9882 20.5364
" />
<path d="M13.9882 19.8107
L14.0487 19.7502
" />
<path d="M14.0487 19.7502
L14.1697 19.6898
" />
<path d="M14.1697 19.6898
L14.3511 19.6898
" />
<path d="M14.3511 19.6898
L14.4720 19.7502
" />
<path d="M14.4720 19.7502
L14.5325 19.8712
" />
<path d="M14.5325 19.8712
L14.5325 20.5364
" />
<path d="M15.1372 19.6898
L15.1372 20.5364
" />
<path d="M15.1372 19.8107
L15.1977 19.7502
" />
<path d="M15.1977 19.7502
L15.3187 19.6898
" />
<path d="M15.3187 19.6898
L15.5001 19.6898
" />
<path d="M15.5001 19.6898
L15.6210 19.7502
" />
<path d="M15.6210 19.7502
L15.6815 19.8712
" />
<path d="M15.6815 19.8712
L15.6815 20.5364
" />
<path d="M16.7700 20.4760
L16.6491 20.5364
" />
<path d="M16.6491 20.5364
L16.4072 20.5364
" />
<path d="M16.4072 20.5364
L16.2862 20.4760
" />
<path d="M16.2862 20.4760
L16.2258 20.3550
" />
<path d="M16.2258 20.3550
L16.2258 19.8712
" />
<path d="M16.2258 19.8712
L16.2862 19.7502
" />
<path d="M16.2862 19.7502
L16.4072 19.6898
" />
<path d="M16.4072 19.6898
L16.6491 19.6898
" />
<path d="M16.6491 19.6898
L16.7700 19.7502
" />
<path d="M16.7700 19.7502
L16.8305 19.8712
" />
<path d="M16.8305 19.8712
L16.8305 19.9921
" />
<path d="M16.8305 19.9921
L16.2258 20.1131
" />
<path d="M17.9191 20.4760
L17.7982 20.5364
" />
<path d="M17.7982 20.5364
L17.5563 20.5364
" />
<path d="M17.5563 20.5364
L17.4353 20.4760
" />
<path d="M17.4353 20.4760
L17.3748 20.4155
" />
<path d="M17.3748 20.4155
L17.3144 20.2945
" />
<path d="M17.3144 20.2945
L17.3144 19.9317
" />
<path d="M17.3144 19.9317
L17.3748 19.8107
" />
<path d="M17.3748 19.8107
L17.4353 19.7502
" />
<path d="M17.4353 19.7502
L17.5563 19.6898
" />
<path d="M17.5563 19.6898
L17.7982 19.6898
" />
<path d="M17.7982 19.6898
L17.9191 19.7502
" />
<path d="M18.2820 19.6898
L18.7658 19.6898
" />
<path d="M18.4634 19.2664
L18.4634 20.3550
" />
<path d="M18.4634 20.3550
L18.5239 20.4760
" />
<path d="M18.5239 20.4760
L18.6449 20.5364
" />
<path d="M18.6449 20.5364
L18.7658 20.5364
" />
<path d="M18.8868 20.6574
L19.8544 20.6574
" />
<path d="M20.1567 20.5364
L20.1567 19.2664
" />
<path d="M20.1567 19.2664
L20.8824 20.5364
" />
<path d="M20.8824 20.5364
L20.8824 19.2664
" />
<path d="M21.6687 20.5364
L21.5477 20.4760
" />
<path d="M21.5477 20.4760
L21.4872 20.4155
" />
<path d="M21.4872 20.4155
L21.4268 20.2945
" />
<path d="M21.4268 20.2945
L21.4268 19.9317
" />
<path d="M21.4268 19.9317
L21.4872 19.8107
" />
<path d="M21.4872 19.8107
L21.5477 19.7502
" />
<path d="M21.5477 19.7502
L21.6687 19.6898
" />
<path d="M21.6687 19.6898
L21.8501 19.6898
" />
<path d="M21.8501 19.6898
L21.9710 19.7502
" />
<path d="M21.9710 19.7502
L22.0315 19.8107
" />
<path d="M22.0315 19.8107
L22.0920 19.9317
" />
<path d="M22.0920 19.9317
L22.0920 20.2945
" />
<path d="M22.0920 20.2945
L22.0315 20.4155
" />
<path d="M22.0315 20.4155
L21.9710 20.4760
" />
<path d="M21.9710 20.4760
L21.8501 20.5364
" />
<path d="M21.8501 20.5364
L21.6687 20.5364
" />
<path d="M22.3339 20.6574
L23.3015 20.6574
" />
<path d="M23.5434 20.4760
L23.7248 20.5364
" />
<path d="M23.7248 20.5364
L24.0272 20.5364
" />
<path d="M24.0272 20.5364
L24.1481 20.4760
" />
<path d="M24.1481 20.4760
L24.2086 20.4155
" />
<path d="M24.2086 20.4155
L24.2691 20.2945
" />
<path d="M24.2691 20.2945
L24.2691 20.1736
" />
<path d="M24.2691 20.1736
L24.2086 20.0526
" />
<path d="M24.2086 20.0526
L24.1481 19.9921
" />
<path d="M24.1481 19.9921
L24.0272 19.9317
" />
<path d="M24.0272 19.9317
L23.7853 19.8712
" />
<path d="M23.7853 19.8712
L23.6643 19.8107
" />
<path d="M23.6643 19.8107
L23.6038 19.7502
" />
<path d="M23.6038 19.7502
L23.5434 19.6293
" />
<path d="M23.5434 19.6293
L23.5434 19.5083
" />
<path d="M23.5434 19.5083
L23.6038 19.3874
" />
<path d="M23.6038 19.3874
L23.6643 19.3269
" />
<path d="M23.6643 19.3269
L23.7853 19.2664
" />
<path d="M23.7853 19.2664
L24.0876 19.2664
" />
<path d="M24.0876 19.2664
L24.2691 19.3269
" />
<path d="M25.2971 20.4760
L25.1762 20.5364
" />
<path d="M25.1762 20.5364
L24.9343 20.5364
" />
<path d="M24.9343 20.5364
L24.8133 20.4760
" />
<path d="M24.8133 20.4760
L24.7529 20.3550
" />
<path d="M24.7529 20.3550
L24.7529 19.8712
" />
<path d="M24.7529 19.8712
L24.8133 19.7502
" />
<path d="M24.8133 19.7502
L24.9343 19.6898
" />
<path d="M24.9343 19.6898
L25.1762 19.6898
" />
<path d="M25.1762 19.6898
L25.2971 19.7502
" />
<path d="M25.2971 19.7502
L25.3576 19.8712
" />
<path d="M25.3576 19.8712
L25.3576 19.9921
" />
<path d="M25.3576 19.9921
L24.7529 20.1131
" />
<path d="M26.4462 20.5364
L26.4462 19.8712
" />
<path d="M26.4462 19.8712
L26.3857 19.7502
" />
<path d="M26.3857 19.7502
L26.2648 19.6898
" />
<path d="M26.2648 19.6898
L26.0229 19.6898
" />
<path d="M26.0229 19.6898
L25.9019 19.7502
" />
<path d="M26.4462 20.4760
L26.3253 20.5364
" />
<path d="M26.3253 20.5364
L26.0229 20.5364
" />
<path d="M26.0229 20.5364
L25.9019 20.4760
" />
<path d="M25.9019 20.4760
L25.8415 20.3550
" />
<path d="M25.8415 20.3550
L25.8415 20.2340
" />
<path d="M25.8415 20.2340
L25.9019 20.1131
" />
<path d="M25.9019 20.1131
L26.0229 20.0526
" />
<path d="M26.0229 20.0526
L26.3253 20.0526
" />
<path d="M26.3253 20.0526
L26.4462 19.9921
" />
<path d="M27.2324 20.5364
L27.1114 20.4760
" />
<path d="M27.1114 20.4760
L27.0509 20.3550
" />
<path d="M27.0509 20.3550
L27.0509 19.2664
" />
<path d="M27.7161 20.5364
L27.7161 19.6898
" />
<path d="M27.7161 19.2664
L27.6557 19.3269
" />
<path d="M27.6557 19.3269
L27.7161 19.3874
" />
<path d="M27.7161 19.3874
L27.7766 19.3269
" />
<path d="M27.7766 19.3269
L27.7161 19.2664
" />
<path d="M27.7161 19.2664
L27.7161 19.3874
" />
<path d="M28.3209 19.6898
L28.3209 20.5364
" />
<path d="M28.3209 19.8107
L28.3814 19.7502
" />
<path d="M28.3814 19.7502
L28.5024 19.6898
" />
<path d="M28.5024 19.6898
L28.6838 19.6898
" />
<path d="M28.6838 19.6898
L28.8047 19.7502
" />
<path d="M28.8047 19.7502
L28.8652 19.8712
" />
<path d="M28.8652 19.8712
L28.8652 20.5364
" />
<path d="M30.0142 19.6898
L30.0142 20.7179
" />
<path d="M30.0142 20.7179
L29.9537 20.8388
" />
<path d="M29.9537 20.8388
L29.8933 20.8993
" />
<path d="M29.8933 20.8993
L29.7723 20.9598
" />
<path d="M29.7723 20.9598
L29.5909 20.9598
" />
<path d="M29.5909 20.9598
L29.4699 20.8993
" />
<path d="M30.0142 20.4760
L29.8933 20.5364
" />
<path d="M29.8933 20.5364
L29.6514 20.5364
" />
<path d="M29.6514 20.5364
L29.5304 20.4760
" />
<path d="M29.5304 20.4760
L29.4699 20.4155
" />
<path d="M29.4699 20.4155
L29.4095 20.2945
" />
<path d="M29.4095 20.2945
L29.4095 19.9317
" />
<path d="M29.4095 19.9317
L29.4699 19.8107
" />
<path d="M29.4699 19.8107
L29.5304 19.7502
" />
<path d="M29.5304 19.7502
L29.6514 19.6898
" />
<path d="M29.6514 19.6898
L29.8933 19.6898
" />
<path d="M29.8933 19.6898
L30.0142 19.7502
" />
<path d="M30.8004 20.4155
L30.8608 20.4760
" />
<path d="M30.8608 20.4760
L30.8004 20.5364
" />
<path d="M30.8004 20.5364
L30.7399 20.4760
" />
<path d="M30.7399 20.4760
L30.8004 20.4155
" />
<path d="M30.8004 20.4155
L30.8004 20.5364
" />
<path d="M30.5585 19.3269
L30.6794 19.2664
" />
<path d="M30.6794 19.2664
L30.9818 19.2664
" />
<path d="M30.9818 19.2664
L31.1027 19.3269
" />
<path d="M31.1027 19.3269
L31.1632 19.4479
" />
<path d="M31.1632 19.4479
L31.1632 19.5688
" />
<path d="M31.1632 19.5688
L31.1027 19.6898
" />
<path d="M31.1027 19.6898
L31.0423 19.7502
" />
<path d="M31.0423 19.7502
L30.9213 19.8107
" />
<path d="M30.9213 19.8107
L30.8608 19.8712
" />
<path d="M30.8608 19.8712
L30.8004 19.9921
" />
<path d="M30.8004 19.9921
L30.8004 20.0526
" />
</g></g> 
</svg>
