<?xml version="1.0" standalone="no"?>
 <!DOCTYPE svg PUBLIC "-//W3C//DTD SVG 1.1//EN"
 "http://www.w3.org/Graphics/SVG/1.1/DTD/svg11.dtd">
<svg
  xmlns:svg="http://www.w3.org/2000/svg"
  xmlns="http://www.w3.org/2000/svg"
  xmlns:xlink="http://www.w3.org/1999/xlink"
  xmlns:inkscape="http://www.inkscape.org/namespaces/inkscape"
  version="1.1"
  width="28.8544mm" height="22.8854mm" viewBox="0.0000 0.0000 28.8544 22.8854">
<title>SVG Image created as Quick Disconnect - Both Sealed_unit1.svg date 2026-05-31T14:38:13 </title>
  <desc>Image generated by Eeschema-SVG </desc>
<g style="fill:#000000; fill-opacity:1.0000;stroke:#000000; stroke-opacity:1.0000;
stroke-linecap:round; stroke-linejoin:round;"
 transform="translate(0 0) scale(1 1)">
</g>
<g style="fill:none;
stroke:#840000; stroke-width:0.1524; stroke-opacity:1;
stroke-linecap:round; stroke-linejoin:round;">
<rect x="9.427200" y="7.956900" width="10.000000" height="4.000000" rx="0.000000" />
<path style="fill:none;
stroke:#840000; stroke-width:0.1524; stroke-opacity:1;
stroke-linecap:round; stroke-linejoin:round;fill:none"
d="M 9.4272,9.9569
19.4272,9.9569
" />
<circle cx="10.9272" cy="9.9569" r="1.0000" />
<path style="fill:none;
stroke:#840000; stroke-width:0.1524; stroke-opacity:1;
stroke-linecap:round; stroke-linejoin:round;fill:none"
d="M 12.4272,9.9569
10.4272,7.9569
" />
<path style="fill:none;
stroke:#840000; stroke-width:0.1524; stroke-opacity:1;
stroke-linecap:round; stroke-linejoin:round;fill:none"
d="M 12.4272,9.9569
10.4272,11.9569
" />
<path style="fill:none;
stroke:#840000; stroke-width:0.1524; stroke-opacity:1;
stroke-linecap:round; stroke-linejoin:round;fill:none"
d="M 14.4272,8.9569
14.4272,10.9569
" />
<path style="fill:none;
stroke:#840000; stroke-width:0.1524; stroke-opacity:1;
stroke-linecap:round; stroke-linejoin:round;fill:none"
d="M 16.4272,9.9569
18.4272,7.9569
" />
<path style="fill:none;
stroke:#840000; stroke-width:0.1524; stroke-opacity:1;
stroke-linecap:round; stroke-linejoin:round;fill:none"
d="M 16.4272,9.9569
18.4272,11.9569
" />
<circle cx="17.9272" cy="9.9569" r="1.0000" />
<path style="fill:#840000; fill-opacity:1.0000;
stroke:#840000; stroke-width:0.1000; stroke-opacity:1;
stroke-linecap:round; stroke-linejoin:round;fill-rule:evenodd;"
d="M 8.4272,9.9569
8.4272,9.7069
9.4272,9.9569
8.4272,10.2069
Z" />
<path style="fill:#840000; fill-opacity:1.0000;
stroke:#840000; stroke-width:0.1000; stroke-opacity:1;
stroke-linecap:round; stroke-linejoin:round;fill-rule:evenodd;"
d="M 20.4272,9.9569
20.4272,9.7069
21.4272,9.9569
20.4272,10.2069
Z" />
</g>
<g style="fill:none;
stroke:#840000; stroke-width:0.1524; stroke-opacity:1;
stroke-linecap:round; stroke-linejoin:round;">
<path d="M9.4272 9.9569
L6.4272 9.9569
" />
<path d="M19.4272 9.9569
L22.4272 9.9569
" />
</g>
<g style="fill:none;
stroke:#006464; stroke-width:0.1524; stroke-opacity:1;
stroke-linecap:round; stroke-linejoin:round;">
<text x="14.4272" y="20.5919"
textLength="25.1193" font-size="1.6933" lengthAdjust="spacingAndGlyphs"
text-anchor="middle" opacity="0" stroke-opacity="0">Quick_Disconnect_Sealed?</text>
<g class="stroked-text"><desc>Quick_Disconnect_Sealed?</desc>
<path d="M3.1182 20.6574
L2.9972 20.5969
" />
<path d="M2.9972 20.5969
L2.8763 20.4760
" />
<path d="M2.8763 20.4760
L2.6949 20.2945
" />
<path d="M2.6949 20.2945
L2.5739 20.2340
" />
<path d="M2.5739 20.2340
L2.4530 20.2340
" />
<path d="M2.5134 20.5364
L2.3925 20.4760
" />
<path d="M2.3925 20.4760
L2.2715 20.3550
" />
<path d="M2.2715 20.3550
L2.2111 20.1131
" />
<path d="M2.2111 20.1131
L2.2111 19.6898
" />
<path d="M2.2111 19.6898
L2.2715 19.4479
" />
<path d="M2.2715 19.4479
L2.3925 19.3269
" />
<path d="M2.3925 19.3269
L2.5134 19.2664
" />
<path d="M2.5134 19.2664
L2.7553 19.2664
" />
<path d="M2.7553 19.2664
L2.8763 19.3269
" />
<path d="M2.8763 19.3269
L2.9972 19.4479
" />
<path d="M2.9972 19.4479
L3.0577 19.6898
" />
<path d="M3.0577 19.6898
L3.0577 20.1131
" />
<path d="M3.0577 20.1131
L2.9972 20.3550
" />
<path d="M2.9972 20.3550
L2.8763 20.4760
" />
<path d="M2.8763 20.4760
L2.7553 20.5364
" />
<path d="M2.7553 20.5364
L2.5134 20.5364
" />
<path d="M4.1463 19.6898
L4.1463 20.5364
" />
<path d="M3.6020 19.6898
L3.6020 20.3550
" />
<path d="M3.6020 20.3550
L3.6625 20.4760
" />
<path d="M3.6625 20.4760
L3.7835 20.5364
" />
<path d="M3.7835 20.5364
L3.9649 20.5364
" />
<path d="M3.9649 20.5364
L4.0858 20.4760
" />
<path d="M4.0858 20.4760
L4.1463 20.4155
" />
<path d="M4.7510 20.5364
L4.7510 19.6898
" />
<path d="M4.7510 19.2664
L4.6906 19.3269
" />
<path d="M4.6906 19.3269
L4.7510 19.3874
" />
<path d="M4.7510 19.3874
L4.8115 19.3269
" />
<path d="M4.8115 19.3269
L4.7510 19.2664
" />
<path d="M4.7510 19.2664
L4.7510 19.3874
" />
<path d="M5.9001 20.4760
L5.7792 20.5364
" />
<path d="M5.7792 20.5364
L5.5373 20.5364
" />
<path d="M5.5373 20.5364
L5.4163 20.4760
" />
<path d="M5.4163 20.4760
L5.3558 20.4155
" />
<path d="M5.3558 20.4155
L5.2954 20.2945
" />
<path d="M5.2954 20.2945
L5.2954 19.9317
" />
<path d="M5.2954 19.9317
L5.3558 19.8107
" />
<path d="M5.3558 19.8107
L5.4163 19.7502
" />
<path d="M5.4163 19.7502
L5.5373 19.6898
" />
<path d="M5.5373 19.6898
L5.7792 19.6898
" />
<path d="M5.7792 19.6898
L5.9001 19.7502
" />
<path d="M6.4444 20.5364
L6.4444 19.2664
" />
<path d="M6.5654 20.0526
L6.9282 20.5364
" />
<path d="M6.9282 19.6898
L6.4444 20.1736
" />
<path d="M7.1702 20.6574
L8.1378 20.6574
" />
<path d="M8.4401 20.5364
L8.4401 19.2664
" />
<path d="M8.4401 19.2664
L8.7425 19.2664
" />
<path d="M8.7425 19.2664
L8.9239 19.3269
" />
<path d="M8.9239 19.3269
L9.0449 19.4479
" />
<path d="M9.0449 19.4479
L9.1054 19.5688
" />
<path d="M9.1054 19.5688
L9.1658 19.8107
" />
<path d="M9.1658 19.8107
L9.1658 19.9921
" />
<path d="M9.1658 19.9921
L9.1054 20.2340
" />
<path d="M9.1054 20.2340
L9.0449 20.3550
" />
<path d="M9.0449 20.3550
L8.9239 20.4760
" />
<path d="M8.9239 20.4760
L8.7425 20.5364
" />
<path d="M8.7425 20.5364
L8.4401 20.5364
" />
<path d="M9.7101 20.5364
L9.7101 19.6898
" />
<path d="M9.7101 19.2664
L9.6497 19.3269
" />
<path d="M9.6497 19.3269
L9.7101 19.3874
" />
<path d="M9.7101 19.3874
L9.7706 19.3269
" />
<path d="M9.7706 19.3269
L9.7101 19.2664
" />
<path d="M9.7101 19.2664
L9.7101 19.3874
" />
<path d="M10.2545 20.4760
L10.3754 20.5364
" />
<path d="M10.3754 20.5364
L10.6173 20.5364
" />
<path d="M10.6173 20.5364
L10.7383 20.4760
" />
<path d="M10.7383 20.4760
L10.7987 20.3550
" />
<path d="M10.7987 20.3550
L10.7987 20.2945
" />
<path d="M10.7987 20.2945
L10.7383 20.1736
" />
<path d="M10.7383 20.1736
L10.6173 20.1131
" />
<path d="M10.6173 20.1131
L10.4359 20.1131
" />
<path d="M10.4359 20.1131
L10.3149 20.0526
" />
<path d="M10.3149 20.0526
L10.2545 19.9317
" />
<path d="M10.2545 19.9317
L10.2545 19.8712
" />
<path d="M10.2545 19.8712
L10.3149 19.7502
" />
<path d="M10.3149 19.7502
L10.4359 19.6898
" />
<path d="M10.4359 19.6898
L10.6173 19.6898
" />
<path d="M10.6173 19.6898
L10.7383 19.7502
" />
<path d="M11.8873 20.4760
L11.7664 20.5364
" />
<path d="M11.7664 20.5364
L11.5245 20.5364
" />
<path d="M11.5245 20.5364
L11.4035 20.4760
" />
<path d="M11.4035 20.4760
L11.3430 20.4155
" />
<path d="M11.3430 20.4155
L11.2826 20.2945
" />
<path d="M11.2826 20.2945
L11.2826 19.9317
" />
<path d="M11.2826 19.9317
L11.3430 19.8107
" />
<path d="M11.3430 19.8107
L11.4035 19.7502
" />
<path d="M11.4035 19.7502
L11.5245 19.6898
" />
<path d="M11.5245 19.6898
L11.7664 19.6898
" />
<path d="M11.7664 19.6898
L11.8873 19.7502
" />
<path d="M12.6131 20.5364
L12.4921 20.4760
" />
<path d="M12.4921 20.4760
L12.4316 20.4155
" />
<path d="M12.4316 20.4155
L12.3712 20.2945
" />
<path d="M12.3712 20.2945
L12.3712 19.9317
" />
<path d="M12.3712 19.9317
L12.4316 19.8107
" />
<path d="M12.4316 19.8107
L12.4921 19.7502
" />
<path d="M12.4921 19.7502
L12.6131 19.6898
" />
<path d="M12.6131 19.6898
L12.7945 19.6898
" />
<path d="M12.7945 19.6898
L12.9154 19.7502
" />
<path d="M12.9154 19.7502
L12.9759 19.8107
" />
<path d="M12.9759 19.8107
L13.0364 19.9317
" />
<path d="M13.0364 19.9317
L13.0364 20.2945
" />
<path d="M13.0364 20.2945
L12.9759 20.4155
" />
<path d="M12.9759 20.4155
L12.9154 20.4760
" />
<path d="M12.9154 20.4760
L12.7945 20.5364
" />
<path d="M12.7945 20.5364
L12.6131 20.5364
" />
<path d="M13.5806 19.6898
L13.5806 20.5364
" />
<path d="M13.5806 19.8107
L13.6411 19.7502
" />
<path d="M13.6411 19.7502
L13.7621 19.6898
" />
<path d="M13.7621 19.6898
L13.9435 19.6898
" />
<path d="M13.9435 19.6898
L14.0644 19.7502
" />
<path d="M14.0644 19.7502
L14.1249 19.8712
" />
<path d="M14.1249 19.8712
L14.1249 20.5364
" />
<path d="M14.7296 19.6898
L14.7296 20.5364
" />
<path d="M14.7296 19.8107
L14.7901 19.7502
" />
<path d="M14.7901 19.7502
L14.9111 19.6898
" />
<path d="M14.9111 19.6898
L15.0925 19.6898
" />
<path d="M15.0925 19.6898
L15.2134 19.7502
" />
<path d="M15.2134 19.7502
L15.2739 19.8712
" />
<path d="M15.2739 19.8712
L15.2739 20.5364
" />
<path d="M16.3624 20.4760
L16.2415 20.5364
" />
<path d="M16.2415 20.5364
L15.9996 20.5364
" />
<path d="M15.9996 20.5364
L15.8786 20.4760
" />
<path d="M15.8786 20.4760
L15.8182 20.3550
" />
<path d="M15.8182 20.3550
L15.8182 19.8712
" />
<path d="M15.8182 19.8712
L15.8786 19.7502
" />
<path d="M15.8786 19.7502
L15.9996 19.6898
" />
<path d="M15.9996 19.6898
L16.2415 19.6898
" />
<path d="M16.2415 19.6898
L16.3624 19.7502
" />
<path d="M16.3624 19.7502
L16.4229 19.8712
" />
<path d="M16.4229 19.8712
L16.4229 19.9921
" />
<path d="M16.4229 19.9921
L15.8182 20.1131
" />
<path d="M17.5115 20.4760
L17.3906 20.5364
" />
<path d="M17.3906 20.5364
L17.1487 20.5364
" />
<path d="M17.1487 20.5364
L17.0277 20.4760
" />
<path d="M17.0277 20.4760
L16.9672 20.4155
" />
<path d="M16.9672 20.4155
L16.9068 20.2945
" />
<path d="M16.9068 20.2945
L16.9068 19.9317
" />
<path d="M16.9068 19.9317
L16.9672 19.8107
" />
<path d="M16.9672 19.8107
L17.0277 19.7502
" />
<path d="M17.0277 19.7502
L17.1487 19.6898
" />
<path d="M17.1487 19.6898
L17.3906 19.6898
" />
<path d="M17.3906 19.6898
L17.5115 19.7502
" />
<path d="M17.8744 19.6898
L18.3582 19.6898
" />
<path d="M18.0558 19.2664
L18.0558 20.3550
" />
<path d="M18.0558 20.3550
L18.1163 20.4760
" />
<path d="M18.1163 20.4760
L18.2373 20.5364
" />
<path d="M18.2373 20.5364
L18.3582 20.5364
" />
<path d="M18.4792 20.6574
L19.4468 20.6574
" />
<path d="M19.6887 20.4760
L19.8701 20.5364
" />
<path d="M19.8701 20.5364
L20.1725 20.5364
" />
<path d="M20.1725 20.5364
L20.2934 20.4760
" />
<path d="M20.2934 20.4760
L20.3539 20.4155
" />
<path d="M20.3539 20.4155
L20.4144 20.2945
" />
<path d="M20.4144 20.2945
L20.4144 20.1736
" />
<path d="M20.4144 20.1736
L20.3539 20.0526
" />
<path d="M20.3539 20.0526
L20.2934 19.9921
" />
<path d="M20.2934 19.9921
L20.1725 19.9317
" />
<path d="M20.1725 19.9317
L19.9306 19.8712
" />
<path d="M19.9306 19.8712
L19.8096 19.8107
" />
<path d="M19.8096 19.8107
L19.7491 19.7502
" />
<path d="M19.7491 19.7502
L19.6887 19.6293
" />
<path d="M19.6887 19.6293
L19.6887 19.5083
" />
<path d="M19.6887 19.5083
L19.7491 19.3874
" />
<path d="M19.7491 19.3874
L19.8096 19.3269
" />
<path d="M19.8096 19.3269
L19.9306 19.2664
" />
<path d="M19.9306 19.2664
L20.2329 19.2664
" />
<path d="M20.2329 19.2664
L20.4144 19.3269
" />
<path d="M21.4424 20.4760
L21.3215 20.5364
" />
<path d="M21.3215 20.5364
L21.0796 20.5364
" />
<path d="M21.0796 20.5364
L20.9586 20.4760
" />
<path d="M20.9586 20.4760
L20.8982 20.3550
" />
<path d="M20.8982 20.3550
L20.8982 19.8712
" />
<path d="M20.8982 19.8712
L20.9586 19.7502
" />
<path d="M20.9586 19.7502
L21.0796 19.6898
" />
<path d="M21.0796 19.6898
L21.3215 19.6898
" />
<path d="M21.3215 19.6898
L21.4424 19.7502
" />
<path d="M21.4424 19.7502
L21.5029 19.8712
" />
<path d="M21.5029 19.8712
L21.5029 19.9921
" />
<path d="M21.5029 19.9921
L20.8982 20.1131
" />
<path d="M22.5915 20.5364
L22.5915 19.8712
" />
<path d="M22.5915 19.8712
L22.5310 19.7502
" />
<path d="M22.5310 19.7502
L22.4101 19.6898
" />
<path d="M22.4101 19.6898
L22.1682 19.6898
" />
<path d="M22.1682 19.6898
L22.0472 19.7502
" />
<path d="M22.5915 20.4760
L22.4706 20.5364
" />
<path d="M22.4706 20.5364
L22.1682 20.5364
" />
<path d="M22.1682 20.5364
L22.0472 20.4760
" />
<path d="M22.0472 20.4760
L21.9868 20.3550
" />
<path d="M21.9868 20.3550
L21.9868 20.2340
" />
<path d="M21.9868 20.2340
L22.0472 20.1131
" />
<path d="M22.0472 20.1131
L22.1682 20.0526
" />
<path d="M22.1682 20.0526
L22.4706 20.0526
" />
<path d="M22.4706 20.0526
L22.5915 19.9921
" />
<path d="M23.3777 20.5364
L23.2567 20.4760
" />
<path d="M23.2567 20.4760
L23.1962 20.3550
" />
<path d="M23.1962 20.3550
L23.1962 19.2664
" />
<path d="M24.3452 20.4760
L24.2243 20.5364
" />
<path d="M24.2243 20.5364
L23.9824 20.5364
" />
<path d="M23.9824 20.5364
L23.8614 20.4760
" />
<path d="M23.8614 20.4760
L23.8010 20.3550
" />
<path d="M23.8010 20.3550
L23.8010 19.8712
" />
<path d="M23.8010 19.8712
L23.8614 19.7502
" />
<path d="M23.8614 19.7502
L23.9824 19.6898
" />
<path d="M23.9824 19.6898
L24.2243 19.6898
" />
<path d="M24.2243 19.6898
L24.3452 19.7502
" />
<path d="M24.3452 19.7502
L24.4057 19.8712
" />
<path d="M24.4057 19.8712
L24.4057 19.9921
" />
<path d="M24.4057 19.9921
L23.8010 20.1131
" />
<path d="M25.4943 20.5364
L25.4943 19.2664
" />
<path d="M25.4943 20.4760
L25.3734 20.5364
" />
<path d="M25.3734 20.5364
L25.1315 20.5364
" />
<path d="M25.1315 20.5364
L25.0105 20.4760
" />
<path d="M25.0105 20.4760
L24.9500 20.4155
" />
<path d="M24.9500 20.4155
L24.8896 20.2945
" />
<path d="M24.8896 20.2945
L24.8896 19.9317
" />
<path d="M24.8896 19.9317
L24.9500 19.8107
" />
<path d="M24.9500 19.8107
L25.0105 19.7502
" />
<path d="M25.0105 19.7502
L25.1315 19.6898
" />
<path d="M25.1315 19.6898
L25.3734 19.6898
" />
<path d="M25.3734 19.6898
L25.4943 19.7502
" />
<path d="M26.2805 20.4155
L26.3409 20.4760
" />
<path d="M26.3409 20.4760
L26.2805 20.5364
" />
<path d="M26.2805 20.5364
L26.2200 20.4760
" />
<path d="M26.2200 20.4760
L26.2805 20.4155
" />
<path d="M26.2805 20.4155
L26.2805 20.5364
" />
<path d="M26.0386 19.3269
L26.1595 19.2664
" />
<path d="M26.1595 19.2664
L26.4619 19.2664
" />
<path d="M26.4619 19.2664
L26.5828 19.3269
" />
<path d="M26.5828 19.3269
L26.6433 19.4479
" />
<path d="M26.6433 19.4479
L26.6433 19.5688
" />
<path d="M26.6433 19.5688
L26.5828 19.6898
" />
<path d="M26.5828 19.6898
L26.5224 19.7502
" />
<path d="M26.5224 19.7502
L26.4014 19.8107
" />
<path d="M26.4014 19.8107
L26.3409 19.8712
" />
<path d="M26.3409 19.8712
L26.2805 19.9921
" />
<path d="M26.2805 19.9921
L26.2805 20.0526
" />
</g></g>
</svg>
