<?xml version="1.0" standalone="no"?>
 <!DOCTYPE svg PUBLIC "-//W3C//DTD SVG 1.1//EN"
 "http://www.w3.org/Graphics/SVG/1.1/DTD/svg11.dtd">
<svg
  xmlns:svg="http://www.w3.org/2000/svg"
  xmlns="http://www.w3.org/2000/svg"
  xmlns:xlink="http://www.w3.org/1999/xlink"
  xmlns:inkscape="http://www.inkscape.org/namespaces/inkscape"
  version="1.1"
  width="37.7952mm" height="22.8854mm" viewBox="0.0000 0.0000 37.7952 22.8854">
<title>SVG Image created as Quick Disconnect - Source Sealed_unit1.svg date 2026-05-31T14:38:12 </title>
  <desc>Image generated by Eeschema-SVG </desc>
<g style="fill:#000000; fill-opacity:1.0000;stroke:#000000; stroke-opacity:1.0000;
stroke-linecap:round; stroke-linejoin:round;"
 transform="translate(0 0) scale(1 1)">
</g>
<g style="fill:none;
stroke:#840000; stroke-width:0.1524; stroke-opacity:1;
stroke-linecap:round; stroke-linejoin:round;">
<rect x="13.897600" y="7.956900" width="10.000000" height="4.000000" rx="0.000000" />
<path style="fill:none;
stroke:#840000; stroke-width:0.1524; stroke-opacity:1;
stroke-linecap:round; stroke-linejoin:round;fill:none"
d="M 13.8976,9.9569
23.8976,9.9569
" />
<circle cx="15.3976" cy="9.9569" r="1.0000" />
<path style="fill:none;
stroke:#840000; stroke-width:0.1524; stroke-opacity:1;
stroke-linecap:round; stroke-linejoin:round;fill:none"
d="M 16.8976,9.9569
14.8976,7.9569
" />
<path style="fill:none;
stroke:#840000; stroke-width:0.1524; stroke-opacity:1;
stroke-linecap:round; stroke-linejoin:round;fill:none"
d="M 16.8976,9.9569
14.8976,11.9569
" />
<path style="fill:none;
stroke:#840000; stroke-width:0.1524; stroke-opacity:1;
stroke-linecap:round; stroke-linejoin:round;fill:none"
d="M 18.8976,8.9569
18.8976,10.9569
" />
<path style="fill:none;
stroke:#840000; stroke-width:0.1524; stroke-opacity:1;
stroke-linecap:round; stroke-linejoin:round;fill:none"
d="M 20.8976,9.9569
22.8976,7.9569
" />
<path style="fill:none;
stroke:#840000; stroke-width:0.1524; stroke-opacity:1;
stroke-linecap:round; stroke-linejoin:round;fill:none"
d="M 20.8976,9.9569
22.8976,11.9569
" />
<path style="fill:#840000; fill-opacity:1.0000;
stroke:#840000; stroke-width:0.1000; stroke-opacity:1;
stroke-linecap:round; stroke-linejoin:round;fill-rule:evenodd;"
d="M 12.8976,9.9569
12.8976,9.7069
13.8976,9.9569
12.8976,10.2069
Z" />
<path style="fill:#840000; fill-opacity:1.0000;
stroke:#840000; stroke-width:0.1000; stroke-opacity:1;
stroke-linecap:round; stroke-linejoin:round;fill-rule:evenodd;"
d="M 24.8976,9.9569
24.8976,9.7069
25.8976,9.9569
24.8976,10.2069
Z" />
</g>
<g style="fill:none;
stroke:#840000; stroke-width:0.1524; stroke-opacity:1;
stroke-linecap:round; stroke-linejoin:round;">
<path d="M13.8976 9.9569
L10.8976 9.9569
" />
<path d="M23.8976 9.9569
L26.8976 9.9569
" />
</g>
<g style="fill:none;
stroke:#006464; stroke-width:0.1524; stroke-opacity:1;
stroke-linecap:round; stroke-linejoin:round;">
<text x="18.8976" y="20.5919"
textLength="32.5578" font-size="1.6933" lengthAdjust="spacingAndGlyphs"
text-anchor="middle" opacity="0" stroke-opacity="0">Quick_Disconnect_Source_Sealed?</text>
<g class="stroked-text"><desc>Quick_Disconnect_Source_Sealed?</desc>
<path d="M3.8693 20.6574
L3.7483 20.5969
" />
<path d="M3.7483 20.5969
L3.6274 20.4760
" />
<path d="M3.6274 20.4760
L3.4460 20.2945
" />
<path d="M3.4460 20.2945
L3.3250 20.2340
" />
<path d="M3.3250 20.2340
L3.2041 20.2340
" />
<path d="M3.2645 20.5364
L3.1436 20.4760
" />
<path d="M3.1436 20.4760
L3.0226 20.3550
" />
<path d="M3.0226 20.3550
L2.9622 20.1131
" />
<path d="M2.9622 20.1131
L2.9622 19.6898
" />
<path d="M2.9622 19.6898
L3.0226 19.4479
" />
<path d="M3.0226 19.4479
L3.1436 19.3269
" />
<path d="M3.1436 19.3269
L3.2645 19.2664
" />
<path d="M3.2645 19.2664
L3.5064 19.2664
" />
<path d="M3.5064 19.2664
L3.6274 19.3269
" />
<path d="M3.6274 19.3269
L3.7483 19.4479
" />
<path d="M3.7483 19.4479
L3.8088 19.6898
" />
<path d="M3.8088 19.6898
L3.8088 20.1131
" />
<path d="M3.8088 20.1131
L3.7483 20.3550
" />
<path d="M3.7483 20.3550
L3.6274 20.4760
" />
<path d="M3.6274 20.4760
L3.5064 20.5364
" />
<path d="M3.5064 20.5364
L3.2645 20.5364
" />
<path d="M4.8974 19.6898
L4.8974 20.5364
" />
<path d="M4.3531 19.6898
L4.3531 20.3550
" />
<path d="M4.3531 20.3550
L4.4136 20.4760
" />
<path d="M4.4136 20.4760
L4.5346 20.5364
" />
<path d="M4.5346 20.5364
L4.7160 20.5364
" />
<path d="M4.7160 20.5364
L4.8369 20.4760
" />
<path d="M4.8369 20.4760
L4.8974 20.4155
" />
<path d="M5.5021 20.5364
L5.5021 19.6898
" />
<path d="M5.5021 19.2664
L5.4417 19.3269
" />
<path d="M5.4417 19.3269
L5.5021 19.3874
" />
<path d="M5.5021 19.3874
L5.5626 19.3269
" />
<path d="M5.5626 19.3269
L5.5021 19.2664
" />
<path d="M5.5021 19.2664
L5.5021 19.3874
" />
<path d="M6.6512 20.4760
L6.5303 20.5364
" />
<path d="M6.5303 20.5364
L6.2884 20.5364
" />
<path d="M6.2884 20.5364
L6.1674 20.4760
" />
<path d="M6.1674 20.4760
L6.1069 20.4155
" />
<path d="M6.1069 20.4155
L6.0465 20.2945
" />
<path d="M6.0465 20.2945
L6.0465 19.9317
" />
<path d="M6.0465 19.9317
L6.1069 19.8107
" />
<path d="M6.1069 19.8107
L6.1674 19.7502
" />
<path d="M6.1674 19.7502
L6.2884 19.6898
" />
<path d="M6.2884 19.6898
L6.5303 19.6898
" />
<path d="M6.5303 19.6898
L6.6512 19.7502
" />
<path d="M7.1955 20.5364
L7.1955 19.2664
" />
<path d="M7.3165 20.0526
L7.6793 20.5364
" />
<path d="M7.6793 19.6898
L7.1955 20.1736
" />
<path d="M7.9213 20.6574
L8.8889 20.6574
" />
<path d="M9.1912 20.5364
L9.1912 19.2664
" />
<path d="M9.1912 19.2664
L9.4936 19.2664
" />
<path d="M9.4936 19.2664
L9.6750 19.3269
" />
<path d="M9.6750 19.3269
L9.7960 19.4479
" />
<path d="M9.7960 19.4479
L9.8565 19.5688
" />
<path d="M9.8565 19.5688
L9.9169 19.8107
" />
<path d="M9.9169 19.8107
L9.9169 19.9921
" />
<path d="M9.9169 19.9921
L9.8565 20.2340
" />
<path d="M9.8565 20.2340
L9.7960 20.3550
" />
<path d="M9.7960 20.3550
L9.6750 20.4760
" />
<path d="M9.6750 20.4760
L9.4936 20.5364
" />
<path d="M9.4936 20.5364
L9.1912 20.5364
" />
<path d="M10.4612 20.5364
L10.4612 19.6898
" />
<path d="M10.4612 19.2664
L10.4008 19.3269
" />
<path d="M10.4008 19.3269
L10.4612 19.3874
" />
<path d="M10.4612 19.3874
L10.5217 19.3269
" />
<path d="M10.5217 19.3269
L10.4612 19.2664
" />
<path d="M10.4612 19.2664
L10.4612 19.3874
" />
<path d="M11.0056 20.4760
L11.1265 20.5364
" />
<path d="M11.1265 20.5364
L11.3684 20.5364
" />
<path d="M11.3684 20.5364
L11.4894 20.4760
" />
<path d="M11.4894 20.4760
L11.5498 20.3550
" />
<path d="M11.5498 20.3550
L11.5498 20.2945
" />
<path d="M11.5498 20.2945
L11.4894 20.1736
" />
<path d="M11.4894 20.1736
L11.3684 20.1131
" />
<path d="M11.3684 20.1131
L11.1870 20.1131
" />
<path d="M11.1870 20.1131
L11.0660 20.0526
" />
<path d="M11.0660 20.0526
L11.0056 19.9317
" />
<path d="M11.0056 19.9317
L11.0056 19.8712
" />
<path d="M11.0056 19.8712
L11.0660 19.7502
" />
<path d="M11.0660 19.7502
L11.1870 19.6898
" />
<path d="M11.1870 19.6898
L11.3684 19.6898
" />
<path d="M11.3684 19.6898
L11.4894 19.7502
" />
<path d="M12.6384 20.4760
L12.5175 20.5364
" />
<path d="M12.5175 20.5364
L12.2756 20.5364
" />
<path d="M12.2756 20.5364
L12.1546 20.4760
" />
<path d="M12.1546 20.4760
L12.0941 20.4155
" />
<path d="M12.0941 20.4155
L12.0337 20.2945
" />
<path d="M12.0337 20.2945
L12.0337 19.9317
" />
<path d="M12.0337 19.9317
L12.0941 19.8107
" />
<path d="M12.0941 19.8107
L12.1546 19.7502
" />
<path d="M12.1546 19.7502
L12.2756 19.6898
" />
<path d="M12.2756 19.6898
L12.5175 19.6898
" />
<path d="M12.5175 19.6898
L12.6384 19.7502
" />
<path d="M13.3642 20.5364
L13.2432 20.4760
" />
<path d="M13.2432 20.4760
L13.1827 20.4155
" />
<path d="M13.1827 20.4155
L13.1223 20.2945
" />
<path d="M13.1223 20.2945
L13.1223 19.9317
" />
<path d="M13.1223 19.9317
L13.1827 19.8107
" />
<path d="M13.1827 19.8107
L13.2432 19.7502
" />
<path d="M13.2432 19.7502
L13.3642 19.6898
" />
<path d="M13.3642 19.6898
L13.5456 19.6898
" />
<path d="M13.5456 19.6898
L13.6665 19.7502
" />
<path d="M13.6665 19.7502
L13.7270 19.8107
" />
<path d="M13.7270 19.8107
L13.7875 19.9317
" />
<path d="M13.7875 19.9317
L13.7875 20.2945
" />
<path d="M13.7875 20.2945
L13.7270 20.4155
" />
<path d="M13.7270 20.4155
L13.6665 20.4760
" />
<path d="M13.6665 20.4760
L13.5456 20.5364
" />
<path d="M13.5456 20.5364
L13.3642 20.5364
" />
<path d="M14.3317 19.6898
L14.3317 20.5364
" />
<path d="M14.3317 19.8107
L14.3922 19.7502
" />
<path d="M14.3922 19.7502
L14.5132 19.6898
" />
<path d="M14.5132 19.6898
L14.6946 19.6898
" />
<path d="M14.6946 19.6898
L14.8155 19.7502
" />
<path d="M14.8155 19.7502
L14.8760 19.8712
" />
<path d="M14.8760 19.8712
L14.8760 20.5364
" />
<path d="M15.4807 19.6898
L15.4807 20.5364
" />
<path d="M15.4807 19.8107
L15.5412 19.7502
" />
<path d="M15.5412 19.7502
L15.6622 19.6898
" />
<path d="M15.6622 19.6898
L15.8436 19.6898
" />
<path d="M15.8436 19.6898
L15.9645 19.7502
" />
<path d="M15.9645 19.7502
L16.0250 19.8712
" />
<path d="M16.0250 19.8712
L16.0250 20.5364
" />
<path d="M17.1135 20.4760
L16.9926 20.5364
" />
<path d="M16.9926 20.5364
L16.7507 20.5364
" />
<path d="M16.7507 20.5364
L16.6297 20.4760
" />
<path d="M16.6297 20.4760
L16.5693 20.3550
" />
<path d="M16.5693 20.3550
L16.5693 19.8712
" />
<path d="M16.5693 19.8712
L16.6297 19.7502
" />
<path d="M16.6297 19.7502
L16.7507 19.6898
" />
<path d="M16.7507 19.6898
L16.9926 19.6898
" />
<path d="M16.9926 19.6898
L17.1135 19.7502
" />
<path d="M17.1135 19.7502
L17.1740 19.8712
" />
<path d="M17.1740 19.8712
L17.1740 19.9921
" />
<path d="M17.1740 19.9921
L16.5693 20.1131
" />
<path d="M18.2626 20.4760
L18.1417 20.5364
" />
<path d="M18.1417 20.5364
L17.8998 20.5364
" />
<path d="M17.8998 20.5364
L17.7788 20.4760
" />
<path d="M17.7788 20.4760
L17.7183 20.4155
" />
<path d="M17.7183 20.4155
L17.6579 20.2945
" />
<path d="M17.6579 20.2945
L17.6579 19.9317
" />
<path d="M17.6579 19.9317
L17.7183 19.8107
" />
<path d="M17.7183 19.8107
L17.7788 19.7502
" />
<path d="M17.7788 19.7502
L17.8998 19.6898
" />
<path d="M17.8998 19.6898
L18.1417 19.6898
" />
<path d="M18.1417 19.6898
L18.2626 19.7502
" />
<path d="M18.6255 19.6898
L19.1093 19.6898
" />
<path d="M18.8069 19.2664
L18.8069 20.3550
" />
<path d="M18.8069 20.3550
L18.8674 20.4760
" />
<path d="M18.8674 20.4760
L18.9884 20.5364
" />
<path d="M18.9884 20.5364
L19.1093 20.5364
" />
<path d="M19.2303 20.6574
L20.1979 20.6574
" />
<path d="M20.4398 20.4760
L20.6212 20.5364
" />
<path d="M20.6212 20.5364
L20.9236 20.5364
" />
<path d="M20.9236 20.5364
L21.0445 20.4760
" />
<path d="M21.0445 20.4760
L21.1050 20.4155
" />
<path d="M21.1050 20.4155
L21.1655 20.2945
" />
<path d="M21.1655 20.2945
L21.1655 20.1736
" />
<path d="M21.1655 20.1736
L21.1050 20.0526
" />
<path d="M21.1050 20.0526
L21.0445 19.9921
" />
<path d="M21.0445 19.9921
L20.9236 19.9317
" />
<path d="M20.9236 19.9317
L20.6817 19.8712
" />
<path d="M20.6817 19.8712
L20.5607 19.8107
" />
<path d="M20.5607 19.8107
L20.5002 19.7502
" />
<path d="M20.5002 19.7502
L20.4398 19.6293
" />
<path d="M20.4398 19.6293
L20.4398 19.5083
" />
<path d="M20.4398 19.5083
L20.5002 19.3874
" />
<path d="M20.5002 19.3874
L20.5607 19.3269
" />
<path d="M20.5607 19.3269
L20.6817 19.2664
" />
<path d="M20.6817 19.2664
L20.9840 19.2664
" />
<path d="M20.9840 19.2664
L21.1655 19.3269
" />
<path d="M21.8912 20.5364
L21.7702 20.4760
" />
<path d="M21.7702 20.4760
L21.7097 20.4155
" />
<path d="M21.7097 20.4155
L21.6493 20.2945
" />
<path d="M21.6493 20.2945
L21.6493 19.9317
" />
<path d="M21.6493 19.9317
L21.7097 19.8107
" />
<path d="M21.7097 19.8107
L21.7702 19.7502
" />
<path d="M21.7702 19.7502
L21.8912 19.6898
" />
<path d="M21.8912 19.6898
L22.0726 19.6898
" />
<path d="M22.0726 19.6898
L22.1935 19.7502
" />
<path d="M22.1935 19.7502
L22.2540 19.8107
" />
<path d="M22.2540 19.8107
L22.3145 19.9317
" />
<path d="M22.3145 19.9317
L22.3145 20.2945
" />
<path d="M22.3145 20.2945
L22.2540 20.4155
" />
<path d="M22.2540 20.4155
L22.1935 20.4760
" />
<path d="M22.1935 20.4760
L22.0726 20.5364
" />
<path d="M22.0726 20.5364
L21.8912 20.5364
" />
<path d="M23.4030 19.6898
L23.4030 20.5364
" />
<path d="M22.8587 19.6898
L22.8587 20.3550
" />
<path d="M22.8587 20.3550
L22.9192 20.4760
" />
<path d="M22.9192 20.4760
L23.0402 20.5364
" />
<path d="M23.0402 20.5364
L23.2216 20.5364
" />
<path d="M23.2216 20.5364
L23.3425 20.4760
" />
<path d="M23.3425 20.4760
L23.4030 20.4155
" />
<path d="M24.0077 20.5364
L24.0077 19.6898
" />
<path d="M24.0077 19.9317
L24.0682 19.8107
" />
<path d="M24.0682 19.8107
L24.1287 19.7502
" />
<path d="M24.1287 19.7502
L24.2496 19.6898
" />
<path d="M24.2496 19.6898
L24.3706 19.6898
" />
<path d="M25.3382 20.4760
L25.2173 20.5364
" />
<path d="M25.2173 20.5364
L24.9754 20.5364
" />
<path d="M24.9754 20.5364
L24.8544 20.4760
" />
<path d="M24.8544 20.4760
L24.7939 20.4155
" />
<path d="M24.7939 20.4155
L24.7335 20.2945
" />
<path d="M24.7335 20.2945
L24.7335 19.9317
" />
<path d="M24.7335 19.9317
L24.7939 19.8107
" />
<path d="M24.7939 19.8107
L24.8544 19.7502
" />
<path d="M24.8544 19.7502
L24.9754 19.6898
" />
<path d="M24.9754 19.6898
L25.2173 19.6898
" />
<path d="M25.2173 19.6898
L25.3382 19.7502
" />
<path d="M26.3663 20.4760
L26.2454 20.5364
" />
<path d="M26.2454 20.5364
L26.0035 20.5364
" />
<path d="M26.0035 20.5364
L25.8825 20.4760
" />
<path d="M25.8825 20.4760
L25.8221 20.3550
" />
<path d="M25.8221 20.3550
L25.8221 19.8712
" />
<path d="M25.8221 19.8712
L25.8825 19.7502
" />
<path d="M25.8825 19.7502
L26.0035 19.6898
" />
<path d="M26.0035 19.6898
L26.2454 19.6898
" />
<path d="M26.2454 19.6898
L26.3663 19.7502
" />
<path d="M26.3663 19.7502
L26.4268 19.8712
" />
<path d="M26.4268 19.8712
L26.4268 19.9921
" />
<path d="M26.4268 19.9921
L25.8221 20.1131
" />
<path d="M26.6688 20.6574
L27.6364 20.6574
" />
<path d="M27.8783 20.4760
L28.0597 20.5364
" />
<path d="M28.0597 20.5364
L28.3621 20.5364
" />
<path d="M28.3621 20.5364
L28.4830 20.4760
" />
<path d="M28.4830 20.4760
L28.5435 20.4155
" />
<path d="M28.5435 20.4155
L28.6040 20.2945
" />
<path d="M28.6040 20.2945
L28.6040 20.1736
" />
<path d="M28.6040 20.1736
L28.5435 20.0526
" />
<path d="M28.5435 20.0526
L28.4830 19.9921
" />
<path d="M28.4830 19.9921
L28.3621 19.9317
" />
<path d="M28.3621 19.9317
L28.1202 19.8712
" />
<path d="M28.1202 19.8712
L27.9992 19.8107
" />
<path d="M27.9992 19.8107
L27.9387 19.7502
" />
<path d="M27.9387 19.7502
L27.8783 19.6293
" />
<path d="M27.8783 19.6293
L27.8783 19.5083
" />
<path d="M27.8783 19.5083
L27.9387 19.3874
" />
<path d="M27.9387 19.3874
L27.9992 19.3269
" />
<path d="M27.9992 19.3269
L28.1202 19.2664
" />
<path d="M28.1202 19.2664
L28.4225 19.2664
" />
<path d="M28.4225 19.2664
L28.6040 19.3269
" />
<path d="M29.6320 20.4760
L29.5111 20.5364
" />
<path d="M29.5111 20.5364
L29.2692 20.5364
" />
<path d="M29.2692 20.5364
L29.1482 20.4760
" />
<path d="M29.1482 20.4760
L29.0878 20.3550
" />
<path d="M29.0878 20.3550
L29.0878 19.8712
" />
<path d="M29.0878 19.8712
L29.1482 19.7502
" />
<path d="M29.1482 19.7502
L29.2692 19.6898
" />
<path d="M29.2692 19.6898
L29.5111 19.6898
" />
<path d="M29.5111 19.6898
L29.6320 19.7502
" />
<path d="M29.6320 19.7502
L29.6925 19.8712
" />
<path d="M29.6925 19.8712
L29.6925 19.9921
" />
<path d="M29.6925 19.9921
L29.0878 20.1131
" />
<path d="M30.7811 20.5364
L30.7811 19.8712
" />
<path d="M30.7811 19.8712
L30.7206 19.7502
" />
<path d="M30.7206 19.7502
L30.5997 19.6898
" />
<path d="M30.5997 19.6898
L30.3578 19.6898
" />
<path d="M30.3578 19.6898
L30.2368 19.7502
" />
<path d="M30.7811 20.4760
L30.6602 20.5364
" />
<path d="M30.6602 20.5364
L30.3578 20.5364
" />
<path d="M30.3578 20.5364
L30.2368 20.4760
" />
<path d="M30.2368 20.4760
L30.1764 20.3550
" />
<path d="M30.1764 20.3550
L30.1764 20.2340
" />
<path d="M30.1764 20.2340
L30.2368 20.1131
" />
<path d="M30.2368 20.1131
L30.3578 20.0526
" />
<path d="M30.3578 20.0526
L30.6602 20.0526
" />
<path d="M30.6602 20.0526
L30.7811 19.9921
" />
<path d="M31.5673 20.5364
L31.4463 20.4760
" />
<path d="M31.4463 20.4760
L31.3858 20.3550
" />
<path d="M31.3858 20.3550
L31.3858 19.2664
" />
<path d="M32.5348 20.4760
L32.4139 20.5364
" />
<path d="M32.4139 20.5364
L32.1720 20.5364
" />
<path d="M32.1720 20.5364
L32.0510 20.4760
" />
<path d="M32.0510 20.4760
L31.9906 20.3550
" />
<path d="M31.9906 20.3550
L31.9906 19.8712
" />
<path d="M31.9906 19.8712
L32.0510 19.7502
" />
<path d="M32.0510 19.7502
L32.1720 19.6898
" />
<path d="M32.1720 19.6898
L32.4139 19.6898
" />
<path d="M32.4139 19.6898
L32.5348 19.7502
" />
<path d="M32.5348 19.7502
L32.5953 19.8712
" />
<path d="M32.5953 19.8712
L32.5953 19.9921
" />
<path d="M32.5953 19.9921
L31.9906 20.1131
" />
<path d="M33.6839 20.5364
L33.6839 19.2664
" />
<path d="M33.6839 20.4760
L33.5630 20.5364
" />
<path d="M33.5630 20.5364
L33.3211 20.5364
" />
<path d="M33.3211 20.5364
L33.2001 20.4760
" />
<path d="M33.2001 20.4760
L33.1396 20.4155
" />
<path d="M33.1396 20.4155
L33.0792 20.2945
" />
<path d="M33.0792 20.2945
L33.0792 19.9317
" />
<path d="M33.0792 19.9317
L33.1396 19.8107
" />
<path d="M33.1396 19.8107
L33.2001 19.7502
" />
<path d="M33.2001 19.7502
L33.3211 19.6898
" />
<path d="M33.3211 19.6898
L33.5630 19.6898
" />
<path d="M33.5630 19.6898
L33.6839 19.7502
" />
<path d="M34.4701 20.4155
L34.5305 20.4760
" />
<path d="M34.5305 20.4760
L34.4701 20.5364
" />
<path d="M34.4701 20.5364
L34.4096 20.4760
" />
<path d="M34.4096 20.4760
L34.4701 20.4155
" />
<path d="M34.4701 20.4155
L34.4701 20.5364
" />
<path d="M34.2282 19.3269
L34.3491 19.2664
" />
<path d="M34.3491 19.2664
L34.6515 19.2664
" />
<path d="M34.6515 19.2664
L34.7724 19.3269
" />
<path d="M34.7724 19.3269
L34.8329 19.4479
" />
<path d="M34.8329 19.4479
L34.8329 19.5688
" />
<path d="M34.8329 19.5688
L34.7724 19.6898
" />
<path d="M34.7724 19.6898
L34.7120 19.7502
" />
<path d="M34.7120 19.7502
L34.5910 19.8107
" />
<path d="M34.5910 19.8107
L34.5305 19.8712
" />
<path d="M34.5305 19.8712
L34.4701 19.9921
" />
<path d="M34.4701 19.9921
L34.4701 20.0526
" />
</g></g>
</svg>
