<!-- Copyright 2026 Kingston University Rocket Engineering -->

<?xml version="1.0" standalone="no"?>
 <!DOCTYPE svg PUBLIC "-//W3C//DTD SVG 1.1//EN"
 "http://www.w3.org/Graphics/SVG/1.1/DTD/svg11.dtd">
<svg
  xmlns:svg="http://www.w3.org/2000/svg"
  xmlns="http://www.w3.org/2000/svg"
  xmlns:xlink="http://www.w3.org/1999/xlink"
  xmlns:inkscape="http://www.inkscape.org/namespaces/inkscape"
  version="1.1"
  width="19.3294mm" height="22.8854mm" viewBox="0.0000 0.0000 19.3294 22.8854">
<title>SVG Image created as Cap_unit1.svg date 2026-05-31T11:36:30 </title>
  <desc>Image generated by Eeschema-SVG </desc>
<g style="fill:#000000; fill-opacity:1.0000;stroke:#000000; stroke-opacity:1.0000;
stroke-linecap:round; stroke-linejoin:round;"
 transform="translate(0 0) scale(1 1)">
</g>
<g style="fill:none;
stroke:#840000; stroke-width:0.1000; stroke-opacity:1;
stroke-linecap:round; stroke-linejoin:round;">
<path d="M9.6647 12.9569 A2.9997 2.9997 0.0 0 0 12.6647 9.9569" />
<path d="M12.6653 9.9569 A3.0003 3.0003 0.0 0 0 9.6647 6.9569" />
<path style="fill:none;
stroke:#840000; stroke-width:0.1000; stroke-opacity:1;
stroke-linecap:round; stroke-linejoin:round;fill:none"
d="M 9.6647,6.9569
9.6647,12.9569
" />
</g>
<g style="fill:none;
stroke:#840000; stroke-width:0.1524; stroke-opacity:1;
stroke-linecap:round; stroke-linejoin:round;">
<path d="M9.6647 9.9569
L6.6647 9.9569
" />
</g>
<g style="fill:none;
stroke:#006464; stroke-width:0.1524; stroke-opacity:1;
stroke-linecap:round; stroke-linejoin:round;">
<text x="9.6647" y="20.5919"
textLength="4.8598" font-size="1.6933" lengthAdjust="spacingAndGlyphs"
text-anchor="middle" opacity="0" stroke-opacity="0">Cap?</text>
<g class="stroked-text"><desc>Cap?</desc>
<path d="M8.3644 20.4155
L8.3040 20.4760
" />
<path d="M8.3040 20.4760
L8.1225 20.5364
" />
<path d="M8.1225 20.5364
L8.0016 20.5364
" />
<path d="M8.0016 20.5364
L7.8202 20.4760
" />
<path d="M7.8202 20.4760
L7.6992 20.3550
" />
<path d="M7.6992 20.3550
L7.6387 20.2340
" />
<path d="M7.6387 20.2340
L7.5783 19.9921
" />
<path d="M7.5783 19.9921
L7.5783 19.8107
" />
<path d="M7.5783 19.8107
L7.6387 19.5688
" />
<path d="M7.6387 19.5688
L7.6992 19.4479
" />
<path d="M7.6992 19.4479
L7.8202 19.3269
" />
<path d="M7.8202 19.3269
L8.0016 19.2664
" />
<path d="M8.0016 19.2664
L8.1225 19.2664
" />
<path d="M8.1225 19.2664
L8.3040 19.3269
" />
<path d="M8.3040 19.3269
L8.3644 19.3874
" />
<path d="M9.4530 20.5364
L9.4530 19.8712
" />
<path d="M9.4530 19.8712
L9.3925 19.7502
" />
<path d="M9.3925 19.7502
L9.2716 19.6898
" />
<path d="M9.2716 19.6898
L9.0297 19.6898
" />
<path d="M9.0297 19.6898
L8.9087 19.7502
" />
<path d="M9.4530 20.4760
L9.3321 20.5364
" />
<path d="M9.3321 20.5364
L9.0297 20.5364
" />
<path d="M9.0297 20.5364
L8.9087 20.4760
" />
<path d="M8.9087 20.4760
L8.8483 20.3550
" />
<path d="M8.8483 20.3550
L8.8483 20.2340
" />
<path d="M8.8483 20.2340
L8.9087 20.1131
" />
<path d="M8.9087 20.1131
L9.0297 20.0526
" />
<path d="M9.0297 20.0526
L9.3321 20.0526
" />
<path d="M9.3321 20.0526
L9.4530 19.9921
" />
<path d="M10.0577 19.6898
L10.0577 20.9598
" />
<path d="M10.0577 19.7502
L10.1787 19.6898
" />
<path d="M10.1787 19.6898
L10.4206 19.6898
" />
<path d="M10.4206 19.6898
L10.5415 19.7502
" />
<path d="M10.5415 19.7502
L10.6020 19.8107
" />
<path d="M10.6020 19.8107
L10.6625 19.9317
" />
<path d="M10.6625 19.9317
L10.6625 20.2945
" />
<path d="M10.6625 20.2945
L10.6020 20.4155
" />
<path d="M10.6020 20.4155
L10.5415 20.4760
" />
<path d="M10.5415 20.4760
L10.4206 20.5364
" />
<path d="M10.4206 20.5364
L10.1787 20.5364
" />
<path d="M10.1787 20.5364
L10.0577 20.4760
" />
<path d="M11.3882 20.4155
L11.4486 20.4760
" />
<path d="M11.4486 20.4760
L11.3882 20.5364
" />
<path d="M11.3882 20.5364
L11.3277 20.4760
" />
<path d="M11.3277 20.4760
L11.3882 20.4155
" />
<path d="M11.3882 20.4155
L11.3882 20.5364
" />
<path d="M11.1463 19.3269
L11.2672 19.2664
" />
<path d="M11.2672 19.2664
L11.5696 19.2664
" />
<path d="M11.5696 19.2664
L11.6905 19.3269
" />
<path d="M11.6905 19.3269
L11.7510 19.4479
" />
<path d="M11.7510 19.4479
L11.7510 19.5688
" />
<path d="M11.7510 19.5688
L11.6905 19.6898
" />
<path d="M11.6905 19.6898
L11.6301 19.7502
" />
<path d="M11.6301 19.7502
L11.5091 19.8107
" />
<path d="M11.5091 19.8107
L11.4486 19.8712
" />
<path d="M11.4486 19.8712
L11.3882 19.9921
" />
<path d="M11.3882 19.9921
L11.3882 20.0526
" />
</g></g>
</svg>
