<!-- Copyright 2026 Kingston University Rocket Engineering -->

<?xml version="1.0" standalone="no"?>
 <!DOCTYPE svg PUBLIC "-//W3C//DTD SVG 1.1//EN"
 "http://www.w3.org/Graphics/SVG/1.1/DTD/svg11.dtd">
<svg
  xmlns:svg="http://www.w3.org/2000/svg"
  xmlns="http://www.w3.org/2000/svg"
  xmlns:xlink="http://www.w3.org/1999/xlink"
  xmlns:inkscape="http://www.inkscape.org/namespaces/inkscape"
  version="1.1"
  width="20.1168mm" height="23.2918mm" viewBox="0.0000 0.0000 20.1168 23.2918">
<title>SVG Image created as Cross_unit1.svg date 2026-05-31T11:36:30 </title>
  <desc>Image generated by Eeschema-SVG </desc>
<g style="fill:#000000; fill-opacity:1.0000;stroke:#000000; stroke-opacity:1.0000;
stroke-linecap:round; stroke-linejoin:round;"
 transform="translate(0 0) scale(1 1)">
<path style="fill:none;
stroke:#840000; stroke-width:0.2000; stroke-opacity:1;
stroke-linecap:round; stroke-linejoin:round;fill:none"
d="M 5.0584,10.3256
15.0584,10.3256
" />
<path style="fill:none;
stroke:#840000; stroke-width:0.2000; stroke-opacity:1;
stroke-linecap:round; stroke-linejoin:round;fill:none"
d="M 10.0584,5.3256
10.0584,15.3256
" />
</g>
<g style="fill:#840000; fill-opacity:1.0000;
stroke:#840000; stroke-width:0.1524; stroke-opacity:1;
stroke-linecap:round; stroke-linejoin:round;">
<circle cx="10.0584" cy="10.3256" r="0.4000" />
</g>
<g style="fill:none;
stroke:#840000; stroke-width:0.1524; stroke-opacity:1;
stroke-linecap:round; stroke-linejoin:round;">
<path d="M5.0584 10.3256
L2.0584 10.3256
" />
<path d="M10.0584 5.3256
L10.0584 2.3256
" />
<path d="M10.0584 15.3256
L10.0584 18.3256
" />
<path d="M15.0584 10.3256
L18.0584 10.3256
" />
</g>
<g style="fill:none;
stroke:#006464; stroke-width:0.1524; stroke-opacity:1;
stroke-linecap:round; stroke-linejoin:round;">
<text x="10.0584" y="20.9606"
textLength="6.5532" font-size="1.6933" lengthAdjust="spacingAndGlyphs"
text-anchor="middle" opacity="0" stroke-opacity="0">Cross?</text>
<g class="stroked-text"><desc>Cross?</desc>
<path d="M7.9114 20.7842
L7.8510 20.8447
" />
<path d="M7.8510 20.8447
L7.6695 20.9051
" />
<path d="M7.6695 20.9051
L7.5486 20.9051
" />
<path d="M7.5486 20.9051
L7.3672 20.8447
" />
<path d="M7.3672 20.8447
L7.2462 20.7237
" />
<path d="M7.2462 20.7237
L7.1857 20.6027
" />
<path d="M7.1857 20.6027
L7.1253 20.3608
" />
<path d="M7.1253 20.3608
L7.1253 20.1794
" />
<path d="M7.1253 20.1794
L7.1857 19.9375
" />
<path d="M7.1857 19.9375
L7.2462 19.8166
" />
<path d="M7.2462 19.8166
L7.3672 19.6956
" />
<path d="M7.3672 19.6956
L7.5486 19.6351
" />
<path d="M7.5486 19.6351
L7.6695 19.6351
" />
<path d="M7.6695 19.6351
L7.8510 19.6956
" />
<path d="M7.8510 19.6956
L7.9114 19.7561
" />
<path d="M8.4557 20.9051
L8.4557 20.0585
" />
<path d="M8.4557 20.3004
L8.5162 20.1794
" />
<path d="M8.5162 20.1794
L8.5767 20.1189
" />
<path d="M8.5767 20.1189
L8.6976 20.0585
" />
<path d="M8.6976 20.0585
L8.8186 20.0585
" />
<path d="M9.4234 20.9051
L9.3024 20.8447
" />
<path d="M9.3024 20.8447
L9.2419 20.7842
" />
<path d="M9.2419 20.7842
L9.1815 20.6632
" />
<path d="M9.1815 20.6632
L9.1815 20.3004
" />
<path d="M9.1815 20.3004
L9.2419 20.1794
" />
<path d="M9.2419 20.1794
L9.3024 20.1189
" />
<path d="M9.3024 20.1189
L9.4234 20.0585
" />
<path d="M9.4234 20.0585
L9.6048 20.0585
" />
<path d="M9.6048 20.0585
L9.7257 20.1189
" />
<path d="M9.7257 20.1189
L9.7862 20.1794
" />
<path d="M9.7862 20.1794
L9.8467 20.3004
" />
<path d="M9.8467 20.3004
L9.8467 20.6632
" />
<path d="M9.8467 20.6632
L9.7862 20.7842
" />
<path d="M9.7862 20.7842
L9.7257 20.8447
" />
<path d="M9.7257 20.8447
L9.6048 20.9051
" />
<path d="M9.6048 20.9051
L9.4234 20.9051
" />
<path d="M10.3305 20.8447
L10.4514 20.9051
" />
<path d="M10.4514 20.9051
L10.6933 20.9051
" />
<path d="M10.6933 20.9051
L10.8143 20.8447
" />
<path d="M10.8143 20.8447
L10.8747 20.7237
" />
<path d="M10.8747 20.7237
L10.8747 20.6632
" />
<path d="M10.8747 20.6632
L10.8143 20.5423
" />
<path d="M10.8143 20.5423
L10.6933 20.4818
" />
<path d="M10.6933 20.4818
L10.5119 20.4818
" />
<path d="M10.5119 20.4818
L10.3909 20.4213
" />
<path d="M10.3909 20.4213
L10.3305 20.3004
" />
<path d="M10.3305 20.3004
L10.3305 20.2399
" />
<path d="M10.3305 20.2399
L10.3909 20.1189
" />
<path d="M10.3909 20.1189
L10.5119 20.0585
" />
<path d="M10.5119 20.0585
L10.6933 20.0585
" />
<path d="M10.6933 20.0585
L10.8143 20.1189
" />
<path d="M11.3586 20.8447
L11.4795 20.9051
" />
<path d="M11.4795 20.9051
L11.7214 20.9051
" />
<path d="M11.7214 20.9051
L11.8424 20.8447
" />
<path d="M11.8424 20.8447
L11.9028 20.7237
" />
<path d="M11.9028 20.7237
L11.9028 20.6632
" />
<path d="M11.9028 20.6632
L11.8424 20.5423
" />
<path d="M11.8424 20.5423
L11.7214 20.4818
" />
<path d="M11.7214 20.4818
L11.5400 20.4818
" />
<path d="M11.5400 20.4818
L11.4190 20.4213
" />
<path d="M11.4190 20.4213
L11.3586 20.3004
" />
<path d="M11.3586 20.3004
L11.3586 20.2399
" />
<path d="M11.3586 20.2399
L11.4190 20.1189
" />
<path d="M11.4190 20.1189
L11.5400 20.0585
" />
<path d="M11.5400 20.0585
L11.7214 20.0585
" />
<path d="M11.7214 20.0585
L11.8424 20.1189
" />
<path d="M12.6286 20.7842
L12.6890 20.8447
" />
<path d="M12.6890 20.8447
L12.6286 20.9051
" />
<path d="M12.6286 20.9051
L12.5681 20.8447
" />
<path d="M12.5681 20.8447
L12.6286 20.7842
" />
<path d="M12.6286 20.7842
L12.6286 20.9051
" />
<path d="M12.3867 19.6956
L12.5076 19.6351
" />
<path d="M12.5076 19.6351
L12.8100 19.6351
" />
<path d="M12.8100 19.6351
L12.9309 19.6956
" />
<path d="M12.9309 19.6956
L12.9914 19.8166
" />
<path d="M12.9914 19.8166
L12.9914 19.9375
" />
<path d="M12.9914 19.9375
L12.9309 20.0585
" />
<path d="M12.9309 20.0585
L12.8705 20.1189
" />
<path d="M12.8705 20.1189
L12.7495 20.1794
" />
<path d="M12.7495 20.1794
L12.6890 20.2399
" />
<path d="M12.6890 20.2399
L12.6286 20.3608
" />
<path d="M12.6286 20.3608
L12.6286 20.4213
" />
</g></g>
</svg>
