<?xml version="1.0" standalone="no"?>
 <!DOCTYPE svg PUBLIC "-//W3C//DTD SVG 1.1//EN"
 "http://www.w3.org/Graphics/SVG/1.1/DTD/svg11.dtd">
<svg
  xmlns:svg="http://www.w3.org/2000/svg"
  xmlns="http://www.w3.org/2000/svg"
  xmlns:xlink="http://www.w3.org/1999/xlink"
  xmlns:inkscape="http://www.inkscape.org/namespaces/inkscape"
  version="1.1"
  width="19.7104mm" height="22.8854mm" viewBox="0.0000 0.0000 19.7104 22.8854">
<title>SVG Image created as Elbow_unit1.svg date 2026-05-31T14:38:09 </title>
  <desc>Image generated by Eeschema-SVG </desc>
<g style="fill:#000000; fill-opacity:1.0000;stroke:#000000; stroke-opacity:1.0000;
stroke-linecap:round; stroke-linejoin:round;"
 transform="translate(0 0) scale(1 1)">
<path style="fill:#840000; fill-opacity:1.0000;
stroke:#840000; stroke-width:0.1000; stroke-opacity:1;
stroke-linecap:round; stroke-linejoin:round;fill-rule:evenodd;"
d="M 4.0208,9.9569
4.0208,9.7069
5.0208,9.9569
4.0208,10.2069
Z" />
<path style="fill:none;
stroke:#840000; stroke-width:0.2000; stroke-opacity:1;
stroke-linecap:round; stroke-linejoin:round;fill:none"
d="M 5.0208,9.9569
10.0208,9.9569
10.0208,14.9569
" />
</g>
<g style="fill:none;
stroke:#840000; stroke-width:0.1000; stroke-opacity:1;
stroke-linecap:round; stroke-linejoin:round;">
<path d="M11.0207 14.9568 A4.3012 4.3012 0.0 0 0 5.0207 8.9568" />
<path style="fill:#840000; fill-opacity:1.0000;
stroke:#840000; stroke-width:0.1000; stroke-opacity:1;
stroke-linecap:round; stroke-linejoin:round;fill-rule:evenodd;"
d="M 16.0208,9.9569
16.0208,9.7069
17.0208,9.9569
16.0208,10.2069
Z" />
</g>
<g style="fill:none;
stroke:#840000; stroke-width:0.1524; stroke-opacity:1;
stroke-linecap:round; stroke-linejoin:round;">
<path d="M5.0208 9.9569
L2.0208 9.9569
" />
<path d="M10.0208 14.9569
L10.0208 17.9569
" />
</g>
<g style="fill:none;
stroke:#006464; stroke-width:0.1524; stroke-opacity:1;
stroke-linecap:round; stroke-linejoin:round;">
<text x="10.0208" y="20.5919"
textLength="6.7345" font-size="1.6933" lengthAdjust="spacingAndGlyphs"
text-anchor="middle" opacity="0" stroke-opacity="0">Elbow?</text>
<g class="stroked-text"><desc>Elbow?</desc>
<path d="M7.0575 19.8712
L7.4809 19.8712
" />
<path d="M7.6623 20.5364
L7.0575 20.5364
" />
<path d="M7.0575 20.5364
L7.0575 19.2664
" />
<path d="M7.0575 19.2664
L7.6623 19.2664
" />
<path d="M8.3880 20.5364
L8.2670 20.4760
" />
<path d="M8.2670 20.4760
L8.2065 20.3550
" />
<path d="M8.2065 20.3550
L8.2065 19.2664
" />
<path d="M8.8717 20.5364
L8.8717 19.2664
" />
<path d="M8.8717 19.7502
L8.9927 19.6898
" />
<path d="M8.9927 19.6898
L9.2346 19.6898
" />
<path d="M9.2346 19.6898
L9.3555 19.7502
" />
<path d="M9.3555 19.7502
L9.4160 19.8107
" />
<path d="M9.4160 19.8107
L9.4765 19.9317
" />
<path d="M9.4765 19.9317
L9.4765 20.2945
" />
<path d="M9.4765 20.2945
L9.4160 20.4155
" />
<path d="M9.4160 20.4155
L9.3555 20.4760
" />
<path d="M9.3555 20.4760
L9.2346 20.5364
" />
<path d="M9.2346 20.5364
L8.9927 20.5364
" />
<path d="M8.9927 20.5364
L8.8717 20.4760
" />
<path d="M10.2022 20.5364
L10.0812 20.4760
" />
<path d="M10.0812 20.4760
L10.0207 20.4155
" />
<path d="M10.0207 20.4155
L9.9603 20.2945
" />
<path d="M9.9603 20.2945
L9.9603 19.9317
" />
<path d="M9.9603 19.9317
L10.0207 19.8107
" />
<path d="M10.0207 19.8107
L10.0812 19.7502
" />
<path d="M10.0812 19.7502
L10.2022 19.6898
" />
<path d="M10.2022 19.6898
L10.3836 19.6898
" />
<path d="M10.3836 19.6898
L10.5045 19.7502
" />
<path d="M10.5045 19.7502
L10.5650 19.8107
" />
<path d="M10.5650 19.8107
L10.6255 19.9317
" />
<path d="M10.6255 19.9317
L10.6255 20.2945
" />
<path d="M10.6255 20.2945
L10.5650 20.4155
" />
<path d="M10.5650 20.4155
L10.5045 20.4760
" />
<path d="M10.5045 20.4760
L10.3836 20.5364
" />
<path d="M10.3836 20.5364
L10.2022 20.5364
" />
<path d="M11.0488 19.6898
L11.2907 20.5364
" />
<path d="M11.2907 20.5364
L11.5326 19.9317
" />
<path d="M11.5326 19.9317
L11.7745 20.5364
" />
<path d="M11.7745 20.5364
L12.0164 19.6898
" />
<path d="M12.6817 20.4155
L12.7421 20.4760
" />
<path d="M12.7421 20.4760
L12.6817 20.5364
" />
<path d="M12.6817 20.5364
L12.6212 20.4760
" />
<path d="M12.6212 20.4760
L12.6817 20.4155
" />
<path d="M12.6817 20.4155
L12.6817 20.5364
" />
<path d="M12.4398 19.3269
L12.5607 19.2664
" />
<path d="M12.5607 19.2664
L12.8631 19.2664
" />
<path d="M12.8631 19.2664
L12.9840 19.3269
" />
<path d="M12.9840 19.3269
L13.0445 19.4479
" />
<path d="M13.0445 19.4479
L13.0445 19.5688
" />
<path d="M13.0445 19.5688
L12.9840 19.6898
" />
<path d="M12.9840 19.6898
L12.9236 19.7502
" />
<path d="M12.9236 19.7502
L12.8026 19.8107
" />
<path d="M12.8026 19.8107
L12.7421 19.8712
" />
<path d="M12.7421 19.8712
L12.6817 19.9921
" />
<path d="M12.6817 19.9921
L12.6817 20.0526
" />
</g></g>
</svg>
