<?xml version="1.0" standalone="no"?>
 <!DOCTYPE svg PUBLIC "-//W3C//DTD SVG 1.1//EN"
 "http://www.w3.org/Graphics/SVG/1.1/DTD/svg11.dtd">
<svg
  xmlns:svg="http://www.w3.org/2000/svg"
  xmlns="http://www.w3.org/2000/svg"
  xmlns:xlink="http://www.w3.org/1999/xlink"
  xmlns:inkscape="http://www.inkscape.org/namespaces/inkscape"
  version="1.1"
  width="20.1168mm" height="22.8854mm" viewBox="0.0000 0.0000 20.1168 22.8854">
<title>SVG Image created as Flexible Hose_unit1.svg date 2026-05-31T11:36:29 </title>
  <desc>Image generated by Eeschema-SVG </desc>
<g style="fill:#000000; fill-opacity:1.0000;stroke:#000000; stroke-opacity:1.0000;
stroke-linecap:round; stroke-linejoin:round;"
 transform="translate(0 0) scale(1 1)">
</g>
<g style="fill:none;
stroke:#840000; stroke-width:0.1524; stroke-opacity:1;
stroke-linecap:round; stroke-linejoin:round;">
<rect x="5.058400" y="7.956900" width="10.000000" height="4.500000" rx="0.000000" />
<path d="M5.0573 9.9569 A1.0027 1.0027 0.0 0 0 6.0584 10.9569" />
<path d="M6.0584 10.9576 A1.0004 1.0004 0.0 0 0 7.0584 9.9569" />
<path d="M8.0584 8.9576 A0.9996 0.9996 0.0 0 0 7.0584 9.9569" />
<path d="M9.0573 9.9569 A0.9973 0.9973 0.0 0 0 8.0584 8.9569" />
<path style="fill:none;
stroke:#840000; stroke-width:0.1524; stroke-opacity:1;
stroke-linecap:round; stroke-linejoin:round;fill:none"
d="M 8.8084,19.9569
Z" />
<path d="M9.0573 9.9569 A1.0027 1.0027 0.0 0 0 10.0584 10.9569" />
<path d="M10.0584 10.9576 A1.0004 1.0004 0.0 0 0 11.0584 9.9569" />
<path d="M12.0584 8.9576 A0.9996 0.9996 0.0 0 0 11.0584 9.9569" />
<path d="M13.0573 9.9569 A0.9973 0.9973 0.0 0 0 12.0584 8.9569" />
<path d="M13.0573 9.9569 A1.0027 1.0027 0.0 0 0 14.0584 10.9569" />
<path d="M14.0584 10.9576 A1.0004 1.0004 0.0 0 0 15.0584 9.9569" />
<path d="M5.0584 9.9569
L2.0584 9.9569
" />
<path d="M15.0584 9.9569
L18.0584 9.9569
" />
</g>
<g style="fill:none;
stroke:#006464; stroke-width:0.1524; stroke-opacity:1;
stroke-linecap:round; stroke-linejoin:round;">
<text x="10.0584" y="20.5919"
textLength="14.2337" font-size="1.6933" lengthAdjust="spacingAndGlyphs"
text-anchor="middle" opacity="0" stroke-opacity="0">Flexible_Hose?</text>
<g class="stroked-text"><desc>Flexible_Hose?</desc>
<path d="M3.7689 19.8712
L3.3455 19.8712
" />
<path d="M3.3455 20.5364
L3.3455 19.2664
" />
<path d="M3.3455 19.2664
L3.9503 19.2664
" />
<path d="M4.6156 20.5364
L4.4946 20.4760
" />
<path d="M4.4946 20.4760
L4.4341 20.3550
" />
<path d="M4.4341 20.3550
L4.4341 19.2664
" />
<path d="M5.5831 20.4760
L5.4622 20.5364
" />
<path d="M5.4622 20.5364
L5.2203 20.5364
" />
<path d="M5.2203 20.5364
L5.0993 20.4760
" />
<path d="M5.0993 20.4760
L5.0389 20.3550
" />
<path d="M5.0389 20.3550
L5.0389 19.8712
" />
<path d="M5.0389 19.8712
L5.0993 19.7502
" />
<path d="M5.0993 19.7502
L5.2203 19.6898
" />
<path d="M5.2203 19.6898
L5.4622 19.6898
" />
<path d="M5.4622 19.6898
L5.5831 19.7502
" />
<path d="M5.5831 19.7502
L5.6436 19.8712
" />
<path d="M5.6436 19.8712
L5.6436 19.9921
" />
<path d="M5.6436 19.9921
L5.0389 20.1131
" />
<path d="M6.0670 20.5364
L6.7322 19.6898
" />
<path d="M6.0670 19.6898
L6.7322 20.5364
" />
<path d="M7.2160 20.5364
L7.2160 19.6898
" />
<path d="M7.2160 19.2664
L7.1556 19.3269
" />
<path d="M7.1556 19.3269
L7.2160 19.3874
" />
<path d="M7.2160 19.3874
L7.2765 19.3269
" />
<path d="M7.2765 19.3269
L7.2160 19.2664
" />
<path d="M7.2160 19.2664
L7.2160 19.3874
" />
<path d="M7.8208 20.5364
L7.8208 19.2664
" />
<path d="M7.8208 19.7502
L7.9418 19.6898
" />
<path d="M7.9418 19.6898
L8.1837 19.6898
" />
<path d="M8.1837 19.6898
L8.3046 19.7502
" />
<path d="M8.3046 19.7502
L8.3651 19.8107
" />
<path d="M8.3651 19.8107
L8.4256 19.9317
" />
<path d="M8.4256 19.9317
L8.4256 20.2945
" />
<path d="M8.4256 20.2945
L8.3651 20.4155
" />
<path d="M8.3651 20.4155
L8.3046 20.4760
" />
<path d="M8.3046 20.4760
L8.1837 20.5364
" />
<path d="M8.1837 20.5364
L7.9418 20.5364
" />
<path d="M7.9418 20.5364
L7.8208 20.4760
" />
<path d="M9.1513 20.5364
L9.0303 20.4760
" />
<path d="M9.0303 20.4760
L8.9698 20.3550
" />
<path d="M8.9698 20.3550
L8.9698 19.2664
" />
<path d="M10.1188 20.4760
L9.9979 20.5364
" />
<path d="M9.9979 20.5364
L9.7560 20.5364
" />
<path d="M9.7560 20.5364
L9.6350 20.4760
" />
<path d="M9.6350 20.4760
L9.5746 20.3550
" />
<path d="M9.5746 20.3550
L9.5746 19.8712
" />
<path d="M9.5746 19.8712
L9.6350 19.7502
" />
<path d="M9.6350 19.7502
L9.7560 19.6898
" />
<path d="M9.7560 19.6898
L9.9979 19.6898
" />
<path d="M9.9979 19.6898
L10.1188 19.7502
" />
<path d="M10.1188 19.7502
L10.1793 19.8712
" />
<path d="M10.1793 19.8712
L10.1793 19.9921
" />
<path d="M10.1793 19.9921
L9.5746 20.1131
" />
<path d="M10.4213 20.6574
L11.3889 20.6574
" />
<path d="M11.6912 20.5364
L11.6912 19.2664
" />
<path d="M11.6912 19.8712
L12.4169 19.8712
" />
<path d="M12.4169 20.5364
L12.4169 19.2664
" />
<path d="M13.2032 20.5364
L13.0822 20.4760
" />
<path d="M13.0822 20.4760
L13.0217 20.4155
" />
<path d="M13.0217 20.4155
L12.9613 20.2945
" />
<path d="M12.9613 20.2945
L12.9613 19.9317
" />
<path d="M12.9613 19.9317
L13.0217 19.8107
" />
<path d="M13.0217 19.8107
L13.0822 19.7502
" />
<path d="M13.0822 19.7502
L13.2032 19.6898
" />
<path d="M13.2032 19.6898
L13.3846 19.6898
" />
<path d="M13.3846 19.6898
L13.5055 19.7502
" />
<path d="M13.5055 19.7502
L13.5660 19.8107
" />
<path d="M13.5660 19.8107
L13.6265 19.9317
" />
<path d="M13.6265 19.9317
L13.6265 20.2945
" />
<path d="M13.6265 20.2945
L13.5660 20.4155
" />
<path d="M13.5660 20.4155
L13.5055 20.4760
" />
<path d="M13.5055 20.4760
L13.3846 20.5364
" />
<path d="M13.3846 20.5364
L13.2032 20.5364
" />
<path d="M14.1103 20.4760
L14.2312 20.5364
" />
<path d="M14.2312 20.5364
L14.4731 20.5364
" />
<path d="M14.4731 20.5364
L14.5941 20.4760
" />
<path d="M14.5941 20.4760
L14.6545 20.3550
" />
<path d="M14.6545 20.3550
L14.6545 20.2945
" />
<path d="M14.6545 20.2945
L14.5941 20.1736
" />
<path d="M14.5941 20.1736
L14.4731 20.1131
" />
<path d="M14.4731 20.1131
L14.2917 20.1131
" />
<path d="M14.2917 20.1131
L14.1707 20.0526
" />
<path d="M14.1707 20.0526
L14.1103 19.9317
" />
<path d="M14.1103 19.9317
L14.1103 19.8712
" />
<path d="M14.1103 19.8712
L14.1707 19.7502
" />
<path d="M14.1707 19.7502
L14.2917 19.6898
" />
<path d="M14.2917 19.6898
L14.4731 19.6898
" />
<path d="M14.4731 19.6898
L14.5941 19.7502
" />
<path d="M15.6826 20.4760
L15.5617 20.5364
" />
<path d="M15.5617 20.5364
L15.3198 20.5364
" />
<path d="M15.3198 20.5364
L15.1988 20.4760
" />
<path d="M15.1988 20.4760
L15.1384 20.3550
" />
<path d="M15.1384 20.3550
L15.1384 19.8712
" />
<path d="M15.1384 19.8712
L15.1988 19.7502
" />
<path d="M15.1988 19.7502
L15.3198 19.6898
" />
<path d="M15.3198 19.6898
L15.5617 19.6898
" />
<path d="M15.5617 19.6898
L15.6826 19.7502
" />
<path d="M15.6826 19.7502
L15.7431 19.8712
" />
<path d="M15.7431 19.8712
L15.7431 19.9921
" />
<path d="M15.7431 19.9921
L15.1384 20.1131
" />
<path d="M16.4689 20.4155
L16.5293 20.4760
" />
<path d="M16.5293 20.4760
L16.4689 20.5364
" />
<path d="M16.4689 20.5364
L16.4084 20.4760
" />
<path d="M16.4084 20.4760
L16.4689 20.4155
" />
<path d="M16.4689 20.4155
L16.4689 20.5364
" />
<path d="M16.2270 19.3269
L16.3479 19.2664
" />
<path d="M16.3479 19.2664
L16.6503 19.2664
" />
<path d="M16.6503 19.2664
L16.7712 19.3269
" />
<path d="M16.7712 19.3269
L16.8317 19.4479
" />
<path d="M16.8317 19.4479
L16.8317 19.5688
" />
<path d="M16.8317 19.5688
L16.7712 19.6898
" />
<path d="M16.7712 19.6898
L16.7108 19.7502
" />
<path d="M16.7108 19.7502
L16.5898 19.8107
" />
<path d="M16.5898 19.8107
L16.5293 19.8712
" />
<path d="M16.5293 19.8712
L16.4689 19.9921
" />
<path d="M16.4689 19.9921
L16.4689 20.0526
" />
</g></g>
</svg>
