<!-- Copyright 2026 Kingston University Rocket Engineering -->

<?xml version="1.0" standalone="no"?>
 <!DOCTYPE svg PUBLIC "-//W3C//DTD SVG 1.1//EN"
 "http://www.w3.org/Graphics/SVG/1.1/DTD/svg11.dtd">
<svg
  xmlns:svg="http://www.w3.org/2000/svg"
  xmlns="http://www.w3.org/2000/svg"
  xmlns:xlink="http://www.w3.org/1999/xlink"
  xmlns:inkscape="http://www.inkscape.org/namespaces/inkscape"
  version="1.1"
  width="20.1168mm" height="22.8854mm" viewBox="0.0000 0.0000 20.1168 22.8854">
<title>SVG Image created as Reducer_unit1.svg date 2026-05-31T11:36:30 </title>
  <desc>Image generated by Eeschema-SVG </desc>
<g style="fill:#000000; fill-opacity:1.0000;stroke:#000000; stroke-opacity:1.0000;
stroke-linecap:round; stroke-linejoin:round;"
 transform="translate(0 0) scale(1 1)">
<path style="fill:none;
stroke:#840000; stroke-width:0.1000; stroke-opacity:1;
stroke-linecap:round; stroke-linejoin:round;fill:none"
d="M 5.0584,7.4569
15.0584,8.9569
15.0584,10.9569
5.0584,12.4569
Z" />
</g>
<g style="fill:none;
stroke:#840000; stroke-width:0.1524; stroke-opacity:1;
stroke-linecap:round; stroke-linejoin:round;">
<path d="M5.0584 9.9569
L2.0584 9.9569
" />
<path d="M15.0584 9.9569
L18.0584 9.9569
" />
</g>
<g style="fill:none;
stroke:#006464; stroke-width:0.1524; stroke-opacity:1;
stroke-linecap:round; stroke-linejoin:round;">
<text x="10.0584" y="20.5919"
textLength="8.9118" font-size="1.6933" lengthAdjust="spacingAndGlyphs"
text-anchor="middle" opacity="0" stroke-opacity="0">Reducer?</text>
<g class="stroked-text"><desc>Reducer?</desc>
<path d="M6.7321 20.5364
L6.3088 19.9317
" />
<path d="M6.0064 20.5364
L6.0064 19.2664
" />
<path d="M6.0064 19.2664
L6.4902 19.2664
" />
<path d="M6.4902 19.2664
L6.6112 19.3269
" />
<path d="M6.6112 19.3269
L6.6717 19.3874
" />
<path d="M6.6717 19.3874
L6.7321 19.5083
" />
<path d="M6.7321 19.5083
L6.7321 19.6898
" />
<path d="M6.7321 19.6898
L6.6717 19.8107
" />
<path d="M6.6717 19.8107
L6.6112 19.8712
" />
<path d="M6.6112 19.8712
L6.4902 19.9317
" />
<path d="M6.4902 19.9317
L6.0064 19.9317
" />
<path d="M7.7602 20.4760
L7.6393 20.5364
" />
<path d="M7.6393 20.5364
L7.3974 20.5364
" />
<path d="M7.3974 20.5364
L7.2764 20.4760
" />
<path d="M7.2764 20.4760
L7.2160 20.3550
" />
<path d="M7.2160 20.3550
L7.2160 19.8712
" />
<path d="M7.2160 19.8712
L7.2764 19.7502
" />
<path d="M7.2764 19.7502
L7.3974 19.6898
" />
<path d="M7.3974 19.6898
L7.6393 19.6898
" />
<path d="M7.6393 19.6898
L7.7602 19.7502
" />
<path d="M7.7602 19.7502
L7.8207 19.8712
" />
<path d="M7.8207 19.8712
L7.8207 19.9921
" />
<path d="M7.8207 19.9921
L7.2160 20.1131
" />
<path d="M8.9093 20.5364
L8.9093 19.2664
" />
<path d="M8.9093 20.4760
L8.7884 20.5364
" />
<path d="M8.7884 20.5364
L8.5465 20.5364
" />
<path d="M8.5465 20.5364
L8.4255 20.4760
" />
<path d="M8.4255 20.4760
L8.3650 20.4155
" />
<path d="M8.3650 20.4155
L8.3046 20.2945
" />
<path d="M8.3046 20.2945
L8.3046 19.9317
" />
<path d="M8.3046 19.9317
L8.3650 19.8107
" />
<path d="M8.3650 19.8107
L8.4255 19.7502
" />
<path d="M8.4255 19.7502
L8.5465 19.6898
" />
<path d="M8.5465 19.6898
L8.7884 19.6898
" />
<path d="M8.7884 19.6898
L8.9093 19.7502
" />
<path d="M10.0583 19.6898
L10.0583 20.5364
" />
<path d="M9.5140 19.6898
L9.5140 20.3550
" />
<path d="M9.5140 20.3550
L9.5745 20.4760
" />
<path d="M9.5745 20.4760
L9.6955 20.5364
" />
<path d="M9.6955 20.5364
L9.8769 20.5364
" />
<path d="M9.8769 20.5364
L9.9978 20.4760
" />
<path d="M9.9978 20.4760
L10.0583 20.4155
" />
<path d="M11.2073 20.4760
L11.0864 20.5364
" />
<path d="M11.0864 20.5364
L10.8445 20.5364
" />
<path d="M10.8445 20.5364
L10.7235 20.4760
" />
<path d="M10.7235 20.4760
L10.6630 20.4155
" />
<path d="M10.6630 20.4155
L10.6026 20.2945
" />
<path d="M10.6026 20.2945
L10.6026 19.9317
" />
<path d="M10.6026 19.9317
L10.6630 19.8107
" />
<path d="M10.6630 19.8107
L10.7235 19.7502
" />
<path d="M10.7235 19.7502
L10.8445 19.6898
" />
<path d="M10.8445 19.6898
L11.0864 19.6898
" />
<path d="M11.0864 19.6898
L11.2073 19.7502
" />
<path d="M12.2354 20.4760
L12.1145 20.5364
" />
<path d="M12.1145 20.5364
L11.8726 20.5364
" />
<path d="M11.8726 20.5364
L11.7516 20.4760
" />
<path d="M11.7516 20.4760
L11.6912 20.3550
" />
<path d="M11.6912 20.3550
L11.6912 19.8712
" />
<path d="M11.6912 19.8712
L11.7516 19.7502
" />
<path d="M11.7516 19.7502
L11.8726 19.6898
" />
<path d="M11.8726 19.6898
L12.1145 19.6898
" />
<path d="M12.1145 19.6898
L12.2354 19.7502
" />
<path d="M12.2354 19.7502
L12.2959 19.8712
" />
<path d="M12.2959 19.8712
L12.2959 19.9921
" />
<path d="M12.2959 19.9921
L11.6912 20.1131
" />
<path d="M12.8402 20.5364
L12.8402 19.6898
" />
<path d="M12.8402 19.9317
L12.9007 19.8107
" />
<path d="M12.9007 19.8107
L12.9612 19.7502
" />
<path d="M12.9612 19.7502
L13.0821 19.6898
" />
<path d="M13.0821 19.6898
L13.2031 19.6898
" />
<path d="M13.8079 20.4155
L13.8683 20.4760
" />
<path d="M13.8683 20.4760
L13.8079 20.5364
" />
<path d="M13.8079 20.5364
L13.7474 20.4760
" />
<path d="M13.7474 20.4760
L13.8079 20.4155
" />
<path d="M13.8079 20.4155
L13.8079 20.5364
" />
<path d="M13.5660 19.3269
L13.6869 19.2664
" />
<path d="M13.6869 19.2664
L13.9893 19.2664
" />
<path d="M13.9893 19.2664
L14.1102 19.3269
" />
<path d="M14.1102 19.3269
L14.1707 19.4479
" />
<path d="M14.1707 19.4479
L14.1707 19.5688
" />
<path d="M14.1707 19.5688
L14.1102 19.6898
" />
<path d="M14.1102 19.6898
L14.0498 19.7502
" />
<path d="M14.0498 19.7502
L13.9288 19.8107
" />
<path d="M13.9288 19.8107
L13.8683 19.8712
" />
<path d="M13.8683 19.8712
L13.8079 19.9921
" />
<path d="M13.8079 19.9921
L13.8079 20.0526
" />
</g></g>
</svg>
