<!-- Copyright 2026 Kingston University Rocket Engineering -->

<?xml version="1.0" standalone="no"?>
 <!DOCTYPE svg PUBLIC "-//W3C//DTD SVG 1.1//EN"
 "http://www.w3.org/Graphics/SVG/1.1/DTD/svg11.dtd">
<svg
  xmlns:svg="http://www.w3.org/2000/svg"
  xmlns="http://www.w3.org/2000/svg"
  xmlns:xlink="http://www.w3.org/1999/xlink"
  xmlns:inkscape="http://www.inkscape.org/namespaces/inkscape"
  version="1.1"
  width="20.1168mm" height="22.8854mm" viewBox="0.0000 0.0000 20.1168 22.8854">
<title>SVG Image created as Tee_unit1.svg date 2026-05-31T11:36:30 </title>
  <desc>Image generated by Eeschema-SVG </desc>
<g style="fill:#000000; fill-opacity:1.0000;stroke:#000000; stroke-opacity:1.0000;
stroke-linecap:round; stroke-linejoin:round;"
 transform="translate(0 0) scale(1 1)">
<path style="fill:none;
stroke:#840000; stroke-width:0.2000; stroke-opacity:1;
stroke-linecap:round; stroke-linejoin:round;fill:none"
d="M 5.0584,9.9569
15.0584,9.9569
" />
<path style="fill:none;
stroke:#840000; stroke-width:0.2000; stroke-opacity:1;
stroke-linecap:round; stroke-linejoin:round;fill:none"
d="M 10.0584,9.9569
10.0584,14.9569
" />
</g>
<g style="fill:#840000; fill-opacity:1.0000;
stroke:#840000; stroke-width:0.1524; stroke-opacity:1;
stroke-linecap:round; stroke-linejoin:round;">
<circle cx="10.0584" cy="9.9569" r="0.4000" />
</g>
<g style="fill:none;
stroke:#840000; stroke-width:0.1524; stroke-opacity:1;
stroke-linecap:round; stroke-linejoin:round;">
<path d="M5.0584 9.9569
L2.0584 9.9569
" />
<path d="M10.0584 14.9569
L10.0584 17.9569
" />
<path d="M15.0584 9.9569
L18.0584 9.9569
" />
</g>
<g style="fill:none;
stroke:#006464; stroke-width:0.1524; stroke-opacity:1;
stroke-linecap:round; stroke-linejoin:round;">
<text x="10.0584" y="20.5919"
textLength="4.4366" font-size="1.6933" lengthAdjust="spacingAndGlyphs"
text-anchor="middle" opacity="0" stroke-opacity="0">Tee?</text>
<g class="stroked-text"><desc>Tee?</desc>
<path d="M8.0626 19.2664
L8.7883 19.2664
" />
<path d="M8.4255 20.5364
L8.4255 19.2664
" />
<path d="M9.6954 20.4760
L9.5745 20.5364
" />
<path d="M9.5745 20.5364
L9.3326 20.5364
" />
<path d="M9.3326 20.5364
L9.2116 20.4760
" />
<path d="M9.2116 20.4760
L9.1512 20.3550
" />
<path d="M9.1512 20.3550
L9.1512 19.8712
" />
<path d="M9.1512 19.8712
L9.2116 19.7502
" />
<path d="M9.2116 19.7502
L9.3326 19.6898
" />
<path d="M9.3326 19.6898
L9.5745 19.6898
" />
<path d="M9.5745 19.6898
L9.6954 19.7502
" />
<path d="M9.6954 19.7502
L9.7559 19.8712
" />
<path d="M9.7559 19.8712
L9.7559 19.9921
" />
<path d="M9.7559 19.9921
L9.1512 20.1131
" />
<path d="M10.7840 20.4760
L10.6631 20.5364
" />
<path d="M10.6631 20.5364
L10.4212 20.5364
" />
<path d="M10.4212 20.5364
L10.3002 20.4760
" />
<path d="M10.3002 20.4760
L10.2398 20.3550
" />
<path d="M10.2398 20.3550
L10.2398 19.8712
" />
<path d="M10.2398 19.8712
L10.3002 19.7502
" />
<path d="M10.3002 19.7502
L10.4212 19.6898
" />
<path d="M10.4212 19.6898
L10.6631 19.6898
" />
<path d="M10.6631 19.6898
L10.7840 19.7502
" />
<path d="M10.7840 19.7502
L10.8445 19.8712
" />
<path d="M10.8445 19.8712
L10.8445 19.9921
" />
<path d="M10.8445 19.9921
L10.2398 20.1131
" />
<path d="M11.5703 20.4155
L11.6307 20.4760
" />
<path d="M11.6307 20.4760
L11.5703 20.5364
" />
<path d="M11.5703 20.5364
L11.5098 20.4760
" />
<path d="M11.5098 20.4760
L11.5703 20.4155
" />
<path d="M11.5703 20.4155
L11.5703 20.5364
" />
<path d="M11.3284 19.3269
L11.4493 19.2664
" />
<path d="M11.4493 19.2664
L11.7517 19.2664
" />
<path d="M11.7517 19.2664
L11.8726 19.3269
" />
<path d="M11.8726 19.3269
L11.9331 19.4479
" />
<path d="M11.9331 19.4479
L11.9331 19.5688
" />
<path d="M11.9331 19.5688
L11.8726 19.6898
" />
<path d="M11.8726 19.6898
L11.8122 19.7502
" />
<path d="M11.8122 19.7502
L11.6912 19.8107
" />
<path d="M11.6912 19.8107
L11.6307 19.8712
" />
<path d="M11.6307 19.8712
L11.5703 19.9921
" />
<path d="M11.5703 19.9921
L11.5703 20.0526
" />
</g></g>
</svg>
