<!-- Copyright 2026 Kingston University Rocket Engineering -->

<?xml version="1.0" standalone="no"?>
 <!DOCTYPE svg PUBLIC "-//W3C//DTD SVG 1.1//EN"
 "http://www.w3.org/Graphics/SVG/1.1/DTD/svg11.dtd">
<svg
  xmlns:svg="http://www.w3.org/2000/svg"
  xmlns="http://www.w3.org/2000/svg"
  xmlns:xlink="http://www.w3.org/1999/xlink"
  xmlns:inkscape="http://www.inkscape.org/namespaces/inkscape"
  version="1.1"
  width="19.3294mm" height="22.8854mm" viewBox="0.0000 0.0000 19.3294 22.8854">
<title>SVG Image created as Pump_unit1.svg date 2026-05-31T11:36:29 </title>
  <desc>Image generated by Eeschema-SVG </desc>
<g style="fill:#000000; fill-opacity:1.0000;stroke:#000000; stroke-opacity:1.0000;
stroke-linecap:round; stroke-linejoin:round;"
 transform="translate(0 0) scale(1 1)">
</g>
<g style="fill:none;
stroke:#840000; stroke-width:0.1524; stroke-opacity:1;
stroke-linecap:round; stroke-linejoin:round;">
<circle cx="9.6647" cy="9.9569" r="2.0000" />
<path style="fill:#840000; fill-opacity:1.0000;
stroke:#840000; stroke-width:0.1000; stroke-opacity:1;
stroke-linecap:round; stroke-linejoin:round;fill-rule:evenodd;"
d="M 6.6647,9.9569
6.6647,9.7069
7.6647,9.9569
6.6647,10.2069
Z" />
<path style="fill:none;
stroke:#840000; stroke-width:0.1524; stroke-opacity:1;
stroke-linecap:round; stroke-linejoin:round;fill:none"
d="M 11.6647,9.9569
8.4147,11.4569
" />
<path style="fill:none;
stroke:#840000; stroke-width:0.1524; stroke-opacity:1;
stroke-linecap:round; stroke-linejoin:round;fill:none"
d="M 11.6647,9.9569
8.4147,8.4569
8.4147,11.4569
" />
<path style="fill:#840000; fill-opacity:1.0000;
stroke:#840000; stroke-width:0.1000; stroke-opacity:1;
stroke-linecap:round; stroke-linejoin:round;fill-rule:evenodd;"
d="M 13.6647,9.9569
13.6647,9.7069
14.6647,9.9569
13.6647,10.2069
Z" />
</g>
<g style="fill:none;
stroke:#840000; stroke-width:0.1524; stroke-opacity:1;
stroke-linecap:round; stroke-linejoin:round;">
<path d="M7.6647 9.9569
L4.6647 9.9569
" />
<path d="M11.6647 9.9569
L14.6647 9.9569
" />
</g>
<g style="fill:none;
stroke:#006464; stroke-width:0.1524; stroke-opacity:1;
stroke-linecap:round; stroke-linejoin:round;">
<text x="9.6647" y="20.5919"
textLength="6.5531" font-size="1.6933" lengthAdjust="spacingAndGlyphs"
text-anchor="middle" opacity="0" stroke-opacity="0">Pump?</text>
<g class="stroked-text"><desc>Pump?</desc>
<path d="M6.7921 20.5364
L6.7921 19.2664
" />
<path d="M6.7921 19.2664
L7.2759 19.2664
" />
<path d="M7.2759 19.2664
L7.3969 19.3269
" />
<path d="M7.3969 19.3269
L7.4574 19.3874
" />
<path d="M7.4574 19.3874
L7.5178 19.5083
" />
<path d="M7.5178 19.5083
L7.5178 19.6898
" />
<path d="M7.5178 19.6898
L7.4574 19.8107
" />
<path d="M7.4574 19.8107
L7.3969 19.8712
" />
<path d="M7.3969 19.8712
L7.2759 19.9317
" />
<path d="M7.2759 19.9317
L6.7921 19.9317
" />
<path d="M8.6064 19.6898
L8.6064 20.5364
" />
<path d="M8.0621 19.6898
L8.0621 20.3550
" />
<path d="M8.0621 20.3550
L8.1226 20.4760
" />
<path d="M8.1226 20.4760
L8.2436 20.5364
" />
<path d="M8.2436 20.5364
L8.4250 20.5364
" />
<path d="M8.4250 20.5364
L8.5459 20.4760
" />
<path d="M8.5459 20.4760
L8.6064 20.4155
" />
<path d="M9.2111 20.5364
L9.2111 19.6898
" />
<path d="M9.2111 19.8107
L9.2716 19.7502
" />
<path d="M9.2716 19.7502
L9.3926 19.6898
" />
<path d="M9.3926 19.6898
L9.5740 19.6898
" />
<path d="M9.5740 19.6898
L9.6949 19.7502
" />
<path d="M9.6949 19.7502
L9.7554 19.8712
" />
<path d="M9.7554 19.8712
L9.7554 20.5364
" />
<path d="M9.7554 19.8712
L9.8159 19.7502
" />
<path d="M9.8159 19.7502
L9.9368 19.6898
" />
<path d="M9.9368 19.6898
L10.1183 19.6898
" />
<path d="M10.1183 19.6898
L10.2392 19.7502
" />
<path d="M10.2392 19.7502
L10.2997 19.8712
" />
<path d="M10.2997 19.8712
L10.2997 20.5364
" />
<path d="M10.9044 19.6898
L10.9044 20.9598
" />
<path d="M10.9044 19.7502
L11.0254 19.6898
" />
<path d="M11.0254 19.6898
L11.2673 19.6898
" />
<path d="M11.2673 19.6898
L11.3882 19.7502
" />
<path d="M11.3882 19.7502
L11.4487 19.8107
" />
<path d="M11.4487 19.8107
L11.5092 19.9317
" />
<path d="M11.5092 19.9317
L11.5092 20.2945
" />
<path d="M11.5092 20.2945
L11.4487 20.4155
" />
<path d="M11.4487 20.4155
L11.3882 20.4760
" />
<path d="M11.3882 20.4760
L11.2673 20.5364
" />
<path d="M11.2673 20.5364
L11.0254 20.5364
" />
<path d="M11.0254 20.5364
L10.9044 20.4760
" />
<path d="M12.2349 20.4155
L12.2953 20.4760
" />
<path d="M12.2953 20.4760
L12.2349 20.5364
" />
<path d="M12.2349 20.5364
L12.1744 20.4760
" />
<path d="M12.1744 20.4760
L12.2349 20.4155
" />
<path d="M12.2349 20.4155
L12.2349 20.5364
" />
<path d="M11.9930 19.3269
L12.1139 19.2664
" />
<path d="M12.1139 19.2664
L12.4163 19.2664
" />
<path d="M12.4163 19.2664
L12.5372 19.3269
" />
<path d="M12.5372 19.3269
L12.5977 19.4479
" />
<path d="M12.5977 19.4479
L12.5977 19.5688
" />
<path d="M12.5977 19.5688
L12.5372 19.6898
" />
<path d="M12.5372 19.6898
L12.4768 19.7502
" />
<path d="M12.4768 19.7502
L12.3558 19.8107
" />
<path d="M12.3558 19.8107
L12.2953 19.8712
" />
<path d="M12.2953 19.8712
L12.2349 19.9921
" />
<path d="M12.2349 19.9921
L12.2349 20.0526
" />
</g></g>
</svg>
