<?xml version="1.0" standalone="no"?>
 <!DOCTYPE svg PUBLIC "-//W3C//DTD SVG 1.1//EN"
 "http://www.w3.org/Graphics/SVG/1.1/DTD/svg11.dtd">
<svg
  xmlns:svg="http://www.w3.org/2000/svg"
  xmlns="http://www.w3.org/2000/svg"
  xmlns:xlink="http://www.w3.org/1999/xlink"
  xmlns:inkscape="http://www.inkscape.org/namespaces/inkscape"
  version="1.1"
  width="20.7264mm" height="22.8854mm" viewBox="0.0000 0.0000 20.7264 22.8854">
<title>SVG Image created as Cavitating Venturi_unit1.svg date 2026-05-31T14:38:12 </title>
  <desc>Image generated by Eeschema-SVG </desc>
<g style="fill:#000000; fill-opacity:1.0000;stroke:#000000; stroke-opacity:1.0000;
stroke-linecap:round; stroke-linejoin:round;"
 transform="translate(0 0) scale(1 1)">
<path style="fill:#840000; fill-opacity:1.0000;
stroke:#840000; stroke-width:0.1000; stroke-opacity:1;
stroke-linecap:round; stroke-linejoin:round;fill-rule:evenodd;"
d="M 4.3632,9.9569
4.3632,9.7069
5.3632,9.9569
4.3632,10.2069
Z" />
<path style="fill:none;
stroke:#840000; stroke-width:0.1000; stroke-opacity:1;
stroke-linecap:round; stroke-linejoin:round;fill:none"
d="M 5.3632,7.9569
9.3632,9.4569
11.3632,9.4569
15.3632,7.9569
" />
<path style="fill:none;
stroke:#840000; stroke-width:0.1000; stroke-opacity:1;
stroke-linecap:round; stroke-linejoin:round;fill:none"
d="M 5.3632,11.9569
9.3632,10.4569
11.3632,10.4569
15.3632,11.9569
" />
<path style="fill:#840000; fill-opacity:1.0000;
stroke:#840000; stroke-width:0.1000; stroke-opacity:1;
stroke-linecap:round; stroke-linejoin:round;fill-rule:evenodd;"
d="M 16.3632,9.9569
16.3632,9.7069
17.3632,9.9569
16.3632,10.2069
Z" />
</g>
<g style="fill:none;
stroke:#840000; stroke-width:0.1524; stroke-opacity:1;
stroke-linecap:round; stroke-linejoin:round;">
<path d="M5.3632 9.9569
L2.3632 9.9569
" />
<path d="M15.3632 9.9569
L18.3632 9.9569
" />
</g>
<g style="fill:none;
stroke:#006464; stroke-width:0.1524; stroke-opacity:1;
stroke-linecap:round; stroke-linejoin:round;">
<text x="10.3632" y="20.5919"
textLength="18.3459" font-size="1.6933" lengthAdjust="spacingAndGlyphs"
text-anchor="middle" opacity="0" stroke-opacity="0">Cavitating_Venturi?</text>
<g class="stroked-text"><desc>Cavitating_Venturi?</desc>
<path d="M2.3199 20.4155
L2.2595 20.4760
" />
<path d="M2.2595 20.4760
L2.0780 20.5364
" />
<path d="M2.0780 20.5364
L1.9571 20.5364
" />
<path d="M1.9571 20.5364
L1.7757 20.4760
" />
<path d="M1.7757 20.4760
L1.6547 20.3550
" />
<path d="M1.6547 20.3550
L1.5942 20.2340
" />
<path d="M1.5942 20.2340
L1.5338 19.9921
" />
<path d="M1.5338 19.9921
L1.5338 19.8107
" />
<path d="M1.5338 19.8107
L1.5942 19.5688
" />
<path d="M1.5942 19.5688
L1.6547 19.4479
" />
<path d="M1.6547 19.4479
L1.7757 19.3269
" />
<path d="M1.7757 19.3269
L1.9571 19.2664
" />
<path d="M1.9571 19.2664
L2.0780 19.2664
" />
<path d="M2.0780 19.2664
L2.2595 19.3269
" />
<path d="M2.2595 19.3269
L2.3199 19.3874
" />
<path d="M3.4085 20.5364
L3.4085 19.8712
" />
<path d="M3.4085 19.8712
L3.3480 19.7502
" />
<path d="M3.3480 19.7502
L3.2271 19.6898
" />
<path d="M3.2271 19.6898
L2.9852 19.6898
" />
<path d="M2.9852 19.6898
L2.8642 19.7502
" />
<path d="M3.4085 20.4760
L3.2876 20.5364
" />
<path d="M3.2876 20.5364
L2.9852 20.5364
" />
<path d="M2.9852 20.5364
L2.8642 20.4760
" />
<path d="M2.8642 20.4760
L2.8038 20.3550
" />
<path d="M2.8038 20.3550
L2.8038 20.2340
" />
<path d="M2.8038 20.2340
L2.8642 20.1131
" />
<path d="M2.8642 20.1131
L2.9852 20.0526
" />
<path d="M2.9852 20.0526
L3.2876 20.0526
" />
<path d="M3.2876 20.0526
L3.4085 19.9921
" />
<path d="M3.8923 19.6898
L4.1947 20.5364
" />
<path d="M4.1947 20.5364
L4.4970 19.6898
" />
<path d="M4.9808 20.5364
L4.9808 19.6898
" />
<path d="M4.9808 19.2664
L4.9204 19.3269
" />
<path d="M4.9204 19.3269
L4.9808 19.3874
" />
<path d="M4.9808 19.3874
L5.0413 19.3269
" />
<path d="M5.0413 19.3269
L4.9808 19.2664
" />
<path d="M4.9808 19.2664
L4.9808 19.3874
" />
<path d="M5.4042 19.6898
L5.8880 19.6898
" />
<path d="M5.5856 19.2664
L5.5856 20.3550
" />
<path d="M5.5856 20.3550
L5.6461 20.4760
" />
<path d="M5.6461 20.4760
L5.7671 20.5364
" />
<path d="M5.7671 20.5364
L5.8880 20.5364
" />
<path d="M6.8556 20.5364
L6.8556 19.8712
" />
<path d="M6.8556 19.8712
L6.7951 19.7502
" />
<path d="M6.7951 19.7502
L6.6742 19.6898
" />
<path d="M6.6742 19.6898
L6.4323 19.6898
" />
<path d="M6.4323 19.6898
L6.3113 19.7502
" />
<path d="M6.8556 20.4760
L6.7347 20.5364
" />
<path d="M6.7347 20.5364
L6.4323 20.5364
" />
<path d="M6.4323 20.5364
L6.3113 20.4760
" />
<path d="M6.3113 20.4760
L6.2509 20.3550
" />
<path d="M6.2509 20.3550
L6.2509 20.2340
" />
<path d="M6.2509 20.2340
L6.3113 20.1131
" />
<path d="M6.3113 20.1131
L6.4323 20.0526
" />
<path d="M6.4323 20.0526
L6.7347 20.0526
" />
<path d="M6.7347 20.0526
L6.8556 19.9921
" />
<path d="M7.2789 19.6898
L7.7627 19.6898
" />
<path d="M7.4603 19.2664
L7.4603 20.3550
" />
<path d="M7.4603 20.3550
L7.5208 20.4760
" />
<path d="M7.5208 20.4760
L7.6418 20.5364
" />
<path d="M7.6418 20.5364
L7.7627 20.5364
" />
<path d="M8.1860 20.5364
L8.1860 19.6898
" />
<path d="M8.1860 19.2664
L8.1256 19.3269
" />
<path d="M8.1256 19.3269
L8.1860 19.3874
" />
<path d="M8.1860 19.3874
L8.2465 19.3269
" />
<path d="M8.2465 19.3269
L8.1860 19.2664
" />
<path d="M8.1860 19.2664
L8.1860 19.3874
" />
<path d="M8.7908 19.6898
L8.7908 20.5364
" />
<path d="M8.7908 19.8107
L8.8513 19.7502
" />
<path d="M8.8513 19.7502
L8.9723 19.6898
" />
<path d="M8.9723 19.6898
L9.1537 19.6898
" />
<path d="M9.1537 19.6898
L9.2746 19.7502
" />
<path d="M9.2746 19.7502
L9.3351 19.8712
" />
<path d="M9.3351 19.8712
L9.3351 20.5364
" />
<path d="M10.4841 19.6898
L10.4841 20.7179
" />
<path d="M10.4841 20.7179
L10.4236 20.8388
" />
<path d="M10.4236 20.8388
L10.3632 20.8993
" />
<path d="M10.3632 20.8993
L10.2422 20.9598
" />
<path d="M10.2422 20.9598
L10.0608 20.9598
" />
<path d="M10.0608 20.9598
L9.9398 20.8993
" />
<path d="M10.4841 20.4760
L10.3632 20.5364
" />
<path d="M10.3632 20.5364
L10.1213 20.5364
" />
<path d="M10.1213 20.5364
L10.0003 20.4760
" />
<path d="M10.0003 20.4760
L9.9398 20.4155
" />
<path d="M9.9398 20.4155
L9.8794 20.2945
" />
<path d="M9.8794 20.2945
L9.8794 19.9317
" />
<path d="M9.8794 19.9317
L9.9398 19.8107
" />
<path d="M9.9398 19.8107
L10.0003 19.7502
" />
<path d="M10.0003 19.7502
L10.1213 19.6898
" />
<path d="M10.1213 19.6898
L10.3632 19.6898
" />
<path d="M10.3632 19.6898
L10.4841 19.7502
" />
<path d="M10.7865 20.6574
L11.7541 20.6574
" />
<path d="M11.8750 19.2664
L12.2983 20.5364
" />
<path d="M12.2983 20.5364
L12.7217 19.2664
" />
<path d="M13.6288 20.4760
L13.5079 20.5364
" />
<path d="M13.5079 20.5364
L13.2660 20.5364
" />
<path d="M13.2660 20.5364
L13.1450 20.4760
" />
<path d="M13.1450 20.4760
L13.0846 20.3550
" />
<path d="M13.0846 20.3550
L13.0846 19.8712
" />
<path d="M13.0846 19.8712
L13.1450 19.7502
" />
<path d="M13.1450 19.7502
L13.2660 19.6898
" />
<path d="M13.2660 19.6898
L13.5079 19.6898
" />
<path d="M13.5079 19.6898
L13.6288 19.7502
" />
<path d="M13.6288 19.7502
L13.6893 19.8712
" />
<path d="M13.6893 19.8712
L13.6893 19.9921
" />
<path d="M13.6893 19.9921
L13.0846 20.1131
" />
<path d="M14.2336 19.6898
L14.2336 20.5364
" />
<path d="M14.2336 19.8107
L14.2941 19.7502
" />
<path d="M14.2941 19.7502
L14.4151 19.6898
" />
<path d="M14.4151 19.6898
L14.5965 19.6898
" />
<path d="M14.5965 19.6898
L14.7174 19.7502
" />
<path d="M14.7174 19.7502
L14.7779 19.8712
" />
<path d="M14.7779 19.8712
L14.7779 20.5364
" />
<path d="M15.2012 19.6898
L15.6850 19.6898
" />
<path d="M15.3826 19.2664
L15.3826 20.3550
" />
<path d="M15.3826 20.3550
L15.4431 20.4760
" />
<path d="M15.4431 20.4760
L15.5641 20.5364
" />
<path d="M15.5641 20.5364
L15.6850 20.5364
" />
<path d="M16.6526 19.6898
L16.6526 20.5364
" />
<path d="M16.1083 19.6898
L16.1083 20.3550
" />
<path d="M16.1083 20.3550
L16.1688 20.4760
" />
<path d="M16.1688 20.4760
L16.2898 20.5364
" />
<path d="M16.2898 20.5364
L16.4712 20.5364
" />
<path d="M16.4712 20.5364
L16.5921 20.4760
" />
<path d="M16.5921 20.4760
L16.6526 20.4155
" />
<path d="M17.2573 20.5364
L17.2573 19.6898
" />
<path d="M17.2573 19.9317
L17.3178 19.8107
" />
<path d="M17.3178 19.8107
L17.3783 19.7502
" />
<path d="M17.3783 19.7502
L17.4992 19.6898
" />
<path d="M17.4992 19.6898
L17.6202 19.6898
" />
<path d="M18.0435 20.5364
L18.0435 19.6898
" />
<path d="M18.0435 19.2664
L17.9831 19.3269
" />
<path d="M17.9831 19.3269
L18.0435 19.3874
" />
<path d="M18.0435 19.3874
L18.1040 19.3269
" />
<path d="M18.1040 19.3269
L18.0435 19.2664
" />
<path d="M18.0435 19.2664
L18.0435 19.3874
" />
<path d="M18.8298 20.4155
L18.8902 20.4760
" />
<path d="M18.8902 20.4760
L18.8298 20.5364
" />
<path d="M18.8298 20.5364
L18.7693 20.4760
" />
<path d="M18.7693 20.4760
L18.8298 20.4155
" />
<path d="M18.8298 20.4155
L18.8298 20.5364
" />
<path d="M18.5879 19.3269
L18.7088 19.2664
" />
<path d="M18.7088 19.2664
L19.0112 19.2664
" />
<path d="M19.0112 19.2664
L19.1321 19.3269
" />
<path d="M19.1321 19.3269
L19.1926 19.4479
" />
<path d="M19.1926 19.4479
L19.1926 19.5688
" />
<path d="M19.1926 19.5688
L19.1321 19.6898
" />
<path d="M19.1321 19.6898
L19.0717 19.7502
" />
<path d="M19.0717 19.7502
L18.9507 19.8107
" />
<path d="M18.9507 19.8107
L18.8902 19.8712
" />
<path d="M18.8902 19.8712
L18.8298 19.9921
" />
<path d="M18.8298 19.9921
L18.8298 20.0526
" />
</g></g>
</svg>
