<?xml version="1.0" standalone="no"?>
 <!DOCTYPE svg PUBLIC "-//W3C//DTD SVG 1.1//EN"
 "http://www.w3.org/Graphics/SVG/1.1/DTD/svg11.dtd">
<svg
  xmlns:svg="http://www.w3.org/2000/svg"
  xmlns="http://www.w3.org/2000/svg"
  xmlns:xlink="http://www.w3.org/1999/xlink"
  xmlns:inkscape="http://www.inkscape.org/namespaces/inkscape"
  version="1.1"
  width="21.1582mm" height="22.8854mm" viewBox="0.0000 0.0000 21.1582 22.8854">
<title>SVG Image created as Restriction Orifice_unit1.svg date 2026-05-31T14:38:12 </title>
  <desc>Image generated by Eeschema-SVG </desc>
<g style="fill:#000000; fill-opacity:1.0000;stroke:#000000; stroke-opacity:1.0000;
stroke-linecap:round; stroke-linejoin:round;"
 transform="translate(0 0) scale(1 1)">
<path style="fill:none;
stroke:#840000; stroke-width:0.1000; stroke-opacity:1;
stroke-linecap:round; stroke-linejoin:round;fill:none"
d="M 2.5791,9.9569
18.5791,9.9569
" />
<path style="fill:#840000; fill-opacity:1.0000;
stroke:#840000; stroke-width:0.1000; stroke-opacity:1;
stroke-linecap:round; stroke-linejoin:round;fill-rule:evenodd;"
d="M 4.5791,9.9569
4.5791,9.7069
5.5791,9.9569
4.5791,10.2069
Z" />
<path style="fill:none;
stroke:#840000; stroke-width:0.1000; stroke-opacity:1;
stroke-linecap:round; stroke-linejoin:round;fill:none"
d="M 9.7791,11.9569
9.7791,7.9569
" />
<path style="fill:none;
stroke:#840000; stroke-width:0.1000; stroke-opacity:1;
stroke-linecap:round; stroke-linejoin:round;fill:none"
d="M 11.3791,11.9569
11.3791,7.9569
" />
<path style="fill:#840000; fill-opacity:1.0000;
stroke:#840000; stroke-width:0.1000; stroke-opacity:1;
stroke-linecap:round; stroke-linejoin:round;fill-rule:evenodd;"
d="M 16.5791,9.9569
16.5791,9.7069
17.5791,9.9569
16.5791,10.2069
Z" />
</g>
<g style="fill:none;
stroke:#840000; stroke-width:0.1524; stroke-opacity:1;
stroke-linecap:round; stroke-linejoin:round;">
<path d="M5.5791 9.9569
L2.5791 9.9569
" />
<path d="M15.5791 9.9569
L18.5791 9.9569
" />
</g>
<g style="fill:none;
stroke:#006464; stroke-width:0.1524; stroke-opacity:1;
stroke-linecap:round; stroke-linejoin:round;">
<text x="10.5791" y="20.5919"
textLength="18.7091" font-size="1.6933" lengthAdjust="spacingAndGlyphs"
text-anchor="middle" opacity="0" stroke-opacity="0">Restriction_Orifice?</text>
<g class="stroked-text"><desc>Restriction_Orifice?</desc>
<path d="M2.3542 20.5364
L1.9309 19.9317
" />
<path d="M1.6285 20.5364
L1.6285 19.2664
" />
<path d="M1.6285 19.2664
L2.1123 19.2664
" />
<path d="M2.1123 19.2664
L2.2333 19.3269
" />
<path d="M2.2333 19.3269
L2.2938 19.3874
" />
<path d="M2.2938 19.3874
L2.3542 19.5083
" />
<path d="M2.3542 19.5083
L2.3542 19.6898
" />
<path d="M2.3542 19.6898
L2.2938 19.8107
" />
<path d="M2.2938 19.8107
L2.2333 19.8712
" />
<path d="M2.2333 19.8712
L2.1123 19.9317
" />
<path d="M2.1123 19.9317
L1.6285 19.9317
" />
<path d="M3.3823 20.4760
L3.2614 20.5364
" />
<path d="M3.2614 20.5364
L3.0195 20.5364
" />
<path d="M3.0195 20.5364
L2.8985 20.4760
" />
<path d="M2.8985 20.4760
L2.8381 20.3550
" />
<path d="M2.8381 20.3550
L2.8381 19.8712
" />
<path d="M2.8381 19.8712
L2.8985 19.7502
" />
<path d="M2.8985 19.7502
L3.0195 19.6898
" />
<path d="M3.0195 19.6898
L3.2614 19.6898
" />
<path d="M3.2614 19.6898
L3.3823 19.7502
" />
<path d="M3.3823 19.7502
L3.4428 19.8712
" />
<path d="M3.4428 19.8712
L3.4428 19.9921
" />
<path d="M3.4428 19.9921
L2.8381 20.1131
" />
<path d="M3.9267 20.4760
L4.0476 20.5364
" />
<path d="M4.0476 20.5364
L4.2895 20.5364
" />
<path d="M4.2895 20.5364
L4.4105 20.4760
" />
<path d="M4.4105 20.4760
L4.4709 20.3550
" />
<path d="M4.4709 20.3550
L4.4709 20.2945
" />
<path d="M4.4709 20.2945
L4.4105 20.1736
" />
<path d="M4.4105 20.1736
L4.2895 20.1131
" />
<path d="M4.2895 20.1131
L4.1081 20.1131
" />
<path d="M4.1081 20.1131
L3.9871 20.0526
" />
<path d="M3.9871 20.0526
L3.9267 19.9317
" />
<path d="M3.9267 19.9317
L3.9267 19.8712
" />
<path d="M3.9267 19.8712
L3.9871 19.7502
" />
<path d="M3.9871 19.7502
L4.1081 19.6898
" />
<path d="M4.1081 19.6898
L4.2895 19.6898
" />
<path d="M4.2895 19.6898
L4.4105 19.7502
" />
<path d="M4.8338 19.6898
L5.3176 19.6898
" />
<path d="M5.0152 19.2664
L5.0152 20.3550
" />
<path d="M5.0152 20.3550
L5.0757 20.4760
" />
<path d="M5.0757 20.4760
L5.1967 20.5364
" />
<path d="M5.1967 20.5364
L5.3176 20.5364
" />
<path d="M5.7409 20.5364
L5.7409 19.6898
" />
<path d="M5.7409 19.9317
L5.8014 19.8107
" />
<path d="M5.8014 19.8107
L5.8619 19.7502
" />
<path d="M5.8619 19.7502
L5.9828 19.6898
" />
<path d="M5.9828 19.6898
L6.1038 19.6898
" />
<path d="M6.5271 20.5364
L6.5271 19.6898
" />
<path d="M6.5271 19.2664
L6.4667 19.3269
" />
<path d="M6.4667 19.3269
L6.5271 19.3874
" />
<path d="M6.5271 19.3874
L6.5876 19.3269
" />
<path d="M6.5876 19.3269
L6.5271 19.2664
" />
<path d="M6.5271 19.2664
L6.5271 19.3874
" />
<path d="M7.6762 20.4760
L7.5553 20.5364
" />
<path d="M7.5553 20.5364
L7.3134 20.5364
" />
<path d="M7.3134 20.5364
L7.1924 20.4760
" />
<path d="M7.1924 20.4760
L7.1319 20.4155
" />
<path d="M7.1319 20.4155
L7.0715 20.2945
" />
<path d="M7.0715 20.2945
L7.0715 19.9317
" />
<path d="M7.0715 19.9317
L7.1319 19.8107
" />
<path d="M7.1319 19.8107
L7.1924 19.7502
" />
<path d="M7.1924 19.7502
L7.3134 19.6898
" />
<path d="M7.3134 19.6898
L7.5553 19.6898
" />
<path d="M7.5553 19.6898
L7.6762 19.7502
" />
<path d="M8.0391 19.6898
L8.5229 19.6898
" />
<path d="M8.2205 19.2664
L8.2205 20.3550
" />
<path d="M8.2205 20.3550
L8.2810 20.4760
" />
<path d="M8.2810 20.4760
L8.4020 20.5364
" />
<path d="M8.4020 20.5364
L8.5229 20.5364
" />
<path d="M8.9462 20.5364
L8.9462 19.6898
" />
<path d="M8.9462 19.2664
L8.8858 19.3269
" />
<path d="M8.8858 19.3269
L8.9462 19.3874
" />
<path d="M8.9462 19.3874
L9.0067 19.3269
" />
<path d="M9.0067 19.3269
L8.9462 19.2664
" />
<path d="M8.9462 19.2664
L8.9462 19.3874
" />
<path d="M9.7325 20.5364
L9.6115 20.4760
" />
<path d="M9.6115 20.4760
L9.5510 20.4155
" />
<path d="M9.5510 20.4155
L9.4906 20.2945
" />
<path d="M9.4906 20.2945
L9.4906 19.9317
" />
<path d="M9.4906 19.9317
L9.5510 19.8107
" />
<path d="M9.5510 19.8107
L9.6115 19.7502
" />
<path d="M9.6115 19.7502
L9.7325 19.6898
" />
<path d="M9.7325 19.6898
L9.9139 19.6898
" />
<path d="M9.9139 19.6898
L10.0348 19.7502
" />
<path d="M10.0348 19.7502
L10.0953 19.8107
" />
<path d="M10.0953 19.8107
L10.1558 19.9317
" />
<path d="M10.1558 19.9317
L10.1558 20.2945
" />
<path d="M10.1558 20.2945
L10.0953 20.4155
" />
<path d="M10.0953 20.4155
L10.0348 20.4760
" />
<path d="M10.0348 20.4760
L9.9139 20.5364
" />
<path d="M9.9139 20.5364
L9.7325 20.5364
" />
<path d="M10.7000 19.6898
L10.7000 20.5364
" />
<path d="M10.7000 19.8107
L10.7605 19.7502
" />
<path d="M10.7605 19.7502
L10.8815 19.6898
" />
<path d="M10.8815 19.6898
L11.0629 19.6898
" />
<path d="M11.0629 19.6898
L11.1838 19.7502
" />
<path d="M11.1838 19.7502
L11.2443 19.8712
" />
<path d="M11.2443 19.8712
L11.2443 20.5364
" />
<path d="M11.5467 20.6574
L12.5143 20.6574
" />
<path d="M13.0585 19.2664
L13.3004 19.2664
" />
<path d="M13.3004 19.2664
L13.4214 19.3269
" />
<path d="M13.4214 19.3269
L13.5423 19.4479
" />
<path d="M13.5423 19.4479
L13.6028 19.6898
" />
<path d="M13.6028 19.6898
L13.6028 20.1131
" />
<path d="M13.6028 20.1131
L13.5423 20.3550
" />
<path d="M13.5423 20.3550
L13.4214 20.4760
" />
<path d="M13.4214 20.4760
L13.3004 20.5364
" />
<path d="M13.3004 20.5364
L13.0585 20.5364
" />
<path d="M13.0585 20.5364
L12.9376 20.4760
" />
<path d="M12.9376 20.4760
L12.8166 20.3550
" />
<path d="M12.8166 20.3550
L12.7562 20.1131
" />
<path d="M12.7562 20.1131
L12.7562 19.6898
" />
<path d="M12.7562 19.6898
L12.8166 19.4479
" />
<path d="M12.8166 19.4479
L12.9376 19.3269
" />
<path d="M12.9376 19.3269
L13.0585 19.2664
" />
<path d="M14.1471 20.5364
L14.1471 19.6898
" />
<path d="M14.1471 19.9317
L14.2076 19.8107
" />
<path d="M14.2076 19.8107
L14.2681 19.7502
" />
<path d="M14.2681 19.7502
L14.3890 19.6898
" />
<path d="M14.3890 19.6898
L14.5100 19.6898
" />
<path d="M14.9333 20.5364
L14.9333 19.6898
" />
<path d="M14.9333 19.2664
L14.8729 19.3269
" />
<path d="M14.8729 19.3269
L14.9333 19.3874
" />
<path d="M14.9333 19.3874
L14.9938 19.3269
" />
<path d="M14.9938 19.3269
L14.9333 19.2664
" />
<path d="M14.9333 19.2664
L14.9333 19.3874
" />
<path d="M15.3567 19.6898
L15.8405 19.6898
" />
<path d="M15.5381 20.5364
L15.5381 19.4479
" />
<path d="M15.5381 19.4479
L15.5986 19.3269
" />
<path d="M15.5986 19.3269
L15.7196 19.2664
" />
<path d="M15.7196 19.2664
L15.8405 19.2664
" />
<path d="M16.2638 20.5364
L16.2638 19.6898
" />
<path d="M16.2638 19.2664
L16.2034 19.3269
" />
<path d="M16.2034 19.3269
L16.2638 19.3874
" />
<path d="M16.2638 19.3874
L16.3243 19.3269
" />
<path d="M16.3243 19.3269
L16.2638 19.2664
" />
<path d="M16.2638 19.2664
L16.2638 19.3874
" />
<path d="M17.4129 20.4760
L17.2920 20.5364
" />
<path d="M17.2920 20.5364
L17.0501 20.5364
" />
<path d="M17.0501 20.5364
L16.9291 20.4760
" />
<path d="M16.9291 20.4760
L16.8686 20.4155
" />
<path d="M16.8686 20.4155
L16.8082 20.2945
" />
<path d="M16.8082 20.2945
L16.8082 19.9317
" />
<path d="M16.8082 19.9317
L16.8686 19.8107
" />
<path d="M16.8686 19.8107
L16.9291 19.7502
" />
<path d="M16.9291 19.7502
L17.0501 19.6898
" />
<path d="M17.0501 19.6898
L17.2920 19.6898
" />
<path d="M17.2920 19.6898
L17.4129 19.7502
" />
<path d="M18.4410 20.4760
L18.3201 20.5364
" />
<path d="M18.3201 20.5364
L18.0782 20.5364
" />
<path d="M18.0782 20.5364
L17.9572 20.4760
" />
<path d="M17.9572 20.4760
L17.8968 20.3550
" />
<path d="M17.8968 20.3550
L17.8968 19.8712
" />
<path d="M17.8968 19.8712
L17.9572 19.7502
" />
<path d="M17.9572 19.7502
L18.0782 19.6898
" />
<path d="M18.0782 19.6898
L18.3201 19.6898
" />
<path d="M18.3201 19.6898
L18.4410 19.7502
" />
<path d="M18.4410 19.7502
L18.5015 19.8712
" />
<path d="M18.5015 19.8712
L18.5015 19.9921
" />
<path d="M18.5015 19.9921
L17.8968 20.1131
" />
<path d="M19.2273 20.4155
L19.2877 20.4760
" />
<path d="M19.2877 20.4760
L19.2273 20.5364
" />
<path d="M19.2273 20.5364
L19.1668 20.4760
" />
<path d="M19.1668 20.4760
L19.2273 20.4155
" />
<path d="M19.2273 20.4155
L19.2273 20.5364
" />
<path d="M18.9854 19.3269
L19.1063 19.2664
" />
<path d="M19.1063 19.2664
L19.4087 19.2664
" />
<path d="M19.4087 19.2664
L19.5296 19.3269
" />
<path d="M19.5296 19.3269
L19.5901 19.4479
" />
<path d="M19.5901 19.4479
L19.5901 19.5688
" />
<path d="M19.5901 19.5688
L19.5296 19.6898
" />
<path d="M19.5296 19.6898
L19.4692 19.7502
" />
<path d="M19.4692 19.7502
L19.3482 19.8107
" />
<path d="M19.3482 19.8107
L19.2877 19.8712
" />
<path d="M19.2877 19.8712
L19.2273 19.9921
" />
<path d="M19.2273 19.9921
L19.2273 20.0526
" />
</g></g>
</svg>
