<!-- Copyright 2026 Kingston University Rocket Engineering -->

<?xml version="1.0" standalone="no"?>
 <!DOCTYPE svg PUBLIC "-//W3C//DTD SVG 1.1//EN"
 "http://www.w3.org/Graphics/SVG/1.1/DTD/svg11.dtd">
<svg
  xmlns:svg="http://www.w3.org/2000/svg"
  xmlns="http://www.w3.org/2000/svg"
  xmlns:xlink="http://www.w3.org/1999/xlink"
  xmlns:inkscape="http://www.inkscape.org/namespaces/inkscape"
  version="1.1"
  width="19.3294mm" height="22.8854mm" viewBox="0.0000 0.0000 19.3294 22.8854">
<title>SVG Image created as Filter_unit1.svg date 2026-05-31T11:36:18 </title>
  <desc>Image generated by Eeschema-SVG </desc>
<g style="fill:#000000; fill-opacity:1.0000;stroke:#000000; stroke-opacity:1.0000;
stroke-linecap:round; stroke-linejoin:round;"
 transform="translate(0 0) scale(1 1)">
<path style="fill:#840000; fill-opacity:1.0000;
stroke:#840000; stroke-width:0.1000; stroke-opacity:1;
stroke-linecap:round; stroke-linejoin:round;fill-rule:evenodd;"
d="M 6.6647,9.9569
6.6647,9.7069
7.6647,9.9569
6.6647,10.2069
Z" />
<path style="fill:none;
stroke:#840000; stroke-width:0.1000; stroke-opacity:1;
stroke-linecap:round; stroke-linejoin:round;fill:none"
d="M 7.6647,7.9569
11.6647,7.9569
" />
<path style="fill:none;
stroke:#840000; stroke-width:0.1000; stroke-opacity:1;
stroke-linecap:round; stroke-linejoin:round;fill:none"
d="M 7.6647,11.9569
7.6647,7.9569
" />
<path style="fill:none;
stroke:#840000; stroke-width:0.1000; stroke-opacity:1;
stroke-linecap:round; stroke-linejoin:round;stroke-dasharray:1.1000,0.4000;fill:none"
d="M 7.6647,11.9569
11.6647,7.9569
" />
<path style="fill:none;
stroke:#840000; stroke-width:0.1000; stroke-opacity:1;
stroke-linecap:round; stroke-linejoin:round;fill:none"
d="M 7.6647,11.9569
11.6647,11.9569
" />
<path style="fill:none;
stroke:#840000; stroke-width:0.1000; stroke-opacity:1;
stroke-linecap:round; stroke-linejoin:round;fill:none"
d="M 11.6647,7.9569
11.6647,11.9569
" />
<path style="fill:#840000; fill-opacity:1.0000;
stroke:#840000; stroke-width:0.1000; stroke-opacity:1;
stroke-linecap:round; stroke-linejoin:round;fill-rule:evenodd;"
d="M 13.6647,9.9569
13.6647,9.7069
14.6647,9.9569
13.6647,10.2069
Z" />
</g>
<g style="fill:none;
stroke:#840000; stroke-width:0.1524; stroke-opacity:1;
stroke-linecap:round; stroke-linejoin:round;">
<path d="M7.6647 9.9569
L4.6647 9.9569
" />
<path d="M11.6647 9.9569
L14.6647 9.9569
" />
</g>
<g style="fill:none;
stroke:#006464; stroke-width:0.1524; stroke-opacity:1;
stroke-linecap:round; stroke-linejoin:round;">
<text x="9.6647" y="20.5919"
textLength="6.2509" font-size="1.6933" lengthAdjust="spacingAndGlyphs"
text-anchor="middle" opacity="0" stroke-opacity="0">Filter?</text>
<g class="stroked-text"><desc>Filter?</desc>
<path d="M7.3666 19.8712
L6.9432 19.8712
" />
<path d="M6.9432 20.5364
L6.9432 19.2664
" />
<path d="M6.9432 19.2664
L7.5480 19.2664
" />
<path d="M8.0318 20.5364
L8.0318 19.6898
" />
<path d="M8.0318 19.2664
L7.9714 19.3269
" />
<path d="M7.9714 19.3269
L8.0318 19.3874
" />
<path d="M8.0318 19.3874
L8.0923 19.3269
" />
<path d="M8.0923 19.3269
L8.0318 19.2664
" />
<path d="M8.0318 19.2664
L8.0318 19.3874
" />
<path d="M8.8181 20.5364
L8.6971 20.4760
" />
<path d="M8.6971 20.4760
L8.6366 20.3550
" />
<path d="M8.6366 20.3550
L8.6366 19.2664
" />
<path d="M9.1204 19.6898
L9.6042 19.6898
" />
<path d="M9.3018 19.2664
L9.3018 20.3550
" />
<path d="M9.3018 20.3550
L9.3623 20.4760
" />
<path d="M9.3623 20.4760
L9.4833 20.5364
" />
<path d="M9.4833 20.5364
L9.6042 20.5364
" />
<path d="M10.5113 20.4760
L10.3904 20.5364
" />
<path d="M10.3904 20.5364
L10.1485 20.5364
" />
<path d="M10.1485 20.5364
L10.0275 20.4760
" />
<path d="M10.0275 20.4760
L9.9671 20.3550
" />
<path d="M9.9671 20.3550
L9.9671 19.8712
" />
<path d="M9.9671 19.8712
L10.0275 19.7502
" />
<path d="M10.0275 19.7502
L10.1485 19.6898
" />
<path d="M10.1485 19.6898
L10.3904 19.6898
" />
<path d="M10.3904 19.6898
L10.5113 19.7502
" />
<path d="M10.5113 19.7502
L10.5718 19.8712
" />
<path d="M10.5718 19.8712
L10.5718 19.9921
" />
<path d="M10.5718 19.9921
L9.9671 20.1131
" />
<path d="M11.1161 20.5364
L11.1161 19.6898
" />
<path d="M11.1161 19.9317
L11.1766 19.8107
" />
<path d="M11.1766 19.8107
L11.2371 19.7502
" />
<path d="M11.2371 19.7502
L11.3580 19.6898
" />
<path d="M11.3580 19.6898
L11.4790 19.6898
" />
<path d="M12.0838 20.4155
L12.1442 20.4760
" />
<path d="M12.1442 20.4760
L12.0838 20.5364
" />
<path d="M12.0838 20.5364
L12.0233 20.4760
" />
<path d="M12.0233 20.4760
L12.0838 20.4155
" />
<path d="M12.0838 20.4155
L12.0838 20.5364
" />
<path d="M11.8419 19.3269
L11.9628 19.2664
" />
<path d="M11.9628 19.2664
L12.2652 19.2664
" />
<path d="M12.2652 19.2664
L12.3861 19.3269
" />
<path d="M12.3861 19.3269
L12.4466 19.4479
" />
<path d="M12.4466 19.4479
L12.4466 19.5688
" />
<path d="M12.4466 19.5688
L12.3861 19.6898
" />
<path d="M12.3861 19.6898
L12.3257 19.7502
" />
<path d="M12.3257 19.7502
L12.2047 19.8107
" />
<path d="M12.2047 19.8107
L12.1442 19.8712
" />
<path d="M12.1442 19.8712
L12.0838 19.9921
" />
<path d="M12.0838 19.9921
L12.0838 20.0526
" />
</g></g>
</svg>
