<?xml version="1.0" standalone="no"?>
 <!DOCTYPE svg PUBLIC "-//W3C//DTD SVG 1.1//EN"
 "http://www.w3.org/Graphics/SVG/1.1/DTD/svg11.dtd">
<svg
  xmlns:svg="http://www.w3.org/2000/svg"
  xmlns="http://www.w3.org/2000/svg"
  xmlns:xlink="http://www.w3.org/1999/xlink"
  xmlns:inkscape="http://www.inkscape.org/namespaces/inkscape"
  version="1.1"
  width="19.3294mm" height="22.8854mm" viewBox="0.0000 0.0000 19.3294 22.8854">
<title>SVG Image created as Filter - Conical_unit1.svg date 2026-05-31T11:36:17 </title>
  <desc>Image generated by Eeschema-SVG </desc>
<g style="fill:#000000; fill-opacity:1.0000;stroke:#000000; stroke-opacity:1.0000;
stroke-linecap:round; stroke-linejoin:round;"
 transform="translate(0 0) scale(1 1)">
<path style="fill:#840000; fill-opacity:1.0000;
stroke:#840000; stroke-width:0.1000; stroke-opacity:1;
stroke-linecap:round; stroke-linejoin:round;fill-rule:evenodd;"
d="M 6.6647,9.9569
6.6647,9.7069
7.6647,9.9569
6.6647,10.2069
Z" />
</g>
<g style="fill:none;
stroke:#840000; stroke-width:0.1000; stroke-opacity:1;
stroke-linecap:round; stroke-linejoin:round;">
<circle cx="9.6647" cy="9.9569" r="2.0000" />
<path style="fill:none;
stroke:#840000; stroke-width:0.1000; stroke-opacity:1;
stroke-linecap:round; stroke-linejoin:round;fill:none"
d="M 11.6647,9.9569
9.6647,7.9569
" />
<path style="fill:none;
stroke:#840000; stroke-width:0.1000; stroke-opacity:1;
stroke-linecap:round; stroke-linejoin:round;fill:none"
d="M 11.6647,9.9569
9.6647,11.9569
" />
<path style="fill:#840000; fill-opacity:1.0000;
stroke:#840000; stroke-width:0.1000; stroke-opacity:1;
stroke-linecap:round; stroke-linejoin:round;fill-rule:evenodd;"
d="M 13.6647,9.9569
13.6647,9.7069
14.6647,9.9569
13.6647,10.2069
Z" />
</g>
<g style="fill:none;
stroke:#840000; stroke-width:0.1524; stroke-opacity:1;
stroke-linecap:round; stroke-linejoin:round;">
<path d="M7.6647 9.9569
L4.6647 9.9569
" />
<path d="M11.6647 9.9569
L14.6647 9.9569
" />
</g>
<g style="fill:none;
stroke:#006464; stroke-width:0.1524; stroke-opacity:1;
stroke-linecap:round; stroke-linejoin:round;">
<text x="9.6647" y="20.5919"
textLength="14.2941" font-size="1.6933" lengthAdjust="spacingAndGlyphs"
text-anchor="middle" opacity="0" stroke-opacity="0">Conical_Filter?</text>
<g class="stroked-text"><desc>Conical_Filter?</desc>
<path d="M3.6473 20.4155
L3.5869 20.4760
" />
<path d="M3.5869 20.4760
L3.4054 20.5364
" />
<path d="M3.4054 20.5364
L3.2845 20.5364
" />
<path d="M3.2845 20.5364
L3.1031 20.4760
" />
<path d="M3.1031 20.4760
L2.9821 20.3550
" />
<path d="M2.9821 20.3550
L2.9216 20.2340
" />
<path d="M2.9216 20.2340
L2.8612 19.9921
" />
<path d="M2.8612 19.9921
L2.8612 19.8107
" />
<path d="M2.8612 19.8107
L2.9216 19.5688
" />
<path d="M2.9216 19.5688
L2.9821 19.4479
" />
<path d="M2.9821 19.4479
L3.1031 19.3269
" />
<path d="M3.1031 19.3269
L3.2845 19.2664
" />
<path d="M3.2845 19.2664
L3.4054 19.2664
" />
<path d="M3.4054 19.2664
L3.5869 19.3269
" />
<path d="M3.5869 19.3269
L3.6473 19.3874
" />
<path d="M4.3731 20.5364
L4.2521 20.4760
" />
<path d="M4.2521 20.4760
L4.1916 20.4155
" />
<path d="M4.1916 20.4155
L4.1312 20.2945
" />
<path d="M4.1312 20.2945
L4.1312 19.9317
" />
<path d="M4.1312 19.9317
L4.1916 19.8107
" />
<path d="M4.1916 19.8107
L4.2521 19.7502
" />
<path d="M4.2521 19.7502
L4.3731 19.6898
" />
<path d="M4.3731 19.6898
L4.5545 19.6898
" />
<path d="M4.5545 19.6898
L4.6754 19.7502
" />
<path d="M4.6754 19.7502
L4.7359 19.8107
" />
<path d="M4.7359 19.8107
L4.7964 19.9317
" />
<path d="M4.7964 19.9317
L4.7964 20.2945
" />
<path d="M4.7964 20.2945
L4.7359 20.4155
" />
<path d="M4.7359 20.4155
L4.6754 20.4760
" />
<path d="M4.6754 20.4760
L4.5545 20.5364
" />
<path d="M4.5545 20.5364
L4.3731 20.5364
" />
<path d="M5.3406 19.6898
L5.3406 20.5364
" />
<path d="M5.3406 19.8107
L5.4011 19.7502
" />
<path d="M5.4011 19.7502
L5.5221 19.6898
" />
<path d="M5.5221 19.6898
L5.7035 19.6898
" />
<path d="M5.7035 19.6898
L5.8244 19.7502
" />
<path d="M5.8244 19.7502
L5.8849 19.8712
" />
<path d="M5.8849 19.8712
L5.8849 20.5364
" />
<path d="M6.4896 20.5364
L6.4896 19.6898
" />
<path d="M6.4896 19.2664
L6.4292 19.3269
" />
<path d="M6.4292 19.3269
L6.4896 19.3874
" />
<path d="M6.4896 19.3874
L6.5501 19.3269
" />
<path d="M6.5501 19.3269
L6.4896 19.2664
" />
<path d="M6.4896 19.2664
L6.4896 19.3874
" />
<path d="M7.6387 20.4760
L7.5178 20.5364
" />
<path d="M7.5178 20.5364
L7.2759 20.5364
" />
<path d="M7.2759 20.5364
L7.1549 20.4760
" />
<path d="M7.1549 20.4760
L7.0944 20.4155
" />
<path d="M7.0944 20.4155
L7.0340 20.2945
" />
<path d="M7.0340 20.2945
L7.0340 19.9317
" />
<path d="M7.0340 19.9317
L7.0944 19.8107
" />
<path d="M7.0944 19.8107
L7.1549 19.7502
" />
<path d="M7.1549 19.7502
L7.2759 19.6898
" />
<path d="M7.2759 19.6898
L7.5178 19.6898
" />
<path d="M7.5178 19.6898
L7.6387 19.7502
" />
<path d="M8.7273 20.5364
L8.7273 19.8712
" />
<path d="M8.7273 19.8712
L8.6668 19.7502
" />
<path d="M8.6668 19.7502
L8.5459 19.6898
" />
<path d="M8.5459 19.6898
L8.3040 19.6898
" />
<path d="M8.3040 19.6898
L8.1830 19.7502
" />
<path d="M8.7273 20.4760
L8.6064 20.5364
" />
<path d="M8.6064 20.5364
L8.3040 20.5364
" />
<path d="M8.3040 20.5364
L8.1830 20.4760
" />
<path d="M8.1830 20.4760
L8.1226 20.3550
" />
<path d="M8.1226 20.3550
L8.1226 20.2340
" />
<path d="M8.1226 20.2340
L8.1830 20.1131
" />
<path d="M8.1830 20.1131
L8.3040 20.0526
" />
<path d="M8.3040 20.0526
L8.6064 20.0526
" />
<path d="M8.6064 20.0526
L8.7273 19.9921
" />
<path d="M9.5135 20.5364
L9.3925 20.4760
" />
<path d="M9.3925 20.4760
L9.3320 20.3550
" />
<path d="M9.3320 20.3550
L9.3320 19.2664
" />
<path d="M9.6949 20.6574
L10.6625 20.6574
" />
<path d="M11.3882 19.8712
L10.9648 19.8712
" />
<path d="M10.9648 20.5364
L10.9648 19.2664
" />
<path d="M10.9648 19.2664
L11.5696 19.2664
" />
<path d="M12.0534 20.5364
L12.0534 19.6898
" />
<path d="M12.0534 19.2664
L11.9930 19.3269
" />
<path d="M11.9930 19.3269
L12.0534 19.3874
" />
<path d="M12.0534 19.3874
L12.1139 19.3269
" />
<path d="M12.1139 19.3269
L12.0534 19.2664
" />
<path d="M12.0534 19.2664
L12.0534 19.3874
" />
<path d="M12.8397 20.5364
L12.7187 20.4760
" />
<path d="M12.7187 20.4760
L12.6582 20.3550
" />
<path d="M12.6582 20.3550
L12.6582 19.2664
" />
<path d="M13.1420 19.6898
L13.6258 19.6898
" />
<path d="M13.3234 19.2664
L13.3234 20.3550
" />
<path d="M13.3234 20.3550
L13.3839 20.4760
" />
<path d="M13.3839 20.4760
L13.5049 20.5364
" />
<path d="M13.5049 20.5364
L13.6258 20.5364
" />
<path d="M14.5329 20.4760
L14.4120 20.5364
" />
<path d="M14.4120 20.5364
L14.1701 20.5364
" />
<path d="M14.1701 20.5364
L14.0491 20.4760
" />
<path d="M14.0491 20.4760
L13.9887 20.3550
" />
<path d="M13.9887 20.3550
L13.9887 19.8712
" />
<path d="M13.9887 19.8712
L14.0491 19.7502
" />
<path d="M14.0491 19.7502
L14.1701 19.6898
" />
<path d="M14.1701 19.6898
L14.4120 19.6898
" />
<path d="M14.4120 19.6898
L14.5329 19.7502
" />
<path d="M14.5329 19.7502
L14.5934 19.8712
" />
<path d="M14.5934 19.8712
L14.5934 19.9921
" />
<path d="M14.5934 19.9921
L13.9887 20.1131
" />
<path d="M15.1377 20.5364
L15.1377 19.6898
" />
<path d="M15.1377 19.9317
L15.1982 19.8107
" />
<path d="M15.1982 19.8107
L15.2587 19.7502
" />
<path d="M15.2587 19.7502
L15.3796 19.6898
" />
<path d="M15.3796 19.6898
L15.5006 19.6898
" />
<path d="M16.1054 20.4155
L16.1658 20.4760
" />
<path d="M16.1658 20.4760
L16.1054 20.5364
" />
<path d="M16.1054 20.5364
L16.0449 20.4760
" />
<path d="M16.0449 20.4760
L16.1054 20.4155
" />
<path d="M16.1054 20.4155
L16.1054 20.5364
" />
<path d="M15.8635 19.3269
L15.9844 19.2664
" />
<path d="M15.9844 19.2664
L16.2868 19.2664
" />
<path d="M16.2868 19.2664
L16.4077 19.3269
" />
<path d="M16.4077 19.3269
L16.4682 19.4479
" />
<path d="M16.4682 19.4479
L16.4682 19.5688
" />
<path d="M16.4682 19.5688
L16.4077 19.6898
" />
<path d="M16.4077 19.6898
L16.3473 19.7502
" />
<path d="M16.3473 19.7502
L16.2263 19.8107
" />
<path d="M16.2263 19.8107
L16.1658 19.8712
" />
<path d="M16.1658 19.8712
L16.1054 19.9921
" />
<path d="M16.1054 19.9921
L16.1054 20.0526
" />
</g></g>
</svg>
