<!-- Copyright 2026 Kingston University Rocket Engineering -->

<?xml version="1.0" standalone="no"?>
 <!DOCTYPE svg PUBLIC "-//W3C//DTD SVG 1.1//EN"
 "http://www.w3.org/Graphics/SVG/1.1/DTD/svg11.dtd">
<svg
  xmlns:svg="http://www.w3.org/2000/svg"
  xmlns="http://www.w3.org/2000/svg"
  xmlns:xlink="http://www.w3.org/1999/xlink"
  xmlns:inkscape="http://www.inkscape.org/namespaces/inkscape"
  version="1.1"
  width="22.0472mm" height="22.8854mm" viewBox="0.0000 0.0000 22.0472 22.8854">
<title>SVG Image created as Burst Disk - Vacuum_unit1.svg date 2026-05-31T11:36:32 </title>
  <desc>Image generated by Eeschema-SVG </desc>
<g style="fill:#000000; fill-opacity:1.0000;stroke:#000000; stroke-opacity:1.0000;
stroke-linecap:round; stroke-linejoin:round;"
 transform="translate(0 0) scale(1 1)">
<path style="fill:none;
stroke:#840000; stroke-width:0.1000; stroke-opacity:1;
stroke-linecap:round; stroke-linejoin:round;fill:none"
d="M 9.0236,6.9569
9.0236,12.9569
" />
<path style="fill:none;
stroke:#840000; stroke-width:0.1000; stroke-opacity:1;
stroke-linecap:round; stroke-linejoin:round;fill:none"
d="M 13.0236,6.9569
13.0236,12.9569
" />
<path style="fill:none;
stroke:#840000; stroke-width:0.1000; stroke-opacity:1;
stroke-linecap:round; stroke-linejoin:round;fill:none"
d="M 13.0236,9.9569
9.0236,7.9569
" />
<path style="fill:none;
stroke:#840000; stroke-width:0.1000; stroke-opacity:1;
stroke-linecap:round; stroke-linejoin:round;fill:none"
d="M 13.0236,9.9569
9.0236,11.9569
" />
<path style="fill:#840000; fill-opacity:1.0000;
stroke:#840000; stroke-width:0.1000; stroke-opacity:1;
stroke-linecap:round; stroke-linejoin:round;fill-rule:evenodd;"
d="M 13.0236,9.9569
14.0236,10.2069
14.0236,9.7069
Z" />
<path style="fill:none;
stroke:#840000; stroke-width:0.1000; stroke-opacity:1;
stroke-linecap:round; stroke-linejoin:round;fill:none"
d="M 16.0236,9.9569
14.0236,9.9569
" />
</g>
<g style="fill:none;
stroke:#840000; stroke-width:0.1524; stroke-opacity:1;
stroke-linecap:round; stroke-linejoin:round;">
<path d="M9.0236 9.9569
L6.0236 9.9569
" />
</g>
<g style="fill:none;
stroke:#006464; stroke-width:0.1524; stroke-opacity:1;
stroke-linecap:round; stroke-linejoin:round;">
<text x="11.0236" y="20.5919"
textLength="19.4345" font-size="1.6933" lengthAdjust="spacingAndGlyphs"
text-anchor="middle" opacity="0" stroke-opacity="0">Vacuum_Burst_Disk?</text>
<g class="stroked-text"><desc>Vacuum_Burst_Disk?</desc>
<path d="M1.5289 19.2664
L1.9522 20.5364
" />
<path d="M1.9522 20.5364
L2.3756 19.2664
" />
<path d="M3.3432 20.5364
L3.3432 19.8712
" />
<path d="M3.3432 19.8712
L3.2827 19.7502
" />
<path d="M3.2827 19.7502
L3.1618 19.6898
" />
<path d="M3.1618 19.6898
L2.9199 19.6898
" />
<path d="M2.9199 19.6898
L2.7989 19.7502
" />
<path d="M3.3432 20.4760
L3.2223 20.5364
" />
<path d="M3.2223 20.5364
L2.9199 20.5364
" />
<path d="M2.9199 20.5364
L2.7989 20.4760
" />
<path d="M2.7989 20.4760
L2.7385 20.3550
" />
<path d="M2.7385 20.3550
L2.7385 20.2340
" />
<path d="M2.7385 20.2340
L2.7989 20.1131
" />
<path d="M2.7989 20.1131
L2.9199 20.0526
" />
<path d="M2.9199 20.0526
L3.2223 20.0526
" />
<path d="M3.2223 20.0526
L3.3432 19.9921
" />
<path d="M4.4922 20.4760
L4.3713 20.5364
" />
<path d="M4.3713 20.5364
L4.1294 20.5364
" />
<path d="M4.1294 20.5364
L4.0084 20.4760
" />
<path d="M4.0084 20.4760
L3.9479 20.4155
" />
<path d="M3.9479 20.4155
L3.8875 20.2945
" />
<path d="M3.8875 20.2945
L3.8875 19.9317
" />
<path d="M3.8875 19.9317
L3.9479 19.8107
" />
<path d="M3.9479 19.8107
L4.0084 19.7502
" />
<path d="M4.0084 19.7502
L4.1294 19.6898
" />
<path d="M4.1294 19.6898
L4.3713 19.6898
" />
<path d="M4.3713 19.6898
L4.4922 19.7502
" />
<path d="M5.5808 19.6898
L5.5808 20.5364
" />
<path d="M5.0365 19.6898
L5.0365 20.3550
" />
<path d="M5.0365 20.3550
L5.0970 20.4760
" />
<path d="M5.0970 20.4760
L5.2180 20.5364
" />
<path d="M5.2180 20.5364
L5.3994 20.5364
" />
<path d="M5.3994 20.5364
L5.5203 20.4760
" />
<path d="M5.5203 20.4760
L5.5808 20.4155
" />
<path d="M6.7298 19.6898
L6.7298 20.5364
" />
<path d="M6.1855 19.6898
L6.1855 20.3550
" />
<path d="M6.1855 20.3550
L6.2460 20.4760
" />
<path d="M6.2460 20.4760
L6.3670 20.5364
" />
<path d="M6.3670 20.5364
L6.5484 20.5364
" />
<path d="M6.5484 20.5364
L6.6693 20.4760
" />
<path d="M6.6693 20.4760
L6.7298 20.4155
" />
<path d="M7.3345 20.5364
L7.3345 19.6898
" />
<path d="M7.3345 19.8107
L7.3950 19.7502
" />
<path d="M7.3950 19.7502
L7.5160 19.6898
" />
<path d="M7.5160 19.6898
L7.6974 19.6898
" />
<path d="M7.6974 19.6898
L7.8183 19.7502
" />
<path d="M7.8183 19.7502
L7.8788 19.8712
" />
<path d="M7.8788 19.8712
L7.8788 20.5364
" />
<path d="M7.8788 19.8712
L7.9393 19.7502
" />
<path d="M7.9393 19.7502
L8.0602 19.6898
" />
<path d="M8.0602 19.6898
L8.2417 19.6898
" />
<path d="M8.2417 19.6898
L8.3626 19.7502
" />
<path d="M8.3626 19.7502
L8.4231 19.8712
" />
<path d="M8.4231 19.8712
L8.4231 20.5364
" />
<path d="M8.7255 20.6574
L9.6931 20.6574
" />
<path d="M10.4188 19.8712
L10.6002 19.9317
" />
<path d="M10.6002 19.9317
L10.6607 19.9921
" />
<path d="M10.6607 19.9921
L10.7211 20.1131
" />
<path d="M10.7211 20.1131
L10.7211 20.2945
" />
<path d="M10.7211 20.2945
L10.6607 20.4155
" />
<path d="M10.6607 20.4155
L10.6002 20.4760
" />
<path d="M10.6002 20.4760
L10.4792 20.5364
" />
<path d="M10.4792 20.5364
L9.9954 20.5364
" />
<path d="M9.9954 20.5364
L9.9954 19.2664
" />
<path d="M9.9954 19.2664
L10.4188 19.2664
" />
<path d="M10.4188 19.2664
L10.5397 19.3269
" />
<path d="M10.5397 19.3269
L10.6002 19.3874
" />
<path d="M10.6002 19.3874
L10.6607 19.5083
" />
<path d="M10.6607 19.5083
L10.6607 19.6293
" />
<path d="M10.6607 19.6293
L10.6002 19.7502
" />
<path d="M10.6002 19.7502
L10.5397 19.8107
" />
<path d="M10.5397 19.8107
L10.4188 19.8712
" />
<path d="M10.4188 19.8712
L9.9954 19.8712
" />
<path d="M11.8097 19.6898
L11.8097 20.5364
" />
<path d="M11.2654 19.6898
L11.2654 20.3550
" />
<path d="M11.2654 20.3550
L11.3259 20.4760
" />
<path d="M11.3259 20.4760
L11.4469 20.5364
" />
<path d="M11.4469 20.5364
L11.6283 20.5364
" />
<path d="M11.6283 20.5364
L11.7492 20.4760
" />
<path d="M11.7492 20.4760
L11.8097 20.4155
" />
<path d="M12.4144 20.5364
L12.4144 19.6898
" />
<path d="M12.4144 19.9317
L12.4749 19.8107
" />
<path d="M12.4749 19.8107
L12.5354 19.7502
" />
<path d="M12.5354 19.7502
L12.6563 19.6898
" />
<path d="M12.6563 19.6898
L12.7773 19.6898
" />
<path d="M13.1402 20.4760
L13.2611 20.5364
" />
<path d="M13.2611 20.5364
L13.5030 20.5364
" />
<path d="M13.5030 20.5364
L13.6240 20.4760
" />
<path d="M13.6240 20.4760
L13.6844 20.3550
" />
<path d="M13.6844 20.3550
L13.6844 20.2945
" />
<path d="M13.6844 20.2945
L13.6240 20.1736
" />
<path d="M13.6240 20.1736
L13.5030 20.1131
" />
<path d="M13.5030 20.1131
L13.3216 20.1131
" />
<path d="M13.3216 20.1131
L13.2006 20.0526
" />
<path d="M13.2006 20.0526
L13.1402 19.9317
" />
<path d="M13.1402 19.9317
L13.1402 19.8712
" />
<path d="M13.1402 19.8712
L13.2006 19.7502
" />
<path d="M13.2006 19.7502
L13.3216 19.6898
" />
<path d="M13.3216 19.6898
L13.5030 19.6898
" />
<path d="M13.5030 19.6898
L13.6240 19.7502
" />
<path d="M14.0473 19.6898
L14.5311 19.6898
" />
<path d="M14.2287 19.2664
L14.2287 20.3550
" />
<path d="M14.2287 20.3550
L14.2892 20.4760
" />
<path d="M14.2892 20.4760
L14.4102 20.5364
" />
<path d="M14.4102 20.5364
L14.5311 20.5364
" />
<path d="M14.6521 20.6574
L15.6197 20.6574
" />
<path d="M15.9220 20.5364
L15.9220 19.2664
" />
<path d="M15.9220 19.2664
L16.2244 19.2664
" />
<path d="M16.2244 19.2664
L16.4058 19.3269
" />
<path d="M16.4058 19.3269
L16.5268 19.4479
" />
<path d="M16.5268 19.4479
L16.5873 19.5688
" />
<path d="M16.5873 19.5688
L16.6477 19.8107
" />
<path d="M16.6477 19.8107
L16.6477 19.9921
" />
<path d="M16.6477 19.9921
L16.5873 20.2340
" />
<path d="M16.5873 20.2340
L16.5268 20.3550
" />
<path d="M16.5268 20.3550
L16.4058 20.4760
" />
<path d="M16.4058 20.4760
L16.2244 20.5364
" />
<path d="M16.2244 20.5364
L15.9220 20.5364
" />
<path d="M17.1920 20.5364
L17.1920 19.6898
" />
<path d="M17.1920 19.2664
L17.1316 19.3269
" />
<path d="M17.1316 19.3269
L17.1920 19.3874
" />
<path d="M17.1920 19.3874
L17.2525 19.3269
" />
<path d="M17.2525 19.3269
L17.1920 19.2664
" />
<path d="M17.1920 19.2664
L17.1920 19.3874
" />
<path d="M17.7364 20.4760
L17.8573 20.5364
" />
<path d="M17.8573 20.5364
L18.0992 20.5364
" />
<path d="M18.0992 20.5364
L18.2202 20.4760
" />
<path d="M18.2202 20.4760
L18.2806 20.3550
" />
<path d="M18.2806 20.3550
L18.2806 20.2945
" />
<path d="M18.2806 20.2945
L18.2202 20.1736
" />
<path d="M18.2202 20.1736
L18.0992 20.1131
" />
<path d="M18.0992 20.1131
L17.9178 20.1131
" />
<path d="M17.9178 20.1131
L17.7968 20.0526
" />
<path d="M17.7968 20.0526
L17.7364 19.9317
" />
<path d="M17.7364 19.9317
L17.7364 19.8712
" />
<path d="M17.7364 19.8712
L17.7968 19.7502
" />
<path d="M17.7968 19.7502
L17.9178 19.6898
" />
<path d="M17.9178 19.6898
L18.0992 19.6898
" />
<path d="M18.0992 19.6898
L18.2202 19.7502
" />
<path d="M18.8249 20.5364
L18.8249 19.2664
" />
<path d="M18.9459 20.0526
L19.3087 20.5364
" />
<path d="M19.3087 19.6898
L18.8249 20.1736
" />
<path d="M20.0345 20.4155
L20.0949 20.4760
" />
<path d="M20.0949 20.4760
L20.0345 20.5364
" />
<path d="M20.0345 20.5364
L19.9740 20.4760
" />
<path d="M19.9740 20.4760
L20.0345 20.4155
" />
<path d="M20.0345 20.4155
L20.0345 20.5364
" />
<path d="M19.7926 19.3269
L19.9135 19.2664
" />
<path d="M19.9135 19.2664
L20.2159 19.2664
" />
<path d="M20.2159 19.2664
L20.3368 19.3269
" />
<path d="M20.3368 19.3269
L20.3973 19.4479
" />
<path d="M20.3973 19.4479
L20.3973 19.5688
" />
<path d="M20.3973 19.5688
L20.3368 19.6898
" />
<path d="M20.3368 19.6898
L20.2764 19.7502
" />
<path d="M20.2764 19.7502
L20.1554 19.8107
" />
<path d="M20.1554 19.8107
L20.0949 19.8712
" />
<path d="M20.0949 19.8712
L20.0345 19.9921
" />
<path d="M20.0345 19.9921
L20.0345 20.0526
" />
</g></g>
</svg>
