<?xml version="1.0" standalone="no"?>
 <!DOCTYPE svg PUBLIC "-//W3C//DTD SVG 1.1//EN" 
 "http://www.w3.org/Graphics/SVG/1.1/DTD/svg11.dtd"> 
<svg
  xmlns:svg="http://www.w3.org/2000/svg"
  xmlns="http://www.w3.org/2000/svg"
  xmlns:xlink="http://www.w3.org/1999/xlink"
  xmlns:inkscape="http://www.inkscape.org/namespaces/inkscape"
  version="1.1"
  width="23.6220mm" height="22.8854mm" viewBox="0.0000 0.0000 23.6220 22.8854">
<title>SVG Image created as Burst Disk - Pressure_unit1.svg date 2026-05-31T11:36:32 </title>
  <desc>Image generated by Eeschema-SVG </desc>
<g style="fill:#000000; fill-opacity:1.0000;stroke:#000000; stroke-opacity:1.0000;
stroke-linecap:round; stroke-linejoin:round;"
 transform="translate(0 0) scale(1 1)">
<path style="fill:none; 
stroke:#840000; stroke-width:0.1000; stroke-opacity:1; 
stroke-linecap:round; stroke-linejoin:round;fill:none"
d="M 11.6041,6.9569
11.6041,12.9569
" /> 
<path style="fill:none; 
stroke:#840000; stroke-width:0.1000; stroke-opacity:1; 
stroke-linecap:round; stroke-linejoin:round;fill:none"
d="M 14.6041,6.9569
14.6041,12.9569
" /> 
<path style="fill:none; 
stroke:#840000; stroke-width:0.1000; stroke-opacity:1; 
stroke-linecap:round; stroke-linejoin:round;fill:none"
d="M 14.6041,9.9569
11.6041,7.9569
" /> 
<path style="fill:none; 
stroke:#840000; stroke-width:0.1000; stroke-opacity:1; 
stroke-linecap:round; stroke-linejoin:round;fill:none"
d="M 14.6041,9.9569
11.6041,11.9569
" /> 
<path style="fill:#840000; fill-opacity:1.0000; 
stroke:#840000; stroke-width:0.1000; stroke-opacity:1; 
stroke-linecap:round; stroke-linejoin:round;fill-rule:evenodd;"
d="M 18.1041,9.9569
17.1041,9.7069
17.1041,10.2069
Z" /> 
</g>
<g style="fill:none; 
stroke:#840000; stroke-width:0.1524; stroke-opacity:1; 
stroke-linecap:round; stroke-linejoin:round;">
<path d="M11.6041 9.9569
L8.6041 9.9569
" />
<path d="M14.6041 9.9569
L17.6041 9.9569
" />
</g>
<g style="fill:none; 
stroke:#006464; stroke-width:0.1524; stroke-opacity:1; 
stroke-linecap:round; stroke-linejoin:round;">
<text x="11.6041" y="20.5919"
textLength="20.3418" font-size="1.6933" lengthAdjust="spacingAndGlyphs"
text-anchor="middle" opacity="0" stroke-opacity="0">Pressure_Burst_Disk?</text>
<g class="stroked-text"><desc>Pressure_Burst_Disk?</desc>
<path d="M1.8371 20.5364
L1.8371 19.2664
" />
<path d="M1.8371 19.2664
L2.3209 19.2664
" />
<path d="M2.3209 19.2664
L2.4419 19.3269
" />
<path d="M2.4419 19.3269
L2.5024 19.3874
" />
<path d="M2.5024 19.3874
L2.5628 19.5083
" />
<path d="M2.5628 19.5083
L2.5628 19.6898
" />
<path d="M2.5628 19.6898
L2.5024 19.8107
" />
<path d="M2.5024 19.8107
L2.4419 19.8712
" />
<path d="M2.4419 19.8712
L2.3209 19.9317
" />
<path d="M2.3209 19.9317
L1.8371 19.9317
" />
<path d="M3.1071 20.5364
L3.1071 19.6898
" />
<path d="M3.1071 19.9317
L3.1676 19.8107
" />
<path d="M3.1676 19.8107
L3.2281 19.7502
" />
<path d="M3.2281 19.7502
L3.3490 19.6898
" />
<path d="M3.3490 19.6898
L3.4700 19.6898
" />
<path d="M4.3771 20.4760
L4.2562 20.5364
" />
<path d="M4.2562 20.5364
L4.0143 20.5364
" />
<path d="M4.0143 20.5364
L3.8933 20.4760
" />
<path d="M3.8933 20.4760
L3.8329 20.3550
" />
<path d="M3.8329 20.3550
L3.8329 19.8712
" />
<path d="M3.8329 19.8712
L3.8933 19.7502
" />
<path d="M3.8933 19.7502
L4.0143 19.6898
" />
<path d="M4.0143 19.6898
L4.2562 19.6898
" />
<path d="M4.2562 19.6898
L4.3771 19.7502
" />
<path d="M4.3771 19.7502
L4.4376 19.8712
" />
<path d="M4.4376 19.8712
L4.4376 19.9921
" />
<path d="M4.4376 19.9921
L3.8329 20.1131
" />
<path d="M4.9215 20.4760
L5.0424 20.5364
" />
<path d="M5.0424 20.5364
L5.2843 20.5364
" />
<path d="M5.2843 20.5364
L5.4053 20.4760
" />
<path d="M5.4053 20.4760
L5.4657 20.3550
" />
<path d="M5.4657 20.3550
L5.4657 20.2945
" />
<path d="M5.4657 20.2945
L5.4053 20.1736
" />
<path d="M5.4053 20.1736
L5.2843 20.1131
" />
<path d="M5.2843 20.1131
L5.1029 20.1131
" />
<path d="M5.1029 20.1131
L4.9819 20.0526
" />
<path d="M4.9819 20.0526
L4.9215 19.9317
" />
<path d="M4.9215 19.9317
L4.9215 19.8712
" />
<path d="M4.9215 19.8712
L4.9819 19.7502
" />
<path d="M4.9819 19.7502
L5.1029 19.6898
" />
<path d="M5.1029 19.6898
L5.2843 19.6898
" />
<path d="M5.2843 19.6898
L5.4053 19.7502
" />
<path d="M5.9496 20.4760
L6.0705 20.5364
" />
<path d="M6.0705 20.5364
L6.3124 20.5364
" />
<path d="M6.3124 20.5364
L6.4334 20.4760
" />
<path d="M6.4334 20.4760
L6.4938 20.3550
" />
<path d="M6.4938 20.3550
L6.4938 20.2945
" />
<path d="M6.4938 20.2945
L6.4334 20.1736
" />
<path d="M6.4334 20.1736
L6.3124 20.1131
" />
<path d="M6.3124 20.1131
L6.1310 20.1131
" />
<path d="M6.1310 20.1131
L6.0100 20.0526
" />
<path d="M6.0100 20.0526
L5.9496 19.9317
" />
<path d="M5.9496 19.9317
L5.9496 19.8712
" />
<path d="M5.9496 19.8712
L6.0100 19.7502
" />
<path d="M6.0100 19.7502
L6.1310 19.6898
" />
<path d="M6.1310 19.6898
L6.3124 19.6898
" />
<path d="M6.3124 19.6898
L6.4334 19.7502
" />
<path d="M7.5824 19.6898
L7.5824 20.5364
" />
<path d="M7.0381 19.6898
L7.0381 20.3550
" />
<path d="M7.0381 20.3550
L7.0986 20.4760
" />
<path d="M7.0986 20.4760
L7.2196 20.5364
" />
<path d="M7.2196 20.5364
L7.4010 20.5364
" />
<path d="M7.4010 20.5364
L7.5219 20.4760
" />
<path d="M7.5219 20.4760
L7.5824 20.4155
" />
<path d="M8.1871 20.5364
L8.1871 19.6898
" />
<path d="M8.1871 19.9317
L8.2476 19.8107
" />
<path d="M8.2476 19.8107
L8.3081 19.7502
" />
<path d="M8.3081 19.7502
L8.4290 19.6898
" />
<path d="M8.4290 19.6898
L8.5500 19.6898
" />
<path d="M9.4571 20.4760
L9.3362 20.5364
" />
<path d="M9.3362 20.5364
L9.0943 20.5364
" />
<path d="M9.0943 20.5364
L8.9733 20.4760
" />
<path d="M8.9733 20.4760
L8.9129 20.3550
" />
<path d="M8.9129 20.3550
L8.9129 19.8712
" />
<path d="M8.9129 19.8712
L8.9733 19.7502
" />
<path d="M8.9733 19.7502
L9.0943 19.6898
" />
<path d="M9.0943 19.6898
L9.3362 19.6898
" />
<path d="M9.3362 19.6898
L9.4571 19.7502
" />
<path d="M9.4571 19.7502
L9.5176 19.8712
" />
<path d="M9.5176 19.8712
L9.5176 19.9921
" />
<path d="M9.5176 19.9921
L8.9129 20.1131
" />
<path d="M9.7596 20.6574
L10.7272 20.6574
" />
<path d="M11.4529 19.8712
L11.6343 19.9317
" />
<path d="M11.6343 19.9317
L11.6948 19.9921
" />
<path d="M11.6948 19.9921
L11.7552 20.1131
" />
<path d="M11.7552 20.1131
L11.7552 20.2945
" />
<path d="M11.7552 20.2945
L11.6948 20.4155
" />
<path d="M11.6948 20.4155
L11.6343 20.4760
" />
<path d="M11.6343 20.4760
L11.5133 20.5364
" />
<path d="M11.5133 20.5364
L11.0295 20.5364
" />
<path d="M11.0295 20.5364
L11.0295 19.2664
" />
<path d="M11.0295 19.2664
L11.4529 19.2664
" />
<path d="M11.4529 19.2664
L11.5738 19.3269
" />
<path d="M11.5738 19.3269
L11.6343 19.3874
" />
<path d="M11.6343 19.3874
L11.6948 19.5083
" />
<path d="M11.6948 19.5083
L11.6948 19.6293
" />
<path d="M11.6948 19.6293
L11.6343 19.7502
" />
<path d="M11.6343 19.7502
L11.5738 19.8107
" />
<path d="M11.5738 19.8107
L11.4529 19.8712
" />
<path d="M11.4529 19.8712
L11.0295 19.8712
" />
<path d="M12.8438 19.6898
L12.8438 20.5364
" />
<path d="M12.2995 19.6898
L12.2995 20.3550
" />
<path d="M12.2995 20.3550
L12.3600 20.4760
" />
<path d="M12.3600 20.4760
L12.4810 20.5364
" />
<path d="M12.4810 20.5364
L12.6624 20.5364
" />
<path d="M12.6624 20.5364
L12.7833 20.4760
" />
<path d="M12.7833 20.4760
L12.8438 20.4155
" />
<path d="M13.4485 20.5364
L13.4485 19.6898
" />
<path d="M13.4485 19.9317
L13.5090 19.8107
" />
<path d="M13.5090 19.8107
L13.5695 19.7502
" />
<path d="M13.5695 19.7502
L13.6904 19.6898
" />
<path d="M13.6904 19.6898
L13.8114 19.6898
" />
<path d="M14.1743 20.4760
L14.2952 20.5364
" />
<path d="M14.2952 20.5364
L14.5371 20.5364
" />
<path d="M14.5371 20.5364
L14.6581 20.4760
" />
<path d="M14.6581 20.4760
L14.7185 20.3550
" />
<path d="M14.7185 20.3550
L14.7185 20.2945
" />
<path d="M14.7185 20.2945
L14.6581 20.1736
" />
<path d="M14.6581 20.1736
L14.5371 20.1131
" />
<path d="M14.5371 20.1131
L14.3557 20.1131
" />
<path d="M14.3557 20.1131
L14.2347 20.0526
" />
<path d="M14.2347 20.0526
L14.1743 19.9317
" />
<path d="M14.1743 19.9317
L14.1743 19.8712
" />
<path d="M14.1743 19.8712
L14.2347 19.7502
" />
<path d="M14.2347 19.7502
L14.3557 19.6898
" />
<path d="M14.3557 19.6898
L14.5371 19.6898
" />
<path d="M14.5371 19.6898
L14.6581 19.7502
" />
<path d="M15.0814 19.6898
L15.5652 19.6898
" />
<path d="M15.2628 19.2664
L15.2628 20.3550
" />
<path d="M15.2628 20.3550
L15.3233 20.4760
" />
<path d="M15.3233 20.4760
L15.4443 20.5364
" />
<path d="M15.4443 20.5364
L15.5652 20.5364
" />
<path d="M15.6862 20.6574
L16.6538 20.6574
" />
<path d="M16.9561 20.5364
L16.9561 19.2664
" />
<path d="M16.9561 19.2664
L17.2585 19.2664
" />
<path d="M17.2585 19.2664
L17.4399 19.3269
" />
<path d="M17.4399 19.3269
L17.5609 19.4479
" />
<path d="M17.5609 19.4479
L17.6214 19.5688
" />
<path d="M17.6214 19.5688
L17.6818 19.8107
" />
<path d="M17.6818 19.8107
L17.6818 19.9921
" />
<path d="M17.6818 19.9921
L17.6214 20.2340
" />
<path d="M17.6214 20.2340
L17.5609 20.3550
" />
<path d="M17.5609 20.3550
L17.4399 20.4760
" />
<path d="M17.4399 20.4760
L17.2585 20.5364
" />
<path d="M17.2585 20.5364
L16.9561 20.5364
" />
<path d="M18.2261 20.5364
L18.2261 19.6898
" />
<path d="M18.2261 19.2664
L18.1657 19.3269
" />
<path d="M18.1657 19.3269
L18.2261 19.3874
" />
<path d="M18.2261 19.3874
L18.2866 19.3269
" />
<path d="M18.2866 19.3269
L18.2261 19.2664
" />
<path d="M18.2261 19.2664
L18.2261 19.3874
" />
<path d="M18.7705 20.4760
L18.8914 20.5364
" />
<path d="M18.8914 20.5364
L19.1333 20.5364
" />
<path d="M19.1333 20.5364
L19.2543 20.4760
" />
<path d="M19.2543 20.4760
L19.3147 20.3550
" />
<path d="M19.3147 20.3550
L19.3147 20.2945
" />
<path d="M19.3147 20.2945
L19.2543 20.1736
" />
<path d="M19.2543 20.1736
L19.1333 20.1131
" />
<path d="M19.1333 20.1131
L18.9519 20.1131
" />
<path d="M18.9519 20.1131
L18.8309 20.0526
" />
<path d="M18.8309 20.0526
L18.7705 19.9317
" />
<path d="M18.7705 19.9317
L18.7705 19.8712
" />
<path d="M18.7705 19.8712
L18.8309 19.7502
" />
<path d="M18.8309 19.7502
L18.9519 19.6898
" />
<path d="M18.9519 19.6898
L19.1333 19.6898
" />
<path d="M19.1333 19.6898
L19.2543 19.7502
" />
<path d="M19.8590 20.5364
L19.8590 19.2664
" />
<path d="M19.9800 20.0526
L20.3428 20.5364
" />
<path d="M20.3428 19.6898
L19.8590 20.1736
" />
<path d="M21.0686 20.4155
L21.1290 20.4760
" />
<path d="M21.1290 20.4760
L21.0686 20.5364
" />
<path d="M21.0686 20.5364
L21.0081 20.4760
" />
<path d="M21.0081 20.4760
L21.0686 20.4155
" />
<path d="M21.0686 20.4155
L21.0686 20.5364
" />
<path d="M20.8267 19.3269
L20.9476 19.2664
" />
<path d="M20.9476 19.2664
L21.2500 19.2664
" />
<path d="M21.2500 19.2664
L21.3709 19.3269
" />
<path d="M21.3709 19.3269
L21.4314 19.4479
" />
<path d="M21.4314 19.4479
L21.4314 19.5688
" />
<path d="M21.4314 19.5688
L21.3709 19.6898
" />
<path d="M21.3709 19.6898
L21.3105 19.7502
" />
<path d="M21.3105 19.7502
L21.1895 19.8107
" />
<path d="M21.1895 19.8107
L21.1290 19.8712
" />
<path d="M21.1290 19.8712
L21.0686 19.9921
" />
<path d="M21.0686 19.9921
L21.0686 20.0526
" />
</g></g> 
</svg>
